<svg width="40" height="40" viewBox="0 0 40 40" fill="none" xmlns="http://www.w3.org/2000/svg">
<path d="M13.7856 17.5176L19.8274 11.476L25.8724 17.5208L29.3879 14.0053L19.8274 4.44446L10.27 14.0021L13.7856 17.5176Z" fill="#F3BA2F"/>
<path d="M11.3028 19.9994L7.78735 16.4839L4.2717 19.9996L7.78718 23.5151L11.3028 19.9994Z" fill="#F3BA2F"/>
<path d="M13.7856 22.4824L19.8274 28.524L25.8722 22.4795L29.3897 25.9931L29.388 25.995L19.8274 35.5556L10.2698 25.9982L10.2649 25.9933L13.7856 22.4824Z" fill="#F3BA2F"/>
<path d="M31.8676 23.5168L35.3833 20.0011L31.8678 16.4856L28.3522 20.0013L31.8676 23.5168Z" fill="#F3BA2F"/>
<path d="M23.3933 19.9982H23.3948L19.8274 16.4308L17.1911 19.0671H17.1908L16.8881 19.3701L16.2632 19.995L16.2583 19.9999L16.2632 20.0051L19.8274 23.5693L23.3948 20.0019L23.3965 19.9999L23.3933 19.9982Z" fill="#F3BA2F"/>
</svg>
