<svg width="40" height="40" viewBox="0 0 40 40" fill="none" xmlns="http://www.w3.org/2000/svg">
<path d="M27.4844 23.3751V14.1666H29.3353V23.3751H27.4844Z" fill="#F7A600"/>
<path d="M5.91239 26.1104H1.94434V16.902H5.75283C7.60378 16.902 8.68228 17.9107 8.68228 19.4887C8.68228 20.5101 7.98962 21.1702 7.5102 21.39C8.08246 21.6485 8.81498 22.2303 8.81498 23.4596C8.81498 25.1791 7.60378 26.1104 5.91239 26.1104ZM5.60632 18.506H3.79527V20.627H5.60632C6.39183 20.627 6.83134 20.2002 6.83134 19.5662C6.83134 18.9329 6.39183 18.506 5.60632 18.506ZM5.72599 22.2437H3.79527V24.5071H5.72599C6.56515 24.5071 6.96405 23.9901 6.96405 23.3687C6.96405 22.7481 6.5644 22.2437 5.72599 22.2437Z" fill="#111111"/>
<path d="M14.4605 22.3339V26.1104H12.6226V22.3339L9.77295 16.902H11.7834L13.5546 20.6136L15.2989 16.902H17.3094L14.4605 22.3339Z" fill="#111111"/>
<path d="M22.5572 26.1104H18.5891V16.902H22.3976C24.2486 16.902 25.3271 17.9107 25.3271 19.4887C25.3271 20.5101 24.6344 21.1702 24.155 21.39C24.7272 21.6485 25.4598 22.2303 25.4598 23.4596C25.4598 25.1791 24.2486 26.1104 22.5572 26.1104ZM22.2511 18.506H20.44V20.627H22.2511C23.0366 20.627 23.4761 20.2002 23.4761 19.5662C23.4761 18.9329 23.0366 18.506 22.2511 18.506ZM22.3708 22.2437H20.44V24.5071H22.3708C23.2099 24.5071 23.6088 23.9901 23.6088 23.3687C23.6088 22.7481 23.2099 22.2437 22.3708 22.2437Z" fill="#111111"/>
<path d="M35.3009 18.506V26.1111H33.45V18.506H30.9731V16.902H37.7778V18.506H35.3009Z" fill="#111111"/>
</svg>
