<svg width="40" height="40" viewBox="0 0 40 40" fill="none" xmlns="http://www.w3.org/2000/svg">
<path d="M23.4051 17.1455L22.2749 20.2171L22.6041 23.6483L19.9584 23.6609H17.3378L17.6918 20.2171L16.5366 17.1455H23.4051Z" fill="white"/>
<path d="M26.5534 18.1738L23.4422 20.23V23.882L21.0698 26.1967V27.2878L23.3614 29.426H25.2742L30.0995 20.886L26.5534 18.1738Z" fill="white"/>
<path d="M14.6362 10.8193H25.2495L26.5288 16.3193H13.4004L14.6362 10.8193Z" fill="white"/>
<path d="M16.524 20.2301L13.3753 18.1992L9.81689 20.8861L14.6671 29.4514H16.6047L18.8962 27.288V26.1968L16.524 23.8821V20.2301Z" fill="white"/>
<path fill-rule="evenodd" clip-rule="evenodd" d="M5.89863 11.7276L19.9771 3.49023L33.9998 11.7528V28.2464L19.9151 36.509L5.86133 28.2402V11.7276H5.89863ZM19.9771 5.17429L7.30207 12.5917V27.4265L19.9771 34.8439L32.5963 27.4265V12.5917L19.9771 5.17429Z" fill="white"/>
</svg>
