<svg width="40" height="40" viewBox="0 0 40 40" fill="none" xmlns="http://www.w3.org/2000/svg">
<path fill-rule="evenodd" clip-rule="evenodd" d="M15.3143 19.9975L23.4661 28.1505L28.6115 23.0051C29.5315 22.1767 30.9391 22.2135 31.8146 23.089C32.6901 23.9644 32.7269 25.372 31.8985 26.2921L25.1083 33.0836C24.1962 33.9805 22.7334 33.9805 21.8213 33.0836L12.0248 23.2845V29.1088C12.0248 30.3942 10.9827 31.4363 9.69732 31.4363C8.41191 31.4363 7.36987 30.3942 7.36987 29.1088V10.8786C7.36987 9.59321 8.41191 8.55117 9.69732 8.55117C10.9827 8.55117 12.0248 9.59321 12.0248 10.8786V16.7029L21.82 6.90641C22.7318 6.00874 24.1952 6.00874 25.107 6.90641L31.9023 13.6966C32.7307 14.6167 32.6938 16.0243 31.8184 16.8997C30.9429 17.7752 29.5353 17.812 28.6153 16.9836L23.4698 11.8382L15.3143 19.9975ZM23.4698 17.6675C22.5273 17.667 21.6774 18.2344 21.3163 19.105C20.9553 19.9756 21.1543 20.978 21.8206 21.6446C22.4869 22.3112 23.4891 22.5108 24.3599 22.1502C25.2307 21.7897 25.7986 20.94 25.7986 19.9975C25.7989 19.3796 25.5537 18.7868 25.117 18.3496C24.6803 17.9124 24.0878 17.6666 23.4698 17.6663V17.6675Z" fill="#23AF91"/>
</svg>
