<svg width="40" height="40" viewBox="0 0 40 40" fill="none" xmlns="http://www.w3.org/2000/svg">
<path d="M35.6678 24.4014L28.4881 11.9474C26.9141 9.35164 23.0757 9.32403 21.5569 12.0578L14.0183 25.0089C12.6099 27.3837 14.3496 30.366 17.1663 30.366H32.2712C35.1155 30.366 37.2418 27.3008 35.6678 24.4014Z" fill="#00B897"/>
<path d="M25.3124 25.3681L24.8706 24.5949C24.4564 23.8769 23.5451 22.3305 23.5451 22.3305L17.47 11.782C15.896 9.43477 12.1681 9.24147 10.5941 12.1962L3.52488 24.4292C2.06133 26.9973 3.80102 30.3386 6.97665 30.3663H21.9987H28.4052H32.216C28.3224 30.3939 27.0798 28.378 25.3124 25.3681Z" fill="#76FCB2"/>
<path d="M25.3127 25.3678L24.8709 24.5947C24.4567 23.8767 23.5454 22.3303 23.5454 22.3303L19.6242 15.4268L13.9909 25.0365C12.5826 27.4113 14.3223 30.3936 17.139 30.3936H21.9714H28.3779H32.2163C28.2951 30.366 27.08 28.3778 25.3127 25.3678Z" fill="url(#paint0_linear_2524_51)"/>
<defs>
<linearGradient id="paint0_linear_2524_51" x1="11.986" y1="20.6702" x2="29.4377" y2="27.1191" gradientUnits="userSpaceOnUse">
<stop stop-color="#53E57A" stop-opacity="0"/>
<stop offset="1" stop-color="#00A977"/>
</linearGradient>
</defs>
</svg>
