<svg width="221" height="239" viewBox="0 0 221 239" fill="none" xmlns="http://www.w3.org/2000/svg">
<path d="M124.732 160.395C124.327 161.84 124.688 161.434 125.59 159.853C126.492 158.272 127.754 155.608 129.016 152.492C130.278 149.376 131.427 145.922 132.215 142.874C133.003 139.826 133.475 137.275 133.497 136.079C133.54 133.686 132.167 139.398 130.118 145.787C129.127 148.993 127.842 152.403 126.806 155.067C125.746 157.799 124.913 159.854 124.732 160.395Z" fill="#2A4D2D"/>
<path d="M123.643 156.194C123.328 157.594 123.689 157.187 124.501 155.652C125.245 154.094 126.349 151.452 127.363 148.404C128.376 145.356 129.209 141.947 129.681 138.944C130.221 135.964 130.377 133.459 130.219 132.353C130.014 130.028 129.341 135.672 127.855 141.948C127.112 145.086 126.166 148.382 125.356 151.046C124.499 153.62 123.756 155.629 123.643 156.194Z" fill="#2A4D2D"/>
<path d="M121.625 151.399C121.356 152.889 121.739 152.415 122.438 150.767C123.136 149.118 124.173 146.228 124.961 142.955C125.816 139.704 126.513 136.024 126.873 132.909C127.232 129.793 127.298 127.107 127.161 125.934C126.821 123.564 126.374 129.433 125.204 136.115C124.62 139.456 123.832 142.956 123.112 145.8C122.369 148.713 121.738 150.835 121.625 151.399Z" fill="#2A4D2D"/>
<path d="M119.901 145.322C119.676 146.902 120.014 146.338 120.713 144.689C121.366 142.951 122.357 139.971 123.032 136.584C123.775 133.221 124.224 129.383 124.38 126.2C124.558 122.95 124.398 120.263 124.127 119.045C123.583 116.607 123.745 122.679 122.87 129.61C122.466 133.086 121.859 136.721 121.183 139.655C120.621 142.477 120.036 144.69 119.901 145.322Z" fill="#2A4D2D"/>
<path d="M117.191 140.585C116.921 142.3 117.327 141.758 117.981 139.794C118.634 137.83 119.557 134.376 120.164 130.515C120.771 126.655 121.016 122.298 120.878 118.642C120.74 114.985 120.242 111.961 119.857 110.629C118.93 107.989 119.995 114.737 119.707 122.615C119.597 126.565 119.126 130.697 118.541 134.038C117.956 137.379 117.349 139.885 117.191 140.585Z" fill="#2A4D2D"/>
<path d="M115.476 134.441C115.342 136.202 115.703 135.57 116.22 133.56C116.738 131.551 117.413 128.165 117.794 124.304C118.175 120.444 118.308 116.201 118.17 112.544C118.032 108.887 117.579 105.953 117.194 104.622C116.357 101.936 117.174 108.752 116.999 116.517C116.979 120.423 116.643 124.599 116.284 127.94C115.88 131.19 115.498 133.696 115.476 134.441Z" fill="#2A4D2D"/>
<path d="M112.993 130.77C112.926 132.327 113.242 131.83 113.692 130.024C114.142 128.218 114.727 125.103 115.063 121.604C115.4 118.105 115.465 114.29 115.214 110.972C115.032 107.677 114.556 105.036 114.126 103.84C113.267 101.448 114.174 107.542 114.088 114.584C114.113 118.128 113.867 121.808 113.531 124.855C113.352 127.88 112.992 130.092 112.993 130.77Z" fill="#2A4D2D"/>
<path d="M110.032 125.871C109.965 127.654 110.258 127 110.776 124.99C110.866 124.494 111.001 123.862 111.136 123.229C111.271 122.597 111.383 121.807 111.496 121.017C111.72 119.437 111.877 117.608 111.921 115.667C112.076 111.807 111.757 107.564 111.055 104.02C110.421 100.499 109.426 97.6107 108.861 96.3695C107.572 93.91 109.721 100.342 110.471 108.038C110.857 111.853 110.905 116.006 110.704 119.325C110.413 122.688 110.031 125.194 110.032 125.871Z" fill="#2A4D2D"/>
<path d="M106.315 120.796C106.045 121.609 105.955 121.88 106.158 121.722C106.339 121.631 106.835 121.044 107.218 120.118C107.623 119.125 107.781 117.748 107.915 116.213C108.049 114.678 108.116 112.895 108.115 111.089C108.135 107.409 107.771 103.301 107.182 99.8709C106.592 96.4402 105.868 93.6417 105.348 92.4909C104.263 90.0989 105.78 96.3956 106.485 103.776C106.826 107.501 107.009 111.473 106.943 114.611C106.944 116.191 106.923 117.613 106.788 118.697C106.653 119.78 106.406 120.525 106.315 120.796Z" fill="#2A4D2D"/>
<path d="M102.989 114.05C102.922 114.479 102.651 114.614 102.47 114.705C102.312 114.727 102.29 114.795 102.425 114.84C102.493 114.863 102.628 114.908 102.741 114.795C102.899 114.772 103.102 114.614 103.215 114.501C103.486 114.14 103.643 113.666 103.666 113.146C103.89 111.115 104.023 107.774 103.863 103.959C103.68 100.212 103.248 96.0819 102.613 92.561C101.957 89.1078 101.165 86.2868 100.622 84.9779C99.4917 82.4957 101.099 88.973 101.984 96.489C102.461 100.258 102.779 104.276 102.894 107.549C102.963 109.152 103.009 110.596 103.01 111.725C103.056 112.267 103.033 112.786 103.056 113.169C103.124 113.643 103.034 113.914 102.989 114.05Z" fill="#2A4D2D"/>
<path d="M99.9212 108.351C100.103 109.841 100.373 109.254 100.507 107.493C100.642 105.732 100.708 102.82 100.434 99.5701C100.161 96.3199 99.6173 92.7538 98.9607 89.7521C98.3041 86.7503 97.4447 84.3582 96.8797 83.3428C95.7497 81.3121 97.4012 86.7509 98.4664 93.2737C99.0329 96.5463 99.3964 99.9771 99.6467 102.844C99.7614 105.665 99.8757 107.809 99.9212 108.351Z" fill="#2A4D2D"/>
<path d="M94.1073 101.465C94.3564 102.751 94.5141 102.277 94.6485 100.742C94.7829 99.2071 94.8263 96.5887 94.5761 93.7221C94.4161 90.8104 93.9626 87.6505 93.3288 85.0325C92.7852 82.3693 92.0615 80.248 91.5643 79.2551C90.5924 77.4274 91.8146 82.3474 92.6762 88.1254C93.1522 90.9918 93.4703 94.1066 93.6299 96.5669C93.9251 99.0723 94.0392 100.991 94.1073 101.465Z" fill="#2A4D2D"/>
<path d="M90.5997 96.5425C90.8489 97.829 91.0066 97.3549 91.141 95.8198C91.2754 94.2848 91.206 91.7793 90.9333 88.9805C90.6605 86.1817 90.0942 83.1348 89.4379 80.5845C88.7816 78.0342 88.0353 75.9806 87.493 75.1232C86.4083 73.4085 87.8561 78.1026 88.8756 83.6322C89.3741 86.4308 89.8275 89.365 90.0549 91.8478C90.3273 94.1952 90.464 96.046 90.5997 96.5425Z" fill="#2A4D2D"/>
<path d="M86.3823 92.5122C86.6091 94.0922 86.8118 93.4826 86.9234 91.5638C87.035 89.6451 86.9651 86.4624 86.4887 82.9188C86.0123 79.3752 85.1068 75.5385 83.9761 72.3791C82.9131 69.2422 81.6473 66.715 80.9243 65.7222C79.4331 63.6466 82.0779 69.2654 83.8432 76.1714C84.7258 79.6244 85.4281 83.3936 85.7688 86.4406C86.1771 89.5102 86.2916 91.8803 86.3823 92.5122Z" fill="#2A4D2D"/>
<path d="M81.84 86.2552C82.2021 87.6545 82.3146 87.0901 82.3361 85.4422C82.2898 83.7719 82.0396 80.9054 81.4055 77.8359C80.7714 74.7665 79.7082 71.4039 78.5778 68.6959C77.4474 65.988 76.2045 63.8444 75.5041 63.0097C74.0358 61.3177 76.6349 66.1691 78.5575 72.1495C79.5302 75.1059 80.3901 78.4009 80.9337 81.0641C81.3417 83.6823 81.6365 85.7362 81.84 86.2552Z" fill="#2A4D2D"/>
<path d="M76.7891 80.8855C77.1511 82.0591 77.3088 81.5849 77.2626 80.1403C77.2165 78.6957 76.9892 76.2129 76.3102 73.5046C75.6989 70.8189 74.6135 67.9755 73.4156 65.6965C72.308 63.3722 70.9977 61.6576 70.3201 60.9809C68.8745 59.6726 71.473 63.6211 73.4628 68.7212C74.5029 71.2486 75.2948 74.0696 75.8155 76.3491C76.3362 78.6286 76.6534 80.389 76.7891 80.8855Z" fill="#2A4D2D"/>
<path d="M72.29 76.7538C72.9229 78.0174 72.9451 77.4982 72.6054 75.8055C72.2432 74.1805 71.4287 71.4272 70.2981 68.4935C69.1675 65.5599 67.6531 62.4233 66.0938 59.8736C64.6024 57.3465 63.1564 55.3611 62.2981 54.549C60.6267 53.0152 63.6996 57.5728 66.5476 63.2592C67.949 66.0573 69.3279 69.1488 70.3455 71.7439C71.3855 74.2714 72.0865 76.2347 72.29 76.7538Z" fill="#2A4D2D"/>
<path d="M65.8448 70.0933C66.5905 71.244 66.545 70.7023 66.07 69.1903C65.5272 67.6557 64.4872 65.1282 63.0407 62.4656C61.5943 59.8031 59.764 56.9376 58.0244 54.704C56.2848 52.4705 54.6133 50.711 53.7551 50.1247C51.9936 48.8618 55.495 52.8096 58.8392 57.9088C60.5564 60.4358 62.1835 63.2337 63.4491 65.5352C64.7147 67.8368 65.5511 69.6195 65.8448 70.0933Z" fill="#2A4D2D"/>
<path d="M58.2642 63.5316C59.1225 64.3437 58.9867 63.8472 58.399 62.6738C57.7436 61.4779 56.5009 59.5601 54.9646 57.6198C53.4509 55.6119 51.576 53.5591 49.8594 51.935C48.1428 50.3109 46.5845 49.1156 45.749 48.6873C44.0555 47.8984 47.3757 50.808 50.7866 54.5753C52.5034 56.4251 54.2203 58.5007 55.6209 60.1701C56.9313 61.8847 57.9254 63.1933 58.2642 63.5316Z" fill="#2A4D2D"/>
<path d="M124.252 159.403C125.877 159.492 125.312 159.154 123.438 158.681C121.587 158.141 118.562 157.285 115.175 156.159C111.789 155.032 108.199 153.612 105.105 152.283C102.012 150.953 99.5507 149.758 98.3315 149.353C97.1123 148.947 97.8125 149.556 99.6868 150.706C101.561 151.856 104.564 153.457 108.019 154.832C111.383 156.251 115.131 157.423 118.179 158.211C121.249 158.931 123.597 159.336 124.252 159.403Z" fill="#2A4D2D"/>
<path d="M123.319 155.416C124.989 155.595 124.425 155.257 122.528 154.626C120.632 153.995 117.516 152.959 114.129 151.607C110.72 150.323 107.062 148.655 103.946 147.167C100.83 145.679 98.2784 144.304 97.0818 143.831C95.8174 143.335 96.5628 144.034 98.4823 145.275C100.402 146.515 103.428 148.273 106.882 149.874C110.337 151.474 114.085 152.871 117.223 153.84C120.294 154.786 122.687 155.281 123.319 155.416Z" fill="#2A4D2D"/>
<path d="M121.504 151.342C123.085 151.567 122.543 151.161 120.781 150.575C119.043 149.922 116.153 148.885 113.037 147.623C109.854 146.339 106.467 144.761 103.554 143.341C100.641 141.921 98.27 140.681 97.1411 140.23C94.8155 139.306 99.7839 142.914 106.219 145.957C109.403 147.468 112.925 148.865 115.77 149.811C118.705 150.712 120.917 151.297 121.504 151.342Z" fill="#2A4D2D"/>
<path d="M119.025 146.376C120.447 146.624 119.973 146.24 118.46 145.586C116.97 144.865 114.328 143.761 111.551 142.386C108.751 141.078 105.657 139.523 103.038 138.125C100.419 136.728 98.3185 135.578 97.2348 135.217C95.1124 134.361 99.6292 137.744 105.342 140.697C108.232 142.185 111.303 143.582 113.9 144.596C116.406 145.656 118.46 146.264 119.025 146.376Z" fill="#2A4D2D"/>
<path d="M116.802 140.387C118.27 140.724 117.796 140.341 116.26 139.529C114.702 138.785 112.105 137.546 109.215 136.058C106.325 134.57 103.299 132.811 100.657 131.255C98.0827 129.722 95.9147 128.324 94.8986 127.761C92.7761 126.678 97.1352 130.535 102.916 133.963C105.806 135.676 108.968 137.254 111.587 138.426C114.206 139.598 116.238 140.274 116.802 140.387Z" fill="#2A4D2D"/>
<path d="M114.125 135.118C115.818 135.681 115.298 135.208 113.469 134.148C111.64 133.088 108.592 131.397 105.295 129.323C101.998 127.248 98.4297 124.858 95.539 122.693C92.5805 120.505 90.1866 118.656 89.0123 117.889C87.838 117.123 88.4706 117.935 90.1647 119.627C91.8813 121.251 94.7496 123.709 98.0468 126.009C101.321 128.377 104.957 130.565 107.938 132.233C111.099 133.811 113.447 134.893 114.125 135.118Z" fill="#2A4D2D"/>
<path d="M110.307 127.766C113.626 128.87 108.139 126.143 101.77 121.768C95.3795 117.461 88.1073 111.732 85.6235 110.379C84.4041 109.748 85.0592 110.493 86.8886 112.004C88.6955 113.583 91.5412 115.883 94.7481 118.229C97.9549 120.574 101.455 122.942 104.346 124.655C107.349 126.482 109.697 127.564 110.307 127.766Z" fill="#2A4D2D"/>
<path d="M106.552 121.696C109.307 122.687 104.926 120.027 99.6643 116.622C96.9996 114.908 94.1315 112.901 91.6925 111.187C89.2535 109.473 87.2436 108.052 86.2049 107.556C84.1501 106.497 88.3738 110.309 93.6808 114.03C96.3682 115.901 99.2813 117.773 101.743 119.193C104.091 120.501 106.033 121.448 106.552 121.696Z" fill="#2A4D2D"/>
<path d="M102.839 114.749C105.661 115.763 101.145 113.057 95.5895 109.63C92.7893 107.871 89.7182 106.022 87.0987 104.399C84.4792 102.775 82.2887 101.445 81.1598 100.994C78.9922 100.048 83.5994 103.611 89.3127 107.242C92.1806 109.023 95.2517 110.872 97.8033 112.247C100.355 113.622 102.297 114.569 102.839 114.749Z" fill="#2A4D2D"/>
<path d="M97.6596 108.137C102.988 110.21 81.2193 96.9519 76.9521 95.5327C72.6172 94.0909 95.6049 107.303 97.6596 108.137Z" fill="#2A4D2D"/>
<path d="M92.2691 99.9474C96.107 100.848 80.9779 92.7317 77.9077 92.2372C74.8375 91.7426 90.8016 99.6098 92.2691 99.9474Z" fill="#2A4D2D"/>
<path d="M86.6971 92.9162C91.2125 94.2675 72.8994 84.1898 69.197 83.3346C65.472 82.547 84.9135 92.3982 86.6971 92.9162Z" fill="#2A4D2D"/>
<path d="M81.0851 85.7862C86.6843 87.498 63.4717 75.6403 58.9564 74.5147C54.5089 73.4117 78.8951 85.1331 81.0851 85.7862Z" fill="#2A4D2D"/>
<path d="M73.6457 77.8817C75.7455 78.58 72.6515 76.3474 68.3612 74.093C64.1612 71.7934 58.81 69.5623 57.0718 69.3603C55.3336 69.1583 59.1044 70.939 63.53 73.0128C67.8653 75.1317 72.7652 77.5888 73.6457 77.8817Z" fill="#2A4D2D"/>
<path d="M66.3706 70.5727C67.4317 70.7751 67.1606 70.4593 66.0315 69.7829C64.9476 69.1967 62.9607 68.3854 60.8158 67.5968C58.6709 66.8082 56.21 66.065 54.1554 65.4569C52.1009 64.8488 50.3851 64.3534 49.5047 64.2863C49.0758 64.2188 48.9855 64.264 49.1436 64.4671C49.3018 64.6701 49.7534 64.8955 50.4082 65.1885C51.7178 65.7746 53.795 66.5406 56.0302 67.284C58.2654 68.0274 60.6585 68.7481 62.5776 69.3112C64.5193 70.0322 66.0094 70.5278 66.3706 70.5727Z" fill="#2A4D2D"/>
<path d="M59.037 64.5982C62.6038 65.1827 48.3335 58.5559 45.3989 58.3321C42.5321 58.1309 57.6825 64.3734 59.037 64.5982Z" fill="#2A4D2D"/>
<path d="M125.392 164.077C126.365 167.711 126.75 168.816 126.681 167.891C126.681 167.44 126.477 166.469 126.25 165.115C126.115 164.393 125.911 163.648 125.752 162.768C125.526 161.865 125.322 160.894 125.005 159.811C123.874 155.523 121.951 149.768 119.261 143.382C116.571 136.996 112.999 129.865 108.773 122.668C106.649 119.102 104.412 115.425 101.994 111.837C99.5767 108.25 97.1591 104.662 94.5384 101.233C91.9402 97.7361 89.3647 94.3971 86.6764 91.171C83.9881 87.945 81.3224 84.8769 78.6795 81.9668C73.3711 76.2143 68.2889 71.1389 63.8846 67.1917C59.4803 63.2444 55.799 60.2899 53.36 58.576C50.9887 56.8846 50.5824 56.7495 51.802 57.8322C53.0216 58.9148 55.7771 61.2605 59.5264 64.689C63.208 68.095 67.8836 72.5838 72.9434 77.9527C77.9355 83.2991 83.3345 89.4578 88.5758 96.0906C89.9087 97.7375 91.1513 99.4296 92.4616 101.144C93.7042 102.836 95.0146 104.551 96.2347 106.311C98.7652 109.785 101.115 113.35 103.397 116.893C105.679 120.435 107.804 124 109.815 127.452C110.742 129.19 111.759 130.882 112.617 132.597C113.092 133.432 113.499 134.244 113.951 135.147C114.358 135.959 114.765 136.771 115.171 137.584C118.426 144.082 120.823 149.995 122.429 154.666C124.057 159.27 124.962 162.655 125.392 164.077Z" fill="#2A4D2D"/>
<path d="M150.174 64.2631C149.799 63.0574 148.508 62.724 146.85 63.1682C145.131 63.5767 143.071 64.8601 141.408 66.4552C139.745 68.0504 138.382 69.9833 137.587 71.5026C137.159 72.2444 136.926 72.934 136.738 73.4024C136.55 73.8708 136.469 74.1538 136.469 74.1538C136.469 74.1538 136.735 73.9779 137.135 73.714C137.534 73.4502 138.165 73.0723 138.831 72.6326C140.225 71.7888 142.168 70.8501 143.942 70.0612C145.814 69.2461 147.517 68.5808 148.751 67.7275C149.888 66.9003 150.654 65.859 150.174 64.2631Z" fill="#2A4D2D"/>
<path d="M150.445 74.2148C150.265 72.9567 148.886 72.4902 146.883 72.8177C145.882 72.9815 144.774 73.3307 143.62 73.9011C142.467 74.4714 141.401 75.175 140.326 76.0379C139.251 76.9008 138.361 77.8707 137.604 78.7527C136.812 79.6965 136.179 80.6499 135.68 81.5154C135.43 81.9481 135.216 82.319 135.099 82.6638C134.921 82.9729 134.804 83.3177 134.661 83.5649C134.438 84.0952 134.357 84.3781 134.357 84.3781C134.357 84.3781 134.623 84.2022 135.058 83.8766C135.263 83.665 135.529 83.4891 135.893 83.2871C136.195 83.0494 136.559 82.8474 136.959 82.5835C137.722 82.1177 138.681 81.5996 139.639 81.0815C140.66 80.5991 141.68 80.1166 142.726 79.7317C143.773 79.3468 144.819 78.9619 145.768 78.6031C146.717 78.2444 147.569 77.9117 148.358 77.5434C149.716 76.7614 150.73 75.8629 150.445 74.2148Z" fill="#2A4D2D"/>
<path d="M149.154 83.5964C148.938 82.4002 147.656 81.9075 145.946 82.1567C144.175 82.3701 142.01 83.2636 140.048 84.5209C138.086 85.7783 136.299 87.302 135.134 88.6072C133.906 89.8767 133.273 90.8301 133.273 90.8301C133.273 90.8301 134.382 90.4809 136.039 90.0367C137.635 89.5568 139.806 89.0796 141.818 88.5927C143.892 88.1415 145.807 87.6808 147.191 86.9964C148.585 86.1526 149.474 85.1827 149.154 83.5964Z" fill="#2A4D2D"/>
<path d="M146.866 91.9996C146.491 90.7938 145.164 90.5223 143.311 91.0187C141.494 91.4533 139.311 92.6654 137.391 94.2771C135.507 95.827 133.861 97.679 132.783 99.1173C132.258 99.8853 131.839 100.468 131.553 100.962C131.303 101.395 131.125 101.704 131.125 101.704C131.125 101.704 131.391 101.528 131.915 101.336C132.376 101.108 133.068 100.765 133.858 100.397C135.437 99.6604 137.601 98.7669 139.694 97.9971C141.787 97.2273 143.783 96.4836 145.115 95.6042C146.58 94.6368 147.381 93.5336 146.866 91.9996Z" fill="#2A4D2D"/>
<path d="M147.917 101.024C147.542 99.8183 146.118 99.5729 144.203 100.034C142.289 100.494 139.91 101.759 137.805 103.263C135.665 104.83 133.859 106.672 132.586 108.163C131.314 109.653 130.609 110.73 130.609 110.73C130.609 110.73 131.825 110.196 133.563 109.469C135.302 108.742 137.687 107.893 139.94 107.133C142.227 106.311 144.382 105.577 145.909 104.645C147.472 103.652 148.336 102.584 147.917 101.024Z" fill="#2A4D2D"/>
<path d="M146.797 111.084C146.421 109.878 144.961 109.695 142.975 110.279C140.99 110.863 138.663 112.323 136.637 114.12C134.61 115.917 132.98 118.026 131.919 119.721C131.358 120.551 131.027 121.267 130.741 121.761C130.518 122.291 130.339 122.6 130.339 122.6C130.339 122.6 130.606 122.424 131.103 122.135C131.6 121.845 132.266 121.405 133.065 120.877C134.725 119.858 136.935 118.743 139.109 117.69C141.283 116.637 143.411 115.806 144.912 114.777C146.377 113.809 147.276 112.68 146.797 111.084Z" fill="#2A4D2D"/>
<path d="M147.254 121.007C146.781 119.827 145.188 119.731 143.157 120.537C142.11 120.922 140.983 121.59 139.881 122.355C138.745 123.182 137.695 124.142 136.673 125.2C135.65 126.258 134.75 127.388 134.01 128.526C133.271 129.665 132.628 130.778 132.155 131.741C131.905 132.174 131.717 132.642 131.564 133.049C131.412 133.455 131.234 133.764 131.117 134.109C130.955 134.675 130.777 134.984 130.777 134.984C130.777 134.984 131.079 134.746 131.488 134.323C131.692 134.112 131.995 133.874 132.332 133.574C132.67 133.275 133.008 132.975 133.443 132.65C134.252 131.963 135.22 131.285 136.224 130.546C137.289 129.842 138.355 129.139 139.482 128.471C140.61 127.803 141.701 127.197 142.731 126.555C143.726 125.975 144.658 125.36 145.457 124.832C146.932 123.705 147.867 122.514 147.254 121.007Z" fill="#2A4D2D"/>
<path d="M146.761 129.294C146.253 128.176 144.819 128.09 143.08 128.817C141.342 129.544 139.299 131.085 137.591 132.901C135.883 134.717 134.412 136.835 133.546 138.478C133.082 139.282 132.751 139.998 132.563 140.466C132.375 140.934 132.197 141.244 132.197 141.244C132.197 141.244 132.463 141.068 132.899 140.742C133.334 140.416 134 139.977 134.763 139.511C136.326 138.517 138.314 137.357 140.329 136.295C142.282 135.197 144.199 134.161 145.54 133.122C146.794 131.95 147.472 130.776 146.761 129.294Z" fill="#2A4D2D"/>
<path d="M132.936 57.017C131.678 57.1974 131.195 58.3196 131.321 59.9582C131.446 61.5967 132.252 63.6278 133.359 65.4211C134.529 67.2502 135.938 68.8059 137.156 69.8384C137.764 70.3546 138.285 70.7377 138.62 71.0136C138.955 71.2896 139.203 71.4323 139.203 71.4323C139.203 71.4323 138.88 70.4216 138.488 68.9589C138.096 67.4963 137.671 65.5201 137.298 63.7388C136.961 61.8957 136.65 60.1501 136.053 58.8991C135.493 57.5862 134.549 56.794 132.936 57.017Z" fill="#2A4D2D"/>
<path d="M126.949 62.7853C125.691 62.9657 125.225 64.3448 125.455 66.3733C125.623 68.3662 126.559 70.8848 127.895 73.1396C129.195 75.4563 130.93 77.4472 132.288 78.8079C132.948 79.5191 133.557 80.0354 134.016 80.3827C134.475 80.7301 134.686 80.9346 134.686 80.9346C134.686 80.9346 134.608 80.6421 134.354 80.0832C134.161 79.5599 133.89 78.7442 133.655 77.8666C133.061 76.0401 132.47 73.6381 131.905 71.3336C131.34 69.0291 130.898 66.796 130.197 65.1549C129.558 63.5495 128.597 62.5005 126.949 62.7853Z" fill="#2A4D2D"/>
<path d="M123.671 79.7683C122.491 80.2411 122.229 81.4086 122.718 82.8451C123.208 84.2816 124.484 85.9253 126.072 87.1719C127.661 88.4185 129.463 89.2941 130.878 89.6989C131.567 89.9321 132.169 90.0322 132.611 90.1227C133.053 90.2132 133.275 90.2585 133.275 90.2585C133.275 90.2585 133.125 90.0896 132.825 89.7518C132.526 89.414 132.2 88.9787 131.786 88.4103C130.959 87.2733 130.028 85.7463 129.317 84.2646C128.509 82.8089 127.886 81.4604 127.014 80.5446C126.239 79.6026 125.179 79.1552 123.671 79.7683Z" fill="#2A4D2D"/>
<path d="M122.242 92.2355C121.238 92.9748 121.295 94.1614 122.086 95.3602C122.878 96.559 124.368 97.8317 126.073 98.7335C127.778 99.6354 129.599 100.192 130.988 100.5C132.376 100.807 133.271 100.829 133.271 100.829C133.271 100.829 132.61 100.117 131.747 99.0421C130.848 98.0288 129.783 96.5898 128.745 95.2482C127.706 93.9067 126.755 92.6983 125.74 92.0298C124.689 91.423 123.548 91.2586 122.242 92.2355Z" fill="#2A4D2D"/>
<path d="M119.624 102.482C118.189 104.539 120.89 106.428 124.064 107.354C125.603 107.83 127.248 108.121 128.523 108.197C129.762 108.336 130.594 108.322 130.594 108.322C130.594 108.322 129.995 107.646 129.22 106.704C128.348 105.788 127.335 104.544 126.153 103.45C123.843 101.456 121.415 99.8076 119.624 102.482Z" fill="#2A4D2D"/>
<path d="M116.783 109.831C115.779 110.57 115.985 111.925 116.979 113.488C117.972 115.051 119.824 116.697 121.881 118.132C123.911 119.469 126.146 120.594 127.87 121.177C129.558 121.822 130.788 122.12 130.788 122.12C130.788 122.12 129.915 121.204 128.815 119.827C127.617 118.476 126.226 116.602 124.826 114.887C123.461 113.11 122.061 111.395 120.782 110.327C119.406 109.285 118.15 108.889 116.783 109.831Z" fill="#2A4D2D"/>
<path d="M117.327 125.302C116.561 126.344 117.034 127.523 118.339 128.689C119.644 129.855 121.72 130.971 123.876 131.804C126.033 132.637 128.306 133.125 130.049 133.389C131.792 133.654 132.907 133.721 132.907 133.721C132.907 133.721 132.025 132.964 130.685 131.86C129.344 130.757 127.668 129.377 126.027 127.935C124.351 126.555 122.701 125.273 121.234 124.673C119.705 124.038 118.359 124.085 117.327 125.302Z" fill="#2A4D2D"/>
<path d="M114.951 134.565C114.308 135.677 114.976 136.805 116.486 137.759C117.898 138.739 120.152 139.546 122.363 139.999C124.637 140.487 126.965 140.595 128.691 140.602C130.418 140.61 131.578 140.456 131.578 140.456C131.578 140.456 130.589 139.885 129.106 139.028C127.622 138.172 125.741 137.003 123.887 135.933C122.032 134.862 120.24 133.827 118.665 133.413C117.127 132.937 115.771 133.143 114.951 134.565Z" fill="#2A4D2D"/>
<path d="M113.035 144.439C112.281 146.888 116.958 148.352 121.723 149.949C124.137 150.766 126.586 151.521 128.407 152.078C130.255 152.732 131.51 153.127 131.51 153.127C131.51 153.127 130.647 152.052 129.228 150.656C127.809 149.259 125.807 147.444 123.591 146C121.411 144.494 118.99 143.262 117.062 142.89C115.072 142.483 113.547 142.839 113.035 144.439Z" fill="#2A4D2D"/>
<path d="M144.785 139.856C144.081 138.79 142.664 138.961 140.968 140.042C139.308 141.062 137.528 143.002 136.12 145.156C135.416 146.233 134.773 147.346 134.29 148.468C133.781 149.493 133.405 150.43 133.038 151.207C132.61 151.949 132.227 152.469 131.916 152.867C131.542 153.228 131.337 153.439 131.337 153.439C131.337 153.439 131.435 153.413 131.532 153.387C131.692 153.397 131.887 153.345 132.179 153.266C132.667 153.135 133.483 152.865 134.318 152.275C135.117 151.747 136.059 150.973 136.903 150.224C137.748 149.475 138.654 148.762 139.56 148.049C141.373 146.622 143.088 145.222 144.253 143.917C145.233 142.505 145.726 141.223 144.785 139.856Z" fill="#2A4D2D"/>
<path d="M142.249 56.6149C142.125 56.5435 141.392 58.0985 140.264 60.909C139.7 62.3142 139.117 64.0381 138.391 66.0093C137.665 67.9804 137.018 70.2441 136.263 72.6932C133.368 82.5612 130.634 96.1484 129.678 109.938C129.231 116.851 129.139 123.721 129.455 130.168C129.674 136.641 130.436 142.603 131.183 147.733C131.606 150.285 131.976 152.641 132.463 154.653C132.852 156.692 133.101 158.401 133.113 159.809C133.136 162.625 132.217 164.073 132.588 164.287C132.65 164.323 132.748 164.296 132.916 164.147C133.085 163.997 133.29 163.785 133.504 163.414C133.994 162.708 134.451 161.489 134.609 159.931C134.828 158.409 134.721 156.452 134.465 154.326C134.173 152.262 133.963 149.915 133.602 147.398C133.076 142.314 132.535 136.397 132.342 130.022C132.149 123.646 132.171 116.9 132.546 110.11C133.297 96.5321 135.606 83.1112 137.961 73.1789C140.413 63.2205 142.656 56.7672 142.249 56.6149Z" fill="#2A4D2D"/>
<path d="M95.9732 52.1482C96.7511 51.0564 98.377 51.4045 100.212 52.6817C102.094 53.9008 104.196 56.1535 105.997 58.5455C107.751 60.9957 109.156 63.6433 110.074 65.7104C110.504 66.7207 110.864 67.58 111.097 68.2419C111.271 68.8574 111.468 69.2058 111.468 69.2058C111.468 69.2058 111.178 68.9736 110.702 68.4975C110.226 68.0214 109.575 67.406 108.704 66.7093C107.055 65.1999 104.894 63.3769 102.687 61.612C100.48 59.8472 98.3898 58.1752 96.9959 56.5843C95.602 54.9935 94.963 53.5304 95.9732 52.1482Z" fill="#5A7A1C"/>
<path d="M93.6453 61.2411C94.0864 59.9751 95.538 59.7078 97.6517 60.1603C99.7074 60.5665 102.425 61.6925 104.876 63.2716C106.13 64.0843 107.338 64.9551 108.337 65.8492C109.394 66.7897 110.242 67.7534 110.974 68.6243C111.287 69.0656 111.601 69.5069 111.799 69.8552C112.054 70.25 112.252 70.5984 112.437 70.8423C112.763 71.388 112.902 71.69 112.902 71.69C112.902 71.69 112.612 71.4578 112.101 71.1443C111.868 70.9585 111.532 70.7844 111.137 70.5638C110.742 70.3432 110.347 70.1226 109.894 69.8555C108.036 68.8455 105.515 68.0678 102.995 67.2901C100.428 66.5705 97.9198 65.8974 96.1195 64.9337C94.1683 64.0398 93.1345 62.8322 93.6453 61.2411Z" fill="#5A7A1C"/>
<path d="M111.809 48.9032C113.029 49.4024 113.226 50.703 112.983 52.3173C112.797 53.9781 112.182 56.057 111.741 58.2753C111.3 60.4935 111.033 62.8511 110.964 64.6047C110.906 65.5106 110.883 66.2538 110.941 66.7764C110.953 67.3571 110.93 67.6242 110.93 67.6242C110.93 67.6242 110.744 67.3804 110.43 66.9391C110.117 66.4978 109.722 65.8011 109.303 64.8953C108.42 63.1419 107.561 60.6451 107.27 58.0321C107.119 56.6734 107.13 55.3494 107.258 54.1184C107.385 52.8873 107.733 51.7375 108.163 50.8432C108.976 49.1127 110.253 48.2299 111.809 48.9032Z" fill="#5A7A1C"/>
<path d="M98.6397 72.387C98.7556 71.0515 100.23 70.517 102.367 70.7025C103.436 70.7952 104.632 71.0854 105.898 71.5265C107.164 71.9676 108.453 72.6177 109.649 73.384C110.846 74.1503 111.996 74.9746 112.995 75.8687C113.993 76.7628 114.83 77.622 115.503 78.4465C115.864 78.8296 116.119 79.2245 116.363 79.5148C116.607 79.8051 116.804 80.1534 116.99 80.3973C117.362 80.885 117.501 81.1869 117.501 81.1869C117.501 81.1869 117.165 81.0128 116.665 80.8038C116.386 80.6761 116.05 80.502 115.713 80.3278C115.376 80.1537 114.935 79.9911 114.435 79.7822C113.541 79.3526 112.438 78.9464 111.288 78.5981C110.138 78.2499 108.93 77.8553 107.734 77.5651C105.33 76.8803 103.007 76.451 101.346 75.7893C99.5692 75.0348 98.4658 74.1523 98.6397 72.387Z" fill="#5A7A1C"/>
<path d="M105.919 84.0239C105.931 82.7 107.336 82.0146 109.519 82.142C110.634 82.1766 111.83 82.4668 113.143 82.8498C114.409 83.2909 115.698 83.941 116.894 84.7073C118.09 85.4736 119.194 86.3561 120.146 87.3082C121.099 88.2603 121.889 89.1777 122.458 90.0137C122.771 90.455 123.027 90.8498 123.225 91.1982C123.422 91.5466 123.619 91.8949 123.747 92.0923C124.014 92.5917 124.154 92.8936 124.154 92.8936C124.154 92.8936 123.817 92.7195 123.352 92.3479C123.12 92.1621 122.783 91.988 122.446 91.8138C122.11 91.6397 121.715 91.4191 121.262 91.1521C120.414 90.6644 119.357 90.2001 118.254 89.7938C117.15 89.3875 116.001 89.0393 114.851 88.6911C113.701 88.3429 112.563 88.0992 111.529 87.8438C110.496 87.5885 109.52 87.3796 108.695 87.1011C107.104 86.5903 105.954 85.766 105.919 84.0239Z" fill="#5A7A1C"/>
<path d="M110.001 92.7135C110.337 91.4592 111.952 91.2267 114.182 91.7722C115.273 92.0739 116.493 92.5731 117.736 93.2813C118.978 93.9895 120.186 94.8603 121.348 95.7892C122.463 96.7762 123.531 97.8212 124.437 98.8314C125.297 99.8997 126.099 100.922 126.726 101.804C127.353 102.687 127.76 103.488 128.085 104.034C128.41 104.579 128.55 104.881 128.55 104.881C128.55 104.881 128.259 104.649 127.748 104.336C127.179 103.976 126.436 103.476 125.53 102.942C123.718 101.874 121.244 100.562 118.851 99.5059C116.401 98.4031 114.02 97.4512 112.324 96.4759C110.582 95.5588 109.548 94.3511 110.001 92.7135Z" fill="#5A7A1C"/>
<path d="M114.11 103.309C114.447 102.055 116.107 101.764 118.5 102.345C119.696 102.635 120.974 103.181 122.274 103.935C123.575 104.69 124.946 105.595 126.165 106.571C127.339 107.604 128.523 108.742 129.487 109.799C130.463 110.96 131.323 112.028 131.904 112.969C132.275 113.457 132.484 113.909 132.74 114.304C132.995 114.699 133.193 115.047 133.332 115.349C133.611 115.953 133.809 116.302 133.809 116.302C133.809 116.302 133.518 116.069 132.949 115.709C132.659 115.477 132.368 115.245 131.974 115.024C131.625 114.746 131.172 114.479 130.661 114.165C129.744 113.527 128.559 112.865 127.374 112.203C126.189 111.541 124.9 110.891 123.565 110.299C122.287 109.754 120.951 109.161 119.778 108.604C118.559 108.105 117.49 107.536 116.538 107.06C114.854 106.189 113.716 104.993 114.11 103.309Z" fill="#5A7A1C"/>
<path d="M116.852 114.74C117.188 113.486 118.791 113.149 120.916 113.706C122.008 114.007 123.227 114.507 124.366 115.226C125.55 115.888 126.712 116.817 127.827 117.804C128.942 118.791 129.859 119.906 130.719 120.974C131.532 122.1 132.229 123.134 132.705 124.086C132.973 124.585 133.182 125.038 133.379 125.387C133.53 125.793 133.728 126.141 133.809 126.397C134.03 126.954 134.123 127.314 134.123 127.314C134.123 127.314 133.832 127.082 133.368 126.711C133.136 126.525 132.845 126.293 132.497 126.014C132.148 125.735 131.8 125.457 131.347 125.19C130.487 124.597 129.512 123.912 128.49 123.285C127.468 122.659 126.236 122.055 125.168 121.486C124.053 120.975 122.88 120.418 121.869 119.895C120.812 119.431 119.86 118.955 119.012 118.467C117.479 117.527 116.457 116.424 116.852 114.74Z" fill="#5A7A1C"/>
<path d="M120.542 124.194C121.157 123.067 122.923 123.241 124.909 124.448C125.931 125.075 126.976 125.911 128.033 126.852C129.044 127.85 130.078 129.058 131.007 130.277C131.89 131.555 132.668 132.844 133.342 134.144C134.016 135.445 134.469 136.664 134.852 137.733C135.073 138.29 135.178 138.754 135.329 139.161C135.48 139.567 135.526 139.985 135.666 140.287C135.84 140.903 135.886 141.321 135.886 141.321C135.886 141.321 135.642 141.031 135.166 140.555C134.736 140.02 134.132 139.347 133.354 138.534C132.576 137.721 131.682 136.816 130.683 135.921C129.684 135.027 128.627 134.087 127.581 133.251C125.433 131.532 123.295 129.919 121.809 128.444C120.438 127.062 119.648 125.669 120.542 124.194Z" fill="#5A7A1C"/>
<path d="M121.479 56.4543C122.699 56.9534 122.768 58.5329 122.362 60.5885C121.956 62.6442 121.19 65.2689 120.54 67.9866C120.215 69.3454 119.948 70.7507 119.774 72.0398C119.554 73.387 119.426 74.618 119.334 75.6865C119.287 76.2207 119.241 76.755 119.183 77.1847C119.125 77.6144 119.171 78.0324 119.102 78.3576C119.067 78.9964 119.056 79.368 119.056 79.368C119.056 79.368 118.858 79.0196 118.579 78.4158C118.44 78.1139 118.242 77.7655 118.138 77.301C117.929 76.8481 117.766 76.3371 117.603 75.8261C117.22 74.7578 116.86 73.4223 116.546 72.0287C116.279 70.5771 116.058 69.0674 115.988 67.488C115.918 65.9085 116.01 64.3639 116.266 62.8541C116.474 61.4024 116.904 60.032 117.426 59.0215C118.506 56.838 119.923 55.781 121.479 56.4543Z" fill="#5A7A1C"/>
<path d="M131.374 69.3159C132.466 70.0938 132.153 71.5571 131.352 73.3922C130.551 75.2273 129.169 77.5502 127.904 79.966C126.638 82.3818 125.489 84.8905 124.711 86.9346C124.293 87.9334 124.015 88.758 123.817 89.362C123.62 89.9659 123.504 90.3491 123.504 90.3491C123.504 90.3491 123.411 89.9891 123.341 89.362C123.271 88.7349 123.109 87.7478 123.039 86.6445C122.899 84.438 122.98 81.3604 123.653 78.3756C124.326 75.3909 125.545 72.557 126.985 70.7567C128.483 69.0028 130.05 68.3522 131.374 69.3159Z" fill="#5A7A1C"/>
<path d="M137.422 81.3954C138.177 82.4753 137.573 83.7064 136.424 85.2628C135.82 86.0178 135.17 86.8308 134.427 87.76C133.684 88.6892 132.952 89.723 132.221 90.7567C131.547 91.8368 130.827 92.9751 130.258 94.0436C129.748 95.1586 129.179 96.2271 128.865 97.2143C128.656 97.7138 128.494 98.1551 128.378 98.5383C128.262 98.9216 128.146 99.3049 128.076 99.63C127.879 100.234 127.809 100.559 127.809 100.559C127.809 100.559 127.716 100.199 127.542 99.5837C127.507 99.2701 127.414 98.9101 127.309 98.4456C127.205 97.9811 127.147 97.4585 127.088 96.9359C126.961 95.7862 127.03 94.5087 127.134 93.0686C127.297 91.675 127.552 90.1652 128.074 88.6786C128.55 87.25 129.235 85.7982 130.001 84.6019C130.814 83.3475 131.708 82.3486 132.637 81.6633C134.646 80.2229 136.423 80.0251 137.422 81.3954Z" fill="#5A7A1C"/>
<path d="M142.95 93.4302C143.705 94.5101 142.95 95.811 141.696 97.379C141.093 98.134 140.291 99.0167 139.444 99.9576C138.596 100.898 137.76 101.944 136.924 102.989C136.146 104.081 135.322 105.231 134.648 106.311C134.033 107.438 133.418 108.564 132.942 109.517C132.733 110.016 132.466 110.469 132.35 110.852C132.187 111.293 132.013 111.63 131.943 111.956C131.746 112.559 131.572 112.896 131.572 112.896C131.572 112.896 131.479 112.536 131.456 111.851C131.421 111.538 131.374 111.119 131.374 110.643C131.374 110.167 131.316 109.645 131.304 109.064C131.281 107.903 131.397 106.567 131.652 105.057C131.919 103.652 132.325 102.072 132.952 100.574C133.579 99.0759 134.322 97.6706 135.193 96.4626C136.064 95.2547 137.062 94.2441 138.096 93.5472C140.174 92.2577 142.009 92.1064 142.95 93.4302Z" fill="#5A7A1C"/>
<path d="M145.136 106.512C145.891 107.592 145.241 108.881 143.987 110.449C143.383 111.204 142.582 112.087 141.734 113.028C140.887 113.969 140.051 115.014 139.215 116.06C138.379 117.105 137.612 118.301 136.881 119.335C136.207 120.415 135.592 121.542 135.116 122.494C134.849 122.947 134.64 123.446 134.524 123.83C134.303 124.225 134.187 124.608 134.06 124.887C133.804 125.444 133.688 125.827 133.688 125.827C133.688 125.827 133.642 125.409 133.572 124.782C133.537 124.469 133.49 124.051 133.49 123.574C133.49 123.098 133.432 122.576 133.478 122.041C133.513 120.926 133.676 119.533 133.942 118.128C134.256 116.664 134.674 115.189 135.3 113.691C135.881 112.251 136.728 110.834 137.599 109.626C138.47 108.418 139.469 107.407 140.398 106.722C142.36 105.34 144.137 105.142 145.136 106.512Z" fill="#5A7A1C"/>
<path d="M145.663 120.75C146.325 121.946 145.454 123.154 144.13 124.571C143.468 125.279 142.656 126.058 141.854 126.94C141.053 127.823 140.159 128.822 139.323 129.867C138.487 130.913 137.767 132.051 137.094 133.131C136.479 134.258 135.91 135.326 135.55 136.371C135.341 136.871 135.178 137.312 135.016 137.754C134.853 138.195 134.784 138.52 134.714 138.845C134.517 139.449 134.447 139.774 134.447 139.774C134.447 139.774 134.354 139.414 134.226 138.741C134.133 138.381 134.04 138.021 134.04 137.545C133.936 137.08 133.878 136.558 133.866 135.977C133.784 134.769 133.9 133.434 134.109 131.982C134.318 130.53 134.782 128.997 135.409 127.499C136.036 126.001 136.883 124.584 137.812 123.422C138.788 122.203 139.844 121.238 140.889 120.646C143.061 119.24 144.861 119.252 145.663 120.75Z" fill="#5A7A1C"/>
<path d="M106.368 61.7957C106.612 61.6099 109.841 65.9063 114.337 72.5485C118.786 79.2487 124.408 88.4108 128.591 98.4209C130.682 103.426 132.367 108.582 133.448 113.541C133.936 116.026 134.424 118.511 134.68 120.811C134.936 123.11 135.076 125.317 135.146 127.372C135.228 131.437 135.019 134.793 134.648 137.162C134.323 139.473 133.94 140.786 133.568 140.774C133.243 140.705 133.15 139.392 132.999 137.081C132.894 134.712 132.847 131.437 132.463 127.512C132.3 125.573 132.114 123.424 131.707 121.194C131.405 118.953 130.882 116.63 130.405 114.25C129.29 109.454 127.674 104.448 125.757 99.5827C121.865 89.8048 116.649 80.4917 112.653 73.5823C108.808 66.6033 106.124 61.9816 106.368 61.7957Z" fill="#926D50"/>
<path d="M151.211 58.0637C153.278 58.2467 153.134 61.0714 152.986 64.0979C152.914 65.5607 152.839 67.1244 152.821 68.3357C152.802 69.5469 152.79 70.3544 152.79 70.3544C152.79 70.3544 152.193 69.7395 151.502 68.7194C150.762 67.648 149.926 66.1713 149.395 64.5983C148.814 62.9741 148.587 61.3048 148.858 60.0469C149.13 58.7891 149.849 57.9924 151.211 58.0637Z" fill="#8BA84D"/>
<path d="M165.975 66.9188C166.397 68.9949 163.41 69.6055 160.323 70.1136C158.754 70.3421 157.186 70.5705 155.971 70.7539C154.757 70.9372 153.948 71.0258 153.948 71.0258C153.948 71.0258 154.513 70.3782 155.436 69.4837C156.358 68.5892 157.737 67.5501 159.164 66.6633C162.117 64.9921 165.409 64.2852 165.975 66.9188Z" fill="#8BA84D"/>
<path d="M143.488 64.6565C145.37 63.7262 147.181 67.4389 148.23 71.4933C148.755 73.47 149.076 75.5446 149.305 77.1129C149.533 78.6813 149.568 79.7419 149.568 79.7419C149.568 79.7419 148.925 78.8739 147.985 77.5976C147.045 76.3212 145.91 74.638 144.826 72.9052C142.759 69.441 141.046 65.9317 143.488 64.6565Z" fill="#8BA84D"/>
<path d="M164.837 75.3888C164.872 76.4494 163.855 76.9387 162.487 77.2711C161.069 77.5524 159.199 77.6752 157.229 77.7966C155.308 77.9691 153.337 78.0905 151.819 78.3702C150.302 78.5489 149.289 78.7354 149.289 78.7354C149.289 78.7354 150.058 77.9899 151.334 77.0503C152.61 76.1107 154.444 75.0281 156.426 74.2002C158.405 73.4733 160.533 73.001 162.146 73.1266C163.809 73.3034 164.859 73.9757 164.837 75.3888Z" fill="#8BA84D"/>
<path d="M138.868 73.2194C139.736 72.5764 140.837 73.199 141.877 74.4769C142.968 75.806 143.997 77.7905 144.772 79.9225C145.547 82.0545 146.069 84.2331 146.296 85.9024C146.575 87.5219 146.607 88.6835 146.607 88.6835C146.607 88.6835 145.966 87.7146 144.977 86.387C144.038 85.0097 142.752 83.2738 141.467 81.5378C140.23 79.8531 139.045 78.1187 138.36 76.6948C137.877 75.274 137.795 74.0612 138.868 73.2194Z" fill="#8BA84D"/>
<path d="M162.941 83.6968C163.01 85.818 158.868 85.9567 154.623 86.2956C152.5 86.4651 150.377 86.6347 148.708 86.8616C147.09 87.0388 145.977 87.2236 145.977 87.2236C145.977 87.2236 146.846 86.4797 148.273 85.5929C149.7 84.7061 151.686 83.5754 153.869 82.7506C156.001 81.9754 158.23 81.5047 159.995 81.5821C161.709 81.7093 162.86 82.3831 162.941 83.6968Z" fill="#8BA84D"/>
<path d="M136.419 85.25C138.301 84.3196 139.722 87.1177 140.938 90.1146C141.521 91.6379 142.103 93.1612 142.488 94.3786C142.874 95.596 143.164 96.4081 143.164 96.4081C143.164 96.4081 142.414 95.9423 141.366 95.1691C140.317 94.3959 138.971 93.3152 137.83 92.0358C135.495 89.5267 133.978 86.4242 136.419 85.25Z" fill="#8BA84D"/>
<path d="M158.67 91.0949C159.018 91.4535 159.162 91.91 158.9 92.5623C158.689 93.1648 158.124 93.8124 157.257 94.3545C156.442 94.8468 155.427 95.2351 154.363 95.4713C153.299 95.7074 152.237 95.8427 151.125 95.9266C149.104 96.0977 147.232 96.3215 145.861 96.8558C145.201 97.0981 144.69 97.4941 144.333 97.7411C144.18 97.8902 144.026 98.0393 143.975 98.089C143.872 98.1884 143.821 98.238 143.821 98.238C143.821 98.238 143.872 98.1884 143.874 98.0874C143.875 97.9865 143.979 97.7861 144.034 97.5346C144.192 97.0827 144.454 96.4305 145.071 95.7332C145.636 95.0856 146.454 94.3913 147.372 93.7996C148.29 93.2079 149.307 92.7186 150.423 92.3318C151.439 91.9435 152.403 91.6049 153.265 91.3657C154.077 91.0752 154.838 90.8344 155.446 90.6418C156.055 90.4492 156.561 90.3559 157.116 90.4149C157.62 90.4226 158.122 90.6322 158.67 91.0949Z" fill="#8BA84D"/>
<path d="M131.207 92.1843C134.578 89.6109 141.249 105.614 141.249 105.614C141.249 105.614 126.867 95.3992 131.207 92.1843Z" fill="#8BA84D"/>
<path d="M155.572 100.282C156.147 102.31 152.344 103.413 148.489 104.667C146.511 105.293 144.582 105.97 143.06 106.452C141.588 106.984 140.573 107.373 140.573 107.373C140.573 107.373 141.242 106.525 142.371 105.331C143.499 104.136 145.138 102.647 146.923 101.412C148.709 100.177 150.692 99.2486 152.363 98.9208C153.932 98.5914 155.189 98.964 155.572 100.282Z" fill="#8BA84D"/>
<path d="M129.057 100.946C130.889 99.9642 133.099 103.986 135.309 108.007C136.389 110.043 137.518 112.13 138.352 113.708C139.186 115.285 139.776 116.304 139.776 116.304C139.776 116.304 138.727 115.632 137.279 114.549C135.832 113.467 133.939 111.823 132.249 110.081C130.611 108.289 129.126 106.348 128.445 104.621C127.865 102.997 127.886 101.584 129.057 100.946Z" fill="#8BA84D"/>
<path d="M153.834 107.426C154.222 108.442 153.503 109.239 152.228 110.077C150.953 110.916 149.174 111.747 147.342 112.729C145.561 113.66 143.728 114.642 142.353 115.479C140.977 116.316 140.059 116.908 140.059 116.908C140.059 116.908 140.215 116.658 140.423 116.257C140.631 115.857 140.994 115.206 141.408 114.506C142.338 113.106 143.678 111.31 145.267 109.769C146.905 108.28 148.793 106.946 150.416 106.466C152.04 105.885 153.349 106.106 153.834 107.426Z" fill="#8BA84D"/>
<path d="M126.111 111.952C127.746 110.665 130.718 114.344 133.79 118.127C135.326 120.018 136.862 121.909 138.052 123.341C139.242 124.773 140.035 125.693 140.035 125.693C140.035 125.693 138.881 125.221 137.128 124.336C135.424 123.503 133.224 122.157 131.177 120.661C129.13 119.166 127.29 117.371 126.254 115.791C125.269 114.16 125.038 112.794 126.111 111.952Z" fill="#8BA84D"/>
<path d="M154.051 117.066C154.44 118.081 153.67 118.928 152.446 119.717C151.171 120.555 149.392 121.386 147.611 122.318C145.83 123.25 143.997 124.232 142.671 125.12C142.008 125.564 141.448 125.909 141.091 126.156C140.734 126.403 140.479 126.551 140.479 126.551C140.479 126.551 140.634 126.301 140.793 125.849C141.001 125.448 141.313 124.847 141.778 124.097C142.608 122.696 143.947 120.899 145.587 119.309C147.175 117.768 149.113 116.486 150.736 116.006C152.307 115.575 153.565 115.847 154.051 117.066Z" fill="#8BA84D"/>
<path d="M126.62 124.78C128.107 123.238 131.192 126.213 134.375 129.29C135.967 130.829 137.559 132.367 138.803 133.547C140.047 134.727 140.893 135.498 140.893 135.498C140.893 135.498 139.736 135.227 138.129 134.698C136.472 134.118 134.314 133.327 132.261 132.236C130.208 131.145 128.31 129.803 127.22 128.474C126.03 127.042 125.696 125.775 126.62 124.78Z" fill="#8BA84D"/>
<path d="M156.328 125.09C157.259 126.972 153.187 129.131 148.964 131.338C146.827 132.416 144.691 133.494 143.063 134.276C142.656 134.472 142.25 134.668 141.944 134.865C141.638 135.062 141.434 135.16 141.231 135.258C141.077 135.407 140.975 135.507 140.872 135.606C140.77 135.705 140.82 135.757 140.82 135.757C140.82 135.757 140.672 135.502 140.882 135C141.091 134.499 141.605 133.901 142.172 133.152C143.355 131.706 145.049 129.865 146.942 128.228C148.834 126.591 150.825 125.157 152.552 124.477C154.278 123.797 155.69 123.919 156.328 125.09Z" fill="#8BA84D"/>
<path d="M127.981 135.288C129.269 133.642 132.612 136.166 136.209 138.644C138.007 139.883 139.805 141.122 141.205 142.052C142.604 142.982 143.554 143.552 143.554 143.552C143.554 143.552 142.394 143.484 140.681 143.256C138.969 143.028 136.705 142.539 134.495 141.798C132.336 141.008 130.232 139.966 128.938 138.735C127.643 137.605 127.208 136.336 127.981 135.288Z" fill="#8BA84D"/>
<path d="M156.522 133.753C157.453 135.635 153.74 137.446 150.023 139.56C148.139 140.591 146.305 141.673 144.829 142.509C143.402 143.396 142.484 143.988 142.484 143.988C142.484 143.988 143.004 142.986 143.884 141.536C144.814 140.136 146.206 138.29 147.795 136.648C149.435 135.058 151.274 133.673 152.898 133.092C154.624 132.411 155.935 132.532 156.522 133.753Z" fill="#8BA84D"/>
<path d="M127.355 142.867C128.392 141.066 132.396 143.348 136.448 145.783C138.448 147.025 140.448 148.267 141.947 149.299C143.496 150.282 144.445 150.953 144.445 150.953C144.445 150.953 143.236 150.833 141.422 150.604C139.608 150.374 137.193 149.833 134.883 149.091C130.261 147.606 126.008 145.169 127.355 142.867Z" fill="#8BA84D"/>
<path d="M157.552 142.426C157.839 143.44 157.12 144.237 155.847 144.975C154.574 145.712 152.846 146.494 151.116 147.376C149.386 148.258 147.655 149.241 146.38 150.08C145.717 150.524 145.206 150.92 144.849 151.167C144.492 151.414 144.287 151.613 144.287 151.613C144.287 151.613 144.391 151.412 144.549 150.961C144.708 150.509 145.02 149.908 145.434 149.207C146.214 147.755 147.453 145.957 149.091 144.468C150.679 142.927 152.615 141.745 154.187 141.315C155.861 140.785 157.117 141.158 157.552 142.426Z" fill="#8BA84D"/>
<path d="M165.032 55.904C166.371 57.4894 163.557 59.9199 160.792 62.5026C159.359 63.7932 157.975 65.135 156.899 66.1786C155.823 67.2222 155.156 67.9692 155.156 67.9692C155.156 67.9692 155.323 66.9117 155.8 65.4551C156.227 63.9472 156.963 62.0402 158 60.2388C159.037 58.4374 160.324 56.7912 161.599 55.9526C162.875 55.0129 164.139 54.8808 165.032 55.904Z" fill="#8BA84D"/>
<path d="M158.37 61.9678C158.669 62.1743 154.951 67.6702 151.028 76.6462C150.556 77.8 149.983 78.9523 149.561 80.1573C149.087 81.4121 148.614 82.6668 148.139 84.0225C147.876 84.6748 147.614 85.327 147.401 86.0305C147.189 86.7339 146.976 87.4374 146.763 88.1409C146.338 89.5478 145.862 91.0044 145.486 92.4626C143.932 98.345 142.773 104.839 142.069 111.29C141.515 117.793 141.466 124.304 141.827 130.418C141.905 131.933 142.135 133.401 142.264 134.867C142.354 135.575 142.393 136.333 142.483 137.041C142.573 137.749 142.663 138.457 142.805 139.115C143.036 140.482 143.268 141.848 143.449 143.164C143.631 144.479 144.017 145.696 144.2 146.911C146.224 156.482 148.756 162.578 148.146 162.872C147.942 162.97 147.107 161.493 145.936 158.85C145.693 158.19 145.3 157.478 145.01 156.665C144.719 155.853 144.431 154.94 144.092 153.976C143.753 153.012 143.466 151.998 143.079 150.881C142.742 149.816 142.507 148.651 142.173 147.384C141.889 146.169 141.504 144.951 141.272 143.585C141.041 142.218 140.758 140.901 140.578 139.485C140.488 138.777 140.297 138.067 140.206 137.359C140.116 136.651 140.077 135.893 139.938 135.134C139.759 133.617 139.58 132.1 139.453 130.533C138.992 124.317 139.094 117.655 139.7 111.001C140.458 104.4 141.769 97.8576 143.526 91.8774C143.953 90.3695 144.479 88.9641 144.956 87.5075C145.169 86.804 145.432 86.0509 145.695 85.3986C145.907 84.6952 146.271 84.0445 146.533 83.3922C147.058 82.0878 147.583 80.7833 148.106 79.5798C148.629 78.3763 149.253 77.1743 149.775 76.0717C150.296 74.9691 150.818 73.8666 151.338 72.8649C151.908 71.9145 152.428 70.9129 152.945 70.1131C153.464 69.2124 153.929 68.4623 154.345 67.661C154.811 66.9109 155.275 66.2618 155.688 65.6623C157.291 63.2133 158.219 61.915 158.37 61.9678Z" fill="#7D9435"/>
<path d="M50.1451 78.7843C48.6962 75.3662 48.3344 74.2347 48.8761 74.971C49.1469 75.3392 49.6701 76.1445 50.3078 77.3499C50.6611 77.9619 51.0649 78.6612 51.4502 79.4296C51.6336 79.8482 51.9045 80.2164 52.1568 80.6535C52.2393 80.8973 52.4092 81.0906 52.4917 81.3344C52.6616 81.5277 52.7441 81.7715 52.8955 82.0338C54.0933 83.9066 55.3552 86.0922 56.9433 88.4391C57.7373 89.6126 58.6693 90.823 59.5828 92.1023C60.005 92.7328 60.4962 93.3817 60.969 94.0995C61.4417 94.8174 61.9514 95.3973 62.5116 96.0647C63.5629 97.381 64.6648 98.7848 65.7667 100.188C66.3083 100.925 66.9375 101.611 67.5666 102.297C68.1957 102.982 68.8063 103.737 69.4354 104.423C71.8964 107.373 74.6887 110.191 77.444 113.146C78.8906 114.642 80.3741 116 81.9081 117.446C82.6751 118.169 83.4421 118.891 84.1402 119.596C84.9072 120.319 85.6927 120.972 86.5286 121.714C88.1501 123.109 89.6841 124.555 91.3055 125.95C92.9455 127.276 94.5669 128.671 96.2068 129.997C102.854 135.252 109.575 140.23 116.104 144.27C116.926 144.786 117.749 145.302 118.502 145.8C119.325 146.316 120.097 146.744 120.919 147.26C122.513 148.205 124.039 149.131 125.514 149.969C126.286 150.398 126.989 150.808 127.761 151.237C128.464 151.647 129.254 152.006 129.888 152.398C131.313 153.149 132.668 153.882 133.955 154.596C136.565 155.887 138.918 157.034 140.944 158.021C142.989 158.938 144.777 159.713 146.082 160.358C148.692 161.649 148.982 161.948 147.465 161.541C146.706 161.338 145.415 160.918 143.797 160.337C142.988 160.046 142.041 159.719 141.026 159.373C140.028 158.958 138.962 158.524 137.776 157.985C136.66 157.464 135.387 156.975 134.063 156.399C133.737 156.237 133.41 156.076 133.066 155.983C132.739 155.822 132.413 155.661 132.087 155.5C131.434 155.177 130.713 154.836 129.991 154.495C128.548 153.812 127.124 153.061 125.562 152.273C124.087 151.434 122.543 150.577 120.93 149.702C117.704 147.951 114.502 145.836 111.074 143.736C109.379 142.616 107.771 141.446 106.007 140.309C105.134 139.705 104.33 139.12 103.457 138.517C102.584 137.913 101.799 137.26 100.926 136.656C99.2672 135.399 97.5399 134.123 95.831 132.779C94.1911 131.452 92.5007 130.039 90.8608 128.713C89.1519 127.368 87.6179 125.922 86.015 124.458C85.248 123.735 84.412 122.994 83.6265 122.34C83.1993 122.004 82.8595 121.617 82.4323 121.281L81.3255 120.172C79.8099 118.657 78.3449 117.23 76.8798 115.803C75.4148 114.376 74.0556 112.829 72.7469 111.37C72.0488 110.666 71.4382 109.911 70.7401 109.207C70.0421 108.502 69.5004 107.766 68.8898 107.011C67.65 105.57 66.4792 104.148 65.3084 102.726C64.2066 101.322 63.1921 99.8681 62.1408 98.5518C61.6495 97.9029 61.1768 97.1851 60.6856 96.5362C60.4837 96.1865 60.1944 95.8872 59.974 95.6065C59.7721 95.2568 59.5517 94.9761 59.3498 94.6264C58.5053 93.3655 57.6608 92.1046 56.8667 90.9312C56.0727 89.7577 55.3291 88.6717 54.8108 87.5721C53.6179 85.405 52.558 83.5691 51.7504 82.1704C50.9293 80.5463 50.411 79.4467 50.1451 78.7843Z" fill="#628643"/>
<path d="M40.3596 75.0421C45.5254 80.8602 51.3452 85.8928 57.8877 90.1585C58.6411 90.6559 57.9454 91.8736 57.1919 91.3761C50.5989 87.0231 44.6413 81.9535 39.3561 76.0295C38.727 75.3436 39.7305 74.3562 40.3596 75.0421Z" fill="#8EB240"/>
<path d="M36.9937 78.2219C43.1581 83.3469 49.857 87.5806 57.0719 90.9918C57.9313 91.3698 57.1481 92.6379 56.3761 92.2094C49.0234 88.7613 42.2235 84.3528 35.9901 79.2093C35.2736 78.5739 36.2771 77.5866 36.9937 78.2219Z" fill="#8EB240"/>
<path d="M36.2999 82.1838C43.0677 86.4359 50.4439 89.5208 58.1846 91.521C59.0809 91.7612 58.7114 93.1402 57.8151 92.9C49.9365 90.8628 42.5099 87.6905 35.6042 83.4014C34.8322 82.9729 35.528 81.7553 36.2999 82.1838Z" fill="#8EB240"/>
<path d="M60.434 70.1665C61.7816 77.5479 61.6578 84.9047 60.1316 92.2551C59.9604 93.1699 58.5815 92.8004 58.7527 91.8856C60.2924 84.7605 60.3422 77.6796 59.0771 70.5419C58.9356 69.6911 60.2925 69.3157 60.434 70.1665Z" fill="#8EB240"/>
<path d="M65.7392 69.9534C65.592 77.6733 63.7531 85.0878 60.2779 91.9899C59.8309 92.8308 58.6318 92.0661 59.0603 91.2941C62.4111 84.5804 64.1576 77.5107 64.3368 69.9471C64.2827 69.0458 65.7541 69.0706 65.7392 69.9534Z" fill="#8EB240"/>
<path d="M71.5495 72.2588C69.4434 80.1189 65.4302 87.0985 59.7216 92.9588C59.1047 93.6064 58.0484 92.5843 58.7342 91.9552C64.2495 86.2649 68.0509 79.5241 70.1706 71.8893C70.4107 70.993 71.7897 71.3624 71.5495 72.2588Z" fill="#8EB240"/>
<path d="M49.0883 102.069C56.1454 106.62 63.9402 109.521 72.2339 110.561C73.1671 110.664 72.7977 112.043 71.8644 111.94C63.4329 110.863 55.5002 107.925 48.3236 103.268C47.6391 102.789 48.3348 101.571 49.0883 102.069Z" fill="#8EB240"/>
<path d="M72.2371 110.497C73.1334 110.738 72.7639 112.117 71.8676 111.876C70.9712 111.636 71.3407 110.257 72.2371 110.497Z" fill="#8EB240"/>
<path d="M43.9838 107.881C53.2721 111.552 63.1294 112.272 72.8294 109.994C73.6987 109.783 74.0741 111.14 73.2048 111.351C63.261 113.711 53.1094 112.987 43.6144 109.26C42.7365 108.951 43.106 107.572 43.9838 107.881Z" fill="#8EB240"/>
<path d="M44.66 114.401C54.5566 116.905 63.933 112.249 73.3892 110.054C74.2585 109.843 74.6339 111.2 73.7646 111.411C63.9957 113.67 54.4629 118.358 44.2216 115.762C43.3942 115.54 43.7637 114.161 44.66 114.401Z" fill="#8EB240"/>
<path d="M74.3756 91.1907C76.0003 97.5379 75.8224 103.993 73.9848 110.3C73.7447 111.196 72.3657 110.827 72.6059 109.93C74.388 103.831 74.5425 97.7385 73.0187 91.5661C72.8267 90.6279 74.1836 90.2525 74.3756 91.1907Z" fill="#8EB240"/>
<path d="M81.9336 88.1141C80.9491 96.2009 78.2089 103.669 73.5936 110.414C73.0961 111.167 71.8096 110.453 72.376 109.718C76.7795 103.213 79.5332 95.9693 80.5127 88.1768C80.6334 87.1746 82.0359 87.1808 81.9336 88.1141Z" fill="#8EB240"/>
<path d="M90.5468 89.6162C87.2758 98.7899 81.4131 106.604 73.4748 112.236C72.7384 112.778 72.0318 111.554 72.7682 111.013C80.4258 105.601 86.0581 98.0942 89.1678 89.2467C89.4585 88.4378 90.8559 88.7383 90.5468 89.6162Z" fill="#8EB240"/>
<path d="M66.652 131.615C73.4769 130.414 79.807 127.75 85.2975 123.531C86.0339 122.989 86.7405 124.213 86.0041 124.755C80.3573 129.006 73.9213 131.789 66.9584 132.953C66.1076 133.095 65.7322 131.738 66.652 131.615Z" fill="#8EB240"/>
<path d="M73.5162 139.65C78.4686 135.509 81.9141 130.372 83.8711 124.172C84.1802 123.294 85.5592 123.664 85.2501 124.541C83.2561 130.88 79.6493 136.342 74.5036 140.654C73.8362 141.214 72.8488 140.21 73.5162 139.65Z" fill="#8EB240"/>
<path d="M84.9558 123.735C85.8521 123.975 85.4826 125.354 84.5863 125.114C83.69 124.874 84.0595 123.495 84.9558 123.735Z" fill="#8EB240"/>
<path d="M77.9918 143.076C81.9347 137.186 84.4163 130.683 85.5558 123.672C85.727 122.757 87.106 123.127 86.9348 124.041C85.7768 131.121 83.1894 137.744 79.2094 143.772C78.7119 144.525 77.4943 143.829 77.9918 143.076Z" fill="#8EB240"/>
<path d="M89.7146 147.327C96.5395 146.126 102.87 143.462 108.36 139.243C109.096 138.701 109.803 139.925 109.067 140.467C103.42 144.718 96.9839 147.501 90.0211 148.665C89.2208 148.894 88.7764 147.519 89.7146 147.327Z" fill="#8EB240"/>
<path d="M96.5631 155.446C101.516 151.305 104.961 146.168 106.918 139.968C107.227 139.09 108.606 139.459 108.297 140.337C106.303 146.676 102.696 152.138 97.5504 156.45C96.8831 157.01 95.8957 156.006 96.5631 155.446Z" fill="#8EB240"/>
<path d="M101.044 158.797C104.987 152.907 107.469 146.403 108.608 139.393C108.779 138.478 110.158 138.847 109.987 139.762C108.829 146.842 106.242 153.464 102.262 159.492C101.746 160.315 100.528 159.619 101.044 158.797Z" fill="#8EB240"/>
<path d="M96.7067 101.384C95.6853 109.609 92.1683 116.943 86.2528 122.748C85.6359 123.395 84.5796 122.373 85.2655 121.744C90.8127 116.21 94.3064 109.239 95.2859 101.447C95.3882 100.513 96.809 100.451 96.7067 101.384Z" fill="#8EB240"/>
<path d="M85.9744 121.561C86.8707 121.801 86.5012 123.18 85.6049 122.94C84.7775 122.718 85.147 121.339 85.9744 121.561Z" fill="#8EB240"/>
<path d="M102.395 105.272C98.4508 112.27 93.0549 118.066 86.4513 122.578C85.715 123.12 85.0084 121.896 85.7447 121.354C92.1735 116.943 97.376 111.317 101.196 104.507C101.555 103.717 102.842 104.431 102.395 105.272Z" fill="#8EB240"/>
<path d="M105.883 110.947C99.9913 116.389 93.4062 120.832 86.2154 124.226C85.3781 124.593 84.6714 123.369 85.5087 123.002C92.6121 119.658 99.1098 115.266 104.896 109.944C105.513 109.296 106.569 110.318 105.883 110.947Z" fill="#8EB240"/>
<path d="M119.371 118.481C118.349 126.705 114.832 134.04 108.917 139.845C108.3 140.492 107.244 139.47 107.93 138.841C113.477 133.307 116.97 126.336 117.95 118.543C118.052 117.61 119.455 117.616 119.371 118.481Z" fill="#8EB240"/>
<path d="M125.075 122.441C121.13 129.439 115.735 135.235 109.131 139.747C108.395 140.289 107.688 139.065 108.424 138.523C114.853 134.112 120.056 128.486 123.876 121.676C124.304 120.904 125.522 121.6 125.075 122.441Z" fill="#8EB240"/>
<path d="M128.586 128.029C122.694 133.471 116.109 137.914 108.918 141.308C108.081 141.675 107.375 140.451 108.212 140.084C115.315 136.741 121.813 132.348 127.599 127.026C128.285 126.397 129.272 127.4 128.586 128.029Z" fill="#8EB240"/>
<path d="M129.199 116.185L125.778 115.116L126.759 117.414C126.961 117.778 126.773 118.246 126.347 118.412C125.983 118.615 125.515 118.426 125.349 118.001L123.885 114.683L123.859 114.585L121.631 113.876L123.199 117.584C123.401 117.948 123.213 118.416 122.787 118.583C122.423 118.785 121.955 118.597 121.789 118.171L119.738 113.443L119.712 113.345L117.041 112.545L119.092 117.273C119.294 117.637 119.106 118.106 118.68 118.272C118.317 118.474 117.848 118.286 117.682 117.86L115.158 111.953L112.93 111.243L114.871 116.732C114.95 117.025 114.869 117.308 114.7 117.458C114.495 117.669 114.203 117.748 113.92 117.667L109.136 116.388L110.26 118.438L116.036 119.712L116.097 119.748C116.442 119.865 116.706 120.264 116.589 120.609C116.499 121.051 116.135 121.253 115.693 121.163L111.146 120.186L112.613 122.929L116.84 123.886L116.902 123.922C117.247 124.038 117.511 124.438 117.394 124.783C117.304 125.225 116.94 125.427 116.498 125.337L113.499 124.677L114.561 126.691L117.277 127.27L117.339 127.306C117.683 127.422 117.947 127.822 117.831 128.167C117.74 128.609 117.376 128.811 116.934 128.721L115.483 128.378L116.924 131.023C117.126 131.386 116.938 131.855 116.574 132.057C116.21 132.259 115.742 132.071 115.54 131.707L113.845 128.503L112.941 130.784C112.788 131.19 112.363 131.356 111.956 131.204C111.549 131.052 111.383 130.626 111.535 130.219L112.887 126.879L112.923 126.817L111.861 124.802L110.356 128.55C110.204 128.956 109.778 129.123 109.372 128.97C108.965 128.818 108.799 128.392 108.951 127.986L110.903 123.178L110.938 123.116L109.807 120.65L107.891 125.396C107.739 125.802 107.313 125.969 106.907 125.816C106.5 125.664 106.334 125.238 106.486 124.832L108.859 118.866L107.797 116.851L105.179 122.099C105.036 122.346 104.806 122.46 104.549 122.477C104.292 122.493 104.045 122.35 103.833 122.146L101.055 117.822L100.417 119.926L103.899 125.316C104.101 125.68 104.01 126.122 103.708 126.36C103.344 126.562 102.902 126.471 102.664 126.169L99.8857 121.845L99.0048 124.798L101.607 128.856C101.81 129.22 101.719 129.662 101.417 129.9C101.053 130.102 100.611 130.011 100.373 129.709L98.4739 126.717L97.8003 128.883L99.5853 131.645C99.7873 132.009 99.6968 132.451 99.3947 132.689C99.0308 132.891 98.5885 132.8 98.3508 132.498L97.2694 130.802L96.4338 133.534C96.2814 133.941 95.9175 134.143 95.4753 134.052C95.0687 133.9 94.8667 133.536 94.9572 133.094L95.7927 130.362L93.9566 131.115C93.5927 131.317 93.1243 131.129 92.958 130.703C92.756 130.339 92.944 129.871 93.3697 129.705L96.2261 128.469L96.8998 126.303L93.6177 127.705C93.2538 127.907 92.7853 127.719 92.619 127.293C92.417 126.929 92.605 126.461 93.0307 126.295L97.4926 124.42L98.2924 121.749L94.0257 123.572C93.6617 123.774 93.1933 123.586 93.027 123.16C92.825 122.796 93.013 122.328 93.4387 122.162L98.9209 119.804L99.7469 117.232L94.0984 119.163C93.8059 119.242 93.5847 119.196 93.3732 118.992C93.1616 118.787 93.0832 118.495 93.1284 118.273L94.4261 113.171L92.6779 114.057L91.2777 120.337C91.1871 120.779 90.8232 120.981 90.3809 120.891C89.9387 120.8 89.7367 120.436 89.8272 119.994L90.9298 114.943L88.1875 116.41L87.1039 121.142C87.0134 121.584 86.6495 121.786 86.2072 121.696C85.765 121.605 85.5629 121.241 85.6534 120.799L86.4036 117.358L84.3891 118.42L83.6842 121.64C83.5937 122.082 83.2298 122.284 82.7875 122.194C82.3452 122.103 82.1432 121.739 82.2337 121.297L82.7028 119.343L80.1911 120.695C79.8272 120.897 79.3588 120.709 79.1568 120.345C78.9548 119.981 79.1428 119.513 79.5067 119.311L82.0184 117.958L80.1447 117.206C79.7381 117.054 79.5718 116.628 79.7241 116.222C79.8407 115.877 80.3022 115.649 80.6469 115.765L80.7087 115.801L83.7404 116.974L85.7549 115.912L82.476 114.596C82.0694 114.444 81.9031 114.018 82.0554 113.611C82.1721 113.267 82.6335 113.038 82.9782 113.155L83.04 113.191L87.5387 114.964L90.0147 113.673L85.6753 111.91C85.2687 111.757 85.1024 111.332 85.2547 110.925C85.3714 110.58 85.8328 110.352 86.1776 110.469L86.2394 110.505L91.7985 112.725L93.8487 111.601L87.883 109.228C87.6001 109.147 87.4242 108.881 87.4433 108.562C87.4267 108.305 87.6052 107.996 87.8359 107.882L93.1351 104.842L91.3755 104.321L85.9858 107.803C85.6219 108.005 85.1796 107.915 84.9419 107.612C84.7399 107.249 84.8304 106.806 85.1325 106.569L89.4566 103.79L86.5034 102.909L82.4456 105.512C82.0817 105.714 81.6394 105.623 81.4017 105.321C81.1997 104.957 81.2902 104.515 81.5923 104.277L84.5845 102.378L82.4183 101.705L79.6569 103.49C79.2929 103.692 78.8506 103.601 78.6129 103.299C78.4109 102.935 78.5014 102.493 78.8035 102.255L80.4994 101.174L77.7673 100.338C77.3607 100.186 77.1587 99.8219 77.2492 99.3796C77.4015 98.973 77.7655 98.771 78.2077 98.8615L80.9398 99.6971L80.1866 97.861C79.9845 97.4971 80.1726 97.0287 80.5983 96.8623C80.7933 96.8101 80.9526 96.8196 81.112 96.8292C81.3331 96.8744 81.4829 97.0433 81.5969 97.2741L82.9205 100.264L85.0867 100.937L83.6847 97.6552C83.4827 97.2913 83.6707 96.8229 84.0964 96.6566C84.2915 96.6043 84.4508 96.6139 84.6101 96.6234C84.8312 96.6687 84.981 96.8376 85.0951 97.0683L86.9699 101.53L89.6402 102.33L87.8176 98.0632C87.6156 97.6993 87.8036 97.2308 88.2293 97.0645C88.4244 97.0123 88.5837 97.0218 88.743 97.0314C88.9642 97.0767 89.1139 97.2455 89.228 97.4762L91.5852 102.958L93.3448 103.48L90.8639 97.9262C90.7498 97.6955 90.769 97.3769 90.9736 97.1653C91.1782 96.9537 91.4089 96.8396 91.6918 96.9206L98.017 98.0997L97.2708 96.6798L90.9908 95.2795C90.5485 95.189 90.3465 94.8251 90.437 94.3828C90.5275 93.9405 90.8914 93.7385 91.3337 93.829L96.3843 94.9317L94.9179 92.1893L90.186 91.1058C89.7437 91.0153 89.5417 90.6514 89.6322 90.2091C89.7227 89.7668 90.0866 89.5648 90.5289 89.6553L93.9697 90.4055L92.9074 88.391L89.6877 87.686C89.2454 87.5955 89.0434 87.2316 89.1339 86.7893C89.2244 86.347 89.5883 86.145 90.0306 86.2355L91.9852 86.7046L90.6329 84.193C90.4309 83.8291 90.6189 83.3607 90.9828 83.1587C91.1778 83.1064 91.3728 83.0541 91.594 83.0994C91.8151 83.1446 91.9031 83.2779 92.0528 83.4467L93.4051 85.9584L94.1572 84.0847C94.2738 83.74 94.7352 83.5118 95.08 83.6284L95.1418 83.6641C95.5484 83.8164 95.7148 84.2422 95.5624 84.6488L94.3891 87.6804L95.4514 89.6949L96.7675 86.416C96.8842 86.0713 97.3456 85.8431 97.6904 85.9597L97.7522 85.9954C98.1588 86.1478 98.3251 86.5735 98.1728 86.9801L96.3997 91.4788L97.6902 93.9547L99.4537 89.6154C99.5703 89.2706 100.032 89.0424 100.377 89.1591L100.438 89.1947C100.845 89.3471 101.011 89.7728 100.859 90.1794L98.6384 95.7385L99.4988 97.3892L101.619 92.4316C101.762 92.1844 101.967 91.9728 102.223 91.9562C102.48 91.9397 102.763 92.0206 102.939 92.287L106.157 97.2772L106.795 95.1728L103.577 90.1826C103.375 89.8187 103.465 89.3764 103.768 89.1387C103.936 88.989 104.193 88.9724 104.379 89.0795C104.538 89.0891 104.688 89.2579 104.776 89.3911L107.291 93.3157L108.171 90.3625L105.833 86.7043C105.631 86.3404 105.721 85.8981 106.023 85.6604C106.192 85.5107 106.449 85.4941 106.634 85.6011C106.794 85.6107 106.943 85.7796 107.031 85.9128L108.667 88.5054L109.34 86.3392L107.819 83.9773C107.617 83.6134 107.708 83.1712 108.01 82.9334C108.179 82.7837 108.435 82.7671 108.621 82.8742C108.78 82.8837 108.93 83.0526 109.018 83.1858L109.835 84.4821L110.742 81.6264C110.895 81.2198 111.259 81.0178 111.701 81.1083C112.108 81.2606 112.31 81.6245 112.219 82.0668L111.15 85.4885L113.448 84.5071C113.643 84.4548 113.802 84.4644 113.961 84.4739C114.183 84.5192 114.332 84.6881 114.446 84.9188C114.648 85.2827 114.46 85.7511 114.035 85.9174L110.717 87.3812L110.619 87.4074L109.91 89.6354L113.618 88.067C113.813 88.0148 113.972 88.0244 114.131 88.0339C114.353 88.0792 114.502 88.248 114.616 88.4788C114.818 88.8427 114.63 89.3111 114.205 89.4774L109.477 91.5281L109.379 91.5542L108.579 94.2245L113.307 92.1738C113.502 92.1215 113.662 92.1311 113.821 92.1407C114.042 92.1859 114.192 92.3548 114.306 92.5855C114.508 92.9494 114.32 93.4178 113.894 93.5842L107.986 96.1077L107.384 98.1503L112.752 95.5623C112.947 95.5101 113.142 95.4578 113.266 95.5292C113.328 95.5649 113.451 95.6363 113.513 95.672C113.725 95.8765 113.803 96.1691 113.722 96.452L111.899 102.323L114.472 101.006L115.746 95.2304C115.837 94.7881 116.201 94.5861 116.643 94.6766L116.705 94.7123C117.049 94.8289 117.313 95.2285 117.197 95.5733L116.22 100.12L118.963 98.6534L119.92 94.4256C120.01 93.9833 120.374 93.7812 120.817 93.8717L120.878 93.9074C121.223 94.0241 121.487 94.4237 121.37 94.7685L120.711 97.7669L122.725 96.7046L123.304 93.9891C123.395 93.5468 123.758 93.3448 124.201 93.4353L124.263 93.471C124.607 93.5876 124.871 93.9872 124.754 94.332L124.412 95.7825L127.056 94.3422C127.251 94.29 127.446 94.2377 127.668 94.283C127.889 94.3282 127.977 94.4614 128.126 94.6303C128.328 94.9942 128.14 95.4626 127.777 95.6646L124.573 97.3592L126.853 98.2635C127.26 98.4159 127.426 98.8416 127.274 99.2482C127.121 99.6548 126.696 99.8211 126.289 99.6688L122.948 98.317L122.886 98.2813L120.872 99.3436L124.619 100.848C125.026 101 125.192 101.426 125.04 101.832C124.887 102.239 124.462 102.405 124.055 102.253L119.247 100.301L119.186 100.266L116.71 101.556L121.456 103.472C121.862 103.624 122.029 104.05 121.876 104.457C121.724 104.863 121.298 105.03 120.892 104.877L114.926 102.505L112.583 103.707L117.914 105.466C118.197 105.547 118.373 105.813 118.389 106.07C118.406 106.327 118.325 106.61 118.059 106.786L113.582 109.971L116.031 110.726L121.022 107.507C121.19 107.358 121.447 107.341 121.633 107.448C121.792 107.458 121.942 107.627 122.03 107.76C122.232 108.124 122.141 108.566 121.839 108.804L117.915 111.318L120.868 112.199L124.526 109.86C124.695 109.711 124.952 109.694 125.137 109.801C125.296 109.811 125.446 109.98 125.534 110.113C125.736 110.477 125.646 110.919 125.344 111.157L122.751 112.792L124.917 113.466L127.279 111.945C127.448 111.795 127.705 111.778 127.89 111.885C128.05 111.895 128.199 112.064 128.287 112.197C128.489 112.561 128.399 113.003 128.097 113.241L126.8 114.058L129.656 114.965C130.063 115.118 130.265 115.482 130.174 115.924C130.005 116.074 129.544 116.302 129.199 116.185ZM94.8504 117.289L100.206 115.436L102.227 108.938L96.1481 112.187L94.8504 117.289ZM89.7452 108.572L95.4637 110.802L101.507 107.615L94.9113 105.62L89.7452 108.572ZM98.7441 99.8383L92.6401 98.7044L95.033 104.125L102.159 106.343L98.7441 99.8383ZM102.08 94.3461L100.067 99.1182L103.342 105.295L105.175 99.2649L102.08 94.3461ZM108.285 114.578L113.007 115.821L111.206 110.66L105.274 108.801L108.285 114.578ZM101.647 115.939L104.4 120.165L106.874 115.165L103.687 109.121L101.647 115.939ZM111.646 97.4787L106.544 99.8907L104.747 105.859L109.965 103.102L111.646 97.4787ZM115.883 106.272L110.614 104.548L105.395 107.305L111.709 109.219L115.883 106.272Z" fill="white"/>
<path d="M207.883 187.692C201.032 181.384 191.821 178.256 182.301 179.166C172.746 180.138 164.407 185.624 155.555 189.272C146.211 193.123 136.782 193.357 128.765 187.511C126.79 186.128 124.991 184.441 123.445 182.575C132.044 180.403 140.214 174.171 143.164 165.168C146.127 156.011 142.865 145.693 135.838 140.338C128.207 134.472 117.837 136.596 113.307 146.389C108.848 156.061 111.428 168.338 115.765 176.924C116.468 178.303 117.262 179.654 118.147 180.976C116.089 181.166 114.058 181.048 112.077 180.715C100.336 178.722 91.4749 169.794 83.5201 161.633C75.2421 153.123 66.2753 143.728 54.099 141.321C45.2039 139.592 35.1431 141.569 28.6174 149.237C27.8518 150.174 29.0324 151.504 29.8893 150.539C38.1783 141.375 51.4081 141.309 61.0555 146.149C73.3379 152.267 81.3987 164.139 91.7284 172.86C99.5846 179.505 109.169 184.714 119.855 183.341C124.008 188.739 129.567 193.003 136.157 194.699C147.132 197.629 157.508 191.86 167.618 187.072C173.8 184.153 180.186 181.92 186.903 182.229C193.971 182.579 200.59 185.265 205.825 189.829C207.111 190.977 209.19 188.933 207.883 187.692ZM114.68 163.484C113.78 157.773 113.716 151.004 117.066 145.721C120.683 140.104 126.592 138.568 132.016 141.376C140.863 145.915 144.392 158.496 139.356 167.998C135.753 174.758 128.911 179.08 121.744 180.457C118.104 175.598 115.63 169.628 114.68 163.484Z" fill="#7DFBF8" fill-opacity="0.92"/>
</svg>
