<svg width="110" height="97" viewBox="0 0 110 97" fill="none" xmlns="http://www.w3.org/2000/svg">
<path d="M31.9756 15.5283C29.4512 10.732 30.7134 12.3981 34.197 17.7498C35.1058 19.0625 36.1156 20.6276 37.3273 22.3442C38.4885 24.0607 39.8516 25.9288 41.2653 27.9483C42.0226 28.958 42.7799 29.9678 43.5372 31.028C43.9411 31.5834 44.345 32.0883 44.7489 32.6436C45.1528 33.199 45.6072 33.7039 46.0111 34.2592C46.8694 35.3699 47.7277 36.4807 48.6365 37.6419C49.5453 38.7526 50.454 39.9138 51.4133 41.075C55.1999 45.6694 59.3398 50.3648 63.6313 54.8077C67.9227 59.2506 72.2142 63.542 76.4046 67.2781C76.9095 67.7325 77.4144 68.2374 77.9193 68.6918C78.4242 69.1461 78.929 69.6005 79.4339 70.0044C80.4437 70.8627 81.4029 71.721 82.3622 72.5793C84.2807 74.1949 86.0983 75.7095 87.7139 77.0727C89.38 78.4358 90.8441 79.5971 92.1063 80.6573C93.419 81.6671 94.4792 82.5253 95.287 83.2322C96.9026 84.5953 97.0541 84.8478 96.0443 84.2924C95.5394 83.9895 94.7316 83.4846 93.6714 82.7778C92.6112 82.071 91.2985 81.2127 89.8344 80.1019C83.9273 75.8105 74.991 68.6413 66.3071 59.9574C57.5728 51.3745 49.1918 41.3275 43.0828 32.8456C41.5682 30.6746 40.1041 28.7056 38.8924 26.8376C37.6302 24.9695 36.5195 23.2529 35.5602 21.7383C34.6009 20.2237 33.7931 18.911 33.1873 17.9012C32.6824 16.7905 32.228 15.9827 31.9756 15.5283Z" fill="#2A4D2D"/>
<path d="M21.6685 17.1431C24.7988 19.4655 30.1 19.213 33.836 19.213C34.4924 19.213 34.4419 20.2228 33.7856 20.2228C29.8475 20.1723 24.4454 20.4752 21.1132 18.0013C20.6083 17.5974 21.1637 16.7391 21.6685 17.1431Z" fill="#2A4D2D"/>
<path d="M35.6582 4.62314C37.0214 9.92433 36.6175 15.3265 34.4465 20.3248C34.1941 20.9306 33.2348 20.6277 33.4872 20.0218C35.5572 15.175 35.9611 9.97482 34.6485 4.82508C34.497 4.21923 35.5068 4.01728 35.6582 4.62314Z" fill="#2A4D2D"/>
<path d="M39.7366 6.23795C39.5852 11.2867 37.9191 15.9821 34.9403 20.0211C34.5364 20.5259 33.6781 20.0211 34.082 19.4657C36.9598 15.5782 38.5754 11.0343 38.7269 6.18747C38.7774 5.53113 39.7871 5.58161 39.7366 6.23795Z" fill="#2A4D2D"/>
<path d="M44.3943 10.5305C42.1224 14.822 38.7397 18.2046 34.4483 20.5271C33.8929 20.83 33.3881 19.9717 33.9939 19.6183C38.0834 17.3463 41.3146 14.0647 43.5361 9.97516C43.839 9.4198 44.6973 9.97515 44.3943 10.5305Z" fill="#2A4D2D"/>
<path d="M21.6332 20.5787C25.9751 22.1943 30.519 21.8914 34.659 19.7709C35.2143 19.468 35.7192 20.3768 35.1133 20.6797C30.7714 22.9516 25.9246 23.2546 21.3302 21.5885C20.7244 21.2856 21.0273 20.3263 21.6332 20.5787Z" fill="#2A4D2D"/>
<path d="M22.4266 25.1712C27.3239 24.8178 31.6659 22.6468 34.998 19.0117C35.4524 18.5068 36.1088 19.2642 35.7049 19.769C32.2212 23.6566 27.5764 25.8275 22.4266 26.1809C21.7703 26.2314 21.8208 25.2217 22.4266 25.1712Z" fill="#2A4D2D"/>
<path d="M28.1288 3.71498C31.8649 7.19863 33.6824 12.0454 33.228 17.1447C33.1776 17.5486 32.7737 17.7001 32.4707 17.5486C28.5327 15.5796 25.5034 12.4998 23.5849 8.46083C23.3325 7.85498 24.1908 7.40058 24.4937 8.00643C26.3112 11.894 29.189 14.8223 33.0261 16.6903C32.7737 16.8418 32.5212 16.9427 32.2688 17.0942C32.7232 12.2474 31.0066 7.754 27.422 4.37133C26.9171 3.96743 27.6744 3.31108 28.1288 3.71498Z" fill="#2A4D2D"/>
<path d="M32.0224 16.1341C29.0436 12.196 26.3678 8.00557 24.0453 3.66364C23.7424 3.10827 24.6512 2.60338 24.9541 3.20923C27.2765 7.50068 29.8514 11.5902 32.7797 15.4777C33.1331 15.9321 32.4263 16.6389 32.0224 16.1341Z" fill="#2A4D2D"/>
<path d="M29.5417 32.2395C34.0855 32.7949 38.5789 32.6939 43.0723 31.9871C43.7287 31.8861 43.9306 32.8958 43.2743 32.9968C38.6799 33.7036 34.0855 33.8046 29.4912 33.2493C28.8348 33.1483 28.8853 32.1385 29.5417 32.2395Z" fill="#2A4D2D"/>
<path d="M30.152 36.7328C34.6454 36.6319 39.8961 36.1775 43.0263 32.4919C45.8536 29.1597 46.4595 24.7168 47.0148 20.5263C47.1158 19.87 48.1256 19.9205 48.0246 20.5768C47.4187 25.1207 46.7119 29.9675 43.5312 33.5016C40.199 37.1872 34.7968 37.6416 30.152 37.7426C29.4452 37.7426 29.4956 36.7328 30.152 36.7328Z" fill="#2A4D2D"/>
<path d="M42.6268 32.5942C46.2114 29.7165 48.7863 26.0309 50.2504 21.7394C50.4524 21.1336 51.4116 21.4365 51.2097 22.0423C49.695 26.5357 46.9687 30.3728 43.2831 33.3516C42.7783 33.7555 42.1219 32.9982 42.6268 32.5942Z" fill="#2A4D2D"/>
<path d="M43.3756 20.4752C44.1834 22.6966 44.5368 25.0191 44.2844 27.392C44.1329 28.7552 43.8805 31.4815 42.8202 32.3903C41.8105 33.2486 40.3463 32.3398 39.2861 31.9864C36.9637 31.229 34.6917 30.2193 32.5207 29.1086C31.9654 28.8056 32.4703 27.9473 33.0761 28.2503C34.6917 29.1086 36.4083 29.8154 38.1249 30.4717C39.5385 31.0271 41.6085 32.1883 42.6183 30.5222C44.2339 27.8464 43.4766 23.4035 42.4668 20.6771C42.1639 20.0713 43.1231 19.8693 43.3756 20.4752Z" fill="#2A4D2D"/>
<path d="M38.7692 45.567C43.717 46.2233 48.6143 46.0213 53.4611 44.9106C53.9659 44.8096 54.2184 45.4155 53.9155 45.7689C50.5833 49.3535 46.2918 51.6255 41.445 52.3323C40.7887 52.4333 40.5867 51.4235 41.2431 51.3225C45.9384 50.6662 50.0279 48.4952 53.2591 45.0116C53.4106 45.3145 53.562 45.5669 53.7135 45.8699C48.7657 47.0311 43.7674 47.233 38.7692 46.5767C38.0623 46.4757 38.1128 45.466 38.7692 45.567Z" fill="#2A4D2D"/>
<path d="M52.313 44.9627C53.0198 41.6305 53.2218 38.2478 52.9189 34.8147C52.8684 34.1583 53.8276 33.9564 53.9286 34.6127C54.282 38.1973 54.0296 41.7315 53.3228 45.2656C53.1208 45.9219 52.1616 45.619 52.313 44.9627Z" fill="#2A4D2D"/>
<path d="M52.7695 45.3158C55.2939 42.0341 56.758 38.1971 57.061 34.0571C57.1114 33.4008 58.1212 33.4512 58.0707 34.1076C57.7678 38.399 56.2532 42.438 53.6278 45.8207C53.2239 46.3761 52.3656 45.8712 52.7695 45.3158Z" fill="#2A4D2D"/>
<path d="M63.375 57.8371C58.1748 60.4625 52.5707 61.7246 46.7646 61.5732C46.1083 61.5732 46.1588 60.5634 46.8151 60.5634C52.4697 60.7149 57.8214 59.5032 62.8702 56.9788C63.476 56.6759 63.9809 57.5342 63.375 57.8371Z" fill="#2A4D2D"/>
<path d="M64.0348 57.4327C60.4502 62.0776 54.9976 64.0971 49.6459 65.9146C49.04 66.1166 48.8381 65.1573 49.4439 64.9049C54.5432 63.1883 59.7939 61.2698 63.227 56.8773C63.53 56.3725 64.3883 56.9278 64.0348 57.4327Z" fill="#2A4D2D"/>
<path d="M64.124 57.5837C61.4986 62.9354 57.5101 67.2774 52.5118 70.4581C51.9564 70.8115 51.5021 69.9027 52.0574 69.5493C56.9042 66.4696 60.7413 62.1781 63.3162 57.0284C63.5686 56.473 64.4269 57.0284 64.124 57.5837Z" fill="#2A4D2D"/>
<path d="M62.7621 57.1797C64.3273 52.8377 65.0341 48.3443 64.8826 43.75C64.8826 43.0936 65.8924 43.1441 65.8924 43.8005C65.9933 48.4958 65.2865 53.0902 63.7214 57.5331C63.5194 58.0884 62.5602 57.7855 62.7621 57.1797Z" fill="#2A4D2D"/>
<path d="M63.4231 57.1821C65.7456 52.6887 67.3612 47.8923 68.2699 42.8941C68.3709 42.2882 69.3807 42.2882 69.2797 42.9446C68.3709 48.1448 66.7048 53.0421 64.2814 57.7374C63.9785 58.2928 63.1202 57.7374 63.4231 57.1821Z" fill="#2A4D2D"/>
<path d="M63.7784 56.6766C67.9689 52.991 71.1496 48.4976 73.1691 43.3478C73.4215 42.742 74.3808 43.0449 74.1283 43.6507C72.0079 49.0024 68.7767 53.6473 64.4347 57.4339C63.9803 57.8378 63.324 57.0805 63.7784 56.6766Z" fill="#2A4D2D"/>
<path d="M74.9362 66.622C70.8467 70.9135 65.7475 73.8923 60.0424 75.3564C59.4365 75.5079 59.1841 74.5486 59.8404 74.3466C65.4445 72.933 70.2914 70.0552 74.2799 65.8647C74.6838 65.4103 75.3906 66.1676 74.9362 66.622Z" fill="#2A4D2D"/>
<path d="M74.9476 66.1177C72.1203 70.9645 68.0308 74.6501 62.8811 76.9221C62.2753 77.1745 61.8209 76.3162 62.4267 76.0133C67.3745 73.7919 71.363 70.2577 74.0894 65.5624C74.3923 65.0575 75.2506 65.5624 74.9476 66.1177Z" fill="#2A4D2D"/>
<path d="M75.1779 65.9148C73.5118 71.8723 70.3311 77.1735 65.8377 81.4145C65.3833 81.8689 64.6765 81.1116 65.1308 80.6572C69.5233 76.5172 72.603 71.3674 74.2186 65.5614C74.4206 64.9555 75.3798 65.2585 75.1779 65.9148Z" fill="#2A4D2D"/>
<path d="M75.44 54.5546C76.0459 58.8461 75.642 63.0365 74.2788 67.126C73.9759 66.9746 73.673 66.8231 73.37 66.7221C75.541 62.4812 76.9042 57.9878 77.611 53.2924C77.712 52.6361 78.7217 52.6866 78.6207 53.3429C77.9139 58.2402 76.5003 62.8851 74.2283 67.2775C73.9759 67.7824 73.1176 67.3785 73.3195 66.8736C74.6322 62.9356 75.0361 58.9471 74.4808 54.8576C74.3798 54.1507 75.3391 53.8983 75.44 54.5546Z" fill="#2A4D2D"/>
<path d="M73.6836 66.8248C75.0467 64.8558 76.9148 63.3412 78.3284 61.4226C79.8431 59.4031 81.0548 57.1312 81.9635 54.8088C82.216 54.2029 83.1752 54.5058 82.9228 55.1117C82.0645 57.3331 80.9538 59.4536 79.5906 61.4226C78.076 63.5431 76.006 65.2597 74.5419 67.3802C74.138 67.885 73.2797 67.3297 73.6836 66.8248Z" fill="#2A4D2D"/>
<path d="M85.1833 75.6594C82.1035 80.9606 76.2975 83.283 70.7943 85.2521C70.1885 85.454 69.9865 84.4947 70.5924 84.2423C75.8431 82.3743 81.3967 80.1528 84.325 75.1041C84.6279 74.5487 85.4862 75.1041 85.1833 75.6594Z" fill="#2A4D2D"/>
<path d="M85.3346 75.8101C82.4568 80.7579 78.6702 84.9989 74.0758 88.3815C73.5709 88.7854 72.8641 88.0281 73.369 87.6242C77.9129 84.292 81.5985 80.1521 84.4258 75.2548C84.7792 74.7499 85.6375 75.2547 85.3346 75.8101Z" fill="#2A4D2D"/>
<path d="M85.4777 76.0126C83.6097 81.4652 80.6814 86.312 76.7938 90.553C76.3394 91.0074 75.6831 90.3005 76.087 89.7957C79.8736 85.7062 82.7009 80.9603 84.4679 75.7096C84.7204 75.1038 85.6797 75.4067 85.4777 76.0126Z" fill="#2A4D2D"/>
<path d="M87.0028 61.0182C86.7504 66.067 85.7406 70.9643 83.9231 75.6596C83.6706 76.2655 82.7114 75.9626 82.9638 75.3567C84.7309 70.7118 85.7406 65.9155 85.9931 60.9677C86.0436 60.3114 87.0533 60.3619 87.0028 61.0182Z" fill="#2A4D2D"/>
<path d="M83.5185 75.6594C85.2856 71.4184 87.0021 67.2279 88.7692 62.987C89.0216 62.3811 89.9809 62.684 89.7285 63.2899C87.9614 67.5309 86.2448 71.7213 84.4778 75.9623C84.2253 76.5682 83.2661 76.2652 83.5185 75.6594Z" fill="#2A4D2D"/>
<path d="M84.119 75.4066C87.5522 72.125 90.4804 68.4394 92.8534 64.2994C93.1563 63.744 94.0146 64.2994 93.7116 64.8547C91.2882 69.0452 88.3095 72.8318 84.8258 76.164C84.3209 76.6183 83.6141 75.861 84.119 75.4066Z" fill="#2A4D2D"/>
<path d="M12.9287 45.7809C10.7459 42.9001 11.7639 43.8665 14.6494 46.9962C15.3793 47.7518 16.24 48.6915 17.2158 49.7155C18.1917 50.7395 19.2828 51.8479 20.4315 52.9985C21.0308 53.5699 21.6378 54.1912 22.2947 54.8048C22.5982 55.1155 22.9516 55.4184 23.2552 55.7291C23.6086 56.032 23.9121 56.3426 24.2655 56.6456C24.9723 57.2515 25.6369 57.9149 26.3514 58.5707C27.066 59.2265 27.8304 59.8745 28.5948 60.5226C31.6026 63.1225 34.883 65.8335 38.2246 68.2795C41.5662 70.7256 44.95 73.1141 48.1224 75.1266C48.518 75.3719 48.9135 75.6172 49.3091 75.8625C49.7047 76.1078 50.1003 76.3532 50.4958 76.5985C51.287 77.0891 52.0205 77.5376 52.7541 77.9861C54.2134 78.8331 55.5653 79.6457 56.8518 80.3662C58.0884 81.0945 59.252 81.6808 60.2083 82.248C61.2067 82.7577 61.9979 83.2483 62.6162 83.6125C63.8528 84.3407 63.9835 84.5248 63.2232 84.2338C62.8431 84.0882 62.2402 83.8239 61.4722 83.4829C60.7042 83.142 59.7135 82.6822 58.6075 82.1381C54.1837 79.9616 47.3632 76.1636 40.6456 71.3789C33.8857 66.6519 27.2287 60.9383 22.2151 55.9411C21.0011 54.6984 19.7947 53.5057 18.7535 52.3896C17.7123 51.2735 16.7941 50.2916 15.9911 49.3941C15.188 48.4966 14.508 47.7333 14.0007 47.0966C13.5012 46.5097 13.1247 46.0571 12.9287 45.7809Z" fill="#2A4D2D"/>
<path d="M6.05063 47.9671C8.38549 49.1895 11.9891 48.3765 14.5415 48.0327C14.9905 47.9632 15.041 48.6195 14.5919 48.689C11.8977 49.1059 8.28628 49.869 5.78629 48.57C5.39844 48.3745 5.66277 47.7717 6.05063 47.9671Z" fill="#2A4D2D"/>
<path d="M14.3473 38.1527C15.7858 41.5063 16.0423 45.145 15.0627 48.7195C14.9249 49.1496 14.2454 49.0503 14.3832 48.6203C15.3283 45.1533 15.095 41.6643 13.6719 38.4105C13.5104 38.0268 14.1857 37.769 14.3473 38.1527Z" fill="#2A4D2D"/>
<path d="M17.3043 38.7676C17.6719 42.1337 17.0529 45.397 15.3742 48.4155C15.1788 48.8033 14.526 48.5467 14.7215 48.1589C16.3158 45.2556 16.9502 42.0921 16.5482 38.8335C16.5363 38.4267 17.2348 38.3186 17.3043 38.7676Z" fill="#2A4D2D"/>
<path d="M20.8811 41.075C19.7245 44.166 17.7768 46.7664 15.13 48.8108C14.7618 49.0721 14.3697 48.5197 14.738 48.2584C17.3005 46.3292 19.206 43.7865 20.2782 40.8107C20.3739 40.4383 21.0266 40.6949 20.8811 41.075Z" fill="#2A4D2D"/>
<path d="M6.35194 50.2199C9.4578 50.8121 12.5203 50.1339 15.1404 48.2469C15.5087 47.9856 15.9007 48.538 15.5324 48.7994C12.8203 50.7517 9.51599 51.5184 6.25273 50.8994C5.83042 50.8114 5.93735 50.1818 6.35194 50.2199Z" fill="#2A4D2D"/>
<path d="M7.37809 53.2281C10.6824 52.4614 13.4521 50.5512 15.3191 47.759C15.5721 47.4134 16.0906 47.7929 15.8453 48.1885C13.8441 51.1036 10.9324 53.0868 7.42856 53.8844C6.98724 54.0038 6.92905 53.2976 7.37809 53.2281Z" fill="#2A4D2D"/>
<path d="M9.12063 38.3981C12.0203 40.2995 13.7119 43.3074 13.8876 46.7543C13.8763 47.0115 13.65 47.1997 13.3774 47.0887C10.4824 46.2083 8.1202 44.4792 6.46369 42.0278C6.20235 41.6595 6.75475 41.2675 7.01609 41.6358C8.60727 43.9951 10.8542 45.6399 13.6417 46.4858C13.4576 46.6164 13.3233 46.7394 13.1315 46.8202C12.9866 43.5729 11.3759 40.7569 8.59139 38.9398C8.34549 38.6713 8.77495 38.1451 9.12063 38.3981Z" fill="#2A4D2D"/>
<path d="M12.9889 46.1802C10.5917 43.8945 8.37096 41.4282 6.32659 38.7814C6.06525 38.4132 6.61766 38.0212 6.879 38.3894C8.86575 40.9941 11.0289 43.4181 13.4184 45.6539C13.7641 45.907 13.3346 46.4332 12.9889 46.1802Z" fill="#2A4D2D"/>
<path d="M12.8837 57.077C16.0312 56.9476 19.0593 56.3769 22.0832 55.4492C22.5245 55.3298 22.7746 55.9552 22.3332 56.0746C19.2671 57.0599 16.1891 57.6384 12.9918 57.7755C12.535 57.7951 12.4269 57.0965 12.8837 57.077Z" fill="#2A4D2D"/>
<path d="M13.7294 60.0086C16.7575 59.4379 20.3035 58.5827 22.0707 55.8059C23.6691 53.2596 23.6128 50.2541 23.5873 47.4482C23.5755 47.0413 24.274 46.9332 24.2936 47.39C24.3077 50.4531 24.3029 53.7235 22.528 56.4504C20.6112 59.2503 17.023 60.1631 13.8375 60.7071C13.3885 60.7766 13.2804 60.0781 13.7294 60.0086Z" fill="#2A4D2D"/>
<path d="M21.7881 55.9015C23.9395 53.6272 25.3574 50.9045 25.9075 47.8563C25.9955 47.4339 26.675 47.5332 26.587 47.9555C25.9948 51.0613 24.5501 53.9415 22.3143 56.3309C22.0536 56.6267 21.4852 56.2549 21.7881 55.9015Z" fill="#2A4D2D"/>
<path d="M21.1455 47.7762C21.9182 49.1382 22.3571 50.654 22.4467 52.2238C22.4859 53.1374 22.5643 54.9644 21.9162 55.7289C21.3026 56.3858 20.2198 55.9913 19.4827 55.85C17.8089 55.5981 16.2117 55.1811 14.5991 54.6642C14.1691 54.5264 14.4833 53.9158 14.8635 54.0614C16.046 54.4404 17.2708 54.7617 18.4801 54.9833C19.532 55.1782 20.995 55.7181 21.5236 54.5124C22.3434 52.5464 21.389 49.6798 20.4624 47.984C20.2587 47.6579 20.934 47.4002 21.1455 47.7762Z" fill="#2A4D2D"/>
<path d="M20.4811 64.9427C23.8935 64.8745 27.2055 64.1577 30.3827 62.8997C30.7165 62.7459 30.9855 63.1641 30.767 63.4023C28.8424 66.1523 26.1802 68.0969 22.9145 69.1131C22.4731 69.2324 22.2231 68.607 22.6644 68.4876C25.7882 67.5445 28.3583 65.6652 30.1908 62.9805C30.3215 63.1647 30.4521 63.3488 30.5751 63.483C27.3557 64.7986 23.9362 65.4809 20.474 65.5569C20.0748 65.6186 20.0166 64.9124 20.4811 64.9427Z" fill="#2A4D2D"/>
<path d="M29.5921 63.0735C29.7513 60.801 29.5536 58.5326 29.0066 56.3182C28.895 55.9268 29.5626 55.6192 29.6321 56.0682C30.2022 58.4322 30.4154 60.8004 30.2716 63.1727C30.2336 63.5873 29.5541 63.4881 29.5921 63.0735Z" fill="#2A4D2D"/>
<path d="M29.9833 63.2194C31.3899 60.7538 31.9941 58.0549 31.8189 55.2721C31.7994 54.8153 32.4557 54.7649 32.5252 55.2139C32.7656 58.0887 32.127 60.8952 30.6361 63.476C30.3908 63.8716 29.738 63.615 29.9833 63.2194Z" fill="#2A4D2D"/>
<path d="M38.397 70.3478C35.1248 72.6422 31.4718 74.1271 27.4648 74.6449C27.0158 74.7144 26.9576 74.0081 27.4144 73.9885C31.2716 73.4939 34.8325 72.0744 37.9628 69.853C38.3733 69.5341 38.7653 70.0865 38.397 70.3478Z" fill="#2A4D2D"/>
<path d="M38.79 70.0293C36.8239 73.501 33.2903 75.4271 29.841 77.238C29.465 77.4495 29.215 76.824 29.591 76.6126C32.8561 74.9323 36.2477 73.0793 38.1372 69.7727C38.3826 69.3771 38.9854 69.6414 38.79 70.0293Z" fill="#2A4D2D"/>
<path d="M38.9194 70.1133C37.6214 73.9414 35.3749 77.2521 32.2642 79.9302C31.9037 80.2415 31.5117 79.689 31.8722 79.3778C34.8909 76.765 37.0453 73.5196 38.2666 69.8566C38.4044 69.4266 39.0572 69.6832 38.9194 70.1133Z" fill="#2A4D2D"/>
<path d="M37.9291 70.0109C38.5291 66.955 38.6225 63.9263 38.0441 60.8483C37.9746 60.3993 38.6808 60.3411 38.7503 60.7901C39.2788 63.8758 39.2508 66.9966 38.6086 70.1102C38.5207 70.5325 37.8412 70.4332 37.9291 70.0109Z" fill="#2A4D2D"/>
<path d="M38.3754 69.8921C39.5088 66.6514 40.17 63.3305 40.2514 59.895C40.2895 59.4804 40.9381 59.3801 40.9577 59.8368C40.8417 63.3799 40.196 66.8005 39.0281 70.1487C38.8404 70.5865 38.2376 70.3221 38.3754 69.8921Z" fill="#2A4D2D"/>
<path d="M38.5663 69.5524C41.032 66.6675 42.7641 63.3342 43.6284 59.6754C43.7163 59.2531 44.3958 59.3523 44.3079 59.7746C43.4091 63.5409 41.6426 66.9817 39.0925 69.9818C38.8318 70.2776 38.2556 69.8559 38.5663 69.5524Z" fill="#2A4D2D"/>
<path d="M47.1212 74.9233C44.7672 78.1996 41.5835 80.7358 37.8461 82.3358C37.4125 82.5051 37.1625 81.8796 37.5961 81.7103C41.2413 80.1756 44.2831 77.7125 46.595 74.4939C46.848 74.1482 47.3665 74.5278 47.1212 74.9233Z" fill="#2A4D2D"/>
<path d="M47.0562 74.5739C45.6044 78.0682 43.1964 80.9952 39.9354 83.0324C39.5671 83.2938 39.1252 82.7491 39.5434 82.48C42.7046 80.4582 45.036 77.6963 46.4456 74.2597C46.5989 73.9294 47.2017 74.1938 47.0562 74.5739Z" fill="#2A4D2D"/>
<path d="M47.2255 74.3934C46.6879 78.5125 45.0407 82.3947 42.3873 85.7173C42.1343 86.063 41.5581 85.6412 41.8611 85.2878C44.4301 82.0805 46.0428 78.3058 46.546 74.2941C46.5841 73.8795 47.2636 73.9788 47.2255 74.3934Z" fill="#2A4D2D"/>
<path d="M46.2818 66.8782C47.121 69.6604 47.2463 72.4509 46.7229 75.3417C46.5079 75.2728 46.2928 75.2039 46.0778 75.135C47.1346 72.0594 47.6271 68.969 47.6397 65.7485C47.6278 65.3416 48.3263 65.2336 48.3459 65.6903C48.3488 69.0106 47.8295 72.2584 46.7306 75.3916C46.5851 75.7717 45.9976 75.6072 46.0856 75.1849C46.6321 72.4437 46.4724 69.7608 45.6985 67.0706C45.537 66.6869 46.1624 66.4369 46.2818 66.8782Z" fill="#2A4D2D"/>
<path d="M46.2774 75.1547C47.0247 73.7108 48.1099 72.47 48.9148 71.0682C49.7541 69.559 50.3208 67.9386 50.7301 66.2916C50.818 65.8693 51.4975 65.9684 51.4096 66.3908C51.0425 67.9802 50.5103 69.4931 49.763 70.937C48.9391 72.546 47.7119 73.8599 46.9379 75.4612C46.6926 75.8568 46.0897 75.5924 46.2774 75.1547Z" fill="#2A4D2D"/>
<path d="M54.9668 79.7874C53.4194 83.6541 49.6672 85.8185 46.1259 87.6947C45.7499 87.9062 45.4998 87.2807 45.8758 87.0692C49.2674 85.2162 52.8355 83.1825 54.314 79.5308C54.5017 79.0931 55.1046 79.3574 54.9668 79.7874Z" fill="#2A4D2D"/>
<path d="M55.0904 79.8721C53.6041 83.4739 51.4919 86.6617 48.7037 89.4432C48.393 89.7467 47.8668 89.3172 48.1774 89.0137C50.9235 86.2898 53.0434 83.1519 54.4875 79.6078C54.6253 79.1777 55.2282 79.4421 55.0904 79.8721Z" fill="#2A4D2D"/>
<path d="M55.2163 80.0064C54.4749 83.7995 52.9809 87.3514 50.719 90.5623C50.4659 90.908 49.9474 90.5285 50.1927 90.1329C52.3626 86.9873 53.8221 83.5429 54.529 79.8573C54.617 79.435 55.2965 79.5342 55.2163 80.0064Z" fill="#2A4D2D"/>
<path d="M54.7591 69.858C55.0767 73.2318 54.88 76.583 54.119 79.9193C54.0311 80.3416 53.3516 80.2424 53.4395 79.8201C54.2082 76.5337 54.4204 73.2823 54.1104 69.9584C54.041 69.5094 54.7395 69.4013 54.7591 69.858Z" fill="#2A4D2D"/>
<path d="M53.806 79.9644C54.5712 76.9851 55.3862 73.9981 56.1513 71.0187C56.2392 70.5964 56.9686 70.6879 56.8308 71.1179C56.0657 74.0973 55.2507 77.0843 54.4855 80.0637C54.3976 80.486 53.7181 80.3868 53.806 79.9644Z" fill="#2A4D2D"/>
<path d="M54.1883 79.7535C56.1937 77.1953 57.8111 74.4417 59.033 71.4428C59.1708 71.0128 59.8313 71.3193 59.6858 71.6994C58.4716 74.7482 56.812 77.5594 54.7645 80.1752C54.4538 80.4787 53.9353 80.0992 54.1883 79.7535Z" fill="#2A4D2D"/>
<path d="M2.97446 51.3238C2.21715 51.7782 2.36861 52.8889 3.12592 54.252C3.88324 55.6152 5.29689 57.1298 6.862 58.4425C8.42712 59.7552 10.1942 60.8154 11.5573 61.5223C12.2137 61.8757 12.8195 62.1281 13.2234 62.3301C13.6273 62.4815 13.8798 62.5825 13.8798 62.5825C13.8798 62.5825 13.7283 62.3805 13.4254 62.0271C13.1225 61.6737 12.769 61.2193 12.2642 60.6135C11.3554 59.4523 10.1942 57.8367 9.08346 56.322C7.97273 54.7569 6.91249 53.2423 5.95323 52.2325C4.94347 51.2228 3.98421 50.7179 2.97446 51.3238Z" fill="#5A7A1C"/>
<path d="M9.24014 50.1616C8.38185 50.3636 8.12942 51.3734 8.33137 52.8375C8.53332 54.2512 9.18965 56.1192 10.0984 57.8863C10.6033 58.7445 11.1082 59.6028 11.714 60.3601C12.3199 61.1175 12.9257 61.7233 13.4811 62.2282C13.7335 62.4806 14.0365 62.6826 14.2889 62.8845C14.5413 63.0865 14.7433 63.2379 14.9452 63.3389C15.2987 63.5409 15.5006 63.6923 15.5006 63.6923C15.5006 63.6923 15.3996 63.4904 15.1472 63.0865C15.0462 62.8845 14.9452 62.6826 14.7938 62.4301C14.6423 62.1777 14.5413 61.8748 14.3899 61.5214C13.8345 60.2087 13.3296 58.4921 12.9762 56.725C12.5723 54.958 12.2189 53.2414 11.6635 51.9287C11.1587 50.6665 10.4014 49.9092 9.24014 50.1616Z" fill="#5A7A1C"/>
<path d="M0.0992919 61.9252C0.402217 62.7835 1.26051 62.9349 2.37123 62.8844C3.48196 62.7834 4.9461 62.531 6.46073 62.3291C7.97536 62.1271 9.59096 62.0261 10.8027 62.0766C11.4085 62.0766 11.9134 62.1271 12.3173 62.1271C12.6707 62.1776 12.8727 62.1776 12.8727 62.1776C12.8727 62.1776 12.7212 62.0261 12.4183 61.8242C12.1153 61.5717 11.6609 61.2688 11.1056 60.9659C9.99486 60.3096 8.32877 59.6027 6.5617 59.2493C5.65293 59.0978 4.79464 59.0474 3.93635 59.0474C3.07806 59.0979 2.32075 59.2493 1.66441 59.5017C0.35173 60.0066 -0.254121 60.8649 0.0992919 61.9252Z" fill="#5A7A1C"/>
<path d="M16.6096 54.0491C15.7008 54.0491 15.2969 55.0589 15.2969 56.523C15.2969 57.2298 15.4483 58.0881 15.7008 58.9464C15.9532 59.8047 16.3571 60.7135 16.761 61.5718C17.2154 62.43 17.7708 63.2379 18.2756 63.9447C18.831 64.6515 19.3864 65.2574 19.8912 65.7622C20.1437 66.0147 20.3961 66.2166 20.5981 66.4186C20.8 66.6205 21.002 66.772 21.1534 66.873C21.4564 67.1254 21.6583 67.2769 21.6583 67.2769C21.6583 67.2769 21.5573 67.0749 21.4059 66.671C21.3049 66.4691 21.2544 66.2671 21.1534 66.0147C21.0525 65.7622 20.9515 65.4593 20.8505 65.1564C20.5981 64.5 20.3961 63.7932 20.1942 62.9854C19.9922 62.1776 19.7903 61.3698 19.6388 60.562C19.2854 58.8959 19.0834 57.3308 18.73 56.1696C18.3766 54.8064 17.7708 53.9986 16.6096 54.0491Z" fill="#5A7A1C"/>
<path d="M24.1223 59.501C23.264 59.4505 22.7086 60.3593 22.6581 61.8739C22.6076 62.6313 22.7591 63.4391 23.0115 64.3478C23.264 65.2061 23.6174 66.1149 24.1223 66.9732C24.5766 67.8315 25.132 68.5888 25.7379 69.2956C26.3437 69.952 26.8991 70.5578 27.4544 70.9617C27.7069 71.1637 27.9593 71.3656 28.2117 71.5171C28.4642 71.6685 28.6661 71.82 28.8176 71.921C29.171 72.1229 29.373 72.2239 29.373 72.2239C29.373 72.2239 29.272 72.0219 29.07 71.6685C28.9691 71.5171 28.8681 71.2646 28.7671 71.0122C28.6661 70.7598 28.5147 70.5073 28.3632 70.2044C28.1108 69.5985 27.8583 68.8917 27.6059 68.1344C27.3535 67.3771 27.1515 66.5693 27 65.7615C26.8486 64.9537 26.6971 64.1964 26.5961 63.4896C26.4952 62.7827 26.3437 62.1264 26.1922 61.5205C25.8388 60.4098 25.334 59.602 24.1223 59.501Z" fill="#5A7A1C"/>
<path d="M29.8838 62.682C29.0256 62.884 28.7731 63.9442 29.076 65.4588C29.2275 66.2161 29.5304 67.0744 29.9343 67.9327C30.3382 68.791 30.8936 69.6493 31.4994 70.4571C32.1053 71.2649 32.7616 72.0222 33.418 72.6785C34.0743 73.3349 34.7306 73.8902 35.3365 74.3446C35.9424 74.799 36.4472 75.1524 36.8006 75.3544C37.1541 75.5563 37.356 75.7078 37.356 75.7078C37.356 75.7078 37.255 75.5058 37.0026 75.1019C36.8006 74.7485 36.4977 74.1932 36.1443 73.5368C35.488 72.2746 34.7306 70.5076 34.0743 68.8415C33.418 67.1249 32.9131 65.5093 32.3072 64.2976C31.7519 63.1869 30.9946 62.4296 29.8838 62.682Z" fill="#5A7A1C"/>
<path d="M36.9057 65.863C36.0474 66.0145 35.7445 67.1757 36.0979 68.7913C36.2493 69.5991 36.5523 70.5078 37.0067 71.4166C37.461 72.3254 38.0164 73.2847 38.6223 74.1429C39.2786 75.0012 39.9854 75.8595 40.6923 76.5663C41.3991 77.2732 42.1059 77.879 42.7622 78.3334C43.0652 78.5858 43.3681 78.7878 43.6205 78.9393C43.873 79.1412 44.1254 79.2927 44.3274 79.3937C44.7313 79.6461 44.9332 79.7471 44.9332 79.7471C44.9332 79.7471 44.7818 79.5451 44.5293 79.1412C44.3779 78.9393 44.2769 78.7373 44.0749 78.4344C43.9235 78.182 43.7215 77.879 43.5196 77.5256C43.1157 76.8693 42.7622 76.0615 42.3583 75.2032C41.9544 74.3449 41.601 73.4361 41.2476 72.5778C40.8942 71.6691 40.5913 70.8108 40.2884 69.9525C39.9854 69.1447 39.6825 68.3874 39.3796 67.731C38.7737 66.5193 38.0669 65.661 36.9057 65.863Z" fill="#5A7A1C"/>
<path d="M44.4883 68.2874C43.63 68.4388 43.3271 69.4991 43.63 71.0137C43.7815 71.771 44.0844 72.5788 44.4883 73.4371C44.8922 74.2954 45.4476 75.1032 46.1039 75.911C46.7098 76.6683 47.4166 77.3751 48.1234 77.981C48.8302 78.5868 49.5371 79.0917 50.1429 79.4451C50.4458 79.6471 50.7488 79.7985 51.0012 79.95C51.2536 80.1014 51.5061 80.2024 51.6576 80.3034C52.0615 80.4549 52.2634 80.5558 52.2634 80.5558C52.2634 80.5558 52.1119 80.3539 51.8595 80.0005C51.7585 79.849 51.6071 79.6471 51.4556 79.3946C51.3041 79.1422 51.1022 78.8897 50.9507 78.5868C50.5973 77.981 50.1934 77.2741 49.7895 76.5673C49.4361 75.81 49.0322 75.0022 48.7293 74.2449C48.4263 73.4371 48.1234 72.6798 47.8205 71.9225C47.5681 71.1651 47.2651 70.5088 46.9622 69.9534C46.3564 68.7922 45.6495 68.0349 44.4883 68.2874Z" fill="#5A7A1C"/>
<path d="M50.7495 71.1648C49.9417 71.5687 49.9922 72.7299 50.699 74.1436C51.0524 74.8504 51.5573 75.6077 52.2136 76.365C52.87 77.1223 53.6273 77.8292 54.4351 78.536C55.2429 79.1923 56.1012 79.7982 56.9595 80.3031C57.8177 80.8079 58.6255 81.2118 59.3324 81.5148C59.6858 81.6662 60.0392 81.8177 60.2916 81.9187C60.5946 82.0196 60.847 82.1206 61.049 82.1711C61.4529 82.3226 61.7053 82.373 61.7053 82.373C61.7053 82.373 61.5033 82.1711 61.2004 81.8682C60.8975 81.5652 60.4431 81.1109 59.9382 80.5555C59.4333 80.0001 58.878 79.3438 58.3226 78.637C57.7673 77.9301 57.1614 77.1728 56.6565 76.4155C55.5458 74.9009 54.5865 73.3358 53.6778 72.326C52.7185 71.2153 51.7592 70.6094 50.7495 71.1648Z" fill="#5A7A1C"/>
<path d="M4.81216 68.7935C5.11509 69.6517 6.17533 69.7527 7.53849 69.5508C8.95214 69.3488 10.7697 68.9449 12.6377 68.642C13.597 68.4905 14.5058 68.3896 15.4146 68.2886C16.3233 68.2381 17.1816 68.1371 17.9389 68.1371C18.2923 68.1371 18.6458 68.1371 18.9487 68.1371C19.2516 68.1371 19.504 68.1371 19.7565 68.1371C20.2109 68.1371 20.4633 68.1371 20.4633 68.1371C20.4633 68.1371 20.2614 67.9857 19.8575 67.7837C19.6555 67.6827 19.4031 67.5313 19.1506 67.4303C18.8477 67.2788 18.5448 67.1274 18.1914 66.9759C17.4845 66.673 16.6263 66.37 15.667 66.0671C14.7077 65.8147 13.6475 65.6127 12.5872 65.5118C11.527 65.4108 10.4668 65.4108 9.45702 65.5118C8.44727 65.6127 7.53849 65.8147 6.78118 66.1176C5.21606 66.8244 4.45875 67.7332 4.81216 68.7935Z" fill="#5A7A1C"/>
<path d="M13.0818 76.1127C13.5866 76.87 14.5964 76.769 15.8586 76.2641C17.1713 75.7592 18.7869 74.9514 20.453 74.1941C22.1695 73.4368 23.9366 72.7805 25.2998 72.3261C26.0066 72.1241 26.562 71.9222 27.0163 71.8212C27.4202 71.7202 27.6727 71.6697 27.6727 71.6697C27.6727 71.6697 27.4202 71.6193 27.0163 71.5183C26.562 71.4173 25.9561 71.3163 25.1988 71.2154C23.6842 71.0134 21.6142 70.9629 19.5947 71.2658C17.5752 71.5688 15.5557 72.2756 14.2935 73.1844C13.0313 74.0931 12.4759 75.1534 13.0818 76.1127Z" fill="#5A7A1C"/>
<path d="M21.0157 80.7591C21.7226 81.3649 22.5809 80.961 23.6916 80.2542C24.247 79.9008 24.8528 79.4969 25.5091 78.992C26.1655 78.5376 26.8723 78.0832 27.6296 77.6289C28.3869 77.1745 29.1947 76.7706 29.9521 76.4677C30.7094 76.1647 31.4667 75.8618 32.1735 75.6598C32.5269 75.5589 32.8298 75.4579 33.0823 75.4074C33.3852 75.3569 33.5872 75.2559 33.7891 75.2559C34.193 75.155 34.4454 75.1045 34.4454 75.1045C34.4454 75.1045 34.193 75.0035 33.7891 74.9025C33.5872 74.852 33.3347 74.7511 33.0318 74.7006C32.7289 74.6501 32.3755 74.5491 32.022 74.4986C31.2647 74.3472 30.4064 74.3472 29.3967 74.3472C28.4374 74.3977 27.3772 74.5491 26.3674 74.8015C25.3577 75.054 24.3479 75.4579 23.4896 75.9628C22.6314 76.4677 21.874 77.023 21.3692 77.6289C20.3594 78.7901 20.1575 80.0018 21.0157 80.7591Z" fill="#5A7A1C"/>
<path d="M28.9435 84.999C29.6503 85.5543 30.5591 85.1 31.6698 84.3426C32.2252 83.9387 32.831 83.4844 33.4873 82.929C34.1437 82.4241 34.901 81.8687 35.6583 81.3639C36.4156 80.859 37.2234 80.4046 38.0312 80.0007C38.839 79.5968 39.5963 79.2434 40.3032 78.991C40.6566 78.8395 40.9595 78.7385 41.2624 78.6376C41.5654 78.5366 41.8178 78.4356 42.0197 78.3851C42.4236 78.2841 42.6761 78.1832 42.6761 78.1832C42.6761 78.1832 42.4236 78.1327 41.9693 78.0317C41.7673 77.9812 41.4644 77.9307 41.1615 77.8802C40.8585 77.8298 40.5051 77.7793 40.1012 77.7793C39.2934 77.7288 38.3846 77.7288 37.3749 77.8297C36.3651 77.9307 35.3049 78.1832 34.2951 78.5366C33.2854 78.89 32.2756 79.3444 31.4174 79.8997C30.5591 80.4551 29.8017 81.0609 29.2969 81.7173C28.2366 83.03 28.0347 84.2922 28.9435 84.999Z" fill="#5A7A1C"/>
<path d="M37.6681 87.0689C38.375 87.6747 39.2837 87.2203 40.3945 86.463C40.9498 86.0591 41.5557 85.6047 42.2625 85.0494C42.9189 84.5445 43.6762 83.9891 44.4335 83.4842C45.1908 82.9793 45.9986 82.4745 46.7559 82.0706C47.5132 81.6667 48.2705 81.2628 48.9774 81.0103C49.3308 80.8589 49.6337 80.7579 49.8861 80.6569C50.1891 80.5559 50.391 80.455 50.6435 80.4045C51.0474 80.253 51.2998 80.2025 51.2998 80.2025C51.2998 80.2025 51.0474 80.152 50.593 80.1015C50.391 80.0511 50.0881 80.0511 49.7852 80.0006C49.4822 79.9501 49.1288 79.9501 48.7249 79.9501C47.9676 79.8996 47.0084 79.9501 46.0491 80.1015C45.0898 80.253 44.0296 80.5055 43.0198 80.8084C42.0101 81.1618 41.0508 81.6162 40.1925 82.1716C39.3342 82.7269 38.6274 83.3328 38.072 83.9386C37.0118 85.0998 36.8099 86.3115 37.6681 87.0689Z" fill="#5A7A1C"/>
<path d="M47.3002 88.027C48.0575 88.5319 48.9158 87.9765 49.9255 87.1687C50.4304 86.7143 50.9858 86.2599 51.6421 85.7046C52.2984 85.1997 53.0053 84.6443 53.7121 84.1394C54.4694 83.6346 55.2772 83.1802 56.0345 82.7763C56.8423 82.4229 57.5996 82.0694 58.256 81.8675C58.6094 81.7665 58.9123 81.6656 59.2152 81.5646C59.5182 81.4636 59.7706 81.4131 59.9725 81.3626C60.3764 81.2616 60.6289 81.2112 60.6289 81.2112C60.6289 81.2112 60.3764 81.1607 59.9725 81.0092C59.7706 80.9587 59.4677 80.8578 59.1647 80.8073C58.8618 80.7568 58.5084 80.6558 58.1045 80.6558C57.2967 80.5548 56.3879 80.5548 55.3782 80.6558C54.3684 80.7568 53.3082 80.9587 52.2479 81.3121C51.2382 81.6656 50.2284 82.1704 49.3702 82.7763C48.5119 83.3821 47.805 84.0385 47.3507 84.7453C46.3914 86.1589 46.2904 87.4211 47.3002 88.027Z" fill="#5A7A1C"/>
<path d="M9.08865 58.7956C8.98767 58.947 11.714 61.32 16.0559 64.6521C20.3979 67.9843 26.3554 72.1748 32.9693 75.4565C36.251 77.0721 39.6841 78.4353 43.0163 79.3945C44.6824 79.8489 46.298 80.2528 47.8631 80.5557C49.4282 80.8587 50.8924 81.0101 52.306 81.1616C55.0324 81.414 57.3548 81.414 58.9704 81.2626C60.586 81.1616 61.4948 80.9091 61.4948 80.7072C61.4948 80.5052 60.586 80.3538 59.0209 80.1518C57.4558 80.0004 55.2343 79.7984 52.5585 79.3945C51.2458 79.1926 49.7816 78.9401 48.3175 78.6372C46.8029 78.3343 45.2882 77.8799 43.6726 77.4255C40.4919 76.4662 37.1597 75.1536 33.9285 73.6389C27.4661 70.5592 21.4076 66.6212 16.8637 63.6424C12.2694 60.6636 9.24011 58.6441 9.08865 58.7956Z" fill="#926D50"/>
<path d="M51.4352 10.9458C50.1271 9.37443 53.043 11.2912 56.6518 13.7245C58.4562 14.9411 60.4354 16.2587 62.1339 17.3559C63.8071 18.4969 65.218 19.4863 65.7729 20.0399C66.9011 21.2159 63.3829 19.5345 59.6362 17.1382C57.7629 15.94 55.8088 14.5786 54.2736 13.4008C52.8073 12.2044 51.6655 11.2537 51.4352 10.9458Z" fill="#788C2B"/>
<path d="M63.994 6.24829C63.9792 5.36524 64.2348 5.6294 64.6567 6.51426C65.0533 7.44284 65.5658 9.07958 65.8831 10.9534C66.2004 12.8272 66.2788 14.9129 66.1521 16.647C66.0001 18.4248 65.7121 19.8326 65.3586 20.4447C64.6518 21.6689 65.1608 18.4649 65.0459 14.7258C64.9977 12.8908 64.7999 10.911 64.5565 9.31304C64.2627 7.80252 64.0175 6.6116 63.994 6.24829Z" fill="#788C2B"/>
<path d="M52.2267 15.834C51.181 14.4141 53.6345 16.1221 56.8515 17.9212C58.4693 18.8552 60.2435 19.8212 61.8243 20.6173C63.4051 21.4134 64.6983 22.1017 65.26 22.5426C66.3832 23.4243 63.0868 22.5705 59.6191 20.8016C57.9072 19.9298 56.1397 18.8511 54.7726 17.8869C53.4054 16.9226 52.4133 16.1167 52.2267 15.834Z" fill="#788C2B"/>
<path d="M54.1678 20.1578C52.9909 18.6621 55.6629 20.4963 59.1356 22.5596C60.8593 23.613 62.8084 24.68 64.4514 25.5703C66.1381 26.4859 67.5188 27.2247 68.0989 27.7345C69.2844 28.7105 65.8014 27.574 62.0966 25.6099C60.2349 24.5934 58.3364 23.439 56.907 22.3805C55.4524 21.3658 54.3981 20.4656 54.1678 20.1578Z" fill="#788C2B"/>
<path d="M55.8694 25.1681C53.1504 22.6073 67.5255 30.3238 69.5634 32.5497C71.5575 34.7504 56.9422 26.1373 55.8694 25.1681Z" fill="#788C2B"/>
<path d="M57.1013 28.6807C55.9428 27.254 58.578 28.9502 61.8874 31.0942C65.1716 33.2818 69.1622 35.7606 70.1845 36.8172C71.1816 37.9176 68.0132 36.4381 64.5473 34.2622C61.1252 32.1115 57.5435 29.2274 57.1013 28.6807Z" fill="#788C2B"/>
<path d="M58.3487 32.7822C57.1163 31.0796 59.9682 33.3092 63.6072 35.9931C65.4485 37.3477 67.4648 38.8032 69.2002 40.0384C70.9356 41.2735 72.3649 42.3319 72.9635 42.9107C74.1355 44.112 70.5114 42.3111 66.6218 39.6574C64.7115 38.3213 62.7458 36.7783 61.2173 35.4877C59.6887 34.1971 58.6227 33.1153 58.3487 32.7822Z" fill="#788C2B"/>
<path d="M60.3778 37.8574C57.6674 34.7768 72.432 45.0501 74.4243 47.6578C76.3914 50.3092 61.4371 39.0519 60.3778 37.8574Z" fill="#788C2B"/>
<path d="M60.8058 40.8458C59.555 39.0743 62.4691 41.398 66.0188 44.4385C69.5432 47.5227 73.6848 51.2547 74.6616 52.6931C75.6383 54.1315 72.3307 51.5806 68.7625 48.4711C65.1506 45.3364 61.2849 41.5305 60.8058 40.8458Z" fill="#788C2B"/>
<path d="M61.349 44.6549C58.8677 40.7738 73.244 55.2535 74.9956 58.4801C76.7909 61.732 62.319 46.206 61.349 44.6549Z" fill="#788C2B"/>
<path d="M61.1518 49.1448C58.7948 45.4521 72.6618 58.9965 74.3765 62.0852C76.1163 65.1301 62.1286 50.5832 61.1518 49.1448Z" fill="#788C2B"/>
<path d="M63.3071 54.9962C62.3623 53.4014 64.7955 55.4475 67.7078 58.1783C70.6201 60.9091 74.0621 64.2372 74.8202 65.5493C75.5784 66.8615 72.7954 64.6135 69.8209 61.7885C66.8211 59.0072 63.6988 55.6305 63.3071 54.9962Z" fill="#788C2B"/>
<path d="M63.7828 58.3052C63.0634 56.7239 65.1333 58.7934 67.689 61.4349C70.1758 64.0949 73.2175 67.3085 73.8445 68.545C74.4715 69.7814 71.9509 67.6849 69.3766 64.9744C66.7149 62.2134 64.0618 58.9327 63.7828 58.3052Z" fill="#788C2B"/>
<path d="M64.0263 62.3467C63.3322 60.7217 65.37 62.9476 67.8753 65.6766C70.3553 68.4493 73.4592 71.7571 74.061 73.0372C74.7317 74.2989 72.1236 72.1519 69.5124 69.3035C66.9197 66.524 64.3053 62.9742 64.0263 62.3467Z" fill="#788C2B"/>
<path d="M63.0576 66.2244C62.3887 64.5557 64.445 66.8506 66.8931 69.7797C69.3411 72.7088 72.3187 76.2352 72.939 77.5843C73.5155 78.9083 71.0336 76.5426 68.4544 73.5377C65.8752 70.5329 63.3113 66.8956 63.0576 66.2244Z" fill="#788C2B"/>
<path d="M68.6332 8.403C68.8184 7.5772 69.0051 7.85983 69.22 8.80013C69.4098 9.78415 69.49 11.4628 69.3128 13.2843C69.1356 15.1059 68.6068 17.1325 67.9671 18.7453C67.3275 20.3581 66.508 21.5756 66.0301 21.9993C64.9803 22.9089 66.5269 20.1291 67.438 16.6326C67.928 14.8751 68.2431 13.0166 68.4068 11.4204C68.5637 9.93695 68.5439 8.75955 68.6332 8.403Z" fill="#788C2B"/>
<path d="M72.5445 12.9373C72.755 12.0677 72.9853 12.3756 73.1246 13.4471C73.2639 14.5186 73.2246 16.3031 72.9027 18.2743C72.5808 20.2455 71.9326 22.378 71.1297 24.0715C70.3269 25.765 69.4569 27.07 68.9101 27.5122C67.7475 28.415 69.5953 25.5176 70.8142 21.7907C71.4237 19.9272 71.9088 17.8754 72.1667 16.217C72.3993 14.6024 72.4805 13.2501 72.5445 12.9373Z" fill="#788C2B"/>
<path d="M75.9791 15.7891C76.4268 15.1148 76.5444 15.4159 76.3708 16.4234C76.1788 17.3619 75.7023 18.894 74.9247 20.5438C74.1723 22.1498 73.1188 23.8735 72.0672 25.1902C71.0155 26.5068 69.9841 27.4854 69.4004 27.7897C68.1892 28.3729 70.2285 26.0524 72.1267 23.0675C73.054 21.5625 73.988 19.9447 74.6831 18.5388C75.3345 17.1076 75.7839 16.0262 75.9791 15.7891Z" fill="#788C2B"/>
<path d="M77.7285 20.2366C78.2014 19.5186 78.2938 19.8634 78.1202 20.8709C77.9282 21.8093 77.4264 23.3852 76.5799 25.0535C75.7585 26.678 74.6176 28.3512 73.4785 29.6174C72.3394 30.8836 71.2021 31.7427 70.5746 32.0217C69.3012 32.5107 71.6213 30.4107 73.6507 27.5015C74.7092 26.0721 75.6684 24.4107 76.3635 23.0047C77.1024 21.6241 77.5771 20.499 77.7285 20.2366Z" fill="#788C2B"/>
<path d="M79.9024 23.9409C80.5249 23.3676 80.5484 23.7309 80.1562 24.6121C79.764 25.4934 78.9309 26.9362 77.8725 28.3656C76.7888 29.8386 75.4545 31.3419 74.2095 32.4886C72.9645 33.6353 71.7835 34.4692 71.1812 34.7045C69.9078 35.1936 72.2532 33.0498 74.6509 30.4115C75.8842 29.0831 77.0805 27.6168 78.038 26.3624C78.9702 25.1517 79.682 24.2217 79.9024 23.9409Z" fill="#788C2B"/>
<path d="M81.3424 28.2125C81.3491 28.0998 81.2549 28.162 81.2297 28.2058C81.2044 28.2495 81.2482 28.2747 81.2482 28.2747C81.2229 28.3185 81.2666 28.3437 81.2666 28.3437C81.3793 28.3505 81.4231 28.3757 81.4231 28.3757L81.4483 28.332L81.5173 28.3135L81.5862 28.295C81.6367 28.2076 81.6435 28.0949 81.7124 28.0764C81.7814 28.0579 81.8369 28.2648 81.8301 28.3775C81.8418 28.5592 81.7408 28.7341 81.6903 28.8215C81.2544 29.6775 80.4282 31.0077 79.326 32.4118C78.2491 33.7722 76.9401 35.2317 75.7203 36.3347C74.5005 37.4377 73.3884 38.2531 72.7862 38.4884C71.538 38.9337 73.7454 36.8269 76.1179 34.2324C77.3259 32.9477 78.5408 31.5504 79.5167 30.3649C80.0265 29.7848 80.4422 29.2668 80.7821 28.8801C80.952 28.6867 81.0967 28.5371 81.1977 28.3622C81.3541 28.3942 81.3608 28.2815 81.3424 28.2125Z" fill="#788C2B"/>
<path d="M81.9561 32.8858C82.5533 32.3562 82.5583 32.6505 82.2098 33.557C81.8176 34.4383 81.0351 35.7937 79.9766 37.223C78.9182 38.6524 77.6344 40.0682 76.3709 41.146C75.1511 42.2489 74.0206 42.9954 73.3746 43.2054C72.108 43.5818 74.4398 41.6634 76.787 39.1126C77.9951 37.8279 79.1662 36.4053 80.0732 35.2383C81.0491 34.0528 81.7171 33.0977 81.9561 32.8858Z" fill="#788C2B"/>
<path d="M82.7624 37.3672C83.3596 36.8376 83.3831 37.2009 83.0161 38.0384C82.6492 38.8759 81.8666 40.2314 80.815 41.548C79.7381 42.9084 78.4358 44.2553 77.2227 45.2456C75.9845 46.2796 74.8354 46.957 74.2147 47.1234C72.9296 47.4308 75.3421 45.6755 77.6573 43.2811C78.8586 42.1092 80.0482 40.7556 80.9299 39.6323C81.8806 38.4905 82.5672 37.6043 82.7624 37.3672Z" fill="#788C2B"/>
<path d="M84.9344 41.4792C85.6007 40.9311 85.5804 41.2691 85.094 42.2126C84.5891 43.0871 83.5744 44.5416 82.2031 45.907C80.8319 47.2723 79.1041 48.5484 77.5597 49.4057C75.9901 50.3067 74.5603 50.7638 73.8589 50.7669C72.4309 50.8169 75.511 49.622 78.5393 47.4061C80.0972 46.3234 81.5996 45.0338 82.7572 43.8366C83.9148 42.6394 84.6955 41.691 84.9344 41.4792Z" fill="#788C2B"/>
<path d="M85.1343 45.2678C85.7685 44.8761 85.7483 45.2142 85.2754 45.9323C84.8462 46.6756 83.9208 47.7736 82.77 48.8581C81.6191 49.9426 80.1992 50.9884 78.9123 51.7028C77.6253 52.4172 76.4461 52.8441 75.8574 52.854C74.68 52.8738 77.0587 51.682 79.5655 49.8646C80.8407 48.9685 82.1227 47.9597 83.1036 47.0686C84.1534 46.159 84.8954 45.4797 85.1343 45.2678Z" fill="#788C2B"/>
<path d="M85.5779 49.8419C86.2811 49.4317 86.2171 49.7445 85.6937 50.55C85.1266 51.3303 84.0817 52.5342 82.724 53.6742C81.41 54.8394 79.7832 55.9406 78.3331 56.7357C76.8829 57.5308 75.6095 58.0198 74.9266 58.092C73.586 58.1924 76.3163 56.7956 79.1932 54.842C80.6316 53.8653 82.102 52.7321 83.315 51.7418C84.4338 50.8137 85.2953 50.0285 85.5779 49.8419Z" fill="#788C2B"/>
<path d="M86.6266 54.6993C87.4172 54.3396 87.328 54.6961 86.6045 55.4444C85.881 56.1926 84.6175 57.2704 83.0159 58.3278C81.4143 59.3853 79.5688 60.3602 77.9253 60.9854C76.2566 61.6543 74.8335 61.9987 74.1321 62.0018C72.7109 61.9391 75.7842 60.8569 79.1235 59.1121C80.7805 58.2615 82.5385 57.2361 83.9012 56.3905C85.2891 55.5011 86.3255 54.8169 86.6266 54.6993Z" fill="#788C2B"/>
<path d="M87.7168 57.6616C88.5512 57.3272 88.4182 57.6585 87.651 58.3815C86.8838 59.1045 85.4823 60.2192 83.8118 61.2951C82.1412 62.3711 80.2268 63.3645 78.4269 63.9577C76.6707 64.5761 75.1602 64.87 74.4403 64.8041C72.9569 64.6472 76.2858 63.8292 79.7815 62.1163C83.3647 60.454 87.0456 57.9154 87.7168 57.6616Z" fill="#788C2B"/>
<path d="M88.5585 61.3531C89.487 60.9565 89.2851 61.3063 88.4674 62.1167C87.606 62.9019 86.0413 64.0973 84.1639 65.2287C82.3117 66.3164 80.0592 67.2895 78.1213 67.9196C76.1835 68.5498 74.5165 68.8116 73.684 68.739C72.0878 68.5753 75.7801 67.7339 79.7265 66.0481C81.7216 65.2178 83.774 64.1874 85.3688 63.2427C87.0074 62.3231 88.2069 61.5582 88.5585 61.3531Z" fill="#788C2B"/>
<path d="M86.8582 67.7204C87.6859 67.4987 87.5091 67.8047 86.7487 68.4151C85.9882 69.0254 84.5751 69.9584 82.8996 70.74C81.2241 71.5216 79.3047 72.2207 77.631 72.5952C75.9321 73.0135 74.5225 73.1325 73.8279 73.0229C72.4639 72.7601 75.5976 72.1791 79.0595 71.0298C80.7904 70.4551 82.6224 69.7055 84.0405 69.0668C85.4838 68.3844 86.5571 67.8381 86.8582 67.7204Z" fill="#788C2B"/>
<path d="M85.561 72.0992C86.4139 71.8337 86.2372 72.1398 85.4952 72.8191C84.7095 73.4731 83.2711 74.4499 81.5014 75.2937C79.7569 76.0938 77.6811 76.7608 75.92 77.0849C74.1151 77.3837 72.6434 77.4085 71.9303 77.23C70.5293 76.8292 73.8681 76.5998 77.5049 75.5514C79.3233 75.0272 81.1989 74.3029 82.7113 73.602C84.1361 72.8506 85.2347 72.2606 85.561 72.0992Z" fill="#788C2B"/>
<path d="M61.8923 15.6447C60.1222 12.3491 61.1008 13.3805 63.6647 17.0178C64.2867 17.9599 64.9205 19.0837 65.7039 20.3521C66.4183 21.6391 67.1697 23.064 67.958 24.6268C68.3177 25.4174 68.6959 26.277 69.0993 27.0929C69.2792 27.4883 69.4775 27.9526 69.7011 28.3731C69.8557 28.8122 70.054 29.2765 70.2086 29.7155C70.5615 30.6189 70.8892 31.5659 71.2858 32.4945C71.5883 33.4853 71.916 34.4323 72.2184 35.4231C72.5646 36.4392 72.798 37.4484 73.0752 38.4829C73.3524 39.5174 73.6296 40.552 73.8379 41.6049C74.0461 42.6579 74.2543 43.7109 74.5063 44.7892C74.6455 45.8606 74.8285 46.9573 74.9678 48.0288C75.1508 49.1255 75.2026 50.1465 75.3166 51.2617C75.4121 52.3079 75.5514 53.3794 75.5342 54.4188C75.5608 55.4836 75.6126 56.5045 75.6207 57.5003C75.6036 58.5397 75.5679 59.5102 75.576 60.506C75.5674 61.0257 75.5404 61.4765 75.5571 61.9525C75.5048 62.447 75.4777 62.8977 75.4506 63.3485C75.3713 64.2937 75.2735 65.17 75.2193 66.0715C75.1215 66.9478 74.98 67.7989 74.8636 68.6062C74.7473 69.4135 74.6562 70.1771 74.4777 70.8902C74.1644 72.3416 73.8831 73.6367 73.5901 74.7501C73.2533 75.8382 72.9486 76.7699 72.7264 77.4578C72.2129 78.852 72.0682 79.0016 72.1408 78.1691C72.1863 77.7873 72.2706 77.1364 72.4374 76.2416C72.579 75.3906 72.8215 74.3646 72.9649 73.1066C73.152 71.8737 73.4401 70.466 73.5348 68.8883C73.6259 68.1247 73.6984 67.2922 73.771 66.4596C73.8436 65.6271 73.8977 64.7255 73.9518 63.824C74.129 62.0025 74.0624 60.0984 74.1152 58.0885C74.1071 57.0928 74.0552 56.0718 74.0034 55.0508C74.012 54.5311 73.9516 54.0298 73.9602 53.5101C73.8998 53.0088 73.8647 52.4638 73.8043 51.9626C73.1527 43.5996 70.9184 34.8475 68.2428 28.1725C67.505 26.5222 66.9235 24.904 66.2596 23.5296C65.5956 22.1552 65.0191 20.8313 64.4039 19.7765C63.8138 18.6779 63.3482 17.7679 62.8943 17.0394C62.3395 16.4859 62.0537 15.9711 61.8923 15.6447Z" fill="#8CAA4E"/>
<path d="M28.9116 5.17336C28.6156 4.23882 27.9971 5.67031 27.735 7.62442C27.4729 9.57852 27.708 11.9398 28.2804 12.5931C28.8026 13.2514 28.7882 11.5785 28.8494 9.64442C28.8603 7.71533 29.0471 5.51503 28.9116 5.17336Z" fill="#56692D"/>
<path d="M26.2963 6.85573C26.1459 6.36334 25.9549 6.48383 25.7035 7.01624C25.5073 7.59388 25.3511 8.57342 25.4109 9.68369C25.4707 10.794 25.842 11.9747 26.2887 12.8942C26.7354 13.8137 27.3581 14.4621 27.78 14.623C28.6238 14.9449 27.6147 13.4725 27.0127 11.503C26.7117 10.5182 26.5062 9.47317 26.4162 8.56886C26.3361 7.76504 26.3164 7.05669 26.2963 6.85573Z" fill="#56692D"/>
<path d="M24.8499 11.8173C24.6089 11.4354 24.423 11.6062 24.3173 12.0733C24.2116 12.5405 24.2414 13.3493 24.4771 14.1884C24.6626 15.0324 25.1093 15.952 25.5813 16.6153C26.0532 17.2786 26.6056 17.731 26.9723 17.8467C27.7459 17.9727 26.8723 16.8419 26.2198 15.3848C25.8936 14.6562 25.5574 13.8271 25.3416 13.189C25.0706 12.5057 24.9151 11.9631 24.8499 11.8173Z" fill="#56692D"/>
<path d="M24.3045 15.4748C24.0635 15.0929 23.8726 15.2134 23.7719 15.7308C23.6662 16.1979 23.696 17.0068 23.9317 17.8458C24.1675 18.6849 24.5639 19.6094 25.0811 20.2175C25.6033 20.8759 26.1507 21.278 26.5124 21.3435C27.281 21.4192 26.3671 20.3939 25.6192 18.997C25.2427 18.2734 24.9115 17.4946 24.6957 16.8565C24.5202 16.1129 24.42 15.6155 24.3045 15.4748Z" fill="#56692D"/>
<path d="M34.5551 9.3801C34.6106 8.91794 34.3594 8.94295 33.9825 9.23417C33.6056 9.52538 33.0025 10.0928 32.3441 10.615C31.6908 11.1874 30.8868 11.7748 30.2284 12.297C29.5701 12.8192 28.952 13.2359 28.7308 13.5623C28.5096 13.8887 28.7708 13.9642 29.3687 13.8539C29.9616 13.6934 30.7856 13.307 31.5897 12.7196C32.3987 12.1824 33.1878 11.4442 33.6804 10.7864C34.2232 10.1235 34.5249 9.58606 34.5551 9.3801Z" fill="#56692D"/>
<path d="M34.5691 12.1181C34.881 11.1738 33.6498 12.0574 32.1171 12.9711C31.3533 13.453 30.489 13.945 29.7202 14.3767C28.9514 14.8084 28.3283 15.1748 28.0569 15.5063C27.514 16.1692 29.2624 15.8936 31.0512 15.0052C31.9205 14.5635 32.825 13.9661 33.4281 13.3987C34.0815 12.8262 34.4886 12.3291 34.5691 12.1181Z" fill="#56692D"/>
<path d="M34.4551 14.4642C34.8173 13.5149 33.5308 14.3533 31.9027 15.3272C31.0887 15.8141 30.2244 16.306 29.4606 16.788C28.6967 17.2699 28.0736 17.6364 27.8072 18.0181C27.2644 18.681 29.0077 18.3552 30.8368 17.3613C31.7513 16.8643 32.6056 16.2719 33.3092 15.6945C33.9625 15.1221 34.3697 14.6249 34.4551 14.4642Z" fill="#56692D"/>
<path d="M32.8516 17.7192C33.1735 16.8754 31.9625 17.4526 30.5706 18.2507C29.1284 19.0539 27.3999 20.0378 27.0127 20.7359C26.6256 21.434 28.1078 21.0328 29.6454 20.1694C31.188 19.3562 32.7359 18.0859 32.8516 17.7192Z" fill="#56692D"/>
<path d="M32.0468 20.4855C32.2732 19.7019 31.213 20.2641 29.9718 21.0473C28.7356 21.8807 27.3134 22.8848 27.077 23.5679C26.7904 24.256 28.1118 23.7693 29.3933 22.8807C30.7349 22.0875 31.9763 20.797 32.0468 20.4855Z" fill="#56692D"/>
<path d="M32.0423 23.4299C32.1682 22.6563 31.2134 23.2588 30.1732 24.0219C29.138 24.8353 27.9118 25.7692 27.6754 26.4523C27.439 27.1354 28.6147 26.7139 29.7956 25.8353C30.9816 25.0069 31.9718 23.7414 32.0423 23.4299Z" fill="#56692D"/>
<path d="M31.8207 26.2436C31.8411 25.4298 31.0018 26.1729 29.9716 27.0366C29.454 27.4433 28.8961 27.9554 28.3785 28.3621C27.8659 28.8191 27.494 29.1605 27.328 29.5322C27.0364 30.1701 28.3226 29.8391 29.5488 28.9052C30.1619 28.4383 30.7147 27.8758 31.1219 27.3787C31.5742 26.8263 31.8357 26.3944 31.8207 26.2436Z" fill="#56692D"/>
<path d="M15.9469 16.7122C15.4698 16.506 15.4445 16.7622 15.7005 17.2948C16.0067 17.8224 16.6394 18.5712 17.468 19.2498C18.2966 19.9284 19.3714 20.5317 20.371 20.8888C21.3203 21.2509 22.1894 21.3166 22.6315 21.1711C23.4656 20.8851 21.7427 20.3971 19.9697 19.4066C19.0607 18.939 18.1366 18.3207 17.4234 17.7829C16.6601 17.25 16.1579 16.7926 15.9469 16.7122Z" fill="#56692D"/>
<path d="M15.6005 20.3492C14.5155 20.1528 15.7608 21.4494 17.7999 22.5656C18.7692 23.1287 19.9295 23.5712 20.9743 23.8731C22.0191 24.175 22.8882 24.2407 23.3353 24.1454C24.2246 23.9047 22.3862 23.2759 20.3219 22.416C19.3173 22.0086 18.2023 21.5108 17.3484 21.0884C16.4996 20.7163 15.8064 20.3794 15.6005 20.3492Z" fill="#56692D"/>
<path d="M16.5901 23.6495C15.4449 23.3576 16.7604 24.8503 18.9603 26.0519C20.0351 26.6552 21.3108 27.2385 22.4059 27.5354C23.5059 27.8825 24.4805 27.9884 24.9779 27.8882C25.9174 27.6424 23.9283 27.0286 21.7032 26.0832C20.5932 25.6356 19.4179 25.0423 18.4585 24.5797C17.5495 24.1121 16.8011 23.73 16.5901 23.6495Z" fill="#56692D"/>
<path d="M18.2002 28.5141C17.6276 28.3682 17.6526 28.6194 18.1095 29.132C18.5664 29.6446 19.5458 30.3082 20.7161 30.8513C21.8864 31.3943 23.2426 31.7667 24.4231 31.9028C25.6036 32.039 26.6034 31.8887 27.0405 31.693C27.9048 31.201 25.7698 31.1599 23.429 30.5812C22.2335 30.2943 21.0229 29.8567 20.0636 29.3941C19.1093 28.9817 18.4112 28.5946 18.2002 28.5141Z" fill="#56692D"/>
<path d="M21.02 32.4432C20.4574 32.3978 20.5326 32.644 20.9795 33.0561C21.4265 33.4683 22.3406 33.9861 23.4406 34.3332C24.5406 34.6803 25.7764 34.8617 26.8314 34.7567C27.8914 34.7019 28.7255 34.4159 29.1024 34.1247C29.7507 33.502 27.9571 33.8328 25.8523 33.5857C24.8275 33.4848 23.6872 33.2432 22.7982 32.9765C21.9091 32.7099 21.226 32.4735 21.02 32.4432Z" fill="#56692D"/>
<path d="M24.8903 36.217C24.212 36.5382 25.1813 37.1013 26.5076 37.1722C27.1707 37.2077 27.874 37.1377 28.5171 36.9722C29.11 36.8117 29.5874 36.5104 29.7633 36.2392C30.06 35.6516 29.01 35.8069 27.8042 35.9269C26.5482 36.052 25.1315 36.0915 24.8903 36.217Z" fill="#56692D"/>
<path d="M33.3284 28.1734C32.9319 27.2489 32.5746 28.7558 32.0413 30.534C31.7747 31.4231 31.4678 32.4176 31.1961 33.2565C30.9245 34.0953 30.6931 34.8287 30.7381 35.2808C30.7729 36.1399 31.8988 34.7086 32.6231 32.81C32.9852 31.8606 33.2318 30.7706 33.3528 29.9468C33.4084 28.9772 33.3937 28.3191 33.3284 28.1734Z" fill="#56692D"/>
<path d="M31.1 28.7991C30.6833 28.181 30.3764 29.1756 30.0845 30.3208C29.7926 31.4661 29.3248 32.8826 29.4903 33.5257C29.6558 34.1688 30.4299 33.28 30.8525 31.9187C31.0939 31.2858 31.1696 30.5172 31.215 29.9546C31.2555 29.3417 31.2105 28.8896 31.1 28.7991Z" fill="#56692D"/>
<path d="M41.0975 58.8573C41.7254 59.0485 41.133 58.1942 40.2291 57.2695C39.3252 56.3447 38.0144 55.4097 37.4468 55.314C36.8842 55.2686 37.7228 56.0476 38.7221 56.9121C39.6762 57.8319 40.8363 58.7819 41.0975 58.8573Z" fill="#56692D"/>
<path d="M39.0601 54.1383C38.2313 53.9671 39.3311 54.8216 40.5664 56.0178C41.184 56.6159 41.8619 57.3095 42.4796 57.9076C43.047 58.5107 43.5542 59.0183 43.8756 59.1892C44.5185 59.5311 43.7204 58.1392 42.465 56.7421C41.8374 56.0435 41.064 55.4102 40.4111 54.9678C39.7532 54.4752 39.2158 54.1735 39.0601 54.1383Z" fill="#56692D"/>
<path d="M42.2576 54.6321C41.4287 54.4609 42.4783 55.3204 43.6031 56.4261C44.1656 56.979 44.7882 57.6273 45.2551 58.2404C45.7673 58.7982 46.174 59.3159 46.4452 59.4918C46.9926 59.894 46.4407 58.4268 45.2958 57.1201C44.7234 56.4668 44.0505 55.8235 43.4479 55.3761C42.9457 54.9187 42.4133 54.6673 42.2576 54.6321Z" fill="#56692D"/>
<path d="M34.5002 54.7433C33.832 54.6576 34.6154 55.3914 35.5595 56.2107C36.5539 57.0249 37.7239 58.0754 38.2463 58.2263C38.819 58.3723 38.1161 57.4275 37.1117 56.5128C36.1024 55.5478 34.7564 54.7685 34.5002 54.7433Z" fill="#56692D"/>
<path d="M31.5256 54.8887C30.8122 54.8582 31.6911 55.5318 32.7357 56.3411C33.8305 57.1453 35.096 58.1356 35.6637 58.2313C36.2363 58.3772 35.4782 57.3872 34.3281 56.5377C33.2233 55.6329 31.7818 54.9139 31.5256 54.8887Z" fill="#56692D"/>
<path d="M30.9663 59.9181C30.3984 60.3298 31.5187 60.3704 32.8501 59.9842C34.1866 59.6482 35.6288 58.845 35.9304 58.3076C36.1818 57.7752 35.1668 58.2822 33.8956 58.7639C32.6796 59.2909 31.2025 59.7423 30.9663 59.9181Z" fill="#56692D"/>
<path d="M33.3945 61.957C32.7362 62.4792 34.0876 62.2939 35.7005 61.6767C37.2632 61.0645 38.9165 59.8344 39.2081 59.1965C39.5048 58.6089 38.3138 59.3871 36.8717 60.1902C35.3793 60.9984 33.6307 61.7813 33.3945 61.957Z" fill="#56692D"/>
<path d="M36.9682 63.2754C36.4756 63.9332 37.7468 63.4515 39.1287 62.5529C40.5107 61.6542 41.943 60.2432 42.1844 59.6103C42.3756 58.9824 41.3001 59.9013 40.0337 60.9407C38.6618 61.9398 37.1492 63.0544 36.9682 63.2754Z" fill="#56692D"/>
<path d="M40.3492 64.0555C39.8566 64.7134 41.1278 64.2316 42.4495 63.2375C43.1078 62.7153 43.7562 62.0927 44.2538 61.485C44.7514 60.8774 45.048 60.2897 45.1185 59.9783C45.2042 59.3102 44.2995 60.415 43.1485 61.5951C42.5957 62.1575 41.9423 62.7299 41.3795 63.1918C40.8619 63.5985 40.4397 63.945 40.3492 64.0555Z" fill="#56692D"/>
<path d="M44.493 64.3039C44.2064 64.992 45.2566 64.3293 46.2569 63.1642C47.3123 62.0444 48.2725 60.4775 48.2628 59.8696C48.3032 59.2567 47.4939 60.3013 46.5992 61.5066C45.7045 62.7119 44.5685 64.0427 44.493 64.3039Z" fill="#56692D"/>
<path d="M36.0082 50.9416C35.1441 50.9261 36.4349 51.6602 38.2533 52.088C39.1374 52.3044 40.1672 52.4555 41.0262 52.4207C41.8903 52.4362 42.5887 52.3159 42.9303 52.1804C43.5584 51.8642 41.981 51.8183 40.1826 51.5915C38.3942 51.4651 36.3649 50.9568 36.0082 50.9416Z" fill="#56692D"/>
<path d="M33.3165 47.4048C32.4927 47.2839 33.5472 48.1936 35.2349 48.8374C36.0285 49.1643 36.9628 49.3757 37.7817 49.4464C38.6005 49.5171 39.2586 49.5023 39.6003 49.3668C40.2334 49.1008 38.7464 48.9444 37.0838 48.5518C36.2549 48.3807 35.3659 48.114 34.6827 47.8776C33.9996 47.6412 33.4722 47.44 33.3165 47.4048Z" fill="#56692D"/>
<path d="M31.0805 44.279C30.1965 44.0626 31.3163 45.1181 33.1295 46.003C34.0335 46.4204 35.0331 46.7775 35.9674 46.9889C36.8515 47.2053 37.6653 47.2258 38.007 47.0903C38.7456 46.8645 37.0929 46.5724 35.2595 45.9939C34.3654 45.677 33.3659 45.3199 32.6225 44.988C31.8239 44.6109 31.2413 44.3645 31.0805 44.279Z" fill="#56692D"/>
<path d="M29.1826 41.017C28.3036 40.8508 29.4636 41.8008 31.1763 42.6958C32.889 43.5908 35.0841 44.2348 35.8327 44.1095C36.5813 43.9842 35.0041 43.4309 33.2611 42.7419C31.468 42.0579 29.4941 41.0875 29.1826 41.017Z" fill="#56692D"/>
<path d="M36.2229 38.4376C35.761 37.8747 35.876 39.0302 36.016 40.4369C36.2113 41.8888 36.4316 43.592 36.7881 44.1146C37.1445 44.6372 37.2155 43.311 37.0152 41.8088C36.8651 40.3016 36.3986 38.6737 36.2229 38.4376Z" fill="#56692D"/>
<path d="M38.329 41.0723C38.1033 40.3337 37.7662 41.5342 37.6198 43.1216C37.4734 44.7091 37.6082 46.5729 37.9697 47.1458C38.3312 47.7186 38.3418 46.2969 38.3877 44.7195C38.3834 43.1471 38.4043 41.3185 38.329 41.0723Z" fill="#56692D"/>
<path d="M40.3829 41.9809C40.1522 41.1921 39.8301 42.5434 39.6434 44.2363C39.4066 45.9342 39.26 48.029 39.4757 48.6671C39.6965 49.3554 40.0538 47.8485 40.2807 46.0501C40.412 44.312 40.4682 42.3276 40.3829 41.9809Z" fill="#56692D"/>
<path d="M41.9717 43.1922C41.6305 42.3129 41.5293 43.8451 41.3075 45.6937C41.1359 47.5373 40.7531 49.8078 40.8231 50.5112C40.9484 51.2598 41.5469 49.6273 41.8592 47.6682C42.1765 45.7594 42.1072 43.5338 41.9717 43.1922Z" fill="#56692D"/>
<path d="M43.878 45.9964C43.5672 44.4037 42.2029 51.0846 42.5891 52.4161C43.0256 53.7425 43.9933 46.6445 43.878 45.9964Z" fill="#56692D"/>
<path d="M45.7397 47.8914C45.5089 47.1026 45.1818 48.4036 44.8897 50.0563C44.5976 51.709 44.3908 53.7083 44.5613 54.4016C44.777 55.0397 45.1394 53.583 45.4265 51.8801C45.7135 50.1772 45.8199 48.1879 45.7397 47.8914Z" fill="#56692D"/>
<path d="M47.2019 48.7608C46.8607 47.8815 46.7596 49.4137 46.6432 51.3026C46.5771 53.1864 46.4455 55.432 46.6712 56.1706C46.897 56.9092 47.2343 55.2012 47.3457 53.2621C47.457 51.323 47.3374 49.1025 47.2019 48.7608Z" fill="#56692D"/>
<path d="M49.3075 50.5809C49.0115 49.6463 48.8199 51.289 48.7235 53.3788C48.6272 55.4686 48.5206 57.9654 48.8016 58.7492C49.0323 59.538 49.3546 57.6794 49.446 55.5393C49.5323 53.349 49.443 50.9225 49.3075 50.5809Z" fill="#56692D"/>
<path d="M52.5517 55.0302C52.2505 54.5528 52.175 54.814 52.2852 55.4119C52.4005 56.06 52.606 57.105 53.0225 58.2305C53.439 59.356 54.0162 60.567 54.6638 61.4665C55.3165 62.4163 56.0849 62.9993 56.4566 63.1653C57.3004 63.4872 55.7486 62.1703 54.6745 60.0448C53.6104 58.0198 52.7926 55.4121 52.5517 55.0302Z" fill="#56692D"/>
<path d="M52.9142 51.1345C52.382 50.3757 52.537 51.9331 53.33 53.7822C53.7264 54.7067 54.2736 55.6163 54.8058 56.3751C55.338 57.1339 55.9004 57.6867 56.2218 57.8577C56.915 58.1946 55.8656 56.8277 54.942 55.1945C54.455 54.3805 54.0083 53.461 53.6268 52.6872C53.2906 51.8581 53.0296 51.2752 52.9142 51.1345Z" fill="#56692D"/>
<path d="M53.5421 46.2521C53.0702 45.5888 53.155 46.9502 53.6667 48.5229C54.1784 50.0955 55.1623 51.8241 55.7047 52.176C56.2471 52.5279 55.6147 51.2717 55.0075 49.7593C54.35 48.2519 53.7178 46.4883 53.5421 46.2521Z" fill="#56692D"/>
<path d="M55.223 41.2145C54.947 40.4809 54.6651 41.7267 54.8252 43.3344C54.935 44.947 55.6225 46.7559 56.1699 47.158C56.667 47.5651 56.2356 46.2889 55.8796 44.7515C55.5285 43.2643 55.3535 41.506 55.223 41.2145Z" fill="#56692D"/>
<path d="M57.6413 35.951C57.5463 34.9965 56.9378 36.5285 56.7812 38.5228C56.6802 39.5476 56.6898 40.6629 56.8301 41.5622C56.9753 42.5117 57.1509 43.2553 57.3868 43.587C57.8035 44.2051 57.5832 42.5019 57.5389 40.5276C57.4891 39.5178 57.5398 38.498 57.6054 37.629C57.6209 36.7649 57.6563 36.1018 57.6413 35.951Z" fill="#56692D"/>
<path d="M61.9085 37.5037C61.8787 36.6948 61.3357 37.8651 60.4509 39.1709C60.0085 39.8238 59.5209 40.5319 59.0736 41.1346C58.6262 41.7372 58.2693 42.2294 58.1486 42.5458C57.9072 43.1787 59.1434 42.3453 60.1738 40.9743C60.7167 40.3114 61.144 39.5078 61.4357 38.8699C61.7273 38.232 61.9285 37.7046 61.9085 37.5037Z" fill="#56692D"/>
<path d="M62.5503 40.7907C62.9175 39.8916 61.7615 41.0214 60.2789 42.4375C58.7963 43.8535 56.9218 45.41 56.4844 46.1132C56.047 46.8163 57.6751 45.8424 59.2632 44.4666C60.9468 43.0305 62.4346 41.1574 62.5503 40.7907Z" fill="#56692D"/>
<path d="M61.9634 44.5534C62.2803 43.6593 61.1746 44.7841 59.7875 46.1399C58.4003 47.4957 56.6815 49.0875 56.3446 49.7806C55.9575 50.4787 57.4349 49.5198 58.9175 48.1038C60.4051 46.738 61.7975 44.925 61.9634 44.5534Z" fill="#56692D"/>
<path d="M61.3857 47.6014C61.6121 46.8178 60.6924 47.7719 59.5364 48.9018C58.4357 50.0768 56.9934 51.3874 56.6967 51.975C56.4001 52.5627 57.6965 51.8248 58.8977 50.6397C60.1993 49.4446 61.3153 47.9129 61.3857 47.6014Z" fill="#56692D"/>
<path d="M61.2347 50.611C61.9839 48.9636 56.4706 54.231 56.0028 55.6475C55.4847 57.069 60.943 51.2489 61.2347 50.611Z" fill="#56692D"/>
<path d="M61.8408 53.6475C62.1577 52.7534 61.1022 53.8732 59.7603 55.1738C58.4234 56.5246 56.7448 58.0109 56.4029 58.6537C56.0108 59.3016 57.4982 58.4432 58.9356 57.0824C60.4332 55.8171 61.7753 54.0092 61.8408 53.6475Z" fill="#56692D"/>
<path d="M61.04 57.327C61.2714 56.5936 60.3366 57.397 59.2762 58.4666C58.2157 59.5362 56.929 60.882 56.7329 61.4596C56.5417 62.0875 57.6272 61.2691 58.7831 60.1393C59.8888 59.0144 60.9645 57.5882 61.04 57.327Z" fill="#56692D"/>
<path d="M62.2523 59.7957C62.529 59.0071 61.5037 59.9209 60.3528 61.101C59.2019 62.2811 57.7745 63.7423 57.5331 64.3752C57.2917 65.0081 58.5229 64.1245 59.719 62.8892C60.9655 61.6488 62.1316 60.1121 62.2523 59.7957Z" fill="#56692D"/>
<path d="M48.3401 63.26C47.3506 63.0033 48.6814 64.1393 50.6955 65.0042C51.705 65.4618 52.8051 65.8089 53.8399 66.0103C54.8244 66.2167 55.6935 66.2824 56.0904 66.1922C56.8842 66.0117 55.0708 65.6341 53.0265 64.9751C51.9817 64.6732 50.9269 64.2709 50.078 63.8987C49.184 63.5818 48.4958 63.2952 48.3401 63.26Z" fill="#56692D"/>
<path d="M51.866 67.6268C51.4089 67.6215 51.5244 67.7622 51.9111 68.0789C52.343 68.3403 53.0913 68.7225 54.0257 68.9339C54.9147 69.2005 55.9395 69.3014 56.8538 69.3119C57.7129 69.2771 58.4615 69.1518 58.7479 68.9711C59.371 68.6046 57.7584 68.7144 55.96 68.4876C55.0357 68.3767 54.1064 68.2155 53.3278 68.0393C52.6446 67.8029 52.0168 67.6117 51.866 67.6268Z" fill="#56692D"/>
<path d="M32.3683 56.8318C31.233 56.6404 31.5695 56.9621 32.7448 57.5554C33.9201 58.1487 36.0247 58.9032 38.4207 59.5272C40.8167 60.1512 43.4942 60.5442 45.8402 60.6658C48.136 60.7923 50.1003 60.6475 50.9344 60.3615C52.6577 59.8348 48.3574 59.9585 43.4696 59.2782C41.0534 58.9606 38.4664 58.4571 36.3818 57.9036C34.3977 57.3401 32.8305 56.8873 32.3683 56.8318Z" fill="#788C2B"/>
<path d="M21.4391 16.3669C21.0629 15.1359 20.8321 14.3471 20.6866 13.9049C20.5411 13.4628 20.4909 13.4678 20.4707 13.7742C20.4804 14.3821 20.6353 16.4469 21.5332 19.351C22.386 22.3103 23.9316 26.1139 26.3211 30.2394C28.6603 34.3699 31.6877 38.7871 35.0818 43.32C38.4758 47.8528 42.2818 52.4461 46.2587 56.718C50.2356 60.9899 54.3884 64.9906 58.3908 68.4989C66.3905 75.4652 73.728 80.3665 77.2236 82.3524C78.9463 83.3479 79.2528 83.3681 78.3689 82.6443C77.5353 81.9155 75.5164 80.4929 72.7744 78.432C70.0825 76.3661 66.5671 73.6718 62.846 70.44C59.0746 67.2131 54.997 63.4586 50.9898 59.3927C46.9827 55.3268 43.041 50.8992 39.456 46.4868C35.871 42.0744 32.6377 37.627 29.8463 33.5415C27.1052 29.4511 25.0069 25.7025 23.687 22.6374C22.3721 19.6226 21.7401 17.3516 21.4391 16.3669Z" fill="#788C2B"/>
<path d="M57.2136 66.8401C57.8058 68.2018 57.8462 67.5889 57.5254 65.8958C57.4804 65.4436 57.3802 64.9463 57.2749 64.3986C57.1697 63.851 57.1046 63.1979 56.9894 62.5498C56.8041 61.1983 56.654 59.6912 56.5392 58.0283C56.3698 54.7979 56.4668 51.1859 56.8751 48.1518C57.2331 45.1227 57.7918 42.5809 57.928 41.4004C58.0641 40.2199 57.6318 40.9733 56.9628 42.9171C56.344 44.856 55.6393 47.9704 55.3716 51.3964C55.0988 54.7723 55.3132 58.4547 55.7993 61.2984C56.3406 64.1872 57.0078 66.3025 57.2136 66.8401Z" fill="#788C2B"/>
<path d="M30.7119 9.50911C31.1395 8.19812 30.7174 8.54457 29.8426 9.95083C29.6264 10.3275 29.4153 10.7544 29.1538 11.1864C28.8974 11.6685 28.6962 12.1959 28.3996 12.7836C27.962 13.9941 27.4389 15.3653 27.1318 16.8673C26.4121 19.8309 26.1946 23.252 26.53 26.1106C26.8151 28.9743 27.5475 31.2353 28.0495 32.2C28.5514 33.1648 28.4714 32.361 28.1406 30.5674C27.8601 28.7687 27.4343 26.0206 27.5361 22.9662C27.5927 19.9671 28.1366 16.7672 28.9013 14.2557C29.671 11.7944 30.5057 9.98628 30.7119 9.50911Z" fill="#788C2B"/>
<path d="M47.9796 41.1247L45.3038 39.9635L47.4242 38.9537C47.7272 38.8023 47.8281 38.4488 47.6767 38.1459C47.5252 37.843 47.1718 37.742 46.8689 37.8935L43.8396 39.3576L41.5677 38.3479L43.6882 37.3381C43.9911 37.1867 44.0921 36.8332 43.9406 36.5303C43.7891 36.2274 43.4357 36.1264 43.1328 36.2779L40.1035 37.742L37.8316 36.7323L39.9016 35.2176L43.1833 35.975C43.2338 35.975 43.3347 35.975 43.3852 35.975C43.6377 35.9245 43.8396 35.773 43.8901 35.5206C43.9406 35.2176 43.7891 34.8642 43.4357 34.8137L41.1133 34.2584L43.1328 32.7942L46.4145 33.5515C46.465 33.5515 46.566 33.5515 46.6164 33.5515C46.8689 33.5011 47.0708 33.3496 47.1213 33.0972C47.1718 32.7942 47.0203 32.4408 46.6669 32.3903L44.3445 31.835L46.6669 30.1184C46.9194 29.9164 46.9699 29.563 46.7679 29.3106C46.566 29.0582 46.2125 29.0077 45.9601 29.2096L43.6377 30.9262L43.7891 28.5533C43.7891 28.2504 43.5872 27.9474 43.2338 27.8969C42.9309 27.8969 42.6279 28.0989 42.5774 28.4523L42.325 31.835L40.3055 33.2991L40.457 30.9262C40.457 30.6233 40.255 30.3203 39.9016 30.2699C39.5987 30.2699 39.2957 30.4718 39.2453 30.8252L38.9928 34.2079L36.9733 35.672L36.6704 32.9457L38.9928 30.4718C39.1948 30.2194 39.1948 29.866 38.9423 29.6135C38.6899 29.4116 38.3365 29.4116 38.084 29.664L36.4684 31.3806L36.216 28.9067L38.5384 26.4328C38.7404 26.1804 38.7404 25.827 38.4879 25.5745C38.2355 25.3726 37.8821 25.3726 37.6297 25.625L36.014 27.3416L35.7111 24.7667C35.6606 24.4638 35.3577 24.2113 35.0548 24.2618C34.7519 24.3123 34.4994 24.6152 34.5499 24.9182L34.8528 27.493L32.8838 26.1804C32.6314 25.9784 32.2275 26.0794 32.076 26.3318C31.8741 26.5843 31.975 26.9882 32.2275 27.1396L35.0043 29.0582L35.2567 31.532L33.2877 30.2194C33.0353 30.0174 32.6314 30.1184 32.4799 30.3708C32.278 30.6233 32.3789 31.0272 32.6314 31.1786L35.4082 33.0972L35.7111 35.874L33.1867 34.7632L32.177 31.532C32.076 31.2291 31.7731 31.0272 31.4197 31.1282C31.1168 31.2291 30.9148 31.5321 31.0158 31.8855L31.7226 34.1574L29.4507 33.1477L28.4409 29.9165C28.3399 29.6135 28.037 29.4116 27.6836 29.5125C27.3807 29.6135 27.1787 29.9164 27.2797 30.2699L27.9865 32.5418L25.6136 31.4816C25.3107 31.3301 24.9573 31.4816 24.8563 31.7845C24.7048 32.0874 24.8563 32.4408 25.1592 32.5418L27.5321 33.602L25.4117 34.6118C25.1087 34.7633 25.0078 35.1167 25.1592 35.4196C25.2602 35.672 25.5126 35.773 25.7651 35.773C25.8156 35.773 25.9165 35.7225 25.967 35.7225L28.9963 34.2584L31.2682 35.2681L29.1477 36.2779C28.8448 36.4293 28.7438 36.7828 28.8953 37.0857C28.9963 37.3381 29.2487 37.4391 29.5012 37.4391C29.5516 37.4391 29.6526 37.3886 29.7031 37.3886L32.7324 35.9245L35.2062 37.0352L33.0353 38.6003L29.7536 37.843C29.4507 37.7925 29.0972 37.944 29.0468 38.2974C28.9963 38.6003 29.1477 38.9537 29.5012 39.0042L31.8236 39.5596L29.8041 41.0237L26.5224 40.2664C26.2195 40.2159 25.866 40.3674 25.8156 40.7208C25.7651 41.0237 25.9165 41.3771 26.2699 41.4276L28.5924 41.983L26.5224 43.4976C26.2699 43.6996 26.2195 44.053 26.4214 44.3054C26.5729 44.5074 26.7748 44.5579 26.9768 44.5579C27.0777 44.5579 27.1787 44.5074 27.2797 44.4569L29.3497 42.9422L29.1982 45.3152C29.1982 45.6181 29.4002 45.921 29.7536 45.9715C29.8041 45.9715 29.8041 45.9715 29.8546 45.9715C30.1575 45.921 30.3594 45.7191 30.3594 45.4161L30.6119 42.0335L32.6314 40.5693L32.4799 42.9422C32.4799 43.2452 32.6819 43.5481 33.0353 43.5986C33.0858 43.5986 33.0858 43.5986 33.1363 43.5986C33.4392 43.5481 33.6411 43.3461 33.6411 43.0432L33.8936 39.6605L36.0645 38.0449L36.3675 40.5188L34.045 42.9927C33.8431 43.2452 33.8431 43.5986 34.0955 43.851C34.247 43.952 34.3984 44.0025 34.5499 44.0025C34.7014 44.0025 34.8023 43.9015 34.9033 43.8005L36.5189 42.0839L36.7714 44.5579L34.4489 47.0317C34.247 47.2842 34.247 47.6376 34.4994 47.89C34.6509 47.991 34.8023 48.0415 34.9538 48.0415C35.1053 48.0415 35.2062 47.9405 35.3072 47.8395L36.9228 46.123L37.2258 49.0008C37.2762 49.3037 37.5792 49.5561 37.8821 49.5056C38.185 49.4551 38.4375 49.1522 38.387 48.8493L38.084 45.9715L40.0531 47.2842C40.154 47.3852 40.3055 47.3851 40.457 47.3851C40.6084 47.3851 40.7599 47.2842 40.8609 47.1327C41.0628 46.8803 40.9618 46.4764 40.7094 46.3249L37.9326 44.4064L37.6801 41.9325L39.6492 43.2452C39.7501 43.3461 39.9016 43.3461 40.0531 43.3461C40.2045 43.3461 40.356 43.2452 40.457 43.0937C40.6589 42.8413 40.5579 42.4374 40.3055 42.2859L37.5287 40.3674L37.2762 37.944L39.4977 38.9032L40.5074 42.1344C40.6084 42.4374 40.8609 42.5888 41.1638 42.5383C41.2143 42.5383 41.2143 42.5383 41.2648 42.5383C41.5677 42.4374 41.7696 42.1344 41.6687 41.781L40.9618 39.5091L43.2338 40.5188L44.2435 43.75C44.3445 44.053 44.5969 44.2044 44.8999 44.1539C44.9504 44.1539 44.9504 44.1539 45.0008 44.1539C45.3038 44.053 45.5057 43.75 45.4047 43.3966L44.6979 41.1247L47.3738 42.2859C47.4747 42.3364 47.5757 42.3364 47.6767 42.3364C47.8786 42.3364 48.0806 42.1849 48.1311 41.983C48.434 41.6296 48.2825 41.2761 47.9796 41.1247Z" fill="white"/>
</svg>
