<svg width="219" height="171" viewBox="0 0 219 171" fill="none" xmlns="http://www.w3.org/2000/svg">
<path d="M57.6578 20.1549C59.9593 19.1785 61.8422 23.5024 64.0042 27.8961C65.0503 30.1278 66.1661 32.3595 67.003 34.0332C67.9096 35.707 68.4676 36.8926 68.4676 36.8926C68.4676 36.8926 67.3517 36.1952 65.7477 35.0793C64.1437 33.8937 62.1212 32.22 60.3777 30.2672C58.6342 28.3145 57.1696 26.0828 56.542 24.1999C55.9841 22.3169 56.1933 20.7826 57.6578 20.1549Z" fill="#2A4D2D"/>
<path d="M74.1198 19.3887C75.1659 20.0861 75.0264 21.3414 74.4685 22.9455C73.8408 24.4798 72.7947 26.4325 71.7486 28.455C70.7025 30.4774 69.7959 32.5696 69.0985 34.2434C68.7498 35.0803 68.5406 35.7777 68.3314 36.2658C68.1222 36.754 68.0524 37.033 68.0524 37.033C68.0524 37.033 67.9827 36.754 67.8432 36.1961C67.7037 35.6382 67.5642 34.8711 67.4945 33.9644C67.2853 32.0814 67.2155 29.5708 67.634 27.0602C68.0524 24.5495 68.959 22.1086 70.1446 20.6441C71.3999 19.1098 72.7947 18.5519 74.1198 19.3887Z" fill="#2A4D2D"/>
<path d="M55.285 33.3347C56.4009 32.7768 57.447 33.4045 58.4931 34.6598C59.5392 35.9151 60.7248 37.7284 61.9103 39.5416C63.0959 41.3549 64.421 43.2378 65.4671 44.5629C66.5132 45.9577 67.2804 46.8643 67.2804 46.8643C67.2804 46.8643 67.0014 46.7946 66.5132 46.5854C66.025 46.4459 65.3276 46.1669 64.4907 45.8182C62.817 45.1208 60.655 43.9353 58.772 42.401C56.8891 40.8667 55.2153 38.9837 54.5179 37.2402C53.7508 35.5664 53.8902 34.1019 55.285 33.3347Z" fill="#2A4D2D"/>
<path d="M80.5979 30.8946C82.4809 32.4986 79.2031 36.5435 75.6464 40.5885C74.7398 41.5648 73.8332 42.6109 72.9963 43.5175C72.1594 44.4242 71.462 45.261 71.0435 46.0282C70.5553 46.7953 70.2764 47.5625 70.2067 48.0506C70.1369 48.3296 70.1369 48.5388 70.1369 48.6783C70.1369 48.8178 70.1369 48.8875 70.1369 48.8875C70.1369 48.8875 70.0672 48.8178 69.9974 48.6783C69.9277 48.5388 69.858 48.3296 69.7185 48.0506C69.5093 47.4927 69.3698 46.5861 69.5093 45.4703C69.6488 44.3544 69.9974 43.0991 70.4856 41.8438C70.9738 40.5884 71.5317 39.3331 72.1594 38.0778C74.6003 33.196 78.157 28.8721 80.5979 30.8946Z" fill="#2A4D2D"/>
<path d="M55.8448 45.4705C57.5185 43.6572 61.0753 46.7956 64.4228 50.3523C67.7703 53.9091 70.9087 57.7448 70.9087 57.7448C70.9087 57.7448 66.0269 56.1407 61.703 53.6301C57.4488 51.1194 53.7526 47.8417 55.8448 45.4705Z" fill="#2A4D2D"/>
<path d="M82.8326 44.8433C84.5761 46.5868 81.5075 49.7251 78.3692 53.0726C76.7652 54.7463 75.1611 56.3504 73.9756 57.6754C72.79 59.0005 71.9531 59.8374 71.9531 59.8374C71.9531 59.8374 72.1623 58.6518 72.5808 56.8385C73.0689 55.095 73.8361 52.7239 74.8822 50.5619C75.998 48.4 77.3929 46.3775 78.7877 45.192C80.2522 44.0064 81.647 43.7274 82.8326 44.8433Z" fill="#2A4D2D"/>
<path d="M59.0529 58.9304C61.982 54.9552 75.1628 70.7863 75.1628 70.7863C75.1628 70.7863 55.2869 64.0912 59.0529 58.9304Z" fill="#2A4D2D"/>
<path d="M86.1826 56.6976C87.0893 57.6042 86.6708 58.8595 85.7642 60.2543C84.7879 61.7189 83.3233 63.3926 81.8587 65.2059C80.3942 67.0191 78.8599 68.8324 77.8138 70.3667C76.7677 71.8312 76.0703 72.8773 76.0703 72.8773C76.0703 72.8773 76.0703 72.5286 76.1401 72.0404C76.2098 71.4825 76.2795 70.7154 76.419 69.739C76.698 67.856 77.3256 65.3454 78.302 62.9742C79.2784 60.603 80.7429 58.4411 82.2074 57.1858C83.6022 55.8607 85.0668 55.5818 86.1826 56.6976Z" fill="#2A4D2D"/>
<path d="M63.6554 73.019C64.9804 70.9268 69.2346 73.5769 73.2795 76.6455C77.3244 79.7141 81.2299 83.1314 81.2299 83.1314C81.2299 83.1314 75.9994 82.2247 71.1176 80.3417C66.3055 78.4588 61.9119 75.7389 63.6554 73.019Z" fill="#2A4D2D"/>
<path d="M90.7144 68.206C91.2724 68.485 91.5513 68.9732 91.4816 69.6706C91.4816 70.368 91.1329 71.2048 90.6447 72.1115C89.5986 73.9247 87.6459 75.5985 85.8326 77.1328C84.0891 78.667 82.4153 80.2711 81.5087 81.7356C81.0205 82.433 80.7416 83.1304 80.5324 83.6186C80.4626 83.8278 80.3929 84.037 80.3232 84.1765C80.2534 84.316 80.2534 84.3857 80.2534 84.3857C80.2534 84.3857 80.2534 84.316 80.1837 84.1765C80.1837 84.037 80.1139 83.8278 80.0442 83.5489C79.9047 82.9909 79.835 82.154 79.9745 81.1777C80.0442 80.2013 80.3231 79.0157 80.8113 77.8302C81.2995 76.6446 81.9272 75.459 82.6246 74.3432C83.322 73.2273 84.0891 72.251 84.7865 71.3443C85.4839 70.5075 86.1813 69.7403 86.809 69.1824C87.4367 68.6245 88.0643 68.206 88.6222 67.9968C89.3196 67.7876 90.017 67.7876 90.7144 68.206Z" fill="#2A4D2D"/>
<path d="M69.1712 86.5488C70.287 84.3171 74.053 86.1304 77.8887 88.0831C79.7717 89.0594 81.7244 90.1055 83.189 90.9424C84.6535 91.7096 85.6299 92.2675 85.6299 92.2675C85.6299 92.2675 84.514 92.407 82.7705 92.4767C81.027 92.5464 78.7256 92.4767 76.4939 92.128C71.9608 91.4306 67.7764 89.4081 69.1712 86.5488Z" fill="#2A4D2D"/>
<path d="M96.7089 78.0393C98.5919 79.6433 95.1746 83.758 91.2691 87.4542C90.2928 88.3608 89.3164 89.2675 88.3401 90.1044C87.3637 90.9412 86.5268 91.6386 85.9689 92.336C85.3412 93.0334 85.0623 93.6611 84.9228 94.1493C84.853 94.4282 84.853 94.6375 84.7833 94.7769C84.7833 94.9164 84.7833 94.9862 84.7833 94.9862C84.7833 94.9862 84.7135 94.9164 84.6438 94.7769C84.5741 94.6375 84.5043 94.4282 84.4346 94.1493C84.2951 93.5914 84.2254 92.615 84.5741 91.5689C84.853 90.5228 85.4807 89.3372 86.0386 88.2214C86.6663 87.1055 87.294 85.9199 87.9914 84.7344C90.8507 80.1315 94.268 76.0168 96.7089 78.0393Z" fill="#2A4D2D"/>
<path d="M75.7232 98.3354C76.4206 95.9643 80.7445 97.2893 84.7197 99.521C86.6724 100.637 88.5554 101.892 89.9502 102.869C91.345 103.915 92.1819 104.612 92.1819 104.612C92.1819 104.612 90.9963 104.542 89.3225 104.333C87.579 104.124 85.3473 103.845 83.1854 103.496C78.8615 102.659 74.7468 101.404 75.7232 98.3354Z" fill="#2A4D2D"/>
<path d="M100.059 89.8263C102.012 91.3605 99.083 95.1265 96.0145 99.032C95.2473 100.008 94.4802 100.985 93.7828 101.891C93.4341 102.379 93.0854 102.798 92.7367 103.216C92.388 103.635 92.109 103.984 91.8998 104.332C91.4116 105.03 91.2024 105.657 91.1326 106.145C91.1326 106.355 91.1326 106.564 91.1326 106.703C91.1326 106.843 91.1326 106.913 91.1326 106.913C91.1326 106.913 91.0629 106.843 90.9932 106.773C90.9234 106.634 90.7839 106.494 90.6445 106.215C90.4352 105.727 90.226 104.82 90.3655 103.774C90.4352 102.728 90.7839 101.612 91.1326 100.427C91.4813 99.2412 91.8998 97.9859 92.388 96.8003C93.3643 94.3594 94.6196 92.1277 96.0145 90.7329C97.3395 89.4078 98.8041 88.8499 100.059 89.8263Z" fill="#2A4D2D"/>
<path d="M80.2574 108.098C81.5824 103.286 95.4607 112.282 95.4607 112.282C95.4607 112.282 78.5836 114.304 80.2574 108.098Z" fill="#2A4D2D"/>
<path d="M105.499 98.0548C107.103 99.9378 103.826 102.797 100.618 105.935C98.9437 107.47 97.27 109.074 96.0844 110.329C94.8291 111.584 93.9922 112.421 93.9922 112.421C93.9922 112.421 94.2014 111.236 94.6896 109.422C95.1778 107.679 96.0844 105.378 97.27 103.216C98.4556 101.054 99.9899 99.1009 101.454 98.0548C102.989 97.0784 104.383 96.8692 105.499 98.0548Z" fill="#2A4D2D"/>
<path d="M64.9857 24.4092C64.7765 16.7377 65.4041 19.6668 66.3107 28.6633C66.6594 30.895 67.0082 33.4754 67.4963 36.4045C67.7056 37.869 68.0543 39.4033 68.3332 41.0073C68.6122 42.6114 68.9609 44.2851 69.3096 45.9589C69.728 47.6326 70.1465 49.4459 70.5649 51.2591C70.7741 52.1657 70.9833 53.0724 71.1926 54.0487C71.4715 54.9553 71.7505 55.9317 71.9597 56.8383C72.5176 58.7213 73.0755 60.6741 73.6335 62.6268C74.2611 64.5795 74.9585 66.5322 75.5862 68.5547C76.2138 70.5772 76.981 72.5299 77.7481 74.5523C78.5153 76.5748 79.2127 78.5973 80.1193 80.55C80.9562 82.5725 81.8628 84.5252 82.6997 86.5477C83.676 88.5004 84.5827 90.4531 85.5591 92.4058C86.4657 94.3586 87.5815 96.2415 88.5579 98.1943C89.604 100.077 90.5803 101.96 91.6962 103.773C92.812 105.587 93.8581 107.4 94.9042 109.143C96.0201 110.887 97.1359 112.561 98.2517 114.165C98.8097 115.002 99.3676 115.839 99.8558 116.606C100.414 117.373 100.972 118.14 101.53 118.907C102.645 120.441 103.692 121.906 104.738 123.37C105.853 124.765 106.9 126.09 107.946 127.415C108.992 128.671 109.898 129.996 110.944 131.112C112.897 133.413 114.641 135.436 116.175 137.249C117.779 138.923 119.034 140.387 120.08 141.573C122.033 143.874 122.173 144.223 120.917 143.177C120.29 142.619 119.244 141.712 117.988 140.527C117.361 139.899 116.593 139.202 115.826 138.434C114.989 137.667 114.222 136.761 113.316 135.854C111.572 133.971 109.48 131.879 107.388 129.298C106.342 128.043 105.226 126.718 104.11 125.393C102.994 124.068 101.948 122.534 100.762 121.069C98.3912 118.14 96.2293 114.792 93.9279 111.375C93.3002 110.538 92.812 109.632 92.2541 108.725C91.6962 107.818 91.1382 106.912 90.5803 106.005C90.0224 105.099 89.4645 104.192 88.9066 103.285C88.4184 102.309 87.8605 101.402 87.3723 100.426C78.7942 85.2923 72.3782 67.7875 69.0306 53.2816C68.2635 49.6551 67.4266 46.2378 66.9384 43.0995C66.4502 39.9612 65.8923 37.1019 65.6831 34.5912C65.4041 32.0806 65.1252 29.9186 65.0554 28.2449C65.0554 26.4316 65.0554 25.1763 64.9857 24.4092Z" fill="#2A4D2D"/>
<path d="M197.93 62.1162C199.234 62.4399 199.508 64.1229 199.014 66.4428C198.519 68.7628 197.137 71.5953 195.445 74.2015C193.753 76.8077 191.655 79.1366 189.987 80.7717C189.19 81.578 188.421 82.2149 187.924 82.6885C187.404 83.0886 187.081 83.3479 187.081 83.3479C187.081 83.3479 187.212 82.9867 187.495 82.3378C187.778 81.6889 188.09 80.8706 188.555 79.7646C189.359 77.6709 190.329 74.804 191.27 72.1064C192.189 69.3354 193.056 66.6602 194.002 64.7644C194.999 62.7727 196.169 61.6112 197.93 62.1162Z" fill="#2A4D2D"/>
<path d="M188.306 63.2153C189.644 63.1268 190.461 64.4831 190.819 66.7026C191.155 68.8487 191.032 71.858 190.497 74.8328C190.145 76.306 189.793 77.7792 189.249 79.1505C188.705 80.5218 188.093 81.6727 187.511 82.6544C187.256 83.1339 186.905 83.5626 186.628 83.9687C186.351 84.3748 186.124 84.6851 185.875 84.9219C185.451 85.373 185.225 85.6832 185.225 85.6832C185.225 85.6832 185.282 85.3445 185.469 84.6446C185.526 84.3059 185.583 83.9672 185.691 83.5326C185.799 83.098 185.811 82.6124 185.874 82.031C186.097 79.8744 186.067 77.1528 185.794 74.4253C185.595 71.6752 185.345 69.0211 185.568 66.8645C185.74 64.8039 186.556 63.2692 188.306 63.2153Z" fill="#2A4D2D"/>
<path d="M206.837 76.2579C206.778 77.6411 205.597 78.2436 203.959 78.6648C202.299 79.0125 200.057 79.2972 197.764 79.6779C195.471 80.0586 193.076 80.6311 191.336 81.2441C190.455 81.5139 189.743 81.8121 189.156 81.992C188.664 82.2228 188.37 82.3127 188.37 82.3127C188.37 82.3127 188.523 82.0249 188.874 81.5963C189.202 81.0943 189.728 80.4513 190.401 79.7634C191.724 78.3142 193.833 76.5443 196.246 75.2434C197.5 74.6185 198.726 74.1628 199.974 73.7807C201.245 73.4719 202.414 73.355 203.481 73.43C205.593 73.5064 206.93 74.4625 206.837 76.2579Z" fill="#2A4D2D"/>
<path d="M179.297 72.0771C180.618 71.6725 181.655 72.9613 182.307 75.0909C182.622 76.119 182.784 77.4348 182.799 78.7956C182.814 80.1564 182.631 81.658 182.426 83.0863C182.147 84.537 181.699 85.9592 181.279 87.2121C180.786 88.4874 180.248 89.6159 179.739 90.5751C179.484 91.0547 179.207 91.4608 179.003 91.8445C178.799 92.2281 178.573 92.5384 178.398 92.7527C178.069 93.2547 177.843 93.5649 177.843 93.5649C177.843 93.5649 177.9 93.2262 177.94 92.5713C177.997 92.2326 177.981 91.9164 178.015 91.5043C178.05 91.0921 178.062 90.6066 178.074 90.121C178.149 89.054 178.128 87.936 178.062 86.6711C177.996 85.4062 177.93 84.1414 177.791 82.899C177.563 80.3183 177.16 77.9519 177.156 76.1056C177.086 74.0389 177.608 72.5942 179.297 72.0771Z" fill="#2A4D2D"/>
<path d="M170.802 83.4325C172.028 82.9769 173.24 84.0514 173.988 86.2319C174.399 87.311 174.538 88.5534 174.576 89.9876C174.591 91.3484 174.481 92.8275 174.129 94.3007C173.85 95.7514 173.38 97.1002 172.813 98.3981C172.224 99.6225 171.686 100.751 171.059 101.586C170.781 101.992 170.504 102.398 170.204 102.731C169.905 103.063 169.678 103.374 169.503 103.588C169.079 104.039 168.83 104.276 168.83 104.276C168.83 104.276 168.887 103.937 169.023 103.333C169.103 103.068 169.137 102.656 169.172 102.244C169.206 101.832 169.314 101.397 169.4 100.889C169.497 99.8953 169.549 98.7548 169.579 97.5409C169.609 96.327 169.543 95.0621 169.404 93.8197C169.265 92.5773 169.148 91.4084 168.98 90.3353C168.812 89.2623 168.74 88.2402 168.691 87.2916C168.783 85.4962 169.136 84.023 170.802 83.4325Z" fill="#2A4D2D"/>
<path d="M163.827 90.5484C165.166 90.4599 166.005 91.8896 166.239 94.2275C166.356 95.3965 166.297 96.7798 166.092 98.208C165.887 99.6362 165.461 101.132 164.94 102.577C164.418 104.021 163.801 105.415 163.138 106.662C162.476 107.909 161.768 109.009 161.09 109.94C160.411 110.87 159.834 111.609 159.41 112.06C158.986 112.511 158.759 112.822 158.759 112.822C158.759 112.822 158.816 112.483 159.004 111.783C159.14 111.179 159.333 110.236 159.555 109.124C159.948 106.996 160.262 104.089 160.475 101.373C160.665 98.5842 160.68 96.0095 161.022 93.9773C161.335 92.1145 162.1 90.6758 163.827 90.5484Z" fill="#2A4D2D"/>
<path d="M155.065 98.3708C156.381 98.209 157.338 99.7631 157.544 102.27C157.683 103.513 157.647 104.969 157.391 106.494C157.135 108.018 156.754 109.66 156.255 111.178C155.682 112.719 155.036 114.282 154.323 115.625C153.61 116.968 152.852 118.164 152.099 119.117C151.771 119.619 151.42 120.048 151.121 120.38C150.843 120.786 150.544 121.119 150.295 121.356C149.82 121.903 149.571 122.14 149.571 122.14C149.571 122.14 149.701 121.778 149.889 121.079C150.019 120.717 150.076 120.379 150.235 119.848C150.343 119.414 150.502 118.883 150.638 118.279C150.933 117.145 151.088 115.812 151.293 114.384C151.498 112.956 151.608 111.477 151.739 110.071C151.849 108.592 151.907 107.208 151.966 105.825C152.047 104.515 152.15 103.279 152.298 102.189C152.617 100.084 153.359 98.5717 155.065 98.3708Z" fill="#2A4D2D"/>
<path d="M145.105 105.195C146.42 105.033 147.333 106.44 147.567 108.778C147.684 109.947 147.603 111.257 147.398 112.685C147.192 114.113 146.744 115.536 146.149 117.003C145.605 118.374 144.892 119.717 144.134 120.913C143.375 122.109 142.572 123.158 141.848 123.942C141.498 124.37 141.124 124.725 140.825 125.058C140.525 125.391 140.203 125.65 140.027 125.864C139.507 126.265 139.259 126.501 139.259 126.501C139.259 126.501 139.389 126.14 139.599 125.514C139.678 125.248 139.809 124.887 139.917 124.453C140.024 124.018 140.206 123.561 140.291 123.053C140.535 122.014 140.808 120.806 141.081 119.598C141.258 118.34 141.486 116.985 141.589 115.748C141.67 114.439 141.773 113.202 141.877 111.966C141.907 110.752 142.055 109.662 142.248 108.72C142.635 106.834 143.326 105.418 145.105 105.195Z" fill="#2A4D2D"/>
<path d="M137.347 112.147C138.702 112.375 139.145 114.086 138.747 116.457C138.547 117.642 138.15 118.969 137.533 120.362C136.915 121.756 136.129 123.121 135.268 124.509C134.386 125.824 133.407 127.087 132.384 128.203C131.36 129.32 130.365 130.267 129.472 131.022C129.025 131.4 128.578 131.778 128.256 132.037C127.861 132.319 127.538 132.578 127.267 132.741C126.747 133.142 126.402 133.327 126.402 133.327C126.402 133.327 126.606 132.944 126.912 132.368C127.218 131.793 127.676 130.93 128.163 129.897C128.65 128.864 129.166 127.662 129.659 126.387C130.152 125.112 130.696 123.74 131.093 122.414C132.034 119.717 132.733 117.013 133.605 115.14C134.506 113.097 135.58 111.885 137.347 112.147Z" fill="#2A4D2D"/>
<path d="M203.064 88.3343C203.006 89.7175 201.509 90.3365 199.436 90.6497C197.29 90.9854 194.466 91.2073 191.614 91.5985C190.152 91.8053 188.785 92.0631 187.418 92.3209C186.074 92.6521 184.781 92.8874 183.679 93.2246C183.165 93.382 182.651 93.5393 182.21 93.6742C181.77 93.8091 181.403 93.9215 181.035 94.0339C180.375 94.2362 180.007 94.3486 180.007 94.3486C180.007 94.3486 180.234 94.0384 180.731 93.5648C180.98 93.328 181.28 92.9953 181.602 92.7361C181.975 92.3809 182.348 92.0257 182.795 91.648C183.688 90.8927 184.802 90.0699 186.062 89.2022C187.345 88.4079 188.797 87.642 190.294 87.0231C191.791 86.4041 193.333 85.932 194.847 85.6293C196.361 85.3265 197.772 85.2156 199.009 85.319C201.578 85.5767 203.157 86.5389 203.064 88.3343Z" fill="#2A4D2D"/>
<path d="M194.257 102.595C193.86 103.922 192.347 104.224 190.286 104.052C188.152 103.902 185.442 103.447 182.682 103.087C179.848 102.75 176.985 102.582 174.8 102.528C173.682 102.549 172.785 102.503 172.079 102.558C171.446 102.591 171.057 102.63 171.057 102.63C171.057 102.63 171.401 102.444 171.944 102.117C172.56 101.768 173.396 101.352 174.453 100.868C176.566 99.8994 179.554 98.9043 182.626 98.4456C185.698 97.987 188.951 98.1159 191.191 98.8757C193.505 99.613 194.711 100.93 194.257 102.595Z" fill="#2A4D2D"/>
<path d="M184.795 112.88C184.036 114.076 182.608 113.871 180.678 113.338C179.713 113.071 178.652 112.753 177.472 112.311C176.315 111.942 175.085 111.596 173.781 111.272C172.477 110.949 171.122 110.721 169.886 110.618C168.65 110.514 167.413 110.411 166.295 110.432C165.736 110.442 165.251 110.43 164.861 110.469C164.398 110.531 164.059 110.474 163.766 110.564C163.133 110.597 162.743 110.636 162.743 110.636C162.743 110.636 163.066 110.376 163.608 110.05C163.879 109.886 164.202 109.627 164.62 109.419C165.038 109.21 165.507 108.906 165.999 108.675C167.033 108.118 168.281 107.736 169.75 107.286C171.167 106.932 172.777 106.681 174.358 106.598C175.939 106.516 177.588 106.654 179.061 107.006C180.534 107.358 181.883 107.828 182.887 108.485C184.895 109.798 185.706 111.397 184.795 112.88Z" fill="#2A4D2D"/>
<path d="M175.157 122.578C174.376 123.701 172.852 123.444 170.899 122.837C169.911 122.497 168.828 122.106 167.626 121.591C166.446 121.148 165.098 120.678 163.771 120.281C162.445 119.884 161.068 119.582 159.713 119.355C158.358 119.127 157.099 118.95 155.959 118.898C155.377 118.835 154.892 118.823 154.406 118.811C153.921 118.799 153.509 118.764 153.192 118.781C152.56 118.814 152.148 118.779 152.148 118.779C152.148 118.779 152.492 118.593 153.108 118.244C153.38 118.081 153.798 117.873 154.216 117.664C154.634 117.456 155.126 117.225 155.713 117.045C156.866 116.612 158.187 116.207 159.701 115.905C161.215 115.602 162.869 115.497 164.495 115.561C166.121 115.626 167.792 115.837 169.288 116.263C170.784 116.688 172.155 117.232 173.181 117.962C175.331 119.473 176.164 121.145 175.157 122.578Z" fill="#2A4D2D"/>
<path d="M163.373 129.479C162.614 130.675 161.09 130.419 159.137 129.812C158.15 129.472 157.066 129.08 155.791 128.587C154.611 128.145 153.263 127.675 151.936 127.278C150.61 126.88 149.21 126.506 147.929 126.255C146.648 126.005 145.366 125.755 144.226 125.703C143.644 125.64 143.159 125.628 142.746 125.593C142.261 125.581 141.922 125.524 141.533 125.563C140.878 125.523 140.488 125.562 140.488 125.562C140.488 125.562 140.833 125.376 141.471 125.1C141.742 124.937 142.183 124.802 142.601 124.594C143.019 124.385 143.533 124.228 144.121 124.048C145.2 123.637 146.618 123.284 148.08 123.077C149.543 122.87 151.197 122.765 152.801 122.756C154.427 122.82 156.025 123.054 157.52 123.48C159.016 123.905 160.314 124.472 161.391 125.106C163.473 126.396 164.38 128.046 163.373 129.479Z" fill="#2A4D2D"/>
<path d="M149.874 135.219C148.998 136.29 147.502 135.865 145.674 135.14C144.737 134.703 143.727 134.29 142.525 133.774C141.346 133.332 140.07 132.839 138.817 132.42C137.491 132.022 136.114 131.721 134.832 131.471C133.5 131.317 132.241 131.14 131.197 131.138C130.638 131.149 130.152 131.137 129.666 131.125C129.181 131.113 128.791 131.152 128.475 131.168C127.843 131.201 127.453 131.24 127.453 131.24C127.453 131.24 127.798 131.054 128.318 130.654C128.589 130.491 128.985 130.209 129.403 130.001C129.821 129.792 130.29 129.488 130.877 129.308C132.007 128.802 133.329 128.397 134.843 128.094C136.356 127.792 137.988 127.613 139.688 127.655C141.314 127.72 143.007 128.004 144.526 128.503C146.044 129.002 147.364 129.642 148.34 130.468C150.291 132.12 151 133.911 149.874 135.219Z" fill="#2A4D2D"/>
<path d="M192.379 75.7047C192.594 75.88 189.685 80.5454 184.853 87.3254C180.021 94.1054 173.222 102.853 165.064 110.571C161.01 114.382 156.623 117.894 152.204 120.773C149.983 122.176 147.813 123.483 145.671 124.62C143.529 125.758 141.467 126.63 139.479 127.48C135.626 129.061 132.248 130.095 129.83 130.594C127.435 131.166 126.001 131.204 125.911 130.91C125.821 130.616 127.076 129.991 129.262 129.001C131.471 128.084 134.612 126.801 138.325 125.022C140.144 124.143 142.161 123.124 144.156 122.032C146.224 120.917 148.225 119.582 150.372 118.201C154.571 115.39 158.834 111.997 162.859 108.355C170.887 100.998 177.946 92.5723 183.229 86.2164C188.636 79.7421 192.069 75.4784 192.379 75.7047Z" fill="#2A4D2D"/>
<path d="M109.781 108.868C108.476 109.175 108.169 110.788 108.245 113.015C108.322 115.242 108.706 118.084 109.013 121.002C109.244 123.921 109.397 126.993 109.32 129.297C109.32 130.449 109.244 131.447 109.167 132.138C109.09 132.829 109.09 133.213 109.09 133.213C109.09 133.213 109.321 132.906 109.628 132.292C110.012 131.677 110.472 130.833 111.01 129.681C112.085 127.53 113.16 124.381 113.698 121.156C114.236 117.93 114.159 114.551 113.468 112.247C112.776 109.79 111.471 108.407 109.781 108.868Z" fill="#97B25E"/>
<path d="M117.996 102.34C116.69 102.724 116.46 104.26 116.537 106.334C116.613 107.409 116.69 108.561 116.844 109.866C116.997 111.172 117.151 112.554 117.228 113.937C117.305 115.319 117.381 116.778 117.381 118.16C117.381 119.543 117.305 120.772 117.228 121.924C117.228 122.461 117.151 122.999 117.074 123.459C116.997 123.92 116.997 124.304 116.921 124.611C116.844 125.303 116.767 125.61 116.767 125.61C116.767 125.61 116.997 125.303 117.381 124.765C117.612 124.458 117.842 124.151 118.073 123.767C118.303 123.383 118.61 122.922 118.917 122.384C119.532 121.386 120.069 120.08 120.607 118.698C121.144 117.316 121.605 115.78 121.912 114.167C122.22 112.631 122.373 111.018 122.296 109.482C122.22 107.946 122.066 106.564 121.682 105.412C120.991 103.108 119.609 101.879 117.996 102.34Z" fill="#97B25E"/>
<path d="M125.758 96.657C124.452 96.9642 124.145 98.5769 124.222 100.727C124.299 102.878 124.606 105.642 124.836 108.561C124.913 110.02 124.913 111.479 124.913 112.861C124.913 114.244 124.836 115.549 124.76 116.701C124.76 117.239 124.683 117.776 124.606 118.237C124.529 118.698 124.529 119.082 124.452 119.466C124.375 120.157 124.299 120.541 124.299 120.541C124.299 120.541 124.529 120.234 124.913 119.696C125.143 119.389 125.374 119.082 125.604 118.621C125.835 118.237 126.142 117.776 126.449 117.239C127.063 116.164 127.601 114.935 128.215 113.553C128.753 112.17 129.214 110.557 129.521 109.021C129.828 107.409 129.982 105.796 129.982 104.26C129.982 102.724 129.828 101.342 129.444 100.113C128.676 97.5785 127.447 96.273 125.758 96.657Z" fill="#97B25E"/>
<path d="M133.891 88.4389C132.509 88.6693 132.125 90.282 132.125 92.5092C132.125 94.8131 132.432 97.7315 132.663 100.803C132.893 103.875 133.047 106.947 133.047 109.328C133.047 110.48 133.047 111.478 133.047 112.17C133.047 112.861 133.047 113.245 133.047 113.245C133.047 113.245 133.2 112.861 133.584 112.246C133.891 111.632 134.352 110.71 134.813 109.558C135.811 107.331 136.81 104.183 137.424 100.957C137.962 97.7315 138.038 94.3523 137.501 91.9716C136.81 89.6677 135.581 88.2085 133.891 88.4389Z" fill="#97B25E"/>
<path d="M139.343 79.2993C136.655 79.9136 137.961 85.8271 138.805 92.0478C139.266 95.1197 139.727 98.2684 139.957 100.649C140.188 103.03 140.341 104.643 140.341 104.643C140.341 104.643 140.956 103.107 141.724 100.726C142.492 98.3452 143.183 95.1197 143.49 91.8174C143.797 88.515 143.644 85.1359 142.952 82.7552C142.261 80.3744 141.033 78.9921 139.343 79.2993Z" fill="#97B25E"/>
<path d="M148.18 70.8514C147.566 70.621 146.875 70.9282 146.337 71.773C145.799 72.6178 145.492 73.9233 145.492 75.3825C145.492 76.8416 145.723 78.3776 145.876 79.76C146.03 81.2191 146.26 82.8319 146.414 84.4447C146.721 87.6702 146.721 91.0493 146.491 93.5836C146.414 94.8892 146.26 95.8876 146.183 96.6556C146.107 97.4236 146.03 97.8075 146.03 97.8075C146.03 97.8075 146.26 97.4236 146.644 96.8092C147.028 96.118 147.566 95.1964 148.18 93.9676C149.332 91.5869 150.561 88.131 151.098 84.5983C151.329 82.8319 151.482 80.9887 151.406 79.2992C151.329 77.5328 151.022 76.0737 150.791 74.9985C150.561 73.8465 150.33 73.0785 149.946 72.3874C149.486 71.773 149.025 71.1586 148.18 70.8514Z" fill="#97B25E"/>
<path d="M155.165 61.8669C153.86 62.3277 153.629 63.7868 153.86 65.7068C154.09 67.7035 154.628 70.1611 155.089 72.7722C155.549 75.3833 155.857 78.0713 155.933 80.1448C156.01 81.22 156.01 82.0648 156.01 82.6791C156.01 83.2935 156.01 83.6775 156.01 83.6775C156.01 83.6775 156.164 83.3703 156.471 82.8328C156.778 82.2952 157.162 81.4504 157.623 80.452C158.468 78.4553 159.389 75.6137 159.697 72.6186C160.004 69.6235 159.773 66.6284 158.929 64.478C158.161 62.4045 156.855 61.3293 155.165 61.8669Z" fill="#97B25E"/>
<path d="M162.54 53.2652C159.852 53.8028 160.927 59.6395 161.695 65.7065C162.079 68.7784 162.463 71.8504 162.694 74.1543C162.924 76.535 163.078 78.071 163.078 78.071C163.078 78.071 163.769 76.6118 164.46 74.2311C165.228 71.9271 165.996 68.7784 166.38 65.4761C166.764 62.2506 166.687 58.9483 166.073 56.5675C165.382 54.3404 164.23 52.958 162.54 53.2652Z" fill="#97B25E"/>
<path d="M168.838 39.9025C163.385 39.8257 168.377 65.4763 168.377 65.4763C168.377 65.4763 175.903 39.9793 168.838 39.9025Z" fill="#97B25E"/>
<path d="M176.133 29.1514C173.368 29.1514 173.368 35.2952 173.522 41.5159C173.752 47.7365 174.213 54.1876 174.213 54.1876C174.213 54.1876 174.904 52.7284 175.672 50.4244C176.517 48.1205 177.515 45.0486 178.206 41.8999C179.589 35.6024 179.666 29.1514 176.133 29.1514Z" fill="#97B25E"/>
<path d="M187.195 33.6038C184.968 31.991 181.051 37.5205 178.209 43.5875C176.75 46.6595 175.598 49.8082 174.83 52.1889C174.062 54.5697 173.602 56.1824 173.602 56.1824C173.602 56.1824 174.754 54.8769 176.366 52.9569C177.979 51.037 180.206 48.5026 182.203 45.9683C186.35 40.8996 190.113 35.6005 187.195 33.6038Z" fill="#97B25E"/>
<path d="M185.889 49.502C182.203 45.4317 169.07 64.7848 169.07 64.7848C169.07 64.7848 190.651 54.7242 185.889 49.502Z" fill="#97B25E"/>
<path d="M187.123 59.2555C184.128 54.7244 166.234 73.0792 166.234 73.0792C166.234 73.0792 190.963 65.0922 187.123 59.2555Z" fill="#97B25E"/>
<path d="M181.124 72.464C180.126 69.9297 175.057 71.8496 170.449 74.6912C165.764 77.4559 161.617 81.0654 161.617 81.0654C161.617 81.0654 167.147 80.2974 172.369 78.9919C177.514 77.6095 182.353 75.7664 181.124 72.464Z" fill="#97B25E"/>
<path d="M180.203 83.2926C179.051 77.9935 156.242 88.5148 156.242 88.5148C156.242 88.5148 181.739 90.2044 180.203 83.2926Z" fill="#97B25E"/>
<path d="M173.532 90.052C171.919 84.8298 146.422 98.5766 146.422 98.5766C146.422 98.5766 175.682 96.8103 173.532 90.052Z" fill="#97B25E"/>
<path d="M167.994 101.187C166.996 95.8108 137.812 106.716 137.812 106.716C137.812 106.716 169.223 108.099 167.994 101.187Z" fill="#97B25E"/>
<path d="M162.39 110.019C162.159 107.331 154.095 107.946 146.262 109.635C138.352 111.248 130.672 113.859 130.672 113.859C130.672 113.859 138.812 114.32 146.799 114.243C154.786 114.166 162.697 113.552 162.39 110.019Z" fill="#97B25E"/>
<path d="M149.106 120.081C148.876 114.628 123.609 121.156 123.609 121.156C123.609 121.156 149.414 127.147 149.106 120.081Z" fill="#97B25E"/>
<path d="M140.499 129.066C141.113 123.613 116 126.301 116 126.301C116 126.301 139.731 136.055 140.499 129.066Z" fill="#97B25E"/>
<path d="M178.292 45.8156C180.212 38.9038 178.983 41.4381 175.911 49.1947C175.066 51.1147 174.068 53.3418 172.993 55.8762C172.455 57.1049 171.764 58.4105 171.149 59.7929C170.458 61.1752 169.844 62.5576 169.076 64.0168C168.308 65.4759 167.463 66.9351 166.618 68.4711C166.234 69.239 165.774 70.007 165.39 70.775C164.929 71.543 164.468 72.311 164.007 73.0789C163.086 74.6149 162.087 76.2277 161.089 77.8404C160.014 79.4532 158.939 80.9891 157.863 82.6787C156.788 84.2915 155.636 85.9042 154.407 87.517C153.179 89.1298 152.103 90.8193 150.798 92.3553C149.492 93.968 148.264 95.504 146.958 97.1168C145.576 98.6527 144.27 100.189 142.964 101.648C141.659 103.184 140.2 104.643 138.817 106.025C137.435 107.485 136.053 108.944 134.594 110.249C133.134 111.632 131.752 112.937 130.37 114.243C128.91 115.548 127.528 116.7 126.146 117.929C125.455 118.543 124.763 119.158 124.072 119.695C123.381 120.233 122.69 120.771 121.999 121.385C120.616 122.46 119.311 123.535 118.005 124.534C116.7 125.532 115.394 126.454 114.165 127.375C112.936 128.297 111.784 129.218 110.556 129.91C108.252 131.446 106.101 132.905 104.335 134.057C102.492 135.209 100.956 136.207 99.804 136.975C97.5 138.511 97.2696 138.895 98.7288 138.281C99.42 137.973 100.572 137.436 102.108 136.668C103.567 135.9 105.487 134.978 107.484 133.749C109.557 132.521 112.015 131.138 114.472 129.449C115.701 128.604 117.007 127.682 118.389 126.761C119.771 125.839 121.077 124.764 122.459 123.689C125.301 121.615 128.142 119.158 131.061 116.7C132.52 115.472 133.902 114.089 135.362 112.707C136.053 112.016 136.821 111.324 137.589 110.633C138.28 109.942 138.971 109.174 139.739 108.483C151.259 97.04 161.319 82.8323 167.847 70.6214C169.383 67.5495 170.996 64.7079 172.148 61.9432C173.377 59.2553 174.529 56.7978 175.297 54.5706C176.141 52.3435 176.909 50.5003 177.447 48.9643C177.754 47.582 178.061 46.5068 178.292 45.8156Z" fill="#6E802C"/>
<path d="M113.907 21.9548C113.666 15.2126 113.299 17.8006 112.941 25.7347C112.791 27.6924 112.666 30.046 112.496 32.6211C112.268 35.2199 112.018 38.0984 111.758 41.1167C111.581 42.6785 111.405 44.2404 111.252 45.8603C111.188 46.6994 111.099 47.4803 110.977 48.343C110.854 49.2056 110.766 49.9866 110.643 50.8493C110.398 52.5746 110.153 54.3 109.931 56.0834C109.628 57.8324 109.348 59.6395 109.092 61.5047C107.857 68.7805 106.426 76.4069 104.587 83.8613C102.747 91.3156 100.778 98.6193 98.6421 105.179C98.3796 106.031 98.0935 106.824 97.8891 107.653C97.6029 108.446 97.3168 109.24 97.0887 110.011C96.5745 111.575 96.0603 113.139 95.5569 114.563C94.5156 117.493 93.5431 120.259 92.5922 122.746C91.6413 125.233 90.8517 127.451 90.06 129.331C89.2682 131.212 88.6959 132.799 88.2613 134.06C87.3685 136.523 87.3943 136.919 88.0849 135.622C88.442 135.002 88.9476 133.916 89.6727 132.537C90.374 131.1 91.2367 129.394 92.0736 127.292C95.7483 119.022 100.882 105.689 104.713 90.9886C108.709 76.3575 111.461 60.3366 112.683 47.377C112.988 44.1371 113.307 41.0952 113.44 38.264C113.597 35.491 113.767 32.9158 113.823 30.7258C113.879 28.5357 113.972 26.6017 113.974 25.1108C113.942 23.7017 113.912 22.6304 113.907 21.9548Z" fill="#85A23A"/>
<path d="M125.946 17.2561C124.111 21.7287 118.166 24.7598 114.186 27.1262C113.479 27.55 114.184 28.617 114.892 28.1932C119.081 25.6741 125.083 22.6193 127.079 17.8779C127.366 17.084 126.256 16.5203 125.946 17.2561Z" fill="#B8C549"/>
<path d="M103.147 12.521C104.982 19.0202 108.803 24.575 114.256 28.6519C114.923 29.1252 115.756 28.1764 115.089 27.7031C109.822 23.7532 106.12 18.4888 104.332 12.1058C104.106 11.3851 102.921 11.8003 103.147 12.521Z" fill="#B8C549"/>
<path d="M99.7522 16.8164C103.059 22.1066 107.755 26.1533 113.501 28.621C114.237 28.9308 114.801 27.8207 114.065 27.5109C108.482 25.1121 103.997 21.2504 100.761 16.1345C100.361 15.4847 99.2703 16.1323 99.7522 16.8164Z" fill="#B8C549"/>
<path d="M97.4622 24.3213C102.619 27.5032 108.382 29.0157 114.415 28.8609C115.23 28.8674 115.187 27.5981 114.372 27.5916C108.537 27.7335 103.053 26.2425 98.0839 23.1875C97.3245 22.8197 96.7608 23.9297 97.4622 24.3213Z" fill="#B8C549"/>
<path d="M128.166 20.8883C124.502 25.3608 119.44 27.8972 113.653 28.1552C112.861 28.2068 112.904 29.4761 113.696 29.4245C119.739 29.1299 125.208 26.4279 129.057 21.7445C129.612 21.1121 128.663 20.2795 128.166 20.8883Z" fill="#B8C549"/>
<path d="M130.138 26.3838C124.669 29.0858 118.615 29.5202 112.826 27.6119C112.056 27.3838 111.795 28.5735 112.566 28.8016C118.716 30.7658 125.084 30.2712 130.878 27.3691C131.551 27.0271 130.869 26.0181 130.138 26.3838Z" fill="#B8C549"/>
<path d="M110.618 6.9049C108.77 13.0082 109.859 19.3374 113.537 24.5437C113.843 24.9611 114.355 24.8879 114.609 24.5136C117.631 19.9636 118.937 14.6907 118.484 9.25431C118.432 8.46262 117.163 8.50562 117.214 9.29731C117.679 14.5939 116.429 19.5054 113.499 23.9499C113.836 23.9478 114.232 23.922 114.57 23.9198C111.068 18.9803 110.087 13.0814 111.855 7.28141C112.094 6.3714 110.846 6.13473 110.618 6.9049Z" fill="#B8C549"/>
<path d="M114.219 22.5723C114.914 16.4647 115.189 10.3248 114.987 4.17634C114.935 3.38465 113.724 3.40401 113.718 4.21936C113.954 10.2861 113.69 16.2861 112.947 22.2776C112.883 23.1166 114.096 23.435 114.219 22.5723Z" fill="#B8C549"/>
<path d="M126.938 38.3178C122.429 41.7125 117.519 44.4575 112.268 46.5291C111.513 46.8367 111.928 48.0221 112.625 47.7382C117.992 45.6192 122.984 42.9086 127.585 39.4085C128.269 38.9266 127.564 37.8596 126.938 38.3178Z" fill="#B8C549"/>
<path d="M129.093 43.6053C124.183 46.3503 118.284 49.1599 112.646 47.1224C107.556 45.2679 104.092 40.9222 100.897 36.7378C100.439 36.1117 99.3484 36.7592 99.8303 37.4434C103.283 41.929 107.11 46.6684 112.736 48.5079C118.583 50.3926 124.715 47.4884 129.798 44.6724C130.506 44.2486 129.8 43.1815 129.093 43.6053Z" fill="#B8C549"/>
<path d="M113.105 46.9333C107.486 46.1071 102.405 43.775 98.1065 40.0402C97.4977 39.5432 96.6414 40.4339 97.2739 40.9889C101.701 44.8743 107.028 47.3097 112.869 48.1811C113.65 48.2693 113.944 46.9979 113.105 46.9333Z" fill="#B8C549"/>
<path d="M104.738 34.3599C105.304 37.2448 106.335 39.9405 108.062 42.3521C109.026 43.7204 111.035 46.4914 112.784 46.7947C114.393 47.0873 115.465 45.2286 116.39 44.1745C118.425 41.8554 120.215 39.433 121.876 36.8601C122.349 36.1932 121.215 35.5714 120.766 36.2964C119.52 38.2261 118.169 40.0633 116.736 41.8661C115.523 43.3763 114.036 45.8783 111.932 44.7036C108.531 42.8383 106.599 37.5977 105.889 34.0265C105.814 33.1767 104.629 33.5919 104.738 34.3599Z" fill="#B8C549"/>
<path d="M125.391 58.4553C120.511 62.2716 115.148 65.0661 109.208 66.9441C108.604 67.1227 108.679 67.9724 109.227 68.1553C115.027 69.9238 121.07 69.6292 126.729 67.3919C127.484 67.0843 127.068 65.8989 126.371 66.1829C120.911 68.4072 115.182 68.6416 109.546 66.942C109.572 67.3378 109.597 67.7337 109.565 68.1532C115.587 66.3096 121.101 63.386 126.038 59.546C126.699 59.006 125.993 57.939 125.391 58.4553Z" fill="#B8C549"/>
<path d="M110.497 66.2822C107.646 63.1089 105.353 59.641 103.512 55.7858C103.146 55.0543 101.961 55.4695 102.303 56.1428C104.215 60.1723 106.603 63.8727 109.641 67.1729C110.157 67.7752 111.013 66.8846 110.497 66.2822Z" fill="#B8C549"/>
<path d="M110.164 66.962C105.388 65.0472 101.443 61.846 98.5387 57.5433C98.0568 56.8591 97.0479 57.5411 97.4717 58.2489C100.505 62.7022 104.579 66.054 109.601 68.0721C110.336 68.3819 110.958 67.2481 110.164 66.962Z" fill="#B8C549"/>
<path d="M106.622 87.0297C113.829 86.5996 120.629 84.5065 126.778 80.6471C127.485 80.2233 126.78 79.1563 126.072 79.5801C120.132 83.2867 113.588 85.3432 106.579 85.7604C105.787 85.8121 105.806 87.0233 106.622 87.0297Z" fill="#B8C549"/>
<path d="M105.72 86.9875C112.458 89.7285 119.531 88.4722 126.499 87.1235C127.302 86.932 126.887 85.7466 126.142 85.9144C119.628 87.2137 112.752 88.457 106.341 85.8538C105.548 85.5677 104.926 86.7014 105.72 86.9875Z" fill="#B8C549"/>
<path d="M105.681 87.2096C111.869 91.2585 118.813 93.5089 126.246 93.7995C127.061 93.806 126.96 92.5604 126.203 92.5302C119.05 92.2612 112.245 90.0215 106.303 86.0759C105.578 85.6262 104.956 86.76 105.681 87.2096Z" fill="#B8C549"/>
<path d="M106.851 85.9205C102.495 82.2094 98.8915 77.8529 96.1573 72.8037C95.7916 72.0722 94.7245 72.7778 95.0902 73.5093C97.9299 78.651 101.557 83.0656 106.019 86.8693C106.628 87.3662 107.46 86.4175 106.851 85.9205Z" fill="#B8C549"/>
<path d="M106.137 86.3465C100.828 82.9559 96.108 78.8511 92.0356 74.0084C91.5193 73.406 90.4522 74.1116 90.9685 74.714C95.17 79.7073 100.019 83.9627 105.574 87.4566C106.275 87.8481 106.839 86.7381 106.137 86.3465Z" fill="#B8C549"/>
<path d="M105.458 86.0121C98.6704 84.6459 92.4445 81.8318 87.0361 77.5334C86.4273 77.0364 85.5711 77.9271 86.2036 78.4821C91.7991 82.9075 98.2121 85.8485 105.197 87.2018C105.944 87.3718 106.262 86.1584 105.458 86.0121Z" fill="#B8C549"/>
<path d="M99.7139 103.657C106.785 105.72 114.1 105.721 121.204 103.707C121.982 103.457 121.567 102.272 120.846 102.498C113.999 104.475 106.94 104.438 100.032 102.444C99.1804 102.181 98.9437 103.429 99.7139 103.657Z" fill="#B8C549"/>
<path d="M99.4157 103.101C105.424 106.546 112.212 107.912 119.079 107.146C119.87 107.095 119.827 105.825 119.036 105.877C112.367 106.63 105.859 105.285 99.9794 101.991C99.2781 101.6 98.7144 102.71 99.4157 103.101Z" fill="#B8C549"/>
<path d="M98.9772 103.011C104.474 108.358 111.194 112.054 118.683 113.811C119.488 113.958 119.748 112.768 118.943 112.622C111.676 110.909 105.143 107.34 99.7517 102.086C99.2009 101.566 98.3447 102.456 98.9772 103.011Z" fill="#B8C549"/>
<path d="M91.5947 91.0482C93.6061 95.9855 96.6502 100.299 100.714 103.791C100.968 103.416 101.187 103.124 101.441 102.749C96.4824 99.5546 92.1712 95.6219 88.5076 90.9513C87.9913 90.3489 86.9586 90.9728 87.4405 91.6569C91.2332 96.4781 95.6735 100.561 100.819 103.883C101.439 104.24 102.074 103.304 101.547 102.842C97.6699 99.4772 94.7205 95.3961 92.7801 90.633C92.4961 89.9359 91.2871 90.293 91.5947 91.0482Z" fill="#B8C549"/>
<path d="M101.165 103.067C98.4775 101.791 95.5044 101.309 92.8067 100.173C89.9218 98.91 87.2327 97.2964 84.7393 95.3322C84.1305 94.8352 83.2742 95.7259 83.9067 96.2809C86.2129 98.1182 88.7041 99.7447 91.4255 100.939C94.4158 102.294 97.6686 102.798 100.601 104.177C101.337 104.486 101.924 103.434 101.165 103.067Z" fill="#B8C549"/>
<path d="M94.3376 119.732C100.966 123.534 108.622 122.379 115.73 121.041C116.557 120.907 116.141 119.722 115.373 119.832C108.556 121.051 101.237 122.204 94.9013 118.622C94.2 118.231 93.6363 119.341 94.3376 119.732Z" fill="#B8C549"/>
<path d="M94.3225 120.009C100.495 123.523 107.194 125.67 114.222 126.464C115.003 126.552 115.321 125.339 114.482 125.274C107.536 124.515 100.918 122.402 94.828 118.923C94.1848 118.508 93.6211 119.618 94.3225 120.009Z" fill="#B8C549"/>
<path d="M94.2355 120.313C99.646 124.95 105.794 128.405 112.61 130.505C113.38 130.733 113.64 129.543 112.87 129.315C106.276 127.26 100.257 123.956 95.0336 119.447C94.5173 118.844 93.6267 119.816 94.2355 120.313Z" fill="#B8C549"/>
<path d="M83.1961 105.172C86.6188 110.415 90.7363 115.036 95.6649 118.988C96.2737 119.485 97.13 118.594 96.4975 118.039C91.6743 114.18 87.6041 109.675 84.2632 104.466C83.8049 103.84 82.7723 104.464 83.1961 105.172Z" fill="#B8C549"/>
<path d="M96.1418 118.657C91.6241 115.215 87.1064 111.773 82.5887 108.331C81.9798 107.834 81.0892 108.806 81.7561 109.279C86.2738 112.722 90.7915 116.164 95.3092 119.606C95.9181 120.103 96.7743 119.212 96.1418 118.657Z" fill="#B8C549"/>
<path d="M95.3348 118.852C89.5607 117.479 84.1544 115.347 79.0107 112.363C78.3093 111.972 77.7457 113.082 78.447 113.473C83.6725 116.492 89.2186 118.635 95.0745 120.042C95.8446 120.27 96.1394 118.998 95.3348 118.852Z" fill="#B8C549"/>
<path d="M181.685 60.2071L178.168 58.8733L180.413 57.6877C180.787 57.4654 180.937 57.0208 180.712 56.6503C180.488 56.2798 180.039 56.1316 179.665 56.3539L176.297 58.1323C176.297 58.1323 176.222 58.1323 176.222 58.2064L173.977 57.3172L177.719 55.3165C178.093 55.0942 178.243 54.6496 178.018 54.2791C177.794 53.9086 177.345 53.7604 176.97 53.9827L172.181 56.5021C172.181 56.5021 172.106 56.5021 172.106 56.5762L169.412 55.5388L174.201 53.0194C174.576 52.7971 174.725 52.3525 174.501 51.982C174.276 51.6115 173.827 51.4633 173.453 51.6856L167.541 54.8719L165.221 53.9827L170.385 50.7964C170.609 50.6482 170.759 50.3518 170.759 50.0554C170.759 49.759 170.534 49.5367 170.31 49.3885L165.595 47.3137L167.84 46.3504L173.453 49.0921H173.528C173.902 49.2403 174.351 49.0921 174.501 48.7216C174.725 48.3511 174.501 47.8324 174.127 47.6842L169.711 45.5353L172.705 44.2756L176.821 46.2763H176.896C177.27 46.4245 177.719 46.2763 177.868 45.9058C178.093 45.5353 177.868 45.0166 177.494 44.8684L174.576 43.4605L176.821 42.4972L179.44 43.7569H179.515C179.889 43.9051 180.338 43.7569 180.488 43.3864C180.712 43.0159 180.488 42.4972 180.114 42.349L178.692 41.6821L181.535 40.4224C181.91 40.2742 182.134 39.7555 181.91 39.385C181.76 39.0145 181.236 38.7922 180.862 39.0145L177.419 40.4965L178.168 38.0513C178.317 37.6067 178.018 37.162 177.644 37.0879C177.195 36.9397 176.821 37.1621 176.671 37.6067L175.548 41.2375V41.3116L173.303 42.2749L174.501 38.2735C174.65 37.8289 174.351 37.4585 173.977 37.3103C173.528 37.1621 173.154 37.3843 173.004 37.8289L171.432 43.0159V43.09L168.738 44.2756L170.31 39.1628C170.46 38.7182 170.16 38.2735 169.786 38.1994C169.337 38.0512 168.963 38.2735 168.813 38.7181L166.867 45.0907L164.697 46.054L165.969 40.126C166.044 39.8296 165.969 39.5332 165.745 39.385C165.52 39.1627 165.221 39.1628 164.996 39.2369L159.907 40.9411L160.731 38.7923L167.092 36.6434C167.541 36.4952 167.691 36.0506 167.616 35.6801C167.466 35.2355 167.017 35.0873 166.643 35.1614L161.554 36.8657L162.751 33.9017L167.541 32.2715C167.99 32.1233 168.14 31.6787 168.065 31.3082C167.915 30.8636 167.466 30.7154 167.092 30.7895L163.574 31.9751L164.473 29.7521L167.691 28.6406C168.14 28.4924 168.289 28.0478 168.214 27.6773C168.065 27.2327 167.616 27.0845 167.242 27.1586L165.296 27.8255L166.418 25.0838C166.568 24.7133 166.343 24.1946 165.969 24.0464C165.595 23.8982 165.071 24.1205 164.922 24.491L163.799 27.2327L162.826 25.3802C162.602 25.0097 162.153 24.8615 161.778 25.0838C161.404 25.3061 161.255 25.7507 161.479 26.1212L163.125 29.0852L162.227 31.3082L159.982 27.9737C159.758 27.6032 159.309 27.455 158.935 27.6773C158.56 27.8996 158.411 28.3442 158.635 28.7147L161.03 33.1607L159.982 35.8283L157.662 31.5305C157.438 31.16 156.989 31.0118 156.615 31.2341C156.24 31.4564 156.091 31.901 156.315 32.2715L159.309 37.6808L158.261 40.2742L154.893 35.0873C154.744 34.865 154.444 34.7168 154.145 34.7168C153.846 34.7168 153.621 34.9391 153.471 35.1614L151.151 40.126L150.253 38.3476L153.247 32.3456C153.471 31.9751 153.247 31.4564 152.873 31.3082C152.499 31.0859 151.975 31.3082 151.825 31.6787L149.43 36.4952L148.158 33.5312L150.403 29.0111C150.628 28.6406 150.403 28.1219 150.029 27.9737C149.655 27.7514 149.131 27.9737 148.981 28.3442L147.335 31.6787L146.362 29.4557L147.859 26.4176C148.083 26.0471 147.859 25.5284 147.484 25.3802C147.11 25.1579 146.586 25.3802 146.437 25.7507L145.539 27.6032L144.341 24.9356C144.192 24.5651 143.668 24.3428 143.294 24.5651C142.919 24.7133 142.695 25.232 142.919 25.6025L144.117 28.2701L142.096 27.6773C141.647 27.5291 141.273 27.7514 141.123 28.196C140.974 28.5665 141.198 29.0111 141.572 29.1593H141.647L144.94 30.1226L145.913 32.3456L142.321 31.3082C141.872 31.16 141.497 31.3823 141.348 31.8269C141.198 32.1974 141.423 32.642 141.797 32.7902H141.872L146.736 34.1981L147.933 36.8657L143.219 35.4578C142.77 35.3096 142.395 35.5319 142.246 35.9765C142.096 36.3469 142.321 36.7916 142.695 36.9398H142.77L148.757 38.7181L149.73 40.9411L143.294 39.0145C142.994 38.9404 142.695 39.0146 142.47 39.2369C142.246 39.4592 142.171 39.7555 142.321 40.0519L144.715 45.9799L142.994 45.313L140.824 39.0145C140.674 38.5699 140.225 38.4218 139.851 38.4959C139.402 38.6441 139.252 39.0886 139.327 39.4591L141.048 44.4979L138.055 43.3123L136.409 38.5699C136.259 38.1253 135.81 37.9772 135.436 38.0513C134.987 38.1995 134.837 38.644 134.912 39.0145L136.109 42.4972L133.864 41.608L132.741 38.4218C132.592 37.9772 132.143 37.8289 131.769 37.903C131.32 38.0512 131.17 38.4959 131.245 38.8664L131.918 40.7929L129.149 39.6814C128.775 39.5332 128.251 39.7555 128.102 40.126C127.952 40.4965 128.176 41.0152 128.551 41.1634L131.32 42.2749L129.449 43.2382C129.074 43.4605 128.925 43.9051 129.149 44.2756C129.224 44.4238 129.374 44.572 129.523 44.6461C129.748 44.7202 129.972 44.7202 130.197 44.572L133.191 42.9418L135.436 43.831L132.143 45.6094C131.769 45.8317 131.619 46.2763 131.843 46.6468C131.918 46.795 132.068 46.9432 132.218 47.0173C132.442 47.0914 132.667 47.0914 132.891 46.9432L137.381 44.572L140.076 45.6094L135.735 47.9065C135.361 48.1288 135.211 48.5734 135.436 48.9439C135.51 49.0921 135.66 49.2403 135.81 49.3144C136.034 49.3885 136.259 49.3885 136.483 49.2403L141.946 46.2763L143.743 47.0173L138.13 49.9072C137.905 50.0554 137.681 50.2777 137.681 50.5741C137.681 50.8705 137.83 51.1669 138.13 51.241L144.117 54.4273L142.545 55.0942L136.483 52.1302C136.109 51.9079 135.585 52.1302 135.436 52.5007C135.286 52.8712 135.436 53.3899 135.81 53.5381L140.674 55.9093L137.681 57.169L133.116 54.946C132.741 54.7237 132.218 54.946 132.068 55.3165C131.843 55.687 132.068 56.2057 132.442 56.3539L135.81 57.9841L133.565 58.9473L130.496 57.4654C130.122 57.2431 129.598 57.4654 129.449 57.8359C129.224 58.2064 129.449 58.7251 129.823 58.8733L131.694 59.7624L129 60.948C128.625 61.0962 128.401 61.6149 128.625 61.9854C128.7 62.2077 128.85 62.3559 129.074 62.43C129.299 62.5041 129.449 62.5041 129.673 62.43L132.367 61.2444L131.769 63.2451C131.619 63.6156 131.843 64.0602 132.218 64.2084H132.292C132.741 64.3566 133.116 64.1343 133.265 63.6897L134.238 60.4293L136.483 59.4661L135.436 63.0228C135.286 63.3933 135.51 63.8379 135.885 63.9861H135.959C136.409 64.1343 136.783 63.912 136.932 63.4674L138.354 58.651L141.048 57.4654L139.627 62.1336C139.477 62.5041 139.701 62.9487 140.076 63.0969H140.15C140.599 63.2451 140.974 63.0228 141.123 62.5782L142.919 56.6503L144.715 55.8352L143.219 61.1703C143.144 61.4667 143.219 61.7631 143.443 61.9854C143.668 62.2077 143.967 62.2818 144.266 62.1336L150.179 60.1329L149.355 62.2818L143.443 64.2825C142.994 64.4307 142.845 64.8753 142.919 65.2458C142.994 65.4681 143.144 65.6163 143.368 65.6904C143.518 65.7645 143.743 65.7645 143.892 65.6904L148.532 64.1343L147.335 67.0983L142.994 68.5803C142.545 68.7285 142.395 69.1731 142.47 69.5436C142.545 69.7659 142.695 69.9141 142.919 69.9882C143.069 70.0623 143.294 70.0623 143.443 69.9882L146.512 68.9508L145.613 71.1738L142.845 72.1371C142.395 72.2853 142.246 72.7299 142.321 73.1004C142.396 73.3227 142.545 73.4709 142.77 73.545C142.919 73.6191 143.144 73.6191 143.294 73.545L144.79 73.0263L143.668 75.9162C143.518 76.2867 143.743 76.8054 144.117 76.9536C144.491 77.1018 145.015 76.8795 145.164 76.509L146.512 73.0263L147.709 75.2493C147.784 75.3975 147.933 75.5457 148.083 75.6198C148.308 75.6939 148.532 75.6939 148.757 75.5457C149.131 75.3234 149.281 74.8788 149.056 74.5083L147.26 71.1738C147.26 71.1738 147.26 71.0997 147.185 71.0997L148.083 68.8767L150.104 72.5817C150.179 72.7299 150.328 72.8781 150.478 72.9522C150.702 73.0263 150.927 73.0263 151.151 72.8781C151.526 72.6558 151.675 72.2112 151.451 71.8407L148.906 67.0983C148.906 67.0983 148.906 67.0242 148.831 67.0242L149.879 64.3566L152.424 69.099C152.499 69.2472 152.648 69.3954 152.798 69.4695C153.022 69.5436 153.247 69.5436 153.471 69.3954C153.846 69.1731 153.995 68.7285 153.771 68.358L150.553 62.5041L151.376 60.4293L154.07 65.9868C154.145 66.135 154.295 66.2832 154.519 66.3573C154.594 66.4314 154.744 66.4314 154.818 66.4314C155.118 66.4314 155.417 66.2091 155.492 65.9127L157.887 59.9848L159.084 62.7264L156.315 68.2839C156.091 68.6544 156.315 69.1731 156.689 69.3213H156.764C157.138 69.4695 157.587 69.3213 157.737 68.9508L159.907 64.5789L161.18 67.5429L159.159 71.6184C158.935 71.9889 159.159 72.5076 159.533 72.6558H159.608C159.982 72.804 160.431 72.6558 160.581 72.2853L162.003 69.3954L162.976 71.6184L161.704 74.2119C161.479 74.5824 161.704 75.1011 162.078 75.2493H162.153C162.527 75.3975 162.976 75.2493 163.125 74.8788L163.799 73.4709L165.071 76.2867C165.146 76.509 165.296 76.6572 165.52 76.7313C165.745 76.8054 165.894 76.8054 166.119 76.7313C166.493 76.5831 166.718 76.0644 166.493 75.6939L164.996 72.2853L167.466 73.0263C167.915 73.1745 168.289 72.9522 168.439 72.5076C168.589 72.063 168.364 71.6925 167.915 71.5443L164.248 70.4328H164.173L163.2 68.2098L167.242 69.3954C167.691 69.5436 168.065 69.3213 168.214 68.8767C168.364 68.4321 168.065 68.0616 167.691 67.9134L162.452 66.3573H162.377L161.18 63.6897L166.343 65.2458C166.792 65.394 167.167 65.1717 167.316 64.7271C167.466 64.2825 167.241 63.912 166.792 63.7638L160.356 61.8373L159.234 59.3178L164.697 61.3185C164.996 61.3926 165.296 61.3926 165.52 61.1703C165.745 60.948 165.82 60.6517 165.745 60.3553L164.173 54.8719L166.643 55.8352L168.663 61.689C168.738 61.9113 168.888 62.0595 169.112 62.1336C169.262 62.2077 169.487 62.2077 169.636 62.1336C170.085 61.9854 170.235 61.5408 170.16 61.1703L168.589 56.5762L171.582 57.7618L173.079 62.0595C173.154 62.2818 173.303 62.43 173.528 62.5041C173.678 62.5782 173.902 62.5782 174.052 62.5041C174.501 62.3559 174.65 61.9113 174.576 61.5408L173.528 58.5028L175.773 59.3919L176.746 62.1336C176.821 62.3559 176.97 62.5042 177.195 62.5782C177.345 62.6523 177.569 62.6523 177.719 62.5782C178.168 62.43 178.317 61.9854 178.243 61.6149L177.719 60.1329L180.637 61.2444C181.012 61.3926 181.535 61.1703 181.685 60.7998C182.284 60.8739 182.059 60.4293 181.685 60.2071ZM154.22 37.1621L157.438 42.1267L154.818 48.7216L151.9 42.2008L154.22 37.1621ZM144.341 40.9411L150.478 42.7936L153.322 49.3144L146.661 46.7209L144.341 40.9411ZM146.063 53.9086L140.3 50.8705L145.838 47.9806L153.172 50.7964L146.063 53.9086ZM145.239 60.5034L146.661 55.3165L153.397 52.4266L151.002 58.5028L145.239 60.5034ZM163.5 48.0547L168.214 50.0554L163.35 53.0935L157.288 50.7223L163.5 48.0547ZM158.935 42.6454L163.949 40.9411L162.751 46.6468L156.24 49.4626L158.935 42.6454ZM155.118 64.0602L152.573 58.7992L154.968 52.723L157.438 58.2805L155.118 64.0602ZM164.323 59.7624L158.86 57.7618L156.39 52.1302L162.826 54.6496L164.323 59.7624Z" fill="white"/>
<path d="M195.886 111.324C185.685 109.212 174.973 111.179 166.229 116.933C157.485 122.761 152.457 132.012 145.899 139.88C138.977 148.184 129.941 153.283 118.865 152.191C116.169 151.972 113.473 151.389 110.923 150.515C118.064 144.105 122.509 134.271 120.322 124.655C118.064 114.894 109.101 107.318 99.2636 106.152C88.552 104.841 79.6621 112.126 80.7552 123.271C81.8482 134.271 91.2482 143.959 100.284 149.423C101.741 150.297 103.271 151.098 104.874 151.826C102.98 153.065 100.94 154.012 98.8264 154.74C86.2932 159.038 72.6668 155.614 60.3521 152.409C47.5274 149.058 33.5368 145.27 20.3477 149.423C10.7291 152.482 2.05782 159.475 0.0175135 169.746C-0.20109 170.985 1.69348 171.568 1.98496 170.256C4.89967 157.727 17.7244 150.807 29.8205 150.151C45.1956 149.277 59.6964 155.76 74.6343 158.237C86.0017 160.131 98.2435 159.839 107.862 153.065C114.93 155.76 122.727 156.707 130.087 154.813C142.401 151.754 149.251 141.191 156.392 131.648C160.764 125.821 165.719 120.503 172.423 117.298C179.491 113.947 187.434 112.927 195.085 114.311C196.98 114.675 197.854 111.761 195.886 111.324ZM91.6853 137.913C87.6048 133.251 83.7427 127.205 84.0342 120.721C84.3986 113.801 89.2807 109.357 96.1303 109.066C107.279 108.556 117.772 118.026 118.209 129.171C118.501 137.112 114.274 144.542 108.081 149.495C101.814 147.019 96.0574 142.939 91.6853 137.913Z" fill="#7DFBF8" fill-opacity="0.92"/>
</svg>
