<svg width="233" height="177" viewBox="0 0 233 177" fill="none" xmlns="http://www.w3.org/2000/svg">
<path d="M52.9472 34.274C48.3121 27.028 50.5315 29.4934 56.758 37.4889C58.3711 39.4428 60.1778 41.7824 62.3241 44.3343C64.3906 46.8931 66.7967 49.6642 69.303 52.6681C70.636 54.1633 71.969 55.6585 73.3088 57.2335C74.0219 58.0576 74.7283 58.8018 75.4415 59.6258C76.1547 60.4498 76.941 61.1873 77.6541 62.0113C79.1604 63.6526 80.6666 65.2939 82.2594 67.0083C83.8454 68.6429 85.4382 70.3572 87.1109 72.0648C93.7149 78.8222 100.891 85.6919 108.273 92.142C115.655 98.5921 123.017 104.803 130.145 110.149C131.004 110.8 131.87 111.53 132.729 112.181C133.589 112.832 134.448 113.483 135.301 114.054C137.012 115.276 138.644 116.504 140.276 117.733C143.527 120.03 146.604 122.181 149.342 124.12C152.159 126.053 154.63 127.693 156.769 129.2C158.98 130.621 160.771 131.836 162.144 132.845C164.881 134.784 165.155 135.163 163.483 134.42C162.644 134.009 161.299 133.319 159.528 132.343C157.756 131.368 155.566 130.186 153.101 128.626C143.185 122.632 128.092 112.494 113.195 99.9266C98.2324 87.5256 83.6319 72.762 72.834 60.1686C70.1477 56.9387 67.5683 54.0214 65.4017 51.23C63.1552 48.4453 61.1686 45.8797 59.4485 43.6133C57.7285 41.3468 56.275 39.3794 55.1816 37.8639C54.2342 36.1752 53.4073 34.9587 52.9472 34.274Z" fill="#2A4D2D"/>
<path d="M36.8791 38.2101C42.1405 41.4628 50.4896 40.3526 56.3975 39.8516C57.4354 39.7635 57.491 41.3671 56.4531 41.4551C50.219 41.9034 41.7171 43.107 36.116 39.6418C35.2634 39.0708 36.0265 37.6391 36.8791 38.2101Z" fill="#2A4D2D"/>
<path d="M57.314 16.5356C60.1806 24.7357 60.2664 33.3325 57.5038 41.5276C57.1858 42.5195 55.6283 42.1691 55.9462 41.1772C58.5695 33.2352 58.5108 24.9577 55.7443 16.9904C55.4236 16.0526 56.9932 15.5979 57.314 16.5356Z" fill="#2A4D2D"/>
<path d="M63.9984 18.5411C64.436 26.5452 62.4311 34.1935 58.2624 40.98C57.6914 41.8325 56.2664 41.1493 56.8306 40.2169C60.86 33.6835 62.8054 26.2814 62.3948 18.5967C62.3867 17.552 63.9902 17.4964 63.9984 18.5411Z" fill="#2A4D2D"/>
<path d="M71.9166 24.7047C68.8995 31.7956 64.0041 37.5984 57.5294 41.8465C56.6918 42.4 55.7783 41.1105 56.689 40.4703C62.8511 36.3292 67.5206 30.7064 70.4849 23.9416C70.8895 23.0228 72.3212 23.7859 71.9166 24.7047Z" fill="#2A4D2D"/>
<path d="M37.2584 43.6473C44.3411 45.6198 51.4858 44.5313 57.7481 40.6229C58.5857 40.0694 59.5059 41.4388 58.5885 41.999C52.0272 46.174 44.4034 47.3031 36.9148 45.2847C35.9161 44.8869 36.2665 43.3294 37.2584 43.6473Z" fill="#2A4D2D"/>
<path d="M39.1519 50.8022C46.8487 49.5866 53.4236 45.5713 58.2053 39.3761C58.8561 38.5167 59.9956 39.6263 59.4246 40.4788C54.4372 47.0935 47.3833 51.1495 39.2873 52.399C38.2562 52.5669 38.2006 50.9633 39.1519 50.8022Z" fill="#2A4D2D"/>
<path d="M45.2983 16.1071C51.6735 21.1148 55.1977 28.5355 55.163 36.66C55.1374 37.3054 54.519 37.5991 54.0196 37.4003C47.5282 34.8148 42.3249 30.3509 38.7494 24.2213C38.269 23.2971 39.5653 22.4634 40.1256 23.3808C43.5211 29.2845 48.4646 33.5292 54.7827 35.9685C54.4039 36.2419 54.0182 36.4354 53.6393 36.7088C53.7078 28.9835 50.3907 22.1082 44.2686 17.2398C43.4161 16.6688 44.5256 15.5293 45.2983 16.1071Z" fill="#2A4D2D"/>
<path d="M53.1139 35.2252C47.8753 29.3973 43.0819 23.1297 38.8271 16.5752C38.2736 15.7376 39.6429 14.8173 40.2032 15.7347C44.4513 22.2094 49.0715 28.331 54.2234 34.0857C54.8432 34.7568 53.8203 35.9694 53.1139 35.2252Z" fill="#2A4D2D"/>
<path d="M51.3621 61.0255C58.622 61.2943 65.714 60.5319 72.7247 58.8116C73.749 58.5639 74.2038 60.1335 73.1795 60.3812C66.0091 62.1152 58.7574 62.891 51.4177 62.629C50.3663 62.5573 50.3107 60.9538 51.3621 61.0255Z" fill="#2A4D2D"/>
<path d="M52.9199 68.0499C60.0119 67.2876 68.2541 65.8648 72.7097 59.6168C76.7337 53.9684 77.0959 46.8614 77.4121 40.1604C77.4837 39.109 79.0872 39.0534 79.0156 40.1049C78.667 47.3715 78.1993 55.1307 73.6435 61.1459C68.8685 67.4209 60.3869 68.864 53.0554 69.6466C51.9376 69.7414 51.882 68.1379 52.9199 68.0499Z" fill="#2A4D2D"/>
<path d="M72.084 59.8319C77.3665 54.8004 80.9439 48.6269 82.6836 41.6444C82.9217 40.6592 84.4792 41.0096 84.2411 41.9947C82.4486 49.3034 78.652 55.7367 73.2234 60.9414C72.4792 61.6478 71.3397 60.5383 72.084 59.8319Z" fill="#2A4D2D"/>
<path d="M71.6553 40.5671C73.2307 43.9716 74.101 47.5967 74.0201 51.383C73.9634 53.5589 73.9298 57.904 72.3751 59.4832C70.8935 60.9759 68.4563 59.7352 66.7323 59.3185C62.9582 58.4324 59.2301 57.1404 55.6482 55.6751C54.7293 55.2706 55.4126 53.8456 56.4113 54.2434C59.0812 55.3839 61.8904 56.2714 64.6929 57.0791C67.0029 57.7677 70.4319 59.3264 71.8052 56.5563C74.0012 52.1082 72.2077 45.1841 70.2453 41.0083C69.6851 40.0909 71.1749 39.6429 71.6553 40.5671Z" fill="#2A4D2D"/>
<path d="M67.7497 80.863C75.6618 81.2373 83.379 80.2611 90.8944 77.8547C91.6792 77.6273 92.1597 78.5515 91.728 79.151C86.9395 85.2663 80.4581 89.4346 72.8885 91.2023C71.8641 91.45 71.4093 89.8804 72.4337 89.6327C79.7705 87.9651 85.9462 83.9836 90.5886 78.0414C90.8687 78.5002 91.1421 78.879 91.4222 79.3377C83.7539 81.8376 75.8771 82.8273 67.8851 82.4598C66.7539 82.3949 66.6983 80.7914 67.7497 80.863Z" fill="#2A4D2D"/>
<path d="M89.0692 78.0912C89.74 72.7272 89.6057 67.351 88.6662 61.9627C88.4984 60.9315 89.9882 60.4835 90.2359 61.5079C91.2755 67.1289 91.3503 72.7514 90.7066 78.4348C90.4753 79.4998 88.9177 79.1494 89.0692 78.0912Z" fill="#2A4D2D"/>
<path d="M89.841 78.5879C93.3928 73.0599 95.1934 66.7958 95.1172 60.2085C95.109 59.1639 96.7126 59.1083 96.7208 60.153C96.8173 66.9798 94.9639 73.5699 91.266 79.2711C90.7018 80.2035 89.2768 79.5202 89.841 78.5879Z" fill="#2A4D2D"/>
<path d="M108.286 96.9664C100.415 101.815 91.7223 104.563 82.5206 105.102C81.4827 105.19 81.4272 103.587 82.465 103.499C91.4272 102.98 99.7274 100.346 107.373 95.6769C108.29 95.1166 109.204 96.4062 108.286 96.9664Z" fill="#2A4D2D"/>
<path d="M109.268 96.2389C104.223 104.065 95.8712 107.989 87.6522 111.581C86.7212 111.982 86.2732 110.492 87.1974 110.012C95.0308 106.613 103.077 102.875 107.916 95.469C108.328 94.63 109.759 95.3931 109.268 96.2389Z" fill="#2A4D2D"/>
<path d="M109.446 96.4657C106.012 105.281 100.287 112.682 92.8096 118.382C91.9788 119.015 91.1383 117.639 91.9692 117.006C99.2205 111.485 104.713 104.185 108.094 95.6959C108.418 94.7838 109.85 95.5469 109.446 96.4657Z" fill="#2A4D2D"/>
<path d="M107.236 96.0088C109.129 88.9329 109.644 81.7326 108.788 74.4877C108.7 73.4498 110.303 73.3942 110.391 74.4321C111.181 81.8434 110.679 89.2034 108.8 96.439C108.555 97.3443 106.998 96.994 107.236 96.0088Z" fill="#2A4D2D"/>
<path d="M108.273 95.9222C111.342 88.5052 113.254 80.704 114.021 72.6782C114.099 71.7066 115.696 71.5712 115.624 72.6226C114.885 80.9678 112.907 88.9354 109.704 96.6853C109.3 97.6042 107.868 96.8411 108.273 95.9222Z" fill="#2A4D2D"/>
<path d="M108.77 95.0768C114.902 88.6867 119.329 81.1545 121.832 72.7402C122.15 71.7483 123.707 72.0987 123.389 73.0906C120.754 81.8378 116.267 89.6162 109.909 96.1863C109.245 96.886 108.105 95.7764 108.77 95.0768Z" fill="#2A4D2D"/>
<path d="M127.745 109.308C121.854 116.643 114.189 122.037 105.364 125.118C104.426 125.439 103.899 123.956 104.909 123.548C113.582 120.561 120.86 115.36 126.605 108.199C127.183 107.426 128.402 108.529 127.745 109.308Z" fill="#2A4D2D"/>
<path d="M127.675 108.51C123.854 116.553 117.881 122.93 110.043 127.213C109.118 127.694 108.285 126.397 109.202 125.837C116.728 121.661 122.562 115.537 126.243 107.747C126.654 106.908 128.079 107.591 127.675 108.51Z" fill="#2A4D2D"/>
<path d="M128.047 108.157C126.211 117.801 121.892 126.611 115.355 133.92C114.698 134.699 113.478 133.596 114.136 132.817C120.527 125.681 124.706 117.125 126.482 107.727C126.72 106.742 128.278 107.092 128.047 108.157Z" fill="#2A4D2D"/>
<path d="M126.922 90.158C128.456 96.863 128.379 103.544 126.772 110.193C126.273 109.994 125.774 109.796 125.281 109.676C128.145 102.679 129.698 95.3906 130.186 87.8709C130.258 86.8195 131.861 86.7639 131.79 87.8154C131.329 95.6544 129.716 103.189 126.713 110.44C126.381 111.272 124.97 110.748 125.221 109.923C126.769 103.519 126.873 97.1581 125.446 90.7657C125.192 89.6615 126.675 89.1337 126.922 90.158Z" fill="#2A4D2D"/>
<path d="M125.776 109.796C127.667 106.5 130.418 103.854 132.396 100.631C134.521 97.2343 136.132 93.4791 137.258 89.6847C137.575 88.6928 139.133 89.0432 138.815 90.0351C137.756 93.663 136.284 97.1652 134.392 100.462C132.281 104.018 129.238 107.01 127.207 110.56C126.636 111.412 125.205 110.649 125.776 109.796Z" fill="#2A4D2D"/>
<path d="M145.163 122.223C141.004 131.019 132.134 135.471 123.696 139.322C122.765 139.723 122.317 138.233 123.241 137.753C131.294 134.094 139.778 129.837 143.731 121.46C144.136 120.541 145.568 121.304 145.163 122.223Z" fill="#2A4D2D"/>
<path d="M145.423 122.443C141.536 130.653 136.117 137.867 129.306 143.833C128.562 144.539 127.342 143.436 128.086 142.73C134.825 136.851 140.098 129.81 143.912 121.687C144.403 120.841 145.828 121.524 145.423 122.443Z" fill="#2A4D2D"/>
<path d="M145.689 122.741C143.466 131.614 139.486 139.672 133.907 146.899C133.249 147.679 132.117 146.649 132.688 145.797C138.127 138.822 141.961 130.938 144.051 122.398C144.369 121.406 145.927 121.756 145.689 122.741Z" fill="#2A4D2D"/>
<path d="M146.07 98.8278C146.348 106.845 145.408 114.725 143.163 122.394C142.845 123.386 141.288 123.035 141.606 122.043C143.777 114.461 144.731 106.741 144.466 98.8834C144.458 97.8388 146.061 97.7832 146.07 98.8278Z" fill="#2A4D2D"/>
<path d="M142.529 122.447C144.754 115.504 146.907 108.647 149.132 101.704C149.45 100.712 151.008 101.062 150.69 102.054C148.464 108.998 146.312 115.854 144.086 122.798C143.769 123.79 142.211 123.439 142.529 122.447Z" fill="#2A4D2D"/>
<path d="M143.451 121.967C148.44 116.317 152.577 110.096 155.774 103.232C156.178 102.313 157.61 103.076 157.205 103.995C153.935 110.946 149.733 117.333 144.671 123.07C143.933 123.856 142.714 122.753 143.451 121.967Z" fill="#2A4D2D"/>
<path d="M26.8754 84.6673C23.0373 80.4045 24.7768 81.7962 29.7594 86.3584C31.015 87.4553 32.502 88.8258 34.1825 90.3142C35.863 91.8027 37.737 93.4091 39.7078 95.0744C40.7321 95.8977 41.7754 96.7987 42.8965 97.6809C43.4181 98.1315 44.0175 98.5631 44.5392 99.0137C45.1386 99.4453 45.6602 99.8958 46.2597 100.327C47.4587 101.191 48.5987 102.151 49.8165 103.092C51.0344 104.033 52.3301 104.955 53.6258 105.878C58.7308 109.586 64.2818 113.433 69.8941 116.852C75.5063 120.272 81.1775 123.595 86.4639 126.352C87.1224 126.687 87.7808 127.022 88.4392 127.357C89.0977 127.692 89.7561 128.027 90.4146 128.362C91.7315 129.031 92.9516 129.642 94.1717 130.253C96.593 131.397 98.8397 132.5 100.971 133.467C103.024 134.453 104.943 135.224 106.531 135.993C108.178 136.665 109.495 137.335 110.522 137.828C112.575 138.813 112.806 139.087 111.565 138.729C110.944 138.549 109.955 138.212 108.695 137.776C107.435 137.34 105.807 136.746 103.985 136.034C96.6974 133.185 85.4026 128.094 74.138 121.429C62.8145 114.861 51.5212 106.718 42.9229 99.4884C40.8365 97.6862 38.7689 95.9619 36.9728 94.3366C35.1766 92.7114 33.5929 91.2818 32.2026 89.9703C30.8124 88.6587 29.6346 87.543 28.7471 86.6041C27.8785 85.743 27.2224 85.0778 26.8754 84.6673Z" fill="#2A4D2D"/>
<path d="M16.3183 89.0458C20.1744 90.6658 25.764 88.8968 29.7539 88.0108C30.4547 87.8407 30.6225 88.8718 29.9217 89.0419C25.7171 90.0625 20.1087 91.7536 15.9812 90.0346C15.3416 89.7776 15.6788 88.7888 16.3183 89.0458Z" fill="#2A4D2D"/>
<path d="M28.1084 72.4137C30.8329 77.524 31.7265 83.2435 30.6569 89.0273C30.4966 89.7259 29.4088 89.6601 29.5691 88.9616C30.5986 83.3524 29.7617 77.8664 27.075 72.9119C26.7681 72.3268 27.8015 71.8286 28.1084 72.4137Z" fill="#2A4D2D"/>
<path d="M32.8664 72.9908C33.8991 78.2643 33.3579 83.5077 31.1082 88.506C30.8512 89.1456 29.7846 88.8273 30.0416 88.1878C32.1733 83.3829 32.7523 78.2953 31.6796 73.1964C31.6062 72.5546 32.6963 72.29 32.8664 72.9908Z" fill="#2A4D2D"/>
<path d="M38.8269 76.1592C37.4125 81.2022 34.6813 85.5754 30.77 89.1632C30.2227 89.6259 29.5288 88.8049 30.0761 88.3423C33.8694 84.948 36.5417 80.6715 37.8381 75.8221C37.9394 75.2203 39.006 75.5386 38.8269 76.1592Z" fill="#2A4D2D"/>
<path d="M17.0805 92.5685C22.0713 93.0886 26.8232 91.6053 30.7133 88.27C31.2607 87.8074 31.9546 88.6283 31.4073 89.091C27.3804 92.542 22.2581 94.1976 17.0147 93.6563C16.3351 93.5739 16.4198 92.564 17.0805 92.5685Z" fill="#2A4D2D"/>
<path d="M19.1173 97.1893C24.2396 95.5337 28.3633 92.1417 30.9411 87.4759C31.2948 86.8953 32.1657 87.426 31.8308 88.0844C29.0573 92.9626 24.7189 96.4892 19.2851 98.2204C18.6032 98.4684 18.4165 97.3594 19.1173 97.1893Z" fill="#2A4D2D"/>
<path d="M19.8726 73.5038C24.7131 76.1217 27.7913 80.6513 28.5315 86.0783C28.5481 86.4865 28.2155 86.8146 27.7695 86.6755C23.0735 85.6716 19.1062 83.2541 16.1579 79.5999C15.6953 79.0526 16.5163 78.3586 16.9789 78.9059C19.8115 82.4233 23.5852 84.7229 28.1066 85.6867C27.833 85.918 27.6372 86.1305 27.3446 86.2839C26.6801 81.1684 23.7553 76.9313 19.1084 74.4314C18.6835 74.0398 19.2921 73.1501 19.8726 73.5038Z" fill="#2A4D2D"/>
<path d="M27.0251 85.2916C22.9278 81.9987 19.0853 78.3966 15.4975 74.4854C15.0348 73.9381 15.8558 73.2441 16.3184 73.7914C19.8095 77.6437 23.5553 81.1868 27.6337 84.4019C28.2143 84.7557 27.6057 85.6454 27.0251 85.2916Z" fill="#2A4D2D"/>
<path d="M28.3288 102.537C33.2886 101.91 38.0004 100.601 42.6579 98.7289C43.3397 98.4809 43.819 99.4364 43.1371 99.6844C38.4208 101.654 33.631 102.981 28.5934 103.627C27.8737 103.719 27.6091 102.629 28.3288 102.537Z" fill="#2A4D2D"/>
<path d="M30.0784 107.058C34.7903 105.749 40.283 103.921 42.7051 99.2934C44.8912 95.0525 44.3991 90.3073 43.9825 85.8737C43.9091 85.2319 44.9992 84.9673 45.0915 85.6869C45.5247 90.5288 45.9556 95.7011 43.5147 100.251C40.8591 104.936 35.3074 106.861 30.343 108.148C29.6422 108.318 29.3776 107.228 30.0784 107.058Z" fill="#2A4D2D"/>
<path d="M42.2592 99.4849C45.3563 95.6 47.2333 91.1043 47.6944 86.2102C47.7768 85.5306 48.8646 85.5964 48.7822 86.276C48.2621 91.2668 46.364 96.015 43.1489 100.093C42.7763 100.596 41.8275 100.084 42.2592 99.4849Z" fill="#2A4D2D"/>
<path d="M40.155 86.7213C41.5596 88.7715 42.457 91.1096 42.8093 93.5801C42.9937 95.0194 43.3627 97.8981 42.4404 99.1938C41.5582 100.315 39.7931 99.8364 38.6085 99.7117C35.9279 99.5378 33.3463 99.0926 30.7269 98.4917C30.0284 98.3314 30.4434 97.3237 31.064 97.5029C32.9849 97.9436 34.9648 98.2875 36.9068 98.4757C38.5964 98.6428 40.9822 99.3004 41.6565 97.3228C42.6891 94.104 40.7954 89.699 39.1028 87.1417C38.7369 86.6533 39.7703 86.1551 40.155 86.7213Z" fill="#2A4D2D"/>
<path d="M41.4053 113.956C46.7922 113.391 51.9335 111.813 56.7889 109.398C57.2962 109.11 57.7777 109.735 57.464 110.141C54.7895 114.748 50.8404 118.18 45.8126 120.225C45.1307 120.473 44.6514 119.517 45.3333 119.269C50.1465 117.359 53.9587 114.043 56.4964 109.551C56.7277 109.825 56.959 110.099 57.1715 110.294C52.257 112.807 46.9412 114.344 41.4764 114.929C40.8535 115.08 40.6667 113.971 41.4053 113.956Z" fill="#2A4D2D"/>
<path d="M55.5541 109.778C55.5012 106.163 54.8843 102.603 53.7223 99.1743C53.4933 98.5703 54.5078 97.9943 54.6779 98.695C55.8965 102.357 56.5512 106.073 56.6419 109.844C56.6374 110.505 55.5496 110.439 55.5541 109.778Z" fill="#2A4D2D"/>
<path d="M56.1824 109.956C58.076 105.869 58.6694 101.52 58.0192 97.1427C57.927 96.423 58.9581 96.2552 59.1282 96.956C59.894 101.47 59.2606 105.993 57.249 110.274C56.9141 110.933 55.8475 110.615 56.1824 109.956Z" fill="#2A4D2D"/>
<path d="M70.4406 120.102C65.5738 124.169 59.9964 127.007 53.7296 128.363C53.0288 128.533 52.8421 127.424 53.5618 127.332C59.595 126.032 65.0356 123.31 69.6877 119.377C70.294 118.818 70.9879 119.639 70.4406 120.102Z" fill="#2A4D2D"/>
<path d="M71.0402 119.543C68.3967 125.296 63.0673 128.816 57.8557 132.142C57.2895 132.527 56.8103 131.571 57.3765 131.187C62.3143 128.092 67.4291 124.707 69.9736 119.224C70.3085 118.566 71.2972 118.903 71.0402 119.543Z" fill="#2A4D2D"/>
<path d="M71.2388 119.66C69.6998 125.888 66.5913 131.424 62.0314 136.077C61.503 136.617 60.8091 135.796 61.3375 135.256C65.7605 130.719 68.7321 125.298 70.1722 119.342C70.3324 118.643 71.3991 118.962 71.2388 119.66Z" fill="#2A4D2D"/>
<path d="M69.6613 119.629C70.2002 114.716 69.9417 109.914 68.6142 105.125C68.4441 104.424 69.553 104.237 69.7231 104.938C70.9728 109.747 71.347 114.685 70.7491 119.695C70.6667 120.375 69.5789 120.309 69.6613 119.629Z" fill="#2A4D2D"/>
<path d="M70.347 119.383C71.7047 114.107 72.3049 108.766 71.9729 103.323C71.9775 102.662 72.9897 102.416 73.0819 103.136C73.3738 108.754 72.8114 114.25 71.4137 119.701C71.1756 120.419 70.1868 120.082 70.347 119.383Z" fill="#2A4D2D"/>
<path d="M70.6172 118.821C74.1294 113.928 76.4214 108.425 77.2975 102.523C77.3798 101.844 78.4677 101.909 78.3853 102.589C77.4691 108.665 75.137 114.343 71.507 119.429C71.1343 119.932 70.1667 119.343 70.6172 118.821Z" fill="#2A4D2D"/>
<path d="M84.8529 126.167C81.5698 131.663 76.8754 136.101 71.1801 139.132C70.5171 139.458 70.0378 138.503 70.7008 138.177C76.2593 135.261 80.739 130.958 83.9631 125.558C84.3169 124.978 85.1878 125.508 84.8529 126.167Z" fill="#2A4D2D"/>
<path d="M84.7203 125.621C82.8932 131.341 79.4779 136.293 74.5945 139.952C74.0472 140.414 73.2753 139.612 73.9005 139.131C78.6282 135.51 81.9445 130.83 83.7126 125.206C83.9107 124.663 84.8995 125 84.7203 125.621Z" fill="#2A4D2D"/>
<path d="M84.9723 125.312C84.6745 131.898 82.5904 138.258 78.8401 143.868C78.4864 144.448 77.5187 143.859 77.9504 143.259C81.5827 137.843 83.6267 131.658 83.8844 125.246C83.889 124.586 84.9768 124.651 84.9723 125.312Z" fill="#2A4D2D"/>
<path d="M82.4523 113.557C84.1525 117.844 84.7248 122.239 84.2849 126.881C83.9357 126.801 83.5864 126.721 83.2371 126.641C84.4958 121.635 84.8601 116.682 84.448 111.588C84.3747 110.946 85.4648 110.682 85.557 111.401C86.0069 116.651 85.6214 121.857 84.3038 126.959C84.1246 127.579 83.1737 127.398 83.256 126.718C83.7527 122.31 83.1403 118.089 81.5558 113.939C81.2489 113.354 82.2044 112.875 82.4523 113.557Z" fill="#2A4D2D"/>
<path d="M83.5723 126.644C84.5603 124.26 86.1099 122.153 87.1947 119.828C88.3196 117.329 88.9984 114.691 89.4247 112.031C89.5071 111.352 90.5949 111.417 90.5125 112.097C90.1452 114.66 89.5064 117.123 88.5184 119.507C87.4314 122.162 85.667 124.404 84.6578 127.04C84.3229 127.698 83.3341 127.361 83.5723 126.644Z" fill="#2A4D2D"/>
<path d="M97.9272 132.806C95.9988 139.128 90.3557 143.054 85.0073 146.495C84.4411 146.88 83.9618 145.925 84.528 145.54C89.6428 142.155 95.0123 138.46 96.8605 132.487C97.0987 131.77 98.0874 132.107 97.9272 132.806Z" fill="#2A4D2D"/>
<path d="M98.1192 132.924C96.252 138.819 93.3394 144.143 89.3034 148.916C88.8529 149.437 87.9631 148.829 88.4136 148.307C92.3907 143.631 95.3222 138.385 97.1304 132.587C97.2906 131.888 98.2794 132.226 98.1192 132.924Z" fill="#2A4D2D"/>
<path d="M98.3352 133.119C97.6716 139.217 95.7855 145.034 92.6393 150.415C92.2855 150.995 91.4147 150.465 91.7495 149.806C94.7589 144.541 96.6049 138.899 97.2285 132.976C97.3109 132.296 98.3987 132.362 98.3352 133.119Z" fill="#2A4D2D"/>
<path d="M96.2648 117.13C97.2197 122.422 97.3581 127.748 96.6022 133.126C96.5198 133.805 95.4319 133.74 95.5143 133.06C96.2891 127.76 96.1885 122.59 95.2526 117.375C95.0825 116.675 96.1726 116.41 96.2648 117.13Z" fill="#2A4D2D"/>
<path d="M96.1282 133.24C96.9386 128.426 97.8268 123.593 98.6371 118.78C98.7195 118.1 99.8852 118.147 99.7249 118.845C98.9146 123.659 98.0264 128.492 97.2161 133.306C97.1337 133.986 96.0458 133.92 96.1282 133.24Z" fill="#2A4D2D"/>
<path d="M96.693 132.856C99.521 128.542 101.709 123.97 103.239 119.064C103.4 118.366 104.485 118.762 104.306 119.383C102.795 124.367 100.548 129.035 97.6607 133.446C97.2101 133.967 96.3393 133.437 96.693 132.856Z" fill="#2A4D2D"/>
<path d="M11.9084 94.7661C10.7718 95.5862 11.1602 97.3223 12.5406 99.3763C13.921 101.43 16.3596 103.636 19.0106 105.502C21.6616 107.368 24.5981 108.807 26.8485 109.742C27.9338 110.213 28.9257 110.531 29.5915 110.796C30.2505 110.981 30.6633 111.107 30.6633 111.107C30.6633 111.107 30.3967 110.808 29.8702 110.29C29.3438 109.772 28.724 109.101 27.8444 108.21C26.2516 106.496 24.1986 104.097 22.2391 101.851C20.2727 99.5247 18.393 97.2718 16.7407 95.8037C15.0085 94.3423 13.4239 93.6726 11.9084 94.7661Z" fill="#5A7A1C"/>
<path d="M21.6569 92.0893C20.3267 92.5238 20.063 94.1544 20.5787 96.4426C21.0876 98.651 22.3761 101.517 24.0501 104.189C24.9636 105.479 25.8771 106.768 26.9367 107.885C27.9963 109.001 29.0356 109.878 29.9816 110.602C30.4146 110.967 30.9207 111.246 31.347 111.531C31.7733 111.817 32.1129 112.029 32.4458 112.162C33.0318 112.434 33.3714 112.646 33.3714 112.646C33.3714 112.646 33.1847 112.34 32.7313 111.735C32.5446 111.43 32.3578 111.124 32.0844 110.745C31.8111 110.366 31.6108 109.901 31.3238 109.362C30.2696 107.361 29.241 104.714 28.4451 101.967C27.5694 99.227 26.7803 96.5599 25.7261 94.5586C24.7584 92.6304 23.4593 91.5344 21.6569 92.0893Z" fill="#5A7A1C"/>
<path d="M8.77735 111.917C9.37148 113.234 10.749 113.358 12.4987 113.13C14.2416 112.821 16.523 112.225 18.891 111.703C21.2591 111.18 23.8003 110.804 25.7232 110.721C26.6813 110.64 27.4864 110.652 28.1251 110.598C28.6907 110.63 29.0101 110.603 29.0101 110.603C29.0101 110.603 28.7503 110.384 28.2441 110.105C27.7313 109.747 26.9721 109.329 26.0533 108.924C24.2088 108.035 21.4794 107.141 18.6377 106.819C17.1803 106.702 15.8163 106.737 14.459 106.852C13.1086 107.047 11.9313 107.388 10.9273 107.875C8.91923 108.85 8.07629 110.288 8.77735 111.917Z" fill="#5A7A1C"/>
<path d="M33.8339 97.2474C32.3968 97.3693 31.8935 99.0202 32.0899 101.335C32.1847 102.453 32.5393 103.79 33.0536 105.114C33.5679 106.437 34.3285 107.82 35.0823 109.123C35.916 110.419 36.9025 111.622 37.7957 112.672C38.7687 113.715 39.7282 114.599 40.5942 115.33C41.0273 115.695 41.4536 115.98 41.8 116.273C42.1464 116.565 42.4861 116.777 42.7391 116.917C43.252 117.275 43.5917 117.488 43.5917 117.488C43.5917 117.488 43.4049 117.182 43.1112 116.564C42.9245 116.258 42.8176 115.945 42.624 115.559C42.4305 115.174 42.2302 114.708 42.0299 114.243C41.5427 113.239 41.1285 112.148 40.7009 110.898C40.2732 109.648 39.8455 108.397 39.4976 107.14C38.7153 104.553 38.1861 102.105 37.4715 100.316C36.7298 98.208 35.6634 97.0118 33.8339 97.2474Z" fill="#5A7A1C"/>
<path d="M46.4559 104.861C45.0918 104.896 44.3355 106.408 44.4588 108.81C44.4805 110.014 44.8284 111.271 45.3495 112.675C45.8638 113.998 46.5445 115.388 47.458 116.677C48.2916 117.973 49.2714 119.096 50.3243 120.133C51.3703 121.09 52.3298 121.973 53.2622 122.537C53.6885 122.823 54.1147 123.108 54.5342 123.314C54.9537 123.52 55.2934 123.732 55.5465 123.871C56.1324 124.143 56.4653 124.276 56.4653 124.276C56.4653 124.276 56.2785 123.97 55.9118 123.438C55.7318 123.212 55.5383 122.827 55.3447 122.441C55.1512 122.056 54.8778 121.677 54.5977 121.218C54.1173 120.294 53.6233 119.21 53.1225 118.046C52.6218 116.882 52.1941 115.632 51.8462 114.375C51.4984 113.118 51.1573 111.941 50.9028 110.837C50.6483 109.732 50.3208 108.715 50 107.777C49.2922 106.068 48.3855 104.858 46.4559 104.861Z" fill="#5A7A1C"/>
<path d="M55.9861 109.119C54.656 109.554 54.399 111.264 55.0811 113.619C55.4222 114.796 56.0163 116.112 56.7702 117.415C57.524 118.719 58.5173 120.001 59.5837 121.197C60.6501 122.394 61.7895 123.503 62.9154 124.453C64.0414 125.403 65.1537 126.193 66.1727 126.83C67.1917 127.468 68.0375 127.959 68.6234 128.231C69.2094 128.503 69.549 128.715 69.549 128.715C69.549 128.715 69.3623 128.409 68.9089 127.804C68.5422 127.273 67.9887 126.435 67.3418 125.445C66.1346 123.537 64.7 120.844 63.4387 118.297C62.1706 115.671 61.1555 113.184 60.035 111.349C59.0078 109.667 57.7087 108.571 55.9861 109.119Z" fill="#5A7A1C"/>
<path d="M67.5103 113.208C66.1733 113.563 65.8501 115.439 66.6256 117.947C66.9735 119.204 67.5744 120.6 68.4148 121.977C69.2552 123.353 70.2621 124.795 71.3352 126.071C72.4882 127.34 73.7211 128.603 74.9336 129.626C76.1461 130.649 77.3451 131.512 78.4439 132.142C78.9568 132.501 79.4629 132.78 79.8824 132.985C80.3087 133.271 80.7282 133.476 81.0611 133.609C81.7336 133.954 82.0665 134.087 82.0665 134.087C82.0665 134.087 81.7999 133.788 81.3466 133.183C81.08 132.884 80.8932 132.578 80.5332 132.126C80.2599 131.747 79.8999 131.295 79.5331 130.763C78.8064 129.78 78.1392 128.55 77.3854 127.247C76.6316 125.944 75.9508 124.554 75.2769 123.244C74.5961 121.854 74.002 120.538 73.4078 119.221C72.8205 117.984 72.2399 116.827 71.6728 115.83C70.5523 113.995 69.3194 112.733 67.5103 113.208Z" fill="#5A7A1C"/>
<path d="M79.8103 116.025C78.4734 116.379 78.1365 118.096 78.8187 120.451C79.1598 121.628 79.7471 122.865 80.5009 124.168C81.2548 125.471 82.2413 126.674 83.3875 127.863C84.4472 128.98 85.6597 130.003 86.8587 130.866C88.0576 131.729 89.2431 132.433 90.2485 132.91C90.7546 133.189 91.254 133.388 91.6735 133.593C92.093 133.799 92.5057 133.925 92.7588 134.064C93.4178 134.25 93.7507 134.382 93.7507 134.382C93.7507 134.382 93.4841 134.083 93.0375 133.558C92.8575 133.332 92.5909 133.033 92.3175 132.654C92.0441 132.275 91.6909 131.903 91.4108 131.445C90.7707 130.534 90.0372 129.47 89.3037 128.407C88.6433 127.257 87.8962 126.033 87.3156 124.877C86.7283 123.64 86.1477 122.483 85.5671 121.326C85.0663 120.162 84.4993 119.165 83.9458 118.327C82.832 116.572 81.6127 115.47 79.8103 116.025Z" fill="#5A7A1C"/>
<path d="M90.099 119.736C88.8757 120.483 89.1113 122.312 90.4186 124.453C91.0723 125.523 91.9722 126.653 93.1117 127.763C94.2511 128.872 95.5435 129.888 96.9157 130.898C98.2811 131.827 99.7196 132.67 101.145 133.353C102.57 134.037 103.901 134.567 105.059 134.951C105.639 135.143 106.218 135.335 106.631 135.461C107.123 135.58 107.536 135.706 107.862 135.759C108.521 135.944 108.927 135.99 108.927 135.99C108.927 135.99 108.58 135.698 108.061 135.26C107.541 134.821 106.762 134.164 105.889 133.353C105.016 132.543 104.05 131.579 103.077 130.536C102.104 129.493 101.044 128.376 100.144 127.247C98.1846 125 96.4578 122.654 94.8853 121.179C93.2194 119.551 91.6212 118.722 90.099 119.736Z" fill="#5A7A1C"/>
<path d="M17.1325 122.145C17.7267 123.462 19.4168 123.479 21.5453 122.977C23.7537 122.468 26.5737 121.586 29.487 120.856C30.9836 120.488 32.4071 120.207 33.8307 119.925C35.261 119.723 36.6047 119.449 37.8022 119.347C38.3611 119.3 38.92 119.252 39.399 119.212C39.878 119.171 40.2772 119.137 40.6764 119.103C41.3949 119.042 41.7941 119.008 41.7941 119.008C41.7941 119.008 41.4544 118.796 40.7887 118.531C40.4558 118.398 40.0363 118.193 39.6235 118.067C39.1242 117.868 38.6249 117.669 38.0457 117.477C36.8873 117.093 35.4895 116.729 33.9319 116.378C32.3812 116.108 30.6775 115.931 28.9874 115.913C27.2972 115.896 25.6206 116.038 24.0374 116.333C22.4542 116.628 21.0442 117.069 19.8873 117.65C17.5071 118.978 16.4315 120.516 17.1325 122.145Z" fill="#5A7A1C"/>
<path d="M31.2082 132.61C32.1081 133.74 33.6913 133.445 35.6195 132.477C37.6276 131.503 40.0741 130.009 42.6071 128.588C45.22 127.16 47.9263 125.885 50.021 124.984C51.1116 124.57 51.9628 124.176 52.6678 123.955C53.2929 123.742 53.6853 123.628 53.6853 123.628C53.6853 123.628 53.2794 123.582 52.6271 123.476C51.8951 123.378 50.9235 123.299 49.7124 123.241C47.2901 123.125 44.01 123.323 40.8572 124.073C37.7043 124.822 34.6056 126.211 32.7315 127.817C30.8575 129.424 30.1215 131.175 31.2082 132.61Z" fill="#5A7A1C"/>
<path d="M44.361 138.893C45.56 139.756 46.8631 139.003 48.5247 137.736C49.3555 137.103 50.2594 136.383 51.2296 135.496C52.2065 134.69 53.2633 133.876 54.3999 133.056C55.5365 132.236 56.7598 131.489 57.9167 130.909C59.0736 130.328 60.2306 129.747 61.3212 129.333C61.8665 129.126 62.332 128.926 62.7244 128.812C63.1967 128.692 63.5025 128.505 63.8218 128.478C64.447 128.264 64.8394 128.15 64.8394 128.15C64.8394 128.15 64.4267 128.024 63.7744 127.919C63.4483 127.866 63.0356 127.74 62.5498 127.701C62.064 127.662 61.4916 127.55 60.9259 127.517C59.7081 127.379 58.3508 127.494 56.7541 127.63C55.2439 127.838 53.5877 128.22 52.0248 128.755C50.4619 129.289 48.9193 130.063 47.6298 130.977C46.3403 131.89 45.2172 132.87 44.5001 133.896C43.059 135.868 42.9022 137.811 44.361 138.893Z" fill="#5A7A1C"/>
<path d="M57.4621 144.536C58.6543 145.32 60.0305 144.479 61.6853 143.133C62.5094 142.42 63.4065 141.62 64.3699 140.654C65.3401 139.767 66.4631 138.788 67.593 137.888C68.7228 136.988 69.9393 136.161 71.1625 135.414C72.3858 134.667 73.5359 134.006 74.6198 133.512C75.1583 133.225 75.6238 133.025 76.0893 132.825C76.5548 132.624 76.9404 132.431 77.253 132.324C77.8782 132.11 78.2638 131.917 78.2638 131.917C78.2638 131.917 77.8578 131.871 77.1258 131.772C76.7996 131.719 76.3138 131.68 75.8281 131.641C75.3423 131.602 74.7766 131.569 74.1379 131.623C72.8538 131.652 71.4167 131.774 69.8335 132.069C68.2503 132.364 66.6075 132.905 65.0582 133.6C63.5088 134.294 61.973 135.148 60.6903 136.141C59.4075 137.134 58.2912 138.194 57.5809 139.3C56.0803 141.518 55.9303 143.541 57.4621 144.536Z" fill="#5A7A1C"/>
<path d="M71.5538 146.638C72.7528 147.501 74.1289 146.661 75.7838 145.314C76.6078 144.601 77.5049 143.801 78.5482 142.828C79.5184 141.942 80.6414 140.962 81.7713 140.062C82.9011 139.162 84.1108 138.256 85.2542 137.515C86.3976 136.775 87.541 136.035 88.6249 135.541C89.1634 135.254 89.6289 135.054 90.0145 134.86C90.48 134.66 90.7858 134.473 91.1782 134.359C91.7966 134.066 92.1891 133.952 92.1891 133.952C92.1891 133.952 91.7831 133.906 91.0578 133.887C90.7317 133.834 90.2526 133.875 89.7668 133.836C89.281 133.797 88.7222 133.844 88.0835 133.898C86.8791 133.92 85.369 134.128 83.8724 134.496C82.3758 134.865 80.7331 135.406 79.177 136.02C77.6276 136.715 76.1716 137.562 74.8889 138.555C73.6061 139.549 72.5697 140.601 71.7727 141.634C70.2519 143.612 70.095 145.556 71.5538 146.638Z" fill="#5A7A1C"/>
<path d="M86.9251 146.862C88.1903 147.559 89.4731 146.565 90.9615 145.153C91.6989 144.366 92.5162 143.573 93.4796 142.607C94.4498 141.721 95.493 140.748 96.543 139.854C97.6729 138.954 98.8893 138.128 100.033 137.387C101.263 136.72 102.413 136.06 103.424 135.652C103.969 135.445 104.434 135.245 104.9 135.045C105.365 134.844 105.758 134.731 106.07 134.624C106.696 134.41 107.088 134.296 107.088 134.296C107.088 134.296 106.682 134.25 106.023 134.065C105.697 134.012 105.204 133.893 104.719 133.854C104.233 133.815 103.66 133.702 103.022 133.757C101.731 133.705 100.294 133.827 98.7105 134.122C97.1272 134.417 95.4777 134.879 93.8486 135.58C92.2992 136.274 90.7702 137.208 89.4942 138.281C88.2182 139.354 87.1885 140.487 86.5648 141.666C85.2374 144.03 85.2471 146.039 86.9251 146.862Z" fill="#5A7A1C"/>
<path d="M22.5679 105.761C22.4285 106.014 27.058 109.401 34.3709 114.088C41.6838 118.775 51.6666 124.602 62.5655 128.905C67.9716 131.02 73.5834 132.715 78.9813 133.785C81.6769 134.28 84.2858 134.702 86.8014 134.971C89.317 135.24 91.6526 135.283 93.9084 135.333C98.2534 135.367 101.926 135.055 104.46 134.599C107.002 134.223 108.405 133.702 108.378 133.382C108.351 133.063 106.893 132.945 104.391 132.836C101.896 132.806 98.3561 132.785 94.0706 132.505C91.9677 132.362 89.6186 132.159 87.2627 131.876C84.8269 131.6 82.3708 131.085 79.7551 130.583C74.5967 129.493 69.1514 127.864 63.8386 125.902C53.2064 121.899 43.0977 116.484 35.5129 112.383C27.8482 108.289 22.7871 105.501 22.5679 105.761Z" fill="#926D50"/>
<path d="M83.123 24.4174C80.8437 22.1079 85.7118 24.7478 91.7448 28.1117C94.7613 29.7936 98.0679 31.6117 100.901 33.119C103.7 34.6987 106.064 36.0742 107.015 36.8751C108.957 38.5835 103.168 36.3965 96.922 33.1096C93.799 31.4661 90.5264 29.5754 87.9407 27.9187C85.4615 26.2235 83.5285 24.8733 83.123 24.4174Z" fill="#788C2B"/>
<path d="M102.361 15.3035C102.219 13.9091 102.659 14.2925 103.445 15.6352C104.197 17.0504 105.226 19.5699 105.979 22.4904C106.733 25.411 107.136 28.6987 107.168 31.4578C107.167 34.2895 106.9 36.5542 106.423 37.5696C105.47 39.6004 105.845 34.4655 105.162 28.5682C104.839 25.6728 104.261 22.5687 103.662 20.0744C102.994 17.7252 102.447 15.8748 102.361 15.3035Z" fill="#788C2B"/>
<path d="M85.028 32.0404C83.1839 29.9352 87.2928 32.3071 92.6213 34.7206C95.3048 35.9806 98.2399 37.2702 100.846 38.3171C103.453 39.364 105.59 40.279 106.538 40.9008C108.432 42.1445 103.105 41.2364 97.3841 38.9043C94.56 37.7553 91.6204 36.2865 89.3292 34.9451C87.038 33.6037 85.361 32.4623 85.028 32.0404Z" fill="#788C2B"/>
<path d="M88.6713 38.6171C86.6096 36.4098 91.0811 38.9519 96.8491 41.7488C99.7162 43.1835 102.941 44.6094 105.659 45.7969C108.449 47.0185 110.731 48.0016 111.717 48.73C113.723 50.1143 108.062 48.7843 101.941 46.1754C98.8604 44.8176 95.7033 43.2467 93.301 41.7647C90.8648 40.3552 89.0768 39.0731 88.6713 38.6171Z" fill="#788C2B"/>
<path d="M92.0461 46.3116C87.4031 42.6267 111.17 52.9011 114.691 56.1477C118.139 59.3602 93.8725 47.7003 92.0461 46.3116Z" fill="#788C2B"/>
<path d="M94.475 51.6998C92.4518 49.5991 96.8463 51.9281 102.367 54.8744C107.854 57.8933 114.497 61.278 116.255 62.8118C117.979 64.418 112.771 62.5034 106.998 59.5274C101.298 56.5854 95.2476 52.5052 94.475 51.6998Z" fill="#788C2B"/>
<path d="M96.9967 58.0185C94.8197 55.4915 99.6285 58.6346 105.743 62.3907C108.836 64.2858 112.22 66.3172 115.13 68.0376C118.04 69.758 120.442 71.24 121.466 72.075C123.48 73.8174 117.508 71.4557 111.001 67.7809C107.801 65.9243 104.486 63.7479 101.896 61.9121C99.3056 60.0763 97.4748 58.5085 96.9967 58.0185Z" fill="#788C2B"/>
<path d="M100.884 65.7714C96.185 61.2635 120.91 75.5287 124.411 79.3851C127.877 83.3141 102.719 67.5183 100.884 65.7714Z" fill="#788C2B"/>
<path d="M101.962 70.4417C99.7464 67.8081 104.666 71.0919 110.687 75.4238C116.674 79.8282 123.724 85.1743 125.461 87.3179C127.199 89.4615 121.626 85.8712 115.567 81.4327C109.435 76.9601 102.811 71.4602 101.962 70.4417Z" fill="#788C2B"/>
<path d="M103.324 76.3924C98.88 70.5879 123.556 91.5571 126.758 96.4245C130.033 101.326 105.066 78.7151 103.324 76.3924Z" fill="#788C2B"/>
<path d="M103.611 83.5193C99.3887 77.996 123.134 97.5544 126.259 102.209C129.419 106.79 105.349 85.6629 103.611 83.5193Z" fill="#788C2B"/>
<path d="M107.809 92.4835C106.101 90.0883 110.223 92.9975 115.194 96.9251C120.166 100.853 126.055 105.654 127.43 107.627C128.805 109.601 124.103 106.419 119.02 102.351C113.903 98.3549 108.513 93.4339 107.809 92.4835Z" fill="#788C2B"/>
<path d="M109.015 97.6506C107.665 95.2466 111.216 98.2415 115.611 102.076C119.901 105.949 125.142 110.622 126.299 112.494C127.456 114.365 123.189 111.388 118.755 107.447C114.176 103.438 109.54 98.6054 109.015 97.6506Z" fill="#788C2B"/>
<path d="M109.927 104.01C108.612 101.533 112.133 104.78 116.46 108.759C120.754 112.811 126.106 117.625 127.229 119.569C128.459 121.474 124.047 118.429 119.536 114.275C115.063 110.227 110.453 104.964 109.927 104.01Z" fill="#788C2B"/>
<path d="M108.931 110.271C107.65 107.722 111.209 111.076 115.473 115.379C119.737 119.683 124.919 124.86 126.081 126.91C127.17 128.926 122.928 125.518 118.446 121.112C113.965 116.707 109.423 111.299 108.931 110.271Z" fill="#788C2B"/>
<path d="M109.987 18.0892C110.169 16.7585 110.502 17.1804 110.969 18.6385C111.401 20.1691 111.753 22.8128 111.717 25.717C111.681 28.6213 111.116 31.8969 110.321 34.5331C109.526 37.1693 108.393 39.2045 107.694 39.9386C106.156 41.5178 108.229 36.9145 109.201 31.2631C109.74 28.4182 109.989 25.4371 110.034 22.8911C110.083 20.5242 109.894 18.665 109.987 18.0892Z" fill="#788C2B"/>
<path d="M116.781 24.7343C116.998 23.3311 117.403 23.7871 117.767 25.4627C118.131 27.1384 118.308 29.9657 118.064 33.1259C117.819 36.2862 117.08 39.7454 116.038 42.5311C114.995 45.3167 113.794 47.4969 112.989 48.2695C111.272 49.8531 113.805 45.0235 115.233 38.9666C115.947 35.9381 116.438 32.6284 116.624 29.9714C116.775 27.3869 116.722 25.2376 116.781 24.7343Z" fill="#788C2B"/>
<path d="M122.588 28.783C123.205 27.6566 123.432 28.117 123.293 29.7334C123.115 31.2432 122.567 33.73 121.558 36.4431C120.584 39.0837 119.149 41.9507 117.663 44.1738C116.176 46.3969 114.677 48.0827 113.794 48.6421C111.957 49.7269 114.871 45.7839 117.472 40.8092C118.737 38.3048 119.997 35.6213 120.907 33.3049C121.746 30.9544 122.311 29.1841 122.588 28.783Z" fill="#788C2B"/>
<path d="M125.95 35.5822C126.601 34.3833 126.794 34.9162 126.654 36.5326C126.476 38.0425 125.894 40.6017 124.779 43.3533C123.698 46.0324 122.119 48.8313 120.487 50.9863C118.856 53.1413 117.172 54.6524 116.218 55.1778C114.27 56.1219 117.657 52.4898 120.476 47.6173C121.958 45.2151 123.252 42.459 124.163 40.1426C125.146 37.8602 125.745 36.0174 125.95 35.5822Z" fill="#788C2B"/>
<path d="M129.884 41.1487C130.791 40.1586 130.877 40.7299 130.375 42.1761C129.873 43.6222 128.749 46.0156 127.267 48.4178C125.751 50.8925 123.843 53.4486 122.028 55.4289C120.213 57.4093 118.457 58.8863 117.536 59.3391C115.588 60.2833 119.01 56.5787 122.447 52.0852C124.219 49.8192 125.915 47.34 127.26 45.2279C128.572 43.1883 129.573 41.6223 129.884 41.1487Z" fill="#788C2B"/>
<path d="M132.732 47.7094C132.728 47.5303 132.587 47.6413 132.553 47.7139C132.519 47.7864 132.592 47.8204 132.592 47.8204C132.558 47.893 132.63 47.927 132.63 47.927C132.809 47.9226 132.882 47.9567 132.882 47.9567L132.916 47.8841L133.023 47.8457L133.129 47.8072C133.197 47.6621 133.193 47.483 133.299 47.4445C133.406 47.4061 133.521 47.7258 133.526 47.9049C133.569 48.1906 133.432 48.4807 133.364 48.6258C132.79 50.0379 131.662 52.2521 130.107 54.6203C128.587 56.9159 126.712 59.3995 124.931 61.3073C123.15 63.2151 121.501 64.6537 120.58 65.1065C118.666 65.9781 121.875 62.3505 125.278 57.9295C127.016 55.736 128.75 53.3634 130.134 51.3579C130.863 50.3721 131.45 49.4974 131.936 48.8402C132.179 48.5117 132.387 48.2556 132.524 47.9655C132.775 47.9951 132.771 47.816 132.732 47.7094Z" fill="#788C2B"/>
<path d="M134.34 55.018C135.214 54.1004 135.261 54.5652 134.832 56.0453C134.33 57.4915 133.274 59.7398 131.792 62.142C130.31 64.5442 128.47 66.9553 126.616 68.829C124.835 70.7368 123.148 72.0688 122.154 72.4876C120.202 73.2526 123.632 69.9063 127.002 65.5578C128.74 63.3643 130.401 60.9577 131.678 58.9906C133.063 56.9851 133.991 55.3851 134.34 55.018Z" fill="#788C2B"/>
<path d="M136.202 61.9968C137.076 61.0791 137.161 61.6505 136.693 63.0241C136.226 64.3977 135.17 66.646 133.683 68.8692C132.163 71.1648 130.284 73.4693 128.499 75.198C126.679 76.9992 124.953 78.2246 123.994 78.5708C122.003 79.2293 125.583 76.1301 128.923 72.0333C130.665 70.0189 132.365 67.7188 133.608 65.8243C134.959 63.8913 135.925 62.3979 136.202 61.9968Z" fill="#788C2B"/>
<path d="M140.195 68.2069C141.175 67.2508 141.188 67.7881 140.545 69.3452C139.864 70.7957 138.455 73.232 136.469 75.575C134.484 77.9179 131.923 80.1675 129.596 81.7303C127.235 83.3657 125.035 84.2802 123.926 84.3792C121.675 84.6498 126.385 82.3472 130.877 78.437C133.195 76.516 135.398 74.2752 137.068 72.2268C138.738 70.1783 139.845 68.5739 140.195 68.2069Z" fill="#788C2B"/>
<path d="M141.016 74.1728C141.967 73.4683 141.98 74.0056 141.329 75.2045C140.75 76.4375 139.433 78.298 137.759 80.1673C136.085 82.0366 133.98 83.8807 132.04 85.1831C130.101 86.4854 128.293 87.3185 127.364 87.4132C125.505 87.6024 129.106 85.3988 132.827 82.1887C134.723 80.6006 136.615 78.8335 138.047 77.2927C139.585 75.7135 140.667 74.5398 141.016 74.1728Z" fill="#788C2B"/>
<path d="M142.346 81.345C143.403 80.602 143.344 81.1053 142.624 82.4493C141.832 83.7592 140.341 85.8032 138.347 87.7879C136.425 89.8067 134.001 91.7662 131.814 93.218C129.628 94.6698 127.679 95.614 126.609 95.8196C124.503 96.1583 128.633 93.5832 132.92 90.1082C135.064 88.3707 137.237 86.3815 139.022 84.6529C140.667 83.0352 141.924 81.678 142.346 81.345Z" fill="#788C2B"/>
<path d="M144.646 88.8862C145.848 88.2113 145.755 88.7871 144.711 90.0674C143.667 91.3476 141.814 93.2214 139.423 95.1084C137.032 96.9953 134.244 98.7846 131.729 99.9936C129.18 101.275 126.976 102.011 125.867 102.11C123.612 102.201 128.326 100.078 133.373 96.8705C135.879 95.3033 138.522 93.4459 140.563 91.926C142.638 90.3336 144.185 89.1126 144.646 88.8862Z" fill="#788C2B"/>
<path d="M146.763 93.4231C148.038 92.7824 147.872 93.3241 146.756 94.5703C145.639 95.8165 143.573 97.7672 141.075 99.6927C138.578 101.618 135.684 103.446 132.917 104.625C130.223 105.839 127.874 106.506 126.727 106.498C124.36 106.449 129.514 104.709 134.812 101.532C140.255 98.4225 145.736 93.9144 146.763 93.4231Z" fill="#788C2B"/>
<path d="M148.589 99.1482C150.004 98.3964 149.732 98.9766 148.548 100.368C147.291 101.725 144.977 103.825 142.16 105.866C139.377 107.834 135.945 109.675 132.965 110.932C129.986 112.188 127.385 112.826 126.058 112.823C123.512 112.778 129.238 110.952 135.253 107.757C138.296 106.176 141.404 104.272 143.799 102.564C146.267 100.89 148.061 99.5196 148.589 99.1482Z" fill="#788C2B"/>
<path d="M146.764 109.444C148.043 108.983 147.805 109.49 146.684 110.558C145.563 111.625 143.454 113.29 140.909 114.75C138.364 116.211 135.423 117.574 132.827 118.391C130.196 119.28 127.983 119.657 126.87 119.577C124.678 119.344 129.555 118.005 134.875 115.723C137.536 114.583 140.332 113.152 142.489 111.951C144.68 110.679 146.304 109.671 146.764 109.444Z" fill="#788C2B"/>
<path d="M145.288 116.543C146.601 116.008 146.362 116.516 145.28 117.69C144.126 118.829 141.982 120.567 139.297 122.139C136.645 123.638 133.452 124.971 130.711 125.72C127.897 126.434 125.573 126.671 124.421 126.484C122.152 126.038 127.401 125.228 133.011 123.082C135.817 122.009 138.685 120.612 140.983 119.301C143.135 117.922 144.793 116.841 145.288 116.543Z" fill="#788C2B"/>
<path d="M100.301 30.4438C97.0595 25.4698 98.7453 26.9695 103.287 32.3774C104.397 33.7837 105.55 35.4758 106.959 37.3766C108.262 39.3159 109.641 41.4683 111.097 43.8339C111.772 45.0359 112.485 46.3445 113.233 47.5806C113.57 48.1816 113.946 48.8892 114.356 49.5243C114.659 50.1979 115.035 50.9055 115.338 51.579C116.018 52.9601 116.663 54.4138 117.415 55.829C118.026 57.3552 118.671 58.8089 119.282 60.3351C119.966 61.8953 120.47 63.46 121.047 65.0587C121.624 66.6574 122.202 68.2562 122.672 69.8934C123.143 71.5306 123.613 73.1678 124.156 74.839C124.52 76.5147 124.956 78.2244 125.32 79.9001C125.757 81.6098 125.976 83.2173 126.306 84.9655C126.597 86.6071 126.961 88.2828 127.073 89.9288C127.258 91.6089 127.477 93.2165 127.623 94.79C127.735 96.436 127.809 97.9755 127.956 99.549C128.012 100.372 128.029 101.088 128.12 101.839C128.103 102.628 128.121 103.344 128.139 104.061C128.14 105.566 128.103 106.965 128.138 108.398C128.101 109.797 127.991 111.161 127.915 112.454C127.84 113.746 127.798 114.966 127.612 116.117C127.311 118.454 127.04 120.54 126.726 122.34C126.339 124.106 125.982 125.62 125.723 126.738C125.098 129.011 124.889 129.267 124.892 127.941C124.913 127.331 124.959 126.29 125.103 124.853C125.213 123.488 125.459 121.834 125.517 119.825C125.647 117.85 125.914 115.586 125.852 113.078C125.894 111.858 125.897 110.532 125.9 109.206C125.903 107.879 125.868 106.447 125.832 105.014C125.868 102.109 125.507 99.1075 125.321 95.9221C125.175 94.3486 124.956 92.741 124.737 91.1334C124.681 90.3104 124.518 89.5259 124.462 88.7029C124.299 87.9183 124.171 87.0613 124.008 86.2767C121.856 73.1394 117.149 59.5991 112.023 49.4026C110.635 46.892 109.498 44.411 108.264 42.3266C107.03 40.2423 105.941 38.2261 104.826 36.6406C103.746 34.9826 102.888 33.6059 102.072 32.5149C101.12 31.714 100.599 30.9382 100.301 30.4438Z" fill="#8CAA4E"/>
<path d="M46.7177 18.3103C46.1243 16.8722 45.3382 19.2188 45.1858 22.344C45.0335 25.4693 45.7219 29.1716 46.7147 30.128C47.6287 31.099 47.3817 28.4555 47.219 25.3889C46.9775 22.3369 46.9778 18.8324 46.7177 18.3103Z" fill="#56692D"/>
<path d="M42.8009 21.3207C42.4969 20.5623 42.2111 20.7784 41.885 21.6541C41.6522 22.5938 41.5366 24.1637 41.7801 25.9114C42.0236 27.6591 42.769 29.4764 43.5987 30.8706C44.4284 32.2648 45.5 33.2065 46.1888 33.4044C47.5663 33.8002 45.7731 31.6073 44.557 28.5735C43.949 27.0566 43.4838 25.4316 43.2202 24.0137C42.9858 22.7533 42.8595 21.6358 42.8009 21.3207Z" fill="#56692D"/>
<path d="M41.195 29.3624C40.7627 28.7908 40.4916 29.0857 40.3871 29.8386C40.2826 30.5915 40.4382 31.8666 40.9235 33.1618C41.33 34.4717 42.1598 35.8658 42.995 36.8515C43.8303 37.8371 44.7645 38.4784 45.3598 38.6122C46.6 38.7076 45.0669 37.0367 43.8397 34.82C43.2262 33.7116 42.5833 32.4457 42.1565 31.4656C41.6364 30.4213 41.3177 29.5841 41.195 29.3624Z" fill="#56692D"/>
<path d="M40.8165 35.2178C40.3843 34.6462 40.0985 34.8623 40.0086 35.694C39.9041 36.4469 40.0597 37.722 40.545 39.0172C41.0304 40.3124 41.7813 41.7212 42.6807 42.6134C43.5947 43.5844 44.5143 44.1469 45.095 44.202C46.3205 44.2186 44.7379 42.7199 43.3678 40.6112C42.6755 39.5175 42.0473 38.3303 41.6205 37.3502C41.2433 36.1979 41.018 35.4248 40.8165 35.2178Z" fill="#56692D"/>
<path d="M56.2142 24.2059C56.2399 23.4676 55.8461 23.5409 55.2891 24.0519C54.7322 24.563 53.8546 25.5411 52.8836 26.4552C51.9272 27.448 50.7345 28.4847 49.7635 29.3987C48.7925 30.3128 47.871 31.0546 47.565 31.6005C47.259 32.1464 47.6822 32.2307 48.6128 31.9761C49.5288 31.6428 50.7801 30.9212 51.9728 29.8844C53.1801 28.9264 54.3288 27.6534 55.0196 26.547C55.7891 25.4259 56.194 24.5356 56.2142 24.2059Z" fill="#56692D"/>
<path d="M56.6082 28.5339C56.9747 26.9988 55.1463 28.5612 52.8453 30.2115C51.7021 31.0761 50.4013 31.9699 49.2435 32.7557C48.0856 33.5415 47.1494 34.2045 46.7647 34.765C45.9951 35.8861 48.7229 35.2159 51.4325 33.5711C52.7479 32.756 54.0981 31.69 54.9757 30.7119C55.9321 29.7191 56.5092 28.8783 56.6082 28.5339Z" fill="#56692D"/>
<path d="M56.7303 32.2601C57.1756 30.7103 55.2538 32.2087 52.8098 33.9671C51.5879 34.8462 50.2871 35.7401 49.1439 36.6046C48.0007 37.4692 47.0645 38.1322 46.6944 38.7716C45.9249 39.8926 48.638 39.1436 51.3971 37.3266C52.7766 36.4181 54.0481 35.3668 55.0832 34.3593C56.0396 33.3665 56.6167 32.5257 56.7303 32.2601Z" fill="#56692D"/>
<path d="M54.6284 37.6216C55.0242 36.244 53.1867 37.3192 51.0927 38.768C48.9199 40.2315 46.3184 42.0192 45.7998 43.1751C45.2813 44.3309 47.5713 43.4977 49.887 41.9261C52.2173 40.4333 54.4946 38.217 54.6284 37.6216Z" fill="#56692D"/>
<path d="M53.7545 42.1035C54.0075 40.834 52.4063 41.8652 50.5485 43.2701C48.7055 44.7538 46.5913 46.5324 46.3091 47.6443C45.948 48.7709 47.9724 47.824 49.8796 46.2469C51.8948 44.8127 53.6849 42.6054 53.7545 42.1035Z" fill="#56692D"/>
<path d="M54.1258 46.7605C54.2212 45.5203 52.7922 46.6009 51.2496 47.9472C49.7216 49.3723 47.9079 51.0135 47.6257 52.1255C47.3434 53.2374 49.1461 52.4132 50.8958 50.8655C52.66 49.3964 54.0562 47.2624 54.1258 46.7605Z" fill="#56692D"/>
<path d="M54.1508 51.2389C54.074 49.9492 52.8465 51.2369 51.3332 52.7408C50.5692 53.4533 49.7558 54.3381 48.9918 55.0506C48.2424 55.8419 47.7001 56.4317 47.4876 57.0417C47.1119 58.0895 49.1015 57.3936 50.9152 55.7524C51.8221 54.9318 52.6209 53.9683 53.1981 53.1275C53.8393 52.1933 54.1948 51.4752 54.1508 51.2389Z" fill="#56692D"/>
<path d="M27.7788 38.2941C26.9966 38.0321 26.9911 38.4406 27.4673 39.2485C28.0223 40.0418 29.1231 41.1411 30.5245 42.103C31.9258 43.0649 33.7063 43.8747 35.3348 44.3054C36.8846 44.7507 38.2677 44.738 38.9474 44.4487C40.2279 43.8846 37.438 43.3439 34.5016 42.0154C33.0013 41.3979 31.4571 40.5441 30.2572 39.7892C28.9786 39.049 28.1232 38.3931 27.7788 38.2941Z" fill="#56692D"/>
<path d="M27.7156 44.0929C25.9735 43.9279 28.1167 45.8113 31.4909 47.3028C33.0992 48.0632 34.9934 48.6075 36.686 48.9447C38.3787 49.282 39.7618 49.2693 40.4561 49.0587C41.8301 48.5587 38.8387 47.811 35.4589 46.728C33.8157 46.2185 31.9857 45.5809 30.5788 45.0275C29.1866 44.5529 28.0454 44.1131 27.7156 44.0929Z" fill="#56692D"/>
<path d="M29.7201 49.1797C27.8699 48.8717 30.1504 51.0556 33.7902 52.6607C35.5708 53.4706 37.6664 54.2219 39.4378 54.5445C41.2239 54.9459 42.7792 54.9827 43.5523 54.7574C45.0051 54.2428 41.7773 53.539 38.1319 52.3424C36.3165 51.7835 34.3784 51.0029 32.7994 50.4C31.2991 49.7825 30.0645 49.2787 29.7201 49.1797Z" fill="#56692D"/>
<path d="M32.9061 56.6556C31.981 56.5016 32.0542 56.8955 32.8456 57.6448C33.6369 58.3942 35.2745 59.3121 37.1979 60.0139C39.1214 60.7158 41.316 61.1227 43.201 61.1796C45.086 61.2366 46.6469 60.8649 47.3119 60.4968C48.6127 59.6029 45.2309 59.8242 41.4517 59.223C39.5228 58.9297 37.5498 58.4001 35.9708 57.7972C34.4064 57.2731 33.2505 56.7546 32.9061 56.6556Z" fill="#56692D"/>
<path d="M37.9047 62.4906C37.0088 62.4942 37.1609 62.8734 37.9229 63.4652C38.6849 64.057 40.1998 64.7533 41.9859 65.1546C43.772 65.556 45.7504 65.6771 47.4047 65.3695C49.0736 65.1407 50.3541 64.5766 50.9111 64.0655C51.8528 62.994 49.0609 63.7576 45.6993 63.6492C44.0653 63.627 42.2297 63.3979 40.788 63.0954C39.3463 62.793 38.2344 62.5108 37.9047 62.4906Z" fill="#56692D"/>
<path d="M44.5382 67.9399C43.5086 68.5388 45.117 69.2993 47.2237 69.2335C48.277 69.2007 49.3799 68.9956 50.3746 68.6476C51.2906 68.3143 52.0051 67.774 52.247 67.3215C52.6373 66.3525 50.9977 66.7388 49.1071 67.0904C47.1378 67.4566 44.9028 67.7091 44.5382 67.9399Z" fill="#56692D"/>
<path d="M56.7968 54.0878C56.0459 52.679 55.6829 55.1099 55.0781 57.9933C54.7757 59.435 54.4238 61.0488 54.1067 62.4118C53.7897 63.7747 53.5221 64.9654 53.6539 65.6743C53.8242 67.0281 55.4127 64.6138 56.3033 61.5143C56.7486 59.9646 56.9924 58.2078 57.0732 56.8888C57.0312 55.3482 56.9195 54.3095 56.7968 54.0878Z" fill="#56692D"/>
<path d="M53.364 55.3771C52.6222 54.4556 52.2703 56.0695 51.9624 57.9197C51.6544 59.7699 51.1046 62.0726 51.4526 63.0673C51.8005 64.0621 52.9053 62.5527 53.391 60.3435C53.6879 59.3103 53.7045 58.0847 53.7009 57.1889C53.6827 56.2143 53.5509 55.5054 53.364 55.3771Z" fill="#56692D"/>
<path d="M73.2018 101.567C74.2204 101.785 73.169 100.514 71.6156 99.1729C70.0623 97.8318 67.8641 96.5291 66.9537 96.4539C66.0579 96.4574 67.4885 97.5769 69.1847 98.8099C70.8168 100.136 72.7787 101.483 73.2018 101.567Z" fill="#56692D"/>
<path d="M69.3422 94.3779C68.0086 94.2184 69.8623 95.4221 71.9762 97.148C73.0331 98.0109 74.1981 99.0168 75.2551 99.8797C76.2332 100.757 77.1033 101.492 77.6345 101.719C78.697 102.174 77.2482 100.08 75.0757 98.0386C73.9895 97.0181 72.6816 96.1204 71.5898 95.5084C70.4834 94.8176 69.5932 94.4127 69.3422 94.3779Z" fill="#56692D"/>
<path d="M74.4594 94.7306C73.1258 94.5711 74.9008 95.7895 76.8278 97.3872C77.7913 98.186 78.8629 99.1277 79.6835 100.035C80.5682 100.848 81.2808 101.612 81.7332 101.854C82.6528 102.416 81.5832 100.17 79.5976 98.2576C78.6048 97.3012 77.4544 96.3742 76.4414 95.7475C75.586 95.0916 74.7104 94.7655 74.4594 94.7306Z" fill="#56692D"/>
<path d="M62.2117 95.9472C61.1436 95.9013 62.4808 96.9566 64.0837 98.1255C65.7652 99.2798 67.7564 100.784 68.6027 100.953C69.5278 101.107 68.2896 99.7069 66.5787 98.395C64.8532 97.0044 62.6202 95.9527 62.2117 95.9472Z" fill="#56692D"/>
<path d="M57.5227 96.575C56.3905 96.6225 57.8706 97.5698 59.631 98.7094C61.4701 99.8344 63.6041 101.231 64.5146 101.306C65.4397 101.46 64.108 99.9958 62.1755 98.8067C60.3071 97.5242 57.9312 96.5805 57.5227 96.575Z" fill="#56692D"/>
<path d="M57.304 104.603C56.4613 105.33 58.2382 105.245 60.2919 104.455C62.3602 103.745 64.533 102.281 64.938 101.391C65.2641 100.515 63.7271 101.453 61.7815 102.385C59.9293 103.382 57.654 104.294 57.304 104.603Z" fill="#56692D"/>
<path d="M61.4258 107.503C60.4548 108.417 62.5671 107.943 65.0348 106.751C67.4237 105.573 69.8732 103.406 70.2489 102.358C70.6392 101.389 68.8602 102.78 66.6874 104.243C64.4358 105.721 61.7758 107.194 61.4258 107.503Z" fill="#56692D"/>
<path d="M67.2659 109.109C66.5751 110.215 68.5207 109.283 70.5855 107.676C72.6502 106.07 74.726 103.647 75.0229 102.613C75.241 101.595 73.6635 103.192 71.8003 105.006C69.7649 106.769 67.5224 108.735 67.2659 109.109Z" fill="#56692D"/>
<path d="M72.7101 109.888C72.0193 110.995 73.9649 110.062 75.9216 108.313C76.8926 107.399 77.8343 106.327 78.5397 105.3C79.2451 104.272 79.6354 103.303 79.7051 102.801C79.751 101.733 78.4684 103.602 76.8067 105.622C76.0079 106.586 75.0515 107.578 74.2234 108.384C73.4594 109.097 72.8383 109.701 72.7101 109.888Z" fill="#56692D"/>
<path d="M79.2836 109.725C78.9226 110.852 80.4945 109.663 81.92 107.686C83.4388 105.774 84.7471 103.167 84.6501 102.207C84.6319 101.233 83.4922 102.993 82.239 105.019C80.9858 107.045 79.368 109.302 79.2836 109.725Z" fill="#56692D"/>
<path d="M64.0755 89.7346C62.7071 89.826 64.8466 90.8136 67.7795 91.2463C69.2065 91.4699 70.8553 91.5708 72.2091 91.4006C73.5775 91.3091 74.6657 91.0253 75.1878 90.7652C76.1386 90.1809 73.6381 90.3199 70.7638 90.2024C67.9188 90.2424 64.6416 89.7108 64.0755 89.7346Z" fill="#56692D"/>
<path d="M59.3536 84.501C58.0347 84.4203 59.8243 85.7174 62.5794 86.5091C63.8782 86.9196 65.3841 87.1286 66.6884 87.1305C67.9927 87.1325 69.0314 87.0208 69.5535 86.7608C70.519 86.2553 68.1467 86.2074 65.4648 85.8096C64.1312 85.6501 62.6895 85.3477 61.5775 85.0654C60.4656 84.7832 59.6046 84.5358 59.3536 84.501Z" fill="#56692D"/>
<path d="M55.391 79.8589C53.964 79.6353 55.8763 81.1541 58.8622 82.3104C60.3479 82.8491 61.9764 83.2798 63.4822 83.4888C64.9092 83.7124 66.1989 83.6356 66.721 83.3755C67.8587 82.9195 65.2061 82.6792 62.2293 82.0103C60.773 81.6291 59.1445 81.1984 57.9244 80.7733C56.611 80.2841 55.6566 79.9725 55.391 79.8589Z" fill="#56692D"/>
<path d="M51.9562 74.9545C50.5438 74.8097 52.5057 76.1563 55.334 77.3419C58.1624 78.5274 61.7199 79.2514 62.8868 78.9529C64.0538 78.6544 61.4855 77.991 58.637 77.1352C55.7097 76.2941 52.4581 75.0242 51.9562 74.9545Z" fill="#56692D"/>
<path d="M62.756 69.9313C61.9501 69.1032 62.2869 70.915 62.6971 73.1207C63.2006 75.3905 63.7774 78.0541 64.4112 78.8328C65.0449 79.6114 64.9792 77.5047 64.461 75.1561C64.0216 72.7929 63.0656 70.2813 62.756 69.9313Z" fill="#56692D"/>
<path d="M66.4144 73.8154C65.9584 72.6777 65.5863 74.6214 65.5677 77.1512C65.5491 79.6811 66.0123 82.6104 66.6607 83.4678C67.3091 84.3252 67.1353 82.0756 66.9964 79.575C66.7786 77.0891 66.5664 74.1946 66.4144 73.8154Z" fill="#56692D"/>
<path d="M69.8032 74.977C69.3325 73.7606 69.0044 75.9405 68.9364 78.6426C68.7895 81.3593 68.8386 84.6915 69.2654 85.6717C69.7068 86.7306 70.0697 84.2996 70.1873 81.4254C70.1619 78.6592 69.9845 75.5138 69.8032 74.977Z" fill="#56692D"/>
<path d="M72.4856 76.6788C71.8281 75.3341 71.8737 77.7705 71.7708 80.7235C71.7467 83.6619 71.4459 87.3038 71.6509 88.4066C71.9494 89.5735 72.6769 86.9119 72.9081 83.772C73.1539 80.7109 72.7457 77.2009 72.4856 76.6788Z" fill="#56692D"/>
<path d="M75.8673 80.8576C75.1622 78.3808 73.9008 89.1285 74.6901 91.1822C75.5582 93.2212 76.1364 81.867 75.8673 80.8576Z" fill="#56692D"/>
<path d="M79.0737 83.604C78.603 82.3875 78.2602 84.4887 78.02 87.1413C77.7798 89.7939 77.7208 92.9833 78.0834 94.0568C78.5102 95.0369 78.8878 92.6848 79.1134 89.9534C79.339 87.222 79.2404 84.062 79.0737 83.604Z" fill="#56692D"/>
<path d="M81.4955 84.7837C80.838 83.439 80.8836 85.8754 80.9529 88.878C81.101 91.8658 81.194 95.4344 81.6501 96.5721C82.1061 97.7098 82.4105 94.9637 82.3265 91.8824C82.2426 88.8012 81.7556 85.3058 81.4955 84.7837Z" fill="#56692D"/>
<path d="M85.0668 87.3784C84.4734 85.9403 84.3907 88.5636 84.5186 91.8812C84.6465 95.1988 84.8128 99.1613 85.3623 100.363C85.833 101.58 86.0934 98.5972 85.9509 95.2008C85.7937 91.7256 85.3269 87.9005 85.0668 87.3784Z" fill="#56692D"/>
<path d="M90.7816 93.9799C90.2412 93.2654 90.1569 93.6885 90.4114 94.6192C90.6806 95.6286 91.1458 97.2535 91.9553 98.9774C92.7648 100.701 93.84 102.539 94.9848 103.874C96.1443 105.289 97.4375 106.108 98.0475 106.32C99.4251 106.716 96.7946 104.842 94.811 101.625C92.8567 98.5654 91.2138 94.5515 90.7816 93.9799Z" fill="#56692D"/>
<path d="M90.8497 87.7707C89.9064 86.6422 90.3605 89.0842 91.8623 91.9018C92.6133 93.3107 93.6005 94.6755 94.5439 95.8041C95.4872 96.9326 96.4507 97.7314 96.9819 97.9586C98.1232 98.3984 96.2805 96.3776 94.6008 93.919C93.7216 92.6971 92.8919 91.3029 92.1849 90.1304C91.5421 88.8645 91.0512 87.9778 90.8497 87.7707Z" fill="#56692D"/>
<path d="M91.1912 79.9652C90.3559 78.9796 90.6726 81.1211 91.6927 83.5393C92.7129 85.9576 94.5006 88.5591 95.4055 89.0428C96.3104 89.5265 95.1418 87.6249 93.9788 85.3147C92.737 83.0192 91.5007 80.3151 91.1912 79.9652Z" fill="#56692D"/>
<path d="M93.1662 71.7727C92.6314 70.6496 92.3528 72.6574 92.8215 75.1782C93.2114 77.7136 94.5411 80.4818 95.4607 81.0442C96.3015 81.6214 95.448 79.6611 94.6788 77.2777C93.9243 74.9731 93.4117 72.216 93.1662 71.7727Z" fill="#56692D"/>
<path d="M96.2814 63.1263C96.0031 61.6296 95.2462 64.1337 95.2661 67.3084C95.2439 68.9425 95.4086 70.7048 95.7511 72.1081C96.1081 73.5902 96.4854 74.7425 96.903 75.2353C97.6448 76.1568 97.0681 73.4932 96.7331 70.377C96.519 68.7869 96.4623 67.1675 96.4496 65.7844C96.3582 64.416 96.3253 63.3626 96.2814 63.1263Z" fill="#56692D"/>
<path d="M103.242 65.0105C103.087 63.7355 102.385 65.6589 101.161 67.8424C100.549 68.9342 99.873 70.1194 99.2463 71.1324C98.6197 72.1453 98.1213 72.9715 97.9729 73.4881C97.676 74.5213 99.5191 73.0376 100.965 70.7313C101.734 69.6103 102.302 68.2822 102.678 67.2344C103.054 66.1866 103.301 65.3256 103.242 65.0105Z" fill="#56692D"/>
<path d="M104.684 70.1213C105.144 68.6503 103.468 70.592 101.313 73.0301C99.1583 75.4681 96.4029 78.1809 95.8056 79.3515C95.2082 80.522 97.6522 78.7636 99.979 76.375C102.449 73.8784 104.55 70.7167 104.684 70.1213Z" fill="#56692D"/>
<path d="M104.257 76.1509C104.638 74.6946 103.04 76.6216 101.029 78.9516C99.0169 81.2816 96.5124 84.0292 96.0726 85.1705C95.554 86.3263 97.7617 84.6119 99.9163 82.1738C102.085 79.8146 104.044 76.761 104.257 76.1509Z" fill="#56692D"/>
<path d="M103.777 81.0478C104.03 79.7783 102.703 81.4104 101.027 83.3521C99.4439 85.3578 97.3388 87.6237 96.9485 88.5928C96.5582 89.5618 98.5094 88.221 100.25 86.186C102.148 84.1216 103.707 81.5497 103.777 81.0478Z" fill="#56692D"/>
<path d="M103.93 85.8276C104.894 83.1219 96.8825 92.1909 96.3326 94.4936C95.7041 96.8109 103.555 86.8754 103.93 85.8276Z" fill="#56692D"/>
<path d="M105.301 90.5449C105.683 89.0885 104.164 91.0009 102.216 93.2375C100.283 95.5528 97.8282 98.1283 97.3738 99.1907C96.8406 100.268 99.0775 98.7109 101.168 96.3663C103.366 94.1645 105.246 91.1256 105.301 90.5449Z" fill="#56692D"/>
<path d="M104.526 96.4736C104.794 95.2828 103.423 96.6786 101.89 98.5122C100.356 100.346 98.502 102.646 98.2693 103.586C98.0512 104.605 99.6579 103.165 101.334 101.223C102.932 99.2964 104.442 96.8967 104.526 96.4736Z" fill="#56692D"/>
<path d="M106.776 100.213C107.107 98.9293 105.609 100.512 103.947 102.532C102.285 104.553 100.224 107.055 99.9272 108.088C99.6304 109.121 101.459 107.559 103.185 105.445C104.989 103.317 106.627 100.73 106.776 100.213Z" fill="#56692D"/>
<path d="M85.2368 107.559C83.6375 107.286 85.8943 108.903 89.1953 110.001C90.8531 110.589 92.6392 110.991 94.3026 111.17C95.8872 111.365 97.2703 111.352 97.8858 111.156C99.1169 110.764 96.1987 110.41 92.8775 109.642C91.1848 109.305 89.4629 108.81 88.0707 108.336C86.6143 107.955 85.4878 107.594 85.2368 107.559Z" fill="#56692D"/>
<path d="M91.4069 113.992C90.6833 114.045 90.8848 114.252 91.5387 114.701C92.2568 115.056 93.4915 115.56 94.9973 115.769C96.439 116.072 98.073 116.094 99.5203 115.988C100.874 115.818 102.041 115.519 102.47 115.195C103.406 114.532 100.87 114.922 97.9962 114.804C96.5197 114.753 95.0285 114.623 93.7737 114.448C92.6618 114.166 91.6432 113.948 91.4069 113.992Z" fill="#56692D"/>
<path d="M59.1267 99.5361C57.3058 99.3857 57.881 99.8492 59.8191 100.63C61.7572 101.41 65.1864 102.321 69.059 102.987C72.9316 103.652 77.2183 103.914 80.9444 103.792C84.5918 103.684 87.6786 103.192 88.9592 102.628C91.6137 101.564 84.8301 102.336 77.0097 101.916C73.1462 101.738 68.9878 101.288 65.6171 100.693C62.404 100.068 59.865 99.5618 59.1267 99.5361Z" fill="#788C2B"/>
<path d="M36.4216 37.0119C35.6615 35.1158 35.1909 33.8994 34.9015 33.2197C34.6121 32.5401 34.5333 32.5547 34.5424 33.042C34.6394 34.0019 35.1612 37.2463 36.9707 41.7182C38.716 46.2835 41.6703 52.091 46.0022 58.2943C50.2553 64.5122 55.6349 71.0912 61.61 77.8039C67.585 84.5167 74.2195 91.2698 81.0813 97.4917C87.943 103.714 95.0466 109.483 101.846 114.494C115.431 124.437 127.691 131.204 133.485 133.875C136.343 135.218 136.83 135.209 135.335 134.183C133.919 133.142 130.536 131.164 125.923 128.272C121.39 125.366 115.469 121.578 109.152 116.966C102.755 112.369 95.8034 106.979 88.9215 101.087C82.0396 95.1945 75.2127 88.7217 68.9518 82.2251C62.691 75.7285 56.9816 69.1293 52.0196 63.0432C47.1363 56.9424 43.3155 51.2961 40.8172 46.6263C38.3336 42.0352 37.0296 38.5288 36.4216 37.0119Z" fill="#788C2B"/>
<path d="M99.7551 112.031C100.874 114.105 100.856 113.13 100.122 110.496C99.9898 109.787 99.7646 109.014 99.5247 108.162C99.2848 107.31 99.0944 106.286 98.8252 105.276C98.3509 103.164 97.9115 100.801 97.5069 98.1867C96.8058 93.1012 96.4748 87.3764 96.7135 82.5237C96.8733 77.6857 97.416 73.5914 97.473 71.7064C97.53 69.8213 96.9473 71.0706 96.1501 74.2343C95.4316 77.3832 94.735 82.4026 94.7711 87.8562C94.7925 93.2311 95.6255 99.0255 96.7755 103.457C98.0189 107.953 99.3577 111.208 99.7551 112.031Z" fill="#788C2B"/>
<path d="M50.1489 24.9242C50.6492 22.7937 50.0281 23.3982 48.8335 25.7393C48.5421 26.364 48.2654 27.0674 47.91 27.7854C47.5692 28.5823 47.3218 29.4433 46.9315 30.4123C46.4018 32.3852 45.7586 34.6238 45.4744 37.04C44.7338 41.8231 44.8487 47.2621 45.7624 51.7375C46.5973 56.2276 48.0588 59.7048 48.9819 61.1631C49.9051 62.6214 49.6707 61.361 48.9071 58.5691C48.2222 55.7625 47.1803 51.4739 46.9317 46.6303C46.6189 41.8801 47.0499 36.7471 47.9223 32.673C48.8094 28.6777 49.8868 25.7064 50.1489 24.9242Z" fill="#788C2B"/>
<path d="M81.6876 72.6038L77.3005 71.1265L80.5182 69.2453C80.9769 68.9652 81.0892 68.3928 80.8091 67.9341C80.5289 67.4754 79.9565 67.3631 79.4978 67.6432L74.9039 70.3648L71.1758 69.0727L74.3936 67.1916C74.8523 66.9115 74.9646 66.339 74.6844 65.8803C74.4043 65.4216 73.8319 65.3093 73.3732 65.5895L68.7793 68.3111L65.0512 67.019L68.1214 64.3463L73.4124 65.1037C73.4922 65.0969 73.6519 65.0834 73.7317 65.0766C74.1241 64.9629 74.4232 64.6963 74.4692 64.2904C74.5084 63.8046 74.2215 63.266 73.6558 63.2336L69.9088 62.6668L72.9059 60.0807L78.1969 60.8381C78.2768 60.8314 78.4365 60.8178 78.5163 60.811C78.9087 60.6974 79.2077 60.4308 79.2537 60.0248C79.2929 59.539 79.006 59.0005 78.4404 58.968L74.6934 58.4013L78.1357 55.3753C78.5078 55.0221 78.5402 54.4565 78.187 54.0844C77.8338 53.7123 77.2682 53.6798 76.8961 54.0331L73.4538 57.059L73.3751 53.2863C73.3344 52.8073 72.9744 52.3554 72.4088 52.3229C71.9298 52.3636 71.4778 52.7235 71.4454 53.2892L71.4999 58.6721L68.5028 61.2583L68.424 57.4856C68.3834 57.0066 68.0234 56.5546 67.4578 56.5222C66.9788 56.5628 66.5268 56.9228 66.4944 57.4884L66.5489 62.8714L63.5517 65.4575L62.7071 61.1869L66.0478 56.9634C66.3333 56.5371 66.2859 55.9783 65.8529 55.613C65.4266 55.3275 64.8677 55.3749 64.5024 55.8079L62.1778 58.7391L61.4468 54.8609L64.7876 50.6374C65.0731 50.2111 65.0257 49.6522 64.5926 49.2869C64.1663 49.0014 63.6075 49.0488 63.2421 49.4819L60.9176 52.413L60.0932 48.3819C59.9728 47.9097 59.4599 47.5511 58.9876 47.6716C58.5154 47.792 58.1568 48.3049 58.2773 48.7772L59.1016 52.8083L55.8119 50.9966C55.3856 50.7111 54.7605 50.9249 54.5548 51.3444C54.2693 51.7707 54.4832 52.3959 54.9027 52.6015L59.551 55.2629L60.282 59.1411L56.9923 57.3294C56.566 57.0439 55.9409 57.2577 55.7352 57.6772C55.4497 58.1035 55.6636 58.7287 56.0831 58.9343L60.7314 61.5957L61.5829 65.9462L57.442 64.5283L55.4119 59.5541C55.2116 59.0886 54.7055 58.8099 54.1602 59.017C53.6947 59.2173 53.416 59.7234 53.6231 60.2687L55.0455 63.7666L51.3174 62.4746L49.2873 57.5004C49.087 57.0349 48.5809 56.7562 48.0356 56.9633C47.5701 57.1636 47.2914 57.6697 47.4984 58.215L48.9209 61.7129L45.0263 60.3545C44.527 60.1557 43.9884 60.4426 43.8694 60.9351C43.6705 61.4345 43.9574 61.973 44.45 62.0921L48.3445 63.4504L45.1268 65.3316C44.6681 65.6117 44.5558 66.1841 44.8359 66.6428C45.0295 67.0285 45.4422 67.1543 45.8414 67.1204C45.9212 67.1136 46.0741 67.0203 46.1539 67.0135L50.7478 64.2919L54.4759 65.584L51.2582 67.4651C50.7995 67.7453 50.6872 68.3177 50.9673 68.7764C51.1609 69.162 51.5736 69.2878 51.9728 69.254C52.0526 69.2472 52.2055 69.1538 52.2854 69.1471L56.8792 66.4255L60.9402 67.8501L57.7171 70.6163L52.4261 69.8588C51.9403 69.8196 51.4018 70.1065 51.3694 70.6722C51.3301 71.1579 51.6171 71.6965 52.1827 71.729L55.9297 72.2957L52.9326 74.8818L47.6416 74.1244C47.1558 74.0852 46.6172 74.3721 46.5848 74.9377C46.5456 75.4235 46.8325 75.9621 47.3981 75.9945L51.1451 76.5612L48.0749 79.234C47.7028 79.5872 47.6704 80.1528 48.0236 80.5249C48.2902 80.824 48.6163 80.8767 48.9357 80.8496C49.0953 80.8361 49.2482 80.7427 49.4011 80.6493L52.4713 77.9766L52.5501 81.7493C52.5907 82.2283 52.9507 82.6802 53.5163 82.7127C53.5962 82.7059 53.5962 82.7059 53.676 82.6991C54.1482 82.5786 54.4405 82.2322 54.3999 81.7532L54.3454 76.3702L57.3425 73.7841L57.4213 77.5568C57.4619 78.0358 57.8219 78.4877 58.3875 78.5202C58.4673 78.5134 58.4673 78.5134 58.5472 78.5066C59.0194 78.3862 59.3117 78.0397 59.2711 77.5607L59.2166 72.1777L62.4329 69.3318L63.2437 73.2032L59.903 77.4267C59.6175 77.853 59.6649 78.4118 60.0979 78.7772C60.351 78.9165 60.5973 78.976 60.8368 78.9557C61.0763 78.9354 61.2224 78.7622 61.3686 78.589L63.6931 75.6578L64.4241 79.536L61.0834 83.7595C60.7979 84.1858 60.8453 84.7446 61.2783 85.11C61.5314 85.2493 61.7777 85.3089 62.0172 85.2886C62.2567 85.2682 62.4028 85.095 62.549 84.9218L64.8735 81.9906L65.7385 86.5008C65.859 86.973 66.3719 87.3316 66.8441 87.2111C67.3164 87.0906 67.6749 86.5778 67.5545 86.1055L66.6895 81.5954L69.9792 83.4071C70.1524 83.5532 70.3919 83.5329 70.6314 83.5126C70.871 83.4923 71.0969 83.3123 71.2363 83.0592C71.5218 82.633 71.3079 82.0078 70.8884 81.8022L66.2401 79.1408L65.5091 75.2626L68.7988 77.0743C68.972 77.2204 69.2115 77.2001 69.451 77.1798C69.6906 77.1595 69.9165 76.9795 70.0559 76.7264C70.3414 76.3001 70.1275 75.675 69.708 75.4693L65.0597 72.8079L64.3355 69.0096L67.977 70.2286L70.0071 75.2027C70.2074 75.6682 70.6269 75.8739 71.0991 75.7534C71.179 75.7467 71.179 75.7467 71.2588 75.7399C71.7243 75.5396 72.003 75.0335 71.7959 74.4881L70.3735 70.9903L74.1016 72.2823L76.1317 77.2565C76.332 77.722 76.7515 77.9276 77.2238 77.8071C77.3036 77.8004 77.3036 77.8004 77.3835 77.7936C77.8489 77.5933 78.1277 77.0872 77.9206 76.5419L76.4982 73.044L80.8853 74.5214C81.0517 74.5877 81.2114 74.5741 81.3711 74.5606C81.6904 74.5335 81.9895 74.2669 82.0422 73.9408C82.4738 73.3413 82.1869 72.8027 81.6876 72.6038Z" fill="white"/>
<path d="M232.742 174.738C227.667 167.137 220.386 161.072 211.927 157.345C202.66 153.252 192.877 152.594 182.948 153.544C171.694 154.641 160 157.345 148.746 154.641C143.818 153.471 139.332 151.06 135.58 147.844C141.759 143.313 146.834 137.321 149.997 130.013C153.454 121.974 155.072 109.697 147.054 103.631C138.596 97.1998 127.563 103.558 123.665 111.962C118.075 124.239 121.9 137.905 130.505 147.26C122.268 152.229 112.485 154.86 103.07 154.641C79.3868 154.129 59.6013 136.078 55.3353 113.204C55.1882 112.474 53.8643 112.62 54.0114 113.351C56.8064 134.544 73.2084 152.668 94.5385 156.76C107.631 159.245 121.753 156.614 132.859 149.598C137.713 154.056 143.745 157.198 150.217 158.295C165.001 160.852 179.712 155.664 194.495 156.468C208.765 157.272 221.636 164.799 229.874 176.272C231.124 177.953 233.846 176.418 232.742 174.738ZM127.122 136.371C123.15 127.455 122.856 114.812 130.505 107.65C134.551 103.85 141.685 102.535 146.025 106.627C149.776 110.208 150.291 116.054 149.555 120.878C147.937 131.328 141.612 139.805 133.3 145.579C130.726 142.875 128.593 139.805 127.122 136.371Z" fill="#7DFBF8" fill-opacity="0.92"/>
</svg>
