<svg width="214" height="55" viewBox="0 0 214 55" fill="none" xmlns="http://www.w3.org/2000/svg">
<g filter="url(#filter0_d_3720_49154)">
<path d="M48.4188 16.6932C47.4166 14.3542 46.4433 11.9835 45.4412 9.64453C45.2255 9.15563 45.0098 8.66673 44.5799 8.28698C44.115 7.88262 43.4514 7.72812 42.8198 7.57009C37.9421 6.42888 33.0099 5.37917 28.0613 4.4737C26.7404 4.22098 25.3588 4.00347 24.0332 4.29252C22.8034 4.57098 21.7449 5.2293 20.7215 5.91223C17.1394 8.30248 13.7038 10.8475 10.3795 13.5226C9.874 13.9203 9.37162 14.3462 9.0795 14.9198C8.81309 15.4335 8.80837 15.9753 8.77171 16.5206C8.39168 24.4818 8.46181 32.4218 9.01404 40.337C9.25855 40.7942 10.0981 40.7868 10.5429 40.4243C10.9876 40.0617 9.99794 37.8353 10.1335 37.3075C11.9199 30.9569 14.4897 26.4281 16.682 19.9471" fill="#ED2F2F"/>
<path d="M13.809 17.3876L15.7954 12.553C15.8212 12.4932 15.952 12.5072 15.9263 12.567C15.4175 15.2726 15.5104 20.7887 15.9867 25.0944C16.7383 24.584 17.4042 23.8836 18.9776 22.912C24.4554 19.5429 30.2866 17.6161 36.8888 17.3986C36.4363 17.1068 36.2261 16.9591 35.7705 16.6392C39.5113 15.6842 41.3283 15.4547 45.1789 15.1998C45.8206 15.1573 49.0496 15.7117 50.1298 16.4183L16.4116 28.3519C16.5688 29.1891 15.8525 27.3882 16.0682 27.8771L13.6851 26.2036C12.2119 22.236 11.4229 23.5767 12.8835 19.541" fill="#DD281F"/>
<path d="M14.5353 22.207C16.4748 20.4542 12.9643 15.601 14.8942 16.0997C16.0935 16.4228 20.2127 17.1352 23.029 16.8806C22.1294 16.6383 21.6988 16.5435 20.7992 16.3011C27.3602 14.8348 31.2638 13.8903 38.2701 14.1124C40.3449 14.1678 45.3551 14.7531 47.5466 15.2798" fill="#DD281F"/>
<path d="M8.60143 25.2841L10.2631 37.0931L10.2662 37.1212C10.2405 37.1811 10.2179 37.269 10.1922 37.3288C10.0535 37.8284 11.0463 40.083 10.6016 40.4456C10.1569 40.8081 9.31728 40.8155 9.07277 40.3583C8.74535 35.3524 8.57759 30.3288 8.60143 25.2841Z" fill="#DD281F"/>
<path d="M12.1081 22.1337C13.4261 20.0223 16.2759 19.1944 18.9964 18.9504C18.3687 18.5356 18.1452 18.5603 17.5175 18.1455C20.6896 18.4783 27.725 16.3328 30.8995 15.8107C37.501 14.7103 44.6833 14.7704 46.6429 14.9525C46.3243 14.7029 45.7184 14.485 45.1733 14.232C47.3314 14.1642 48.7582 14.2058 50.6819 14.6482C51.2146 14.7887 52.2161 15.0767 52.7263 15.3052C55.2449 16.4509 56.888 19.0324 55.2739 23.1421C55.1423 22.2451 54.8238 21.9954 54.6166 21.8759C54.837 22.991 54.2083 24.0291 53.8368 24.469C52.5812 25.9752 49.8475 26.3915 49.937 26.3246C50.388 26.0184 50.6349 25.6207 50.6038 25.3393C48.1364 26.4098 44.373 27.4528 40.323 28.2426C40.6174 27.9821 40.9087 27.6935 41.1681 27.4085C39.2101 27.8244 37.8385 28.5744 34.4848 29.2302C29.5797 29.8867 25.7424 29.9692 22.6762 29.4253L24.0384 28.591C22.2277 27.7087 15.4999 30.5894 13.7391 28.9895C14.011 28.817 16.7244 28.8017 13.2144 27.1674C11.9076 26.4573 10.5978 24.5512 12.1081 22.1337Z" fill="#EDEDED"/>
<path d="M12.1088 22.1337C13.2889 20.237 15.7143 19.3705 18.1349 19.0458C16.2625 19.6517 12.2716 22.1442 14.5579 25.2812C16.1224 27.444 21.0267 27.0725 21.5727 27.0406C24.4972 26.8881 27.4217 26.7355 30.3431 26.5548C29.8571 26.8365 28.297 27.6357 27.811 27.9174C29.9987 28.7009 33.5977 28.2174 35.9513 27.8716C38.305 27.5258 40.6213 26.8423 42.9026 26.1342C42.7647 26.3489 42.6268 26.5635 42.4889 26.7782C45.8325 26.3229 49.1262 25.4173 52.1786 24.0827C52.1521 24.4275 52.0267 24.7547 51.7992 25.0362C54.2254 23.8848 54.5854 21.8794 54.5854 21.8794C54.8057 22.9945 54.1771 24.0326 53.8055 24.4725C52.5499 25.9787 49.8162 26.395 49.9058 26.3282C50.3567 26.0219 50.6037 25.6243 50.5725 25.3428C48.1051 26.4134 44.3417 27.4563 40.2917 28.2461C40.5861 27.9857 40.8775 27.6971 41.1368 27.412C39.1788 27.828 37.8072 28.5779 34.4535 29.2337C29.5484 29.8902 25.7111 29.9728 22.6449 29.4288L24.0072 28.5945C22.1965 27.7123 15.4687 30.5929 13.7079 28.993C13.9797 28.8205 16.6932 28.8052 13.1831 27.1709C11.9083 26.4573 10.5984 24.5512 12.1088 22.1337Z" fill="#DDDDDD"/>
<path d="M9.91901 36.533C9.09892 36.4243 7.06067 36.9915 6.43367 37.4597C5.65634 38.0299 5.21702 38.7337 4.90231 39.3952C5.22163 39.3599 5.53785 39.2965 5.8891 39.2576C4.88744 40.1375 4.65678 41.5589 4.82256 42.7655C4.98834 43.9721 5.21336 44.5454 6.59568 45.6459C7.98503 46.5177 8.3869 46.6442 9.79111 46.7738C11.1953 46.9033 12.834 46.5227 13.7274 45.5408C13.4307 45.4881 13.1051 45.4672 12.8084 45.4145C15.2984 44.256 16.6663 41.427 15.8908 39.0914C15.4702 39.9641 15.4055 40.2561 14.4499 40.6751C14.8214 40.2352 14.4945 38.4482 13.0989 37.5201C12.366 37.0314 11.4159 36.6238 10.4969 36.4975" fill="#EDEDED"/>
<path d="M4.64798 42.6708C4.54607 41.4571 4.85305 40.1413 5.8547 39.2614C5.8547 39.2614 5.67476 39.6801 5.55164 40.3204C5.543 41.119 5.82175 41.8858 6.40737 42.5047C6.08182 42.4837 5.75005 42.4065 5.41827 42.3292C5.4992 43.0609 5.77173 43.7714 6.41188 44.2988C7.80042 45.4556 10.411 45.6796 11.3737 45.0319C11.116 44.7471 10.9478 44.3953 10.9361 43.9978C11.7079 44.2543 12.5927 44.071 13.2898 43.652C13.9869 43.2331 14.3966 42.8459 14.8803 42.2512C15.364 41.6565 15.7838 41.0688 15.9008 39.2042C16.6093 41.5187 15.2672 44.2879 12.8091 45.4429C13.1058 45.4955 13.4314 45.5165 13.7281 45.5691C12.8378 46.5792 11.333 47.002 9.90312 46.9322C8.50201 46.8308 7.74267 46.6869 6.45223 45.8326C4.81215 44.4473 4.73433 43.7437 4.64798 42.6708Z" fill="#DDDDDD"/>
</g>
<defs>
<filter id="filter0_d_3720_49154" x="-3.32031" y="-1.03516" width="65.6562" height="54.5684" filterUnits="userSpaceOnUse" color-interpolation-filters="sRGB">
<feFlood flood-opacity="0" result="BackgroundImageFix"/>
<feColorMatrix in="SourceAlpha" type="matrix" values="0 0 0 0 0 0 0 0 0 0 0 0 0 0 0 0 0 0 127 0" result="hardAlpha"/>
<feOffset dy="2"/>
<feGaussianBlur stdDeviation="2"/>
<feComposite in2="hardAlpha" operator="out"/>
<feColorMatrix type="matrix" values="0 0 0 0 0.0392157 0 0 0 0 0.0392157 0 0 0 0 0.054902 0 0 0 0.48 0"/>
<feBlend mode="normal" in2="BackgroundImageFix" result="effect1_dropShadow_3720_49154"/>
<feBlend mode="normal" in="SourceGraphic" in2="effect1_dropShadow_3720_49154" result="shape"/>
</filter>
</defs>
</svg>
