<svg width="64" height="64" viewBox="0 0 64 64" fill="none" xmlns="http://www.w3.org/2000/svg">
<path fill-rule="evenodd" clip-rule="evenodd" d="M60.9985 55.8761C60.9994 55.8918 60.9998 55.9076 60.9998 55.9235C60.9998 56.1516 60.909 56.3712 60.7464 56.5337L56.5293 60.7508C56.3624 60.9156 56.1407 61 55.921 61C55.6993 61 55.4797 60.9156 55.3108 60.7466C54.9749 60.4108 54.9749 59.8639 55.3108 59.5281L58.0561 56.7829H8.07835C7.60113 56.7829 7.21678 56.3965 7.21678 55.9213V5.94148L4.47147 8.68669C4.13565 9.0246 3.58877 9.0246 3.25296 8.68669C2.91715 8.35087 2.91715 7.80399 3.25296 7.46818L7.46795 3.25122C7.50446 3.21471 7.54416 3.18232 7.58631 3.15407C7.7259 3.05689 7.89556 3 8.07835 3C8.28289 3 8.47099 3.07161 8.6189 3.19109C8.64242 3.20971 8.66499 3.22975 8.68646 3.25122L12.9036 7.46831C13.2394 7.80413 13.2394 8.35101 12.9036 8.68682C12.7367 8.85564 12.515 8.94012 12.2954 8.94012C12.0737 8.94012 11.8541 8.85564 11.6852 8.68669L8.93993 5.94154V55.0598H58.056L55.3108 52.3147C54.9749 51.9788 54.9749 51.432 55.3108 51.0961C55.6466 50.7582 56.1934 50.7582 56.5293 51.0961L60.7082 55.2751C60.8766 55.4237 60.9862 55.6372 60.9985 55.8761Z" fill="#7DFBF8"/>
<path fill-rule="evenodd" clip-rule="evenodd" d="M13.0276 50.8322C13.1966 51.0011 13.4162 51.0856 13.6379 51.0856C13.8595 51.0856 14.0791 51.0011 14.2502 50.8323L24.7116 40.3709L29.6086 45.2679C29.9444 45.6058 30.4913 45.6058 30.8271 45.2679L37.6347 38.459L44.3127 45.1369C44.4752 45.2996 44.6948 45.3903 44.9229 45.3903C45.1509 45.3903 45.3705 45.2996 45.5312 45.137L52.7299 37.9383C53.0657 37.6025 53.0657 37.0556 52.7299 36.7198C52.3941 36.3818 51.8472 36.3818 51.5114 36.7198L44.9229 43.3083L38.854 37.2394L52.734 23.3568C53.0698 23.021 53.0698 22.4741 52.734 22.1383C52.3982 21.8003 51.8513 21.8003 51.5155 22.1383L37.6342 36.0196L27.9511 26.3365C27.6153 25.9986 27.0685 25.9986 26.7326 26.3365L13.0298 40.0392C12.694 40.375 12.694 40.9219 13.0298 41.2577C13.3657 41.5956 13.9125 41.5956 14.2484 41.2577L27.3409 28.1652L36.4148 37.239L30.2148 43.439L25.3178 38.542C24.982 38.2041 24.4351 38.2041 24.0993 38.542L13.0276 49.6137C12.6918 49.9495 12.6918 50.4963 13.0276 50.8322Z" fill="#7DFBF8"/>
</svg>
