<svg width="157" height="157" viewBox="0 0 157 157" fill="none" xmlns="http://www.w3.org/2000/svg">
<g filter="url(#filter0_d_1902_2527)">
<path fill-rule="evenodd" clip-rule="evenodd" d="M111.155 101.318C111.156 101.334 111.156 101.35 111.156 101.366C111.156 101.626 111.052 101.877 110.867 102.062L106.057 106.872C105.866 107.06 105.614 107.156 105.363 107.156C105.11 107.156 104.86 107.06 104.667 106.867C104.284 106.484 104.284 105.86 104.667 105.477L107.798 102.346H50.7925C50.2481 102.346 49.8098 101.905 49.8098 101.363V44.355L46.6784 47.4863C46.2953 47.8717 45.6715 47.8717 45.2885 47.4863C44.9055 47.1032 44.9055 46.4794 45.2885 46.0964L50.0962 41.2864C50.1394 41.2432 50.1865 41.2051 50.2366 41.172C50.3948 41.0634 50.5863 41 50.7925 41C51.0227 41 51.2347 41.0796 51.4024 41.2127C51.4316 41.2354 51.4596 41.2599 51.4861 41.2864L56.2962 46.0965C56.6792 46.4796 56.6792 47.1034 56.2962 47.4864C56.1059 47.679 55.853 47.7753 55.6026 47.7753C55.3497 47.7753 55.0992 47.679 54.9065 47.4863L51.7752 44.3551V100.381H107.798L104.667 97.2496C104.284 96.8666 104.284 96.2428 104.667 95.8597C105.05 95.4743 105.674 95.4743 106.057 95.8597L110.823 100.626C111.017 100.797 111.142 101.043 111.155 101.318Z" fill="#FF6500"/>
<path fill-rule="evenodd" clip-rule="evenodd" d="M56.4378 95.5583C56.6305 95.7511 56.881 95.8474 57.1338 95.8474C57.3867 95.8474 57.6372 95.7511 57.8323 95.5585L69.7648 83.6259L75.3505 89.2116C75.7335 89.597 76.3573 89.597 76.7403 89.2116L84.5052 81.4451L92.1223 89.0622C92.3076 89.2477 92.5581 89.3512 92.8183 89.3512C93.0784 89.3512 93.3288 89.2477 93.5121 89.0623L101.723 80.8512C102.106 80.4682 102.106 79.8444 101.723 79.4614C101.34 79.0759 100.716 79.0759 100.333 79.4614L92.8183 86.9764L85.896 80.0541L101.728 64.2192C102.111 63.8362 102.111 63.2124 101.728 62.8294C101.345 62.4439 100.721 62.4439 100.338 62.8294L84.5046 78.6627L73.4599 67.618C73.0769 67.2326 72.4531 67.2326 72.07 67.618L56.4403 83.2476C56.0573 83.6306 56.0573 84.2544 56.4403 84.6375C56.8233 85.0229 57.4471 85.0229 57.8302 84.6375L72.7639 69.7038L83.1137 80.0536L76.0419 87.1255L70.4562 81.5399C70.0732 81.1545 69.4494 81.1545 69.0664 81.5399L56.4378 94.1685C56.0548 94.5515 56.0548 95.1753 56.4378 95.5583Z" fill="#FF6500"/>
</g>
<defs>
<filter id="filter0_d_1902_2527" x="0.0012207" y="0" width="156.155" height="156.156" filterUnits="userSpaceOnUse" color-interpolation-filters="sRGB">
<feFlood flood-opacity="0" result="BackgroundImageFix"/>
<feColorMatrix in="SourceAlpha" type="matrix" values="0 0 0 0 0 0 0 0 0 0 0 0 0 0 0 0 0 0 127 0" result="hardAlpha"/>
<feOffset dy="4"/>
<feGaussianBlur stdDeviation="22.5"/>
<feComposite in2="hardAlpha" operator="out"/>
<feColorMatrix type="matrix" values="0 0 0 0 1 0 0 0 0 0.396078 0 0 0 0 0 0 0 0 1 0"/>
<feBlend mode="normal" in2="BackgroundImageFix" result="effect1_dropShadow_1902_2527"/>
<feBlend mode="normal" in="SourceGraphic" in2="effect1_dropShadow_1902_2527" result="shape"/>
</filter>
</defs>
</svg>
