<svg width="153" height="157" viewBox="0 0 153 157" fill="none" xmlns="http://www.w3.org/2000/svg">
<g filter="url(#filter0_d_1902_2493)">
<path fill-rule="evenodd" clip-rule="evenodd" d="M72.2577 80.5767H47.5V105.334H72.2577V80.5767ZM45.5 78.5767V107.334H74.2577V78.5767H45.5Z" fill="#FF6500"/>
<path fill-rule="evenodd" clip-rule="evenodd" d="M93.6211 105.334C100.458 105.334 106 99.7921 106 92.9555C106 86.1189 100.458 80.5767 93.6211 80.5767C86.7845 80.5767 81.2423 86.1189 81.2423 92.9555C81.2423 99.7921 86.7845 105.334 93.6211 105.334ZM93.6211 107.334C101.562 107.334 108 100.897 108 92.9555C108 85.0143 101.562 78.5767 93.6211 78.5767C85.6799 78.5767 79.2423 85.0143 79.2423 92.9555C79.2423 100.897 85.6799 107.334 93.6211 107.334Z" fill="#FF6500"/>
<path fill-rule="evenodd" clip-rule="evenodd" d="M75.9832 41L58.8818 70.6204H93.0845L75.9832 41ZM75.9832 45L62.3459 68.6204H89.6204L75.9832 45Z" fill="#FF6500"/>
</g>
<defs>
<filter id="filter0_d_1902_2493" x="0.5" y="0" width="152.5" height="156.334" filterUnits="userSpaceOnUse" color-interpolation-filters="sRGB">
<feFlood flood-opacity="0" result="BackgroundImageFix"/>
<feColorMatrix in="SourceAlpha" type="matrix" values="0 0 0 0 0 0 0 0 0 0 0 0 0 0 0 0 0 0 127 0" result="hardAlpha"/>
<feOffset dy="4"/>
<feGaussianBlur stdDeviation="22.5"/>
<feComposite in2="hardAlpha" operator="out"/>
<feColorMatrix type="matrix" values="0 0 0 0 1 0 0 0 0 0.396078 0 0 0 0 0 0 0 0 1 0"/>
<feBlend mode="normal" in2="BackgroundImageFix" result="effect1_dropShadow_1902_2493"/>
<feBlend mode="normal" in="SourceGraphic" in2="effect1_dropShadow_1902_2493" result="shape"/>
</filter>
</defs>
</svg>
