<svg id="svg" width="24" height="25" viewBox="0 0 24 25" xmlns="http://www.w3.org/2000/svg">
    <path d="M13.2654 5.31058C12.9644 5.02596 12.4897 5.03918 12.2051 5.34011C11.9205 5.64105 11.9337 6.11574 12.2346 6.40036L17.4737 11.3555H4.75C4.33579 11.3555 4 11.6913 4 12.1055C4 12.5197 4.33579 12.8555 4.75 12.8555H17.476L12.2346 17.8127C11.9337 18.0974 11.9205 18.572 12.2051 18.873C12.4897 19.1739 12.9644 19.1871 13.2654 18.9025L19.6826 12.8331C19.8489 12.6758 19.9489 12.4757 19.9826 12.2669C19.994 12.2149 20 12.1609 20 12.1055C20 12.0479 19.9935 11.9918 19.9812 11.9379C19.9462 11.7321 19.8467 11.5352 19.6826 11.38L13.2654 5.31058Z" />
</svg>
