<svg width="200" height="170" viewBox="0 0 200 170" fill="none" xmlns="http://www.w3.org/2000/svg">
<g filter="url(#filter0_d_302_567)">
<path fill-rule="evenodd" clip-rule="evenodd" d="M121 45.5H79.0002C75.9627 45.5 73.5002 47.9624 73.5002 51V113C73.5002 116.038 75.9627 118.5 79.0002 118.5H121C124.038 118.5 126.5 116.038 126.5 113V51C126.5 47.9624 124.038 45.5 121 45.5ZM79.0002 43C74.582 43 71.0002 46.5817 71.0002 51V113C71.0002 117.418 74.582 121 79.0002 121H121C125.419 121 129 117.418 129 113V51C129 46.5817 125.419 43 121 43H79.0002Z" fill="#FF6500"/>
<path fill-rule="evenodd" clip-rule="evenodd" d="M70.5002 58.5H53.0002C49.9627 58.5 47.5002 60.9624 47.5002 64V108C47.5002 111.038 49.9627 113.5 53.0002 113.5H70.5002V58.5ZM53.0002 56C48.582 56 45.0002 59.5817 45.0002 64V108C45.0002 112.418 48.582 116 53.0002 116H73.0002V56H53.0002Z" fill="#FF6500"/>
<path fill-rule="evenodd" clip-rule="evenodd" d="M147 58.5H129.5V113.5H147C150.038 113.5 152.5 111.038 152.5 108V64C152.5 60.9624 150.038 58.5 147 58.5ZM127 56V116H147C151.419 116 155 112.418 155 108V64C155 59.5817 151.419 56 147 56H127Z" fill="#FF6500"/>
<path d="M81.0002 62H119" stroke="#FF6500" stroke-width="2.5" stroke-linecap="round"/>
<path d="M81.0002 72H119" stroke="#FF6500" stroke-width="2.5" stroke-linecap="round"/>
<path d="M81.0002 82H119" stroke="#FF6500" stroke-width="2.5" stroke-linecap="round"/>
<path d="M81.0002 93H119" stroke="#FF6500" stroke-width="2.5" stroke-linecap="round"/>
</g>
<defs>
<filter id="filter0_d_302_567" x="0.000244141" y="2" width="200" height="168" filterUnits="userSpaceOnUse" color-interpolation-filters="sRGB">
<feFlood flood-opacity="0" result="BackgroundImageFix"/>
<feColorMatrix in="SourceAlpha" type="matrix" values="0 0 0 0 0 0 0 0 0 0 0 0 0 0 0 0 0 0 127 0" result="hardAlpha"/>
<feOffset dy="4"/>
<feGaussianBlur stdDeviation="22.5"/>
<feComposite in2="hardAlpha" operator="out"/>
<feColorMatrix type="matrix" values="0 0 0 0 0.807843 0 0 0 0 0.894118 0 0 0 0 0.290196 0 0 0 1 0"/>
<feBlend mode="normal" in2="BackgroundImageFix" result="effect1_dropShadow_302_567"/>
<feBlend mode="normal" in="SourceGraphic" in2="effect1_dropShadow_302_567" result="shape"/>
</filter>
</defs>
</svg>
