<svg id="svg" width="64" height="64" viewBox="0 0 64 64" fill="none" xmlns="http://www.w3.org/2000/svg">
<path fill-rule="evenodd" clip-rule="evenodd" d="M9.95512 46.0121V49.2782C9.95512 49.9501 10.5023 50.4973 11.1743 50.4973H58.1369C58.8089 50.4973 59.3561 49.9501 59.3561 49.2782V28.2371H9.95512V46.0012C9.95514 46.003 9.95514 46.0048 9.95514 46.0065C9.95514 46.0084 9.95514 46.0102 9.95512 46.0121ZM5.86297 46.8295H8.31133V49.2782C8.31133 50.8575 9.59695 52.1411 11.1743 52.1411H58.1369C59.7163 52.1411 60.9999 50.8575 60.9999 49.2782V20.0328C60.9999 18.4534 59.7142 17.1698 58.1369 17.1698H55.6885V14.7211C55.6885 13.1417 54.4029 11.8582 52.8256 11.8582H5.86297C4.28359 11.8582 3 13.1438 3 14.7211V43.9665C3 45.5459 4.28562 46.8295 5.86297 46.8295ZM54.0469 17.1698H11.1743C9.59492 17.1698 8.31133 18.4554 8.31133 20.0328V45.1857H5.86297C5.191 45.1857 4.64379 44.6385 4.64379 43.9665V14.7211C4.64379 14.0492 5.191 13.5019 5.86297 13.5019H52.8277C53.4997 13.5019 54.0469 14.0492 54.0469 14.7211V17.1698ZM11.1743 18.8135C10.5023 18.8135 9.95512 19.3607 9.95512 20.0326V26.5954H59.3561V20.0328C59.3561 19.3608 58.8089 18.8136 58.1369 18.8136H11.1743V18.8135Z" fill="#FF6500"/>
<path d="M36.1123 38.3313H15.3089C14.8542 38.3313 14.488 37.9632 14.488 37.5105V33.2935C14.488 32.8388 14.8562 32.4727 15.3089 32.4727H36.1123C36.5669 32.4727 36.9331 32.8408 36.9331 33.2935V37.5105C36.9351 37.9632 36.5669 38.3313 36.1123 38.3313ZM16.1318 36.6876H35.2915V34.1143H16.1318V36.6876Z" fill="#FF6500"/>
<path d="M53.8802 48.1476H45.7158C44.4 48.1476 43.3276 47.0772 43.3276 45.7594V42.3291C43.3276 41.0133 44.398 39.9409 45.7158 39.9409H53.8802C55.196 39.9409 56.2684 41.0113 56.2684 42.3291V45.7594C56.2684 47.0772 55.198 48.1476 53.8802 48.1476ZM45.7158 41.5867C45.3054 41.5867 44.9714 41.9207 44.9714 42.3311V45.7614C44.9714 46.1718 45.3054 46.5058 45.7158 46.5058H53.8802C54.2906 46.5058 54.6246 46.1718 54.6246 45.7614V42.3311C54.6246 41.9207 54.2906 41.5867 53.8802 41.5867H45.7158Z" fill="#FF6500"/>
</svg>
