<svg id="svg" width="72" height="72" viewBox="0 0 72 72" fill="none" xmlns="http://www.w3.org/2000/svg">
<path d="M67.2002 32.3994H66.0002V27.5994C65.9949 22.9625 62.2372 19.2047 57.6003 19.1995H37.2V11.8794C40.218 11.2633 42.2793 8.46217 41.9696 5.39753C41.6601 2.33288 39.0803 0.000610352 36.0001 0.000610352C32.9198 0.000610352 30.34 2.33302 30.0304 5.39753C29.7207 8.46217 31.782 11.2633 34.8 11.8794V19.1993H14.4C9.76305 19.2047 6.00526 22.9623 6.00006 27.5993V32.3993H4.8001C2.14904 32.3994 0 34.5485 0 37.1994V44.3994C0 47.0503 2.14904 49.1994 4.79996 49.1994H5.99992V53.9993C6.00526 58.6363 9.76291 62.3941 14.3999 62.3993V70.7993C14.3999 71.242 14.6435 71.6486 15.0338 71.8575C15.4242 72.0663 15.8977 72.0432 16.266 71.7976L30.066 62.5995C30.2616 62.4696 30.4911 62.3999 30.7259 62.3992H57.6001C62.2371 62.3938 65.9949 58.6362 66.0001 53.9992V49.1992H67.2C69.851 49.1992 72 47.0502 72 44.3993V37.1992C72.0001 34.5485 69.8511 32.3994 67.2002 32.3994ZM32.4001 5.9994C32.4001 4.01124 34.0119 2.3994 36.0001 2.3994C37.9884 2.3994 39.6001 4.01124 39.6001 5.9994C39.6001 7.98756 37.9884 9.59941 36.0001 9.59941C34.0119 9.59941 32.4001 7.98756 32.4001 5.9994ZM4.79996 46.7994C3.47443 46.7994 2.39991 45.7249 2.39991 44.3994V37.1994C2.39991 35.8738 3.47443 34.7993 4.79996 34.7993H5.99992V46.7993H4.79996V46.7994ZM63.6002 53.9995C63.5962 57.3115 60.9123 59.9954 57.6001 59.9995H30.7261C30.0156 59.997 29.3207 60.2058 28.7293 60.5996L16.8001 68.5569V62.3996C16.8001 61.074 15.7256 59.9995 14.4 59.9995C11.088 59.9956 8.40405 57.3116 8.39997 53.9995V27.5994C8.40391 24.2874 11.0879 21.6035 14.4 21.5994H57.6001C60.9121 21.6033 63.5961 24.2873 63.6002 27.5994V53.9995ZM69.6001 44.3994C69.6001 45.7249 68.5256 46.7994 67.2 46.7994H66.0001V34.7995H67.2C68.5256 34.7995 69.6001 35.874 69.6001 37.1995V44.3994Z" fill="#FF6500"/>
<path d="M21.6002 31.1995C18.2865 31.1995 15.6001 33.8859 15.6001 37.1996C15.6001 40.5133 18.2865 43.1996 21.6002 43.1996C24.9139 43.1996 27.6002 40.5133 27.6002 37.1996C27.5961 33.8874 24.9122 31.2035 21.6002 31.1995ZM21.6002 40.7994C19.612 40.7994 18.0001 39.1876 18.0001 37.1994C18.0001 35.2113 19.612 33.5994 21.6002 33.5994C23.5883 33.5994 25.2002 35.2113 25.2002 37.1994C25.2002 39.1876 23.5883 40.7994 21.6002 40.7994Z" fill="#FF6500"/>
<path d="M50.4002 31.1995C47.0865 31.1995 44.4001 33.8859 44.4001 37.1996C44.4001 40.5133 47.0865 43.1996 50.4002 43.1996C53.7139 43.1996 56.4003 40.5133 56.4003 37.1996C56.3962 33.8874 53.7122 31.2035 50.4002 31.1995ZM50.4002 40.7994C48.412 40.7994 46.8002 39.1876 46.8002 37.1994C46.8002 35.2113 48.412 33.5994 50.4002 33.5994C52.3884 33.5994 54.0002 35.2113 54.0002 37.1994C54.0002 39.1876 52.3884 40.7994 50.4002 40.7994Z" fill="#FF6500"/>
<path d="M42.6482 45.802C42.0944 45.4492 41.3604 45.6019 40.9935 46.1464C40.9431 46.222 39.6975 47.9991 36.0003 47.9991C32.3355 47.9991 31.0802 46.2519 31.0082 46.1488C30.6473 45.6037 29.9163 45.4479 29.3645 45.7985C28.8125 46.1489 28.6428 46.8768 28.9827 47.4352C29.0583 47.5552 30.8943 50.3992 36.0003 50.3992C41.1063 50.3992 42.9423 47.5564 43.0179 47.4352C43.3623 46.8813 43.1976 46.1534 42.6482 45.802Z" fill="#FF6500"/>
</svg>
