<svg width="165" height="164" viewBox="0 0 165 164" fill="none" xmlns="http://www.w3.org/2000/svg">
<g clip-path="url(#clip0_302_577)">
<g filter="url(#filter0_d_302_577)">
<path d="M69.254 59.0084C68.9793 59.0446 68.7291 59.1875 68.558 59.4067L61.8903 67.0362L59.5016 64.6475C59.3039 64.4453 59.0336 64.3298 58.7508 64.3261C58.4672 64.3231 58.1947 64.4327 57.9926 64.6304C57.7897 64.8289 57.6742 65.0991 57.6712 65.382C57.6683 65.6648 57.7779 65.938 57.9756 66.1402L61.1602 69.3248C61.3661 69.5381 61.6511 69.6558 61.9473 69.6491C62.2435 69.6432 62.5234 69.5129 62.7196 69.2915L70.1498 60.7994C70.463 60.4758 70.5378 59.9894 70.3364 59.5866C70.135 59.1838 69.7012 58.9521 69.254 59.0084ZM75.524 65.4101C74.9376 65.4656 74.5067 65.9854 74.5615 66.5711C74.617 67.1575 75.1368 67.5885 75.7225 67.5337H105.444C105.729 67.5374 106.003 67.427 106.205 67.2279C106.407 67.0287 106.521 66.7562 106.521 66.4719C106.521 66.1875 106.407 65.9151 106.205 65.7159C106.003 65.5167 105.729 65.4064 105.444 65.4101H75.7225C75.6566 65.4042 75.5899 65.4042 75.524 65.4101ZM69.254 77.0535C68.9793 77.0898 68.7291 77.2327 68.558 77.4519L61.8903 85.0814L59.5016 82.6926C59.3039 82.4883 59.0336 82.3713 58.7493 82.3676C58.465 82.3631 58.191 82.4727 57.9881 82.6719C57.7852 82.8703 57.6697 83.1421 57.6668 83.4264C57.6646 83.71 57.7756 83.9832 57.9755 84.1854L61.1602 87.37C61.366 87.5833 61.6511 87.701 61.9473 87.6943C62.2435 87.6884 62.5233 87.5588 62.7196 87.3367L70.1498 78.8446C70.463 78.521 70.5378 78.0353 70.3364 77.6325C70.135 77.229 69.7012 76.9972 69.254 77.0535ZM75.524 83.456C74.9376 83.5108 74.5067 84.0306 74.5615 84.617C74.617 85.2027 75.1368 85.6337 75.7225 85.5789H105.444C105.729 85.5826 106.003 85.473 106.205 85.273C106.407 85.0739 106.521 84.8014 106.521 84.5171C106.521 84.2327 106.407 83.961 106.205 83.7611C106.003 83.5619 105.729 83.4516 105.444 83.456H75.7225C75.6566 83.4493 75.5899 83.4494 75.524 83.456ZM69.254 95.0987C68.9793 95.1357 68.7291 95.2786 68.558 95.4971L61.8903 103.127L59.5016 100.738C59.0884 100.321 58.4161 100.316 57.997 100.726C57.5772 101.136 57.5676 101.808 57.9755 102.231L61.1602 105.415C61.366 105.628 61.6511 105.746 61.9473 105.739C62.2435 105.734 62.5234 105.604 62.7196 105.382L70.1498 96.8905C70.463 96.5662 70.5378 96.0805 70.3364 95.6777C70.135 95.2749 69.7012 95.0424 69.254 95.0987ZM75.524 101.501C74.9376 101.556 74.5067 102.076 74.5615 102.662C74.617 103.249 75.1368 103.679 75.7225 103.624H105.444C105.729 103.628 106.003 103.518 106.205 103.318C106.407 103.119 106.521 102.847 106.521 102.562C106.521 102.279 106.407 102.006 106.205 101.806C106.003 101.607 105.729 101.497 105.444 101.501H75.7225C75.6566 101.494 75.5899 101.495 75.524 101.501Z" fill="#CEE44A" stroke="#CEE44A"/>
<path fill-rule="evenodd" clip-rule="evenodd" d="M111.667 45.5H53.6667C50.6292 45.5 48.1667 47.9624 48.1667 51V113C48.1667 116.038 50.6292 118.5 53.6667 118.5H111.667C114.704 118.5 117.167 116.038 117.167 113V51C117.167 47.9624 114.704 45.5 111.667 45.5ZM53.6667 43C49.2485 43 45.6667 46.5817 45.6667 51V113C45.6667 117.418 49.2485 121 53.6667 121H111.667C116.085 121 119.667 117.418 119.667 113V51C119.667 46.5817 116.085 43 111.667 43H53.6667Z" fill="#CEE44A"/>
</g>
</g>
<defs>
<filter id="filter0_d_302_577" x="0.666748" y="2" width="164" height="168" filterUnits="userSpaceOnUse" color-interpolation-filters="sRGB">
<feFlood flood-opacity="0" result="BackgroundImageFix"/>
<feColorMatrix in="SourceAlpha" type="matrix" values="0 0 0 0 0 0 0 0 0 0 0 0 0 0 0 0 0 0 127 0" result="hardAlpha"/>
<feOffset dy="4"/>
<feGaussianBlur stdDeviation="22.5"/>
<feComposite in2="hardAlpha" operator="out"/>
<feColorMatrix type="matrix" values="0 0 0 0 0.807843 0 0 0 0 0.894118 0 0 0 0 0.290196 0 0 0 1 0"/>
<feBlend mode="normal" in2="BackgroundImageFix" result="effect1_dropShadow_302_577"/>
<feBlend mode="normal" in="SourceGraphic" in2="effect1_dropShadow_302_577" result="shape"/>
</filter>
<clipPath id="clip0_302_577">
<rect width="164" height="164" fill="white" transform="translate(0.666748)"/>
</clipPath>
</defs>
</svg>
