<svg width="72" height="72" viewBox="0 0 72 72" fill="none" xmlns="http://www.w3.org/2000/svg">
<path fill-rule="evenodd" clip-rule="evenodd" d="M46.6353 46.5088C49.3254 43.8487 53.0234 42.2061 57.1028 42.2061C61.1823 42.2061 64.8803 43.8487 67.5704 46.5088C67.5942 46.5276 67.6153 46.5487 67.6363 46.5697C67.6574 46.5908 67.6784 46.6119 67.6973 46.6357C70.3574 49.3257 72 53.0238 72 57.1032C72 61.1826 70.3574 64.8807 67.6973 67.5707C67.6784 67.5946 67.6574 67.6156 67.6363 67.6367C67.6153 67.6577 67.5942 67.6788 67.5704 67.6976C64.8803 70.3578 61.1823 72.0004 57.1028 72.0004C53.0234 72.0004 49.3254 70.3578 46.6353 67.6976C46.6115 67.6788 46.5905 67.6578 46.5695 67.6368L46.5694 67.6367C46.5483 67.6156 46.5272 67.5946 46.5084 67.5707C43.8483 64.8807 42.2057 61.1826 42.2057 57.1032C42.2057 53.0238 43.8483 49.3257 46.5084 46.6357C46.5272 46.6119 46.5483 46.5908 46.5694 46.5697C46.5904 46.5487 46.6115 46.5276 46.6353 46.5088ZM58.3442 45.9303V44.7498C60.8392 44.9981 63.1185 45.9874 64.9568 47.492L64.1249 48.3249C63.6406 48.8087 63.6406 49.5957 64.1249 50.08C64.6087 50.5644 65.3957 50.5644 65.8801 50.08L66.713 49.2482C68.2187 51.0864 69.2068 53.3658 69.4551 55.8607H68.2747C67.5897 55.8607 67.0333 56.4171 67.0333 57.1021C67.0333 57.7871 67.5897 58.3435 68.2747 58.3435H69.4551C69.2068 60.8385 68.2176 63.1178 66.713 64.9561L65.8801 64.1242C65.3962 63.6399 64.6093 63.6399 64.1249 64.1242C63.6406 64.608 63.6406 65.395 64.1249 65.8793L64.9568 66.7123C63.1185 68.218 60.8392 69.2061 58.3442 69.4544V68.274C58.3442 67.589 57.7878 67.0326 57.1028 67.0326C56.4179 67.0326 55.8615 67.589 55.8615 68.274V69.4544C53.3665 69.2061 51.0871 68.2169 49.2489 66.7123L50.0807 65.8793C50.5651 65.3955 50.5651 64.6086 50.0807 64.1242C49.5969 63.6399 48.81 63.6399 48.3256 64.1242L47.4927 64.9561C45.987 63.1178 44.9988 60.8385 44.7506 58.3435H45.931C46.616 58.3435 47.1724 57.7871 47.1724 57.1021C47.1724 56.4171 46.616 55.8607 45.931 55.8607H44.7506C44.9988 53.3658 45.9881 51.0864 47.4927 49.2482L48.3256 50.08C48.8094 50.5644 49.5964 50.5644 50.0807 50.08C50.5651 49.5962 50.5651 48.8093 50.0807 48.3249L49.2489 47.492C51.0871 45.9862 53.3665 44.9981 55.8615 44.7498V45.9303C55.8615 46.6152 56.4179 47.1717 57.1028 47.1717C57.7878 47.1717 58.3442 46.6152 58.3442 45.9303ZM23.9497 62.4317L25.6964 60.685C11.276 59.2507 0 47.0669 0 32.2738C0 31.5889 0.556412 31.0325 1.24139 31.0325C1.92637 31.0325 2.48278 31.5889 2.48278 32.2738C2.48278 45.5821 12.4757 56.5734 25.3612 58.1501L23.9497 56.7385C23.4653 56.2547 23.4653 55.4678 23.9497 54.9834C24.4335 54.4991 25.2204 54.4991 25.7048 54.9834L29.429 58.7076C29.9144 59.1914 29.9144 59.9783 29.429 60.4627L25.7048 64.1869C25.221 64.6712 24.4341 64.6712 23.9497 64.1869C23.4653 63.7031 23.4653 62.9161 23.9497 62.4317ZM55.8615 57.1021V50.8952C55.8615 50.2102 56.4179 49.6538 57.1028 49.6538C57.7878 49.6538 58.3442 50.2102 58.3442 50.8952V55.8608H62.0684C62.7534 55.8608 63.3098 56.4172 63.3098 57.1021C63.3098 57.7871 62.7534 58.3435 62.0684 58.3435H57.1028C56.4179 58.3435 55.8615 57.7871 55.8615 57.1021ZM8.6887 32.2744C8.6887 21.3119 17.5884 12.4122 28.5509 12.4122C39.5134 12.4122 48.4131 21.3119 48.4131 32.2744C48.4131 43.2369 39.5134 52.1366 28.5509 52.1366C17.5884 52.1366 8.6887 43.2369 8.6887 32.2744ZM45.9303 32.2744C45.9303 22.6825 38.1428 14.895 28.5509 14.895C18.959 14.895 11.1715 22.6825 11.1715 32.2744C11.1715 41.8663 18.959 49.6538 28.5509 49.6538C38.1428 49.6538 45.9303 41.8663 45.9303 32.2744ZM54.6198 32.2748C54.6198 18.9666 44.6268 7.97524 31.7414 6.39861L33.1533 7.81124C33.6376 8.29504 33.6376 9.08198 33.1533 9.56635C32.6695 10.0507 31.8825 10.0507 31.3982 9.56635L27.674 5.84218C27.1885 5.35838 27.1885 4.57144 27.674 4.08707L31.3982 0.36291C31.882 -0.121458 32.6689 -0.121458 33.1533 0.36291C33.6376 0.846711 33.6376 1.63365 33.1533 2.11802L31.4065 3.86476C45.8269 5.29909 57.1026 17.4817 57.1026 32.2748C57.1026 32.9598 56.5461 33.5162 55.8612 33.5162C55.1762 33.5162 54.6198 32.9598 54.6198 32.2748ZM29.5835 43.5858C29.8058 43.8075 30.1069 43.9319 30.4209 43.9317C30.7341 43.9319 31.0346 43.8081 31.2567 43.5873C31.4788 43.3665 31.6044 43.0667 31.606 42.7535V40.9923C31.606 40.839 31.6668 40.692 31.7752 40.5837C31.8836 40.4753 32.0306 40.4144 32.1838 40.4144C33.201 40.4118 34.1899 40.0794 35.0021 39.4671C35.8144 38.8548 36.4061 37.9955 36.6885 37.0184C36.971 36.0412 36.9289 34.9988 36.5686 34.0475C36.2083 33.0963 35.5492 32.2876 34.6903 31.7427C34.5642 31.6632 34.4737 31.5381 34.4377 31.3934C34.4017 31.2488 34.423 31.0958 34.4971 30.9665C34.8386 30.3723 35.0449 29.7101 35.101 29.0271C35.1572 28.344 35.062 27.657 34.8221 27.015C34.5822 26.373 34.2036 25.7919 33.7132 25.3131C33.2229 24.8343 32.633 24.4695 31.9855 24.2449C31.8732 24.2049 31.776 24.1311 31.7073 24.0337C31.6386 23.9362 31.6017 23.8199 31.6016 23.7007V21.6152C31.6059 21.4571 31.5785 21.2998 31.5209 21.1526C31.4634 21.0053 31.377 20.8711 31.2667 20.7578C31.1564 20.6445 31.0246 20.5545 30.8789 20.493C30.7333 20.4315 30.5768 20.3998 30.4187 20.3998C30.2606 20.3998 30.1041 20.4315 29.9585 20.493C29.8128 20.5545 29.681 20.6445 29.5707 20.7578C29.4605 20.8711 29.374 21.0053 29.3165 21.1526C29.259 21.2998 29.2315 21.4571 29.2358 21.6152V23.3764C29.2358 23.5292 29.1753 23.6758 29.0674 23.7841C28.9596 23.8924 28.8133 23.9536 28.6605 23.9543H26.8992C26.7459 23.9543 26.5988 23.8934 26.4903 23.7851C26.3818 23.6767 26.3207 23.5297 26.3205 23.3764V21.6152C26.3248 21.4571 26.2973 21.2998 26.2398 21.1526C26.1823 21.0053 26.0958 20.8711 25.9856 20.7578C25.8753 20.6445 25.7434 20.5545 25.5978 20.493C25.4522 20.4315 25.2957 20.3998 25.1376 20.3998C24.9795 20.3998 24.823 20.4315 24.6774 20.493C24.5317 20.5545 24.3999 20.6445 24.2896 20.7578C24.1793 20.8711 24.0929 21.0053 24.0353 21.1526C23.9778 21.2998 23.9504 21.4571 23.9546 21.6152V23.3764C23.9546 23.5297 23.8938 23.6766 23.7854 23.785C23.677 23.8934 23.53 23.9543 23.3768 23.9543H21.6155C21.4575 23.95 21.3002 23.9774 21.1529 24.035C21.0057 24.0925 20.8715 24.179 20.7582 24.2892C20.6449 24.3995 20.5549 24.5313 20.4934 24.677C20.4319 24.8226 20.4002 24.9791 20.4002 25.1372C20.4002 25.2953 20.4319 25.4518 20.4934 25.5974C20.5549 25.7431 20.6449 25.8749 20.7582 25.9852C20.8715 26.0955 21.0057 26.1819 21.1529 26.2394C21.3002 26.297 21.4575 26.3244 21.6155 26.3201H23.3768C23.4527 26.3201 23.5279 26.3351 23.5981 26.3642C23.6683 26.3933 23.732 26.4359 23.7857 26.4897C23.8394 26.5435 23.8819 26.6073 23.9109 26.6775C23.9399 26.7477 23.9548 26.8229 23.9546 26.8989V37.4655C23.9546 37.5414 23.9397 37.6165 23.9107 37.6866C23.8816 37.7567 23.839 37.8204 23.7854 37.8741C23.7317 37.9278 23.668 37.9703 23.5979 37.9994C23.5278 38.0284 23.4527 38.0434 23.3768 38.0434H21.6155C21.3017 38.0434 21.0007 38.168 20.7788 38.39C20.5568 38.6119 20.4322 38.9129 20.4322 39.2267C20.4322 39.5406 20.5568 39.8416 20.7788 40.0635C21.0007 40.2854 21.3017 40.4101 21.6155 40.4101H23.3768C23.53 40.4101 23.677 40.471 23.7854 40.5793C23.8938 40.6877 23.9546 40.8347 23.9546 40.988V42.7492C23.963 43.0574 24.0912 43.3502 24.3122 43.5653C24.5331 43.7803 24.8293 43.9006 25.1376 43.9006C25.4459 43.9006 25.742 43.7803 25.963 43.5653C26.1839 43.3502 26.3122 43.0574 26.3205 42.7492V40.988C26.3207 40.8346 26.3818 40.6876 26.4903 40.5793C26.5988 40.4709 26.7459 40.4101 26.8992 40.4101H28.6579C28.8112 40.4101 28.9582 40.471 29.0665 40.5793C29.1749 40.6877 29.2358 40.8347 29.2358 40.988V42.7492C29.2362 43.0631 29.3613 43.364 29.5835 43.5858ZM26.4903 33.5343C26.5988 33.426 26.7459 33.3651 26.8992 33.3651H32.1821C35.2751 33.3651 35.2785 38.0434 32.1821 38.0434H26.8992C26.7459 38.0434 26.5988 37.9825 26.4903 37.8742C26.3818 37.7658 26.3207 37.6188 26.3205 37.4655V33.943C26.3207 33.7897 26.3818 33.6427 26.4903 33.5343ZM26.49 26.4897C26.5985 26.3811 26.7458 26.3201 26.8992 26.3201H30.4209C33.5138 26.3201 33.5173 30.9993 30.4209 30.9993H26.8992C26.7458 30.999 26.5988 30.938 26.4903 30.8295C26.3818 30.721 26.3207 30.5739 26.3205 30.4205V26.8989C26.3205 26.7454 26.3815 26.5982 26.49 26.4897Z" fill="#CEE44A"/>
</svg>
