<svg width="64" height="64" viewBox="0 0 64 64" fill="none" xmlns="http://www.w3.org/2000/svg">
<path d="M31.5009 9.67931C31.009 9.67931 30.6128 9.28091 30.6128 8.79116V4.88814C30.6128 4.39624 31.0112 4 31.5009 4C31.9907 4 32.3891 4.3984 32.3891 4.88814V8.789C32.3891 9.28104 31.9908 9.67931 31.5009 9.67931Z" fill="#CEE44A"/>
<path d="M20.1468 12.7226C19.8398 12.7226 19.5416 12.5637 19.3761 12.2785L17.4257 8.89999C17.1797 8.47546 17.3256 7.93128 17.75 7.68526C18.1746 7.43925 18.7188 7.58516 18.9648 8.00956L20.9153 11.3881C21.1613 11.8126 21.0154 12.3568 20.591 12.6028C20.4494 12.6834 20.297 12.7226 20.1468 12.7226Z" fill="#CEE44A"/>
<path d="M11.8331 21.0339C11.6829 21.0339 11.5305 20.9946 11.3891 20.9141L8.01057 18.9636C7.58603 18.7176 7.44025 18.1755 7.68627 17.7489C7.93228 17.3243 8.47431 17.1785 8.901 17.4245L12.2795 19.375C12.704 19.6211 12.8498 20.1631 12.6038 20.5898C12.4383 20.875 12.1401 21.0339 11.8331 21.0339Z" fill="#CEE44A"/>
<path d="M8.79022 32.3881H4.88937C4.39746 32.3881 4.00122 31.9897 4.00122 31.5C4.00122 31.0102 4.39962 30.6118 4.88937 30.6118H8.79022C9.28213 30.6118 9.67837 31.0102 9.67837 31.5C9.67837 31.9897 9.28213 32.3881 8.79022 32.3881Z" fill="#CEE44A"/>
<path d="M8.45494 45.6952C8.14803 45.6952 7.84974 45.5363 7.68429 45.2511C7.43827 44.8266 7.58418 44.2824 8.00859 44.0364L11.3871 42.0859C11.8116 41.8399 12.3558 41.9858 12.6018 42.4102C12.8478 42.8347 12.7019 43.3789 12.2775 43.6249L8.89901 45.5754C8.7597 45.656 8.60517 45.6952 8.45494 45.6952Z" fill="#CEE44A"/>
<path d="M18.1941 55.4345C18.0439 55.4345 17.8915 55.3953 17.7501 55.3148C17.3255 55.0687 17.1798 54.5267 17.4258 54.1L19.3763 50.7215C19.6223 50.297 20.1643 50.1512 20.591 50.3972C21.0155 50.6432 21.1613 51.1852 20.9153 51.6119L18.9648 54.9904C18.7993 55.2755 18.5011 55.4345 18.1941 55.4345Z" fill="#CEE44A"/>
<path d="M31.5009 59.0002C31.009 59.0002 30.6128 58.6018 30.6128 58.112V54.2111C30.6128 53.7191 31.0112 53.323 31.5009 53.323C31.9907 53.323 32.3891 53.7214 32.3891 54.2111V58.112C32.3891 58.6018 31.9908 59.0002 31.5009 59.0002Z" fill="#CEE44A"/>
<path d="M44.806 55.4345C44.4991 55.4345 44.2008 55.2755 44.0353 54.9904L42.0848 51.6119C41.8388 51.1874 41.9847 50.6432 42.4114 50.3972C42.836 50.1512 43.3801 50.2971 43.6261 50.7215L45.5766 54.1C45.8226 54.5245 45.6767 55.0687 45.25 55.3147C45.1107 55.3974 44.9584 55.4345 44.806 55.4345Z" fill="#CEE44A"/>
<path d="M54.545 45.6952C54.3948 45.6952 54.2402 45.656 54.1009 45.5755L50.7224 43.625C50.2979 43.3789 50.1521 42.8369 50.3959 42.4102C50.6419 41.9857 51.186 41.8399 51.6106 42.0859L54.9891 44.0364C55.4136 44.2824 55.5594 44.8245 55.3157 45.2512C55.1524 45.5364 54.8519 45.6952 54.545 45.6952Z" fill="#CEE44A"/>
<path d="M58.1108 32.3881H54.2099C53.7179 32.3881 53.3218 31.9897 53.3218 31.5C53.3218 31.0102 53.7202 30.6118 54.2099 30.6118H58.1108C58.6028 30.6118 58.9989 31.0102 58.9989 31.5C58.9989 31.9897 58.6027 32.3881 58.1108 32.3881Z" fill="#CEE44A"/>
<path d="M51.1687 21.0338C50.8618 21.0338 50.5635 20.875 50.3981 20.5897C50.1521 20.1652 50.298 19.621 50.7247 19.375L54.1032 17.4245C54.5277 17.1785 55.0719 17.3244 55.3179 17.7488C55.5639 18.1734 55.418 18.7175 54.9913 18.9635L51.6128 20.914C51.4713 20.9946 51.319 21.0338 51.1687 21.0338Z" fill="#CEE44A"/>
<path d="M42.8555 12.7226C42.7053 12.7226 42.5507 12.6834 42.4114 12.6028C41.9869 12.3568 41.8411 11.8126 42.0848 11.3881L44.0353 8.00959C44.2813 7.58506 44.8255 7.43928 45.25 7.68529C45.6746 7.93131 45.8204 8.47549 45.5766 8.90002L43.6261 12.2785C43.4607 12.5615 43.1624 12.7226 42.8555 12.7226Z" fill="#CEE44A"/>
<path d="M31.501 32.3881H22.5019C22.01 32.3881 21.6138 31.9897 21.6138 31.4999C21.6138 31.0102 22.0122 30.6118 22.5019 30.6118H30.6107V17.8403C30.6107 17.3484 31.0091 16.9521 31.4988 16.9521C31.9885 16.9521 32.3869 17.3505 32.3869 17.8403V31.4999C32.3891 31.9918 31.9908 32.3881 31.501 32.3881Z" fill="#CEE44A"/>
</svg>
