<svg id="svg" width="20" height="20" viewBox="0 0 20 20" xmlns="http://www.w3.org/2000/svg">
<path d="M19.4728 0.527208C20.1758 1.23015 20.1758 2.36985 19.4728 3.07279L12.546 10L19.4728 16.9272C20.1172 17.5716 20.1709 18.583 19.6339 19.2885L19.4728 19.4728C18.7699 20.1758 17.6302 20.1758 16.9272 19.4728L10 12.546L3.07279 19.4728C2.36985 20.1758 1.23015 20.1758 0.527208 19.4728C-0.175736 18.7699 -0.175736 17.6302 0.527208 16.9272L7.454 10L0.527208 3.07279C-0.117157 2.42843 -0.170854 1.41707 0.366116 0.711537L0.527208 0.527208C1.23015 -0.175736 2.36985 -0.175736 3.07279 0.527208L10 7.454L16.9272 0.527208C17.6302 -0.175736 18.7699 -0.175736 19.4728 0.527208Z" />
</svg>
