<svg width="180" height="164" viewBox="0 0 180 164" fill="none" xmlns="http://www.w3.org/2000/svg">
<g filter="url(#filter0_d_302_496)">
<path d="M119.498 74.9885V66.9787C119.498 58.5427 100.401 54 82.4147 54C64.4301 54 45.3334 58.5427 45.3334 66.9787V78.1035C45.3334 82.9054 51.5259 86.4471 60.1667 88.5981V96.6453C60.1667 105.081 79.2642 109.624 97.25 109.624C115.235 109.624 134.333 105.081 134.333 96.6453V85.5205C134.333 81.0887 129.067 77.3802 119.499 74.9885H119.498ZM130.623 85.5205C130.623 89.3959 117.922 94.7915 97.2485 94.7915C84.8812 94.7915 74.9234 92.8072 69.1961 90.2674C73.461 90.8044 77.9851 91.083 82.4169 91.083C99.8832 91.083 118.406 86.7817 119.445 78.809C127.139 80.8484 130.624 83.5923 130.624 85.5206L130.623 85.5205ZM82.4167 57.7085C103.091 57.7085 115.791 63.1041 115.791 66.9795C115.791 70.8549 103.09 76.2504 82.4167 76.2504C61.7425 76.2496 49.0423 70.8541 49.0423 66.9787C49.0423 63.1041 61.7433 57.7085 82.4167 57.7085ZM49.0423 78.1027V72.874C55.4575 77.5099 69.2338 79.9573 82.4167 79.9573C95.5996 79.9573 109.376 77.5099 115.791 72.8748V78.1027C115.791 81.9781 103.09 87.3736 82.4167 87.3736C74.7964 87.3736 68.288 86.6317 63.0778 85.5197C63.0033 85.5011 62.9482 85.5011 62.8737 85.4825C54.0482 83.5541 49.0422 80.5316 49.0422 78.1028L49.0423 78.1027ZM97.2485 105.915C76.5742 105.915 63.874 100.519 63.874 96.6437V91.4336C69.8073 95.717 82.4159 98.4982 97.2485 98.4982C110.431 98.4982 124.208 96.0508 130.623 91.4157V96.6443C130.623 100.519 117.922 105.914 97.2485 105.914V105.915Z" fill="#FF6500"/>
</g>
<defs>
<filter id="filter0_d_302_496" x="0.333374" y="13" width="179" height="145.624" filterUnits="userSpaceOnUse" color-interpolation-filters="sRGB">
<feFlood flood-opacity="0" result="BackgroundImageFix"/>
<feColorMatrix in="SourceAlpha" type="matrix" values="0 0 0 0 0 0 0 0 0 0 0 0 0 0 0 0 0 0 127 0" result="hardAlpha"/>
<feOffset dy="4"/>
<feGaussianBlur stdDeviation="22.5"/>
<feComposite in2="hardAlpha" operator="out"/>
<feColorMatrix type="matrix" values="0 0 0 0 0.807843 0 0 0 0 0.894118 0 0 0 0 0.290196 0 0 0 1 0"/>
<feBlend mode="normal" in2="BackgroundImageFix" result="effect1_dropShadow_302_496"/>
<feBlend mode="normal" in="SourceGraphic" in2="effect1_dropShadow_302_496" result="shape"/>
</filter>
</defs>
</svg>
