<svg width="124" height="123" viewBox="0 0 124 123" fill="none" xmlns="http://www.w3.org/2000/svg">
<g filter="url(#filter0_d_800_619)">
<path d="M51.3985 49.3462C51.3985 52.1778 49.0789 54.4734 46.2175 54.4734C43.3561 54.4734 41.0365 52.1778 41.0365 49.3462C41.0365 46.5145 43.3561 44.219 46.2175 44.219C49.0789 44.219 51.3985 46.5145 51.3985 49.3462Z" fill="#CEE44A"/>
<path d="M37.8965 64.2616C37.8965 59.7138 41.6219 56.027 46.2175 56.027C50.8131 56.027 54.5385 59.7138 54.5385 64.2616V70.4764H37.8965V64.2616Z" fill="#CEE44A"/>
<path d="M82.4636 49.3462C82.4636 52.1778 80.144 54.4734 77.2826 54.4734C74.4212 54.4734 72.1016 52.1778 72.1016 49.3462C72.1016 46.5145 74.4212 44.219 77.2826 44.219C80.144 44.219 82.4636 46.5145 82.4636 49.3462Z" fill="#CEE44A"/>
<path d="M68.9615 64.2616C68.9615 59.7138 72.687 56.027 77.2826 56.027C81.8781 56.027 85.6036 59.7138 85.6036 64.2616V70.4764H68.9615V64.2616Z" fill="#CEE44A"/>
<path d="M68.2219 48.1021C68.2219 51.4722 65.49 54.2041 62.1199 54.2041C58.7498 54.2041 56.0178 51.4722 56.0178 48.1021C56.0178 44.732 58.7498 42 62.1199 42C65.49 42 68.2219 44.732 68.2219 48.1021Z" fill="#CEE44A"/>
<path d="M52.3196 65.8535C52.3196 60.441 56.7073 56.0533 62.1199 56.0533C67.5324 56.0533 71.9202 60.441 71.9202 65.8535V73.25H52.3196V65.8535Z" fill="#CEE44A"/>
<path fill-rule="evenodd" clip-rule="evenodd" d="M62 18C60.263 18 58.8199 19.2663 58.5467 20.9261C58.516 21.1122 58.5 21.3039 58.5 21.5C58.5 23.433 60.067 25 62 25C63.933 25 65.5 23.433 65.5 21.5C65.5 21.3039 65.484 21.1122 65.4533 20.9261C65.1801 19.2663 63.737 18 62 18ZM56.7489 19.86C57.4469 17.6233 59.5331 16 62 16C64.4669 16 66.5531 17.6233 67.2511 19.86C73.7262 20.7552 79.6801 23.2818 84.6838 27.0103C85.3884 26.6828 86.1737 26.5 87 26.5C90.0376 26.5 92.5 28.9624 92.5 32C92.5 32.7878 92.3338 33.5386 92.0343 34.2176C96.0124 39.3421 98.7088 45.5135 99.64 52.2489C101.877 52.9469 103.5 55.0331 103.5 57.5C103.5 59.9669 101.877 62.053 99.64 62.7511C98.6972 69.57 95.9453 75.8107 91.8858 80.9724C92.2782 81.7297 92.5 82.5898 92.5 83.5C92.5 86.5376 90.0376 89 87 89C86.0132 89 85.0856 88.7394 84.284 88.2835C79.3137 91.8876 73.4351 94.3181 67.0566 95.1664C66.2158 97.1262 64.2694 98.5 62 98.5C59.7306 98.5 57.7842 97.1262 56.9434 95.1664C50.5649 94.3181 44.6863 91.8876 39.716 88.2835C38.9144 88.7394 37.9868 89 37 89C33.9624 89 31.5 86.5376 31.5 83.5C31.5 82.5898 31.7218 81.7297 32.1141 80.9724C28.0547 75.8107 25.3027 69.57 24.36 62.7511C22.1233 62.0531 20.5 59.9669 20.5 57.5C20.5 55.0331 22.1233 52.9469 24.36 52.2489C25.2912 45.5135 27.9875 39.3421 31.9657 34.2176C31.6662 33.5386 31.5 32.7878 31.5 32C31.5 28.9624 33.9624 26.5 37 26.5C37.8263 26.5 38.6116 26.6828 39.3162 27.0103C44.3199 23.2818 50.2738 20.7552 56.7489 19.86ZM56.5154 21.915C50.7955 22.7891 45.5185 25.0096 41.0174 28.2437C41.9362 29.2261 42.5 30.547 42.5 32C42.5 35.0376 40.0376 37.5 37 37.5C35.508 37.5 34.1554 36.9056 33.1653 35.9426C29.7025 40.5668 27.3266 46.0503 26.415 52.0154C29.2587 52.2276 31.5 54.602 31.5 57.5C31.5 60.398 29.2587 62.7724 26.415 62.9846C27.346 69.0769 29.8044 74.6668 33.3883 79.352C34.3539 78.5107 35.6173 78 37 78C40.0376 78 42.5 80.4624 42.5 83.5C42.5 84.8054 42.0446 86.0047 41.2857 86.9472C45.7238 90.0751 50.8996 92.2244 56.5006 93.0827C56.5002 93.0552 56.5 93.0276 56.5 93C56.5 89.9624 58.9624 87.5 62 87.5C65.0376 87.5 67.5 89.9624 67.5 93C67.5 93.0276 67.4998 93.0552 67.4994 93.0827C73.1004 92.2244 78.2762 90.0751 82.7143 86.9472C81.9554 86.0047 81.5 84.8054 81.5 83.5C81.5 80.4624 83.9624 78 87 78C88.3827 78 89.646 78.5107 90.6116 79.352C94.1955 74.6668 96.6539 69.0769 97.585 62.9846C94.7413 62.7724 92.5 60.398 92.5 57.5C92.5 54.602 94.7413 52.2276 97.585 52.0154C96.6734 46.0503 94.2975 40.5668 90.8347 35.9426C89.8446 36.9056 88.492 37.5 87 37.5C83.9624 37.5 81.5 35.0376 81.5 32C81.5 30.547 82.0638 29.2261 82.9826 28.2437C78.4814 25.0096 73.2045 22.7891 67.4846 21.915C67.2724 24.7587 64.898 27 62 27C59.102 27 56.7276 24.7587 56.5154 21.915ZM37 28.5C35.067 28.5 33.5 30.067 33.5 32C33.5 32.6654 33.6847 33.2846 34.0051 33.8125C34.6203 34.8263 35.732 35.5 37 35.5C38.933 35.5 40.5 33.933 40.5 32C40.5 30.7565 39.8523 29.6636 38.8711 29.0414C38.3305 28.6986 37.69 28.5 37 28.5ZM87 28.5C86.31 28.5 85.6695 28.6986 85.1289 29.0414C84.1477 29.6636 83.5 30.7565 83.5 32C83.5 33.933 85.067 35.5 87 35.5C88.268 35.5 89.3797 34.8263 89.9949 33.8125C90.3153 33.2846 90.5 32.6654 90.5 32C90.5 30.067 88.933 28.5 87 28.5ZM26 54C25.8039 54 25.6122 54.016 25.4261 54.0467C23.7663 54.3199 22.5 55.763 22.5 57.5C22.5 59.237 23.7663 60.6801 25.4261 60.9533C25.6122 60.984 25.8039 61 26 61C27.933 61 29.5 59.433 29.5 57.5C29.5 55.567 27.933 54 26 54ZM98 54C96.067 54 94.5 55.567 94.5 57.5C94.5 59.433 96.067 61 98 61C98.1961 61 98.3878 60.984 98.5739 60.9533C100.234 60.6801 101.5 59.237 101.5 57.5C101.5 55.763 100.234 54.3199 98.5739 54.0467C98.3878 54.016 98.1961 54 98 54ZM37 80C35.8236 80 34.7826 80.5794 34.1464 81.4728C33.7393 82.0446 33.5 82.7429 33.5 83.5C33.5 85.433 35.067 87 37 87C37.8059 87 38.5456 86.7288 39.1369 86.2722C39.9679 85.6305 40.5 84.6276 40.5 83.5C40.5 81.567 38.933 80 37 80ZM87 80C85.067 80 83.5 81.567 83.5 83.5C83.5 84.6276 84.0321 85.6305 84.8631 86.2722C85.4544 86.7288 86.1941 87 87 87C88.933 87 90.5 85.433 90.5 83.5C90.5 82.7429 90.2607 82.0446 89.8536 81.4728C89.2174 80.5794 88.1763 80 87 80ZM62 89.5C60.067 89.5 58.5 91.067 58.5 93C58.5 93.339 58.5479 93.6651 58.6367 93.9728C59.0582 95.4333 60.4058 96.5 62 96.5C63.5942 96.5 64.9418 95.4333 65.3633 93.9728C65.4521 93.6651 65.5 93.339 65.5 93C65.5 91.067 63.933 89.5 62 89.5Z" fill="#CEE44A"/>
</g>
<defs>
<filter id="filter0_d_800_619" x="0.5" y="0" width="123" height="122.5" filterUnits="userSpaceOnUse" color-interpolation-filters="sRGB">
<feFlood flood-opacity="0" result="BackgroundImageFix"/>
<feColorMatrix in="SourceAlpha" type="matrix" values="0 0 0 0 0 0 0 0 0 0 0 0 0 0 0 0 0 0 127 0" result="hardAlpha"/>
<feOffset dy="4"/>
<feGaussianBlur stdDeviation="10"/>
<feComposite in2="hardAlpha" operator="out"/>
<feColorMatrix type="matrix" values="0 0 0 0 0.807843 0 0 0 0 0.894118 0 0 0 0 0.290196 0 0 0 1 0"/>
<feBlend mode="normal" in2="BackgroundImageFix" result="effect1_dropShadow_800_619"/>
<feBlend mode="normal" in="SourceGraphic" in2="effect1_dropShadow_800_619" result="shape"/>
</filter>
</defs>
</svg>
