<svg id="svg" width="24" height="24" viewBox="0 0 24 24" xmlns="http://www.w3.org/2000/svg">
<path d="M7.87868 1.87868C8.44129 1.31607 9.20435 1 10 1H14.685C15.4689 1.0001 16.2217 1.30699 16.7821 1.855L20.097 5.09688C20.3828 5.37624 20.6099 5.7099 20.765 6.07825C20.92 6.4466 21 6.84222 21 7.24188V16C21 16.7957 20.6839 17.5587 20.1213 18.1213C19.5587 18.6839 18.7957 19 18 19H10C9.20435 19 8.44129 18.6839 7.87868 18.1213C7.31607 17.5587 7 16.7957 7 16V4C7 3.20435 7.31607 2.44129 7.87868 1.87868ZM10 3C9.73478 3 9.48043 3.10536 9.29289 3.29289C9.10536 3.48043 9 3.73478 9 4V16C9 16.2652 9.10536 16.5196 9.29289 16.7071C9.48043 16.8946 9.73478 17 10 17H18C18.2652 17 18.5196 16.8946 18.7071 16.7071C18.8946 16.5196 19 16.2652 19 16V7.24212C19 7.24208 19 7.24216 19 7.24212C19 7.10894 18.9733 6.97699 18.9217 6.85424C18.87 6.73146 18.7943 6.62024 18.699 6.52712L15.3839 3.285C15.3839 3.28498 15.3839 3.28502 15.3839 3.285C15.1971 3.1024 14.9462 3.00006 14.685 3C14.685 3 14.685 3 14.685 3H10Z" />
<path d="M6 8C5.73478 8 5.48043 8.10536 5.29289 8.29289C5.10536 8.48043 5 8.73478 5 9V20C5 20.2652 5.10536 20.5196 5.29289 20.7071C5.48043 20.8946 5.73478 21 6 21H14C14.2652 21 14.5196 20.8946 14.7071 20.7071C14.8946 20.5196 15 20.2652 15 20V18C15 17.4477 15.4477 17 16 17C16.5523 17 17 17.4477 17 18V20C17 20.7957 16.6839 21.5587 16.1213 22.1213C15.5587 22.6839 14.7957 23 14 23H6C5.20435 23 4.44129 22.6839 3.87868 22.1213C3.31607 21.5587 3 20.7956 3 20V9C3 8.20435 3.31607 7.44129 3.87868 6.87868C4.44129 6.31607 5.20435 6 6 6H8C8.55228 6 9 6.44772 9 7C9 7.55228 8.55228 8 8 8H6Z" />
</svg>
