<svg id="svg" width="64" height="64" viewBox="0 0 64 64" fill="none" xmlns="http://www.w3.org/2000/svg">
<path fill-rule="evenodd" clip-rule="evenodd" d="M60.9984 55.8761C60.9992 55.8918 60.9997 55.9076 60.9997 55.9235C60.9997 56.1516 60.9089 56.3712 60.7462 56.5337L56.5291 60.7508C56.3623 60.9156 56.1406 61 55.9209 61C55.6992 61 55.4796 60.9156 55.3106 60.7466C54.9748 60.4108 54.9748 59.8639 55.3106 59.5281L58.0559 56.7829H8.07823C7.60101 56.7829 7.21666 56.3965 7.21666 55.9213V5.94148L4.47134 8.68669C4.13553 9.0246 3.58865 9.0246 3.25284 8.68669C2.91702 8.35087 2.91702 7.80399 3.25284 7.46818L7.46783 3.25122C7.50434 3.21471 7.54403 3.18232 7.58619 3.15407C7.72578 3.05689 7.89544 3 8.07823 3C8.28276 3 8.47086 3.07161 8.61878 3.19109C8.6423 3.20971 8.66487 3.22975 8.68634 3.25122L12.9034 7.46831C13.2392 7.80413 13.2392 8.35101 12.9034 8.68682C12.7366 8.85564 12.5149 8.94012 12.2953 8.94012C12.0736 8.94012 11.854 8.85564 11.6851 8.68669L8.93981 5.94154V55.0598H58.0558L55.3106 52.3147C54.9748 51.9788 54.9748 51.432 55.3106 51.0961C55.6464 50.7582 56.1933 50.7582 56.5291 51.0961L60.7081 55.2751C60.8764 55.4237 60.986 55.6372 60.9984 55.8761Z" fill="#CEE44A"/>
<path fill-rule="evenodd" clip-rule="evenodd" d="M13.0275 50.8321C13.1965 51.0011 13.416 51.0855 13.6377 51.0855C13.8594 51.0855 14.079 51.0011 14.2501 50.8322L24.7115 40.3708L29.6085 45.2678C29.9443 45.6057 30.4912 45.6057 30.827 45.2678L37.6346 38.4589L44.3125 45.1368C44.4751 45.2995 44.6947 45.3903 44.9228 45.3903C45.1508 45.3903 45.3703 45.2995 45.531 45.137L52.7298 37.9382C53.0656 37.6024 53.0656 37.0555 52.7298 36.7197C52.394 36.3818 51.8471 36.3818 51.5113 36.7197L44.9228 43.3082L38.8539 37.2393L52.7339 23.3567C53.0697 23.0209 53.0697 22.474 52.7339 22.1382C52.3981 21.8003 51.8512 21.8003 51.5154 22.1382L37.6341 36.0195L27.951 26.3365C27.6152 25.9986 27.0683 25.9986 26.7325 26.3365L13.0297 40.0392C12.6939 40.375 12.6939 40.9218 13.0297 41.2577C13.3655 41.5956 13.9124 41.5956 14.2482 41.2577L27.3408 28.1651L36.4146 37.2389L30.2146 43.4389L25.3176 38.542C24.9818 38.204 24.435 38.204 24.0991 38.542L13.0275 49.6136C12.6917 49.9494 12.6917 50.4963 13.0275 50.8321Z" fill="#CEE44A"/>
</svg>
