<svg id="svg" width="72" height="72" viewBox="0 0 72 72" fill="none" xmlns="http://www.w3.org/2000/svg">
<path d="M60.922 14.2019C60.8063 13.3823 60.1038 12.7734 59.2759 12.7748C49.8761 12.7748 42.7208 10.0664 36.7464 4.25801H36.7459C36.1019 3.62966 35.074 3.62966 34.4293 4.25801C28.4552 10.0664 21.2988 12.7748 11.8999 12.7748C11.0719 12.7734 10.3695 13.3823 10.2532 14.2019L7.65144 32.6026C6.85176 38.1322 7.72692 43.7744 10.1643 48.8022C12.6017 53.8299 16.4895 58.0115 21.326 60.8089L34.7552 68.6218C35.2701 68.921 35.9059 68.921 36.4213 68.6218L49.8565 60.802C54.692 58.0056 58.5788 53.8249 61.0163 48.7987C63.4533 43.7729 64.3293 38.1316 63.5311 32.6039L60.922 14.2019ZM48.2028 57.9344L35.5903 65.2366L22.9778 57.9344C18.716 55.4669 15.2913 51.7791 13.1451 47.347C10.999 42.9147 10.2293 37.9412 10.9359 33.0678L13.3456 16.0741C22.38 15.8217 29.5166 13.1402 35.5905 7.72361C41.6642 13.1472 48.8005 15.8222 57.8355 16.0811L60.2452 33.0748C60.9504 37.947 60.1804 42.9191 58.0342 47.3504C55.8881 51.7813 52.4638 55.4679 48.2033 57.9351L48.2028 57.9344Z" fill="#CEE44A"/>
<path d="M39.3644 22.0479C38.8528 21.1593 38.0447 20.48 37.0816 20.129C36.1185 19.778 35.0628 19.778 34.0996 20.129C33.1365 20.4799 32.3281 21.1592 31.8168 22.0479L19.8681 42.7186C19.356 43.6058 19.1726 44.6454 19.3513 45.6539C19.5296 46.6629 20.0579 47.5765 20.8433 48.2345C21.6286 48.892 22.6209 49.2523 23.6452 49.2509H47.5426C49.098 49.2504 50.5357 48.4202 51.3132 47.0732C52.0911 45.7258 52.0907 44.0657 51.3132 42.7188L39.3644 22.0479ZM48.4253 45.4142C48.2438 45.7374 47.9002 45.9361 47.5293 45.9324H23.6449C23.2749 45.9319 22.9337 45.7346 22.7485 45.4142C22.5637 45.0938 22.5637 44.6993 22.7489 44.3789L34.6976 23.7081C34.8819 23.3849 35.225 23.1853 35.5969 23.1853C35.9687 23.1853 36.3123 23.3849 36.4966 23.7081L48.4453 44.3789H48.4448C48.6282 44.7016 48.6203 45.0989 48.4249 45.4142H48.4253Z" fill="#CEE44A"/>
<path d="M35.59 29.1559C34.6736 29.1559 33.9304 29.8991 33.9304 30.8154V36.79C33.9304 37.7064 34.6736 38.4496 35.59 38.4496C36.5063 38.4496 37.2495 37.7064 37.2495 36.79V30.8154C37.2495 30.3755 37.0745 29.9532 36.7633 29.6421C36.4521 29.3309 36.0303 29.1559 35.59 29.1559Z" fill="#CEE44A"/>
<path d="M35.59 40.5497C34.6736 40.5497 33.9304 41.2929 33.9304 42.2093V42.2954C33.9304 43.2122 34.6736 43.9549 35.59 43.9549C36.5063 43.9549 37.2495 43.2122 37.2495 42.2954V42.1958C37.2421 41.2846 36.5012 40.5497 35.59 40.5497V40.5497Z" fill="#CEE44A"/>
</svg>
