<svg width="164" height="211" viewBox="0 0 164 211" fill="none" xmlns="http://www.w3.org/2000/svg">
<g filter="url(#filter0_d_302_509)">
<path d="M54.3049 99.5035C52.7 101.75 52.5582 104.108 53.9823 106.664C56.6267 110.027 58.3311 111.627 59.5887 112.779C59.2856 114.444 59.0933 116.175 59.0933 117.979C59.0933 120.431 61.6025 124.874 66.4091 133.169L67.9439 135.825C66.8164 136.317 66.0115 137.516 66.0115 138.916V158.67C66.0115 160.506 67.3899 162 69.0812 162H101.184C102.877 162 104.254 160.504 104.254 158.67V138.916C104.254 137.29 103.177 135.937 101.759 135.644C102.119 134.367 102.739 132.348 103.431 130.104C106.398 120.485 110.877 105.953 110.504 100.292C110.497 100.199 110.481 100.105 110.452 100.017C108.847 94.9509 104.107 90.8957 98.1095 85.7615C95.2077 83.2816 91.9997 80.505 88.8075 77.3262C94.4711 73.7547 98.0294 67.4736 98.0294 60.6793C98.0294 49.8261 89.2 41 78.3468 41C67.4936 41 58.6675 49.8294 58.6675 60.6793C58.6675 67.477 62.1689 73.6832 67.8535 77.2774C62.9783 79.3141 55.8357 83.2342 54.3041 85.3786C52.6992 87.6254 52.5574 89.9831 53.9815 92.5395C54.8646 93.6638 55.8666 95.2182 56.8589 96.8395C55.7428 97.7634 54.7342 98.9007 54.3041 99.5035L54.3049 99.5035ZM101.918 158.667C101.918 159.206 101.583 159.662 101.185 159.662H69.082C68.6844 159.662 68.3488 159.206 68.3488 158.667V138.913C68.3488 138.37 68.6844 137.912 69.082 137.912H101.187C101.584 137.912 101.92 138.37 101.92 138.913L101.918 158.667ZM96.5933 87.5324C102.25 92.3717 106.731 96.2053 108.184 100.58C108.442 105.929 103.914 120.608 101.203 129.408C100.277 132.412 99.668 134.397 99.3568 135.572L70.4976 135.573L68.4284 131.99C64.6728 125.509 61.4289 119.909 61.4289 117.973C61.4289 115.863 61.7189 113.848 62.1555 111.917C62.3103 111.301 62.5384 110.413 62.7258 109.724C62.8969 109.152 63.0745 108.586 63.2684 108.036C63.3531 107.803 63.4411 107.563 63.5275 107.329C64.1254 105.722 64.7886 104.215 65.4599 102.809C66.1914 101.455 67.0957 99.695 67.8501 97.981C67.9723 97.7317 68.1206 97.4466 68.233 97.2071C68.4611 96.7215 68.6762 96.0535 68.8848 95.3073C68.9157 95.2144 68.9483 95.115 68.976 95.027C69.3116 93.906 69.6228 92.1887 69.9031 90.2711C70.8416 84.1984 71.4233 76.1773 71.6644 71.6166C72.0164 72.7148 72.4987 73.6191 73.126 74.3262C74.2339 75.5711 75.7378 76.2228 77.7271 76.314L78.1638 76.3238C80.1255 76.3238 81.7516 75.6868 82.9948 74.4272C83.6237 73.7918 84.0881 73.026 84.4644 72.2081C84.4693 73.4252 84.4661 74.626 84.4628 75.6656C84.4579 75.7503 83.9772 84.0599 84.3927 90.9877C84.4041 91.6492 84.4204 92.2277 84.4449 92.7067C84.5459 94.7222 84.8652 96.5585 85.4159 98.2922C85.5349 98.7061 85.6685 99.0857 85.794 99.3823C86.9834 102.524 89.0217 105.567 92.0277 108.686C92.4676 109.144 93.1959 109.165 93.6635 108.733C94.1312 108.298 94.1637 107.573 93.7401 107.097C93.7141 107.07 92.1466 105.302 90.5548 103.009C90.7927 103.026 91.0354 103.063 91.2668 103.063C93.0868 103.063 94.6086 102.605 94.7047 102.578C95.3206 102.389 95.6693 101.734 95.4803 101.118C95.2913 100.502 94.6363 100.148 94.0204 100.342C93.2383 100.583 90.8367 101.054 89.1552 100.378C89.0623 100.339 88.9629 100.336 88.8684 100.324C88.536 99.7327 88.2314 99.1396 87.9788 98.553C87.8599 98.2369 87.7507 97.9225 87.6595 97.6373C87.2195 96.1172 86.9051 93.8491 86.7291 90.9423C86.6867 88.5341 86.7193 85.0097 86.7552 81.3112C86.7617 80.4167 86.7715 79.5124 86.778 78.6113C90.1556 82.0264 93.5431 84.9252 96.593 87.5321L96.5933 87.5324ZM83.4005 64.0177C83.4233 65.9941 83.4803 70.6181 81.3361 72.7883C80.5377 73.5965 79.4999 73.9907 78.167 73.9907L77.8395 73.9842C76.4921 73.9207 75.5503 73.5378 74.8757 72.7785C73.6032 71.3463 73.0998 68.3434 73.3735 63.8561C74.3918 62.7204 75.8713 62.0296 77.7515 61.8748C80.2655 61.6646 82.2942 62.4581 83.4021 63.8577L83.4005 64.0177ZM61.0066 60.6743C61.0066 51.1116 68.7866 43.3316 78.3493 43.3316C87.9153 43.3316 95.6953 51.1116 95.6953 60.6743C95.6953 66.8379 92.3616 72.5048 87.1136 75.5973C87.0077 75.4881 86.9034 75.3887 86.8008 75.2796C86.8073 73.5932 86.8024 72.1512 86.791 70.9016L86.9539 71.058L88.743 69.1777L87.5829 68.0747C88.8147 66.5219 89.4746 64.8763 89.486 63.1298C89.5072 61.0768 88.7479 59.3481 87.2163 57.9468L87.1299 57.9077L85.1519 59.9884C86.2957 61.0768 86.8806 62.2613 86.8986 63.5419C86.9083 64.1464 86.7747 64.7428 86.5173 65.331C86.3593 64.3876 86.0155 63.5306 85.4973 62.7762C84.2086 60.0894 81.2107 58.5187 77.6048 58.8381C75.239 59.0417 73.3002 60.0943 71.9542 61.7627C71.4148 60.9171 71.0043 60.0438 70.8381 59.1085C70.5464 57.4596 70.9782 56.0323 72.1301 54.8202C73.2739 53.6177 74.4911 52.9953 75.7734 52.9562C77.0556 52.9171 78.2565 53.432 79.3791 54.5008L81.3603 52.4201L81.3131 52.3354C79.7473 50.7892 77.973 50.0934 75.9899 50.2466C74.2938 50.3769 72.7035 51.1509 71.1965 52.4886L69.7675 51.1265L67.9785 53.0067L69.4596 54.4177C68.4347 55.933 67.9769 57.6129 68.1349 59.4668C68.2913 61.2998 69.036 62.9699 70.2629 64.5097C69.7871 65.6177 69.4971 66.8641 69.4596 68.2588C69.4596 69.1517 69.3309 71.8727 69.0881 75.3009C64.0894 72.127 61.0066 66.6621 61.0066 60.6745L61.0066 60.6743ZM56.2082 86.7342C57.2705 85.2482 63.8317 81.4811 68.7328 79.4364C68.5438 81.667 68.1886 85.5333 67.7324 88.919C67.6037 89.8347 67.4684 90.6966 67.3267 91.5048C66.0052 90.2925 64.5291 90.3023 64.4606 90.2485C63.8154 90.2534 63.2957 90.7781 63.3006 91.4233C63.3055 92.0685 63.8383 92.5801 64.4753 92.5834C64.49 92.5834 65.7397 92.6225 66.4794 94.2746C66.5234 94.3756 66.6147 94.4294 66.6831 94.5109C66.4403 95.2881 66.0949 96.1646 65.6957 97.0657C65.4415 97.5789 65.1988 98.0743 64.9104 98.6429C64.4297 99.5895 63.9148 100.621 63.3983 101.698C63.2582 101.955 63.123 102.205 62.9991 102.429C62.2985 101.359 61.4643 99.961 60.6024 98.5093C59.061 95.9251 57.316 92.9971 55.9228 91.249C55.0397 89.6409 55.1277 88.2494 56.208 86.7342L56.2082 86.7342ZM57.8603 99.0485L61.7333 105.485C61.6681 105.652 61.5883 105.861 61.5068 106.073C61.3227 106.553 61.1402 107.036 60.9691 107.533C60.8453 107.881 60.7312 108.207 60.6611 108.447C60.6172 108.588 60.5634 108.791 60.5096 108.984C60.3956 109.366 60.2831 109.745 60.1805 110.133C59.1068 109.098 57.7413 107.671 55.9247 105.38C55.04 103.769 55.1263 102.374 56.2066 100.859C56.5096 100.433 57.1483 99.7018 57.8603 99.0485L57.8603 99.0485Z" fill="#FF6500"/>
<path d="M74.8383 143.751C71.7784 143.751 69.2903 146.239 69.2903 149.299C69.2903 152.359 71.7783 154.847 74.8383 154.847C77.8983 154.847 80.3863 152.359 80.3863 149.299C80.3863 146.239 77.8983 143.751 74.8383 143.751ZM74.8383 152.511C73.0672 152.511 71.6268 151.069 71.6268 149.299C71.6268 147.528 73.0688 146.088 74.8383 146.088C76.6094 146.088 78.0497 147.53 78.0497 149.299C78.0497 151.069 76.6094 152.511 74.8383 152.511Z" fill="#FF6500"/>
<path d="M89.5247 48.5287C90.0853 49.0419 90.5985 49.5796 91.0661 50.1401L91.0889 50.1629L91.5321 49.8126L91.5093 49.7653C91.0188 49.182 90.4812 48.6215 89.9207 48.0839L89.8734 48.0366L89.4759 48.4798H89.4987L89.4514 48.5271L89.5247 48.5287Z" fill="#FF6500"/>
<path d="M64.2713 69.2914L64.2485 69.2686L63.7581 69.5716L63.7809 69.5944C64.1784 70.2722 64.6216 70.8783 65.112 71.4633L65.0892 71.4861L65.1593 71.5334L65.5797 71.2059L65.6269 71.183L65.5797 71.1358C65.0876 70.5297 64.6444 69.8991 64.2713 69.2914H64.2713Z" fill="#FF6500"/>
<path d="M68.8968 74.1971H68.8495C68.2418 73.7295 67.6357 73.2635 67.1208 72.7731L67.098 72.7502L66.7004 73.1706L66.7233 73.1934C67.2838 73.7311 67.8915 74.2215 68.522 74.6647L68.5693 74.712L68.9196 74.2215L68.8968 74.1971Z" fill="#FF6500"/>
<path d="M94.3298 64.8792L94.2597 65.0893V65.1121H94.2369V65.1594C94.0495 65.86 93.7937 66.5606 93.489 67.2613V67.3085L94.0023 67.5415L94.0251 67.4943C94.3281 66.7708 94.6084 66.0458 94.8186 65.2979V65.2751L94.3281 65.1122L94.3298 64.8792Z" fill="#FF6500"/>
<path d="M67.0509 48.645L66.6306 48.2246L66.6078 48.2474C66.0472 48.7851 65.5096 49.3684 65.042 49.9533C65.042 49.9761 65.0191 49.9761 65.0191 50.0006L64.9963 50.0234L65.464 50.3737L65.4868 50.3509V50.3281C65.9772 49.7203 66.4904 49.1843 67.0053 48.6694L67.0509 48.645Z" fill="#FF6500"/>
<path d="M85.8291 45.9585C86.5069 46.286 87.1374 46.6819 87.768 47.1023L87.7908 47.1251L88.1183 46.6574L88.0955 46.6346C87.4649 46.1915 86.7871 45.7939 86.0865 45.4436C86.0865 45.4208 86.0865 45.4208 86.0637 45.4208L86.0409 45.3979L85.7834 45.9112L85.8063 45.934L85.8291 45.9585Z" fill="#FF6500"/>
<path d="M89.6638 72.7045L89.6165 72.6572V72.7501C89.0788 73.2405 88.4956 73.731 87.8878 74.1742H87.8406L88.1909 74.6646L88.2137 74.6418C88.8442 74.1742 89.452 73.6837 90.0125 73.1705L90.0597 73.1233L89.6866 72.7257L89.6638 72.7045Z" fill="#FF6500"/>
<path d="M92.4633 69.2714C92.0657 69.8791 91.6453 70.4853 91.1549 71.093L91.1321 71.1158L91.5753 71.489L91.5981 71.4661C92.1113 70.8356 92.5561 70.205 92.9521 69.5745C92.9521 69.5745 92.9749 69.5517 92.9749 69.5272L92.4616 69.1997L92.4633 69.2714Z" fill="#FF6500"/>
<path d="M94.214 56.0739C94.4242 56.7745 94.5871 57.5224 94.6816 58.2702V58.293L95.2649 58.223V58.1757C95.1476 57.405 94.9847 56.6344 94.7745 55.9093L94.7517 55.8621H94.7289L94.2384 56.0022L94.1912 56.025C94.1912 56.0478 94.214 56.0478 94.214 56.0478L94.214 56.0739Z" fill="#FF6500"/>
<path d="M94.8702 60.5122V60.6751V60.698C94.8702 61.4458 94.8001 62.2165 94.7073 62.9399V62.9872L95.2906 63.0572V63.0344C95.3834 62.2866 95.4535 61.4931 95.4535 60.6979V60.6751V60.5122V60.4421H94.8702V60.5122Z" fill="#FF6500"/>
<path d="M93.4485 53.9715V53.9943L93.9862 53.7613V53.7141C93.6587 52.9906 93.2856 52.3128 92.888 51.6578H92.8652V51.6106L92.3976 51.9137H92.3503L92.3976 51.9609C92.7951 52.6159 93.1455 53.2937 93.4485 53.9715L93.4485 53.9715Z" fill="#FF6500"/>
<path d="M81.5815 44.4867C82.3294 44.6268 83.0772 44.837 83.7534 45.0699L83.8007 45.0927L83.988 44.5322L83.9652 44.5094C83.2174 44.2764 82.4695 44.0662 81.7461 43.9261V43.9033L81.5359 44.441V44.4883H81.5587L81.5815 44.4866L81.5815 44.4867Z" fill="#FF6500"/>
<path d="M61.9832 58.5257V58.5029C62.076 57.755 62.2406 57.0316 62.4263 56.3065L62.4491 56.2593L61.8886 56.1191L61.8658 56.142C61.6556 56.8898 61.5155 57.6605 61.3982 58.4312V58.454L61.9815 58.5713L61.9832 58.5257Z" fill="#FF6500"/>
<path d="M63.17 54.1801V54.1572C63.473 53.4794 63.8233 52.8033 64.1981 52.1711L64.2209 52.1483L63.7076 51.8452L63.6848 51.868C63.2873 52.5458 62.9369 53.2465 62.6339 53.9471L62.5867 53.9943L63.1699 54.2273L63.17 54.1801Z" fill="#FF6500"/>
<path d="M62.4708 65.2044L62.448 65.1571L61.8875 65.32L61.9103 65.3428C62.1204 66.0907 62.3779 66.8141 62.7037 67.5392L62.7265 67.5864L63.217 67.3762L63.2642 67.3534L63.217 67.3062C62.9139 66.6056 62.6565 65.9049 62.4707 65.2043L62.4708 65.2044Z" fill="#FF6500"/>
<path d="M62.031 63.0565L62.0082 62.9865C61.8909 62.2386 61.8453 61.4907 61.8453 60.7445V60.7217H61.262V60.7445C61.262 61.5624 61.332 62.3331 61.4249 63.081V63.1282L62.031 63.0565Z" fill="#FF6500"/>
<path d="M68.5245 47.3603L68.7347 47.2674L68.7575 47.2446C69.3652 46.8014 70.0186 46.4039 70.6736 46.0535H70.6964L70.4162 45.5403H70.3933C69.7155 45.9134 69.0622 46.311 68.4072 46.7786H68.3844L68.3616 46.8014L68.6646 47.2218L68.5245 47.3603Z" fill="#FF6500"/>
<path d="M77.1428 44.4658V44.2083C77.9135 44.1611 78.474 44.1383 79.362 44.2083H79.3848L79.432 43.625H79.3848C78.5441 43.5778 77.7734 43.5778 77.0727 43.625H77.0027L77.0499 44.1856L77.1428 44.4658Z" fill="#FF6500"/>
<path d="M72.6558 45.1873L72.703 45.1645H72.7258C73.4493 44.8843 74.1743 44.6741 74.8749 44.534H74.9222L74.8048 43.9507L74.7576 43.9735C74.0097 44.1136 73.2619 44.3466 72.5156 44.604H72.4456L72.6557 45.1417L72.6558 45.1873Z" fill="#FF6500"/>
</g>
<defs>
<filter id="filter0_d_302_509" x="8.00024" y="0" width="147.526" height="211" filterUnits="userSpaceOnUse" color-interpolation-filters="sRGB">
<feFlood flood-opacity="0" result="BackgroundImageFix"/>
<feColorMatrix in="SourceAlpha" type="matrix" values="0 0 0 0 0 0 0 0 0 0 0 0 0 0 0 0 0 0 127 0" result="hardAlpha"/>
<feOffset dy="4"/>
<feGaussianBlur stdDeviation="22.5"/>
<feComposite in2="hardAlpha" operator="out"/>
<feColorMatrix type="matrix" values="0 0 0 0 0.807843 0 0 0 0 0.894118 0 0 0 0 0.290196 0 0 0 1 0"/>
<feBlend mode="normal" in2="BackgroundImageFix" result="effect1_dropShadow_302_509"/>
<feBlend mode="normal" in="SourceGraphic" in2="effect1_dropShadow_302_509" result="shape"/>
</filter>
</defs>
</svg>
