<svg width="92" height="92" viewBox="0 0 92 92" fill="none" xmlns="http://www.w3.org/2000/svg">
<path fill-rule="evenodd" clip-rule="evenodd" d="M17.25 22.5C19.8734 22.5 22 20.3734 22 17.75C22 15.1266 19.8734 13 17.25 13C14.6266 13 12.5 15.1266 12.5 17.75C12.5 20.3734 14.6266 22.5 17.25 22.5ZM17.25 24.5C20.9779 24.5 24 21.4779 24 17.75C24 14.0221 20.9779 11 17.25 11C13.5221 11 10.5 14.0221 10.5 17.75C10.5 21.4779 13.5221 24.5 17.25 24.5Z" fill="#FF6500"/>
<path fill-rule="evenodd" clip-rule="evenodd" d="M36.25 22.5C38.8734 22.5 41 20.3734 41 17.75C41 15.1266 38.8734 13 36.25 13C33.6266 13 31.5 15.1266 31.5 17.75C31.5 20.3734 33.6266 22.5 36.25 22.5ZM36.25 24.5C39.9779 24.5 43 21.4779 43 17.75C43 14.0221 39.9779 11 36.25 11C32.5221 11 29.5 14.0221 29.5 17.75C29.5 21.4779 32.5221 24.5 36.25 24.5Z" fill="#FF6500"/>
<path fill-rule="evenodd" clip-rule="evenodd" d="M55.25 22.5C57.8734 22.5 60 20.3734 60 17.75C60 15.1266 57.8734 13 55.25 13C52.6266 13 50.5 15.1266 50.5 17.75C50.5 20.3734 52.6266 22.5 55.25 22.5ZM55.25 24.5C58.9779 24.5 62 21.4779 62 17.75C62 14.0221 58.9779 11 55.25 11C51.5221 11 48.5 14.0221 48.5 17.75C48.5 21.4779 51.5221 24.5 55.25 24.5Z" fill="#FF6500"/>
<path fill-rule="evenodd" clip-rule="evenodd" d="M74.25 22.5C76.8734 22.5 79 20.3734 79 17.75C79 15.1266 76.8734 13 74.25 13C71.6266 13 69.5 15.1266 69.5 17.75C69.5 20.3734 71.6266 22.5 74.25 22.5ZM74.25 24.5C77.9779 24.5 81 21.4779 81 17.75C81 14.0221 77.9779 11 74.25 11C70.5221 11 67.5 14.0221 67.5 17.75C67.5 21.4779 70.5221 24.5 74.25 24.5Z" fill="#FF6500"/>
<path fill-rule="evenodd" clip-rule="evenodd" d="M17.25 41.5C19.8734 41.5 22 39.3734 22 36.75C22 34.1266 19.8734 32 17.25 32C14.6266 32 12.5 34.1266 12.5 36.75C12.5 39.3734 14.6266 41.5 17.25 41.5ZM17.25 43.5C20.9779 43.5 24 40.4779 24 36.75C24 33.0221 20.9779 30 17.25 30C13.5221 30 10.5 33.0221 10.5 36.75C10.5 40.4779 13.5221 43.5 17.25 43.5Z" fill="#FF6500"/>
<path fill-rule="evenodd" clip-rule="evenodd" d="M36.25 41.5C38.8734 41.5 41 39.3734 41 36.75C41 34.1266 38.8734 32 36.25 32C33.6266 32 31.5 34.1266 31.5 36.75C31.5 39.3734 33.6266 41.5 36.25 41.5ZM36.25 43.5C39.9779 43.5 43 40.4779 43 36.75C43 33.0221 39.9779 30 36.25 30C32.5221 30 29.5 33.0221 29.5 36.75C29.5 40.4779 32.5221 43.5 36.25 43.5Z" fill="#FF6500"/>
<path fill-rule="evenodd" clip-rule="evenodd" d="M55.25 41.5C57.8734 41.5 60 39.3734 60 36.75C60 34.1266 57.8734 32 55.25 32C52.6266 32 50.5 34.1266 50.5 36.75C50.5 39.3734 52.6266 41.5 55.25 41.5ZM55.25 43.5C58.9779 43.5 62 40.4779 62 36.75C62 33.0221 58.9779 30 55.25 30C51.5221 30 48.5 33.0221 48.5 36.75C48.5 40.4779 51.5221 43.5 55.25 43.5Z" fill="#FF6500"/>
<path fill-rule="evenodd" clip-rule="evenodd" d="M74.25 41.5C76.8734 41.5 79 39.3734 79 36.75C79 34.1266 76.8734 32 74.25 32C71.6266 32 69.5 34.1266 69.5 36.75C69.5 39.3734 71.6266 41.5 74.25 41.5ZM74.25 43.5C77.9779 43.5 81 40.4779 81 36.75C81 33.0221 77.9779 30 74.25 30C70.5221 30 67.5 33.0221 67.5 36.75C67.5 40.4779 70.5221 43.5 74.25 43.5Z" fill="#FF6500"/>
<path fill-rule="evenodd" clip-rule="evenodd" d="M17.25 79.5C19.8734 79.5 22 77.3734 22 74.75C22 72.1266 19.8734 70 17.25 70C14.6266 70 12.5 72.1266 12.5 74.75C12.5 77.3734 14.6266 79.5 17.25 79.5ZM17.25 81.5C20.9779 81.5 24 78.4779 24 74.75C24 71.0221 20.9779 68 17.25 68C13.5221 68 10.5 71.0221 10.5 74.75C10.5 78.4779 13.5221 81.5 17.25 81.5Z" fill="#FF6500"/>
<path fill-rule="evenodd" clip-rule="evenodd" d="M36.25 79.5C38.8734 79.5 41 77.3734 41 74.75C41 72.1266 38.8734 70 36.25 70C33.6266 70 31.5 72.1266 31.5 74.75C31.5 77.3734 33.6266 79.5 36.25 79.5ZM36.25 81.5C39.9779 81.5 43 78.4779 43 74.75C43 71.0221 39.9779 68 36.25 68C32.5221 68 29.5 71.0221 29.5 74.75C29.5 78.4779 32.5221 81.5 36.25 81.5Z" fill="#FF6500"/>
<path fill-rule="evenodd" clip-rule="evenodd" d="M55.25 79.5C57.8734 79.5 60 77.3734 60 74.75C60 72.1266 57.8734 70 55.25 70C52.6266 70 50.5 72.1266 50.5 74.75C50.5 77.3734 52.6266 79.5 55.25 79.5ZM55.25 81.5C58.9779 81.5 62 78.4779 62 74.75C62 71.0221 58.9779 68 55.25 68C51.5221 68 48.5 71.0221 48.5 74.75C48.5 78.4779 51.5221 81.5 55.25 81.5Z" fill="#FF6500"/>
<path fill-rule="evenodd" clip-rule="evenodd" d="M74.25 79.5C76.8734 79.5 79 77.3734 79 74.75C79 72.1266 76.8734 70 74.25 70C71.6266 70 69.5 72.1266 69.5 74.75C69.5 77.3734 71.6266 79.5 74.25 79.5ZM74.25 81.5C77.9779 81.5 81 78.4779 81 74.75C81 71.0221 77.9779 68 74.25 68C70.5221 68 67.5 71.0221 67.5 74.75C67.5 78.4779 70.5221 81.5 74.25 81.5Z" fill="#FF6500"/>
<path fill-rule="evenodd" clip-rule="evenodd" d="M17.25 60.5C19.8734 60.5 22 58.3734 22 55.75C22 53.1266 19.8734 51 17.25 51C14.6266 51 12.5 53.1266 12.5 55.75C12.5 58.3734 14.6266 60.5 17.25 60.5ZM17.25 62.5C20.9779 62.5 24 59.4779 24 55.75C24 52.0221 20.9779 49 17.25 49C13.5221 49 10.5 52.0221 10.5 55.75C10.5 59.4779 13.5221 62.5 17.25 62.5Z" fill="#FF6500"/>
<path fill-rule="evenodd" clip-rule="evenodd" d="M36.25 60.5C38.8734 60.5 41 58.3734 41 55.75C41 53.1266 38.8734 51 36.25 51C33.6266 51 31.5 53.1266 31.5 55.75C31.5 58.3734 33.6266 60.5 36.25 60.5ZM36.25 62.5C39.9779 62.5 43 59.4779 43 55.75C43 52.0221 39.9779 49 36.25 49C32.5221 49 29.5 52.0221 29.5 55.75C29.5 59.4779 32.5221 62.5 36.25 62.5Z" fill="#FF6500"/>
<g filter="url(#filter0_d_800_230)">
<path d="M62 55.75C62 59.4779 58.9779 62.5 55.25 62.5C51.5221 62.5 48.5 59.4779 48.5 55.75C48.5 52.0221 51.5221 49 55.25 49C58.9779 49 62 52.0221 62 55.75Z" fill="#FF6500"/>
</g>
<path fill-rule="evenodd" clip-rule="evenodd" d="M55.25 60.5C57.8734 60.5 60 58.3734 60 55.75C60 53.1266 57.8734 51 55.25 51C52.6266 51 50.5 53.1266 50.5 55.75C50.5 58.3734 52.6266 60.5 55.25 60.5ZM55.25 62.5C58.9779 62.5 62 59.4779 62 55.75C62 52.0221 58.9779 49 55.25 49C51.5221 49 48.5 52.0221 48.5 55.75C48.5 59.4779 51.5221 62.5 55.25 62.5Z" fill="#FF6500"/>
<path fill-rule="evenodd" clip-rule="evenodd" d="M74.25 60.5C76.8734 60.5 79 58.3734 79 55.75C79 53.1266 76.8734 51 74.25 51C71.6266 51 69.5 53.1266 69.5 55.75C69.5 58.3734 71.6266 60.5 74.25 60.5ZM74.25 62.5C77.9779 62.5 81 59.4779 81 55.75C81 52.0221 77.9779 49 74.25 49C70.5221 49 67.5 52.0221 67.5 55.75C67.5 59.4779 70.5221 62.5 74.25 62.5Z" fill="#FF6500"/>
<defs>
<filter id="filter0_d_800_230" x="28.5" y="33" width="53.5" height="53.5" filterUnits="userSpaceOnUse" color-interpolation-filters="sRGB">
<feFlood flood-opacity="0" result="BackgroundImageFix"/>
<feColorMatrix in="SourceAlpha" type="matrix" values="0 0 0 0 0 0 0 0 0 0 0 0 0 0 0 0 0 0 127 0" result="hardAlpha"/>
<feOffset dy="4"/>
<feGaussianBlur stdDeviation="10"/>
<feComposite in2="hardAlpha" operator="out"/>
<feColorMatrix type="matrix" values="0 0 0 0 0.807843 0 0 0 0 0.894118 0 0 0 0 0.290196 0 0 0 1 0"/>
<feBlend mode="normal" in2="BackgroundImageFix" result="effect1_dropShadow_800_230"/>
<feBlend mode="normal" in="SourceGraphic" in2="effect1_dropShadow_800_230" result="shape"/>
</filter>
</defs>
</svg>
