<svg width="107" height="107" viewBox="0 0 107 107" fill="none" xmlns="http://www.w3.org/2000/svg">
<g filter="url(#filter0_d_800_274)">
<path fill-rule="evenodd" clip-rule="evenodd" d="M86.1548 76.318C86.1556 76.3339 86.156 76.3499 86.156 76.3659C86.156 76.6261 86.0524 76.8766 85.8669 77.062L81.0568 81.8721C80.8665 82.06 80.6136 82.1564 80.363 82.1564C80.1101 82.1564 79.8596 82.06 79.6669 81.8673C79.2839 81.4843 79.2839 80.8605 79.6669 80.4774L82.7984 77.3461H25.7925C25.2482 77.3461 24.8098 76.9053 24.8098 76.3634V19.355L21.6784 22.4863C21.2953 22.8717 20.6715 22.8717 20.2885 22.4863C19.9055 22.1032 19.9055 21.4794 20.2885 21.0964L25.0962 16.2864C25.1394 16.2432 25.1865 16.2051 25.2366 16.172C25.3948 16.0634 25.5863 16 25.7925 16C26.0228 16 26.2348 16.0796 26.4025 16.2127C26.4317 16.2354 26.4596 16.26 26.4861 16.2864L31.2962 21.0965C31.6792 21.4796 31.6792 22.1034 31.2962 22.4864C31.1059 22.679 30.853 22.7753 30.6026 22.7753C30.3497 22.7753 30.0992 22.679 29.9065 22.4863L26.7752 19.3551V75.3807H82.7981L79.6669 72.2496C79.2839 71.8666 79.2839 71.2428 79.6669 70.8597C80.05 70.4743 80.6738 70.4743 81.0568 70.8597L85.8227 75.6257C86.0166 75.7966 86.1423 76.0427 86.1548 76.318Z" fill="#CEE44A"/>
<path fill-rule="evenodd" clip-rule="evenodd" d="M31.4378 70.5586C31.6305 70.7513 31.881 70.8477 32.1338 70.8477C32.3867 70.8477 32.6372 70.7513 32.8323 70.5587L44.7648 58.6262L50.3505 64.2118C50.7335 64.5972 51.3573 64.5972 51.7403 64.2118L59.5052 56.4454L67.1223 64.0624C67.3076 64.2479 67.5581 64.3515 67.8183 64.3515C68.0784 64.3515 68.3288 64.2479 68.5121 64.0626L76.7232 55.8515C77.1062 55.4684 77.1062 54.8446 76.7232 54.4616C76.3402 54.0762 75.7164 54.0762 75.3333 54.4616L67.8183 61.9766L60.896 55.0544L76.7279 39.2195C77.1109 38.8364 77.1109 38.2126 76.7279 37.8296C76.3448 37.4442 75.7211 37.4442 75.338 37.8296L59.5046 53.663L48.4599 42.6183C48.0769 42.2328 47.4531 42.2328 47.0701 42.6183L31.4403 58.2479C31.0573 58.6309 31.0573 59.2547 31.4403 59.6377C31.8233 60.0231 32.4471 60.0231 32.8302 59.6377L47.7639 44.704L58.1137 55.0539L51.0419 62.1258L45.4562 56.5401C45.0732 56.1547 44.4494 56.1547 44.0664 56.5401L31.4378 69.1687C31.0548 69.5518 31.0548 70.1755 31.4378 70.5586Z" fill="#CEE44A"/>
</g>
<defs>
<filter id="filter0_d_800_274" x="0.0012207" y="0" width="106.155" height="106.156" filterUnits="userSpaceOnUse" color-interpolation-filters="sRGB">
<feFlood flood-opacity="0" result="BackgroundImageFix"/>
<feColorMatrix in="SourceAlpha" type="matrix" values="0 0 0 0 0 0 0 0 0 0 0 0 0 0 0 0 0 0 127 0" result="hardAlpha"/>
<feOffset dy="4"/>
<feGaussianBlur stdDeviation="10"/>
<feComposite in2="hardAlpha" operator="out"/>
<feColorMatrix type="matrix" values="0 0 0 0 0.807843 0 0 0 0 0.894118 0 0 0 0 0.290196 0 0 0 1 0"/>
<feBlend mode="normal" in2="BackgroundImageFix" result="effect1_dropShadow_800_274"/>
<feBlend mode="normal" in="SourceGraphic" in2="effect1_dropShadow_800_274" result="shape"/>
</filter>
</defs>
</svg>
