<svg id="svg" width="72" height="72" viewBox="0 0 72 72" fill="none" xmlns="http://www.w3.org/2000/svg">
<path d="M37.0388 0.557472C36.8074 0.209582 36.4174 0 35.9996 0C35.5817 0 35.1917 0.209582 34.9603 0.557472L24.5686 18.5681C24.3543 18.9396 24.3543 19.3973 24.5686 19.7688C24.7828 20.1403 25.1787 20.3692 25.6078 20.3692H46.3918C46.8209 20.3692 47.2168 20.1403 47.4311 19.7688C47.6454 19.3973 47.6454 18.9396 47.4311 18.5681L37.0388 0.557472ZM27.6858 17.9684L35.9996 3.55993L44.3133 17.9684H27.6858Z" fill="#CEE44A"/>
<path d="M70.8001 50.3872H51.6001C50.9375 50.3872 50.4001 50.9248 50.4001 51.5879V70.7992C50.4001 71.1176 50.5266 71.4232 50.7516 71.6483C50.9766 71.8735 51.2819 72 51.6001 72H70.8001C71.1183 72 71.4237 71.8735 71.6487 71.6483C71.8737 71.4232 72.0001 71.1176 72.0001 70.7992V51.5879C72.0001 51.2695 71.8737 50.964 71.6487 50.7388C71.4237 50.5137 71.1183 50.3872 70.8001 50.3872ZM69.6001 69.5985H52.8001V52.7886H69.6001V69.5985Z" fill="#CEE44A"/>
<path d="M10.8 50.3872C7.93549 50.3872 5.18839 51.5257 3.16334 53.5524C1.13774 55.5787 0 58.3274 0 61.1936C0 64.0598 1.13786 66.8085 3.16334 68.8348C5.18839 70.8616 7.93549 72 10.8 72C13.6645 72 16.4116 70.8614 18.4367 68.8348C20.4623 66.8085 21.6 64.0598 21.6 61.1936C21.5968 58.3285 20.4578 55.5818 18.4334 53.5557C16.4083 51.53 13.6634 50.3905 10.8 50.3872ZM10.8 69.5985C8.57197 69.5985 6.43556 68.713 4.86048 67.1366C3.28498 65.5607 2.4 63.4231 2.4 61.1936C2.4 58.9641 3.28499 56.8266 4.86048 55.2506C6.43543 53.6741 8.57184 52.7886 10.8 52.7886C13.0282 52.7886 15.1644 53.6741 16.7395 55.2506C18.315 56.8264 19.2 58.9641 19.2 61.1936C19.1973 63.4218 18.3118 65.5585 16.7368 67.1339C15.1624 68.7097 13.0269 69.5958 10.8 69.5985Z" fill="#CEE44A"/>
<path d="M24.5018 13.2668L23.5011 11.0841C16.6948 14.2124 11.3024 19.772 8.3811 26.6727C5.45982 33.5736 5.22037 41.3173 7.70985 48.3857L9.97326 47.5859H9.97272C7.68312 41.0827 7.90324 33.9583 10.5915 27.6102C13.2792 21.2609 18.2403 16.1461 24.5019 13.2676L24.5018 13.2668Z" fill="#CEE44A"/>
<path d="M36.0011 65.9965C32.1991 66.0045 28.4369 65.2209 24.9541 63.6958L23.9941 65.8956C27.6557 67.4903 31.5975 68.3399 35.5908 68.3952C39.584 68.4498 43.5482 67.7096 47.2522 66.2162L46.3522 63.99C43.0639 65.3215 39.5487 66.0028 36.0011 65.9964L36.0011 65.9965Z" fill="#CEE44A"/>
<path d="M63.5994 38.3797C63.6021 41.1092 63.1998 43.8236 62.4064 46.4351L64.7019 47.1341H64.7024C66.7001 40.557 66.3841 33.4933 63.8073 27.1214C61.2304 20.7496 56.5489 15.4526 50.5424 12.116C50.2821 11.9718 50.019 11.8303 49.7538 11.6936L48.6572 13.8307C48.8972 13.9508 49.1372 14.0827 49.3772 14.2151L49.9515 13.1655L49.3697 14.2151C53.6796 16.6074 57.2715 20.1098 59.7732 24.3589C62.2755 28.6075 63.5961 33.4489 63.5992 38.3804L63.5994 38.3797Z" fill="#CEE44A"/>
</svg>
