<svg id="svg" width="24" height="24" viewBox="0 0 24 24" xmlns="http://www.w3.org/2000/svg">
<path d="M12 24C18.6274 24 24 18.6274 24 12C24 5.37256 18.6274 0 12 0C5.37259 0 0 5.37256 0 12C0 18.6274 5.37259 24 12 24ZM17 14.375V10.304L12.174 12.832C12.1203 12.8601 12.0606 12.8748 12 12.8748C11.9582 12.8748 11.9169 12.8679 11.8776 12.8542C11.8599 12.8481 11.8427 12.8408 11.826 12.832L7 10.304V14.375L7.0025 14.467C7.026 14.8813 7.20718 15.271 7.50888 15.5562C7.81058 15.8413 8.20993 16 8.625 16H15.375L15.467 15.9976C15.8814 15.9741 16.2711 15.7927 16.5562 15.4912C16.8412 15.1895 17 14.79 17 14.375ZM16.465 8.41968C16.1663 8.14941 15.7778 8 15.375 8H8.625L8.53201 8.00244C8.14584 8.02466 7.78021 8.18359 7.50089 8.45117C7.22153 8.71875 7.04675 9.07715 7.008 9.46191L12 12.0769L16.992 9.46191C16.9516 9.06128 16.7638 8.6897 16.465 8.41968Z" />
</svg>
