<svg id="svg" xmlns="http://www.w3.org/2000/svg" width="24" height="24" viewBox="0 0 24 24">
    <path fill-rule="evenodd" clip-rule="evenodd" d="M12 24C18.6274 24 24 18.6274 24 12C24 5.37258 18.6274 0 12 0C5.37258 0 0 5.37258 0 12C0 18.6274 5.37258 24 12 24ZM15.0193 7.90543C15.1468 7.82023 15.2967 7.77475 15.4501 7.77475C15.6557 7.77475 15.853 7.85645 15.9984 8.00186C16.1438 8.14727 16.2255 8.34449 16.2255 8.55014C16.2255 8.7035 16.18 8.85341 16.0948 8.98092C16.0096 9.10843 15.8885 9.20781 15.7468 9.2665C15.6051 9.32519 15.4492 9.34054 15.2988 9.31063C15.1484 9.28071 15.0102 9.20686 14.9018 9.09842C14.7934 8.98998 14.7195 8.85182 14.6896 8.70141C14.6597 8.551 14.675 8.3951 14.7337 8.25341C14.7924 8.11173 14.8918 7.99063 15.0193 7.90543ZM18.1252 7.76829C18.3094 8.27191 18.4098 8.80233 18.4224 9.33845C18.4612 10.0234 18.4612 10.2431 18.4612 12.0006C18.4612 13.0827 18.4465 13.5818 18.4352 13.9655C18.4281 14.205 18.4224 14.3995 18.4224 14.6628C18.4098 15.1989 18.3094 15.7293 18.1252 16.2329C17.9625 16.6647 17.7066 17.0552 17.3756 17.3766C17.0557 17.7078 16.6646 17.9619 16.2319 18.1197C15.7296 18.3095 15.1986 18.4123 14.6618 18.4234C13.9769 18.4621 13.7572 18.4621 11.9996 18.4621C10.2421 18.4621 10.0224 18.4621 9.33747 18.4234C8.80062 18.4123 8.2696 18.3095 7.76732 18.1197C7.33548 17.9603 6.94472 17.7064 6.62362 17.3766C6.29242 17.0566 6.03832 16.6655 5.88055 16.2329C5.69068 15.7306 5.58798 15.1996 5.57686 14.6628C5.53809 13.9778 5.53809 13.7581 5.53809 12.0006C5.53809 10.2431 5.53809 10.0234 5.57686 9.33845C5.58798 8.80159 5.69068 8.27058 5.88055 7.76829C6.03832 7.33565 6.29242 6.94456 6.62362 6.6246C6.94472 6.29478 7.33548 6.0409 7.76732 5.88152C8.2696 5.69166 8.80062 5.58895 9.33747 5.57783C10.0224 5.53906 10.2421 5.53906 11.9996 5.53906C13.7572 5.53906 13.9769 5.53906 14.6618 5.57783C15.1986 5.58895 15.7296 5.69166 16.2319 5.88152C16.6646 6.0393 17.0557 6.2934 17.3756 6.6246C17.7052 6.94721 17.9609 7.33739 18.1252 7.76829ZM17.0396 15.7871C17.1803 15.4018 17.2546 14.9954 17.2593 14.5852C17.2916 13.9391 17.2981 13.7 17.2981 12.0006C17.2981 10.3012 17.2916 10.0621 17.2593 9.41599C17.2576 8.99714 17.1832 8.58176 17.0396 8.18829C16.9322 7.91867 16.7668 7.67601 16.555 7.47752C16.3433 7.24675 16.0797 7.06958 15.7861 6.9606C15.4008 6.8199 14.9944 6.74561 14.5842 6.74091C13.9381 6.70214 13.699 6.70214 11.9996 6.70214C10.9484 6.70214 10.456 6.71697 10.0803 6.72829C9.84871 6.73527 9.66147 6.74091 9.41501 6.74091C8.9963 6.74419 8.58118 6.81848 8.18732 6.9606C7.91547 7.07891 7.67286 7.25536 7.47655 7.47752C7.25444 7.67244 7.07984 7.91556 6.96609 8.18829C6.81938 8.58112 6.74283 8.99667 6.73993 9.41599C6.70116 10.0621 6.70116 10.3012 6.70116 12.0006C6.70116 13.0518 6.716 13.5442 6.72731 13.9199C6.73429 14.1515 6.73993 14.3388 6.73993 14.5852C6.75314 15.0065 6.84064 15.4221 6.99839 15.8129C7.09845 16.0941 7.26208 16.3484 7.47655 16.556C7.67773 16.7646 7.91967 16.9295 8.18732 17.0406C8.5909 17.1768 9.01497 17.2424 9.44086 17.2344C10.087 17.2732 10.3261 17.2732 12.0255 17.2732C13.7249 17.2732 13.9639 17.2668 14.6101 17.2344C15.0202 17.2297 15.4266 17.1555 15.8119 17.0148C16.0919 16.9091 16.3454 16.7437 16.555 16.5301C16.7707 16.3224 16.9365 16.0683 17.0396 15.7871ZM10.1598 9.24761C10.7041 8.8826 11.3443 8.68711 11.9996 8.68583C12.4357 8.68413 12.8678 8.76866 13.2711 8.93456C13.6744 9.10045 14.0409 9.34445 14.3496 9.65251C14.6583 9.96057 14.903 10.3266 15.0697 10.7296C15.2363 11.1326 15.3217 11.5645 15.3209 12.0006C15.3209 12.6559 15.1266 13.2965 14.7627 13.8415C14.3987 14.3865 13.8814 14.8113 13.2761 15.0624C12.6708 15.3135 12.0046 15.3795 11.3618 15.2521C10.719 15.1248 10.1283 14.8097 9.66447 14.3468C9.20064 13.8838 8.88443 13.2938 8.7558 12.6512C8.62717 12.0087 8.69189 11.3424 8.94179 10.7366C9.19168 10.1308 9.61554 9.61262 10.1598 9.24761ZM10.8042 13.7897C11.1581 14.0261 11.5741 14.1523 11.9996 14.1523C12.2822 14.1523 12.562 14.0966 12.823 13.9885C13.0841 13.8804 13.3213 13.7219 13.5211 13.5221C13.7209 13.3223 13.8794 13.0851 13.9875 12.824C14.0957 12.563 14.1513 12.2832 14.1513 12.0006C14.1513 11.575 14.0251 11.159 13.7887 10.8052C13.5523 10.4513 13.2162 10.1756 12.823 10.0127C12.4299 9.84984 11.9972 9.80723 11.5798 9.89025C11.1625 9.97328 10.7791 10.1782 10.4781 10.4791C10.1772 10.78 9.9723 11.1634 9.88928 11.5808C9.80625 11.9982 9.84886 12.4308 10.0117 12.824C10.1746 13.2172 10.4504 13.5532 10.8042 13.7897Z"/>
</svg>