<svg id="svg" width="24" height="24" viewBox="0 0 24 24"  xmlns="http://www.w3.org/2000/svg">
<path d="M12 24C18.6274 24 24 18.6274 24 12C24 5.37256 18.6274 0 12 0C5.37259 0 0 5.37256 0 12C0 18.6274 5.37259 24 12 24ZM17.3673 8.62109C17.55 8.79419 17.6824 9.01367 17.7503 9.25586C17.9295 10.1638 18.0133 11.0884 18.0003 12.0139C18.0063 12.9358 17.9224 13.856 17.7498 14.7615C17.6821 15.0039 17.5499 15.2234 17.3673 15.3965C17.1794 15.575 16.9492 15.7026 16.6983 15.7676C15.1376 15.9419 13.5676 16.0203 11.9973 16.0024C11.9973 16.0024 8.25381 16.0024 7.30231 15.7554C7.04831 15.688 6.81732 15.5605 6.63181 15.384C6.44632 15.2075 6.31281 14.989 6.24432 14.7495C6.07581 13.8425 5.99432 12.9231 6.00031 12.0024C5.99445 11.0811 6.07614 10.1614 6.24432 9.25537C6.3143 9.01489 6.4483 8.79541 6.6333 8.61743C6.82159 8.43774 7.05139 8.30713 7.30231 8.23755C8.86102 8.06323 10.429 7.98462 11.9973 8.00244C11.9973 8.00244 15.7593 8.00244 16.6983 8.25C16.9492 8.3147 17.1794 8.44238 17.3673 8.62109ZM13.9313 12.0029L10.8013 10.291V13.7146L13.9313 12.0029Z" />
</svg>
