<svg id="svg" width="24" height="24" viewBox="0 0 24 24" xmlns="http://www.w3.org/2000/svg">
<path fill-rule="evenodd" clip-rule="evenodd" d="M12 24C18.6274 24 24 18.6274 24 12C24 5.37258 18.6274 0 12 0C5.37258 0 0 5.37258 0 12C0 18.6274 5.37258 24 12 24ZM17 14.375V10.304L12.174 12.832C12.1203 12.8601 12.0606 12.8748 12 12.8748C11.9394 12.8748 11.8797 12.8601 11.826 12.832L7 10.304V14.375L7.0025 14.467C7.026 14.8814 7.20718 15.2711 7.50888 15.5562C7.81059 15.8412 8.20993 16 8.625 16H15.375L15.467 15.9975C15.8814 15.974 16.2711 15.7928 16.5562 15.4911C16.8412 15.1894 17 14.7901 17 14.375ZM16.465 8.41963C16.1662 8.1495 15.7778 7.99995 15.375 8H8.625L8.532 8.0025C8.14584 8.02459 7.78022 8.1837 7.50087 8.45123C7.22153 8.71876 7.04676 9.07716 7.008 9.462L12 12.077L16.992 9.462C16.9516 9.06124 16.7638 8.68977 16.465 8.41963Z" />
</svg>
