<svg width="64" height="64" viewBox="0 0 64 64" fill="none" xmlns="http://www.w3.org/2000/svg">
<g clip-path="url(#clip0_193_829)">
<path d="M42.3007 61C42.0162 61 41.7406 60.8666 41.5673 60.6267L31.83 47.2776L24.7019 53.0697C24.4641 53.2631 24.1418 53.3232 23.8484 53.2275C23.555 53.1319 23.3306 52.8964 23.2528 52.5985L20.8323 43.5102L11.4417 44.0169C11.1328 44.0369 10.8394 43.8925 10.6593 43.6436C10.4793 43.3946 10.4349 43.0701 10.5459 42.7835L13.931 34.0085L6.03392 28.8985C5.77612 28.7317 5.62048 28.4451 5.62048 28.1361C5.62048 27.8272 5.77612 27.5404 6.03392 27.3736L13.931 22.2638L10.5459 13.4889C10.4347 13.2023 10.477 12.8778 10.6593 12.6288C10.8393 12.3799 11.1327 12.2399 11.4417 12.2555L20.8323 12.7622L23.2528 3.67391C23.3328 3.37613 23.5573 3.13831 23.8484 3.04488C24.1418 2.94933 24.4619 3.00928 24.7019 3.20264L32.0011 9.13269L39.3002 3.20251C39.5403 3.00916 39.8603 2.94908 40.1537 3.04475C40.4471 3.14031 40.6716 3.37588 40.7494 3.67378L43.1698 12.7621L52.5605 12.2553C52.8739 12.2397 53.1628 12.3798 53.3429 12.6287C53.5229 12.8776 53.5674 13.2021 53.4564 13.4888L50.0713 22.2637L57.9661 27.3735C58.2239 27.5403 58.3795 27.8269 58.3795 28.1359C58.3795 28.4448 58.2239 28.7316 57.9661 28.8984L50.0713 34.0082L53.4564 42.7831C53.5675 43.0697 53.5253 43.3942 53.3429 43.6432C53.1629 43.8921 52.8718 44.0366 52.5605 44.0165L43.3788 43.5209L43.2077 60.0996C43.2032 60.4908 42.9499 60.8353 42.5764 60.9553C42.4875 60.9844 42.3941 61 42.3007 61ZM32.0011 45.0637C32.0389 45.0637 32.0789 45.066 32.1189 45.0704C32.3656 45.1015 32.5879 45.2349 32.7345 45.4348L41.4228 57.3438L41.5761 42.5544C41.5784 42.3077 41.6828 42.0699 41.8628 41.9009C42.0428 41.7319 42.2829 41.6408 42.5318 41.6564L51.2579 42.1276L48.1129 33.9727C47.9572 33.5726 48.1062 33.1169 48.4662 32.8836L55.8031 28.1361L48.4662 23.3885C48.1061 23.1552 47.9572 22.7018 48.1129 22.2994L51.2579 14.1468L42.5318 14.6179C42.1095 14.6424 41.716 14.3601 41.605 13.9445L39.3557 5.49841L32.5721 11.0083C32.2388 11.2795 31.7609 11.2795 31.4275 11.0083L24.6462 5.49841L22.3969 13.9445C22.2857 14.3601 21.8945 14.6402 21.4701 14.6179L12.744 14.1468L15.889 22.2994C16.0447 22.6995 15.8957 23.1552 15.5357 23.3885L8.1988 28.1361L15.5357 32.8836C15.8958 33.1169 16.0447 33.5726 15.889 33.9727L12.744 42.1276L21.4701 41.6564C21.8947 41.6297 22.2859 41.9142 22.3969 42.3299L24.6462 50.776L31.4275 45.2661C31.5921 45.1348 31.7944 45.0637 32.0011 45.0637Z" fill="#CEE44A"/>
<path d="M22.2437 31.9666C20.2367 31.9666 18.603 30.3329 18.603 28.3259C18.603 26.319 20.2367 24.6853 22.2437 24.6853C24.2507 24.6853 25.8843 26.319 25.8843 28.3259C25.8844 30.3352 24.2529 31.9666 22.2437 31.9666ZM22.2437 26.5033C21.2368 26.5033 20.4189 27.3212 20.4189 28.3281C20.4189 29.3349 21.2368 30.1528 22.2437 30.1528C23.2505 30.1528 24.0684 29.3349 24.0684 28.3281C24.0684 27.3213 23.2505 26.5033 22.2437 26.5033Z" fill="#CEE44A"/>
<path d="M32.1387 31.9666C30.1317 31.9666 28.498 30.3329 28.498 28.3259C28.498 26.319 30.1317 24.6853 32.1387 24.6853C34.1457 24.6853 35.7793 26.319 35.7793 28.3259C35.7772 30.3352 34.1457 31.9666 32.1387 31.9666ZM32.1387 26.5033C31.1318 26.5033 30.3139 27.3212 30.3139 28.3281C30.3139 29.3349 31.1318 30.1528 32.1387 30.1528C33.1456 30.1528 33.9634 29.3349 33.9634 28.3281C33.9634 27.3213 33.1433 26.5033 32.1387 26.5033Z" fill="#CEE44A"/>
<path d="M42.0318 31.9666C40.0248 31.9666 38.3911 30.3329 38.3911 28.3259C38.3911 26.319 40.0248 24.6853 42.0318 24.6853C44.0388 24.6853 45.6724 26.319 45.6724 28.3259C45.6724 30.3352 44.0388 31.9666 42.0318 31.9666ZM42.0318 26.5033C41.0249 26.5033 40.207 27.3212 40.207 28.3281C40.207 29.3349 41.0249 30.1528 42.0318 30.1528C43.0386 30.1528 43.8565 29.3349 43.8565 28.3281C43.8565 27.3213 43.0364 26.5033 42.0318 26.5033Z" fill="#CEE44A"/>
</g>
<defs>
<clipPath id="clip0_193_829">
<rect width="58" height="58" fill="white" transform="translate(3 3)"/>
</clipPath>
</defs>
</svg>
