<svg width="48" height="48" viewBox="0 0 48 48" fill="none" xmlns="http://www.w3.org/2000/svg">
<path d="M23.7239 9.00205C19.9751 9.07048 16.2524 10.5339 13.3933 13.3929C7.53544 19.2508 7.53544 28.7483 13.3933 34.6061C13.909 35.1218 14.4521 35.5915 15.0176 36.0155C15.813 36.6118 15.9744 37.74 15.3781 38.5354C14.7818 39.3308 13.6535 39.4922 12.8581 38.8959C12.1566 38.3699 11.4844 37.7884 10.8477 37.1517C3.58396 29.888 3.58396 18.1111 10.8477 10.8473C14.0811 7.614 18.2114 5.81975 22.4361 5.46507L21.0301 4.05912C20.3272 3.35618 20.3272 2.21648 21.0301 1.51354C21.733 0.810592 22.8727 0.810592 23.5757 1.51354L28.6669 6.6047C29.3698 7.30765 29.3698 8.44735 28.6669 9.15029L23.5757 14.2415C22.8727 14.9444 21.733 14.9444 21.0301 14.2415C20.3272 13.5385 20.3272 12.3988 21.0301 11.6959L23.7239 9.00205ZM24.2759 38.9969C28.0247 38.9285 31.7474 37.4651 34.6065 34.606C40.4644 28.7482 40.4644 19.2507 34.6065 13.3928C34.0908 12.8771 33.5477 12.4075 32.9822 11.9835C32.1868 11.3871 32.0254 10.2589 32.6217 9.46354C33.218 8.66814 34.3463 8.50676 35.1417 9.10309C35.8432 9.62907 36.5154 10.2106 37.1521 10.8472C44.4158 18.111 44.4158 29.8879 37.1521 37.1516C33.9187 40.385 29.7884 42.1792 25.5638 42.5339L26.9697 43.9398C27.6727 44.6428 27.6727 45.7825 26.9697 46.4854C26.2668 47.1884 25.1271 47.1884 24.4241 46.4854L19.3329 41.3943C18.63 40.6913 18.63 39.5516 19.3329 38.8487L24.4241 33.7575C25.1271 33.0546 26.2668 33.0546 26.9697 33.7575C27.6727 34.4604 27.6727 35.6001 26.9697 36.3031L24.2759 38.9969Z" fill="white" fill-opacity="0.92"/>
</svg>
