<svg width="48" height="48" viewBox="0 0 48 48" fill="none" xmlns="http://www.w3.org/2000/svg">
<path d="M11.4982 6C13.9824 6 15.9963 8.0139 15.9963 10.4982V37.5018C15.9963 39.9861 13.9824 42 11.4982 42C9.0139 42 7 39.9861 7 37.5018V10.4982C7 8.0139 9.0139 6 11.4982 6ZM24.4982 14C26.9824 14 28.9963 16.0139 28.9963 18.4982V37.5018C28.9963 39.9861 26.9824 42 24.4982 42C22.0139 42 20 39.9861 20 37.5018V18.4982C20 16.0139 22.0139 14 24.4982 14ZM37.4982 22C39.9824 22 41.9963 24.0139 41.9963 26.4982V37.5018C41.9963 39.9861 39.9824 42 37.4982 42C35.0139 42 33 39.9861 33 37.5018V26.4982C33 24.0139 35.0139 22 37.4982 22Z" fill="white" fill-opacity="0.92"/>
</svg>
