<svg width="48" height="48" viewBox="0 0 48 48" fill="none" xmlns="http://www.w3.org/2000/svg">
<path d="M8.3998 9.59961C6.41158 9.59961 4.7998 11.2114 4.7998 13.1996V29.9996C4.7998 31.9878 6.41158 33.5996 8.3998 33.5996H34.7998C36.788 33.5996 38.3998 31.9878 38.3998 29.9996V13.1996C38.3998 11.2114 36.788 9.59961 34.7998 9.59961H8.3998ZM14.3998 11.9996V14.3996C14.3998 17.0506 12.2508 19.1996 9.5998 19.1996L7.1998 19.1996V16.7996H9.5998C10.9253 16.7996 11.9998 15.7251 11.9998 14.3996V11.9996H14.3998ZM21.5998 25.7996C19.2802 25.7996 17.3998 23.9192 17.3998 21.5996C17.3998 19.28 19.2802 17.3996 21.5998 17.3996C23.9194 17.3996 25.7998 19.28 25.7998 21.5996C25.7998 23.9192 23.9194 25.7996 21.5998 25.7996ZM7.1998 26.3996V23.9996H9.5998C12.2508 23.9996 14.3998 26.1486 14.3998 28.7996V31.1996H11.9998V28.7996C11.9998 27.4741 10.9253 26.3996 9.5998 26.3996H7.1998ZM33.5998 26.3996C32.2743 26.3996 31.1998 27.4741 31.1998 28.7996V31.1996H28.7998V28.7996C28.7998 26.1486 30.9488 23.9996 33.5998 23.9996H35.9998V26.3996H33.5998ZM33.5998 16.7996H35.9998V19.1996L33.5998 19.1996C30.9488 19.1996 28.7998 17.0506 28.7998 14.3996V11.9996H31.1998V14.3996C31.1998 15.7251 32.2743 16.7996 33.5998 16.7996ZM40.8 29.9995C40.8 33.3133 38.1137 35.9995 34.8 35.9995H9.80488C10.2991 37.3978 11.6326 38.3995 13.2 38.3995H34.8C39.4392 38.3995 43.2 34.6387 43.2 29.9995V17.9995C43.2 16.4321 42.1983 15.0986 40.8 14.6044V29.9995Z" fill="white" fill-opacity="0.92"/>
</svg>
