<svg width="40" height="40" viewBox="0 0 40 40" fill="none" xmlns="http://www.w3.org/2000/svg">
<path d="M14.6509 32.2294C16.7964 33.9625 19.5269 35.0003 22.4998 35.0003C24.3859 35.0003 26.1773 34.5818 27.7836 33.8316L33.5046 34.9761C33.9144 35.058 34.3381 34.9298 34.6336 34.6343C34.9292 34.3387 35.0575 33.915 34.9755 33.5052L33.8313 27.7837C34.5813 26.1776 34.9998 24.3862 34.9998 22.5003C34.9998 19.528 33.9624 16.7981 32.2299 14.6527C32.4071 15.5747 32.4999 16.5266 32.4999 17.5003C32.4999 18.4419 32.4131 19.3633 32.2471 20.2569C32.4124 20.978 32.4998 21.729 32.4998 22.5003C32.4998 24.1396 32.1063 25.6833 31.4097 27.0457C31.2814 27.2966 31.2417 27.5835 31.297 27.8598L32.1563 32.1568L27.8597 31.2973C27.5834 31.242 27.2964 31.2818 27.0455 31.4101C25.683 32.1068 24.1392 32.5003 22.4998 32.5003C21.7284 32.5003 20.9774 32.413 20.2561 32.2476C19.3627 32.4135 18.4414 32.5003 17.4999 32.5003C16.5269 32.5003 15.5742 32.4072 14.6509 32.2294ZM17.5 5C10.5965 5 5.00002 10.5964 5.00002 17.5C5.00002 19.386 5.4185 21.1773 6.16854 22.7834L5.02429 28.5049C4.94233 28.9148 5.07062 29.3384 5.36616 29.634C5.6617 29.9295 6.08539 30.0578 6.49522 29.9758L12.2162 28.8313C13.8225 29.5815 15.6139 30 17.5 30C24.4036 30 30 24.4036 30 17.5C30 10.5964 24.4036 5 17.5 5Z" fill="white" fill-opacity="0.92"/>
</svg>
