<svg width="40" height="40" viewBox="0 0 40 40" fill="none" xmlns="http://www.w3.org/2000/svg">
<path d="M22.3483 4.18688C20.8424 3.57638 19.1579 3.57638 17.652 4.18688L5.15436 9.2535C4.05367 9.69972 3.3335 10.7688 3.3335 11.9565V28.0443C3.3335 29.232 4.05367 30.3011 5.15436 30.7473L17.652 35.8139C19.1579 36.4244 20.8424 36.4244 22.3483 35.8139L34.846 30.7473C35.9467 30.3011 36.6668 29.232 36.6668 28.0443V11.9565C36.6668 10.7688 35.9467 9.69972 34.846 9.2535L22.3483 4.18688ZM10.0814 13.3069C10.3263 12.6614 11.048 12.3367 11.6935 12.5816L20.0001 15.7331L28.3067 12.5816C28.9522 12.3367 29.6739 12.6614 29.9188 13.3069C30.1637 13.9524 29.839 14.6741 29.1935 14.919L21.2502 17.9327V27.0837C21.2502 27.7741 20.6905 28.3337 20.0002 28.3337C19.3098 28.3337 18.7502 27.7741 18.7502 27.0837V17.9327L10.8067 14.919C10.1612 14.6741 9.83649 13.9524 10.0814 13.3069Z" fill="white" fill-opacity="0.92"/>
</svg>
