<svg width="40" height="40" viewBox="0 0 40 40" fill="none" xmlns="http://www.w3.org/2000/svg">
<path d="M10 6C7.79086 6 6 7.79086 6 10V30C6 32.2091 7.79086 34 10 34H30C32.2091 34 34 32.2091 34 30V10C34 7.79086 32.2091 6 30 6H10ZM20 20C20.5523 20 21 20.4477 21 21V27C21 27.5523 20.5523 28 20 28C19.4477 28 19 27.5523 19 27V21C19 20.4477 19.4477 20 20 20ZM12 17C12 16.4477 12.4477 16 13 16C13.5523 16 14 16.4477 14 17V27C14 27.5523 13.5523 28 13 28C12.4477 28 12 27.5523 12 27V17ZM27 12C27.5523 12 28 12.4477 28 13V27C28 27.5523 27.5523 28 27 28C26.4477 28 26 27.5523 26 27V13C26 12.4477 26.4477 12 27 12Z" fill="white" fill-opacity="0.92"/>
</svg>
