<svg width="40" height="40" viewBox="0 0 40 40" fill="none" xmlns="http://www.w3.org/2000/svg">
<path d="M7 8C5.34315 8 4 9.34315 4 11V25C4 26.6569 5.34315 28 7 28H29C30.6569 28 32 26.6569 32 25V11C32 9.34315 30.6569 8 29 8H7ZM12 10V12C12 14.2091 10.2091 16 8 16L6 16V14H8C9.10457 14 10 13.1046 10 12V10H12ZM18 21.5C16.067 21.5 14.5 19.933 14.5 18C14.5 16.067 16.067 14.5 18 14.5C19.933 14.5 21.5 16.067 21.5 18C21.5 19.933 19.933 21.5 18 21.5ZM6 22V20H8C10.2091 20 12 21.7909 12 24V26H10V24C10 22.8954 9.10457 22 8 22H6ZM28 22C26.8954 22 26 22.8954 26 24V26H24V24C24 21.7909 25.7909 20 28 20H30V22H28ZM28 14H30V16L28 16C25.7909 16 24 14.2091 24 12V10H26V12C26 13.1046 26.8954 14 28 14ZM34.0002 24.9999C34.0002 27.7614 31.7616 29.9999 29.0002 29.9999H8.1709C8.58273 31.1651 9.69397 31.9999 11.0002 31.9999H29.0002C32.8662 31.9999 36.0002 28.8659 36.0002 24.9999V14.9999C36.0002 13.6937 35.1654 12.5825 34.0002 12.1707V24.9999Z" fill="white" fill-opacity="0.92"/>
</svg>
