<svg width="72" height="72" viewBox="0 0 72 72" fill="none" xmlns="http://www.w3.org/2000/svg">
<rect width="72" height="72" rx="16" fill="white"/>
<path d="M36 19.3333C45.2048 19.3333 52.6667 26.7952 52.6667 35.9999C52.6667 45.2047 45.2048 52.6666 36 52.6666C26.7953 52.6666 19.3334 45.2047 19.3334 35.9999C19.3334 26.7952 26.7953 19.3333 36 19.3333ZM34.3334 27.6666C33.4129 27.6666 32.6667 28.4128 32.6667 29.3333V37.6666C32.6667 38.5871 33.4129 39.3333 34.3334 39.3333H41C41.9205 39.3333 42.6667 38.5871 42.6667 37.6666C42.6667 36.7461 41.9205 35.9999 41 35.9999H36V29.3333C36 28.4128 35.2538 27.6666 34.3334 27.6666Z" fill="#FF6500"/>
</svg>
