<svg width="72" height="72" viewBox="0 0 72 72" fill="none" xmlns="http://www.w3.org/2000/svg">
<rect width="72" height="72" rx="16" fill="white"/>
<path d="M20 29.5C20 26.4624 22.4624 24 25.5 24H46.5C49.5376 24 52 26.4624 52 29.5V30H20V29.5ZM20 32V40.5C20 43.5376 22.4624 46 25.5 46H34V43C34 40.5515 35.7599 38.5141 38.0838 38.0838C38.5141 35.7599 40.5515 34 43 34H47C49.4485 34 51.4859 35.7599 51.9162 38.0838C51.9442 38.0889 51.9722 38.0944 52 38.1V32H20ZM40 40V39C40 37.3431 41.3431 36 43 36H47C48.6569 36 50 37.3431 50 39V40H51C52.6569 40 54 41.3431 54 43V46H50V45C50 44.4477 49.5523 44 49 44C48.4477 44 48 44.4477 48 45V46H42V45C42 44.4477 41.5523 44 41 44C40.4477 44 40 44.4477 40 45V46H36V43C36 41.3431 37.3431 40 39 40H40ZM47 38H43C42.4477 38 42 38.4477 42 39V40H48V39C48 38.4477 47.5523 38 47 38ZM50 49V48H54V51C54 52.6569 52.6569 54 51 54H39C37.3431 54 36 52.6569 36 51V48H40V49C40 49.5523 40.4477 50 41 50C41.5523 50 42 49.5523 42 49V48H48V49C48 49.5523 48.4477 50 49 50C49.5523 50 50 49.5523 50 49Z" fill="#FF6500"/>
</svg>
