<svg width="40" height="40" viewBox="0 0 40 40" fill="none" xmlns="http://www.w3.org/2000/svg">
<path fill-rule="evenodd" clip-rule="evenodd" d="M3 20C3 24.6026 7.15678 28.5 12.5 28.5C17.8432 28.5 22 24.6026 22 20C22 15.3974 17.8432 11.5 12.5 11.5C7.15678 11.5 3 15.3974 3 20ZM17 30.5C14.7014 30.5 12.5423 30.0831 10.6409 29.3515C11.2443 29.4491 11.8656 29.5 12.5 29.5C18.299 29.5 23 25.2467 23 20C23 14.7533 18.299 10.5 12.5 10.5C11.8656 10.5 11.2443 10.5509 10.6409 10.6484C12.5423 9.91693 14.7015 9.5 17 9.5C20.9415 9.5 24.473 10.7259 26.9982 12.6619C29.5223 14.597 31 17.2003 31 20C31 22.7997 29.5223 25.4029 26.9982 27.3381C24.473 29.2741 20.9415 30.5 17 30.5ZM2.00147 20.1616C2.12603 26.9907 10.1365 32.5 20 32.5C29.9411 32.5 38 26.9036 38 20C38 13.0964 29.9411 7.5 20 7.5C13.4037 7.5 7.63617 9.96398 4.50175 13.6389C2.92106 15.4607 2 17.6479 2 20C2 20.0539 2.00049 20.1078 2.00147 20.1616ZM18.4089 31.4499C18.9324 31.483 19.4631 31.5 20 31.5C24.7922 31.5 29.0875 30.1494 32.1575 28.0175C35.2313 25.8829 37 23.0323 37 20C37 16.9677 35.2313 14.1171 32.1575 11.9825C29.0875 9.85057 24.7922 8.5 20 8.5C19.4631 8.5 18.9324 8.51695 18.4089 8.55006C26.0325 9.09454 32 14.013 32 20C32 25.987 26.0325 30.9055 18.4089 31.4499Z" fill="#CEE44A"/>
</svg>
