<svg width="885" height="1225" viewBox="0 0 885 1225" fill="none" xmlns="http://www.w3.org/2000/svg">
<g opacity="0.4" filter="url(#filter0_f_2455_43326)">
<ellipse cx="442.5" cy="612.5" rx="258.5" ry="428.5" fill="#7DFBF8" fill-opacity="0.08"/>
</g>
<g filter="url(#filter1_f_2455_43326)">
<mask id="path-2-inside-1_2455_43326" fill="white">
<path fill-rule="evenodd" clip-rule="evenodd" d="M413.25 523.187C413.273 530.117 415.349 536.885 419.216 542.636C423.083 548.387 428.567 552.863 434.977 555.499C441.386 558.135 448.432 558.813 455.226 557.446C462.02 556.08 468.257 552.732 473.149 547.823C478.042 542.915 481.37 536.667 482.713 529.868C484.057 523.07 483.355 516.025 480.698 509.625C478.041 503.225 473.546 497.755 467.783 493.907C462.019 490.06 455.244 488.006 448.314 488.006C443.7 488.006 439.131 488.917 434.869 490.686C430.607 492.456 426.736 495.049 423.479 498.317C420.221 501.586 417.641 505.465 415.885 509.733C414.13 514 413.235 518.573 413.25 523.187ZM428.468 523.187C428.468 519.243 429.637 515.388 431.828 512.109C434.019 508.83 437.134 506.274 440.777 504.765C444.421 503.256 448.43 502.861 452.298 503.63C456.166 504.4 459.719 506.299 462.507 509.087C465.296 511.876 467.195 515.429 467.964 519.297C468.734 523.165 468.339 527.174 466.83 530.818C465.321 534.461 462.765 537.576 459.486 539.767C456.207 541.958 452.351 543.127 448.408 543.127C443.119 543.127 438.048 541.026 434.308 537.287C430.569 533.547 428.468 528.476 428.468 523.187Z"/>
<path fill-rule="evenodd" clip-rule="evenodd" d="M413.249 727.869C413.249 708.233 429.612 695.82 448.313 695.82C467.014 695.82 483.378 708.233 483.378 727.869C483.366 731.683 482.598 735.457 481.117 738.972C479.637 742.487 477.473 745.673 474.752 748.346H482.092V763.564H387.956L387.956 748.977H422.459C419.546 746.295 417.214 743.045 415.606 739.426C413.998 735.808 413.148 731.898 413.109 727.939L413.249 727.869ZM469.352 729.949C469.352 718.261 459.511 711.435 448.5 711.435C437.49 711.435 427.649 718.214 427.649 729.949C427.649 741.684 437.373 748.65 448.5 748.65C459.627 748.65 469.212 741.731 469.212 729.949H469.352Z"/>
<path fill-rule="evenodd" clip-rule="evenodd" d="M482.28 838.555L461.522 845.942V890.988L482.28 898.398V914.528L388.611 881.17L388.611 855.76L482.28 822.379V838.555ZM403.432 870.3L446.701 885.705V851.225L403.432 866.653V870.3Z"/>
<path fill-rule="evenodd" clip-rule="evenodd" d="M414.535 315L482.279 315V330.218H429.098V350.532H482.279V365.75H429.098V386.064H482.279V401.281H414.535L414.535 315Z"/>
<path fill-rule="evenodd" clip-rule="evenodd" d="M429.098 613.489V631.629H467.693V614.775H482.279V646.847H429.098V659.821H414.535V646.847H397.681L397.681 631.629H414.535L414.535 613.489H429.098Z"/>
<path fill-rule="evenodd" clip-rule="evenodd" d="M414.535 683.807L414.535 668.589H482.279V683.807H414.535Z"/>
<path d="M388.611 667.816L388.611 684.459H405.769V667.816H388.611Z"/>
<path fill-rule="evenodd" clip-rule="evenodd" d="M414.535 772.987H429.098V800.173H482.279V815.391H414.535V772.987Z"/>
<path fill-rule="evenodd" clip-rule="evenodd" d="M414.535 559.725H429.098V586.911H482.279V602.129H414.535V559.725Z"/>
<path fill-rule="evenodd" clip-rule="evenodd" d="M413.25 445.767C413.25 452.702 415.306 459.481 419.159 465.247C423.012 471.014 428.488 475.508 434.896 478.162C441.303 480.816 448.353 481.51 455.155 480.157C461.957 478.804 468.204 475.465 473.108 470.561C478.012 465.657 481.352 459.409 482.705 452.607C484.058 445.806 483.363 438.755 480.709 432.348C478.055 425.941 473.561 420.465 467.795 416.612C462.028 412.759 455.249 410.703 448.314 410.703C439.014 410.703 430.096 414.397 423.52 420.973C416.944 427.548 413.25 436.467 413.25 445.767ZM428.468 445.767C428.468 441.823 429.637 437.968 431.828 434.689C434.019 431.41 437.133 428.854 440.777 427.345C444.42 425.836 448.43 425.441 452.298 426.21C456.166 426.979 459.719 428.879 462.507 431.667C465.296 434.456 467.195 438.009 467.964 441.877C468.734 445.745 468.339 449.754 466.83 453.398C465.32 457.041 462.765 460.155 459.486 462.346C456.206 464.537 452.351 465.707 448.408 465.707C443.121 465.701 438.053 463.598 434.315 459.86C430.577 456.122 428.474 451.053 428.468 445.767Z"/>
</mask>
<path fill-rule="evenodd" clip-rule="evenodd" d="M413.25 523.187C413.273 530.117 415.349 536.885 419.216 542.636C423.083 548.387 428.567 552.863 434.977 555.499C441.386 558.135 448.432 558.813 455.226 557.446C462.02 556.08 468.257 552.732 473.149 547.823C478.042 542.915 481.37 536.667 482.713 529.868C484.057 523.07 483.355 516.025 480.698 509.625C478.041 503.225 473.546 497.755 467.783 493.907C462.019 490.06 455.244 488.006 448.314 488.006C443.7 488.006 439.131 488.917 434.869 490.686C430.607 492.456 426.736 495.049 423.479 498.317C420.221 501.586 417.641 505.465 415.885 509.733C414.13 514 413.235 518.573 413.25 523.187ZM428.468 523.187C428.468 519.243 429.637 515.388 431.828 512.109C434.019 508.83 437.134 506.274 440.777 504.765C444.421 503.256 448.43 502.861 452.298 503.63C456.166 504.4 459.719 506.299 462.507 509.087C465.296 511.876 467.195 515.429 467.964 519.297C468.734 523.165 468.339 527.174 466.83 530.818C465.321 534.461 462.765 537.576 459.486 539.767C456.207 541.958 452.351 543.127 448.408 543.127C443.119 543.127 438.048 541.026 434.308 537.287C430.569 533.547 428.468 528.476 428.468 523.187Z" stroke="#FF7F51" stroke-width="4.67523" mask="url(#path-2-inside-1_2455_43326)"/>
<path fill-rule="evenodd" clip-rule="evenodd" d="M413.249 727.869C413.249 708.233 429.612 695.82 448.313 695.82C467.014 695.82 483.378 708.233 483.378 727.869C483.366 731.683 482.598 735.457 481.117 738.972C479.637 742.487 477.473 745.673 474.752 748.346H482.092V763.564H387.956L387.956 748.977H422.459C419.546 746.295 417.214 743.045 415.606 739.426C413.998 735.808 413.148 731.898 413.109 727.939L413.249 727.869ZM469.352 729.949C469.352 718.261 459.511 711.435 448.5 711.435C437.49 711.435 427.649 718.214 427.649 729.949C427.649 741.684 437.373 748.65 448.5 748.65C459.627 748.65 469.212 741.731 469.212 729.949H469.352Z" stroke="#FF7F51" stroke-width="4.67523" mask="url(#path-2-inside-1_2455_43326)"/>
<path fill-rule="evenodd" clip-rule="evenodd" d="M482.28 838.555L461.522 845.942V890.988L482.28 898.398V914.528L388.611 881.17L388.611 855.76L482.28 822.379V838.555ZM403.432 870.3L446.701 885.705V851.225L403.432 866.653V870.3Z" stroke="#FF7F51" stroke-width="4.67523" mask="url(#path-2-inside-1_2455_43326)"/>
<path fill-rule="evenodd" clip-rule="evenodd" d="M414.535 315L482.279 315V330.218H429.098V350.532H482.279V365.75H429.098V386.064H482.279V401.281H414.535L414.535 315Z" stroke="#FF7F51" stroke-width="4.67523" mask="url(#path-2-inside-1_2455_43326)"/>
<path fill-rule="evenodd" clip-rule="evenodd" d="M429.098 613.489V631.629H467.693V614.775H482.279V646.847H429.098V659.821H414.535V646.847H397.681L397.681 631.629H414.535L414.535 613.489H429.098Z" stroke="#FF7F51" stroke-width="4.67523" mask="url(#path-2-inside-1_2455_43326)"/>
<path fill-rule="evenodd" clip-rule="evenodd" d="M414.535 683.807L414.535 668.589H482.279V683.807H414.535Z" stroke="#FF7F51" stroke-width="4.67523" mask="url(#path-2-inside-1_2455_43326)"/>
<path d="M388.611 667.816L388.611 684.459H405.769V667.816H388.611Z" stroke="#FF7F51" stroke-width="4.67523" mask="url(#path-2-inside-1_2455_43326)"/>
<path fill-rule="evenodd" clip-rule="evenodd" d="M414.535 772.987H429.098V800.173H482.279V815.391H414.535V772.987Z" stroke="#FF7F51" stroke-width="4.67523" mask="url(#path-2-inside-1_2455_43326)"/>
<path fill-rule="evenodd" clip-rule="evenodd" d="M414.535 559.725H429.098V586.911H482.279V602.129H414.535V559.725Z" stroke="#FF7F51" stroke-width="4.67523" mask="url(#path-2-inside-1_2455_43326)"/>
<path fill-rule="evenodd" clip-rule="evenodd" d="M413.25 445.767C413.25 452.702 415.306 459.481 419.159 465.247C423.012 471.014 428.488 475.508 434.896 478.162C441.303 480.816 448.353 481.51 455.155 480.157C461.957 478.804 468.204 475.465 473.108 470.561C478.012 465.657 481.352 459.409 482.705 452.607C484.058 445.806 483.363 438.755 480.709 432.348C478.055 425.941 473.561 420.465 467.795 416.612C462.028 412.759 455.249 410.703 448.314 410.703C439.014 410.703 430.096 414.397 423.52 420.973C416.944 427.548 413.25 436.467 413.25 445.767ZM428.468 445.767C428.468 441.823 429.637 437.968 431.828 434.689C434.019 431.41 437.133 428.854 440.777 427.345C444.42 425.836 448.43 425.441 452.298 426.21C456.166 426.979 459.719 428.879 462.507 431.667C465.296 434.456 467.195 438.009 467.964 441.877C468.734 445.745 468.339 449.754 466.83 453.398C465.32 457.041 462.765 460.155 459.486 462.346C456.206 464.537 452.351 465.707 448.408 465.707C443.121 465.701 438.053 463.598 434.315 459.86C430.577 456.122 428.474 451.053 428.468 445.767Z" stroke="#FF7F51" stroke-width="4.67523" mask="url(#path-2-inside-1_2455_43326)"/>
</g>
<g filter="url(#filter2_f_2455_43326)">
<mask id="path-3-inside-2_2455_43326" fill="white">
<path fill-rule="evenodd" clip-rule="evenodd" d="M413.25 523.187C413.273 530.117 415.349 536.885 419.216 542.636C423.083 548.387 428.567 552.863 434.977 555.499C441.386 558.135 448.432 558.813 455.226 557.446C462.02 556.08 468.257 552.732 473.149 547.823C478.042 542.915 481.37 536.667 482.713 529.868C484.057 523.07 483.355 516.025 480.698 509.625C478.041 503.225 473.546 497.755 467.783 493.907C462.019 490.06 455.244 488.006 448.314 488.006C443.7 488.006 439.131 488.917 434.869 490.686C430.607 492.456 426.736 495.049 423.479 498.317C420.221 501.586 417.641 505.465 415.885 509.733C414.13 514 413.235 518.573 413.25 523.187ZM428.468 523.187C428.468 519.243 429.637 515.388 431.828 512.109C434.019 508.83 437.134 506.274 440.777 504.765C444.421 503.256 448.43 502.861 452.298 503.63C456.166 504.4 459.719 506.299 462.507 509.087C465.296 511.876 467.195 515.429 467.964 519.297C468.734 523.165 468.339 527.174 466.83 530.818C465.321 534.461 462.765 537.576 459.486 539.767C456.207 541.958 452.351 543.127 448.408 543.127C443.119 543.127 438.048 541.026 434.308 537.287C430.569 533.547 428.468 528.476 428.468 523.187Z"/>
<path fill-rule="evenodd" clip-rule="evenodd" d="M413.249 727.869C413.249 708.233 429.612 695.82 448.313 695.82C467.014 695.82 483.378 708.233 483.378 727.869C483.366 731.683 482.598 735.457 481.117 738.972C479.637 742.487 477.473 745.673 474.752 748.346H482.092V763.564H387.956L387.956 748.977H422.459C419.546 746.295 417.214 743.045 415.606 739.426C413.998 735.808 413.148 731.898 413.109 727.939L413.249 727.869ZM469.352 729.949C469.352 718.261 459.511 711.435 448.5 711.435C437.49 711.435 427.649 718.214 427.649 729.949C427.649 741.684 437.373 748.65 448.5 748.65C459.627 748.65 469.212 741.731 469.212 729.949H469.352Z"/>
<path fill-rule="evenodd" clip-rule="evenodd" d="M482.28 838.555L461.522 845.942V890.988L482.28 898.398V914.528L388.611 881.17L388.611 855.76L482.28 822.379V838.555ZM403.432 870.3L446.701 885.705V851.225L403.432 866.653V870.3Z"/>
<path fill-rule="evenodd" clip-rule="evenodd" d="M414.535 315L482.279 315V330.218H429.098V350.532H482.279V365.75H429.098V386.064H482.279V401.281H414.535L414.535 315Z"/>
<path fill-rule="evenodd" clip-rule="evenodd" d="M429.098 613.489V631.629H467.693V614.775H482.279V646.847H429.098V659.821H414.535V646.847H397.681L397.681 631.629H414.535L414.535 613.489H429.098Z"/>
<path fill-rule="evenodd" clip-rule="evenodd" d="M414.535 683.807L414.535 668.589H482.279V683.807H414.535Z"/>
<path d="M388.611 667.816L388.611 684.459H405.769V667.816H388.611Z"/>
<path fill-rule="evenodd" clip-rule="evenodd" d="M414.535 772.987H429.098V800.173H482.279V815.391H414.535V772.987Z"/>
<path fill-rule="evenodd" clip-rule="evenodd" d="M414.535 559.725H429.098V586.911H482.279V602.129H414.535V559.725Z"/>
<path fill-rule="evenodd" clip-rule="evenodd" d="M413.25 445.767C413.25 452.702 415.306 459.481 419.159 465.247C423.012 471.014 428.488 475.508 434.896 478.162C441.303 480.816 448.353 481.51 455.155 480.157C461.957 478.804 468.204 475.465 473.108 470.561C478.012 465.657 481.352 459.409 482.705 452.607C484.058 445.806 483.363 438.755 480.709 432.348C478.055 425.941 473.561 420.465 467.795 416.612C462.028 412.759 455.249 410.703 448.314 410.703C439.014 410.703 430.096 414.397 423.52 420.973C416.944 427.548 413.25 436.467 413.25 445.767ZM428.468 445.767C428.468 441.823 429.637 437.968 431.828 434.689C434.019 431.41 437.133 428.854 440.777 427.345C444.42 425.836 448.43 425.441 452.298 426.21C456.166 426.979 459.719 428.879 462.507 431.667C465.296 434.456 467.195 438.009 467.964 441.877C468.734 445.745 468.339 449.754 466.83 453.398C465.32 457.041 462.765 460.155 459.486 462.346C456.206 464.537 452.351 465.707 448.408 465.707C443.121 465.701 438.053 463.598 434.315 459.86C430.577 456.122 428.474 451.053 428.468 445.767Z"/>
</mask>
<path fill-rule="evenodd" clip-rule="evenodd" d="M413.25 523.187C413.273 530.117 415.349 536.885 419.216 542.636C423.083 548.387 428.567 552.863 434.977 555.499C441.386 558.135 448.432 558.813 455.226 557.446C462.02 556.08 468.257 552.732 473.149 547.823C478.042 542.915 481.37 536.667 482.713 529.868C484.057 523.07 483.355 516.025 480.698 509.625C478.041 503.225 473.546 497.755 467.783 493.907C462.019 490.06 455.244 488.006 448.314 488.006C443.7 488.006 439.131 488.917 434.869 490.686C430.607 492.456 426.736 495.049 423.479 498.317C420.221 501.586 417.641 505.465 415.885 509.733C414.13 514 413.235 518.573 413.25 523.187ZM428.468 523.187C428.468 519.243 429.637 515.388 431.828 512.109C434.019 508.83 437.134 506.274 440.777 504.765C444.421 503.256 448.43 502.861 452.298 503.63C456.166 504.4 459.719 506.299 462.507 509.087C465.296 511.876 467.195 515.429 467.964 519.297C468.734 523.165 468.339 527.174 466.83 530.818C465.321 534.461 462.765 537.576 459.486 539.767C456.207 541.958 452.351 543.127 448.408 543.127C443.119 543.127 438.048 541.026 434.308 537.287C430.569 533.547 428.468 528.476 428.468 523.187Z" stroke="#FF7F51" stroke-width="4.67523" mask="url(#path-3-inside-2_2455_43326)"/>
<path fill-rule="evenodd" clip-rule="evenodd" d="M413.249 727.869C413.249 708.233 429.612 695.82 448.313 695.82C467.014 695.82 483.378 708.233 483.378 727.869C483.366 731.683 482.598 735.457 481.117 738.972C479.637 742.487 477.473 745.673 474.752 748.346H482.092V763.564H387.956L387.956 748.977H422.459C419.546 746.295 417.214 743.045 415.606 739.426C413.998 735.808 413.148 731.898 413.109 727.939L413.249 727.869ZM469.352 729.949C469.352 718.261 459.511 711.435 448.5 711.435C437.49 711.435 427.649 718.214 427.649 729.949C427.649 741.684 437.373 748.65 448.5 748.65C459.627 748.65 469.212 741.731 469.212 729.949H469.352Z" stroke="#FF7F51" stroke-width="4.67523" mask="url(#path-3-inside-2_2455_43326)"/>
<path fill-rule="evenodd" clip-rule="evenodd" d="M482.28 838.555L461.522 845.942V890.988L482.28 898.398V914.528L388.611 881.17L388.611 855.76L482.28 822.379V838.555ZM403.432 870.3L446.701 885.705V851.225L403.432 866.653V870.3Z" stroke="#FF7F51" stroke-width="4.67523" mask="url(#path-3-inside-2_2455_43326)"/>
<path fill-rule="evenodd" clip-rule="evenodd" d="M414.535 315L482.279 315V330.218H429.098V350.532H482.279V365.75H429.098V386.064H482.279V401.281H414.535L414.535 315Z" stroke="#FF7F51" stroke-width="4.67523" mask="url(#path-3-inside-2_2455_43326)"/>
<path fill-rule="evenodd" clip-rule="evenodd" d="M429.098 613.489V631.629H467.693V614.775H482.279V646.847H429.098V659.821H414.535V646.847H397.681L397.681 631.629H414.535L414.535 613.489H429.098Z" stroke="#FF7F51" stroke-width="4.67523" mask="url(#path-3-inside-2_2455_43326)"/>
<path fill-rule="evenodd" clip-rule="evenodd" d="M414.535 683.807L414.535 668.589H482.279V683.807H414.535Z" stroke="#FF7F51" stroke-width="4.67523" mask="url(#path-3-inside-2_2455_43326)"/>
<path d="M388.611 667.816L388.611 684.459H405.769V667.816H388.611Z" stroke="#FF7F51" stroke-width="4.67523" mask="url(#path-3-inside-2_2455_43326)"/>
<path fill-rule="evenodd" clip-rule="evenodd" d="M414.535 772.987H429.098V800.173H482.279V815.391H414.535V772.987Z" stroke="#FF7F51" stroke-width="4.67523" mask="url(#path-3-inside-2_2455_43326)"/>
<path fill-rule="evenodd" clip-rule="evenodd" d="M414.535 559.725H429.098V586.911H482.279V602.129H414.535V559.725Z" stroke="#FF7F51" stroke-width="4.67523" mask="url(#path-3-inside-2_2455_43326)"/>
<path fill-rule="evenodd" clip-rule="evenodd" d="M413.25 445.767C413.25 452.702 415.306 459.481 419.159 465.247C423.012 471.014 428.488 475.508 434.896 478.162C441.303 480.816 448.353 481.51 455.155 480.157C461.957 478.804 468.204 475.465 473.108 470.561C478.012 465.657 481.352 459.409 482.705 452.607C484.058 445.806 483.363 438.755 480.709 432.348C478.055 425.941 473.561 420.465 467.795 416.612C462.028 412.759 455.249 410.703 448.314 410.703C439.014 410.703 430.096 414.397 423.52 420.973C416.944 427.548 413.25 436.467 413.25 445.767ZM428.468 445.767C428.468 441.823 429.637 437.968 431.828 434.689C434.019 431.41 437.133 428.854 440.777 427.345C444.42 425.836 448.43 425.441 452.298 426.21C456.166 426.979 459.719 428.879 462.507 431.667C465.296 434.456 467.195 438.009 467.964 441.877C468.734 445.745 468.339 449.754 466.83 453.398C465.32 457.041 462.765 460.155 459.486 462.346C456.206 464.537 452.351 465.707 448.408 465.707C443.121 465.701 438.053 463.598 434.315 459.86C430.577 456.122 428.474 451.053 428.468 445.767Z" stroke="#FF7F51" stroke-width="4.67523" mask="url(#path-3-inside-2_2455_43326)"/>
</g>
<mask id="path-4-inside-3_2455_43326" fill="white">
<path fill-rule="evenodd" clip-rule="evenodd" d="M413.25 523.187C413.273 530.117 415.349 536.885 419.216 542.636C423.083 548.387 428.567 552.863 434.977 555.499C441.386 558.135 448.432 558.813 455.226 557.446C462.02 556.08 468.257 552.732 473.149 547.823C478.042 542.915 481.37 536.667 482.713 529.868C484.057 523.07 483.355 516.025 480.698 509.625C478.041 503.225 473.546 497.755 467.783 493.907C462.019 490.06 455.244 488.006 448.314 488.006C443.7 488.006 439.131 488.917 434.869 490.686C430.607 492.456 426.736 495.049 423.479 498.317C420.221 501.586 417.641 505.465 415.885 509.733C414.13 514 413.235 518.573 413.25 523.187ZM428.468 523.187C428.468 519.243 429.637 515.388 431.828 512.109C434.019 508.83 437.134 506.274 440.777 504.765C444.421 503.256 448.43 502.861 452.298 503.63C456.166 504.4 459.719 506.299 462.507 509.087C465.296 511.876 467.195 515.429 467.964 519.297C468.734 523.165 468.339 527.174 466.83 530.818C465.321 534.461 462.765 537.576 459.486 539.767C456.207 541.958 452.351 543.127 448.408 543.127C443.119 543.127 438.048 541.026 434.308 537.287C430.569 533.547 428.468 528.476 428.468 523.187Z"/>
<path fill-rule="evenodd" clip-rule="evenodd" d="M413.249 727.869C413.249 708.233 429.612 695.82 448.313 695.82C467.014 695.82 483.378 708.233 483.378 727.869C483.366 731.683 482.598 735.457 481.117 738.972C479.637 742.487 477.473 745.673 474.752 748.346H482.092V763.564H387.956L387.956 748.977H422.459C419.546 746.295 417.214 743.045 415.606 739.426C413.998 735.808 413.148 731.898 413.109 727.939L413.249 727.869ZM469.352 729.949C469.352 718.261 459.511 711.435 448.5 711.435C437.49 711.435 427.649 718.214 427.649 729.949C427.649 741.684 437.373 748.65 448.5 748.65C459.627 748.65 469.212 741.731 469.212 729.949H469.352Z"/>
<path fill-rule="evenodd" clip-rule="evenodd" d="M482.28 838.555L461.522 845.942V890.988L482.28 898.398V914.528L388.611 881.17L388.611 855.76L482.28 822.379V838.555ZM403.432 870.3L446.701 885.705V851.225L403.432 866.653V870.3Z"/>
<path fill-rule="evenodd" clip-rule="evenodd" d="M414.535 315L482.279 315V330.218H429.098V350.532H482.279V365.75H429.098V386.064H482.279V401.281H414.535L414.535 315Z"/>
<path fill-rule="evenodd" clip-rule="evenodd" d="M429.098 613.489V631.629H467.693V614.775H482.279V646.847H429.098V659.821H414.535V646.847H397.681L397.681 631.629H414.535L414.535 613.489H429.098Z"/>
<path fill-rule="evenodd" clip-rule="evenodd" d="M414.535 683.807L414.535 668.589H482.279V683.807H414.535Z"/>
<path d="M388.611 667.816L388.611 684.459H405.769V667.816H388.611Z"/>
<path fill-rule="evenodd" clip-rule="evenodd" d="M414.535 772.987H429.098V800.173H482.279V815.391H414.535V772.987Z"/>
<path fill-rule="evenodd" clip-rule="evenodd" d="M414.535 559.725H429.098V586.911H482.279V602.129H414.535V559.725Z"/>
<path fill-rule="evenodd" clip-rule="evenodd" d="M413.25 445.767C413.25 452.702 415.306 459.481 419.159 465.247C423.012 471.014 428.488 475.508 434.896 478.162C441.303 480.816 448.353 481.51 455.155 480.157C461.957 478.804 468.204 475.465 473.108 470.561C478.012 465.657 481.352 459.409 482.705 452.607C484.058 445.806 483.363 438.755 480.709 432.348C478.055 425.941 473.561 420.465 467.795 416.612C462.028 412.759 455.249 410.703 448.314 410.703C439.014 410.703 430.096 414.397 423.52 420.973C416.944 427.548 413.25 436.467 413.25 445.767ZM428.468 445.767C428.468 441.823 429.637 437.968 431.828 434.689C434.019 431.41 437.133 428.854 440.777 427.345C444.42 425.836 448.43 425.441 452.298 426.21C456.166 426.979 459.719 428.879 462.507 431.667C465.296 434.456 467.195 438.009 467.964 441.877C468.734 445.745 468.339 449.754 466.83 453.398C465.32 457.041 462.765 460.155 459.486 462.346C456.206 464.537 452.351 465.707 448.408 465.707C443.121 465.701 438.053 463.598 434.315 459.86C430.577 456.122 428.474 451.053 428.468 445.767Z"/>
</mask>
<path fill-rule="evenodd" clip-rule="evenodd" d="M413.25 523.187C413.273 530.117 415.349 536.885 419.216 542.636C423.083 548.387 428.567 552.863 434.977 555.499C441.386 558.135 448.432 558.813 455.226 557.446C462.02 556.08 468.257 552.732 473.149 547.823C478.042 542.915 481.37 536.667 482.713 529.868C484.057 523.07 483.355 516.025 480.698 509.625C478.041 503.225 473.546 497.755 467.783 493.907C462.019 490.06 455.244 488.006 448.314 488.006C443.7 488.006 439.131 488.917 434.869 490.686C430.607 492.456 426.736 495.049 423.479 498.317C420.221 501.586 417.641 505.465 415.885 509.733C414.13 514 413.235 518.573 413.25 523.187ZM428.468 523.187C428.468 519.243 429.637 515.388 431.828 512.109C434.019 508.83 437.134 506.274 440.777 504.765C444.421 503.256 448.43 502.861 452.298 503.63C456.166 504.4 459.719 506.299 462.507 509.087C465.296 511.876 467.195 515.429 467.964 519.297C468.734 523.165 468.339 527.174 466.83 530.818C465.321 534.461 462.765 537.576 459.486 539.767C456.207 541.958 452.351 543.127 448.408 543.127C443.119 543.127 438.048 541.026 434.308 537.287C430.569 533.547 428.468 528.476 428.468 523.187Z" stroke="white" stroke-opacity="0.92" stroke-width="2" mask="url(#path-4-inside-3_2455_43326)"/>
<path fill-rule="evenodd" clip-rule="evenodd" d="M413.249 727.869C413.249 708.233 429.612 695.82 448.313 695.82C467.014 695.82 483.378 708.233 483.378 727.869C483.366 731.683 482.598 735.457 481.117 738.972C479.637 742.487 477.473 745.673 474.752 748.346H482.092V763.564H387.956L387.956 748.977H422.459C419.546 746.295 417.214 743.045 415.606 739.426C413.998 735.808 413.148 731.898 413.109 727.939L413.249 727.869ZM469.352 729.949C469.352 718.261 459.511 711.435 448.5 711.435C437.49 711.435 427.649 718.214 427.649 729.949C427.649 741.684 437.373 748.65 448.5 748.65C459.627 748.65 469.212 741.731 469.212 729.949H469.352Z" stroke="white" stroke-opacity="0.92" stroke-width="2" mask="url(#path-4-inside-3_2455_43326)"/>
<path fill-rule="evenodd" clip-rule="evenodd" d="M482.28 838.555L461.522 845.942V890.988L482.28 898.398V914.528L388.611 881.17L388.611 855.76L482.28 822.379V838.555ZM403.432 870.3L446.701 885.705V851.225L403.432 866.653V870.3Z" stroke="white" stroke-opacity="0.92" stroke-width="2" mask="url(#path-4-inside-3_2455_43326)"/>
<path fill-rule="evenodd" clip-rule="evenodd" d="M414.535 315L482.279 315V330.218H429.098V350.532H482.279V365.75H429.098V386.064H482.279V401.281H414.535L414.535 315Z" stroke="white" stroke-opacity="0.92" stroke-width="2" mask="url(#path-4-inside-3_2455_43326)"/>
<path fill-rule="evenodd" clip-rule="evenodd" d="M429.098 613.489V631.629H467.693V614.775H482.279V646.847H429.098V659.821H414.535V646.847H397.681L397.681 631.629H414.535L414.535 613.489H429.098Z" stroke="white" stroke-opacity="0.92" stroke-width="2" mask="url(#path-4-inside-3_2455_43326)"/>
<path fill-rule="evenodd" clip-rule="evenodd" d="M414.535 683.807L414.535 668.589H482.279V683.807H414.535Z" stroke="white" stroke-opacity="0.92" stroke-width="2" mask="url(#path-4-inside-3_2455_43326)"/>
<path d="M388.611 667.816L388.611 684.459H405.769V667.816H388.611Z" stroke="white" stroke-opacity="0.92" stroke-width="2" mask="url(#path-4-inside-3_2455_43326)"/>
<path fill-rule="evenodd" clip-rule="evenodd" d="M414.535 772.987H429.098V800.173H482.279V815.391H414.535V772.987Z" stroke="white" stroke-opacity="0.92" stroke-width="2" mask="url(#path-4-inside-3_2455_43326)"/>
<path fill-rule="evenodd" clip-rule="evenodd" d="M414.535 559.725H429.098V586.911H482.279V602.129H414.535V559.725Z" stroke="white" stroke-opacity="0.92" stroke-width="2" mask="url(#path-4-inside-3_2455_43326)"/>
<path fill-rule="evenodd" clip-rule="evenodd" d="M413.25 445.767C413.25 452.702 415.306 459.481 419.159 465.247C423.012 471.014 428.488 475.508 434.896 478.162C441.303 480.816 448.353 481.51 455.155 480.157C461.957 478.804 468.204 475.465 473.108 470.561C478.012 465.657 481.352 459.409 482.705 452.607C484.058 445.806 483.363 438.755 480.709 432.348C478.055 425.941 473.561 420.465 467.795 416.612C462.028 412.759 455.249 410.703 448.314 410.703C439.014 410.703 430.096 414.397 423.52 420.973C416.944 427.548 413.25 436.467 413.25 445.767ZM428.468 445.767C428.468 441.823 429.637 437.968 431.828 434.689C434.019 431.41 437.133 428.854 440.777 427.345C444.42 425.836 448.43 425.441 452.298 426.21C456.166 426.979 459.719 428.879 462.507 431.667C465.296 434.456 467.195 438.009 467.964 441.877C468.734 445.745 468.339 449.754 466.83 453.398C465.32 457.041 462.765 460.155 459.486 462.346C456.206 464.537 452.351 465.707 448.408 465.707C443.121 465.701 438.053 463.598 434.315 459.86C430.577 456.122 428.474 451.053 428.468 445.767Z" stroke="white" stroke-opacity="0.92" stroke-width="2" mask="url(#path-4-inside-3_2455_43326)"/>
<defs>
<filter id="filter0_f_2455_43326" x="0" y="0" width="885" height="1225" filterUnits="userSpaceOnUse" color-interpolation-filters="sRGB">
<feFlood flood-opacity="0" result="BackgroundImageFix"/>
<feBlend mode="normal" in="SourceGraphic" in2="BackgroundImageFix" result="shape"/>
<feGaussianBlur stdDeviation="92" result="effect1_foregroundBlur_2455_43326"/>
</filter>
<filter id="filter1_f_2455_43326" x="347.956" y="275" width="175.422" height="679.527" filterUnits="userSpaceOnUse" color-interpolation-filters="sRGB">
<feFlood flood-opacity="0" result="BackgroundImageFix"/>
<feBlend mode="normal" in="SourceGraphic" in2="BackgroundImageFix" result="shape"/>
<feGaussianBlur stdDeviation="20" result="effect1_foregroundBlur_2455_43326"/>
</filter>
<filter id="filter2_f_2455_43326" x="379.956" y="307" width="111.422" height="615.527" filterUnits="userSpaceOnUse" color-interpolation-filters="sRGB">
<feFlood flood-opacity="0" result="BackgroundImageFix"/>
<feBlend mode="normal" in="SourceGraphic" in2="BackgroundImageFix" result="shape"/>
<feGaussianBlur stdDeviation="4" result="effect1_foregroundBlur_2455_43326"/>
</filter>
</defs>
</svg>
