<svg width="267" height="1069" viewBox="0 0 267 1069" fill="none" xmlns="http://www.w3.org/2000/svg">
<path fill-rule="evenodd" clip-rule="evenodd" d="M133.5 1011.84C102.778 1011.84 76.7625 984.091 76.7625 948.425C76.7625 912.759 102.778 885.012 133.5 885.012C164.222 885.012 190.238 912.759 190.238 948.425C190.238 984.091 164.222 1011.84 133.5 1011.84ZM203.588 918.387C203.588 933.73 200.805 948.142 195.922 960.834C196.573 956.807 196.913 952.66 196.913 948.425C196.913 909.717 168.522 878.337 133.5 878.337C98.4783 878.337 70.0875 909.717 70.0875 948.425C70.0875 952.66 70.4273 956.807 71.0784 960.835C66.1955 948.143 63.4125 933.73 63.4125 918.387C63.4125 892.078 71.5957 868.505 84.5181 851.65C97.4353 834.801 114.812 824.937 133.5 824.937C152.188 824.937 169.565 834.801 182.482 851.65C195.404 868.505 203.588 892.078 203.588 918.387ZM133.5 1018.51C133.86 1018.51 134.22 1018.51 134.578 1018.5C149.868 1018.23 164.077 1012.12 175.958 1001.82C200.489 980.894 216.938 942.394 216.938 898.362C216.938 832.005 179.581 778.212 133.5 778.212C87.4188 778.212 50.0625 832.005 50.0625 898.362C50.0625 942.396 66.5119 980.896 91.0447 1001.82C102.904 1012.11 117.081 1018.21 132.337 1018.5C132.724 1018.51 133.112 1018.51 133.5 1018.51ZM209.928 908.983C210.149 905.489 210.263 901.946 210.263 898.362C210.263 866.374 201.248 837.703 187.017 817.211C172.769 796.694 153.74 784.887 133.5 784.887C113.26 784.887 94.2315 796.694 79.9834 817.211C65.7525 837.703 56.7375 866.374 56.7375 898.362C56.7375 901.947 56.8507 905.489 57.0717 908.983C60.706 858.095 93.5367 818.262 133.5 818.262C173.463 818.262 206.294 858.095 209.928 908.983Z" fill="#CEE44A"/>
<path d="M103.618 708.259C107.784 708.259 111.415 707.244 114.512 705.215C117.609 703.186 120.226 700.729 122.362 697.846C124.391 694.962 127.008 690.904 130.212 685.67C133.522 680.117 136.299 675.791 138.542 672.694C140.785 669.597 143.668 666.98 147.193 664.844C150.61 662.602 154.722 661.48 159.528 661.48C164.655 661.48 169.3 662.762 173.466 665.325C177.631 667.888 180.942 671.68 183.398 676.699C185.748 681.612 186.922 687.539 186.922 694.481C186.922 702.705 185.053 710.234 181.315 717.07C180.995 717.604 180.621 717.977 180.194 718.191C179.767 718.298 179.126 718.405 178.272 718.511L156.484 720.594C156.057 720.701 155.79 720.487 155.683 719.953C155.577 719.312 155.737 718.939 156.164 718.832C163.854 717.123 170.475 713.972 176.029 709.38C181.582 704.681 184.359 698.486 184.359 690.797C184.359 685.457 182.917 680.971 180.034 677.34C177.043 673.602 172.344 671.733 165.936 671.733C161.13 671.733 156.965 672.801 153.441 674.937C149.916 677.073 147.033 679.69 144.79 682.787C142.44 685.777 139.717 689.889 136.62 695.122C133.522 700.249 130.852 704.307 128.61 707.297C126.367 710.181 123.537 712.637 120.119 714.667C116.701 716.696 112.696 717.71 108.104 717.71C102.764 717.71 98.225 716.322 94.487 713.545C90.6422 710.662 87.812 706.977 85.9964 702.491C84.074 697.899 83.1128 693.04 83.1128 687.913C83.1128 681.612 84.3944 675.364 86.9576 669.17C87.4916 667.568 88.3994 666.767 89.681 666.767L108.104 665.645C108.531 665.645 108.745 665.912 108.745 666.446C108.745 666.98 108.531 667.301 108.104 667.408C102.55 668.262 97.424 670.558 92.7248 674.296C87.9188 678.034 85.5158 683.428 85.5158 690.476C85.5158 696.457 87.278 700.943 90.8024 703.933C94.22 706.817 98.492 708.259 103.618 708.259ZM171.383 622.037C174.801 622.037 177.31 621.61 178.912 620.756C180.408 619.794 181.476 618.032 182.116 615.469C182.757 612.799 183.078 608.634 183.078 602.973C183.078 602.653 183.398 602.493 184.039 602.493C184.68 602.493 185 602.653 185 602.973C185 607.352 184.947 610.77 184.84 613.226L184.68 627.164L184.84 637.897C184.947 639.926 185 642.65 185 646.067C185 646.281 184.68 646.388 184.039 646.388C183.398 646.388 183.078 646.281 183.078 646.067C183.078 642.009 182.811 639.072 182.277 637.256C181.743 635.334 180.728 634.052 179.233 633.411C177.631 632.771 175.228 632.45 172.024 632.45H97.8512C94.6472 632.45 92.2976 632.771 90.8024 633.411C89.3072 634.052 88.2926 635.334 87.7586 637.256C87.1178 639.072 86.7974 642.009 86.7974 646.067C86.7974 646.281 86.477 646.388 85.8362 646.388C85.1954 646.388 84.875 646.281 84.875 646.067L85.0352 638.057C85.2488 633.572 85.3556 629.994 85.3556 627.324C85.3556 624.654 85.1954 621.663 84.875 618.353C84.875 617.071 84.8216 615.042 84.7148 612.265C84.5012 609.488 84.3944 607.085 84.3944 605.056C84.3944 595.23 86.5838 587.38 90.9626 581.506C95.3414 575.526 102.016 572.535 110.988 572.535C118.036 572.535 123.964 574.297 128.77 577.822C133.576 581.239 137.154 585.672 139.503 591.118C141.853 596.565 143.028 602.172 143.028 607.94C143.028 611.037 142.761 613.6 142.227 615.629C142.227 615.95 141.96 616.11 141.426 616.11C141.105 616.11 140.785 616.056 140.464 615.95C140.144 615.736 140.037 615.522 140.144 615.309C140.571 613.6 140.785 611.678 140.785 609.542C140.785 602.493 138.489 596.565 133.896 591.759C129.304 586.846 122.682 584.39 114.031 584.39C105.594 584.39 98.9726 586.686 94.1666 591.279C89.2538 595.871 86.7974 601.745 86.7974 608.901C86.7974 612.746 87.011 615.522 87.4382 617.231C87.8654 618.94 88.88 620.168 90.482 620.916C91.9772 621.663 94.5404 622.037 98.1716 622.037H171.383ZM161.13 489.717C160.917 489.717 160.81 489.503 160.81 489.076C160.81 488.756 160.863 488.489 160.97 488.275C161.077 487.955 161.237 487.794 161.451 487.794C168.179 488.756 175.228 489.236 182.597 489.236C183.451 489.236 184.092 489.45 184.519 489.877C184.84 490.197 185 490.838 185 491.799L185 558.923C185 559.137 184.68 559.244 184.039 559.244C183.398 559.244 183.078 559.137 183.078 558.923C183.078 554.865 182.811 551.928 182.277 550.112C181.743 548.19 180.728 546.908 179.233 546.267C177.631 545.52 175.228 545.146 172.024 545.146H97.8512C94.6472 545.146 92.2976 545.52 90.8024 546.267C89.3072 546.908 88.2926 548.19 87.7586 550.112C87.1178 551.928 86.7974 554.865 86.7974 558.923C86.7974 559.137 86.477 559.244 85.8362 559.244C85.1954 559.244 84.875 559.137 84.875 558.923V494.523C84.875 493.562 85.3556 493.081 86.3168 493.081L106.021 492.761C106.342 492.761 106.555 493.028 106.662 493.562C106.662 494.096 106.502 494.416 106.182 494.523C100.521 494.843 96.1424 496.552 93.0452 499.649C89.8412 502.746 88.2392 506.858 88.2392 511.985V521.757C88.2392 525.495 88.5596 528.272 89.2004 530.087C89.7344 531.796 90.749 533.024 92.2442 533.772C93.6326 534.413 95.7686 534.733 98.6522 534.733H131.173V515.189C131.173 510.062 130.318 506.431 128.61 504.295C126.901 502.052 124.017 500.931 119.959 500.931C119.745 500.931 119.638 500.61 119.638 499.97C119.638 499.329 119.745 499.008 119.959 499.008L132.935 499.169C136.032 499.169 138.382 499.115 139.984 499.008L147.673 498.848C147.887 498.848 147.994 499.169 147.994 499.809C147.994 500.45 147.887 500.771 147.673 500.771C142.974 500.771 139.61 501.945 137.581 504.295C135.552 506.538 134.537 510.329 134.537 515.669V534.733H171.383C174.373 534.733 176.563 534.413 177.951 533.772C179.34 533.131 180.301 531.956 180.835 530.247C181.369 528.539 181.636 525.869 181.636 522.237V509.421C181.636 504.295 179.82 500.023 176.189 496.605C172.558 493.188 167.538 490.892 161.13 489.717ZM83.1128 413.284C83.1128 408.158 83.5934 402.978 84.5546 397.745C85.5158 392.511 86.9042 388.346 88.7198 385.249C89.147 384.288 89.6276 383.7 90.1616 383.487C90.5888 383.166 91.3898 382.953 92.5646 382.846L110.507 381.084C110.827 381.084 111.041 381.351 111.148 381.885C111.148 382.419 110.988 382.739 110.667 382.846C102.444 385.196 96.4094 389.574 92.5646 395.982C88.613 402.284 86.6372 410.133 86.6372 419.532C86.6372 427.649 88.4528 434.751 92.084 440.838C95.6084 446.926 100.628 451.625 107.143 454.936C113.658 458.247 121.187 459.902 129.731 459.902C139.663 459.902 148.848 457.873 157.285 453.815C165.723 449.649 172.398 444.096 177.31 437.154C182.223 430.105 184.68 422.522 184.68 414.405C184.68 406.716 182.597 400.041 178.432 394.38C174.16 388.72 167.645 384.394 158.887 381.404C158.567 381.404 158.407 381.19 158.407 380.763C158.407 380.443 158.46 380.176 158.567 379.962C158.674 379.642 158.834 379.482 159.048 379.482L177.15 381.724C178.432 381.938 179.286 382.205 179.713 382.525C180.034 382.739 180.408 383.326 180.835 384.288C184.893 393.9 186.922 404.046 186.922 414.726C186.922 427.542 184.359 438.275 179.233 446.926C174 455.47 167.378 461.771 159.368 465.83C151.358 469.888 142.921 471.917 134.056 471.917C124.231 471.917 115.42 469.194 107.623 463.747C99.827 458.3 93.7928 451.091 89.5208 442.12C85.2488 433.149 83.1128 423.537 83.1128 413.284ZM87.7586 342.324C87.7586 349.052 89.4674 354.125 92.885 357.543C96.3026 360.854 102.123 363.257 110.347 364.752C110.56 364.752 110.667 365.072 110.667 365.713C110.667 366.247 110.56 366.514 110.347 366.514C106.502 366.087 101.482 365.606 95.288 365.072C89.0936 364.538 84.4478 364.271 81.3506 364.271C80.8166 364.271 80.5496 364.004 80.5496 363.47C80.5496 362.83 80.8166 362.509 81.3506 362.509C83.7002 362.509 84.875 359.626 84.875 353.858C85.1954 344.78 85.3556 334.047 85.3556 321.658C85.3556 315.357 85.2488 308.682 85.0352 301.633L84.875 290.74C84.875 286.895 84.608 284.065 84.074 282.249C83.54 280.327 82.472 279.098 80.87 278.564C80.4428 278.458 80.2292 278.137 80.2292 277.603C80.2292 277.069 80.4428 276.802 80.87 276.802C83.9672 277.123 88.6664 277.443 94.9676 277.763C101.269 278.084 106.395 278.244 110.347 278.244C110.56 278.244 110.667 278.564 110.667 279.205C110.667 279.846 110.56 280.166 110.347 280.166C102.016 280.487 96.1958 282.196 92.885 285.293C89.4674 288.39 87.7586 293.516 87.7586 300.672C87.7586 305.478 87.9722 308.896 88.3994 310.925C88.8266 312.954 89.7344 314.342 91.1228 315.09C92.5112 315.838 94.8608 316.211 98.1716 316.211H172.024C175.335 316.211 177.738 315.838 179.233 315.09C180.728 314.342 181.743 312.901 182.277 310.765C182.811 308.629 183.078 305.264 183.078 300.672C183.078 300.352 183.398 300.191 184.039 300.191C184.68 300.191 185 300.352 185 300.672C185 304.196 184.947 307.027 184.84 309.163L184.68 321.658L184.84 333.673C184.947 335.809 185 338.746 185 342.484C185 342.698 184.68 342.805 184.039 342.805C183.398 342.805 183.078 342.698 183.078 342.484C183.078 337.892 182.811 334.528 182.277 332.392C181.743 330.256 180.728 328.814 179.233 328.066C177.631 327.212 175.228 326.785 172.024 326.785H97.8512C94.5404 326.785 92.2442 327.158 90.9626 327.906C89.5742 328.654 88.7198 330.042 88.3994 332.071C87.9722 334.1 87.7586 337.518 87.7586 342.324ZM183.078 161.652C183.078 161.439 183.398 161.332 184.039 161.332C184.68 161.332 185 161.439 185 161.652V182.318C185 184.988 180.461 190.008 171.383 197.377C162.198 204.639 149.436 213.504 133.095 223.97C133.843 226.533 134.217 229.417 134.217 232.621C134.217 234.65 134.11 237.053 133.896 239.83H172.024C175.335 239.83 177.738 239.509 179.233 238.869C180.728 238.228 181.743 237 182.277 235.184C182.811 233.262 183.078 230.271 183.078 226.213C183.078 225.892 183.398 225.732 184.039 225.732C184.68 225.732 185 225.892 185 226.213C185 229.524 184.947 232.14 184.84 234.063L184.68 245.116L184.84 256.01C184.947 257.932 185 260.656 185 264.18C185 264.394 184.68 264.501 184.039 264.501C183.398 264.501 183.078 264.394 183.078 264.18C183.078 260.122 182.811 257.131 182.277 255.209C181.636 253.287 180.568 251.952 179.073 251.204C177.577 250.456 175.228 250.083 172.024 250.083H97.8512C94.6472 250.083 92.2976 250.456 90.8024 251.204C89.3072 251.845 88.2926 253.126 87.7586 255.049C87.1178 256.864 86.7974 259.801 86.7974 263.86C86.7974 264.18 86.477 264.34 85.8362 264.34C85.1954 264.34 84.875 264.18 84.875 263.86L85.0352 256.01C85.2488 251.524 85.3556 247.893 85.3556 245.116C85.3556 243.194 85.3022 241.378 85.1954 239.67C85.0886 237.961 84.9818 236.466 84.875 235.184C84.5546 231.766 84.3944 228.669 84.3944 225.892C84.3944 217.242 86.1566 210.567 89.681 205.867C93.2054 201.168 98.1182 198.819 104.419 198.819C109.546 198.819 114.405 200.314 118.998 203.304C123.483 206.295 127.061 210.246 129.731 215.159C143.295 206.081 153.921 198.445 161.611 192.25C169.194 186.056 174.694 180.556 178.111 175.75C181.422 170.944 183.078 166.245 183.078 161.652ZM129.891 239.83C130.318 237.16 130.532 234.009 130.532 230.378C130.532 223.009 128.983 217.722 125.886 214.518C122.682 211.314 117.396 209.712 110.026 209.712C94.5404 209.712 86.7974 216.227 86.7974 229.257C86.7974 232.14 87.0644 234.33 87.5984 235.825C88.0256 237.213 89.0402 238.228 90.6422 238.869C92.1374 239.509 94.6472 239.83 98.1716 239.83H129.891ZM183.078 51.2981C183.078 50.8709 183.398 50.6573 184.039 50.6573C184.68 50.6573 185 50.8709 185 51.2981C185 53.3273 184.893 56.4779 184.68 60.7499C184.466 65.0219 184.359 68.1191 184.359 70.0415C184.359 72.3911 184.466 75.3815 184.68 79.0127C184.893 82.4303 185 85.0469 185 86.8625C185 87.2897 184.68 87.5033 184.039 87.5033C183.398 87.5033 183.078 87.2897 183.078 86.8625C183.078 82.9109 182.704 80.0273 181.956 78.2117C181.209 76.3961 179.927 75.4883 178.111 75.4883C176.616 75.4883 174.32 76.1825 171.223 77.5709L131.974 95.9939V126.272L164.655 140.049C168.286 141.544 171.276 142.292 173.626 142.292C179.927 142.292 183.078 137.059 183.078 126.592C183.078 126.058 183.398 125.791 184.039 125.791C184.68 125.791 185 126.058 185 126.592C185 128.515 184.893 131.291 184.68 134.923C184.466 138.981 184.359 142.505 184.359 145.496C184.359 148.273 184.466 151.477 184.68 155.108C184.893 158.312 185 160.982 185 163.118C185 163.652 184.68 163.919 184.039 163.919C183.398 163.919 183.078 163.652 183.078 163.118C183.078 160.127 182.544 157.618 181.476 155.588C180.301 153.452 178.325 151.477 175.548 149.661C172.665 147.739 168.553 145.656 163.213 143.413L83.4332 109.611C83.1128 109.397 82.9526 109.024 82.9526 108.49C82.9526 107.956 83.1128 107.635 83.4332 107.528L163.053 69.7211C170.956 66.0899 176.296 62.9927 179.073 60.4295C181.743 57.8663 183.078 54.8225 183.078 51.2981ZM128.61 124.83L128.61 97.5959L98.1716 112.014L128.61 124.83Z" fill="white"/>
</svg>
