<svg width="160" height="40" viewBox="0 0 160 40" fill="none" xmlns="http://www.w3.org/2000/svg">
<path fill-rule="evenodd" clip-rule="evenodd" d="M8.5 20C8.5 24.6026 12.6568 28.5 18 28.5C23.3432 28.5 27.5 24.6026 27.5 20C27.5 15.3974 23.3432 11.5 18 11.5C12.6568 11.5 8.5 15.3974 8.5 20ZM22.5 30.5C20.2014 30.5 18.0423 30.0831 16.1409 29.3515C16.7443 29.4491 17.3656 29.5 18 29.5C23.799 29.5 28.5 25.2467 28.5 20C28.5 14.7533 23.799 10.5 18 10.5C17.3656 10.5 16.7443 10.5509 16.1409 10.6484C18.0423 9.91693 20.2015 9.5 22.5 9.5C26.4415 9.5 29.973 10.7259 32.4982 12.6619C35.0223 14.597 36.5 17.2003 36.5 20C36.5 22.7997 35.0223 25.4029 32.4982 27.3381C29.973 29.2741 26.4415 30.5 22.5 30.5ZM7.50147 20.1616C7.62603 26.9907 15.6365 32.5 25.5 32.5C35.4411 32.5 43.5 26.9036 43.5 20C43.5 13.0964 35.4411 7.5 25.5 7.5C18.9037 7.5 13.1362 9.96398 10.0018 13.6389C8.42106 15.4607 7.5 17.6479 7.5 20C7.5 20.0539 7.50049 20.1078 7.50147 20.1616ZM23.9089 31.4499C24.4324 31.483 24.9631 31.5 25.5 31.5C30.2922 31.5 34.5875 30.1494 37.6575 28.0175C40.7313 25.8829 42.5 23.0323 42.5 20C42.5 16.9677 40.7313 14.1171 37.6575 11.9825C34.5875 9.85057 30.2922 8.5 25.5 8.5C24.9631 8.5 24.4324 8.51695 23.9089 8.55006C31.5325 9.09454 37.5 14.013 37.5 20C37.5 25.987 31.5325 30.9055 23.9089 31.4499Z" fill="#CEE44A"/>
<path d="M53.98 15.808C53.98 16.432 54.132 16.976 54.436 17.44C54.74 17.904 55.108 18.296 55.54 18.616C55.972 18.92 56.58 19.312 57.364 19.792C58.196 20.288 58.844 20.704 59.308 21.04C59.772 21.376 60.164 21.808 60.484 22.336C60.82 22.848 60.988 23.464 60.988 24.184C60.988 24.952 60.796 25.648 60.412 26.272C60.028 26.896 59.46 27.392 58.708 27.76C57.972 28.112 57.084 28.288 56.044 28.288C54.812 28.288 53.684 28.008 52.66 27.448C52.58 27.4 52.524 27.344 52.492 27.28C52.476 27.216 52.46 27.12 52.444 26.992L52.132 23.728C52.116 23.664 52.148 23.624 52.228 23.608C52.324 23.592 52.38 23.616 52.396 23.68C52.652 24.832 53.124 25.824 53.812 26.656C54.516 27.488 55.444 27.904 56.596 27.904C57.396 27.904 58.068 27.688 58.612 27.256C59.172 26.808 59.452 26.104 59.452 25.144C59.452 24.424 59.292 23.8 58.972 23.272C58.652 22.744 58.26 22.312 57.796 21.976C57.348 21.624 56.732 21.216 55.948 20.752C55.18 20.288 54.572 19.888 54.124 19.552C53.692 19.216 53.324 18.792 53.02 18.28C52.716 17.768 52.564 17.168 52.564 16.48C52.564 15.68 52.772 15 53.188 14.44C53.62 13.864 54.172 13.44 54.844 13.168C55.532 12.88 56.26 12.736 57.028 12.736C57.972 12.736 58.908 12.928 59.836 13.312C60.076 13.392 60.196 13.528 60.196 13.72L60.364 16.48C60.364 16.544 60.324 16.576 60.244 16.576C60.164 16.576 60.116 16.544 60.1 16.48C59.972 15.648 59.628 14.88 59.068 14.176C58.508 13.456 57.7 13.096 56.644 13.096C55.748 13.096 55.076 13.36 54.628 13.888C54.196 14.4 53.98 15.04 53.98 15.808ZM66.8971 25.96C66.8971 26.472 66.9611 26.848 67.0891 27.088C67.2331 27.312 67.4971 27.472 67.8811 27.568C68.2811 27.664 68.9051 27.712 69.7531 27.712C69.8011 27.712 69.8251 27.76 69.8251 27.856C69.8251 27.952 69.8011 28 69.7531 28C69.0971 28 68.5851 27.992 68.2171 27.976L66.1291 27.952L64.5211 27.976C64.2171 27.992 63.8091 28 63.2971 28C63.2651 28 63.2491 27.952 63.2491 27.856C63.2491 27.76 63.2651 27.712 63.2971 27.712C63.9051 27.712 64.3451 27.672 64.6171 27.592C64.9051 27.512 65.0971 27.36 65.1931 27.136C65.2891 26.896 65.3371 26.536 65.3371 26.056V14.944C65.3371 14.464 65.2891 14.112 65.1931 13.888C65.0971 13.664 64.9051 13.512 64.6171 13.432C64.3451 13.336 63.9051 13.288 63.2971 13.288C63.2651 13.288 63.2491 13.24 63.2491 13.144C63.2491 13.048 63.2651 13 63.2971 13L64.4971 13.024C65.1691 13.056 65.7051 13.072 66.1051 13.072C66.5051 13.072 66.9531 13.048 67.4491 13C67.6411 13 67.9451 12.992 68.3611 12.976C68.7771 12.944 69.1371 12.928 69.4411 12.928C70.9131 12.928 72.0891 13.256 72.9691 13.912C73.8651 14.568 74.3131 15.568 74.3131 16.912C74.3131 17.968 74.0491 18.856 73.5211 19.576C73.0091 20.296 72.3451 20.832 71.5291 21.184C70.7131 21.536 69.8731 21.712 69.0091 21.712C68.5451 21.712 68.1611 21.672 67.8571 21.592C67.8091 21.592 67.7851 21.552 67.7851 21.472C67.7851 21.424 67.7931 21.376 67.8091 21.328C67.8411 21.28 67.8731 21.264 67.9051 21.28C68.1611 21.344 68.4491 21.376 68.7691 21.376C69.8251 21.376 70.7131 21.032 71.4331 20.344C72.1691 19.656 72.5371 18.664 72.5371 17.368C72.5371 16.104 72.1931 15.112 71.5051 14.392C70.8171 13.656 69.9371 13.288 68.8651 13.288C68.2891 13.288 67.8731 13.32 67.6171 13.384C67.3611 13.448 67.1771 13.6 67.0651 13.84C66.9531 14.064 66.8971 14.448 66.8971 14.992V25.96ZM86.7203 24.424C86.7203 24.392 86.7523 24.376 86.8163 24.376C86.8643 24.376 86.9043 24.384 86.9363 24.4C86.9843 24.416 87.0083 24.44 87.0083 24.472C86.8643 25.48 86.7923 26.536 86.7923 27.64C86.7923 27.768 86.7603 27.864 86.6963 27.928C86.6483 27.976 86.5523 28 86.4083 28H76.3523C76.3203 28 76.3043 27.952 76.3043 27.856C76.3043 27.76 76.3203 27.712 76.3523 27.712C76.9603 27.712 77.4003 27.672 77.6723 27.592C77.9603 27.512 78.1523 27.36 78.2483 27.136C78.3603 26.896 78.4163 26.536 78.4163 26.056V14.944C78.4163 14.464 78.3603 14.112 78.2483 13.888C78.1523 13.664 77.9603 13.512 77.6723 13.432C77.4003 13.336 76.9603 13.288 76.3523 13.288C76.3203 13.288 76.3043 13.24 76.3043 13.144C76.3043 13.048 76.3203 13 76.3523 13H86.0003C86.1443 13 86.2163 13.072 86.2163 13.216L86.2643 16.168C86.2643 16.216 86.2243 16.248 86.1443 16.264C86.0643 16.264 86.0163 16.24 86.0003 16.192C85.9523 15.344 85.6963 14.688 85.2323 14.224C84.7683 13.744 84.1523 13.504 83.3843 13.504H81.9203C81.3603 13.504 80.9443 13.552 80.6723 13.648C80.4163 13.728 80.2323 13.88 80.1203 14.104C80.0243 14.312 79.9763 14.632 79.9763 15.064V19.936H82.9043C83.6723 19.936 84.2163 19.808 84.5363 19.552C84.8723 19.296 85.0403 18.864 85.0403 18.256C85.0403 18.224 85.0883 18.208 85.1843 18.208C85.2803 18.208 85.3283 18.224 85.3283 18.256L85.3043 20.2C85.3043 20.664 85.3123 21.016 85.3283 21.256L85.3523 22.408C85.3523 22.44 85.3043 22.456 85.2083 22.456C85.1123 22.456 85.0643 22.44 85.0643 22.408C85.0643 21.704 84.8883 21.2 84.5363 20.896C84.2003 20.592 83.6323 20.44 82.8323 20.44H79.9763V25.96C79.9763 26.408 80.0243 26.736 80.1203 26.944C80.2163 27.152 80.3923 27.296 80.6483 27.376C80.9043 27.456 81.3043 27.496 81.8483 27.496H83.7683C84.5363 27.496 85.1763 27.224 85.6883 26.68C86.2003 26.136 86.5443 25.384 86.7203 24.424ZM98.1709 12.736C98.9389 12.736 99.7149 12.808 100.499 12.952C101.283 13.096 101.907 13.304 102.371 13.576C102.515 13.64 102.603 13.712 102.635 13.792C102.683 13.856 102.715 13.976 102.731 14.152L102.995 16.84C102.995 16.888 102.955 16.92 102.875 16.936C102.795 16.936 102.747 16.912 102.731 16.864C102.379 15.632 101.723 14.728 100.763 14.152C99.8189 13.56 98.6429 13.264 97.2349 13.264C96.0189 13.264 94.9549 13.536 94.0429 14.08C93.1309 14.608 92.4269 15.36 91.9309 16.336C91.4349 17.312 91.1869 18.44 91.1869 19.72C91.1869 21.208 91.4909 22.584 92.0989 23.848C92.7229 25.112 93.5549 26.112 94.5949 26.848C95.6509 27.584 96.7869 27.952 98.0029 27.952C99.1549 27.952 100.155 27.64 101.003 27.016C101.851 26.376 102.499 25.4 102.947 24.088C102.947 24.04 102.979 24.016 103.043 24.016C103.091 24.016 103.131 24.024 103.163 24.04C103.211 24.056 103.235 24.08 103.235 24.112L102.899 26.824C102.867 27.016 102.827 27.144 102.779 27.208C102.747 27.256 102.659 27.312 102.515 27.376C101.075 27.984 99.5549 28.288 97.9549 28.288C96.0349 28.288 94.4269 27.904 93.1309 27.136C91.8509 26.352 90.9069 25.36 90.2989 24.16C89.6909 22.96 89.3869 21.696 89.3869 20.368C89.3869 18.896 89.7949 17.576 90.6109 16.408C91.4269 15.24 92.5069 14.336 93.8509 13.696C95.1949 13.056 96.6349 12.736 98.1709 12.736ZM108.802 13.432C107.794 13.432 107.034 13.688 106.522 14.2C106.026 14.712 105.666 15.584 105.442 16.816C105.442 16.848 105.394 16.864 105.298 16.864C105.218 16.864 105.178 16.848 105.178 16.816C105.242 16.24 105.314 15.488 105.394 14.56C105.474 13.632 105.514 12.936 105.514 12.472C105.514 12.392 105.554 12.352 105.634 12.352C105.73 12.352 105.778 12.392 105.778 12.472C105.778 12.824 106.21 13 107.074 13C108.434 13.048 110.042 13.072 111.898 13.072C112.842 13.072 113.842 13.056 114.898 13.024L116.53 13C117.106 13 117.53 12.96 117.802 12.88C118.09 12.8 118.274 12.64 118.354 12.4C118.37 12.336 118.418 12.304 118.498 12.304C118.578 12.304 118.618 12.336 118.618 12.4C118.57 12.864 118.522 13.568 118.474 14.512C118.426 15.456 118.402 16.224 118.402 16.816C118.402 16.848 118.354 16.864 118.258 16.864C118.162 16.864 118.114 16.848 118.114 16.816C118.066 15.568 117.81 14.696 117.346 14.2C116.882 13.688 116.114 13.432 115.042 13.432C114.322 13.432 113.81 13.464 113.506 13.528C113.202 13.592 112.994 13.728 112.882 13.936C112.77 14.144 112.714 14.496 112.714 14.992V26.056C112.714 26.552 112.77 26.912 112.882 27.136C112.994 27.36 113.21 27.512 113.53 27.592C113.85 27.672 114.354 27.712 115.042 27.712C115.09 27.712 115.114 27.76 115.114 27.856C115.114 27.952 115.09 28 115.042 28C114.514 28 114.09 27.992 113.77 27.976L111.898 27.952L110.098 27.976C109.778 27.992 109.338 28 108.778 28C108.746 28 108.73 27.952 108.73 27.856C108.73 27.76 108.746 27.712 108.778 27.712C109.466 27.712 109.97 27.672 110.29 27.592C110.61 27.512 110.826 27.36 110.938 27.136C111.066 26.896 111.13 26.536 111.13 26.056V14.944C111.13 14.448 111.074 14.104 110.962 13.912C110.85 13.704 110.642 13.576 110.338 13.528C110.034 13.464 109.522 13.432 108.802 13.432ZM135.869 27.712C135.901 27.712 135.917 27.76 135.917 27.856C135.917 27.952 135.901 28 135.869 28H132.773C132.373 28 131.621 27.32 130.517 25.96C129.429 24.584 128.101 22.672 126.533 20.224C126.149 20.336 125.717 20.392 125.237 20.392C124.933 20.392 124.573 20.376 124.157 20.344V26.056C124.157 26.552 124.205 26.912 124.301 27.136C124.397 27.36 124.581 27.512 124.853 27.592C125.141 27.672 125.589 27.712 126.197 27.712C126.245 27.712 126.269 27.76 126.269 27.856C126.269 27.952 126.245 28 126.197 28C125.701 28 125.309 27.992 125.021 27.976L123.365 27.952L121.733 27.976C121.445 27.992 121.037 28 120.509 28C120.477 28 120.461 27.952 120.461 27.856C120.461 27.76 120.477 27.712 120.509 27.712C121.117 27.712 121.565 27.672 121.853 27.592C122.141 27.496 122.341 27.336 122.453 27.112C122.565 26.888 122.621 26.536 122.621 26.056V14.944C122.621 14.464 122.565 14.112 122.453 13.888C122.357 13.664 122.165 13.512 121.877 13.432C121.605 13.336 121.165 13.288 120.557 13.288C120.509 13.288 120.485 13.24 120.485 13.144C120.485 13.048 120.509 13 120.557 13L121.733 13.024C122.405 13.056 122.949 13.072 123.365 13.072C123.653 13.072 123.925 13.064 124.181 13.048C124.437 13.032 124.661 13.016 124.853 13C125.365 12.952 125.829 12.928 126.245 12.928C127.541 12.928 128.541 13.192 129.245 13.72C129.949 14.248 130.301 14.984 130.301 15.928C130.301 16.696 130.077 17.424 129.629 18.112C129.181 18.784 128.589 19.32 127.853 19.72C129.213 21.752 130.357 23.344 131.285 24.496C132.213 25.632 133.037 26.456 133.757 26.968C134.477 27.464 135.181 27.712 135.869 27.712ZM124.157 19.744C124.557 19.808 125.029 19.84 125.573 19.84C126.677 19.84 127.469 19.608 127.949 19.144C128.429 18.664 128.669 17.872 128.669 16.768C128.669 14.448 127.693 13.288 125.741 13.288C125.309 13.288 124.981 13.328 124.757 13.408C124.549 13.472 124.397 13.624 124.301 13.864C124.205 14.088 124.157 14.464 124.157 14.992V19.744ZM152.401 27.712C152.465 27.712 152.497 27.76 152.497 27.856C152.497 27.952 152.465 28 152.401 28C152.097 28 151.625 27.984 150.985 27.952C150.345 27.92 149.881 27.904 149.593 27.904C149.241 27.904 148.793 27.92 148.249 27.952C147.737 27.984 147.345 28 147.073 28C147.009 28 146.977 27.952 146.977 27.856C146.977 27.76 147.009 27.712 147.073 27.712C147.665 27.712 148.097 27.656 148.369 27.544C148.641 27.432 148.777 27.24 148.777 26.968C148.777 26.744 148.673 26.4 148.465 25.936L145.705 20.056H141.169L139.105 24.952C138.881 25.496 138.769 25.944 138.769 26.296C138.769 27.24 139.553 27.712 141.121 27.712C141.201 27.712 141.241 27.76 141.241 27.856C141.241 27.952 141.201 28 141.121 28C140.833 28 140.417 27.984 139.873 27.952C139.265 27.92 138.737 27.904 138.289 27.904C137.873 27.904 137.393 27.92 136.849 27.952C136.369 27.984 135.969 28 135.649 28C135.569 28 135.529 27.952 135.529 27.856C135.529 27.76 135.569 27.712 135.649 27.712C136.097 27.712 136.473 27.632 136.777 27.472C137.097 27.296 137.393 27 137.665 26.584C137.953 26.152 138.265 25.536 138.601 24.736L143.665 12.784C143.697 12.736 143.753 12.712 143.833 12.712C143.913 12.712 143.961 12.736 143.977 12.784L149.641 24.712C150.185 25.896 150.649 26.696 151.033 27.112C151.417 27.512 151.873 27.712 152.401 27.712ZM141.385 19.552H145.465L143.305 14.992L141.385 19.552Z" fill="white"/>
</svg>
