<svg width="1121" height="1517" viewBox="0 0 1121 1517" fill="none" xmlns="http://www.w3.org/2000/svg">
<g opacity="0.4" filter="url(#filter0_f_174_2877)">
<ellipse cx="624.5" cy="688.5" rx="224.5" ry="428.5" fill="#FFD1B2"/>
</g>
<path fill-rule="evenodd" clip-rule="evenodd" d="M595.251 556.187C595.274 563.117 597.35 569.885 601.217 575.636C605.084 581.387 610.568 585.863 616.977 588.499C623.386 591.135 630.433 591.813 637.227 590.446C644.021 589.08 650.258 585.732 655.15 580.823C660.042 575.915 663.37 569.667 664.714 562.868C666.057 556.069 665.356 549.025 662.699 542.625C660.041 536.225 655.547 530.755 649.783 526.907C644.02 523.06 637.245 521.006 630.315 521.006C625.7 521.006 621.131 521.917 616.869 523.686C612.608 525.456 608.737 528.049 605.479 531.317C602.222 534.586 599.641 538.465 597.886 542.733C596.131 547 595.235 551.573 595.251 556.187ZM610.469 556.187C610.469 552.243 611.638 548.388 613.829 545.109C616.02 541.83 619.134 539.274 622.778 537.765C626.421 536.256 630.431 535.861 634.299 536.63C638.166 537.4 641.719 539.299 644.508 542.087C647.297 544.876 649.196 548.429 649.965 552.297C650.735 556.165 650.34 560.174 648.83 563.818C647.321 567.461 644.766 570.576 641.486 572.767C638.207 574.958 634.352 576.127 630.408 576.127C625.12 576.127 620.048 574.026 616.309 570.287C612.569 566.547 610.469 561.476 610.469 556.187Z" fill="#281E1C" fill-opacity="0.92"/>
<path fill-rule="evenodd" clip-rule="evenodd" d="M595.251 760.869C595.251 741.233 611.614 728.82 630.315 728.82C649.016 728.82 665.38 741.233 665.38 760.869C665.368 764.683 664.6 768.457 663.119 771.972C661.639 775.487 659.475 778.673 656.754 781.346L664.094 781.346L664.094 796.564L569.958 796.564L569.958 781.977L604.461 781.977C601.548 779.295 599.216 776.045 597.608 772.426C595.999 768.808 595.15 764.898 595.111 760.939L595.251 760.869ZM651.354 762.949C651.354 751.261 641.512 744.435 630.502 744.435C619.492 744.435 609.651 751.214 609.651 762.949C609.651 774.684 619.375 781.65 630.502 781.65C641.629 781.65 651.214 774.731 651.214 762.949L651.354 762.949Z" fill="#281E1C" fill-opacity="0.92"/>
<path fill-rule="evenodd" clip-rule="evenodd" d="M664.28 871.555L643.522 878.942L643.522 923.988L664.28 931.398L664.28 947.527L570.612 914.17L570.612 888.76L664.28 855.378L664.28 871.555ZM585.432 903.3L628.702 918.705L628.702 884.225L585.432 899.653L585.432 903.3Z" fill="#281E1C" fill-opacity="0.92"/>
<path fill-rule="evenodd" clip-rule="evenodd" d="M596.537 348L664.281 348L664.281 363.218L611.1 363.218L611.1 383.532L664.281 383.532L664.281 398.75L611.1 398.75L611.1 419.063L664.281 419.063L664.281 434.281L596.537 434.281L596.537 348Z" fill="#281E1C" fill-opacity="0.92"/>
<path fill-rule="evenodd" clip-rule="evenodd" d="M611.1 646.489L611.1 664.629L649.694 664.629L649.694 647.775L664.281 647.775L664.281 679.847L611.1 679.847L611.1 692.821L596.537 692.821L596.537 679.847L579.683 679.847L579.683 664.629L596.537 664.629L596.537 646.489L611.1 646.489Z" fill="#281E1C" fill-opacity="0.92"/>
<path fill-rule="evenodd" clip-rule="evenodd" d="M662.831 716.806L596.537 716.806L596.537 701.588L664.281 701.588L664.281 716.806L662.831 716.806Z" fill="#281E1C" fill-opacity="0.92"/>
<path d="M570.613 700.816L570.613 717.459L587.771 717.459L587.771 700.816L570.613 700.816Z" fill="#281E1C" fill-opacity="0.92"/>
<path fill-rule="evenodd" clip-rule="evenodd" d="M596.537 805.987L611.1 805.987L611.1 833.173L664.281 833.173L664.281 848.391L596.537 848.391L596.537 805.987Z" fill="#281E1C" fill-opacity="0.92"/>
<path fill-rule="evenodd" clip-rule="evenodd" d="M596.537 592.725L611.1 592.725L611.1 619.911L664.281 619.911L664.281 635.129L596.537 635.129L596.537 592.725Z" fill="#281E1C" fill-opacity="0.92"/>
<path fill-rule="evenodd" clip-rule="evenodd" d="M595.25 478.767C595.25 485.702 597.307 492.481 601.16 498.247C605.013 504.014 610.489 508.508 616.896 511.162C623.303 513.816 630.354 514.51 637.155 513.157C643.957 511.804 650.205 508.465 655.109 503.561C660.013 498.657 663.352 492.409 664.705 485.607C666.058 478.806 665.364 471.755 662.71 465.348C660.056 458.941 655.562 453.465 649.795 449.612C644.029 445.759 637.25 443.702 630.315 443.702C621.015 443.702 612.096 447.397 605.521 453.973C598.945 460.548 595.25 469.467 595.25 478.767ZM610.468 478.767C610.468 474.823 611.638 470.968 613.829 467.689C616.02 464.41 619.134 461.854 622.778 460.345C626.421 458.836 630.43 458.441 634.298 459.21C638.166 459.979 641.719 461.878 644.508 464.667C647.297 467.456 649.196 471.009 649.965 474.877C650.734 478.745 650.339 482.754 648.83 486.397C647.321 490.041 644.765 493.155 641.486 495.346C638.207 497.537 634.352 498.707 630.408 498.707C625.122 498.701 620.054 496.598 616.315 492.86C612.577 489.121 610.475 484.053 610.468 478.767Z" fill="#281E1C" fill-opacity="0.92"/>
<defs>
<filter id="filter0_f_174_2877" x="0" y="-140" width="1249" height="1657" filterUnits="userSpaceOnUse" color-interpolation-filters="sRGB">
<feFlood flood-opacity="0" result="BackgroundImageFix"/>
<feBlend mode="normal" in="SourceGraphic" in2="BackgroundImageFix" result="shape"/>
<feGaussianBlur stdDeviation="200" result="effect1_foregroundBlur_174_2877"/>
</filter>
</defs>
</svg>
