<svg width="139" height="40" viewBox="0 0 139 40" fill="none" xmlns="http://www.w3.org/2000/svg">
<path fill-rule="evenodd" clip-rule="evenodd" d="M0.999999 20C0.999999 24.6026 5.15678 28.5 10.5 28.5C15.8432 28.5 20 24.6026 20 20C20 15.3974 15.8432 11.5 10.5 11.5C5.15678 11.5 1 15.3974 0.999999 20ZM15 30.5C12.7014 30.5 10.5423 30.0831 8.64088 29.3515C9.2443 29.4491 9.86558 29.5 10.5 29.5C16.299 29.5 21 25.2467 21 20C21 14.7533 16.299 10.5 10.5 10.5C9.86558 10.5 9.2443 10.5509 8.64088 10.6484C10.5423 9.91693 12.7015 9.5 15 9.5C18.9415 9.5 22.473 10.7259 24.9982 12.6619C27.5223 14.597 29 17.2003 29 20C29 22.7997 27.5223 25.4029 24.9982 27.3381C22.473 29.2741 18.9415 30.5 15 30.5ZM0.00147192 20.1616C0.126033 26.9907 8.13654 32.5 18 32.5C27.9411 32.5 36 26.9036 36 20C36 13.0964 27.9411 7.5 18 7.5C11.4037 7.5 5.63617 9.96398 2.50175 13.6389C0.921062 15.4607 -4.43578e-07 17.6479 -5.46392e-07 20C-5.4875e-07 20.0539 0.000491545 20.1078 0.00147192 20.1616ZM16.4089 31.4499C16.9324 31.483 17.4631 31.5 18 31.5C22.7922 31.5 27.0875 30.1494 30.1575 28.0175C33.2313 25.8829 35 23.0323 35 20C35 16.9677 33.2313 14.1171 30.1575 11.9825C27.0875 9.85057 22.7922 8.5 18 8.5C17.4631 8.5 16.9324 8.51695 16.4089 8.55006C24.0325 9.09454 30 14.013 30 20C30 25.987 24.0325 30.9055 16.4089 31.4499Z" fill="#CEE44A"/>
<path d="M48.9 16.34C48.9 16.86 49.0267 17.3133 49.28 17.7C49.5333 18.0867 49.84 18.4133 50.2 18.68C50.56 18.9333 51.0667 19.26 51.72 19.66C52.4133 20.0733 52.9533 20.42 53.34 20.7C53.7267 20.98 54.0533 21.34 54.32 21.78C54.6 22.2067 54.74 22.72 54.74 23.32C54.74 23.96 54.58 24.54 54.26 25.06C53.94 25.58 53.4667 25.9933 52.84 26.3C52.2267 26.5933 51.4867 26.74 50.62 26.74C49.5933 26.74 48.6533 26.5067 47.8 26.04C47.7333 26 47.6867 25.9533 47.66 25.9C47.6467 25.8467 47.6333 25.7667 47.62 25.66L47.36 22.94C47.3467 22.8867 47.3733 22.8533 47.44 22.84C47.52 22.8267 47.5667 22.8467 47.58 22.9C47.7933 23.86 48.1867 24.6867 48.76 25.38C49.3467 26.0733 50.12 26.42 51.08 26.42C51.7467 26.42 52.3067 26.24 52.76 25.88C53.2267 25.5067 53.46 24.92 53.46 24.12C53.46 23.52 53.3267 23 53.06 22.56C52.7933 22.12 52.4667 21.76 52.08 21.48C51.7067 21.1867 51.1933 20.8467 50.54 20.46C49.9 20.0733 49.3933 19.74 49.02 19.46C48.66 19.18 48.3533 18.8267 48.1 18.4C47.8467 17.9733 47.72 17.4733 47.72 16.9C47.72 16.2333 47.8933 15.6667 48.24 15.2C48.6 14.72 49.06 14.3667 49.62 14.14C50.1933 13.9 50.8 13.78 51.44 13.78C52.2267 13.78 53.0067 13.94 53.78 14.26C53.98 14.3267 54.08 14.44 54.08 14.6L54.22 16.9C54.22 16.9533 54.1867 16.98 54.12 16.98C54.0533 16.98 54.0133 16.9533 54 16.9C53.8933 16.2067 53.6067 15.5667 53.14 14.98C52.6733 14.38 52 14.08 51.12 14.08C50.3733 14.08 49.8133 14.3 49.44 14.74C49.08 15.1667 48.9 15.7 48.9 16.34ZM59.6642 24.8C59.6642 25.2267 59.7176 25.54 59.8242 25.74C59.9442 25.9267 60.1642 26.06 60.4842 26.14C60.8176 26.22 61.3376 26.26 62.0442 26.26C62.0842 26.26 62.1042 26.3 62.1042 26.38C62.1042 26.46 62.0842 26.5 62.0442 26.5C61.4976 26.5 61.0709 26.4933 60.7642 26.48L59.0242 26.46L57.6842 26.48C57.4309 26.4933 57.0909 26.5 56.6642 26.5C56.6376 26.5 56.6242 26.46 56.6242 26.38C56.6242 26.3 56.6376 26.26 56.6642 26.26C57.1709 26.26 57.5376 26.2267 57.7642 26.16C58.0042 26.0933 58.1642 25.9667 58.2442 25.78C58.3242 25.58 58.3642 25.28 58.3642 24.88V15.62C58.3642 15.22 58.3242 14.9267 58.2442 14.74C58.1642 14.5533 58.0042 14.4267 57.7642 14.36C57.5376 14.28 57.1709 14.24 56.6642 14.24C56.6376 14.24 56.6242 14.2 56.6242 14.12C56.6242 14.04 56.6376 14 56.6642 14L57.6642 14.02C58.2242 14.0467 58.6709 14.06 59.0042 14.06C59.3376 14.06 59.7109 14.04 60.1242 14C60.2842 14 60.5376 13.9933 60.8842 13.98C61.2309 13.9533 61.5309 13.94 61.7842 13.94C63.0109 13.94 63.9909 14.2133 64.7242 14.76C65.4709 15.3067 65.8442 16.14 65.8442 17.26C65.8442 18.14 65.6242 18.88 65.1842 19.48C64.7576 20.08 64.2042 20.5267 63.5242 20.82C62.8442 21.1133 62.1442 21.26 61.4242 21.26C61.0376 21.26 60.7176 21.2267 60.4642 21.16C60.4242 21.16 60.4042 21.1267 60.4042 21.06C60.4042 21.02 60.4109 20.98 60.4242 20.94C60.4509 20.9 60.4776 20.8867 60.5042 20.9C60.7176 20.9533 60.9576 20.98 61.2242 20.98C62.1042 20.98 62.8442 20.6933 63.4442 20.12C64.0576 19.5467 64.3642 18.72 64.3642 17.64C64.3642 16.5867 64.0776 15.76 63.5042 15.16C62.9309 14.5467 62.1976 14.24 61.3042 14.24C60.8242 14.24 60.4776 14.2667 60.2642 14.32C60.0509 14.3733 59.8976 14.5 59.8042 14.7C59.7109 14.8867 59.6642 15.2067 59.6642 15.66V24.8ZM76.1836 23.52C76.1836 23.4933 76.2103 23.48 76.2636 23.48C76.3036 23.48 76.3369 23.4867 76.3636 23.5C76.4036 23.5133 76.4236 23.5333 76.4236 23.56C76.3036 24.4 76.2436 25.28 76.2436 26.2C76.2436 26.3067 76.2169 26.3867 76.1636 26.44C76.1236 26.48 76.0436 26.5 75.9236 26.5H67.5436C67.5169 26.5 67.5036 26.46 67.5036 26.38C67.5036 26.3 67.5169 26.26 67.5436 26.26C68.0503 26.26 68.4169 26.2267 68.6436 26.16C68.8836 26.0933 69.0436 25.9667 69.1236 25.78C69.2169 25.58 69.2636 25.28 69.2636 24.88V15.62C69.2636 15.22 69.2169 14.9267 69.1236 14.74C69.0436 14.5533 68.8836 14.4267 68.6436 14.36C68.4169 14.28 68.0503 14.24 67.5436 14.24C67.5169 14.24 67.5036 14.2 67.5036 14.12C67.5036 14.04 67.5169 14 67.5436 14H75.5836C75.7036 14 75.7636 14.06 75.7636 14.18L75.8036 16.64C75.8036 16.68 75.7703 16.7067 75.7036 16.72C75.6369 16.72 75.5969 16.7 75.5836 16.66C75.5436 15.9533 75.3303 15.4067 74.9436 15.02C74.5569 14.62 74.0436 14.42 73.4036 14.42H72.1836C71.7169 14.42 71.3703 14.46 71.1436 14.54C70.9303 14.6067 70.7769 14.7333 70.6836 14.92C70.6036 15.0933 70.5636 15.36 70.5636 15.72V19.78H73.0036C73.6436 19.78 74.0969 19.6733 74.3636 19.46C74.6436 19.2467 74.7836 18.8867 74.7836 18.38C74.7836 18.3533 74.8236 18.34 74.9036 18.34C74.9836 18.34 75.0236 18.3533 75.0236 18.38L75.0036 20C75.0036 20.3867 75.0103 20.68 75.0236 20.88L75.0436 21.84C75.0436 21.8667 75.0036 21.88 74.9236 21.88C74.8436 21.88 74.8036 21.8667 74.8036 21.84C74.8036 21.2533 74.6569 20.8333 74.3636 20.58C74.0836 20.3267 73.6103 20.2 72.9436 20.2H70.5636V24.8C70.5636 25.1733 70.6036 25.4467 70.6836 25.62C70.7636 25.7933 70.9103 25.9133 71.1236 25.98C71.3369 26.0467 71.6703 26.08 72.1236 26.08H73.7236C74.3636 26.08 74.8969 25.8533 75.3236 25.4C75.7503 24.9467 76.0369 24.32 76.1836 23.52ZM85.7258 13.78C86.3658 13.78 87.0124 13.84 87.6658 13.96C88.3191 14.08 88.8391 14.2533 89.2258 14.48C89.3458 14.5333 89.4191 14.5933 89.4458 14.66C89.4858 14.7133 89.5124 14.8133 89.5258 14.96L89.7458 17.2C89.7458 17.24 89.7124 17.2667 89.6458 17.28C89.5791 17.28 89.5391 17.26 89.5258 17.22C89.2324 16.1933 88.6858 15.44 87.8858 14.96C87.0991 14.4667 86.1191 14.22 84.9458 14.22C83.9324 14.22 83.0458 14.4467 82.2858 14.9C81.5258 15.34 80.9391 15.9667 80.5258 16.78C80.1124 17.5933 79.9058 18.5333 79.9058 19.6C79.9058 20.84 80.1591 21.9867 80.6658 23.04C81.1858 24.0933 81.8791 24.9267 82.7458 25.54C83.6258 26.1533 84.5724 26.46 85.5858 26.46C86.5458 26.46 87.3791 26.2 88.0858 25.68C88.7924 25.1467 89.3324 24.3333 89.7058 23.24C89.7058 23.2 89.7324 23.18 89.7858 23.18C89.8258 23.18 89.8591 23.1867 89.8858 23.2C89.9258 23.2133 89.9458 23.2333 89.9458 23.26L89.6658 25.52C89.6391 25.68 89.6058 25.7867 89.5658 25.84C89.5391 25.88 89.4658 25.9267 89.3458 25.98C88.1458 26.4867 86.8791 26.74 85.5458 26.74C83.9458 26.74 82.6058 26.42 81.5258 25.78C80.4591 25.1267 79.6724 24.3 79.1658 23.3C78.6591 22.3 78.4058 21.2467 78.4058 20.14C78.4058 18.9133 78.7458 17.8133 79.4258 16.84C80.1058 15.8667 81.0058 15.1133 82.1258 14.58C83.2458 14.0467 84.4458 13.78 85.7258 13.78ZM94.5847 14.36C93.7447 14.36 93.1114 14.5733 92.6847 15C92.2714 15.4267 91.9714 16.1533 91.7847 17.18C91.7847 17.2067 91.7447 17.22 91.6647 17.22C91.598 17.22 91.5647 17.2067 91.5647 17.18C91.618 16.7 91.678 16.0733 91.7447 15.3C91.8114 14.5267 91.8447 13.9467 91.8447 13.56C91.8447 13.4933 91.878 13.46 91.9447 13.46C92.0247 13.46 92.0647 13.4933 92.0647 13.56C92.0647 13.8533 92.4247 14 93.1447 14C94.278 14.04 95.618 14.06 97.1647 14.06C97.9514 14.06 98.7847 14.0467 99.6647 14.02L101.025 14C101.505 14 101.858 13.9667 102.085 13.9C102.325 13.8333 102.478 13.7 102.545 13.5C102.558 13.4467 102.598 13.42 102.665 13.42C102.731 13.42 102.765 13.4467 102.765 13.5C102.725 13.8867 102.685 14.4733 102.645 15.26C102.605 16.0467 102.585 16.6867 102.585 17.18C102.585 17.2067 102.545 17.22 102.465 17.22C102.385 17.22 102.345 17.2067 102.345 17.18C102.305 16.14 102.091 15.4133 101.705 15C101.318 14.5733 100.678 14.36 99.7847 14.36C99.1847 14.36 98.758 14.3867 98.5047 14.44C98.2514 14.4933 98.078 14.6067 97.9847 14.78C97.8914 14.9533 97.8447 15.2467 97.8447 15.66V24.88C97.8447 25.2933 97.8914 25.5933 97.9847 25.78C98.078 25.9667 98.258 26.0933 98.5247 26.16C98.7914 26.2267 99.2114 26.26 99.7847 26.26C99.8247 26.26 99.8447 26.3 99.8447 26.38C99.8447 26.46 99.8247 26.5 99.7847 26.5C99.3447 26.5 98.9914 26.4933 98.7247 26.48L97.1647 26.46L95.6647 26.48C95.398 26.4933 95.0314 26.5 94.5647 26.5C94.538 26.5 94.5247 26.46 94.5247 26.38C94.5247 26.3 94.538 26.26 94.5647 26.26C95.138 26.26 95.558 26.2267 95.8247 26.16C96.0914 26.0933 96.2714 25.9667 96.3647 25.78C96.4714 25.58 96.5247 25.28 96.5247 24.88V15.62C96.5247 15.2067 96.478 14.92 96.3847 14.76C96.2914 14.5867 96.118 14.48 95.8647 14.44C95.6114 14.3867 95.1847 14.36 94.5847 14.36ZM117.14 26.26C117.167 26.26 117.18 26.3 117.18 26.38C117.18 26.46 117.167 26.5 117.14 26.5H114.56C114.227 26.5 113.6 25.9333 112.68 24.8C111.774 23.6533 110.667 22.06 109.36 20.02C109.04 20.1133 108.68 20.16 108.28 20.16C108.027 20.16 107.727 20.1467 107.38 20.12V24.88C107.38 25.2933 107.42 25.5933 107.5 25.78C107.58 25.9667 107.734 26.0933 107.96 26.16C108.2 26.2267 108.574 26.26 109.08 26.26C109.12 26.26 109.14 26.3 109.14 26.38C109.14 26.46 109.12 26.5 109.08 26.5C108.667 26.5 108.34 26.4933 108.1 26.48L106.72 26.46L105.36 26.48C105.12 26.4933 104.78 26.5 104.34 26.5C104.314 26.5 104.3 26.46 104.3 26.38C104.3 26.3 104.314 26.26 104.34 26.26C104.847 26.26 105.22 26.2267 105.46 26.16C105.7 26.08 105.867 25.9467 105.96 25.76C106.054 25.5733 106.1 25.28 106.1 24.88V15.62C106.1 15.22 106.054 14.9267 105.96 14.74C105.88 14.5533 105.72 14.4267 105.48 14.36C105.254 14.28 104.887 14.24 104.38 14.24C104.34 14.24 104.32 14.2 104.32 14.12C104.32 14.04 104.34 14 104.38 14L105.36 14.02C105.92 14.0467 106.374 14.06 106.72 14.06C106.96 14.06 107.187 14.0533 107.4 14.04C107.614 14.0267 107.8 14.0133 107.96 14C108.387 13.96 108.774 13.94 109.12 13.94C110.2 13.94 111.034 14.16 111.62 14.6C112.207 15.04 112.5 15.6533 112.5 16.44C112.5 17.08 112.314 17.6867 111.94 18.26C111.567 18.82 111.074 19.2667 110.46 19.6C111.594 21.2933 112.547 22.62 113.32 23.58C114.094 24.5267 114.78 25.2133 115.38 25.64C115.98 26.0533 116.567 26.26 117.14 26.26ZM107.38 19.62C107.714 19.6733 108.107 19.7 108.56 19.7C109.48 19.7 110.14 19.5067 110.54 19.12C110.94 18.72 111.14 18.06 111.14 17.14C111.14 15.2067 110.327 14.24 108.7 14.24C108.34 14.24 108.067 14.2733 107.88 14.34C107.707 14.3933 107.58 14.52 107.5 14.72C107.42 14.9067 107.38 15.22 107.38 15.66V19.62ZM130.918 26.26C130.971 26.26 130.998 26.3 130.998 26.38C130.998 26.46 130.971 26.5 130.918 26.5C130.664 26.5 130.271 26.4867 129.738 26.46C129.204 26.4333 128.818 26.42 128.578 26.42C128.284 26.42 127.911 26.4333 127.458 26.46C127.031 26.4867 126.704 26.5 126.478 26.5C126.424 26.5 126.398 26.46 126.398 26.38C126.398 26.3 126.424 26.26 126.478 26.26C126.971 26.26 127.331 26.2133 127.558 26.12C127.784 26.0267 127.898 25.8667 127.898 25.64C127.898 25.4533 127.811 25.1667 127.638 24.78L125.338 19.88H121.558L119.838 23.96C119.651 24.4133 119.558 24.7867 119.558 25.08C119.558 25.8667 120.211 26.26 121.518 26.26C121.584 26.26 121.618 26.3 121.618 26.38C121.618 26.46 121.584 26.5 121.518 26.5C121.278 26.5 120.931 26.4867 120.478 26.46C119.971 26.4333 119.531 26.42 119.158 26.42C118.811 26.42 118.411 26.4333 117.958 26.46C117.558 26.4867 117.224 26.5 116.958 26.5C116.891 26.5 116.857 26.46 116.857 26.38C116.857 26.3 116.891 26.26 116.958 26.26C117.331 26.26 117.644 26.1933 117.898 26.06C118.164 25.9133 118.411 25.6667 118.638 25.32C118.878 24.96 119.138 24.4467 119.418 23.78L123.638 13.82C123.664 13.78 123.711 13.76 123.778 13.76C123.844 13.76 123.884 13.78 123.898 13.82L128.618 23.76C129.071 24.7467 129.458 25.4133 129.778 25.76C130.098 26.0933 130.478 26.26 130.918 26.26ZM121.738 19.46H125.138L123.338 15.66L121.738 19.46Z" fill="black" fill-opacity="0.92"/>
</svg>
