<svg width="94" height="94" viewBox="0 0 94 94" fill="none" xmlns="http://www.w3.org/2000/svg">
<path d="M89.5 47C89.5 70.4721 70.4721 89.5 47 89.5C23.5279 89.5 4.5 70.4721 4.5 47C4.5 23.5279 23.5279 4.5 47 4.5C70.4721 4.5 89.5 23.5279 89.5 47Z" fill="#212121" fill-opacity="0.48" stroke="url(#paint0_linear_270_491)"/>
<path d="M47 11C27.1166 11 11 27.1166 11 47C11 66.8834 27.1166 83 47 83C66.8834 83 83 66.8834 83 47C83 27.1166 66.8834 11 47 11ZM47 80.8177C28.322 80.8177 13.1823 65.678 13.1823 47C13.1823 28.322 28.322 13.1823 47 13.1823C65.678 13.1823 80.8177 28.322 80.8177 47C80.8177 65.678 65.678 80.8177 47 80.8177Z" fill="url(#paint1_linear_270_491)"/>
<defs>
<linearGradient id="paint0_linear_270_491" x1="46.9999" y1="89.8544" x2="46.9999" y2="3.85216" gradientUnits="userSpaceOnUse">
<stop stop-color="#686B51"/>
<stop offset="0.1486" stop-color="#8D9944"/>
<stop offset="0.3943" stop-color="#B7C46A"/>
<stop offset="0.7047" stop-color="#D5E477"/>
<stop offset="1" stop-color="#CEE44A"/>
</linearGradient>
<linearGradient id="paint1_linear_270_491" x1="46.9999" y1="10.6394" x2="46.9999" y2="82.9341" gradientUnits="userSpaceOnUse">
<stop stop-color="#6C714E"/>
<stop offset="0.1486" stop-color="#9EAA53"/>
<stop offset="0.3943" stop-color="#B6C369"/>
<stop offset="0.7047" stop-color="#C9D872"/>
<stop offset="1" stop-color="#D3E46E"/>
</linearGradient>
</defs>
</svg>
