<svg width="360" height="323" viewBox="0 0 360 323" fill="none" xmlns="http://www.w3.org/2000/svg">
<g clip-path="url(#clip0_354_4581)">
<path d="M78.9473 68.5715L147.068 0.451172M132.18 140.977L93.1578 180M155.413 87.7444L196.241 46.9173M243.834 276.316L198.496 321.654M334.737 72.1805L372.857 34.0602" stroke="white" stroke-opacity="0.1" stroke-width="0.451128"/>
<circle cx="182.707" cy="172.331" r="146.842" stroke="white" stroke-opacity="0.4" stroke-width="0.451128"/>
<g filter="url(#filter0_f_354_4581)">
<circle cx="182.707" cy="172.331" r="147.068" stroke="url(#paint0_radial_354_4581)" stroke-width="4.96241"/>
</g>
<g filter="url(#filter1_f_354_4581)">
<circle cx="182.707" cy="172.331" r="147.068" stroke="url(#paint1_radial_354_4581)" stroke-width="4.96241"/>
</g>
<g filter="url(#filter2_f_354_4581)">
<circle cx="182.707" cy="172.331" r="147.068" stroke="url(#paint2_radial_354_4581)" stroke-width="4.96241"/>
</g>
<g filter="url(#filter3_f_354_4581)">
<circle cx="182.707" cy="172.331" r="147.068" stroke="url(#paint3_radial_354_4581)" stroke-width="4.96241"/>
</g>
<circle cx="182.707" cy="172.331" r="119.774" stroke="white" stroke-opacity="0.4" stroke-width="0.451128"/>
<circle cx="181.804" cy="174.135" r="59.7744" stroke="white" stroke-opacity="0.4" stroke-width="0.451128"/>
<g filter="url(#filter4_f_354_4581)">
<path d="M31.5789 167.368L184.485 157.809L186.289 179.914L31.5789 167.368Z" fill="url(#paint4_linear_354_4581)"/>
</g>
<path d="M35.6392 167.143L186.298 157.703L188.12 180L35.6392 167.143Z" fill="url(#paint5_linear_354_4581)"/>
<path d="M182.838 112.782L237.375 212.088H190.542M182.838 112.782L122.707 212.088H190.542M182.838 112.782L190.542 212.088" stroke="#CEE44A" stroke-width="1.39867" stroke-linejoin="round"/>
<g filter="url(#filter5_f_354_4581)">
<path d="M182.838 112.782L237.375 212.088H190.542M182.838 112.782L122.707 212.088H190.542M182.838 112.782L190.542 212.088" stroke="#CEE44A" stroke-width="1.39867" stroke-linejoin="round"/>
</g>
<g filter="url(#filter6_f_354_4581)">
<path d="M186.767 159.022L308.12 94.2856C308.12 94.2856 316.544 108.231 318.947 118.195C283.308 130.601 186.767 162.857 186.767 162.857V159.022Z" fill="url(#paint6_linear_354_4581)"/>
</g>
<g filter="url(#filter7_f_354_4581)">
<path d="M186.767 162.631L318.947 118.195C318.947 118.195 324.156 132.373 324.812 141.88C311.278 143.684 186.767 166.466 186.767 166.466V162.631Z" fill="url(#paint7_linear_354_4581)"/>
</g>
<g filter="url(#filter8_f_354_4581)">
<path d="M186.767 166.241C186.767 166.241 306.09 144.587 324.812 141.88C327.07 150.613 327.068 155.188 326.842 164.887C313.308 166.692 186.767 170.075 186.767 170.075V166.241Z" fill="url(#paint8_linear_354_4581)"/>
</g>
<g filter="url(#filter9_f_354_4581)">
<path d="M186.922 169.909C186.922 169.909 307.925 164.222 326.842 164.21C326.842 173.91 326.643 178.778 325.037 188.346C311.385 188.203 186.375 173.704 186.375 173.704L186.922 169.909Z" fill="url(#paint9_linear_354_4581)"/>
</g>
<g filter="url(#filter10_f_354_4581)">
<path d="M187.444 173.233C187.444 173.233 306.351 185.181 325.038 188.12C323.524 197.701 322.026 203.506 318.947 212.707C305.484 210.436 187.669 177.293 187.669 177.293L187.444 173.233Z" fill="url(#paint10_linear_354_4581)"/>
</g>
<g filter="url(#filter11_f_354_4581)">
<path d="M187.669 177.293C187.669 177.293 300.878 206.703 318.897 212.457C315.941 221.695 313.574 227.204 309.129 235.828C296.169 231.531 187.895 181.128 187.895 181.128L187.669 177.293Z" fill="url(#paint11_linear_354_4581)"/>
</g>
<g>
<rect x="94.5923" y="71.9766" width="44.0482" height="16.6278" rx="8.31389" fill="#35363D" fill-opacity="0.2"/>
<path d="M103.124 83.8793C102.775 83.8793 102.443 83.8201 102.13 83.7018C101.816 83.5775 101.538 83.3882 101.296 83.1338C101.053 82.8735 100.861 82.5451 100.719 82.1487C100.577 81.7523 100.506 81.279 100.506 80.7287V80.5512C100.506 80.0187 100.577 79.5602 100.719 79.1756C100.861 78.7911 101.053 78.4745 101.296 78.226C101.538 77.9775 101.816 77.7941 102.13 77.6758C102.443 77.5516 102.775 77.4894 103.124 77.4894C103.461 77.4894 103.769 77.5338 104.047 77.6226C104.331 77.7113 104.579 77.8385 104.792 78.0042C105.005 78.1698 105.177 78.374 105.307 78.6165C105.443 78.8591 105.529 79.1342 105.564 79.4419H104.677C104.594 79.0396 104.42 78.7378 104.153 78.5367C103.887 78.3355 103.544 78.2349 103.124 78.2349C102.905 78.2349 102.692 78.2763 102.485 78.3592C102.278 78.442 102.091 78.5751 101.926 78.7585C101.766 78.936 101.636 79.1727 101.535 79.4685C101.441 79.7643 101.393 80.1252 101.393 80.5512V80.7287C101.393 81.1784 101.447 81.557 101.553 81.8647C101.66 82.1664 101.796 82.412 101.961 82.6013C102.127 82.7906 102.313 82.9267 102.52 83.0095C102.727 83.0924 102.929 83.1338 103.124 83.1338C103.585 83.1338 103.946 83.0214 104.207 82.7966C104.467 82.5717 104.624 82.2818 104.677 81.9268H105.564C105.517 82.27 105.422 82.5658 105.28 82.8143C105.138 83.0569 104.958 83.258 104.739 83.4178C104.526 83.5775 104.281 83.6959 104.002 83.7728C103.73 83.8438 103.437 83.8793 103.124 83.8793ZM108.757 83.8793C108.455 83.8793 108.168 83.8319 107.896 83.7373C107.624 83.6367 107.384 83.4888 107.177 83.2935C106.97 83.0924 106.804 82.8409 106.68 82.5392C106.556 82.2374 106.493 81.8854 106.493 81.4831V81.3056C106.493 80.9269 106.556 80.5926 106.68 80.3027C106.804 80.0128 106.97 79.7732 107.177 79.5839C107.384 79.3886 107.624 79.2437 107.896 79.149C108.168 79.0484 108.455 78.9981 108.757 78.9981C109.058 78.9981 109.345 79.0484 109.617 79.149C109.89 79.2437 110.129 79.3886 110.336 79.5839C110.543 79.7732 110.709 80.0128 110.833 80.3027C110.958 80.5926 111.02 80.9269 111.02 81.3056V81.4831C111.02 81.8854 110.958 82.2374 110.833 82.5392C110.709 82.8409 110.543 83.0924 110.336 83.2935C110.129 83.4888 109.89 83.6367 109.617 83.7373C109.345 83.8319 109.058 83.8793 108.757 83.8793ZM108.757 83.1693C108.934 83.1693 109.112 83.1397 109.289 83.0805C109.467 83.0155 109.623 82.9178 109.759 82.7877C109.895 82.6516 110.005 82.4771 110.088 82.2641C110.177 82.0511 110.221 81.7907 110.221 81.4831V81.3056C110.221 81.0216 110.177 80.779 110.088 80.5779C110.005 80.3767 109.895 80.211 109.759 80.0809C109.623 79.9507 109.467 79.856 109.289 79.7969C109.112 79.7377 108.934 79.7081 108.757 79.7081C108.579 79.7081 108.402 79.7377 108.224 79.7969C108.047 79.856 107.89 79.9507 107.754 80.0809C107.618 80.211 107.505 80.3767 107.416 80.5779C107.334 80.779 107.292 81.0216 107.292 81.3056V81.4831C107.292 81.7907 107.334 82.0511 107.416 82.2641C107.505 82.4771 107.618 82.6516 107.754 82.7877C107.89 82.9178 108.047 83.0155 108.224 83.0805C108.402 83.1397 108.579 83.1693 108.757 83.1693ZM112.303 79.0869H113.084V83.7905H112.303V79.0869ZM112.693 78.4657C112.54 78.4657 112.412 78.4154 112.312 78.3148C112.211 78.2142 112.161 78.087 112.161 77.9332C112.161 77.7793 112.211 77.6521 112.312 77.5516C112.412 77.451 112.54 77.4007 112.693 77.4007C112.847 77.4007 112.975 77.451 113.075 77.5516C113.176 77.6521 113.226 77.7793 113.226 77.9332C113.226 78.087 113.176 78.2142 113.075 78.3148C112.975 78.4154 112.847 78.4657 112.693 78.4657ZM114.678 79.0869H115.405V79.9744C115.459 79.8442 115.533 79.72 115.627 79.6016C115.722 79.4833 115.834 79.3798 115.965 79.291C116.101 79.2023 116.254 79.1313 116.426 79.078C116.604 79.0248 116.799 78.9981 117.012 78.9981C117.603 78.9981 118.041 79.1579 118.325 79.4774C118.615 79.791 118.76 80.2524 118.76 80.8619V83.7905H117.979V81.0393C117.979 80.6015 117.887 80.2702 117.704 80.0454C117.521 79.8205 117.213 79.7081 116.781 79.7081C116.55 79.7081 116.349 79.7466 116.178 79.8235C116.012 79.9004 115.876 80.001 115.769 80.1252C115.663 80.2495 115.583 80.3915 115.53 80.5512C115.482 80.711 115.459 80.8737 115.459 81.0393V83.7905H114.678V79.0869ZM121.646 83.8349C121.155 83.8349 120.803 83.7166 120.59 83.4799C120.377 83.2432 120.271 82.8587 120.271 82.3262V77.5782H121.052V82.3262C121.052 82.6338 121.102 82.8439 121.203 82.9563C121.303 83.0687 121.481 83.1249 121.735 83.1249C121.8 83.1249 121.857 83.1249 121.904 83.1249C121.951 83.119 121.999 83.1131 122.046 83.1072V83.7994C121.999 83.8112 121.93 83.8201 121.842 83.826C121.759 83.8319 121.694 83.8349 121.646 83.8349ZM123.247 79.0869H124.028V83.7905H123.247V79.0869ZM123.637 78.4657C123.483 78.4657 123.356 78.4154 123.256 78.3148C123.155 78.2142 123.105 78.087 123.105 77.9332C123.105 77.7793 123.155 77.6521 123.256 77.5516C123.356 77.451 123.483 77.4007 123.637 77.4007C123.791 77.4007 123.918 77.451 124.019 77.5516C124.119 77.6521 124.17 77.7793 124.17 77.9332C124.17 78.087 124.119 78.2142 124.019 78.3148C123.918 78.4154 123.791 78.4657 123.637 78.4657ZM127.263 83.8793C126.95 83.8793 126.678 83.8438 126.447 83.7728C126.222 83.6959 126.03 83.5953 125.87 83.471C125.71 83.3468 125.586 83.2018 125.497 83.0362C125.408 82.8705 125.346 82.693 125.311 82.5037H126.092C126.133 82.693 126.243 82.8587 126.42 83.0007C126.604 83.1368 126.885 83.2048 127.263 83.2048C127.482 83.2048 127.666 83.187 127.813 83.1515C127.961 83.1101 128.08 83.0598 128.168 83.0007C128.263 82.9356 128.331 82.8616 128.373 82.7788C128.414 82.6901 128.435 82.5983 128.435 82.5037C128.435 82.4031 128.414 82.3144 128.373 82.2374C128.337 82.1605 128.269 82.0925 128.168 82.0333C128.074 81.9682 127.941 81.912 127.769 81.8647C127.603 81.8115 127.393 81.7671 127.139 81.7316C126.879 81.6961 126.642 81.6458 126.429 81.5807C126.222 81.5097 126.044 81.418 125.897 81.3056C125.755 81.1932 125.642 81.0601 125.559 80.9062C125.482 80.7465 125.444 80.5542 125.444 80.3294C125.444 80.1519 125.482 79.9832 125.559 79.8235C125.636 79.6638 125.752 79.5218 125.905 79.3975C126.059 79.2733 126.249 79.1756 126.473 79.1046C126.698 79.0336 126.961 78.9981 127.263 78.9981C127.541 78.9981 127.784 79.0366 127.991 79.1135C128.198 79.1845 128.373 79.2821 128.515 79.4064C128.662 79.5306 128.778 79.6756 128.861 79.8413C128.944 80.0069 129.003 80.1844 129.038 80.3737H128.257C128.21 80.1667 128.109 79.998 127.955 79.8679C127.802 79.7377 127.571 79.6726 127.263 79.6726C126.879 79.6726 126.609 79.7377 126.456 79.8679C126.302 79.9921 126.225 80.146 126.225 80.3294C126.225 80.4359 126.243 80.5276 126.278 80.6045C126.32 80.6814 126.385 80.7494 126.473 80.8086C126.568 80.8678 126.689 80.9181 126.837 80.9595C126.991 80.995 127.18 81.0275 127.405 81.0571C127.695 81.0926 127.953 81.1458 128.177 81.2168C128.402 81.2819 128.591 81.3736 128.745 81.492C128.899 81.6044 129.015 81.7434 129.091 81.9091C129.174 82.0747 129.216 82.2729 129.216 82.5037C129.216 82.693 129.174 82.8705 129.091 83.0362C129.015 83.2018 128.896 83.3468 128.736 83.471C128.577 83.5953 128.373 83.6959 128.124 83.7728C127.882 83.8438 127.595 83.8793 127.263 83.8793ZM132.147 83.8349C131.644 83.8349 131.28 83.7225 131.055 83.4977C130.836 83.2669 130.727 82.9208 130.727 82.4593V79.7791H130.017V79.0869H130.727V78.0219H131.508V79.0869H132.768V79.7791H131.508V82.3706C131.508 82.6368 131.564 82.8291 131.676 82.9474C131.789 83.0658 132.005 83.1249 132.324 83.1249C132.502 83.1249 132.679 83.116 132.857 83.0983V83.7905C132.744 83.8024 132.632 83.8112 132.52 83.8172C132.407 83.829 132.283 83.8349 132.147 83.8349Z" fill="white" fill-opacity="0.8"/>
<rect x="94.8178" y="72.2021" width="43.5971" height="16.1766" rx="8.08832" stroke="white" stroke-opacity="0.4" stroke-width="0.451128"/>
</g>
<g>
<rect x="233.233" y="37.6484" width="57.7444" height="16.6278" rx="8.31389" fill="#35363D" fill-opacity="0.2"/>
<path d="M241.245 43.2501H243.064C243.532 43.2501 243.949 43.3151 244.315 43.4453C244.682 43.5696 244.993 43.7559 245.247 44.0044C245.502 44.2529 245.697 44.5635 245.833 44.9363C245.969 45.309 246.037 45.738 246.037 46.2231V46.4006C246.037 46.8976 245.966 47.3384 245.824 47.7229C245.688 48.1016 245.487 48.4211 245.221 48.6814C244.96 48.9358 244.641 49.1311 244.262 49.2672C243.884 49.3973 243.455 49.4624 242.975 49.4624H241.245V43.2501ZM242.887 48.7347C243.236 48.7347 243.549 48.6903 243.827 48.6015C244.111 48.5128 244.351 48.3767 244.546 48.1933C244.741 48.004 244.889 47.7614 244.99 47.4656C245.096 47.1698 245.15 46.8148 245.15 46.4006V46.2231C245.15 45.8267 245.099 45.4865 244.999 45.2025C244.898 44.9185 244.753 44.6878 244.564 44.5103C244.375 44.3269 244.144 44.1937 243.872 44.1109C243.606 44.0222 243.307 43.9778 242.975 43.9778H242.079V48.7347H242.887ZM248.71 49.5512C248.45 49.5512 248.219 49.5157 248.018 49.4447C247.823 49.3677 247.657 49.2642 247.521 49.134C247.385 49.0039 247.281 48.85 247.21 48.6725C247.139 48.4951 247.104 48.2998 247.104 48.0868C247.104 47.6194 247.24 47.2822 247.512 47.0751C247.79 46.868 248.187 46.7645 248.701 46.7645H250.228V46.445C250.228 46.0427 250.136 45.7646 249.953 45.6107C249.775 45.4569 249.506 45.38 249.145 45.38C248.808 45.38 248.562 45.4451 248.408 45.5753C248.255 45.6995 248.169 45.8415 248.151 46.0012H247.37C247.382 45.8119 247.432 45.6374 247.521 45.4776C247.616 45.312 247.74 45.17 247.894 45.0516C248.054 44.9333 248.243 44.8416 248.462 44.7765C248.681 44.7055 248.923 44.67 249.189 44.67C249.746 44.67 250.186 44.8031 250.512 45.0694C250.843 45.3297 251.009 45.7587 251.009 46.3562V48.2643C251.009 48.5128 251.009 48.7317 251.009 48.921C251.015 49.1045 251.03 49.2849 251.053 49.4624H250.37C250.352 49.3263 250.34 49.1991 250.334 49.0808C250.328 48.9565 250.325 48.8175 250.325 48.6637C250.201 48.9122 250 49.1222 249.722 49.2938C249.444 49.4654 249.107 49.5512 248.71 49.5512ZM248.879 48.8412C249.062 48.8412 249.234 48.8175 249.394 48.7702C249.559 48.7169 249.704 48.643 249.828 48.5483C249.953 48.4477 250.05 48.3264 250.121 48.1844C250.192 48.0424 250.228 47.8768 250.228 47.6874V47.368H248.834C248.545 47.368 248.317 47.4271 248.151 47.5455C247.985 47.6579 247.903 47.8383 247.903 48.0868C247.903 48.3057 247.98 48.4862 248.133 48.6282C248.293 48.7702 248.542 48.8412 248.879 48.8412ZM254.429 49.5512C254.128 49.5512 253.841 49.5038 253.569 49.4092C253.296 49.3086 253.057 49.1607 252.85 48.9654C252.643 48.7643 252.477 48.5128 252.353 48.2111C252.228 47.9093 252.166 47.5573 252.166 47.155V46.9775C252.166 46.5988 252.228 46.2645 252.353 45.9746C252.477 45.6847 252.643 45.4451 252.85 45.2558C253.057 45.0605 253.296 44.9156 253.569 44.8209C253.841 44.7203 254.128 44.67 254.429 44.67C254.731 44.67 255.018 44.7203 255.29 44.8209C255.562 44.9156 255.802 45.0605 256.009 45.2558C256.216 45.4451 256.382 45.6847 256.506 45.9746C256.63 46.2645 256.692 46.5988 256.692 46.9775V47.155C256.692 47.5573 256.63 47.9093 256.506 48.2111C256.382 48.5128 256.216 48.7643 256.009 48.9654C255.802 49.1607 255.562 49.3086 255.29 49.4092C255.018 49.5038 254.731 49.5512 254.429 49.5512ZM254.429 48.8412C254.607 48.8412 254.784 48.8116 254.962 48.7524C255.139 48.6873 255.296 48.5897 255.432 48.4596C255.568 48.3235 255.678 48.1489 255.761 47.9359C255.849 47.7229 255.894 47.4626 255.894 47.155V46.9775C255.894 46.6935 255.849 46.4509 255.761 46.2497C255.678 46.0486 255.568 45.8829 255.432 45.7527C255.296 45.6226 255.139 45.5279 254.962 45.4688C254.784 45.4096 254.607 45.38 254.429 45.38C254.252 45.38 254.074 45.4096 253.897 45.4688C253.719 45.5279 253.563 45.6226 253.427 45.7527C253.29 45.8829 253.178 46.0486 253.089 46.2497C253.006 46.4509 252.965 46.6935 252.965 46.9775V47.155C252.965 47.4626 253.006 47.7229 253.089 47.9359C253.178 48.1489 253.29 48.3235 253.427 48.4596C253.563 48.5897 253.719 48.6873 253.897 48.7524C254.074 48.8116 254.252 48.8412 254.429 48.8412ZM257.887 44.7588H258.615V45.6462C258.715 45.3563 258.887 45.1226 259.13 44.9451C259.378 44.7617 259.659 44.67 259.973 44.67C260.381 44.67 260.694 44.7588 260.913 44.9363C261.132 45.1078 261.283 45.3297 261.366 45.6019C261.52 45.312 261.715 45.0842 261.952 44.9185C262.194 44.7529 262.484 44.67 262.821 44.67C263.307 44.67 263.685 44.8179 263.957 45.1138C264.23 45.4037 264.366 45.8622 264.366 46.4894V49.4624H263.585V46.6668C263.585 46.1994 263.502 45.8681 263.336 45.6729C263.176 45.4776 262.931 45.38 262.6 45.38C262.458 45.38 262.322 45.4096 262.191 45.4688C262.061 45.5279 261.946 45.6137 261.845 45.7261C261.745 45.8385 261.665 45.9746 261.606 46.1344C261.546 46.2941 261.517 46.4716 261.517 46.6668V49.4624H260.736V46.6668C260.736 46.1994 260.653 45.8681 260.487 45.6729C260.322 45.4776 260.076 45.38 259.751 45.38C259.609 45.38 259.473 45.4096 259.343 45.4688C259.212 45.5279 259.097 45.6137 258.996 45.7261C258.896 45.8385 258.816 45.9746 258.757 46.1344C258.698 46.2941 258.668 46.4716 258.668 46.6668V49.4624H257.887V44.7588ZM267.168 49.5512C266.908 49.5512 266.677 49.5157 266.476 49.4447C266.281 49.3677 266.115 49.2642 265.979 49.134C265.843 49.0039 265.739 48.85 265.668 48.6725C265.597 48.4951 265.562 48.2998 265.562 48.0868C265.562 47.6194 265.698 47.2822 265.97 47.0751C266.248 46.868 266.644 46.7645 267.159 46.7645H268.686V46.445C268.686 46.0427 268.594 45.7646 268.411 45.6107C268.233 45.4569 267.964 45.38 267.603 45.38C267.266 45.38 267.02 45.4451 266.866 45.5753C266.712 45.6995 266.627 45.8415 266.609 46.0012H265.828C265.84 45.8119 265.89 45.6374 265.979 45.4776C266.073 45.312 266.198 45.17 266.352 45.0516C266.511 44.9333 266.701 44.8416 266.92 44.7765C267.138 44.7055 267.381 44.67 267.647 44.67C268.203 44.67 268.644 44.8031 268.97 45.0694C269.301 45.3297 269.467 45.7587 269.467 46.3562V48.2643C269.467 48.5128 269.467 48.7317 269.467 48.921C269.473 49.1045 269.487 49.2849 269.511 49.4624H268.828C268.81 49.3263 268.798 49.1991 268.792 49.0808C268.786 48.9565 268.783 48.8175 268.783 48.6637C268.659 48.9122 268.458 49.1222 268.18 49.2938C267.902 49.4654 267.564 49.5512 267.168 49.5512ZM267.337 48.8412C267.52 48.8412 267.692 48.8175 267.851 48.7702C268.017 48.7169 268.162 48.643 268.286 48.5483C268.411 48.4477 268.508 48.3264 268.579 48.1844C268.65 48.0424 268.686 47.8768 268.686 47.6874V47.368H267.292C267.002 47.368 266.775 47.4271 266.609 47.5455C266.443 47.6579 266.36 47.8383 266.36 48.0868C266.36 48.3057 266.437 48.4862 266.591 48.6282C266.751 48.7702 266.999 48.8412 267.337 48.8412ZM270.935 43.2501H271.716V46.9242L273.881 44.7588H274.84L272.887 46.7023L275.017 49.4624H274.023L272.328 47.2437L271.716 47.8206V49.4624H270.935V43.2501ZM277.821 49.5512C277.519 49.5512 277.232 49.5038 276.96 49.4092C276.688 49.3145 276.448 49.1695 276.241 48.9743C276.034 48.7731 275.868 48.5217 275.744 48.2199C275.62 47.9182 275.558 47.5632 275.558 47.155V46.9775C275.558 46.587 275.617 46.2497 275.735 45.9657C275.853 45.6758 276.01 45.4362 276.205 45.2469C276.407 45.0516 276.637 44.9067 276.898 44.812C277.164 44.7174 277.442 44.67 277.732 44.67C278.424 44.67 278.96 44.8594 279.338 45.238C279.717 45.6167 279.906 46.1521 279.906 46.8443V47.3413H276.339C276.339 47.6194 276.383 47.8531 276.472 48.0424C276.56 48.2318 276.676 48.3856 276.818 48.5039C276.96 48.6223 277.117 48.708 277.288 48.7613C277.466 48.8145 277.643 48.8412 277.821 48.8412C278.176 48.8412 278.448 48.782 278.637 48.6637C278.832 48.5453 278.971 48.3826 279.054 48.1756H279.818C279.77 48.4004 279.684 48.5986 279.56 48.7702C279.442 48.9417 279.294 49.0867 279.116 49.205C278.945 49.3174 278.747 49.4032 278.522 49.4624C278.303 49.5216 278.069 49.5512 277.821 49.5512ZM277.776 45.38C277.593 45.38 277.415 45.4066 277.244 45.4599C277.072 45.5072 276.918 45.5871 276.782 45.6995C276.652 45.806 276.546 45.9421 276.463 46.1077C276.38 46.2734 276.339 46.4716 276.339 46.7023H279.17C279.164 46.4598 279.122 46.2556 279.045 46.09C278.974 45.9184 278.877 45.7823 278.753 45.6817C278.628 45.5753 278.48 45.4983 278.309 45.451C278.143 45.4037 277.966 45.38 277.776 45.38ZM281.105 44.7588H281.833V45.6462C281.933 45.3682 282.099 45.1374 282.33 44.954C282.566 44.7647 282.853 44.67 283.191 44.67C283.309 44.67 283.404 44.6759 283.475 44.6878C283.552 44.6996 283.62 44.7144 283.679 44.7321V45.4599C283.602 45.4303 283.525 45.4096 283.448 45.3978C283.377 45.3859 283.276 45.38 283.146 45.38C282.969 45.38 282.803 45.4125 282.649 45.4776C282.495 45.5427 282.362 45.6344 282.25 45.7527C282.137 45.8652 282.049 46.0042 281.984 46.1699C281.919 46.3355 281.886 46.516 281.886 46.7112V49.4624H281.105V44.7588Z" fill="white" fill-opacity="0.8"/>
<rect x="233.459" y="37.874" width="57.2932" height="16.1766" rx="8.08832" stroke="white" stroke-opacity="0.4" stroke-width="0.451128"/>
</g>
<g>
<rect x="13.0828" y="217.197" width="65.8647" height="16.6278" rx="8.31389" fill="#35363D" fill-opacity="0.2"/>
<path d="M19.9592 222.799H22.0891C22.4974 222.799 22.8524 222.846 23.1541 222.941C23.4558 223.036 23.7043 223.169 23.8996 223.34C24.1007 223.506 24.2487 223.707 24.3433 223.944C24.438 224.174 24.4853 224.429 24.4853 224.707C24.4853 224.985 24.438 225.242 24.3433 225.479C24.2487 225.71 24.1007 225.911 23.8996 226.083C23.7043 226.248 23.4558 226.378 23.1541 226.473C22.8524 226.568 22.4974 226.615 22.0891 226.615H20.7934V229.011H19.9592V222.799ZM22.0447 225.887C22.3406 225.887 22.5891 225.861 22.7902 225.807C22.9973 225.748 23.163 225.668 23.2872 225.568C23.4174 225.467 23.5091 225.343 23.5623 225.195C23.6215 225.047 23.6511 224.884 23.6511 224.707C23.6511 224.529 23.6215 224.367 23.5623 224.219C23.5091 224.071 23.4174 223.947 23.2872 223.846C23.163 223.746 22.9973 223.669 22.7902 223.615C22.5891 223.556 22.3406 223.527 22.0447 223.527H20.7934V225.887H22.0447ZM27.5516 229.1C27.2499 229.1 26.9629 229.053 26.6908 228.958C26.4186 228.857 26.179 228.709 25.9719 228.514C25.7648 228.313 25.5992 228.062 25.4749 227.76C25.3507 227.458 25.2885 227.106 25.2885 226.704V226.526C25.2885 226.148 25.3507 225.813 25.4749 225.523C25.5992 225.234 25.7648 224.994 25.9719 224.805C26.179 224.609 26.4186 224.464 26.6908 224.37C26.9629 224.269 27.2499 224.219 27.5516 224.219C27.8534 224.219 28.1403 224.269 28.4125 224.37C28.6846 224.464 28.9242 224.609 29.1313 224.805C29.3384 224.994 29.5041 225.234 29.6283 225.523C29.7526 225.813 29.8147 226.148 29.8147 226.526V226.704C29.8147 227.106 29.7526 227.458 29.6283 227.76C29.5041 228.062 29.3384 228.313 29.1313 228.514C28.9242 228.709 28.6846 228.857 28.4125 228.958C28.1403 229.053 27.8534 229.1 27.5516 229.1ZM27.5516 228.39C27.7291 228.39 27.9066 228.36 28.0841 228.301C28.2616 228.236 28.4184 228.139 28.5545 228.008C28.6905 227.872 28.8 227.698 28.8828 227.485C28.9716 227.272 29.016 227.011 29.016 226.704V226.526C29.016 226.242 28.9716 226 28.8828 225.799C28.8 225.597 28.6905 225.432 28.5545 225.302C28.4184 225.171 28.2616 225.077 28.0841 225.018C27.9066 224.958 27.7291 224.929 27.5516 224.929C27.3741 224.929 27.1966 224.958 27.0191 225.018C26.8416 225.077 26.6848 225.171 26.5488 225.302C26.4127 225.432 26.3003 225.597 26.2115 225.799C26.1287 226 26.0873 226.242 26.0873 226.526V226.704C26.0873 227.011 26.1287 227.272 26.2115 227.485C26.3003 227.698 26.4127 227.872 26.5488 228.008C26.6848 228.139 26.8416 228.236 27.0191 228.301C27.1966 228.36 27.3741 228.39 27.5516 228.39ZM32.4293 229.056C31.9382 229.056 31.5862 228.937 31.3732 228.701C31.1602 228.464 31.0537 228.079 31.0537 227.547V222.799H31.8347V227.547C31.8347 227.855 31.885 228.065 31.9855 228.177C32.0861 228.289 32.2636 228.346 32.518 228.346C32.5831 228.346 32.6393 228.346 32.6866 228.346C32.734 228.34 32.7813 228.334 32.8286 228.328V229.02C32.7813 229.032 32.7133 229.041 32.6245 229.047C32.5417 229.053 32.4766 229.056 32.4293 229.056ZM33.9408 222.799H34.7217V226.473L36.8872 224.308H37.8457L35.8932 226.251L38.0232 229.011H37.0292L35.3341 226.793L34.7217 227.369V229.011H33.9408V222.799ZM40.301 229.1C40.0407 229.1 39.8099 229.064 39.6088 228.993C39.4135 228.917 39.2479 228.813 39.1118 228.683C38.9757 228.553 38.8722 228.399 38.8012 228.221C38.7302 228.044 38.6947 227.849 38.6947 227.636C38.6947 227.168 38.8307 226.831 39.1029 226.624C39.381 226.417 39.7774 226.313 40.2921 226.313H41.8186V225.994C41.8186 225.591 41.7269 225.313 41.5435 225.16C41.366 225.006 41.0968 224.929 40.7359 224.929C40.3986 224.929 40.1531 224.994 39.9993 225.124C39.8454 225.248 39.7596 225.39 39.7419 225.55H38.9609C38.9727 225.361 39.023 225.186 39.1118 225.026C39.2064 224.861 39.3307 224.719 39.4845 224.6C39.6443 224.482 39.8336 224.39 40.0525 224.325C40.2714 224.254 40.514 224.219 40.7802 224.219C41.3364 224.219 41.7772 224.352 42.1026 224.618C42.4339 224.879 42.5996 225.307 42.5996 225.905V227.813C42.5996 228.062 42.5996 228.281 42.5996 228.47C42.6055 228.653 42.6203 228.834 42.6439 229.011H41.9606C41.9428 228.875 41.931 228.748 41.9251 228.63C41.9192 228.505 41.9162 228.366 41.9162 228.213C41.792 228.461 41.5908 228.671 41.3127 228.843C41.0346 229.014 40.6974 229.1 40.301 229.1ZM40.4696 228.39C40.653 228.39 40.8246 228.366 40.9844 228.319C41.15 228.266 41.295 228.192 41.4192 228.097C41.5435 227.997 41.6411 227.875 41.7121 227.733C41.7831 227.591 41.8186 227.426 41.8186 227.236V226.917H40.4252C40.1353 226.917 39.9075 226.976 39.7419 227.094C39.5762 227.207 39.4934 227.387 39.4934 227.636C39.4934 227.855 39.5703 228.035 39.7241 228.177C39.8839 228.319 40.1324 228.39 40.4696 228.39ZM45.7095 229.1C45.396 229.1 45.1238 229.064 44.8931 228.993C44.6682 228.917 44.476 228.816 44.3162 228.692C44.1565 228.567 44.0322 228.423 43.9435 228.257C43.8547 228.091 43.7926 227.914 43.7571 227.724H44.5381C44.5795 227.914 44.6889 228.079 44.8664 228.221C45.0499 228.357 45.3309 228.425 45.7095 228.425C45.9285 228.425 46.1119 228.408 46.2598 228.372C46.4077 228.331 46.526 228.281 46.6148 228.221C46.7094 228.156 46.7775 228.082 46.8189 228C46.8603 227.911 46.881 227.819 46.881 227.724C46.881 227.624 46.8603 227.535 46.8189 227.458C46.7834 227.381 46.7154 227.313 46.6148 227.254C46.5201 227.189 46.387 227.133 46.2154 227.085C46.0497 227.032 45.8397 226.988 45.5853 226.952C45.325 226.917 45.0883 226.866 44.8753 226.801C44.6682 226.73 44.4907 226.639 44.3428 226.526C44.2008 226.414 44.0884 226.281 44.0056 226.127C43.9287 225.967 43.8902 225.775 43.8902 225.55C43.8902 225.373 43.9287 225.204 44.0056 225.044C44.0825 224.884 44.1979 224.742 44.3517 224.618C44.5055 224.494 44.6949 224.396 44.9197 224.325C45.1445 224.254 45.4078 224.219 45.7095 224.219C45.9876 224.219 46.2302 224.257 46.4373 224.334C46.6444 224.405 46.8189 224.503 46.9609 224.627C47.1088 224.751 47.2242 224.896 47.307 225.062C47.3898 225.228 47.449 225.405 47.4845 225.594H46.7035C46.6562 225.387 46.5556 225.219 46.4018 225.089C46.2479 224.958 46.0172 224.893 45.7095 224.893C45.325 224.893 45.0558 224.958 44.9019 225.089C44.7481 225.213 44.6712 225.367 44.6712 225.55C44.6712 225.657 44.6889 225.748 44.7244 225.825C44.7659 225.902 44.8309 225.97 44.9197 226.029C45.0144 226.088 45.1356 226.139 45.2836 226.18C45.4374 226.216 45.6267 226.248 45.8515 226.278C46.1415 226.313 46.3988 226.367 46.6236 226.438C46.8485 226.503 47.0378 226.594 47.1916 226.713C47.3455 226.825 47.4608 226.964 47.5378 227.13C47.6206 227.295 47.662 227.494 47.662 227.724C47.662 227.914 47.6206 228.091 47.5378 228.257C47.4608 228.423 47.3425 228.567 47.1828 228.692C47.023 228.816 46.8189 228.917 46.5704 228.993C46.3278 229.064 46.0409 229.1 45.7095 229.1ZM50.5931 229.056C50.0902 229.056 49.7263 228.943 49.5015 228.718C49.2826 228.488 49.1731 228.142 49.1731 227.68V225H48.4632V224.308H49.1731V223.243H49.9541V224.308H51.2143V225H49.9541V227.591C49.9541 227.858 50.0103 228.05 50.1227 228.168C50.2352 228.286 50.4511 228.346 50.7706 228.346C50.9481 228.346 51.1256 228.337 51.3031 228.319V229.011C51.1907 229.023 51.0783 229.032 50.9658 229.038C50.8534 229.05 50.7292 229.056 50.5931 229.056ZM53.8447 229.1C53.5844 229.1 53.3537 229.064 53.1525 228.993C52.9573 228.917 52.7916 228.813 52.6555 228.683C52.5194 228.553 52.4159 228.399 52.3449 228.221C52.2739 228.044 52.2384 227.849 52.2384 227.636C52.2384 227.168 52.3745 226.831 52.6466 226.624C52.9247 226.417 53.3211 226.313 53.8359 226.313H55.3623V225.994C55.3623 225.591 55.2706 225.313 55.0872 225.16C54.9097 225.006 54.6405 224.929 54.2796 224.929C53.9424 224.929 53.6968 224.994 53.543 225.124C53.3892 225.248 53.3034 225.39 53.2856 225.55H52.5046C52.5165 225.361 52.5668 225.186 52.6555 225.026C52.7502 224.861 52.8744 224.719 53.0283 224.6C53.188 224.482 53.3773 224.39 53.5962 224.325C53.8152 224.254 54.0577 224.219 54.324 224.219C54.8801 224.219 55.3209 224.352 55.6463 224.618C55.9776 224.879 56.1433 225.307 56.1433 225.905V227.813C56.1433 228.062 56.1433 228.281 56.1433 228.47C56.1492 228.653 56.164 228.834 56.1877 229.011H55.5043C55.4866 228.875 55.4747 228.748 55.4688 228.63C55.4629 228.505 55.4599 228.366 55.4599 228.213C55.3357 228.461 55.1345 228.671 54.8565 228.843C54.5784 229.014 54.2411 229.1 53.8447 229.1ZM54.0134 228.39C54.1968 228.39 54.3683 228.366 54.5281 228.319C54.6938 228.266 54.8387 228.192 54.963 228.097C55.0872 227.997 55.1848 227.875 55.2558 227.733C55.3268 227.591 55.3623 227.426 55.3623 227.236V226.917H53.969C53.6791 226.917 53.4513 226.976 53.2856 227.094C53.12 227.207 53.0371 227.387 53.0371 227.636C53.0371 227.855 53.114 228.035 53.2679 228.177C53.4276 228.319 53.6761 228.39 54.0134 228.39ZM57.6115 224.308H58.3392V225.195C58.4398 224.917 58.6054 224.686 58.8362 224.503C59.0728 224.314 59.3598 224.219 59.697 224.219C59.8154 224.219 59.91 224.225 59.981 224.237C60.0579 224.248 60.126 224.263 60.1851 224.281V225.009C60.1082 224.979 60.0313 224.958 59.9544 224.947C59.8834 224.935 59.7828 224.929 59.6527 224.929C59.4752 224.929 59.3095 224.961 59.1557 225.026C59.0018 225.092 58.8687 225.183 58.7563 225.302C58.6439 225.414 58.5551 225.553 58.4901 225.719C58.425 225.884 58.3924 226.065 58.3924 226.26V229.011H57.6115V224.308ZM63.0622 229.056C62.5593 229.056 62.1954 228.943 61.9706 228.718C61.7517 228.488 61.6422 228.142 61.6422 227.68V225H60.9322V224.308H61.6422V223.243H62.4232V224.308H63.6834V225H62.4232V227.591C62.4232 227.858 62.4794 228.05 62.5918 228.168C62.7042 228.286 62.9202 228.346 63.2397 228.346C63.4172 228.346 63.5946 228.337 63.7721 228.319V229.011C63.6597 229.023 63.5473 229.032 63.4349 229.038C63.3225 229.05 63.1982 229.056 63.0622 229.056ZM66.9262 229.1C66.6244 229.1 66.3375 229.053 66.0653 228.958C65.7931 228.863 65.5535 228.718 65.3464 228.523C65.1394 228.322 64.9737 228.071 64.8495 227.769C64.7252 227.467 64.6631 227.112 64.6631 226.704V226.526C64.6631 226.136 64.7223 225.799 64.8406 225.515C64.9589 225.225 65.1157 224.985 65.3109 224.796C65.5121 224.6 65.7429 224.456 66.0032 224.361C66.2694 224.266 66.5475 224.219 66.8374 224.219C67.5296 224.219 68.0651 224.408 68.4437 224.787C68.8224 225.165 69.0117 225.701 69.0117 226.393V226.89H65.4441C65.4441 227.168 65.4884 227.402 65.5772 227.591C65.6659 227.781 65.7813 227.934 65.9233 228.053C66.0653 228.171 66.2221 228.257 66.3937 228.31C66.5712 228.363 66.7487 228.39 66.9262 228.39C67.2811 228.39 67.5533 228.331 67.7426 228.213C67.9379 228.094 68.0769 227.931 68.1598 227.724H68.923C68.8757 227.949 68.7899 228.147 68.6656 228.319C68.5473 228.491 68.3994 228.636 68.2219 228.754C68.0503 228.866 67.8521 228.952 67.6273 229.011C67.4084 229.07 67.1747 229.1 66.9262 229.1ZM66.8818 224.929C66.6984 224.929 66.5209 224.955 66.3493 225.009C66.1777 225.056 66.0239 225.136 65.8878 225.248C65.7576 225.355 65.6511 225.491 65.5683 225.657C65.4855 225.822 65.4441 226.02 65.4441 226.251H68.2751C68.2692 226.009 68.2278 225.804 68.1509 225.639C68.0799 225.467 67.9823 225.331 67.858 225.231C67.7338 225.124 67.5858 225.047 67.4143 225C67.2486 224.952 67.0711 224.929 66.8818 224.929ZM70.2105 224.308H70.9382V225.195C71.0388 224.917 71.2045 224.686 71.4352 224.503C71.6719 224.314 71.9588 224.219 72.2961 224.219C72.4144 224.219 72.5091 224.225 72.5801 224.237C72.657 224.248 72.725 224.263 72.7842 224.281V225.009C72.7073 224.979 72.6304 224.958 72.5535 224.947C72.4825 224.935 72.3819 224.929 72.2517 224.929C72.0742 224.929 71.9086 224.961 71.7547 225.026C71.6009 225.092 71.4678 225.183 71.3554 225.302C71.2429 225.414 71.1542 225.553 71.0891 225.719C71.024 225.884 70.9915 226.065 70.9915 226.26V229.011H70.2105V224.308Z" fill="white" fill-opacity="0.8"/>
<rect x="13.3083" y="217.423" width="65.4135" height="16.1766" rx="8.08832" stroke="white" stroke-opacity="0.4" stroke-width="0.451128"/>
</g>
<g>
<rect x="124.962" y="275.844" width="47.8195" height="16.6278" rx="8.31389" fill="#35363D" fill-opacity="0.2"/>
<path d="M132.372 281.445H134.591C134.964 281.445 135.283 281.487 135.549 281.57C135.816 281.652 136.034 281.768 136.206 281.916C136.383 282.058 136.514 282.232 136.596 282.439C136.679 282.641 136.721 282.862 136.721 283.105C136.721 283.424 136.632 283.7 136.454 283.93C136.277 284.155 136.058 284.318 135.798 284.418C136.165 284.501 136.454 284.67 136.667 284.924C136.88 285.173 136.987 285.498 136.987 285.901C136.987 286.155 136.946 286.389 136.863 286.602C136.78 286.815 136.65 287.001 136.472 287.161C136.295 287.315 136.064 287.436 135.78 287.525C135.502 287.613 135.165 287.658 134.768 287.658H132.372V281.445ZM134.768 286.93C135.035 286.93 135.256 286.906 135.434 286.859C135.611 286.806 135.753 286.735 135.86 286.646C135.966 286.551 136.04 286.439 136.082 286.309C136.129 286.179 136.153 286.034 136.153 285.874C136.153 285.714 136.129 285.569 136.082 285.439C136.04 285.303 135.966 285.191 135.86 285.102C135.753 285.007 135.608 284.936 135.425 284.889C135.248 284.836 135.026 284.809 134.759 284.809H133.206V286.93H134.768ZM134.591 284.117C134.839 284.117 135.046 284.093 135.212 284.046C135.378 283.998 135.511 283.93 135.611 283.842C135.712 283.753 135.783 283.649 135.824 283.531C135.866 283.413 135.887 283.282 135.887 283.14C135.887 282.998 135.866 282.868 135.824 282.75C135.783 282.626 135.712 282.522 135.611 282.439C135.511 282.357 135.378 282.291 135.212 282.244C135.046 282.197 134.839 282.173 134.591 282.173H133.206V284.117H134.591ZM138.318 282.954H139.098V287.658H138.318V282.954ZM138.708 282.333C138.554 282.333 138.427 282.283 138.326 282.182C138.226 282.081 138.176 281.954 138.176 281.8C138.176 281.647 138.226 281.519 138.326 281.419C138.427 281.318 138.554 281.268 138.708 281.268C138.862 281.268 138.989 281.318 139.09 281.419C139.19 281.519 139.24 281.647 139.24 281.8C139.24 281.954 139.19 282.081 139.09 282.182C138.989 282.283 138.862 282.333 138.708 282.333ZM140.692 282.954H141.42V283.842C141.473 283.711 141.547 283.587 141.642 283.469C141.736 283.35 141.849 283.247 141.979 283.158C142.115 283.069 142.269 282.998 142.441 282.945C142.618 282.892 142.813 282.865 143.026 282.865C143.618 282.865 144.056 283.025 144.34 283.345C144.63 283.658 144.775 284.12 144.775 284.729V287.658H143.994V284.907C143.994 284.469 143.902 284.137 143.718 283.913C143.535 283.688 143.227 283.575 142.796 283.575C142.565 283.575 142.364 283.614 142.192 283.691C142.026 283.768 141.89 283.868 141.784 283.992C141.677 284.117 141.597 284.259 141.544 284.418C141.497 284.578 141.473 284.741 141.473 284.907V287.658H140.692V282.954ZM147.581 287.746C147.321 287.746 147.09 287.711 146.889 287.64C146.694 287.563 146.528 287.46 146.392 287.329C146.256 287.199 146.152 287.045 146.081 286.868C146.01 286.69 145.975 286.495 145.975 286.282C145.975 285.815 146.111 285.477 146.383 285.27C146.661 285.063 147.057 284.96 147.572 284.96H149.099V284.64C149.099 284.238 149.007 283.96 148.824 283.806C148.646 283.652 148.377 283.575 148.016 283.575C147.679 283.575 147.433 283.64 147.279 283.771C147.126 283.895 147.04 284.037 147.022 284.197H146.241C146.253 284.007 146.303 283.833 146.392 283.673C146.487 283.507 146.611 283.365 146.765 283.247C146.924 283.129 147.114 283.037 147.333 282.972C147.552 282.901 147.794 282.865 148.06 282.865C148.616 282.865 149.057 282.998 149.383 283.265C149.714 283.525 149.88 283.954 149.88 284.552V286.46C149.88 286.708 149.88 286.927 149.88 287.116C149.886 287.3 149.9 287.48 149.924 287.658H149.241C149.223 287.522 149.211 287.394 149.205 287.276C149.199 287.152 149.196 287.013 149.196 286.859C149.072 287.107 148.871 287.318 148.593 287.489C148.315 287.661 147.978 287.746 147.581 287.746ZM147.75 287.036C147.933 287.036 148.105 287.013 148.264 286.965C148.43 286.912 148.575 286.838 148.699 286.744C148.824 286.643 148.921 286.522 148.992 286.38C149.063 286.238 149.099 286.072 149.099 285.883V285.563H147.705C147.415 285.563 147.188 285.622 147.022 285.741C146.856 285.853 146.773 286.034 146.773 286.282C146.773 286.501 146.85 286.681 147.004 286.823C147.164 286.965 147.412 287.036 147.75 287.036ZM151.348 282.954H152.076V283.842C152.129 283.711 152.203 283.587 152.297 283.469C152.392 283.35 152.505 283.247 152.635 283.158C152.771 283.069 152.925 282.998 153.096 282.945C153.274 282.892 153.469 282.865 153.682 282.865C154.274 282.865 154.711 283.025 154.995 283.345C155.285 283.658 155.43 284.12 155.43 284.729V287.658H154.649V284.907C154.649 284.469 154.558 284.137 154.374 283.913C154.191 283.688 153.883 283.575 153.451 283.575C153.22 283.575 153.019 283.614 152.848 283.691C152.682 283.768 152.546 283.868 152.439 283.992C152.333 284.117 152.253 284.259 152.2 284.418C152.152 284.578 152.129 284.741 152.129 284.907V287.658H151.348V282.954ZM158.716 287.746C158.414 287.746 158.133 287.699 157.873 287.604C157.613 287.504 157.388 287.356 157.198 287.161C157.009 286.96 156.858 286.708 156.746 286.406C156.639 286.105 156.586 285.753 156.586 285.35V285.173C156.586 284.794 156.645 284.46 156.764 284.17C156.882 283.88 157.039 283.64 157.234 283.451C157.429 283.256 157.654 283.111 157.908 283.016C158.169 282.916 158.438 282.865 158.716 282.865C158.994 282.865 159.243 282.904 159.461 282.981C159.686 283.058 159.879 283.164 160.038 283.3C160.204 283.436 160.337 283.596 160.438 283.779C160.544 283.963 160.621 284.161 160.668 284.374H159.87C159.822 284.262 159.766 284.158 159.701 284.063C159.642 283.963 159.565 283.877 159.47 283.806C159.382 283.735 159.275 283.679 159.151 283.637C159.027 283.596 158.882 283.575 158.716 283.575C158.544 283.575 158.379 283.608 158.219 283.673C158.059 283.732 157.917 283.827 157.793 283.957C157.669 284.081 157.568 284.244 157.491 284.445C157.42 284.646 157.385 284.889 157.385 285.173V285.35C157.385 285.652 157.42 285.912 157.491 286.131C157.568 286.344 157.669 286.519 157.793 286.655C157.917 286.785 158.059 286.883 158.219 286.948C158.379 287.007 158.544 287.036 158.716 287.036C159.006 287.036 159.248 286.965 159.444 286.823C159.645 286.681 159.787 286.486 159.87 286.238H160.668C160.556 286.705 160.325 287.075 159.976 287.347C159.627 287.613 159.207 287.746 158.716 287.746ZM163.774 287.746C163.472 287.746 163.185 287.699 162.913 287.604C162.641 287.51 162.401 287.365 162.194 287.17C161.987 286.968 161.821 286.717 161.697 286.415C161.573 286.114 161.511 285.759 161.511 285.35V285.173C161.511 284.782 161.57 284.445 161.688 284.161C161.807 283.871 161.963 283.632 162.159 283.442C162.36 283.247 162.591 283.102 162.851 283.007C163.117 282.913 163.395 282.865 163.685 282.865C164.377 282.865 164.913 283.055 165.291 283.433C165.67 283.812 165.859 284.347 165.859 285.04V285.537H162.292C162.292 285.815 162.336 286.048 162.425 286.238C162.514 286.427 162.629 286.581 162.771 286.699C162.913 286.818 163.07 286.903 163.241 286.957C163.419 287.01 163.596 287.036 163.774 287.036C164.129 287.036 164.401 286.977 164.59 286.859C164.786 286.741 164.925 286.578 165.007 286.371H165.771C165.723 286.596 165.638 286.794 165.513 286.965C165.395 287.137 165.247 287.282 165.07 287.4C164.898 287.513 164.7 287.599 164.475 287.658C164.256 287.717 164.022 287.746 163.774 287.746ZM163.73 283.575C163.546 283.575 163.369 283.602 163.197 283.655C163.025 283.703 162.872 283.782 162.736 283.895C162.605 284.001 162.499 284.137 162.416 284.303C162.333 284.469 162.292 284.667 162.292 284.898H165.123C165.117 284.655 165.076 284.451 164.999 284.285C164.928 284.114 164.83 283.978 164.706 283.877C164.581 283.771 164.434 283.694 164.262 283.646C164.096 283.599 163.919 283.575 163.73 283.575Z" fill="white" fill-opacity="0.8"/>
<rect x="125.188" y="276.069" width="47.3684" height="16.1766" rx="8.08832" stroke="white" stroke-opacity="0.4" stroke-width="0.451128"/>
</g>
<g>
<rect x="281.504" y="259.604" width="38.797" height="16.6278" rx="8.31389" fill="#35363D" fill-opacity="0.2"/>
<path d="M289.017 271.506C288.65 271.506 288.301 271.447 287.97 271.329C287.644 271.204 287.357 271.015 287.109 270.761C286.866 270.5 286.671 270.172 286.523 269.776C286.381 269.379 286.31 268.906 286.31 268.356V268.178C286.31 267.646 286.381 267.187 286.523 266.803C286.671 266.418 286.866 266.101 287.109 265.853C287.357 265.605 287.644 265.421 287.97 265.303C288.301 265.179 288.65 265.116 289.017 265.116C289.319 265.116 289.6 265.161 289.86 265.25C290.12 265.332 290.354 265.454 290.561 265.613C290.768 265.773 290.943 265.968 291.085 266.199C291.233 266.43 291.342 266.69 291.413 266.98H290.526C290.396 266.59 290.191 266.306 289.913 266.128C289.635 265.951 289.336 265.862 289.017 265.862C288.774 265.862 288.544 265.903 288.325 265.986C288.106 266.069 287.911 266.202 287.739 266.385C287.573 266.563 287.44 266.8 287.34 267.095C287.245 267.391 287.198 267.752 287.198 268.178V268.356C287.198 268.805 287.251 269.184 287.357 269.492C287.464 269.793 287.603 270.039 287.775 270.228C287.952 270.418 288.147 270.554 288.36 270.637C288.579 270.719 288.798 270.761 289.017 270.761C289.508 270.761 289.907 270.622 290.215 270.344C290.523 270.066 290.7 269.61 290.748 268.977H289.195V268.267H291.546V268.533C291.546 269.012 291.487 269.438 291.369 269.811C291.25 270.178 291.082 270.489 290.863 270.743C290.65 270.991 290.387 271.181 290.073 271.311C289.76 271.441 289.407 271.506 289.017 271.506ZM294.174 271.506C293.914 271.506 293.683 271.471 293.482 271.4C293.286 271.323 293.121 271.219 292.985 271.089C292.849 270.959 292.745 270.805 292.674 270.628C292.603 270.45 292.568 270.255 292.568 270.042C292.568 269.574 292.704 269.237 292.976 269.03C293.254 268.823 293.65 268.72 294.165 268.72H295.692V268.4C295.692 267.998 295.6 267.72 295.416 267.566C295.239 267.412 294.97 267.335 294.609 267.335C294.272 267.335 294.026 267.4 293.872 267.53C293.718 267.655 293.633 267.797 293.615 267.956H292.834C292.846 267.767 292.896 267.592 292.985 267.433C293.079 267.267 293.204 267.125 293.357 267.007C293.517 266.888 293.707 266.797 293.925 266.732C294.144 266.661 294.387 266.625 294.653 266.625C295.209 266.625 295.65 266.758 295.976 267.024C296.307 267.285 296.473 267.714 296.473 268.311V270.219C296.473 270.468 296.473 270.687 296.473 270.876C296.478 271.06 296.493 271.24 296.517 271.417H295.834C295.816 271.281 295.804 271.154 295.798 271.036C295.792 270.912 295.789 270.773 295.789 270.619C295.665 270.867 295.464 271.077 295.186 271.249C294.908 271.42 294.57 271.506 294.174 271.506ZM294.343 270.796C294.526 270.796 294.698 270.773 294.857 270.725C295.023 270.672 295.168 270.598 295.292 270.503C295.416 270.403 295.514 270.282 295.585 270.14C295.656 269.998 295.692 269.832 295.692 269.643V269.323H294.298C294.008 269.323 293.78 269.382 293.615 269.501C293.449 269.613 293.366 269.793 293.366 270.042C293.366 270.261 293.443 270.441 293.597 270.583C293.757 270.725 294.005 270.796 294.343 270.796ZM297.941 266.714H298.668V267.601C298.769 267.311 298.941 267.078 299.183 266.9C299.432 266.717 299.713 266.625 300.026 266.625C300.434 266.625 300.748 266.714 300.967 266.891C301.186 267.063 301.337 267.285 301.42 267.557C301.573 267.267 301.769 267.039 302.005 266.874C302.248 266.708 302.538 266.625 302.875 266.625C303.36 266.625 303.739 266.773 304.011 267.069C304.283 267.359 304.419 267.817 304.419 268.444V271.417H303.638V268.622C303.638 268.155 303.555 267.823 303.39 267.628C303.23 267.433 302.984 267.335 302.653 267.335C302.511 267.335 302.375 267.365 302.245 267.424C302.115 267.483 301.999 267.569 301.899 267.681C301.798 267.794 301.718 267.93 301.659 268.089C301.6 268.249 301.57 268.427 301.57 268.622V271.417H300.789V268.622C300.789 268.155 300.707 267.823 300.541 267.628C300.375 267.433 300.13 267.335 299.804 267.335C299.662 267.335 299.526 267.365 299.396 267.424C299.266 267.483 299.151 267.569 299.05 267.681C298.949 267.794 298.87 267.93 298.81 268.089C298.751 268.249 298.722 268.427 298.722 268.622V271.417H297.941V266.714ZM307.834 271.506C307.532 271.506 307.245 271.459 306.973 271.364C306.701 271.27 306.461 271.125 306.254 270.929C306.047 270.728 305.882 270.477 305.757 270.175C305.633 269.873 305.571 269.518 305.571 269.11V268.933C305.571 268.542 305.63 268.205 305.748 267.921C305.867 267.631 306.024 267.391 306.219 267.202C306.42 267.007 306.651 266.862 306.911 266.767C307.177 266.672 307.455 266.625 307.745 266.625C308.437 266.625 308.973 266.814 309.352 267.193C309.73 267.572 309.92 268.107 309.92 268.799V269.296H306.352C306.352 269.574 306.396 269.808 306.485 269.998C306.574 270.187 306.689 270.341 306.831 270.459C306.973 270.577 307.13 270.663 307.301 270.716C307.479 270.77 307.656 270.796 307.834 270.796C308.189 270.796 308.461 270.737 308.65 270.619C308.846 270.5 308.985 270.338 309.068 270.131H309.831C309.783 270.355 309.698 270.554 309.573 270.725C309.455 270.897 309.307 271.042 309.13 271.16C308.958 271.273 308.76 271.358 308.535 271.417C308.316 271.477 308.082 271.506 307.834 271.506ZM307.79 267.335C307.606 267.335 307.429 267.362 307.257 267.415C307.086 267.462 306.932 267.542 306.796 267.655C306.665 267.761 306.559 267.897 306.476 268.063C306.393 268.228 306.352 268.427 306.352 268.657H309.183C309.177 268.415 309.136 268.211 309.059 268.045C308.988 267.873 308.89 267.737 308.766 267.637C308.642 267.53 308.494 267.453 308.322 267.406C308.156 267.359 307.979 267.335 307.79 267.335ZM311.298 267.406H310.632V266.714H311.298V266.625C311.298 266.134 311.41 265.767 311.635 265.525C311.866 265.282 312.227 265.161 312.718 265.161C312.895 265.161 313.117 265.17 313.383 265.187V265.897C313.295 265.886 313.197 265.88 313.091 265.88C312.99 265.874 312.895 265.871 312.807 265.871C312.534 265.871 312.345 265.927 312.239 266.039C312.132 266.146 312.079 266.341 312.079 266.625V266.714H313.295V267.406H312.079V271.417H311.298V267.406ZM314.451 266.714H315.232V271.417H314.451V266.714ZM314.841 266.093C314.687 266.093 314.56 266.042 314.459 265.942C314.359 265.841 314.309 265.714 314.309 265.56C314.309 265.406 314.359 265.279 314.459 265.179C314.56 265.078 314.687 265.028 314.841 265.028C314.995 265.028 315.122 265.078 315.223 265.179C315.323 265.279 315.373 265.406 315.373 265.56C315.373 265.714 315.323 265.841 315.223 265.942C315.122 266.042 314.995 266.093 314.841 266.093Z" fill="white" fill-opacity="0.8"/>
<rect x="281.729" y="259.829" width="38.3459" height="16.1766" rx="8.08832" stroke="white" stroke-opacity="0.4" stroke-width="0.451128"/>
</g>
</g>
<defs>
<filter id="filter0_f_354_4581" x="11.955" y="1.57873" width="341.504" height="341.504" filterUnits="userSpaceOnUse" color-interpolation-filters="sRGB">
<feFlood flood-opacity="0" result="BackgroundImageFix"/>
<feBlend mode="normal" in="SourceGraphic" in2="BackgroundImageFix" result="shape"/>
<feGaussianBlur stdDeviation="10.6015" result="effect1_foregroundBlur_354_4581"/>
</filter>
<filter id="filter1_f_354_4581" x="19.6241" y="9.2479" width="326.165" height="326.166" filterUnits="userSpaceOnUse" color-interpolation-filters="sRGB">
<feFlood flood-opacity="0" result="BackgroundImageFix"/>
<feBlend mode="normal" in="SourceGraphic" in2="BackgroundImageFix" result="shape"/>
<feGaussianBlur stdDeviation="6.76692" result="effect1_foregroundBlur_354_4581"/>
</filter>
<filter id="filter2_f_354_4581" x="11.955" y="1.57873" width="341.504" height="341.504" filterUnits="userSpaceOnUse" color-interpolation-filters="sRGB">
<feFlood flood-opacity="0" result="BackgroundImageFix"/>
<feBlend mode="normal" in="SourceGraphic" in2="BackgroundImageFix" result="shape"/>
<feGaussianBlur stdDeviation="10.6015" result="effect1_foregroundBlur_354_4581"/>
</filter>
<filter id="filter3_f_354_4581" x="20.5264" y="10.1502" width="324.361" height="324.361" filterUnits="userSpaceOnUse" color-interpolation-filters="sRGB">
<feFlood flood-opacity="0" result="BackgroundImageFix"/>
<feBlend mode="normal" in="SourceGraphic" in2="BackgroundImageFix" result="shape"/>
<feGaussianBlur stdDeviation="6.31579" result="effect1_foregroundBlur_354_4581"/>
</filter>
<filter id="filter4_f_354_4581" x="20.7518" y="146.982" width="176.365" height="43.7596" filterUnits="userSpaceOnUse" color-interpolation-filters="sRGB">
<feFlood flood-opacity="0" result="BackgroundImageFix"/>
<feBlend mode="normal" in="SourceGraphic" in2="BackgroundImageFix" result="shape"/>
<feGaussianBlur stdDeviation="5.41353" result="effect1_foregroundBlur_354_4581"/>
</filter>
<filter id="filter5_f_354_4581" x="118.511" y="108.586" width="123.061" height="107.698" filterUnits="userSpaceOnUse" color-interpolation-filters="sRGB">
<feFlood flood-opacity="0" result="BackgroundImageFix"/>
<feBlend mode="normal" in="SourceGraphic" in2="BackgroundImageFix" result="shape"/>
<feGaussianBlur stdDeviation="1.74834" result="effect1_foregroundBlur_354_4581"/>
</filter>
<filter id="filter6_f_354_4581" x="159.248" y="66.7668" width="187.218" height="123.609" filterUnits="userSpaceOnUse" color-interpolation-filters="sRGB">
<feFlood flood-opacity="0" result="BackgroundImageFix"/>
<feBlend mode="normal" in="SourceGraphic" in2="BackgroundImageFix" result="shape"/>
<feGaussianBlur stdDeviation="13.7594" result="effect1_foregroundBlur_354_4581"/>
</filter>
<filter id="filter7_f_354_4581" x="159.248" y="90.6765" width="193.083" height="103.308" filterUnits="userSpaceOnUse" color-interpolation-filters="sRGB">
<feFlood flood-opacity="0" result="BackgroundImageFix"/>
<feBlend mode="normal" in="SourceGraphic" in2="BackgroundImageFix" result="shape"/>
<feGaussianBlur stdDeviation="13.7594" result="effect1_foregroundBlur_354_4581"/>
</filter>
<filter id="filter8_f_354_4581" x="159.248" y="114.361" width="195.208" height="83.2329" filterUnits="userSpaceOnUse" color-interpolation-filters="sRGB">
<feFlood flood-opacity="0" result="BackgroundImageFix"/>
<feBlend mode="normal" in="SourceGraphic" in2="BackgroundImageFix" result="shape"/>
<feGaussianBlur stdDeviation="13.7594" result="effect1_foregroundBlur_354_4581"/>
</filter>
<filter id="filter9_f_354_4581" x="158.857" y="136.692" width="195.504" height="79.1728" filterUnits="userSpaceOnUse" color-interpolation-filters="sRGB">
<feFlood flood-opacity="0" result="BackgroundImageFix"/>
<feBlend mode="normal" in="SourceGraphic" in2="BackgroundImageFix" result="shape"/>
<feGaussianBlur stdDeviation="13.7594" result="effect1_foregroundBlur_354_4581"/>
</filter>
<filter id="filter10_f_354_4581" x="159.925" y="145.714" width="192.632" height="94.5112" filterUnits="userSpaceOnUse" color-interpolation-filters="sRGB">
<feFlood flood-opacity="0" result="BackgroundImageFix"/>
<feBlend mode="normal" in="SourceGraphic" in2="BackgroundImageFix" result="shape"/>
<feGaussianBlur stdDeviation="13.7594" result="effect1_foregroundBlur_354_4581"/>
</filter>
<filter id="filter11_f_354_4581" x="160.15" y="149.774" width="186.266" height="113.572" filterUnits="userSpaceOnUse" color-interpolation-filters="sRGB">
<feFlood flood-opacity="0" result="BackgroundImageFix"/>
<feBlend mode="normal" in="SourceGraphic" in2="BackgroundImageFix" result="shape"/>
<feGaussianBlur stdDeviation="13.7594" result="effect1_foregroundBlur_354_4581"/>
</filter>
<filter id="filter12_b_354_4581" x="85.6143" y="62.9986" width="62.004" height="34.5839" filterUnits="userSpaceOnUse" color-interpolation-filters="sRGB">
<feFlood flood-opacity="0" result="BackgroundImageFix"/>
<feGaussianBlur in="BackgroundImage" stdDeviation="4.48899"/>
<feComposite in2="SourceAlpha" operator="in" result="effect1_backgroundBlur_354_4581"/>
<feBlend mode="normal" in="SourceGraphic" in2="effect1_backgroundBlur_354_4581" result="shape"/>
</filter>
<filter id="filter13_b_354_4581" x="224.255" y="28.6705" width="75.7003" height="34.5839" filterUnits="userSpaceOnUse" color-interpolation-filters="sRGB">
<feFlood flood-opacity="0" result="BackgroundImageFix"/>
<feGaussianBlur in="BackgroundImage" stdDeviation="4.48899"/>
<feComposite in2="SourceAlpha" operator="in" result="effect1_backgroundBlur_354_4581"/>
<feBlend mode="normal" in="SourceGraphic" in2="effect1_backgroundBlur_354_4581" result="shape"/>
</filter>
<filter id="filter14_b_354_4581" x="4.10479" y="208.219" width="83.8207" height="34.5839" filterUnits="userSpaceOnUse" color-interpolation-filters="sRGB">
<feFlood flood-opacity="0" result="BackgroundImageFix"/>
<feGaussianBlur in="BackgroundImage" stdDeviation="4.48899"/>
<feComposite in2="SourceAlpha" operator="in" result="effect1_backgroundBlur_354_4581"/>
<feBlend mode="normal" in="SourceGraphic" in2="effect1_backgroundBlur_354_4581" result="shape"/>
</filter>
<filter id="filter15_b_354_4581" x="115.984" y="266.866" width="65.7755" height="34.5839" filterUnits="userSpaceOnUse" color-interpolation-filters="sRGB">
<feFlood flood-opacity="0" result="BackgroundImageFix"/>
<feGaussianBlur in="BackgroundImage" stdDeviation="4.48899"/>
<feComposite in2="SourceAlpha" operator="in" result="effect1_backgroundBlur_354_4581"/>
<feBlend mode="normal" in="SourceGraphic" in2="effect1_backgroundBlur_354_4581" result="shape"/>
</filter>
<filter id="filter16_b_354_4581" x="272.526" y="250.626" width="56.7528" height="34.5839" filterUnits="userSpaceOnUse" color-interpolation-filters="sRGB">
<feFlood flood-opacity="0" result="BackgroundImageFix"/>
<feGaussianBlur in="BackgroundImage" stdDeviation="4.48899"/>
<feComposite in2="SourceAlpha" operator="in" result="effect1_backgroundBlur_354_4581"/>
<feBlend mode="normal" in="SourceGraphic" in2="effect1_backgroundBlur_354_4581" result="shape"/>
</filter>
<radialGradient id="paint0_radial_354_4581" cx="0" cy="0" r="1" gradientUnits="userSpaceOnUse" gradientTransform="translate(329.775 168.496) rotate(134.263) scale(210.714)">
<stop stop-color="#CEE44A"/>
<stop offset="1" stop-color="white" stop-opacity="0"/>
</radialGradient>
<radialGradient id="paint1_radial_354_4581" cx="0" cy="0" r="1" gradientUnits="userSpaceOnUse" gradientTransform="translate(329.775 168.496) rotate(134.263) scale(210.714)">
<stop stop-color="#CEE44A"/>
<stop offset="0.640625" stop-color="white" stop-opacity="0"/>
</radialGradient>
<radialGradient id="paint2_radial_354_4581" cx="0" cy="0" r="1" gradientUnits="userSpaceOnUse" gradientTransform="translate(38.5715 172.331) rotate(47.9207) scale(156.511)">
<stop stop-color="#CEE44A" stop-opacity="0.8"/>
<stop offset="0.640625" stop-color="white" stop-opacity="0"/>
</radialGradient>
<radialGradient id="paint3_radial_354_4581" cx="0" cy="0" r="1" gradientUnits="userSpaceOnUse" gradientTransform="translate(38.5715 172.331) rotate(55.6338) scale(79.5195)">
<stop stop-color="#CEE44A" stop-opacity="0.8"/>
<stop offset="0.640625" stop-color="white" stop-opacity="0"/>
</radialGradient>
<linearGradient id="paint4_linear_354_4581" x1="186.74" y1="173.824" x2="8.54494" y2="169.99" gradientUnits="userSpaceOnUse">
<stop stop-color="white" stop-opacity="0"/>
<stop offset="0.078125" stop-color="#CEE44A"/>
<stop offset="1" stop-color="white" stop-opacity="0"/>
</linearGradient>
<linearGradient id="paint5_linear_354_4581" x1="188.576" y1="173.857" x2="8.57169" y2="169.978" gradientUnits="userSpaceOnUse">
<stop offset="0.0572917" stop-color="white" stop-opacity="0"/>
<stop offset="0.302083" stop-color="#CEE44A"/>
<stop offset="1" stop-color="white" stop-opacity="0"/>
</linearGradient>
<linearGradient id="paint6_linear_354_4581" x1="314.21" y1="105.113" x2="186.767" y2="162.857" gradientUnits="userSpaceOnUse">
<stop offset="0.729167" stop-color="#C33D3D"/>
<stop offset="1" stop-color="white"/>
</linearGradient>
<linearGradient id="paint7_linear_354_4581" x1="325.489" y1="129.022" x2="198.045" y2="186.767" gradientUnits="userSpaceOnUse">
<stop offset="0.729167" stop-color="#C39D3D"/>
<stop offset="1" stop-color="white"/>
</linearGradient>
<linearGradient id="paint8_linear_354_4581" x1="325.489" y1="152.933" x2="198.045" y2="210.677" gradientUnits="userSpaceOnUse">
<stop offset="0.729167" stop-color="#A0C33D"/>
<stop offset="1" stop-color="white"/>
</linearGradient>
<linearGradient id="paint9_linear_354_4581" x1="326.124" y1="176.503" x2="191.753" y2="215.499" gradientUnits="userSpaceOnUse">
<stop offset="0.729167" stop-color="#3DC3BB"/>
<stop offset="1" stop-color="white"/>
</linearGradient>
<linearGradient id="paint10_linear_354_4581" x1="322.875" y1="201.391" x2="184.065" y2="218.949" gradientUnits="userSpaceOnUse">
<stop offset="0.729167" stop-color="#3D6BC3"/>
<stop offset="1" stop-color="white"/>
</linearGradient>
<linearGradient id="paint11_linear_354_4581" x1="314.736" y1="225.244" x2="174.873" y2="221.427" gradientUnits="userSpaceOnUse">
<stop offset="0.729167" stop-color="#783DC3"/>
<stop offset="1" stop-color="white"/>
</linearGradient>
<clipPath id="clip0_354_4581">
<rect width="360" height="322.105" fill="white"/>
</clipPath>
</defs>
</svg>
