<svg width="889" height="847" viewBox="0 0 889 847" fill="none" xmlns="http://www.w3.org/2000/svg">
<path d="M231 152L382 1M349 312.5L262.5 399M400.5 194.5L491 104M596.5 612.5L496 713M798 160L882.5 75.5" stroke="white" stroke-opacity="0.1"/>
<circle cx="461" cy="382" r="325.5" stroke="white" stroke-opacity="0.4"/>
<g filter="url(#filter0_f_173_590)">
<circle cx="461" cy="382" r="326" stroke="url(#paint0_radial_173_590)" stroke-width="11"/>
</g>
<g filter="url(#filter1_f_173_590)">
<circle cx="461" cy="382" r="326" stroke="url(#paint1_radial_173_590)" stroke-width="11"/>
</g>
<g filter="url(#filter2_f_173_590)">
<circle cx="461" cy="382" r="326" stroke="url(#paint2_radial_173_590)" stroke-width="11"/>
</g>
<g filter="url(#filter3_f_173_590)">
<circle cx="461" cy="382" r="326" stroke="url(#paint3_radial_173_590)" stroke-width="11"/>
</g>
<circle cx="461" cy="382" r="265.5" stroke="white" stroke-opacity="0.4"/>
<circle cx="459" cy="386" r="132.5" stroke="white" stroke-opacity="0.4"/>
<g filter="url(#filter4_f_173_590)">
<path d="M126 371L464.941 349.81L468.941 398.81L126 371Z" fill="url(#paint4_linear_173_590)"/>
</g>
<path d="M135 370.5L468.959 349.574L473 399L135 370.5Z" fill="url(#paint5_linear_173_590)"/>
<path d="M461.292 250L582.182 470.128H478.369M461.292 250L328 470.128H478.369M461.292 250L478.369 470.128" stroke="#CEE44A" stroke-width="3.10039" stroke-linejoin="round"/>
<g filter="url(#filter5_f_173_590)">
<path d="M461.292 250L582.182 470.128H478.369M461.292 250L328 470.128H478.369M461.292 250L478.369 470.128" stroke="#CEE44A" stroke-width="3.10039" stroke-linejoin="round"/>
</g>
<g filter="url(#filter6_f_173_590)">
<path d="M470 352.5L739 209C739 209 757.672 239.913 763 262C684 289.5 470 361 470 361V352.5Z" fill="url(#paint6_linear_173_590)"/>
</g>
<g filter="url(#filter7_f_173_590)">
<path d="M470 360.5L763 262C763 262 774.547 293.428 776 314.5C746 318.5 470 369 470 369V360.5Z" fill="url(#paint7_linear_173_590)"/>
</g>
<g filter="url(#filter8_f_173_590)">
<path d="M470 368.5C470 368.5 734.5 320.5 776 314.5C781.005 333.858 781 344 780.5 365.5C750.5 369.5 470 377 470 377V368.5Z" fill="url(#paint8_linear_173_590)"/>
</g>
<g filter="url(#filter9_f_173_590)">
<path d="M470.344 376.632C470.344 376.632 738.569 364.026 780.5 364C780.5 385.5 780.058 396.291 776.5 417.5C746.236 417.185 469.132 385.045 469.132 385.045L470.344 376.632Z" fill="url(#paint9_linear_173_590)"/>
</g>
<g filter="url(#filter10_f_173_590)">
<path d="M471.5 384C471.5 384 735.078 410.484 776.5 417C773.146 438.237 769.823 451.105 763 471.5C733.156 466.467 472 393 472 393L471.5 384Z" fill="url(#paint10_linear_173_590)"/>
</g>
<g filter="url(#filter11_f_173_590)">
<path d="M472 393C472 393 722.946 458.191 762.889 470.947C756.336 491.424 751.09 503.636 741.236 522.751C712.508 513.226 472.5 401.5 472.5 401.5L472 393Z" fill="url(#paint11_linear_173_590)"/>
</g>
<g filter="url(#filter12_b_173_590)">
<rect x="265.68" y="160.14" width="97.6402" height="35.9082" rx="17.9541" fill="#35363D" fill-opacity="0.2"/>
<path d="M284.591 185.79C283.818 185.79 283.083 185.659 282.388 185.397C281.693 185.122 281.077 184.702 280.539 184.138C280.001 183.561 279.575 182.833 279.26 181.954C278.945 181.076 278.788 180.026 278.788 178.807V178.413C278.788 177.233 278.945 176.217 279.26 175.364C279.575 174.512 280.001 173.81 280.539 173.259C281.077 172.708 281.693 172.302 282.388 172.039C283.083 171.764 283.818 171.626 284.591 171.626C285.339 171.626 286.021 171.725 286.637 171.921C287.267 172.118 287.818 172.4 288.29 172.767C288.762 173.135 289.142 173.587 289.431 174.125C289.732 174.662 289.923 175.272 290.001 175.954H288.034C287.85 175.062 287.464 174.394 286.873 173.948C286.283 173.502 285.523 173.279 284.591 173.279C284.106 173.279 283.634 173.371 283.175 173.554C282.716 173.738 282.303 174.033 281.936 174.439C281.582 174.833 281.293 175.358 281.07 176.013C280.86 176.669 280.755 177.469 280.755 178.413V178.807C280.755 179.804 280.873 180.643 281.109 181.325C281.345 181.994 281.647 182.538 282.014 182.958C282.382 183.377 282.795 183.679 283.254 183.863C283.713 184.046 284.159 184.138 284.591 184.138C285.614 184.138 286.414 183.889 286.991 183.39C287.568 182.892 287.916 182.249 288.034 181.463H290.001C289.896 182.223 289.687 182.879 289.372 183.43C289.057 183.967 288.657 184.413 288.172 184.768C287.7 185.122 287.155 185.384 286.539 185.554C285.936 185.712 285.286 185.79 284.591 185.79ZM297.077 185.79C296.408 185.79 295.772 185.686 295.169 185.476C294.566 185.253 294.035 184.925 293.576 184.492C293.117 184.046 292.749 183.489 292.474 182.82C292.198 182.151 292.061 181.371 292.061 180.479V180.085C292.061 179.246 292.198 178.505 292.474 177.862C292.749 177.22 293.117 176.689 293.576 176.269C294.035 175.836 294.566 175.515 295.169 175.305C295.772 175.082 296.408 174.971 297.077 174.971C297.746 174.971 298.382 175.082 298.985 175.305C299.589 175.515 300.12 175.836 300.579 176.269C301.038 176.689 301.405 177.22 301.681 177.862C301.956 178.505 302.094 179.246 302.094 180.085V180.479C302.094 181.371 301.956 182.151 301.681 182.82C301.405 183.489 301.038 184.046 300.579 184.492C300.12 184.925 299.589 185.253 298.985 185.476C298.382 185.686 297.746 185.79 297.077 185.79ZM297.077 184.217C297.471 184.217 297.864 184.151 298.258 184.02C298.651 183.876 298.999 183.659 299.3 183.371C299.602 183.069 299.844 182.682 300.028 182.21C300.225 181.738 300.323 181.161 300.323 180.479V180.085C300.323 179.456 300.225 178.918 300.028 178.472C299.844 178.026 299.602 177.659 299.3 177.371C298.999 177.082 298.651 176.872 298.258 176.741C297.864 176.61 297.471 176.544 297.077 176.544C296.684 176.544 296.29 176.61 295.897 176.741C295.503 176.872 295.156 177.082 294.854 177.371C294.553 177.659 294.303 178.026 294.107 178.472C293.923 178.918 293.831 179.456 293.831 180.085V180.479C293.831 181.161 293.923 181.738 294.107 182.21C294.303 182.682 294.553 183.069 294.854 183.371C295.156 183.659 295.503 183.876 295.897 184.02C296.29 184.151 296.684 184.217 297.077 184.217ZM304.939 175.167H306.67V185.594H304.939V175.167ZM305.804 173.79C305.463 173.79 305.181 173.679 304.958 173.456C304.735 173.233 304.624 172.951 304.624 172.61C304.624 172.269 304.735 171.987 304.958 171.764C305.181 171.541 305.463 171.43 305.804 171.43C306.145 171.43 306.427 171.541 306.65 171.764C306.873 171.987 306.984 172.269 306.984 172.61C306.984 172.951 306.873 173.233 306.65 173.456C306.427 173.679 306.145 173.79 305.804 173.79ZM310.202 175.167H311.816V177.135C311.934 176.846 312.098 176.571 312.307 176.308C312.517 176.046 312.766 175.817 313.055 175.62C313.357 175.423 313.698 175.266 314.078 175.148C314.471 175.03 314.904 174.971 315.376 174.971C316.688 174.971 317.658 175.325 318.288 176.033C318.93 176.728 319.252 177.751 319.252 179.102V185.594H317.521V179.495C317.521 178.525 317.317 177.79 316.911 177.292C316.504 176.794 315.822 176.544 314.865 176.544C314.353 176.544 313.907 176.63 313.527 176.8C313.16 176.971 312.858 177.194 312.622 177.469C312.386 177.744 312.209 178.059 312.091 178.413C311.986 178.767 311.934 179.128 311.934 179.495V185.594H310.202V175.167ZM325.65 185.692C324.561 185.692 323.781 185.43 323.309 184.905C322.837 184.381 322.601 183.528 322.601 182.348V171.823H324.332V182.348C324.332 183.03 324.443 183.495 324.666 183.745C324.889 183.994 325.283 184.118 325.847 184.118C325.991 184.118 326.115 184.118 326.22 184.118C326.325 184.105 326.43 184.092 326.535 184.079V185.613C326.43 185.64 326.279 185.659 326.083 185.672C325.899 185.686 325.755 185.692 325.65 185.692ZM329.197 175.167H330.928V185.594H329.197V175.167ZM330.063 173.79C329.722 173.79 329.44 173.679 329.217 173.456C328.994 173.233 328.882 172.951 328.882 172.61C328.882 172.269 328.994 171.987 329.217 171.764C329.44 171.541 329.722 171.43 330.063 171.43C330.404 171.43 330.686 171.541 330.909 171.764C331.132 171.987 331.243 172.269 331.243 172.61C331.243 172.951 331.132 173.233 330.909 173.456C330.686 173.679 330.404 173.79 330.063 173.79ZM338.1 185.79C337.405 185.79 336.802 185.712 336.291 185.554C335.792 185.384 335.366 185.161 335.012 184.886C334.658 184.61 334.382 184.289 334.186 183.922C333.989 183.554 333.851 183.161 333.772 182.741H335.504C335.595 183.161 335.838 183.528 336.231 183.843C336.638 184.145 337.261 184.295 338.1 184.295C338.586 184.295 338.992 184.256 339.32 184.177C339.648 184.086 339.91 183.974 340.107 183.843C340.317 183.699 340.468 183.535 340.559 183.351C340.651 183.154 340.697 182.951 340.697 182.741C340.697 182.518 340.651 182.322 340.559 182.151C340.481 181.981 340.33 181.83 340.107 181.699C339.897 181.554 339.602 181.43 339.222 181.325C338.854 181.207 338.389 181.108 337.825 181.03C337.248 180.951 336.723 180.84 336.251 180.695C335.792 180.538 335.399 180.335 335.071 180.085C334.756 179.836 334.507 179.541 334.323 179.2C334.153 178.846 334.068 178.42 334.068 177.922C334.068 177.528 334.153 177.154 334.323 176.8C334.494 176.446 334.75 176.131 335.09 175.856C335.431 175.58 335.851 175.364 336.35 175.207C336.848 175.049 337.432 174.971 338.1 174.971C338.717 174.971 339.254 175.056 339.714 175.226C340.173 175.384 340.559 175.6 340.874 175.876C341.202 176.151 341.458 176.472 341.641 176.84C341.825 177.207 341.956 177.6 342.035 178.02H340.304C340.199 177.561 339.976 177.187 339.635 176.899C339.294 176.61 338.782 176.466 338.1 176.466C337.248 176.466 336.651 176.61 336.31 176.899C335.969 177.174 335.799 177.515 335.799 177.922C335.799 178.158 335.838 178.361 335.917 178.531C336.009 178.702 336.153 178.853 336.35 178.984C336.559 179.115 336.828 179.226 337.156 179.318C337.497 179.397 337.917 179.469 338.415 179.535C339.058 179.613 339.628 179.731 340.127 179.889C340.625 180.033 341.045 180.236 341.386 180.499C341.727 180.748 341.982 181.056 342.153 181.423C342.336 181.79 342.428 182.23 342.428 182.741C342.428 183.161 342.336 183.554 342.153 183.922C341.982 184.289 341.72 184.61 341.366 184.886C341.012 185.161 340.559 185.384 340.009 185.554C339.471 185.712 338.835 185.79 338.1 185.79ZM348.926 185.692C347.811 185.692 347.004 185.443 346.506 184.945C346.021 184.433 345.778 183.666 345.778 182.643V176.702H344.204V175.167H345.778V172.807H347.509V175.167H350.303V176.702H347.509V182.446C347.509 183.036 347.634 183.463 347.883 183.725C348.132 183.987 348.611 184.118 349.319 184.118C349.712 184.118 350.106 184.099 350.499 184.059V185.594C350.25 185.62 350.001 185.64 349.752 185.653C349.503 185.679 349.227 185.692 348.926 185.692Z" fill="white" fill-opacity="0.8"/>
<rect x="266.18" y="160.64" width="96.6402" height="34.9082" rx="17.4541" stroke="white" stroke-opacity="0.4"/>
</g>
<g filter="url(#filter13_b_173_590)">
<rect x="573" y="84.0459" width="128" height="35.9082" rx="17.9541" fill="#35363D" fill-opacity="0.2"/>
<path d="M590.759 95.7293H594.792C595.828 95.7293 596.753 95.8736 597.566 96.1621C598.379 96.4375 599.068 96.8506 599.632 97.4015C600.196 97.9523 600.628 98.6408 600.93 99.4671C601.232 100.293 601.383 101.244 601.383 102.32V102.713C601.383 103.815 601.225 104.792 600.91 105.644C600.609 106.484 600.163 107.192 599.573 107.769C598.996 108.333 598.287 108.766 597.448 109.067C596.609 109.356 595.658 109.5 594.596 109.5H590.759V95.7293ZM594.399 107.887C595.173 107.887 595.868 107.788 596.484 107.592C597.114 107.395 597.645 107.093 598.078 106.687C598.51 106.267 598.838 105.729 599.061 105.074C599.297 104.418 599.415 103.631 599.415 102.713V102.32C599.415 101.441 599.304 100.687 599.081 100.057C598.858 99.4277 598.537 98.9162 598.117 98.5228C597.697 98.1162 597.186 97.8211 596.582 97.6375C595.992 97.4408 595.33 97.3424 594.596 97.3424H592.609V107.887H594.399ZM607.308 109.697C606.731 109.697 606.219 109.618 605.773 109.461C605.341 109.29 604.973 109.061 604.672 108.772C604.37 108.484 604.141 108.143 603.983 107.749C603.826 107.356 603.747 106.923 603.747 106.451C603.747 105.415 604.049 104.667 604.652 104.208C605.268 103.749 606.147 103.52 607.288 103.52H610.672V102.811C610.672 101.92 610.468 101.303 610.062 100.962C609.668 100.621 609.072 100.451 608.272 100.451C607.524 100.451 606.98 100.595 606.639 100.883C606.298 101.159 606.108 101.474 606.068 101.828H604.337C604.363 101.408 604.475 101.021 604.672 100.667C604.882 100.3 605.157 99.9851 605.498 99.7228C605.852 99.4605 606.272 99.2572 606.757 99.113C607.242 98.9556 607.78 98.8769 608.37 98.8769C609.603 98.8769 610.58 99.172 611.301 99.7622C612.036 100.339 612.403 101.29 612.403 102.615V106.844C612.403 107.395 612.403 107.88 612.403 108.3C612.416 108.707 612.449 109.107 612.501 109.5H610.987C610.947 109.198 610.921 108.916 610.908 108.654C610.895 108.379 610.888 108.07 610.888 107.729C610.613 108.28 610.167 108.746 609.55 109.126C608.934 109.507 608.186 109.697 607.308 109.697ZM607.682 108.123C608.088 108.123 608.468 108.07 608.823 107.966C609.19 107.848 609.511 107.684 609.787 107.474C610.062 107.251 610.278 106.982 610.436 106.667C610.593 106.352 610.672 105.985 610.672 105.566V104.857H607.583C606.941 104.857 606.436 104.988 606.068 105.251C605.701 105.5 605.518 105.9 605.518 106.451C605.518 106.936 605.688 107.336 606.029 107.651C606.383 107.966 606.934 108.123 607.682 108.123ZM619.985 109.697C619.316 109.697 618.68 109.592 618.077 109.382C617.474 109.159 616.943 108.831 616.484 108.398C616.025 107.952 615.657 107.395 615.382 106.726C615.107 106.057 614.969 105.277 614.969 104.385V103.992C614.969 103.152 615.107 102.411 615.382 101.769C615.657 101.126 616.025 100.595 616.484 100.175C616.943 99.7425 617.474 99.4212 618.077 99.2113C618.68 98.9884 619.316 98.8769 619.985 98.8769C620.654 98.8769 621.29 98.9884 621.894 99.2113C622.497 99.4212 623.028 99.7425 623.487 100.175C623.946 100.595 624.313 101.126 624.589 101.769C624.864 102.411 625.002 103.152 625.002 103.992V104.385C625.002 105.277 624.864 106.057 624.589 106.726C624.313 107.395 623.946 107.952 623.487 108.398C623.028 108.831 622.497 109.159 621.894 109.382C621.29 109.592 620.654 109.697 619.985 109.697ZM619.985 108.123C620.379 108.123 620.772 108.057 621.166 107.926C621.559 107.782 621.907 107.566 622.208 107.277C622.51 106.975 622.753 106.588 622.936 106.116C623.133 105.644 623.231 105.067 623.231 104.385V103.992C623.231 103.362 623.133 102.824 622.936 102.379C622.753 101.933 622.51 101.565 622.208 101.277C621.907 100.988 621.559 100.779 621.166 100.647C620.772 100.516 620.379 100.451 619.985 100.451C619.592 100.451 619.198 100.516 618.805 100.647C618.411 100.779 618.064 100.988 617.762 101.277C617.461 101.565 617.211 101.933 617.015 102.379C616.831 102.824 616.739 103.362 616.739 103.992V104.385C616.739 105.067 616.831 105.644 617.015 106.116C617.211 106.588 617.461 106.975 617.762 107.277C618.064 107.566 618.411 107.782 618.805 107.926C619.198 108.057 619.592 108.123 619.985 108.123ZM627.65 99.0736H629.263V101.041C629.486 100.398 629.866 99.8802 630.404 99.4867C630.955 99.0802 631.578 98.8769 632.273 98.8769C633.178 98.8769 633.873 99.0736 634.358 99.4671C634.843 99.8474 635.178 100.339 635.361 100.942C635.702 100.3 636.135 99.7949 636.66 99.4277C637.198 99.0605 637.84 98.8769 638.588 98.8769C639.663 98.8769 640.502 99.2048 641.106 99.8605C641.709 100.503 642.011 101.52 642.011 102.91V109.5H640.28V103.303C640.28 102.267 640.096 101.533 639.729 101.1C639.375 100.667 638.83 100.451 638.096 100.451C637.781 100.451 637.479 100.516 637.191 100.647C636.902 100.779 636.647 100.969 636.424 101.218C636.201 101.467 636.024 101.769 635.893 102.123C635.761 102.477 635.696 102.87 635.696 103.303V109.5H633.965V103.303C633.965 102.267 633.781 101.533 633.414 101.1C633.047 100.667 632.502 100.451 631.781 100.451C631.466 100.451 631.165 100.516 630.876 100.647C630.588 100.779 630.332 100.969 630.109 101.218C629.886 101.467 629.709 101.769 629.578 102.123C629.447 102.477 629.381 102.87 629.381 103.303V109.5H627.65V99.0736ZM648.223 109.697C647.646 109.697 647.134 109.618 646.688 109.461C646.255 109.29 645.888 109.061 645.586 108.772C645.285 108.484 645.055 108.143 644.898 107.749C644.741 107.356 644.662 106.923 644.662 106.451C644.662 105.415 644.964 104.667 645.567 104.208C646.183 103.749 647.062 103.52 648.203 103.52H651.587V102.811C651.587 101.92 651.383 101.303 650.977 100.962C650.583 100.621 649.987 100.451 649.187 100.451C648.439 100.451 647.895 100.595 647.554 100.883C647.213 101.159 647.023 101.474 646.983 101.828H645.252C645.278 101.408 645.39 101.021 645.586 100.667C645.796 100.3 646.072 99.9851 646.413 99.7228C646.767 99.4605 647.186 99.2572 647.672 99.113C648.157 98.9556 648.695 98.8769 649.285 98.8769C650.518 98.8769 651.495 99.172 652.216 99.7622C652.951 100.339 653.318 101.29 653.318 102.615V106.844C653.318 107.395 653.318 107.88 653.318 108.3C653.331 108.707 653.364 109.107 653.416 109.5H651.901C651.862 109.198 651.836 108.916 651.823 108.654C651.81 108.379 651.803 108.07 651.803 107.729C651.528 108.28 651.082 108.746 650.465 109.126C649.849 109.507 649.101 109.697 648.223 109.697ZM648.596 108.123C649.003 108.123 649.383 108.07 649.737 107.966C650.105 107.848 650.426 107.684 650.701 107.474C650.977 107.251 651.193 106.982 651.35 106.667C651.508 106.352 651.587 105.985 651.587 105.566V104.857H648.498C647.855 104.857 647.35 104.988 646.983 105.251C646.616 105.5 646.432 105.9 646.432 106.451C646.432 106.936 646.603 107.336 646.944 107.651C647.298 107.966 647.849 108.123 648.596 108.123ZM656.572 95.7293H658.303V103.874L663.103 99.0736H665.228L660.9 103.382L665.621 109.5H663.418L659.661 104.582L658.303 105.861V109.5H656.572V95.7293ZM671.836 109.697C671.167 109.697 670.531 109.592 669.928 109.382C669.324 109.172 668.793 108.851 668.334 108.418C667.875 107.972 667.508 107.415 667.233 106.746C666.957 106.077 666.819 105.29 666.819 104.385V103.992C666.819 103.126 666.951 102.379 667.213 101.749C667.475 101.106 667.823 100.575 668.256 100.156C668.701 99.7228 669.213 99.4015 669.79 99.1917C670.38 98.9818 670.997 98.8769 671.639 98.8769C673.174 98.8769 674.361 99.2966 675.2 100.136C676.039 100.975 676.459 102.162 676.459 103.697V104.798H668.551C668.551 105.415 668.649 105.933 668.846 106.352C669.042 106.772 669.298 107.113 669.613 107.375C669.928 107.638 670.275 107.828 670.656 107.946C671.049 108.064 671.442 108.123 671.836 108.123C672.623 108.123 673.226 107.992 673.646 107.729C674.079 107.467 674.387 107.107 674.57 106.647H676.262C676.157 107.146 675.967 107.585 675.692 107.966C675.429 108.346 675.102 108.667 674.708 108.929C674.328 109.179 673.888 109.369 673.39 109.5C672.905 109.631 672.387 109.697 671.836 109.697ZM671.738 100.451C671.331 100.451 670.938 100.51 670.557 100.628C670.177 100.733 669.836 100.91 669.534 101.159C669.246 101.395 669.01 101.697 668.826 102.064C668.642 102.431 668.551 102.87 668.551 103.382H674.826C674.813 102.844 674.721 102.392 674.551 102.024C674.393 101.644 674.177 101.343 673.902 101.12C673.626 100.883 673.298 100.713 672.918 100.608C672.551 100.503 672.157 100.451 671.738 100.451ZM679.116 99.0736H680.729V101.041C680.952 100.424 681.32 99.913 681.831 99.5064C682.356 99.0867 682.992 98.8769 683.739 98.8769C684.002 98.8769 684.211 98.89 684.369 98.9162C684.539 98.9425 684.69 98.9753 684.821 99.0146V100.628C684.651 100.562 684.48 100.516 684.31 100.49C684.152 100.464 683.929 100.451 683.641 100.451C683.247 100.451 682.88 100.523 682.539 100.667C682.198 100.811 681.903 101.015 681.654 101.277C681.405 101.526 681.208 101.834 681.064 102.202C680.92 102.569 680.847 102.969 680.847 103.402V109.5H679.116V99.0736Z" fill="white" fill-opacity="0.8"/>
<rect x="573.5" y="84.5459" width="127" height="34.9082" rx="17.4541" stroke="white" stroke-opacity="0.4"/>
</g>
<g filter="url(#filter14_b_173_590)">
<rect x="85" y="482.046" width="146" height="35.9082" rx="17.9541" fill="#35363D" fill-opacity="0.2"/>
<path d="M100.243 493.729H104.964C105.869 493.729 106.656 493.834 107.325 494.044C107.994 494.254 108.544 494.549 108.977 494.929C109.423 495.297 109.751 495.742 109.961 496.267C110.171 496.779 110.276 497.342 110.276 497.959C110.276 498.575 110.171 499.146 109.961 499.67C109.751 500.182 109.423 500.628 108.977 501.008C108.544 501.375 107.994 501.664 107.325 501.874C106.656 502.084 105.869 502.188 104.964 502.188H102.092V507.5H100.243V493.729ZM104.866 500.575C105.521 500.575 106.072 500.516 106.518 500.398C106.977 500.267 107.344 500.09 107.62 499.867C107.908 499.644 108.112 499.369 108.23 499.041C108.361 498.713 108.426 498.352 108.426 497.959C108.426 497.565 108.361 497.205 108.23 496.877C108.112 496.549 107.908 496.274 107.62 496.051C107.344 495.828 106.977 495.657 106.518 495.539C106.072 495.408 105.521 495.342 104.866 495.342H102.092V500.575H104.866ZM117.073 507.697C116.404 507.697 115.768 507.592 115.164 507.382C114.561 507.159 114.03 506.831 113.571 506.398C113.112 505.952 112.745 505.395 112.469 504.726C112.194 504.057 112.056 503.277 112.056 502.385V501.992C112.056 501.152 112.194 500.411 112.469 499.769C112.745 499.126 113.112 498.595 113.571 498.175C114.03 497.742 114.561 497.421 115.164 497.211C115.768 496.988 116.404 496.877 117.073 496.877C117.741 496.877 118.377 496.988 118.981 497.211C119.584 497.421 120.115 497.742 120.574 498.175C121.033 498.595 121.4 499.126 121.676 499.769C121.951 500.411 122.089 501.152 122.089 501.992V502.385C122.089 503.277 121.951 504.057 121.676 504.726C121.4 505.395 121.033 505.952 120.574 506.398C120.115 506.831 119.584 507.159 118.981 507.382C118.377 507.592 117.741 507.697 117.073 507.697ZM117.073 506.123C117.466 506.123 117.859 506.057 118.253 505.926C118.646 505.782 118.994 505.566 119.296 505.277C119.597 504.975 119.84 504.588 120.023 504.116C120.22 503.644 120.318 503.067 120.318 502.385V501.992C120.318 501.362 120.22 500.824 120.023 500.379C119.84 499.933 119.597 499.565 119.296 499.277C118.994 498.988 118.646 498.779 118.253 498.647C117.859 498.516 117.466 498.451 117.073 498.451C116.679 498.451 116.286 498.516 115.892 498.647C115.499 498.779 115.151 498.988 114.85 499.277C114.548 499.565 114.299 499.933 114.102 500.379C113.918 500.824 113.827 501.362 113.827 501.992V502.385C113.827 503.067 113.918 503.644 114.102 504.116C114.299 504.588 114.548 504.975 114.85 505.277C115.151 505.566 115.499 505.782 115.892 505.926C116.286 506.057 116.679 506.123 117.073 506.123ZM127.885 507.598C126.796 507.598 126.016 507.336 125.544 506.811C125.072 506.287 124.835 505.434 124.835 504.254V493.729H126.567V504.254C126.567 504.936 126.678 505.402 126.901 505.651C127.124 505.9 127.517 506.025 128.081 506.025C128.226 506.025 128.35 506.025 128.455 506.025C128.56 506.011 128.665 505.998 128.77 505.985V507.52C128.665 507.546 128.514 507.566 128.317 507.579C128.134 507.592 127.99 507.598 127.885 507.598ZM131.235 493.729H132.966V501.874L137.766 497.074H139.891L135.563 501.382L140.284 507.5H138.081L134.324 502.582L132.966 503.861V507.5H131.235V493.729ZM145.334 507.697C144.757 507.697 144.245 507.618 143.799 507.461C143.366 507.29 142.999 507.061 142.698 506.772C142.396 506.484 142.166 506.143 142.009 505.749C141.852 505.356 141.773 504.923 141.773 504.451C141.773 503.415 142.075 502.667 142.678 502.208C143.294 501.749 144.173 501.52 145.314 501.52H148.698V500.811C148.698 499.92 148.494 499.303 148.088 498.962C147.694 498.621 147.098 498.451 146.298 498.451C145.55 498.451 145.006 498.595 144.665 498.883C144.324 499.159 144.134 499.474 144.094 499.828H142.363C142.389 499.408 142.501 499.021 142.698 498.667C142.907 498.3 143.183 497.985 143.524 497.723C143.878 497.461 144.298 497.257 144.783 497.113C145.268 496.956 145.806 496.877 146.396 496.877C147.629 496.877 148.606 497.172 149.327 497.762C150.062 498.339 150.429 499.29 150.429 500.615V504.844C150.429 505.395 150.429 505.88 150.429 506.3C150.442 506.707 150.475 507.107 150.527 507.5H149.012C148.973 507.198 148.947 506.916 148.934 506.654C148.921 506.379 148.914 506.07 148.914 505.729C148.639 506.28 148.193 506.746 147.576 507.126C146.96 507.507 146.212 507.697 145.334 507.697ZM145.707 506.123C146.114 506.123 146.494 506.07 146.848 505.966C147.216 505.848 147.537 505.684 147.812 505.474C148.088 505.251 148.304 504.982 148.462 504.667C148.619 504.352 148.698 503.985 148.698 503.566V502.857H145.609C144.966 502.857 144.462 502.988 144.094 503.251C143.727 503.5 143.543 503.9 143.543 504.451C143.543 504.936 143.714 505.336 144.055 505.651C144.409 505.966 144.96 506.123 145.707 506.123ZM157.323 507.697C156.628 507.697 156.024 507.618 155.513 507.461C155.014 507.29 154.588 507.067 154.234 506.792C153.88 506.516 153.605 506.195 153.408 505.828C153.211 505.461 153.073 505.067 152.995 504.647H154.726C154.818 505.067 155.06 505.434 155.454 505.749C155.86 506.051 156.483 506.202 157.323 506.202C157.808 506.202 158.214 506.162 158.542 506.084C158.87 505.992 159.132 505.88 159.329 505.749C159.539 505.605 159.69 505.441 159.782 505.257C159.873 505.061 159.919 504.857 159.919 504.647C159.919 504.425 159.873 504.228 159.782 504.057C159.703 503.887 159.552 503.736 159.329 503.605C159.119 503.461 158.824 503.336 158.444 503.231C158.077 503.113 157.611 503.015 157.047 502.936C156.47 502.857 155.946 502.746 155.473 502.602C155.014 502.444 154.621 502.241 154.293 501.992C153.978 501.743 153.729 501.447 153.546 501.106C153.375 500.752 153.29 500.326 153.29 499.828C153.29 499.434 153.375 499.061 153.546 498.706C153.716 498.352 153.972 498.038 154.313 497.762C154.654 497.487 155.073 497.27 155.572 497.113C156.07 496.956 156.654 496.877 157.323 496.877C157.939 496.877 158.477 496.962 158.936 497.133C159.395 497.29 159.782 497.506 160.096 497.782C160.424 498.057 160.68 498.379 160.864 498.746C161.047 499.113 161.178 499.506 161.257 499.926H159.526C159.421 499.467 159.198 499.093 158.857 498.805C158.516 498.516 158.005 498.372 157.323 498.372C156.47 498.372 155.873 498.516 155.532 498.805C155.191 499.08 155.021 499.421 155.021 499.828C155.021 500.064 155.06 500.267 155.139 500.438C155.231 500.608 155.375 500.759 155.572 500.89C155.782 501.021 156.05 501.133 156.378 501.224C156.719 501.303 157.139 501.375 157.637 501.441C158.28 501.52 158.85 501.638 159.349 501.795C159.847 501.939 160.267 502.143 160.608 502.405C160.949 502.654 161.205 502.962 161.375 503.329C161.559 503.697 161.651 504.136 161.651 504.647C161.651 505.067 161.559 505.461 161.375 505.828C161.205 506.195 160.942 506.516 160.588 506.792C160.234 507.067 159.782 507.29 159.231 507.461C158.693 507.618 158.057 507.697 157.323 507.697ZM168.148 507.598C167.033 507.598 166.226 507.349 165.728 506.851C165.243 506.339 165 505.572 165 504.549V498.608H163.426V497.074H165V494.713H166.731V497.074H169.525V498.608H166.731V504.352C166.731 504.943 166.856 505.369 167.105 505.631C167.354 505.893 167.833 506.025 168.541 506.025C168.935 506.025 169.328 506.005 169.722 505.966V507.5C169.472 507.526 169.223 507.546 168.974 507.559C168.725 507.585 168.449 507.598 168.148 507.598ZM175.356 507.697C174.779 507.697 174.267 507.618 173.821 507.461C173.388 507.29 173.021 507.061 172.72 506.772C172.418 506.484 172.188 506.143 172.031 505.749C171.874 505.356 171.795 504.923 171.795 504.451C171.795 503.415 172.097 502.667 172.7 502.208C173.316 501.749 174.195 501.52 175.336 501.52H178.72V500.811C178.72 499.92 178.516 499.303 178.11 498.962C177.716 498.621 177.12 498.451 176.32 498.451C175.572 498.451 175.028 498.595 174.687 498.883C174.346 499.159 174.156 499.474 174.116 499.828H172.385C172.411 499.408 172.523 499.021 172.72 498.667C172.929 498.3 173.205 497.985 173.546 497.723C173.9 497.461 174.32 497.257 174.805 497.113C175.29 496.956 175.828 496.877 176.418 496.877C177.651 496.877 178.628 497.172 179.349 497.762C180.084 498.339 180.451 499.29 180.451 500.615V504.844C180.451 505.395 180.451 505.88 180.451 506.3C180.464 506.707 180.497 507.107 180.549 507.5H179.034C178.995 507.198 178.969 506.916 178.956 506.654C178.943 506.379 178.936 506.07 178.936 505.729C178.661 506.28 178.215 506.746 177.598 507.126C176.982 507.507 176.234 507.697 175.356 507.697ZM175.729 506.123C176.136 506.123 176.516 506.07 176.87 505.966C177.238 505.848 177.559 505.684 177.834 505.474C178.11 505.251 178.326 504.982 178.484 504.667C178.641 504.352 178.72 503.985 178.72 503.566V502.857H175.631C174.988 502.857 174.483 502.988 174.116 503.251C173.749 503.5 173.565 503.9 173.565 504.451C173.565 504.936 173.736 505.336 174.077 505.651C174.431 505.966 174.982 506.123 175.729 506.123ZM183.705 497.074H185.318V499.041C185.541 498.424 185.908 497.913 186.42 497.506C186.945 497.087 187.581 496.877 188.328 496.877C188.59 496.877 188.8 496.89 188.958 496.916C189.128 496.942 189.279 496.975 189.41 497.015V498.628C189.24 498.562 189.069 498.516 188.899 498.49C188.741 498.464 188.518 498.451 188.23 498.451C187.836 498.451 187.469 498.523 187.128 498.667C186.787 498.811 186.492 499.015 186.243 499.277C185.994 499.526 185.797 499.834 185.653 500.202C185.508 500.569 185.436 500.969 185.436 501.402V507.5H183.705V497.074ZM195.788 507.598C194.673 507.598 193.866 507.349 193.368 506.851C192.883 506.339 192.64 505.572 192.64 504.549V498.608H191.066V497.074H192.64V494.713H194.371V497.074H197.165V498.608H194.371V504.352C194.371 504.943 194.496 505.369 194.745 505.631C194.994 505.893 195.473 506.025 196.181 506.025C196.574 506.025 196.968 506.005 197.361 505.966V507.5C197.112 507.526 196.863 507.546 196.614 507.559C196.365 507.585 196.089 507.598 195.788 507.598ZM204.353 507.697C203.684 507.697 203.048 507.592 202.445 507.382C201.841 507.172 201.31 506.851 200.851 506.418C200.392 505.972 200.025 505.415 199.749 504.746C199.474 504.077 199.336 503.29 199.336 502.385V501.992C199.336 501.126 199.467 500.379 199.73 499.749C199.992 499.106 200.34 498.575 200.772 498.156C201.218 497.723 201.73 497.401 202.307 497.192C202.897 496.982 203.513 496.877 204.156 496.877C205.69 496.877 206.877 497.297 207.717 498.136C208.556 498.975 208.976 500.162 208.976 501.697V502.798H201.067C201.067 503.415 201.166 503.933 201.363 504.352C201.559 504.772 201.815 505.113 202.13 505.375C202.445 505.638 202.792 505.828 203.172 505.946C203.566 506.064 203.959 506.123 204.353 506.123C205.14 506.123 205.743 505.992 206.163 505.729C206.595 505.467 206.904 505.107 207.087 504.647H208.779C208.674 505.146 208.484 505.585 208.209 505.966C207.946 506.346 207.618 506.667 207.225 506.929C206.845 507.179 206.405 507.369 205.907 507.5C205.422 507.631 204.904 507.697 204.353 507.697ZM204.254 498.451C203.848 498.451 203.454 498.51 203.074 498.628C202.694 498.733 202.353 498.91 202.051 499.159C201.763 499.395 201.526 499.697 201.343 500.064C201.159 500.431 201.067 500.87 201.067 501.382H207.343C207.33 500.844 207.238 500.392 207.068 500.024C206.91 499.644 206.694 499.343 206.418 499.12C206.143 498.883 205.815 498.713 205.435 498.608C205.068 498.503 204.674 498.451 204.254 498.451ZM211.633 497.074H213.246V499.041C213.469 498.424 213.836 497.913 214.348 497.506C214.872 497.087 215.509 496.877 216.256 496.877C216.518 496.877 216.728 496.89 216.886 496.916C217.056 496.942 217.207 496.975 217.338 497.015V498.628C217.168 498.562 216.997 498.516 216.827 498.49C216.669 498.464 216.446 498.451 216.158 498.451C215.764 498.451 215.397 498.523 215.056 498.667C214.715 498.811 214.42 499.015 214.171 499.277C213.922 499.526 213.725 499.834 213.581 500.202C213.436 500.569 213.364 500.969 213.364 501.402V507.5H211.633V497.074Z" fill="white" fill-opacity="0.8"/>
<rect x="85.5" y="482.546" width="145" height="34.9082" rx="17.4541" stroke="white" stroke-opacity="0.4"/>
</g>
<g filter="url(#filter15_b_173_590)">
<rect x="333" y="612.046" width="106" height="35.9082" rx="17.9541" fill="#35363D" fill-opacity="0.2"/>
<path d="M349.425 623.729H354.343C355.169 623.729 355.878 623.821 356.468 624.005C357.058 624.188 357.543 624.444 357.924 624.772C358.317 625.087 358.606 625.474 358.789 625.933C358.973 626.379 359.065 626.87 359.065 627.408C359.065 628.116 358.868 628.726 358.474 629.238C358.081 629.736 357.596 630.097 357.019 630.32C357.832 630.503 358.474 630.877 358.947 631.441C359.419 631.992 359.655 632.713 359.655 633.605C359.655 634.169 359.563 634.687 359.379 635.159C359.196 635.631 358.907 636.044 358.514 636.398C358.12 636.739 357.609 637.008 356.979 637.205C356.363 637.402 355.615 637.5 354.737 637.5H349.425V623.729ZM354.737 635.887C355.327 635.887 355.819 635.834 356.212 635.729C356.605 635.611 356.92 635.454 357.156 635.257C357.392 635.048 357.556 634.798 357.648 634.51C357.753 634.221 357.806 633.9 357.806 633.546C357.806 633.192 357.753 632.87 357.648 632.582C357.556 632.28 357.392 632.031 357.156 631.834C356.92 631.625 356.599 631.467 356.192 631.362C355.799 631.244 355.307 631.185 354.717 631.185H351.274V635.887H354.737ZM354.343 629.651C354.894 629.651 355.353 629.598 355.72 629.493C356.087 629.388 356.383 629.238 356.605 629.041C356.828 628.844 356.986 628.615 357.078 628.352C357.169 628.09 357.215 627.801 357.215 627.487C357.215 627.172 357.169 626.883 357.078 626.621C356.986 626.346 356.828 626.116 356.605 625.933C356.383 625.749 356.087 625.605 355.72 625.5C355.353 625.395 354.894 625.342 354.343 625.342H351.274V629.651H354.343ZM362.604 627.074H364.335V637.5H362.604V627.074ZM363.47 625.697C363.129 625.697 362.847 625.585 362.624 625.362C362.401 625.139 362.289 624.857 362.289 624.516C362.289 624.175 362.401 623.893 362.624 623.67C362.847 623.447 363.129 623.336 363.47 623.336C363.811 623.336 364.093 623.447 364.316 623.67C364.538 623.893 364.65 624.175 364.65 624.516C364.65 624.857 364.538 625.139 364.316 625.362C364.093 625.585 363.811 625.697 363.47 625.697ZM367.868 627.074H369.481V629.041C369.599 628.752 369.763 628.477 369.973 628.215C370.183 627.952 370.432 627.723 370.72 627.526C371.022 627.329 371.363 627.172 371.743 627.054C372.137 626.936 372.57 626.877 373.042 626.877C374.353 626.877 375.324 627.231 375.953 627.939C376.596 628.634 376.917 629.657 376.917 631.008V637.5H375.186V631.402C375.186 630.431 374.983 629.697 374.576 629.198C374.17 628.7 373.488 628.451 372.53 628.451C372.019 628.451 371.573 628.536 371.193 628.706C370.825 628.877 370.524 629.1 370.288 629.375C370.052 629.651 369.875 629.965 369.757 630.32C369.652 630.674 369.599 631.034 369.599 631.402V637.5H367.868V627.074ZM383.138 637.697C382.561 637.697 382.05 637.618 381.604 637.461C381.171 637.29 380.804 637.061 380.502 636.772C380.201 636.484 379.971 636.143 379.814 635.749C379.656 635.356 379.578 634.923 379.578 634.451C379.578 633.415 379.879 632.667 380.483 632.208C381.099 631.749 381.978 631.52 383.119 631.52H386.502V630.811C386.502 629.92 386.299 629.303 385.892 628.962C385.499 628.621 384.902 628.451 384.102 628.451C383.355 628.451 382.81 628.595 382.469 628.883C382.129 629.159 381.938 629.474 381.899 629.828H380.168C380.194 629.408 380.306 629.021 380.502 628.667C380.712 628.3 380.988 627.985 381.328 627.723C381.683 627.461 382.102 627.257 382.588 627.113C383.073 626.956 383.61 626.877 384.201 626.877C385.433 626.877 386.411 627.172 387.132 627.762C387.866 628.339 388.234 629.29 388.234 630.615V634.844C388.234 635.395 388.234 635.88 388.234 636.3C388.247 636.707 388.279 637.107 388.332 637.5H386.817C386.778 637.198 386.752 636.916 386.738 636.654C386.725 636.379 386.719 636.07 386.719 635.729C386.443 636.28 385.997 636.746 385.381 637.126C384.765 637.507 384.017 637.697 383.138 637.697ZM383.512 636.123C383.919 636.123 384.299 636.07 384.653 635.966C385.02 635.848 385.342 635.684 385.617 635.474C385.892 635.251 386.109 634.982 386.266 634.667C386.424 634.352 386.502 633.985 386.502 633.566V632.857H383.414C382.771 632.857 382.266 632.988 381.899 633.251C381.532 633.5 381.348 633.9 381.348 634.451C381.348 634.936 381.519 635.336 381.86 635.651C382.214 635.966 382.765 636.123 383.512 636.123ZM391.488 627.074H393.101V629.041C393.219 628.752 393.383 628.477 393.593 628.215C393.803 627.952 394.052 627.723 394.34 627.526C394.642 627.329 394.983 627.172 395.363 627.054C395.757 626.936 396.19 626.877 396.662 626.877C397.973 626.877 398.944 627.231 399.573 627.939C400.216 628.634 400.537 629.657 400.537 631.008V637.5H398.806V631.402C398.806 630.431 398.603 629.697 398.196 629.198C397.79 628.7 397.108 628.451 396.15 628.451C395.639 628.451 395.193 628.536 394.813 628.706C394.445 628.877 394.144 629.1 393.908 629.375C393.672 629.651 393.495 629.965 393.376 630.32C393.272 630.674 393.219 631.034 393.219 631.402V637.5H391.488V627.074ZM407.821 637.697C407.152 637.697 406.529 637.592 405.952 637.382C405.375 637.159 404.876 636.831 404.457 636.398C404.037 635.952 403.703 635.395 403.453 634.726C403.217 634.057 403.099 633.277 403.099 632.385V631.992C403.099 631.152 403.23 630.411 403.493 629.769C403.755 629.126 404.103 628.595 404.535 628.175C404.968 627.742 405.466 627.421 406.03 627.211C406.608 626.988 407.204 626.877 407.821 626.877C408.437 626.877 408.988 626.962 409.473 627.133C409.971 627.303 410.398 627.539 410.752 627.841C411.119 628.142 411.414 628.497 411.637 628.903C411.873 629.31 412.044 629.749 412.149 630.221H410.378C410.273 629.972 410.149 629.743 410.004 629.533C409.873 629.31 409.703 629.12 409.493 628.962C409.296 628.805 409.06 628.68 408.785 628.588C408.509 628.497 408.188 628.451 407.821 628.451C407.44 628.451 407.073 628.523 406.719 628.667C406.365 628.798 406.05 629.008 405.775 629.297C405.499 629.572 405.276 629.933 405.106 630.379C404.948 630.824 404.87 631.362 404.87 631.992V632.385C404.87 633.054 404.948 633.631 405.106 634.116C405.276 634.588 405.499 634.975 405.775 635.277C406.05 635.566 406.365 635.782 406.719 635.926C407.073 636.057 407.44 636.123 407.821 636.123C408.463 636.123 409.001 635.966 409.434 635.651C409.88 635.336 410.194 634.903 410.378 634.352H412.149C411.899 635.388 411.388 636.208 410.614 636.811C409.84 637.402 408.909 637.697 407.821 637.697ZM419.032 637.697C418.364 637.697 417.727 637.592 417.124 637.382C416.521 637.172 415.99 636.851 415.531 636.418C415.072 635.972 414.704 635.415 414.429 634.746C414.154 634.077 414.016 633.29 414.016 632.385V631.992C414.016 631.126 414.147 630.379 414.409 629.749C414.672 629.106 415.019 628.575 415.452 628.156C415.898 627.723 416.409 627.401 416.986 627.192C417.577 626.982 418.193 626.877 418.836 626.877C420.37 626.877 421.557 627.297 422.396 628.136C423.236 628.975 423.655 630.162 423.655 631.697V632.798H415.747C415.747 633.415 415.845 633.933 416.042 634.352C416.239 634.772 416.495 635.113 416.809 635.375C417.124 635.638 417.472 635.828 417.852 635.946C418.245 636.064 418.639 636.123 419.032 636.123C419.819 636.123 420.423 635.992 420.842 635.729C421.275 635.467 421.583 635.107 421.767 634.647H423.459C423.354 635.146 423.164 635.585 422.888 635.966C422.626 636.346 422.298 636.667 421.905 636.929C421.524 637.179 421.085 637.369 420.586 637.5C420.101 637.631 419.583 637.697 419.032 637.697ZM418.934 628.451C418.527 628.451 418.134 628.51 417.754 628.628C417.373 628.733 417.032 628.91 416.731 629.159C416.442 629.395 416.206 629.697 416.022 630.064C415.839 630.431 415.747 630.87 415.747 631.382H422.023C422.009 630.844 421.918 630.392 421.747 630.024C421.59 629.644 421.373 629.343 421.098 629.12C420.823 628.883 420.495 628.713 420.114 628.608C419.747 628.503 419.354 628.451 418.934 628.451Z" fill="white" fill-opacity="0.8"/>
<rect x="333.5" y="612.546" width="105" height="34.9082" rx="17.4541" stroke="white" stroke-opacity="0.4"/>
</g>
<g filter="url(#filter16_b_173_590)">
<rect x="680" y="576.046" width="86" height="35.9082" rx="17.9541" fill="#35363D" fill-opacity="0.2"/>
<path d="M696.655 601.697C695.842 601.697 695.068 601.566 694.333 601.303C693.612 601.028 692.976 600.608 692.425 600.044C691.887 599.467 691.455 598.739 691.127 597.861C690.812 596.982 690.655 595.933 690.655 594.713V594.32C690.655 593.139 690.812 592.123 691.127 591.27C691.455 590.418 691.887 589.716 692.425 589.165C692.976 588.615 693.612 588.208 694.333 587.946C695.068 587.67 695.842 587.533 696.655 587.533C697.324 587.533 697.947 587.631 698.524 587.828C699.101 588.011 699.619 588.28 700.078 588.634C700.537 588.988 700.924 589.421 701.238 589.933C701.566 590.444 701.809 591.021 701.966 591.664H699.999C699.71 590.798 699.258 590.169 698.642 589.775C698.025 589.382 697.363 589.185 696.655 589.185C696.117 589.185 695.606 589.277 695.12 589.46C694.635 589.644 694.202 589.939 693.822 590.346C693.455 590.739 693.16 591.264 692.937 591.92C692.727 592.575 692.622 593.375 692.622 594.32V594.713C692.622 595.71 692.74 596.549 692.976 597.231C693.212 597.9 693.52 598.444 693.901 598.864C694.294 599.284 694.727 599.585 695.199 599.769C695.684 599.952 696.169 600.044 696.655 600.044C697.743 600.044 698.629 599.736 699.31 599.12C699.992 598.503 700.386 597.493 700.491 596.09H697.048V594.516H702.261V595.106C702.261 596.169 702.13 597.113 701.868 597.939C701.606 598.752 701.232 599.441 700.747 600.005C700.274 600.556 699.691 600.975 698.996 601.264C698.301 601.552 697.52 601.697 696.655 601.697ZM708.086 601.697C707.509 601.697 706.997 601.618 706.551 601.461C706.119 601.29 705.751 601.061 705.45 600.772C705.148 600.484 704.919 600.143 704.761 599.749C704.604 599.356 704.525 598.923 704.525 598.451C704.525 597.415 704.827 596.667 705.43 596.208C706.047 595.749 706.925 595.52 708.066 595.52H711.45V594.811C711.45 593.92 711.247 593.303 710.84 592.962C710.447 592.621 709.85 592.451 709.05 592.451C708.302 592.451 707.758 592.595 707.417 592.883C707.076 593.159 706.886 593.474 706.847 593.828H705.115C705.142 593.408 705.253 593.021 705.45 592.667C705.66 592.3 705.935 591.985 706.276 591.723C706.63 591.461 707.05 591.257 707.535 591.113C708.02 590.956 708.558 590.877 709.148 590.877C710.381 590.877 711.358 591.172 712.079 591.762C712.814 592.339 713.181 593.29 713.181 594.615V598.844C713.181 599.395 713.181 599.88 713.181 600.3C713.194 600.707 713.227 601.107 713.279 601.5H711.765C711.725 601.198 711.699 600.916 711.686 600.654C711.673 600.379 711.666 600.07 711.666 599.729C711.391 600.28 710.945 600.746 710.329 601.126C709.712 601.507 708.965 601.697 708.086 601.697ZM708.46 600.123C708.866 600.123 709.247 600.07 709.601 599.966C709.968 599.848 710.289 599.684 710.565 599.474C710.84 599.251 711.056 598.982 711.214 598.667C711.371 598.352 711.45 597.985 711.45 597.566V596.857H708.361C707.719 596.857 707.214 596.988 706.847 597.251C706.479 597.5 706.296 597.9 706.296 598.451C706.296 598.936 706.466 599.336 706.807 599.651C707.161 599.966 707.712 600.123 708.46 600.123ZM716.435 591.074H718.049V593.041C718.272 592.398 718.652 591.88 719.19 591.487C719.74 591.08 720.363 590.877 721.059 590.877C721.963 590.877 722.659 591.074 723.144 591.467C723.629 591.847 723.963 592.339 724.147 592.942C724.488 592.3 724.921 591.795 725.445 591.428C725.983 591.061 726.626 590.877 727.373 590.877C728.449 590.877 729.288 591.205 729.891 591.861C730.495 592.503 730.796 593.52 730.796 594.91V601.5H729.065V595.303C729.065 594.267 728.882 593.533 728.514 593.1C728.16 592.667 727.616 592.451 726.882 592.451C726.567 592.451 726.265 592.516 725.977 592.647C725.688 592.779 725.432 592.969 725.209 593.218C724.986 593.467 724.809 593.769 724.678 594.123C724.547 594.477 724.482 594.87 724.482 595.303V601.5H722.75V595.303C722.75 594.267 722.567 593.533 722.2 593.1C721.832 592.667 721.288 592.451 720.567 592.451C720.252 592.451 719.95 592.516 719.662 592.647C719.373 592.779 719.117 592.969 718.895 593.218C718.672 593.467 718.495 593.769 718.363 594.123C718.232 594.477 718.167 594.87 718.167 595.303V601.5H716.435V591.074ZM738.366 601.697C737.697 601.697 737.061 601.592 736.457 601.382C735.854 601.172 735.323 600.851 734.864 600.418C734.405 599.972 734.038 599.415 733.762 598.746C733.487 598.077 733.349 597.29 733.349 596.385V595.992C733.349 595.126 733.48 594.379 733.743 593.749C734.005 593.106 734.352 592.575 734.785 592.156C735.231 591.723 735.743 591.401 736.32 591.192C736.91 590.982 737.526 590.877 738.169 590.877C739.703 590.877 740.89 591.297 741.73 592.136C742.569 592.975 742.989 594.162 742.989 595.697V596.798H735.08C735.08 597.415 735.179 597.933 735.375 598.352C735.572 598.772 735.828 599.113 736.143 599.375C736.457 599.638 736.805 599.828 737.185 599.946C737.579 600.064 737.972 600.123 738.366 600.123C739.153 600.123 739.756 599.992 740.175 599.729C740.608 599.467 740.916 599.107 741.1 598.647H742.792C742.687 599.146 742.497 599.585 742.221 599.966C741.959 600.346 741.631 600.667 741.238 600.929C740.857 601.179 740.418 601.369 739.92 601.5C739.434 601.631 738.916 601.697 738.366 601.697ZM738.267 592.451C737.861 592.451 737.467 592.51 737.087 592.628C736.707 592.733 736.366 592.91 736.064 593.159C735.775 593.395 735.539 593.697 735.356 594.064C735.172 594.431 735.08 594.87 735.08 595.382H741.356C741.343 594.844 741.251 594.392 741.08 594.024C740.923 593.644 740.707 593.343 740.431 593.12C740.156 592.883 739.828 592.713 739.448 592.608C739.08 592.503 738.687 592.451 738.267 592.451ZM746.044 592.608H744.569V591.074H746.044V590.877C746.044 589.788 746.293 588.975 746.792 588.438C747.303 587.9 748.103 587.631 749.192 587.631C749.585 587.631 750.077 587.651 750.667 587.69V589.264C750.47 589.238 750.254 589.224 750.018 589.224C749.795 589.211 749.585 589.205 749.388 589.205C748.785 589.205 748.365 589.329 748.129 589.579C747.893 589.815 747.775 590.247 747.775 590.877V591.074H750.47V592.608H747.775V601.5H746.044V592.608ZM753.032 591.074H754.764V601.5H753.032V591.074ZM753.898 589.697C753.557 589.697 753.275 589.585 753.052 589.362C752.829 589.139 752.718 588.857 752.718 588.516C752.718 588.175 752.829 587.893 753.052 587.67C753.275 587.447 753.557 587.336 753.898 587.336C754.239 587.336 754.521 587.447 754.744 587.67C754.967 587.893 755.078 588.175 755.078 588.516C755.078 588.857 754.967 589.139 754.744 589.362C754.521 589.585 754.239 589.697 753.898 589.697Z" fill="white" fill-opacity="0.8"/>
<rect x="680.5" y="576.546" width="85" height="34.9082" rx="17.4541" stroke="white" stroke-opacity="0.4"/>
</g>
<defs>
<filter id="filter0_f_173_590" x="82.5" y="3.5" width="757" height="757" filterUnits="userSpaceOnUse" color-interpolation-filters="sRGB">
<feFlood flood-opacity="0" result="BackgroundImageFix"/>
<feBlend mode="normal" in="SourceGraphic" in2="BackgroundImageFix" result="shape"/>
<feGaussianBlur stdDeviation="23.5" result="effect1_foregroundBlur_173_590"/>
</filter>
<filter id="filter1_f_173_590" x="99.5" y="20.5" width="723" height="723" filterUnits="userSpaceOnUse" color-interpolation-filters="sRGB">
<feFlood flood-opacity="0" result="BackgroundImageFix"/>
<feBlend mode="normal" in="SourceGraphic" in2="BackgroundImageFix" result="shape"/>
<feGaussianBlur stdDeviation="15" result="effect1_foregroundBlur_173_590"/>
</filter>
<filter id="filter2_f_173_590" x="82.5" y="3.5" width="757" height="757" filterUnits="userSpaceOnUse" color-interpolation-filters="sRGB">
<feFlood flood-opacity="0" result="BackgroundImageFix"/>
<feBlend mode="normal" in="SourceGraphic" in2="BackgroundImageFix" result="shape"/>
<feGaussianBlur stdDeviation="23.5" result="effect1_foregroundBlur_173_590"/>
</filter>
<filter id="filter3_f_173_590" x="101.5" y="22.5" width="719" height="719" filterUnits="userSpaceOnUse" color-interpolation-filters="sRGB">
<feFlood flood-opacity="0" result="BackgroundImageFix"/>
<feBlend mode="normal" in="SourceGraphic" in2="BackgroundImageFix" result="shape"/>
<feGaussianBlur stdDeviation="14" result="effect1_foregroundBlur_173_590"/>
</filter>
<filter id="filter4_f_173_590" x="102" y="325.81" width="390.941" height="97" filterUnits="userSpaceOnUse" color-interpolation-filters="sRGB">
<feFlood flood-opacity="0" result="BackgroundImageFix"/>
<feBlend mode="normal" in="SourceGraphic" in2="BackgroundImageFix" result="shape"/>
<feGaussianBlur stdDeviation="12" result="effect1_foregroundBlur_173_590"/>
</filter>
<filter id="filter5_f_173_590" x="318.699" y="240.699" width="272.784" height="238.73" filterUnits="userSpaceOnUse" color-interpolation-filters="sRGB">
<feFlood flood-opacity="0" result="BackgroundImageFix"/>
<feBlend mode="normal" in="SourceGraphic" in2="BackgroundImageFix" result="shape"/>
<feGaussianBlur stdDeviation="3.87549" result="effect1_foregroundBlur_173_590"/>
</filter>
<filter id="filter6_f_173_590" x="409" y="148" width="415" height="274" filterUnits="userSpaceOnUse" color-interpolation-filters="sRGB">
<feFlood flood-opacity="0" result="BackgroundImageFix"/>
<feBlend mode="normal" in="SourceGraphic" in2="BackgroundImageFix" result="shape"/>
<feGaussianBlur stdDeviation="30.5" result="effect1_foregroundBlur_173_590"/>
</filter>
<filter id="filter7_f_173_590" x="409" y="201" width="428" height="229" filterUnits="userSpaceOnUse" color-interpolation-filters="sRGB">
<feFlood flood-opacity="0" result="BackgroundImageFix"/>
<feBlend mode="normal" in="SourceGraphic" in2="BackgroundImageFix" result="shape"/>
<feGaussianBlur stdDeviation="30.5" result="effect1_foregroundBlur_173_590"/>
</filter>
<filter id="filter8_f_173_590" x="409" y="253.5" width="432.712" height="184.5" filterUnits="userSpaceOnUse" color-interpolation-filters="sRGB">
<feFlood flood-opacity="0" result="BackgroundImageFix"/>
<feBlend mode="normal" in="SourceGraphic" in2="BackgroundImageFix" result="shape"/>
<feGaussianBlur stdDeviation="30.5" result="effect1_foregroundBlur_173_590"/>
</filter>
<filter id="filter9_f_173_590" x="408.132" y="303" width="433.368" height="175.5" filterUnits="userSpaceOnUse" color-interpolation-filters="sRGB">
<feFlood flood-opacity="0" result="BackgroundImageFix"/>
<feBlend mode="normal" in="SourceGraphic" in2="BackgroundImageFix" result="shape"/>
<feGaussianBlur stdDeviation="30.5" result="effect1_foregroundBlur_173_590"/>
</filter>
<filter id="filter10_f_173_590" x="410.5" y="323" width="427" height="209.5" filterUnits="userSpaceOnUse" color-interpolation-filters="sRGB">
<feFlood flood-opacity="0" result="BackgroundImageFix"/>
<feBlend mode="normal" in="SourceGraphic" in2="BackgroundImageFix" result="shape"/>
<feGaussianBlur stdDeviation="30.5" result="effect1_foregroundBlur_173_590"/>
</filter>
<filter id="filter11_f_173_590" x="411" y="332" width="412.889" height="251.751" filterUnits="userSpaceOnUse" color-interpolation-filters="sRGB">
<feFlood flood-opacity="0" result="BackgroundImageFix"/>
<feBlend mode="normal" in="SourceGraphic" in2="BackgroundImageFix" result="shape"/>
<feGaussianBlur stdDeviation="30.5" result="effect1_foregroundBlur_173_590"/>
</filter>
<filter id="filter12_b_173_590" x="245.779" y="140.238" width="137.443" height="75.7106" filterUnits="userSpaceOnUse" color-interpolation-filters="sRGB">
<feFlood flood-opacity="0" result="BackgroundImageFix"/>
<feGaussianBlur in="BackgroundImage" stdDeviation="9.95059"/>
<feComposite in2="SourceAlpha" operator="in" result="effect1_backgroundBlur_173_590"/>
<feBlend mode="normal" in="SourceGraphic" in2="effect1_backgroundBlur_173_590" result="shape"/>
</filter>
<filter id="filter13_b_173_590" x="553.099" y="64.1447" width="167.802" height="75.7106" filterUnits="userSpaceOnUse" color-interpolation-filters="sRGB">
<feFlood flood-opacity="0" result="BackgroundImageFix"/>
<feGaussianBlur in="BackgroundImage" stdDeviation="9.95059"/>
<feComposite in2="SourceAlpha" operator="in" result="effect1_backgroundBlur_173_590"/>
<feBlend mode="normal" in="SourceGraphic" in2="effect1_backgroundBlur_173_590" result="shape"/>
</filter>
<filter id="filter14_b_173_590" x="65.0988" y="462.145" width="185.802" height="75.7106" filterUnits="userSpaceOnUse" color-interpolation-filters="sRGB">
<feFlood flood-opacity="0" result="BackgroundImageFix"/>
<feGaussianBlur in="BackgroundImage" stdDeviation="9.95059"/>
<feComposite in2="SourceAlpha" operator="in" result="effect1_backgroundBlur_173_590"/>
<feBlend mode="normal" in="SourceGraphic" in2="effect1_backgroundBlur_173_590" result="shape"/>
</filter>
<filter id="filter15_b_173_590" x="313.099" y="592.145" width="145.802" height="75.7106" filterUnits="userSpaceOnUse" color-interpolation-filters="sRGB">
<feFlood flood-opacity="0" result="BackgroundImageFix"/>
<feGaussianBlur in="BackgroundImage" stdDeviation="9.95059"/>
<feComposite in2="SourceAlpha" operator="in" result="effect1_backgroundBlur_173_590"/>
<feBlend mode="normal" in="SourceGraphic" in2="effect1_backgroundBlur_173_590" result="shape"/>
</filter>
<filter id="filter16_b_173_590" x="660.099" y="556.145" width="125.802" height="75.7106" filterUnits="userSpaceOnUse" color-interpolation-filters="sRGB">
<feFlood flood-opacity="0" result="BackgroundImageFix"/>
<feGaussianBlur in="BackgroundImage" stdDeviation="9.95059"/>
<feComposite in2="SourceAlpha" operator="in" result="effect1_backgroundBlur_173_590"/>
<feBlend mode="normal" in="SourceGraphic" in2="effect1_backgroundBlur_173_590" result="shape"/>
</filter>
<radialGradient id="paint0_radial_173_590" cx="0" cy="0" r="1" gradientUnits="userSpaceOnUse" gradientTransform="translate(787 373.5) rotate(134.263) scale(467.083)">
<stop stop-color="#CEE44A"/>
<stop offset="1" stop-color="white" stop-opacity="0"/>
</radialGradient>
<radialGradient id="paint1_radial_173_590" cx="0" cy="0" r="1" gradientUnits="userSpaceOnUse" gradientTransform="translate(787 373.5) rotate(134.263) scale(467.083)">
<stop stop-color="#CEE44A"/>
<stop offset="0.640625" stop-color="white" stop-opacity="0"/>
</radialGradient>
<radialGradient id="paint2_radial_173_590" cx="0" cy="0" r="1" gradientUnits="userSpaceOnUse" gradientTransform="translate(141.5 382) rotate(47.9207) scale(346.933)">
<stop stop-color="#CEE44A" stop-opacity="0.8"/>
<stop offset="0.640625" stop-color="white" stop-opacity="0"/>
</radialGradient>
<radialGradient id="paint3_radial_173_590" cx="0" cy="0" r="1" gradientUnits="userSpaceOnUse" gradientTransform="translate(141.5 382) rotate(55.6338) scale(176.268)">
<stop stop-color="#CEE44A" stop-opacity="0.8"/>
<stop offset="0.640625" stop-color="white" stop-opacity="0"/>
</radialGradient>
<linearGradient id="paint4_linear_173_590" x1="469.941" y1="385.31" x2="74.9415" y2="376.81" gradientUnits="userSpaceOnUse">
<stop stop-color="white" stop-opacity="0"/>
<stop offset="0.078125" stop-color="#CEE44A"/>
<stop offset="1" stop-color="white" stop-opacity="0"/>
</linearGradient>
<linearGradient id="paint5_linear_173_590" x1="474.01" y1="385.383" x2="75.0004" y2="376.784" gradientUnits="userSpaceOnUse">
<stop offset="0.0572917" stop-color="white" stop-opacity="0"/>
<stop offset="0.302083" stop-color="#CEE44A"/>
<stop offset="1" stop-color="white" stop-opacity="0"/>
</linearGradient>
<linearGradient id="paint6_linear_173_590" x1="752.5" y1="233" x2="470" y2="361" gradientUnits="userSpaceOnUse">
<stop offset="0.729167" stop-color="#C33D3D"/>
<stop offset="1" stop-color="white"/>
</linearGradient>
<linearGradient id="paint7_linear_173_590" x1="777.5" y1="286" x2="495" y2="414" gradientUnits="userSpaceOnUse">
<stop offset="0.729167" stop-color="#C39D3D"/>
<stop offset="1" stop-color="white"/>
</linearGradient>
<linearGradient id="paint8_linear_173_590" x1="777.5" y1="339" x2="495" y2="467" gradientUnits="userSpaceOnUse">
<stop offset="0.729167" stop-color="#A0C33D"/>
<stop offset="1" stop-color="white"/>
</linearGradient>
<linearGradient id="paint9_linear_173_590" x1="778.909" y1="391.248" x2="481.054" y2="477.689" gradientUnits="userSpaceOnUse">
<stop offset="0.729167" stop-color="#3DC3BB"/>
<stop offset="1" stop-color="white"/>
</linearGradient>
<linearGradient id="paint10_linear_173_590" x1="771.705" y1="446.418" x2="464.012" y2="485.337" gradientUnits="userSpaceOnUse">
<stop offset="0.729167" stop-color="#3D6BC3"/>
<stop offset="1" stop-color="white"/>
</linearGradient>
<linearGradient id="paint11_linear_173_590" x1="753.665" y1="499.29" x2="443.635" y2="490.83" gradientUnits="userSpaceOnUse">
<stop offset="0.729167" stop-color="#783DC3"/>
<stop offset="1" stop-color="white"/>
</linearGradient>
</defs>
</svg>
