<svg width="903" height="353" viewBox="0 0 903 353" fill="none" xmlns="http://www.w3.org/2000/svg">
<g opacity="0.3" filter="url(#filter0_f_207_1292)">
<ellipse cx="448.953" cy="170.303" rx="168.755" ry="33.7584" fill="#FF6500"/>
</g>
<g opacity="0.2">
<g clip-path="url(#clip0_207_1292)">
<path d="M0 603V0" stroke="white" stroke-width="0.971791"/>
<path d="M53.1177 603V0" stroke="white" stroke-width="0.971791"/>
<path d="M106.235 603V0" stroke="white" stroke-width="0.971791"/>
<path d="M159.353 603V0" stroke="white" stroke-width="0.971791"/>
<path d="M212.471 603V0" stroke="white" stroke-width="0.971791"/>
<path d="M265.588 603V0" stroke="white" stroke-width="0.971791"/>
<path d="M318.706 603V0" stroke="white" stroke-width="0.971791"/>
<path d="M371.824 603V0" stroke="white" stroke-width="0.971791"/>
<path d="M424.941 603V0" stroke="white" stroke-width="0.971791"/>
<path d="M478.059 603V0" stroke="white" stroke-width="0.971791"/>
<path d="M531.176 603V0" stroke="white" stroke-width="0.971791"/>
<path d="M584.294 603V0" stroke="white" stroke-width="0.971791"/>
<path d="M637.412 603V0" stroke="white" stroke-width="0.971791"/>
<path d="M690.529 603V0" stroke="white" stroke-width="0.971791"/>
<path d="M743.647 603V0" stroke="white" stroke-width="0.971791"/>
<path d="M796.765 603V0" stroke="white" stroke-width="0.971791"/>
<path d="M849.882 603V0" stroke="white" stroke-width="0.971791"/>
<path d="M903 603V0" stroke="white" stroke-width="0.971791"/>
<path d="M9.71556e-06 -3.94714e-05L903 0" stroke="white" stroke-width="0.971791"/>
<path d="M9.71556e-06 50.25L903 50.25" stroke="white" stroke-width="0.971791"/>
<path d="M9.71556e-06 100.5L903 100.5" stroke="white" stroke-width="0.971791"/>
<path d="M9.71556e-06 150.75L903 150.75" stroke="white" stroke-width="0.971791"/>
<path d="M9.71556e-06 201L903 201" stroke="white" stroke-width="0.971791"/>
<path d="M9.71556e-06 251.25L903 251.25" stroke="white" stroke-width="0.971791"/>
<path d="M9.71556e-06 301.5L903 301.5" stroke="white" stroke-width="0.971791"/>
<path d="M9.71556e-06 351.75L903 351.75" stroke="white" stroke-width="0.971791"/>
</g>
<rect x="0.485896" y="0.861872" width="902.028" height="350.796" rx="22.8371" stroke="white" stroke-width="0.971791"/>
</g>
<g>
<rect x="107" y="25" width="173" height="43" rx="21.5" fill="#35363D" fill-opacity="0.2"/>
<path d="M148.044 47.2784H142.505L142.475 44.9519H147.504C148.334 44.9519 149.06 44.8118 149.68 44.5316C150.3 44.2514 150.781 43.8512 151.121 43.3308C151.471 42.8005 151.646 42.1701 151.646 41.4396C151.646 40.6391 151.491 39.9887 151.181 39.4884C150.881 38.978 150.416 38.6078 149.785 38.3776C149.165 38.1375 148.374 38.0174 147.414 38.0174H143.151V57.5H140.254V35.6459H147.414C148.534 35.6459 149.535 35.761 150.416 35.9911C151.296 36.2112 152.042 36.5615 152.652 37.0418C153.272 37.5121 153.743 38.1125 154.063 38.8429C154.383 39.5734 154.543 40.449 154.543 41.4696C154.543 42.3702 154.313 43.1858 153.853 43.9162C153.392 44.6367 152.752 45.2271 151.932 45.6874C151.121 46.1477 150.17 46.4429 149.08 46.5729L148.044 47.2784ZM147.909 57.5H141.365L143.001 55.1435H147.909C148.83 55.1435 149.61 54.9834 150.25 54.6632C150.901 54.343 151.396 53.8927 151.736 53.3123C152.077 52.7219 152.247 52.0265 152.247 51.2259C152.247 50.4154 152.102 49.715 151.811 49.1246C151.521 48.5342 151.066 48.0789 150.446 47.7587C149.825 47.4385 149.025 47.2784 148.044 47.2784H143.916L143.946 44.9519H149.59L150.205 45.7924C151.256 45.8825 152.147 46.1827 152.877 46.693C153.608 47.1933 154.163 47.8338 154.543 48.6143C154.933 49.3948 155.129 50.2553 155.129 51.1959C155.129 52.5568 154.828 53.7075 154.228 54.6482C153.638 55.5788 152.802 56.2892 151.721 56.7795C150.641 57.2598 149.37 57.5 147.909 57.5ZM162.31 41.2595V57.5H159.519V41.2595H162.31ZM159.309 36.9517C159.309 36.5014 159.444 36.1212 159.714 35.811C159.994 35.5008 160.404 35.3457 160.945 35.3457C161.475 35.3457 161.88 35.5008 162.16 35.811C162.451 36.1212 162.596 36.5014 162.596 36.9517C162.596 37.382 162.451 37.7522 162.16 38.0624C161.88 38.3626 161.475 38.5127 160.945 38.5127C160.404 38.5127 159.994 38.3626 159.714 38.0624C159.444 37.7522 159.309 37.382 159.309 36.9517ZM169.853 44.7267V57.5H167.076V41.2595H169.702L169.853 44.7267ZM169.192 48.7644L168.036 48.7193C168.046 47.6086 168.211 46.5829 168.532 45.6423C168.852 44.6917 169.302 43.8662 169.883 43.1657C170.463 42.4653 171.153 41.9249 171.954 41.5447C172.764 41.1544 173.66 40.9593 174.641 40.9593C175.441 40.9593 176.162 41.0694 176.802 41.2895C177.442 41.4997 177.988 41.8399 178.438 42.3102C178.898 42.7805 179.249 43.3909 179.489 44.1414C179.729 44.8818 179.849 45.7874 179.849 46.8581V57.5H177.057V46.8281C177.057 45.9776 176.932 45.2971 176.682 44.7868C176.432 44.2665 176.067 43.8912 175.586 43.6611C175.106 43.4209 174.516 43.3008 173.815 43.3008C173.125 43.3008 172.494 43.4459 171.924 43.7361C171.363 44.0263 170.878 44.4266 170.468 44.9369C170.068 45.4472 169.752 46.0326 169.522 46.693C169.302 47.3434 169.192 48.0339 169.192 48.7644ZM193.95 54.7232V46.3628C193.95 45.7224 193.82 45.167 193.56 44.6967C193.31 44.2164 192.93 43.8462 192.419 43.586C191.909 43.3258 191.279 43.1958 190.528 43.1958C189.828 43.1958 189.212 43.3158 188.682 43.556C188.162 43.7961 187.751 44.1114 187.451 44.5016C187.161 44.8919 187.016 45.3121 187.016 45.7624H184.239C184.239 45.182 184.389 44.6067 184.689 44.0363C184.99 43.4659 185.42 42.9506 185.98 42.4903C186.551 42.02 187.231 41.6498 188.021 41.3796C188.822 41.0994 189.713 40.9593 190.693 40.9593C191.874 40.9593 192.915 41.1594 193.815 41.5597C194.726 41.96 195.436 42.5654 195.947 43.3759C196.467 44.1764 196.727 45.182 196.727 46.3928V53.9577C196.727 54.4981 196.772 55.0734 196.862 55.6838C196.962 56.2942 197.107 56.8196 197.297 57.2598V57.5H194.401C194.26 57.1798 194.15 56.7545 194.07 56.2242C193.99 55.6838 193.95 55.1835 193.95 54.7232ZM194.431 47.6536L194.461 49.6049H191.654C190.863 49.6049 190.158 49.6699 189.537 49.8C188.917 49.9201 188.397 50.1052 187.976 50.3554C187.556 50.6055 187.236 50.9207 187.016 51.301C186.796 51.6712 186.686 52.1065 186.686 52.6068C186.686 53.1172 186.801 53.5825 187.031 54.0027C187.261 54.423 187.606 54.7582 188.066 55.0084C188.537 55.2485 189.112 55.3686 189.793 55.3686C190.643 55.3686 191.394 55.1885 192.044 54.8283C192.694 54.468 193.21 54.0278 193.59 53.5074C193.98 52.9871 194.19 52.4818 194.22 51.9914L195.406 53.3273C195.336 53.7476 195.146 54.2129 194.836 54.7232C194.526 55.2335 194.11 55.7239 193.59 56.1942C193.08 56.6545 192.469 57.0397 191.759 57.3499C191.058 57.6501 190.268 57.8002 189.387 57.8002C188.287 57.8002 187.321 57.5851 186.49 57.1548C185.67 56.7245 185.03 56.1491 184.569 55.4287C184.119 54.6982 183.894 53.8827 183.894 52.9821C183.894 52.1115 184.064 51.346 184.404 50.6856C184.744 50.0152 185.235 49.4598 185.875 49.0195C186.515 48.5692 187.286 48.229 188.187 47.9989C189.087 47.7687 190.093 47.6536 191.204 47.6536H194.431ZM204.179 44.7267V57.5H201.402V41.2595H204.029L204.179 44.7267ZM203.519 48.7644L202.363 48.7193C202.373 47.6086 202.538 46.5829 202.858 45.6423C203.178 44.6917 203.629 43.8662 204.209 43.1657C204.789 42.4653 205.48 41.9249 206.28 41.5447C207.091 41.1544 207.987 40.9593 208.967 40.9593C209.768 40.9593 210.488 41.0694 211.129 41.2895C211.769 41.4997 212.314 41.8399 212.765 42.3102C213.225 42.7805 213.575 43.3909 213.815 44.1414C214.055 44.8818 214.176 45.7874 214.176 46.8581V57.5H211.384V46.8281C211.384 45.9776 211.259 45.2971 211.009 44.7868C210.758 44.2665 210.393 43.8912 209.913 43.6611C209.432 43.4209 208.842 43.3008 208.142 43.3008C207.451 43.3008 206.821 43.4459 206.25 43.7361C205.69 44.0263 205.205 44.4266 204.794 44.9369C204.394 45.4472 204.079 46.0326 203.849 46.693C203.629 47.3434 203.519 48.0339 203.519 48.7644ZM225.2 55.5187C225.86 55.5187 226.471 55.3836 227.031 55.1135C227.591 54.8433 228.052 54.473 228.412 54.0027C228.772 53.5224 228.977 52.9771 229.027 52.3667H231.669C231.619 53.3273 231.294 54.2229 230.693 55.0534C230.103 55.8739 229.328 56.5394 228.367 57.0497C227.406 57.55 226.351 57.8002 225.2 57.8002C223.979 57.8002 222.913 57.5851 222.003 57.1548C221.102 56.7245 220.352 56.1341 219.751 55.3836C219.161 54.6331 218.716 53.7726 218.415 52.802C218.125 51.8213 217.98 50.7857 217.98 49.695V49.0646C217.98 47.9738 218.125 46.9432 218.415 45.9726C218.716 44.9919 219.161 44.1264 219.751 43.3759C220.352 42.6254 221.102 42.035 222.003 41.6047C222.913 41.1745 223.979 40.9593 225.2 40.9593C226.471 40.9593 227.581 41.2195 228.532 41.7398C229.483 42.2501 230.228 42.9506 230.768 43.8412C231.319 44.7217 231.619 45.7224 231.669 46.8431H229.027C228.977 46.1727 228.787 45.5673 228.457 45.0269C228.137 44.4866 227.696 44.0563 227.136 43.7361C226.586 43.4059 225.94 43.2408 225.2 43.2408C224.349 43.2408 223.634 43.4109 223.053 43.7511C222.483 44.0813 222.028 44.5316 221.688 45.102C221.357 45.6624 221.117 46.2878 220.967 46.9782C220.827 47.6586 220.757 48.3541 220.757 49.0646V49.695C220.757 50.4054 220.827 51.1059 220.967 51.7963C221.107 52.4868 221.342 53.1122 221.673 53.6725C222.013 54.2329 222.468 54.6832 223.038 55.0234C223.619 55.3536 224.339 55.5187 225.2 55.5187ZM241.838 57.8002C240.707 57.8002 239.681 57.6101 238.761 57.2298C237.85 56.8396 237.065 56.2942 236.404 55.5938C235.754 54.8933 235.254 54.0628 234.903 53.1022C234.553 52.1415 234.378 51.0909 234.378 49.9501V49.3197C234.378 47.9989 234.573 46.8231 234.963 45.7924C235.354 44.7518 235.884 43.8712 236.554 43.1507C237.225 42.4303 237.985 41.8849 238.836 41.5147C239.686 41.1444 240.567 40.9593 241.478 40.9593C242.638 40.9593 243.639 41.1594 244.48 41.5597C245.33 41.96 246.026 42.5203 246.566 43.2408C247.106 43.9512 247.506 44.7918 247.767 45.7624C248.027 46.723 248.157 47.7737 248.157 48.9145V50.1603H236.029V47.8938H245.38V47.6837C245.34 46.9632 245.19 46.2627 244.93 45.5823C244.68 44.9019 244.279 44.3415 243.729 43.9012C243.179 43.4609 242.428 43.2408 241.478 43.2408C240.847 43.2408 240.267 43.3759 239.736 43.6461C239.206 43.9062 238.751 44.2965 238.371 44.8168C237.99 45.3371 237.695 45.9726 237.485 46.723C237.275 47.4735 237.17 48.3391 237.17 49.3197V49.9501C237.17 50.7206 237.275 51.4461 237.485 52.1265C237.705 52.797 238.02 53.3873 238.431 53.8977C238.851 54.408 239.356 54.8083 239.947 55.0984C240.547 55.3886 241.227 55.5337 241.988 55.5337C242.969 55.5337 243.799 55.3336 244.48 54.9333C245.16 54.5331 245.755 53.9977 246.266 53.3273L247.947 54.6632C247.597 55.1935 247.151 55.6988 246.611 56.1791C246.071 56.6595 245.405 57.0497 244.615 57.3499C243.834 57.6501 242.909 57.8002 241.838 57.8002Z" fill="white" fill-opacity="0.8"/>
<rect x="107.44" y="25.4403" width="172.119" height="42.1193" rx="21.0597" stroke="white" stroke-opacity="0.8" stroke-width="0.880686"/>
</g>
<g>
<rect x="158" y="236" width="199" height="43" rx="21.5" fill="#35363D" fill-opacity="0.2"/>
<path d="M194.824 268.5H190.261L190.291 266.143H194.824C196.385 266.143 197.686 265.818 198.727 265.168C199.768 264.507 200.548 263.587 201.068 262.406C201.599 261.215 201.864 259.824 201.864 258.233V256.898C201.864 255.647 201.714 254.536 201.414 253.565C201.113 252.585 200.673 251.759 200.093 251.089C199.512 250.408 198.802 249.893 197.961 249.543C197.131 249.193 196.175 249.017 195.094 249.017H190.171V246.646H195.094C196.525 246.646 197.831 246.886 199.012 247.366C200.193 247.837 201.208 248.522 202.059 249.423C202.92 250.313 203.58 251.394 204.04 252.665C204.501 253.926 204.731 255.347 204.731 256.928V258.233C204.731 259.814 204.501 261.24 204.04 262.511C203.58 263.772 202.915 264.848 202.044 265.738C201.183 266.629 200.143 267.314 198.922 267.795C197.711 268.265 196.345 268.5 194.824 268.5ZM191.807 246.646V268.5H188.91V246.646H191.807ZM218.547 265.723V257.363C218.547 256.722 218.417 256.167 218.157 255.697C217.906 255.216 217.526 254.846 217.016 254.586C216.506 254.326 215.875 254.196 215.125 254.196C214.424 254.196 213.809 254.316 213.278 254.556C212.758 254.796 212.348 255.111 212.048 255.502C211.757 255.892 211.612 256.312 211.612 256.762H208.836C208.836 256.182 208.986 255.607 209.286 255.036C209.586 254.466 210.016 253.951 210.577 253.49C211.147 253.02 211.827 252.65 212.618 252.38C213.419 252.099 214.309 251.959 215.29 251.959C216.47 251.959 217.511 252.159 218.412 252.56C219.322 252.96 220.033 253.565 220.543 254.376C221.063 255.176 221.324 256.182 221.324 257.393V264.958C221.324 265.498 221.369 266.073 221.459 266.684C221.559 267.294 221.704 267.82 221.894 268.26V268.5H218.997C218.857 268.18 218.747 267.755 218.667 267.224C218.587 266.684 218.547 266.184 218.547 265.723ZM219.027 258.654L219.057 260.605H216.25C215.46 260.605 214.754 260.67 214.134 260.8C213.514 260.92 212.993 261.105 212.573 261.355C212.153 261.606 211.832 261.921 211.612 262.301C211.392 262.671 211.282 263.107 211.282 263.607C211.282 264.117 211.397 264.582 211.627 265.003C211.858 265.423 212.203 265.758 212.663 266.008C213.133 266.249 213.709 266.369 214.389 266.369C215.24 266.369 215.99 266.189 216.641 265.828C217.291 265.468 217.806 265.028 218.187 264.507C218.577 263.987 218.787 263.482 218.817 262.991L220.003 264.327C219.933 264.748 219.743 265.213 219.432 265.723C219.122 266.234 218.707 266.724 218.187 267.194C217.676 267.654 217.066 268.04 216.355 268.35C215.655 268.65 214.864 268.8 213.984 268.8C212.883 268.8 211.918 268.585 211.087 268.155C210.266 267.724 209.626 267.149 209.166 266.429C208.715 265.698 208.49 264.883 208.49 263.982C208.49 263.112 208.66 262.346 209.001 261.686C209.341 261.015 209.831 260.46 210.472 260.02C211.112 259.569 211.883 259.229 212.783 258.999C213.684 258.769 214.689 258.654 215.8 258.654H219.027ZM225.263 260.56V260.215C225.263 259.044 225.433 257.958 225.774 256.958C226.114 255.947 226.604 255.071 227.245 254.331C227.885 253.58 228.661 253 229.571 252.59C230.482 252.169 231.502 251.959 232.633 251.959C233.774 251.959 234.8 252.169 235.71 252.59C236.631 253 237.411 253.58 238.052 254.331C238.702 255.071 239.197 255.947 239.538 256.958C239.878 257.958 240.048 259.044 240.048 260.215V260.56C240.048 261.731 239.878 262.816 239.538 263.817C239.197 264.818 238.702 265.693 238.052 266.444C237.411 267.184 236.636 267.765 235.725 268.185C234.825 268.595 233.804 268.8 232.663 268.8C231.522 268.8 230.497 268.595 229.586 268.185C228.676 267.765 227.895 267.184 227.245 266.444C226.604 265.693 226.114 264.818 225.774 263.817C225.433 262.816 225.263 261.731 225.263 260.56ZM228.04 260.215V260.56C228.04 261.37 228.135 262.136 228.325 262.856C228.515 263.567 228.801 264.197 229.181 264.748C229.571 265.298 230.056 265.733 230.637 266.053C231.217 266.364 231.893 266.519 232.663 266.519C233.424 266.519 234.089 266.364 234.659 266.053C235.24 265.733 235.72 265.298 236.1 264.748C236.481 264.197 236.766 263.567 236.956 262.856C237.156 262.136 237.256 261.37 237.256 260.56V260.215C237.256 259.414 237.156 258.659 236.956 257.948C236.766 257.228 236.476 256.592 236.085 256.042C235.705 255.482 235.225 255.041 234.644 254.721C234.074 254.401 233.404 254.241 232.633 254.241C231.873 254.241 231.202 254.401 230.622 254.721C230.051 255.041 229.571 255.482 229.181 256.042C228.801 256.592 228.515 257.228 228.325 257.948C228.135 258.659 228.04 259.414 228.04 260.215ZM246.599 255.487V268.5H243.808V252.26H246.449L246.599 255.487ZM246.029 259.764L244.738 259.719C244.748 258.609 244.893 257.583 245.173 256.642C245.454 255.692 245.869 254.866 246.419 254.166C246.97 253.465 247.655 252.925 248.476 252.545C249.296 252.154 250.247 251.959 251.327 251.959C252.088 251.959 252.788 252.069 253.429 252.29C254.069 252.5 254.625 252.835 255.095 253.295C255.565 253.755 255.93 254.346 256.191 255.066C256.451 255.787 256.581 256.657 256.581 257.678V268.5H253.804V257.813C253.804 256.963 253.659 256.282 253.369 255.772C253.089 255.261 252.688 254.891 252.168 254.661C251.648 254.421 251.037 254.301 250.337 254.301C249.516 254.301 248.831 254.446 248.28 254.736C247.73 255.026 247.29 255.427 246.96 255.937C246.629 256.447 246.389 257.033 246.239 257.693C246.099 258.343 246.029 259.034 246.029 259.764ZM256.551 258.233L254.69 258.804C254.7 257.913 254.845 257.058 255.125 256.237C255.415 255.417 255.83 254.686 256.371 254.046C256.921 253.405 257.596 252.9 258.397 252.53C259.197 252.149 260.113 251.959 261.144 251.959C262.014 251.959 262.785 252.074 263.455 252.305C264.136 252.535 264.706 252.89 265.166 253.37C265.637 253.841 265.992 254.446 266.232 255.186C266.472 255.927 266.592 256.807 266.592 257.828V268.5H263.8V257.798C263.8 256.887 263.655 256.182 263.365 255.682C263.085 255.171 262.685 254.816 262.164 254.616C261.654 254.406 261.044 254.301 260.333 254.301C259.723 254.301 259.182 254.406 258.712 254.616C258.242 254.826 257.847 255.116 257.526 255.487C257.206 255.847 256.961 256.262 256.791 256.732C256.631 257.203 256.551 257.703 256.551 258.233ZM280.679 265.723V257.363C280.679 256.722 280.548 256.167 280.288 255.697C280.038 255.216 279.658 254.846 279.148 254.586C278.637 254.326 278.007 254.196 277.256 254.196C276.556 254.196 275.941 254.316 275.41 254.556C274.89 254.796 274.48 255.111 274.179 255.502C273.889 255.892 273.744 256.312 273.744 256.762H270.967C270.967 256.182 271.117 255.607 271.418 255.036C271.718 254.466 272.148 253.951 272.708 253.49C273.279 253.02 273.959 252.65 274.75 252.38C275.55 252.099 276.441 251.959 277.421 251.959C278.602 251.959 279.643 252.159 280.543 252.56C281.454 252.96 282.165 253.565 282.675 254.376C283.195 255.176 283.455 256.182 283.455 257.393V264.958C283.455 265.498 283.5 266.073 283.59 266.684C283.691 267.294 283.836 267.82 284.026 268.26V268.5H281.129C280.989 268.18 280.879 267.755 280.799 267.224C280.719 266.684 280.679 266.184 280.679 265.723ZM281.159 258.654L281.189 260.605H278.382C277.592 260.605 276.886 260.67 276.266 260.8C275.645 260.92 275.125 261.105 274.705 261.355C274.284 261.606 273.964 261.921 273.744 262.301C273.524 262.671 273.414 263.107 273.414 263.607C273.414 264.117 273.529 264.582 273.759 265.003C273.989 265.423 274.334 265.758 274.795 266.008C275.265 266.249 275.84 266.369 276.521 266.369C277.371 266.369 278.122 266.189 278.772 265.828C279.423 265.468 279.938 265.028 280.318 264.507C280.709 263.987 280.919 263.482 280.949 262.991L282.135 264.327C282.064 264.748 281.874 265.213 281.564 265.723C281.254 266.234 280.839 266.724 280.318 267.194C279.808 267.654 279.198 268.04 278.487 268.35C277.787 268.65 276.996 268.8 276.116 268.8C275.015 268.8 274.049 268.585 273.219 268.155C272.398 267.724 271.758 267.149 271.298 266.429C270.847 265.698 270.622 264.883 270.622 263.982C270.622 263.112 270.792 262.346 271.132 261.686C271.473 261.015 271.963 260.46 272.603 260.02C273.244 259.569 274.014 259.229 274.915 258.999C275.815 258.769 276.821 258.654 277.932 258.654H281.159ZM290.922 245.445V268.5H288.131V245.445H290.922ZM300.844 252.26L293.759 259.839L289.797 263.952L289.572 260.995L292.408 257.603L297.452 252.26H300.844ZM298.307 268.5L292.513 260.755L293.954 258.278L301.579 268.5H298.307ZM310.457 268.8C309.326 268.8 308.301 268.61 307.38 268.23C306.47 267.84 305.684 267.294 305.024 266.594C304.373 265.893 303.873 265.063 303.523 264.102C303.173 263.142 302.997 262.091 302.997 260.95V260.32C302.997 258.999 303.193 257.823 303.583 256.792C303.973 255.752 304.503 254.871 305.174 254.151C305.844 253.43 306.605 252.885 307.455 252.515C308.306 252.144 309.186 251.959 310.097 251.959C311.258 251.959 312.258 252.159 313.099 252.56C313.949 252.96 314.645 253.52 315.185 254.241C315.726 254.951 316.126 255.792 316.386 256.762C316.646 257.723 316.776 258.774 316.776 259.914V261.16H304.648V258.894H313.999V258.684C313.959 257.963 313.809 257.263 313.549 256.582C313.299 255.902 312.899 255.341 312.348 254.901C311.798 254.461 311.048 254.241 310.097 254.241C309.467 254.241 308.886 254.376 308.356 254.646C307.826 254.906 307.37 255.296 306.99 255.817C306.61 256.337 306.315 256.973 306.104 257.723C305.894 258.474 305.789 259.339 305.789 260.32V260.95C305.789 261.721 305.894 262.446 306.104 263.127C306.325 263.797 306.64 264.387 307.05 264.898C307.47 265.408 307.976 265.808 308.566 266.098C309.166 266.389 309.847 266.534 310.607 266.534C311.588 266.534 312.418 266.334 313.099 265.933C313.779 265.533 314.375 264.998 314.885 264.327L316.566 265.663C316.216 266.194 315.771 266.699 315.23 267.179C314.69 267.659 314.025 268.05 313.234 268.35C312.453 268.65 311.528 268.8 310.457 268.8ZM323.103 254.811V268.5H320.326V252.26H323.028L323.103 254.811ZM328.176 252.169L328.161 254.751C327.931 254.701 327.711 254.671 327.5 254.661C327.3 254.641 327.07 254.631 326.81 254.631C326.17 254.631 325.604 254.731 325.114 254.931C324.624 255.131 324.208 255.412 323.868 255.772C323.528 256.132 323.258 256.562 323.058 257.063C322.867 257.553 322.742 258.093 322.682 258.684L321.902 259.134C321.902 258.153 321.997 257.233 322.187 256.372C322.387 255.512 322.692 254.751 323.103 254.091C323.513 253.42 324.033 252.9 324.664 252.53C325.304 252.149 326.064 251.959 326.945 251.959C327.145 251.959 327.375 251.984 327.636 252.034C327.896 252.074 328.076 252.119 328.176 252.169Z" fill="white" fill-opacity="0.8"/>
<rect x="158.44" y="236.44" width="198.119" height="42.1193" rx="21.0597" stroke="white" stroke-opacity="0.8" stroke-width="0.880686"/>
</g>
<g>
<rect x="501" y="25" width="161" height="43" rx="21.5" fill="#35363D" fill-opacity="0.2"/>
<path d="M544.701 50.5505H547.583C547.433 51.9314 547.038 53.1672 546.397 54.2579C545.757 55.3486 544.851 56.2142 543.68 56.8546C542.51 57.485 541.049 57.8002 539.298 57.8002C538.017 57.8002 536.851 57.56 535.8 57.0797C534.76 56.5994 533.864 55.919 533.114 55.0384C532.363 54.1478 531.783 53.0821 531.372 51.8413C530.972 50.5905 530.772 49.1996 530.772 47.6686V45.4922C530.772 43.9613 530.972 42.5754 531.372 41.3346C531.783 40.0837 532.368 39.0131 533.129 38.1225C533.899 37.2319 534.825 36.5465 535.905 36.0662C536.986 35.5858 538.202 35.3457 539.553 35.3457C541.204 35.3457 542.6 35.6559 543.74 36.2763C544.881 36.8967 545.767 37.7572 546.397 38.858C547.038 39.9487 547.433 41.2145 547.583 42.6554H544.701C544.561 41.6348 544.301 40.7592 543.921 40.0287C543.54 39.2882 543 38.7179 542.299 38.3176C541.599 37.9173 540.683 37.7172 539.553 37.7172C538.582 37.7172 537.727 37.9023 536.986 38.2726C536.256 38.6428 535.64 39.1682 535.14 39.8486C534.65 40.529 534.279 41.3446 534.029 42.2952C533.779 43.2458 533.654 44.3015 533.654 45.4622V47.6686C533.654 48.7393 533.764 49.745 533.984 50.6856C534.214 51.6262 534.559 52.4517 535.02 53.1622C535.48 53.8727 536.065 54.433 536.776 54.8433C537.486 55.2435 538.327 55.4437 539.298 55.4437C540.528 55.4437 541.509 55.2485 542.239 54.8583C542.97 54.468 543.52 53.9077 543.891 53.1772C544.271 52.4467 544.541 51.5712 544.701 50.5505ZM550.682 49.5599V49.2146C550.682 48.0439 550.852 46.9582 551.192 45.9575C551.533 44.9469 552.023 44.0713 552.663 43.3308C553.304 42.5804 554.079 42 554.99 41.5897C555.9 41.1695 556.921 40.9593 558.052 40.9593C559.193 40.9593 560.218 41.1695 561.129 41.5897C562.049 42 562.83 42.5804 563.47 43.3308C564.121 44.0713 564.616 44.9469 564.956 45.9575C565.297 46.9582 565.467 48.0439 565.467 49.2146V49.5599C565.467 50.7306 565.297 51.8163 564.956 52.817C564.616 53.8176 564.121 54.6932 563.47 55.4437C562.83 56.1841 562.054 56.7645 561.144 57.1848C560.243 57.5951 559.223 57.8002 558.082 57.8002C556.941 57.8002 555.915 57.5951 555.005 57.1848C554.094 56.7645 553.314 56.1841 552.663 55.4437C552.023 54.6932 551.533 53.8176 551.192 52.817C550.852 51.8163 550.682 50.7306 550.682 49.5599ZM553.459 49.2146V49.5599C553.459 50.3704 553.554 51.1359 553.744 51.8564C553.934 52.5668 554.219 53.1972 554.6 53.7476C554.99 54.2979 555.475 54.7332 556.056 55.0534C556.636 55.3636 557.311 55.5187 558.082 55.5187C558.842 55.5187 559.508 55.3636 560.078 55.0534C560.659 54.7332 561.139 54.2979 561.519 53.7476C561.899 53.1972 562.185 52.5668 562.375 51.8564C562.575 51.1359 562.675 50.3704 562.675 49.5599V49.2146C562.675 48.4141 562.575 47.6586 562.375 46.9482C562.185 46.2277 561.894 45.5923 561.504 45.042C561.124 44.4816 560.644 44.0413 560.063 43.7211C559.493 43.4009 558.822 43.2408 558.052 43.2408C557.291 43.2408 556.621 43.4009 556.041 43.7211C555.47 44.0413 554.99 44.4816 554.6 45.042C554.219 45.5923 553.934 46.2277 553.744 46.9482C553.554 47.6586 553.459 48.4141 553.459 49.2146ZM572.273 41.2595V57.5H569.481V41.2595H572.273ZM569.271 36.9517C569.271 36.5014 569.406 36.1212 569.677 35.811C569.957 35.5008 570.367 35.3457 570.907 35.3457C571.438 35.3457 571.843 35.5008 572.123 35.811C572.413 36.1212 572.558 36.5014 572.558 36.9517C572.558 37.382 572.413 37.7522 572.123 38.0624C571.843 38.3626 571.438 38.5127 570.907 38.5127C570.367 38.5127 569.957 38.3626 569.677 38.0624C569.406 37.7522 569.271 37.382 569.271 36.9517ZM579.815 44.7267V57.5H577.039V41.2595H579.665L579.815 44.7267ZM579.155 48.7644L577.999 48.7193C578.009 47.6086 578.174 46.5829 578.494 45.6423C578.815 44.6917 579.265 43.8662 579.845 43.1657C580.426 42.4653 581.116 41.9249 581.917 41.5447C582.727 41.1544 583.623 40.9593 584.603 40.9593C585.404 40.9593 586.124 41.0694 586.765 41.2895C587.405 41.4997 587.951 41.8399 588.401 42.3102C588.861 42.7805 589.211 43.3909 589.452 44.1414C589.692 44.8818 589.812 45.7874 589.812 46.8581V57.5H587.02V46.8281C587.02 45.9776 586.895 45.2971 586.645 44.7868C586.395 44.2665 586.029 43.8912 585.549 43.6611C585.069 43.4209 584.478 43.3008 583.778 43.3008C583.087 43.3008 582.457 43.4459 581.887 43.7361C581.326 44.0263 580.841 44.4266 580.431 44.9369C580.03 45.4472 579.715 46.0326 579.485 46.693C579.265 47.3434 579.155 48.0339 579.155 48.7644ZM597.354 34.4451V57.5H594.562V34.4451H597.354ZM605.136 41.2595V57.5H602.344V41.2595H605.136ZM602.134 36.9517C602.134 36.5014 602.269 36.1212 602.539 35.811C602.82 35.5008 603.23 35.3457 603.77 35.3457C604.301 35.3457 604.706 35.5008 604.986 35.811C605.276 36.1212 605.421 36.5014 605.421 36.9517C605.421 37.382 605.276 37.7522 604.986 38.0624C604.706 38.3626 604.301 38.5127 603.77 38.5127C603.23 38.5127 602.82 38.3626 602.539 38.0624C602.269 37.7522 602.134 37.382 602.134 36.9517ZM619.357 53.1922C619.357 52.792 619.267 52.4217 619.087 52.0815C618.917 51.7313 618.562 51.4161 618.022 51.1359C617.491 50.8457 616.691 50.5955 615.62 50.3854C614.719 50.1953 613.904 49.9701 613.173 49.71C612.453 49.4498 611.838 49.1346 611.327 48.7644C610.827 48.3941 610.442 47.9588 610.172 47.4585C609.901 46.9582 609.766 46.3728 609.766 45.7024C609.766 45.062 609.906 44.4566 610.187 43.8862C610.477 43.3158 610.882 42.8105 611.402 42.3702C611.933 41.9299 612.568 41.5847 613.309 41.3346C614.049 41.0844 614.875 40.9593 615.785 40.9593C617.086 40.9593 618.197 41.1895 619.117 41.6498C620.038 42.1101 620.743 42.7255 621.234 43.496C621.724 44.2564 621.969 45.102 621.969 46.0326H619.192C619.192 45.5823 619.057 45.147 618.787 44.7267C618.527 44.2965 618.142 43.9412 617.631 43.6611C617.131 43.3809 616.516 43.2408 615.785 43.2408C615.015 43.2408 614.389 43.3609 613.909 43.601C613.439 43.8312 613.093 44.1264 612.873 44.4866C612.663 44.8468 612.558 45.2271 612.558 45.6273C612.558 45.9275 612.608 46.1977 612.708 46.4379C612.818 46.668 613.008 46.8831 613.279 47.0833C613.549 47.2734 613.929 47.4535 614.419 47.6236C614.91 47.7937 615.535 47.9638 616.295 48.1339C617.626 48.4341 618.722 48.7944 619.583 49.2146C620.443 49.6349 621.084 50.1503 621.504 50.7606C621.924 51.371 622.134 52.1115 622.134 52.9821C622.134 53.6925 621.984 54.343 621.684 54.9333C621.394 55.5237 620.968 56.0341 620.408 56.4643C619.858 56.8846 619.197 57.2148 618.427 57.455C617.666 57.6851 616.811 57.8002 615.86 57.8002C614.429 57.8002 613.218 57.545 612.228 57.0347C611.237 56.5244 610.487 55.8639 609.976 55.0534C609.466 54.2429 609.211 53.3873 609.211 52.4868H612.003C612.043 53.2473 612.263 53.8526 612.663 54.3029C613.063 54.7432 613.554 55.0584 614.134 55.2485C614.714 55.4287 615.29 55.5187 615.86 55.5187C616.621 55.5187 617.256 55.4187 617.766 55.2185C618.287 55.0184 618.682 54.7432 618.952 54.393C619.222 54.0428 619.357 53.6425 619.357 53.1922ZM632.888 41.2595V43.3909H624.108V41.2595H632.888ZM627.08 37.312H629.856V53.4774C629.856 54.0278 629.941 54.443 630.112 54.7232C630.282 55.0034 630.502 55.1885 630.772 55.2786C631.042 55.3686 631.332 55.4137 631.643 55.4137C631.873 55.4137 632.113 55.3936 632.363 55.3536C632.623 55.3036 632.818 55.2636 632.948 55.2335L632.963 57.5C632.743 57.57 632.453 57.6351 632.093 57.6951C631.743 57.7652 631.317 57.8002 630.817 57.8002C630.137 57.8002 629.511 57.6651 628.941 57.3949C628.37 57.1248 627.915 56.6745 627.575 56.0441C627.245 55.4036 627.08 54.5431 627.08 53.4624V37.312Z" fill="white" fill-opacity="0.8"/>
<rect x="501.44" y="25.4403" width="160.119" height="42.1193" rx="21.0597" stroke="white" stroke-opacity="0.8" stroke-width="0.880686"/>
</g>
<g>
<rect x="713" y="131" width="156" height="43" rx="21.5" fill="#35363D" fill-opacity="0.2"/>
<path d="M760.081 152.618V160.618C759.81 161.018 759.38 161.469 758.79 161.969C758.199 162.459 757.384 162.89 756.343 163.26C755.313 163.62 753.982 163.8 752.351 163.8C751.02 163.8 749.794 163.57 748.673 163.11C747.563 162.639 746.597 161.959 745.776 161.068C744.966 160.168 744.335 159.077 743.885 157.796C743.445 156.505 743.225 155.045 743.225 153.413V151.717C743.225 150.086 743.415 148.63 743.795 147.35C744.185 146.069 744.756 144.983 745.506 144.092C746.257 143.192 747.177 142.511 748.268 142.051C749.359 141.581 750.61 141.346 752.02 141.346C753.691 141.346 755.087 141.636 756.208 142.216C757.339 142.787 758.219 143.577 758.85 144.588C759.49 145.598 759.901 146.749 760.081 148.04H757.184C757.054 147.25 756.793 146.529 756.403 145.879C756.023 145.228 755.478 144.708 754.767 144.318C754.057 143.917 753.141 143.717 752.02 143.717C751.01 143.717 750.134 143.902 749.394 144.273C748.653 144.643 748.043 145.173 747.563 145.864C747.082 146.554 746.722 147.39 746.482 148.37C746.252 149.351 746.137 150.457 746.137 151.687V153.413C746.137 154.674 746.282 155.8 746.572 156.791C746.872 157.781 747.297 158.627 747.848 159.327C748.398 160.018 749.053 160.543 749.814 160.903C750.584 161.264 751.435 161.444 752.366 161.444C753.396 161.444 754.232 161.359 754.872 161.189C755.513 161.008 756.013 160.798 756.373 160.558C756.733 160.308 757.009 160.073 757.199 159.853V154.959H752.14V152.618H760.081ZM774.347 160.723V152.363C774.347 151.722 774.217 151.167 773.957 150.697C773.707 150.216 773.326 149.846 772.816 149.586C772.306 149.326 771.675 149.196 770.925 149.196C770.224 149.196 769.609 149.316 769.079 149.556C768.558 149.796 768.148 150.111 767.848 150.502C767.558 150.892 767.413 151.312 767.413 151.762H764.636C764.636 151.182 764.786 150.607 765.086 150.036C765.386 149.466 765.817 148.951 766.377 148.49C766.947 148.02 767.628 147.65 768.418 147.38C769.219 147.099 770.109 146.959 771.09 146.959C772.271 146.959 773.311 147.159 774.212 147.56C775.123 147.96 775.833 148.565 776.343 149.376C776.864 150.176 777.124 151.182 777.124 152.393V159.958C777.124 160.498 777.169 161.073 777.259 161.684C777.359 162.294 777.504 162.82 777.694 163.26V163.5H774.797C774.657 163.18 774.547 162.755 774.467 162.224C774.387 161.684 774.347 161.184 774.347 160.723ZM774.827 153.654L774.857 155.605H772.051C771.26 155.605 770.555 155.67 769.934 155.8C769.314 155.92 768.793 156.105 768.373 156.355C767.953 156.606 767.633 156.921 767.413 157.301C767.192 157.671 767.082 158.107 767.082 158.607C767.082 159.117 767.197 159.582 767.428 160.003C767.658 160.423 768.003 160.758 768.463 161.008C768.934 161.249 769.509 161.369 770.189 161.369C771.04 161.369 771.79 161.189 772.441 160.828C773.091 160.468 773.607 160.028 773.987 159.507C774.377 158.987 774.587 158.482 774.617 157.991L775.803 159.327C775.733 159.748 775.543 160.213 775.233 160.723C774.922 161.234 774.507 161.724 773.987 162.194C773.476 162.654 772.866 163.04 772.156 163.35C771.455 163.65 770.665 163.8 769.784 163.8C768.683 163.8 767.718 163.585 766.887 163.155C766.067 162.724 765.426 162.149 764.966 161.429C764.516 160.698 764.291 159.883 764.291 158.982C764.291 158.112 764.461 157.346 764.801 156.686C765.141 156.015 765.631 155.46 766.272 155.02C766.912 154.569 767.683 154.229 768.583 153.999C769.484 153.769 770.49 153.654 771.6 153.654H774.827ZM784.561 150.487V163.5H781.769V147.26H784.411L784.561 150.487ZM783.99 154.764L782.7 154.719C782.71 153.609 782.855 152.583 783.135 151.642C783.415 150.692 783.83 149.866 784.381 149.166C784.931 148.465 785.617 147.925 786.437 147.545C787.258 147.154 788.208 146.959 789.289 146.959C790.049 146.959 790.75 147.069 791.39 147.29C792.031 147.5 792.586 147.835 793.056 148.295C793.527 148.755 793.892 149.346 794.152 150.066C794.412 150.787 794.542 151.657 794.542 152.678V163.5H791.765V152.813C791.765 151.963 791.62 151.282 791.33 150.772C791.05 150.261 790.65 149.891 790.129 149.661C789.609 149.421 788.999 149.301 788.298 149.301C787.478 149.301 786.792 149.446 786.242 149.736C785.692 150.026 785.251 150.427 784.921 150.937C784.591 151.447 784.351 152.033 784.201 152.693C784.061 153.343 783.99 154.034 783.99 154.764ZM794.512 153.233L792.651 153.804C792.661 152.913 792.806 152.058 793.086 151.237C793.377 150.417 793.792 149.686 794.332 149.046C794.883 148.405 795.558 147.9 796.358 147.53C797.159 147.149 798.075 146.959 799.105 146.959C799.976 146.959 800.746 147.074 801.417 147.305C802.097 147.535 802.668 147.89 803.128 148.37C803.598 148.841 803.953 149.446 804.194 150.186C804.434 150.927 804.554 151.807 804.554 152.828V163.5H801.762V152.798C801.762 151.887 801.617 151.182 801.327 150.682C801.046 150.171 800.646 149.816 800.126 149.616C799.616 149.406 799.005 149.301 798.295 149.301C797.684 149.301 797.144 149.406 796.674 149.616C796.203 149.826 795.808 150.116 795.488 150.487C795.168 150.847 794.923 151.262 794.752 151.732C794.592 152.203 794.512 152.703 794.512 153.233ZM815.803 163.8C814.672 163.8 813.647 163.61 812.726 163.23C811.816 162.84 811.03 162.294 810.37 161.594C809.719 160.893 809.219 160.063 808.869 159.102C808.519 158.142 808.343 157.091 808.343 155.95V155.32C808.343 153.999 808.539 152.823 808.929 151.792C809.319 150.752 809.849 149.871 810.52 149.151C811.19 148.43 811.951 147.885 812.801 147.515C813.652 147.144 814.532 146.959 815.443 146.959C816.604 146.959 817.604 147.159 818.445 147.56C819.295 147.96 819.991 148.52 820.531 149.241C821.072 149.951 821.472 150.792 821.732 151.762C821.992 152.723 822.122 153.774 822.122 154.914V156.16H809.994V153.894H819.346V153.684C819.305 152.963 819.155 152.263 818.895 151.582C818.645 150.902 818.245 150.341 817.694 149.901C817.144 149.461 816.394 149.241 815.443 149.241C814.813 149.241 814.232 149.376 813.702 149.646C813.172 149.906 812.716 150.296 812.336 150.817C811.956 151.337 811.661 151.973 811.45 152.723C811.24 153.474 811.135 154.339 811.135 155.32V155.95C811.135 156.721 811.24 157.446 811.45 158.127C811.671 158.797 811.986 159.387 812.396 159.898C812.816 160.408 813.322 160.808 813.912 161.098C814.512 161.389 815.193 161.534 815.953 161.534C816.934 161.534 817.764 161.334 818.445 160.933C819.125 160.533 819.721 159.998 820.231 159.327L821.912 160.663C821.562 161.194 821.117 161.699 820.576 162.179C820.036 162.659 819.371 163.05 818.58 163.35C817.8 163.65 816.874 163.8 815.803 163.8ZM829.379 163.5H826.602V145.849C826.602 144.618 826.843 143.577 827.323 142.727C827.803 141.876 828.489 141.231 829.379 140.79C830.27 140.35 831.325 140.13 832.546 140.13C833.267 140.13 833.972 140.22 834.663 140.4C835.353 140.57 836.064 140.785 836.794 141.045L836.329 143.387C835.868 143.207 835.333 143.037 834.723 142.877C834.122 142.707 833.462 142.622 832.741 142.622C831.551 142.622 830.69 142.892 830.16 143.432C829.639 143.962 829.379 144.768 829.379 145.849V163.5ZM832.696 147.26V149.391H824.036V147.26H832.696ZM838.16 147.26V163.5H835.383V147.26H838.16Z" fill="white" fill-opacity="0.8"/>
<rect x="713.44" y="131.44" width="155.119" height="42.1193" rx="21.0597" stroke="white" stroke-opacity="0.8" stroke-width="0.880686"/>
</g>
<g>
<rect x="311" y="137" width="280" height="67" rx="33.5" fill="#35363D" fill-opacity="0.2"/>
<path d="M395.35 175.224C395.35 174.598 395.253 174.041 395.058 173.553C394.877 173.066 394.55 172.62 394.076 172.217C393.603 171.813 392.934 171.423 392.071 171.047C391.222 170.657 390.136 170.26 388.813 169.856C387.365 169.411 386.028 168.917 384.803 168.373C383.591 167.817 382.533 167.176 381.628 166.452C380.723 165.714 380.02 164.872 379.519 163.925C379.017 162.964 378.767 161.857 378.767 160.604C378.767 159.365 379.024 158.237 379.539 157.22C380.069 156.204 380.814 155.327 381.774 154.589C382.749 153.837 383.898 153.259 385.22 152.855C386.543 152.437 388.005 152.229 389.607 152.229C391.862 152.229 393.805 152.646 395.434 153.482C397.077 154.317 398.337 155.438 399.214 156.844C400.105 158.251 400.551 159.803 400.551 161.502H395.35C395.35 160.499 395.134 159.615 394.703 158.849C394.285 158.07 393.645 157.457 392.781 157.011C391.932 156.566 390.853 156.343 389.544 156.343C388.305 156.343 387.274 156.531 386.453 156.907C385.631 157.283 385.019 157.791 384.615 158.432C384.211 159.072 384.009 159.796 384.009 160.604C384.009 161.175 384.141 161.697 384.406 162.17C384.67 162.63 385.074 163.061 385.617 163.465C386.16 163.855 386.843 164.224 387.664 164.572C388.486 164.92 389.453 165.254 390.567 165.575C392.252 166.076 393.721 166.633 394.974 167.246C396.227 167.844 397.272 168.527 398.107 169.292C398.943 170.058 399.569 170.929 399.987 171.903C400.405 172.864 400.614 173.957 400.614 175.182C400.614 176.463 400.356 177.619 399.841 178.649C399.326 179.666 398.588 180.536 397.627 181.26C396.68 181.97 395.538 182.52 394.201 182.91C392.879 183.286 391.403 183.474 389.774 183.474C388.312 183.474 386.87 183.279 385.45 182.889C384.044 182.499 382.763 181.908 381.607 181.114C380.451 180.306 379.532 179.304 378.85 178.106C378.168 176.895 377.827 175.482 377.827 173.867H383.069C383.069 174.855 383.236 175.698 383.57 176.394C383.919 177.09 384.399 177.661 385.012 178.106C385.624 178.538 386.334 178.858 387.142 179.067C387.964 179.276 388.841 179.38 389.774 179.38C390.999 179.38 392.022 179.206 392.844 178.858C393.679 178.51 394.306 178.023 394.724 177.396C395.141 176.77 395.35 176.046 395.35 175.224ZM410.231 164.802V191.745H405.198V160.458H409.834L410.231 164.802ZM424.956 171.548V171.987C424.956 173.63 424.761 175.154 424.371 176.561C423.995 177.953 423.431 179.172 422.679 180.216C421.941 181.246 421.029 182.047 419.943 182.618C418.857 183.189 417.604 183.474 416.184 183.474C414.777 183.474 413.545 183.217 412.487 182.701C411.443 182.172 410.558 181.427 409.834 180.467C409.11 179.506 408.525 178.378 408.08 177.083C407.648 175.774 407.342 174.34 407.161 172.78V171.089C407.342 169.432 407.648 167.928 408.08 166.577C408.525 165.227 409.11 164.064 409.834 163.089C410.558 162.115 411.443 161.363 412.487 160.834C413.531 160.304 414.75 160.04 416.142 160.04C417.562 160.04 418.822 160.318 419.922 160.875C421.022 161.418 421.948 162.198 422.7 163.215C423.452 164.217 424.016 165.429 424.392 166.849C424.768 168.255 424.956 169.822 424.956 171.548ZM419.922 171.987V171.548C419.922 170.504 419.825 169.536 419.63 168.645C419.435 167.74 419.129 166.946 418.711 166.264C418.293 165.582 417.757 165.053 417.103 164.677C416.462 164.287 415.689 164.092 414.784 164.092C413.893 164.092 413.127 164.245 412.487 164.551C411.846 164.844 411.31 165.254 410.879 165.784C410.447 166.313 410.113 166.932 409.876 167.642C409.639 168.339 409.472 169.098 409.375 169.919V173.971C409.542 174.973 409.827 175.892 410.231 176.728C410.635 177.563 411.206 178.232 411.944 178.733C412.696 179.22 413.656 179.464 414.826 179.464C415.731 179.464 416.504 179.269 417.144 178.879C417.785 178.489 418.307 177.953 418.711 177.271C419.129 176.575 419.435 175.774 419.63 174.869C419.825 173.964 419.922 173.003 419.922 171.987ZM439.628 183.474C437.957 183.474 436.446 183.203 435.096 182.66C433.759 182.103 432.617 181.33 431.67 180.341C430.737 179.353 430.02 178.19 429.519 176.853C429.018 175.517 428.767 174.075 428.767 172.53V171.694C428.767 169.926 429.025 168.325 429.54 166.891C430.055 165.456 430.772 164.231 431.691 163.215C432.61 162.184 433.696 161.398 434.949 160.854C436.203 160.311 437.56 160.04 439.022 160.04C440.637 160.04 442.051 160.311 443.262 160.854C444.474 161.398 445.476 162.163 446.27 163.152C447.077 164.127 447.676 165.289 448.066 166.64C448.47 167.991 448.672 169.48 448.672 171.11V173.261H431.211V169.648H443.701V169.251C443.673 168.346 443.492 167.496 443.158 166.703C442.837 165.909 442.343 165.268 441.675 164.781C441.006 164.294 440.115 164.05 439.001 164.05C438.166 164.05 437.421 164.231 436.767 164.593C436.126 164.941 435.59 165.449 435.158 166.118C434.727 166.786 434.392 167.594 434.156 168.541C433.933 169.473 433.822 170.525 433.822 171.694V172.53C433.822 173.518 433.954 174.437 434.218 175.287C434.497 176.122 434.901 176.853 435.43 177.48C435.959 178.106 436.599 178.601 437.351 178.963C438.103 179.311 438.96 179.485 439.92 179.485C441.132 179.485 442.211 179.241 443.158 178.754C444.105 178.267 444.926 177.577 445.622 176.686L448.275 179.255C447.787 179.965 447.154 180.648 446.374 181.302C445.594 181.942 444.641 182.465 443.513 182.868C442.399 183.272 441.104 183.474 439.628 183.474ZM462.258 179.464C463.079 179.464 463.817 179.304 464.472 178.984C465.14 178.649 465.676 178.19 466.08 177.605C466.497 177.02 466.727 176.345 466.769 175.579H471.51C471.482 177.041 471.051 178.371 470.215 179.568C469.38 180.766 468.273 181.72 466.894 182.43C465.516 183.126 463.991 183.474 462.32 183.474C460.594 183.474 459.09 183.182 457.809 182.597C456.528 181.998 455.463 181.177 454.613 180.132C453.764 179.088 453.123 177.884 452.692 176.519C452.274 175.154 452.065 173.692 452.065 172.133V171.402C452.065 169.842 452.274 168.38 452.692 167.016C453.123 165.637 453.764 164.426 454.613 163.382C455.463 162.337 456.528 161.523 457.809 160.938C459.09 160.339 460.587 160.04 462.299 160.04C464.11 160.04 465.697 160.402 467.061 161.126C468.426 161.836 469.498 162.832 470.278 164.113C471.072 165.38 471.482 166.856 471.51 168.541H466.769C466.727 167.705 466.518 166.953 466.142 166.285C465.78 165.603 465.265 165.06 464.597 164.656C463.942 164.252 463.156 164.05 462.237 164.05C461.22 164.05 460.378 164.259 459.71 164.677C459.041 165.08 458.519 165.637 458.143 166.348C457.767 167.044 457.496 167.83 457.328 168.708C457.175 169.571 457.099 170.469 457.099 171.402V172.133C457.099 173.066 457.175 173.971 457.328 174.848C457.482 175.725 457.746 176.512 458.122 177.208C458.512 177.891 459.041 178.441 459.71 178.858C460.378 179.262 461.227 179.464 462.258 179.464ZM486.161 160.458V164.134H473.421V160.458H486.161ZM477.097 154.923H482.13V176.811C482.13 177.508 482.228 178.044 482.423 178.42C482.632 178.782 482.917 179.025 483.279 179.151C483.641 179.276 484.066 179.339 484.553 179.339C484.901 179.339 485.235 179.318 485.556 179.276C485.876 179.234 486.133 179.192 486.328 179.151L486.349 182.994C485.932 183.119 485.444 183.23 484.887 183.328C484.344 183.425 483.718 183.474 483.008 183.474C481.852 183.474 480.828 183.272 479.937 182.868C479.046 182.451 478.35 181.775 477.849 180.842C477.347 179.91 477.097 178.67 477.097 177.125V154.923ZM495.528 164.76V183.056H490.495V160.458H495.299L495.528 164.76ZM502.442 160.311L502.4 164.99C502.094 164.934 501.759 164.892 501.397 164.865C501.049 164.837 500.701 164.823 500.353 164.823C499.49 164.823 498.731 164.948 498.076 165.199C497.422 165.435 496.872 165.784 496.426 166.243C495.995 166.689 495.661 167.232 495.424 167.872C495.187 168.513 495.048 169.23 495.006 170.023L493.857 170.107C493.857 168.687 493.997 167.371 494.275 166.16C494.554 164.948 494.971 163.883 495.528 162.964C496.099 162.045 496.809 161.328 497.659 160.813C498.522 160.298 499.518 160.04 500.645 160.04C500.952 160.04 501.279 160.068 501.627 160.123C501.989 160.179 502.261 160.242 502.442 160.311ZM518.012 178.524V167.747C518.012 166.939 517.866 166.243 517.573 165.658C517.281 165.073 516.835 164.621 516.237 164.301C515.652 163.98 514.914 163.82 514.023 163.82C513.201 163.82 512.491 163.96 511.892 164.238C511.293 164.516 510.827 164.892 510.493 165.366C510.159 165.839 509.992 166.375 509.992 166.974H504.979C504.979 166.083 505.195 165.22 505.626 164.384C506.058 163.549 506.685 162.804 507.506 162.149C508.328 161.495 509.309 160.98 510.451 160.604C511.593 160.228 512.874 160.04 514.294 160.04C515.993 160.04 517.497 160.325 518.805 160.896C520.128 161.467 521.166 162.33 521.918 163.486C522.683 164.628 523.066 166.062 523.066 167.789V177.835C523.066 178.865 523.136 179.791 523.275 180.613C523.428 181.42 523.644 182.123 523.923 182.722V183.056H518.764C518.527 182.513 518.339 181.824 518.2 180.989C518.074 180.139 518.012 179.318 518.012 178.524ZM518.743 169.313L518.785 172.425H515.171C514.238 172.425 513.417 172.516 512.707 172.697C511.997 172.864 511.405 173.115 510.931 173.449C510.458 173.783 510.103 174.187 509.866 174.66C509.63 175.134 509.511 175.67 509.511 176.268C509.511 176.867 509.65 177.417 509.929 177.918C510.207 178.406 510.611 178.789 511.14 179.067C511.683 179.346 512.338 179.485 513.104 179.485C514.134 179.485 515.032 179.276 515.798 178.858C516.578 178.427 517.19 177.904 517.636 177.292C518.081 176.665 518.318 176.073 518.346 175.517L519.975 177.751C519.808 178.322 519.523 178.935 519.119 179.589C518.715 180.244 518.186 180.87 517.531 181.469C516.891 182.054 516.118 182.534 515.213 182.91C514.322 183.286 513.292 183.474 512.122 183.474C510.646 183.474 509.33 183.182 508.174 182.597C507.019 181.998 506.114 181.198 505.459 180.195C504.805 179.179 504.478 178.03 504.478 176.749C504.478 175.551 504.7 174.493 505.146 173.574C505.605 172.641 506.274 171.861 507.151 171.235C508.042 170.608 509.128 170.135 510.409 169.815C511.69 169.48 513.152 169.313 514.795 169.313H518.743Z" fill="white" fill-opacity="0.8"/>
<rect x="311.613" y="137.613" width="278.775" height="65.7745" rx="32.8873" stroke="white" stroke-width="1.22548"/>
</g>
<g>
<rect x="597" y="285" width="229" height="43" rx="21.5" fill="#35363D" fill-opacity="0.2"/>
<path d="M636.862 308.929H631.023V306.573H636.862C637.993 306.573 638.909 306.393 639.609 306.033C640.309 305.672 640.82 305.172 641.14 304.532C641.47 303.891 641.635 303.161 641.635 302.34C641.635 301.59 641.47 300.884 641.14 300.224C640.82 299.563 640.309 299.033 639.609 298.633C638.909 298.223 637.993 298.017 636.862 298.017H631.699V317.5H628.802V295.646H636.862C638.513 295.646 639.909 295.931 641.05 296.501C642.191 297.072 643.056 297.862 643.647 298.873C644.237 299.874 644.532 301.019 644.532 302.31C644.532 303.711 644.237 304.907 643.647 305.898C643.056 306.888 642.191 307.644 641.05 308.164C639.909 308.674 638.513 308.929 636.862 308.929ZM647.136 309.56V309.215C647.136 308.044 647.306 306.958 647.646 305.958C647.987 304.947 648.477 304.071 649.117 303.331C649.758 302.58 650.533 302 651.444 301.59C652.354 301.169 653.375 300.959 654.506 300.959C655.647 300.959 656.672 301.169 657.583 301.59C658.503 302 659.284 302.58 659.924 303.331C660.575 304.071 661.07 304.947 661.41 305.958C661.75 306.958 661.921 308.044 661.921 309.215V309.56C661.921 310.731 661.75 311.816 661.41 312.817C661.07 313.818 660.575 314.693 659.924 315.444C659.284 316.184 658.508 316.765 657.598 317.185C656.697 317.595 655.677 317.8 654.536 317.8C653.395 317.8 652.369 317.595 651.459 317.185C650.548 316.765 649.768 316.184 649.117 315.444C648.477 314.693 647.987 313.818 647.646 312.817C647.306 311.816 647.136 310.731 647.136 309.56ZM649.913 309.215V309.56C649.913 310.37 650.008 311.136 650.198 311.856C650.388 312.567 650.673 313.197 651.054 313.748C651.444 314.298 651.929 314.733 652.509 315.053C653.09 315.364 653.765 315.519 654.536 315.519C655.296 315.519 655.962 315.364 656.532 315.053C657.112 314.733 657.593 314.298 657.973 313.748C658.353 313.197 658.638 312.567 658.829 311.856C659.029 311.136 659.129 310.37 659.129 309.56V309.215C659.129 308.414 659.029 307.659 658.829 306.948C658.638 306.228 658.348 305.592 657.958 305.042C657.578 304.482 657.097 304.041 656.517 303.721C655.947 303.401 655.276 303.241 654.506 303.241C653.745 303.241 653.075 303.401 652.494 303.721C651.924 304.041 651.444 304.482 651.054 305.042C650.673 305.592 650.388 306.228 650.198 306.948C650.008 307.659 649.913 308.414 649.913 309.215ZM668.727 294.445V317.5H665.935V294.445H668.727ZM676.284 294.445V317.5H673.492V294.445H676.284ZM686.206 301.26L679.121 308.839L675.159 312.952L674.933 309.995L677.77 306.603L682.813 301.26H686.206ZM683.669 317.5L677.875 309.755L679.316 307.278L686.941 317.5H683.669ZM698.956 314.723V306.363C698.956 305.722 698.826 305.167 698.566 304.697C698.316 304.216 697.935 303.846 697.425 303.586C696.915 303.326 696.284 303.196 695.534 303.196C694.833 303.196 694.218 303.316 693.688 303.556C693.167 303.796 692.757 304.111 692.457 304.502C692.167 304.892 692.022 305.312 692.022 305.762H689.245C689.245 305.182 689.395 304.607 689.695 304.036C689.995 303.466 690.426 302.951 690.986 302.49C691.556 302.02 692.237 301.65 693.027 301.38C693.828 301.099 694.718 300.959 695.699 300.959C696.88 300.959 697.92 301.159 698.821 301.56C699.732 301.96 700.442 302.565 700.952 303.376C701.473 304.176 701.733 305.182 701.733 306.393V313.958C701.733 314.498 701.778 315.073 701.868 315.684C701.968 316.294 702.113 316.82 702.303 317.26V317.5H699.406C699.266 317.18 699.156 316.755 699.076 316.224C698.996 315.684 698.956 315.184 698.956 314.723ZM699.436 307.654L699.466 309.605H696.66C695.869 309.605 695.164 309.67 694.543 309.8C693.923 309.92 693.403 310.105 692.982 310.355C692.562 310.606 692.242 310.921 692.022 311.301C691.801 311.671 691.691 312.107 691.691 312.607C691.691 313.117 691.806 313.582 692.037 314.003C692.267 314.423 692.612 314.758 693.072 315.008C693.543 315.249 694.118 315.369 694.798 315.369C695.649 315.369 696.399 315.189 697.05 314.828C697.7 314.468 698.216 314.028 698.596 313.507C698.986 312.987 699.196 312.482 699.226 311.991L700.412 313.327C700.342 313.748 700.152 314.213 699.842 314.723C699.531 315.234 699.116 315.724 698.596 316.194C698.086 316.654 697.475 317.04 696.765 317.35C696.064 317.65 695.274 317.8 694.393 317.8C693.292 317.8 692.327 317.585 691.496 317.155C690.676 316.724 690.035 316.149 689.575 315.429C689.125 314.698 688.9 313.883 688.9 312.982C688.9 312.112 689.07 311.346 689.41 310.686C689.75 310.015 690.24 309.46 690.881 309.02C691.521 308.569 692.292 308.229 693.192 307.999C694.093 307.769 695.099 307.654 696.209 307.654H699.436ZM715.864 313.192C715.864 312.792 715.774 312.422 715.594 312.081C715.424 311.731 715.069 311.416 714.528 311.136C713.998 310.846 713.197 310.596 712.127 310.385C711.226 310.195 710.411 309.97 709.68 309.71C708.96 309.45 708.344 309.135 707.834 308.764C707.334 308.394 706.948 307.959 706.678 307.459C706.408 306.958 706.273 306.373 706.273 305.702C706.273 305.062 706.413 304.457 706.693 303.886C706.983 303.316 707.389 302.811 707.909 302.37C708.439 301.93 709.075 301.585 709.815 301.335C710.556 301.084 711.381 300.959 712.292 300.959C713.593 300.959 714.703 301.189 715.624 301.65C716.545 302.11 717.25 302.725 717.74 303.496C718.231 304.256 718.476 305.102 718.476 306.033H715.699C715.699 305.582 715.564 305.147 715.294 304.727C715.034 304.296 714.648 303.941 714.138 303.661C713.638 303.381 713.022 303.241 712.292 303.241C711.521 303.241 710.896 303.361 710.416 303.601C709.945 303.831 709.6 304.126 709.38 304.487C709.17 304.847 709.065 305.227 709.065 305.627C709.065 305.928 709.115 306.198 709.215 306.438C709.325 306.668 709.515 306.883 709.785 307.083C710.055 307.273 710.436 307.454 710.926 307.624C711.416 307.794 712.042 307.964 712.802 308.134C714.133 308.434 715.229 308.794 716.089 309.215C716.95 309.635 717.59 310.15 718.011 310.761C718.431 311.371 718.641 312.112 718.641 312.982C718.641 313.693 718.491 314.343 718.191 314.933C717.901 315.524 717.475 316.034 716.915 316.464C716.365 316.885 715.704 317.215 714.934 317.455C714.173 317.685 713.318 317.8 712.367 317.8C710.936 317.8 709.725 317.545 708.735 317.035C707.744 316.524 706.993 315.864 706.483 315.053C705.973 314.243 705.718 313.387 705.718 312.487H708.509C708.549 313.247 708.77 313.853 709.17 314.303C709.57 314.743 710.06 315.058 710.641 315.249C711.221 315.429 711.797 315.519 712.367 315.519C713.127 315.519 713.763 315.419 714.273 315.219C714.794 315.018 715.189 314.743 715.459 314.393C715.729 314.043 715.864 313.643 715.864 313.192ZM729.395 301.26V303.391H720.614V301.26H729.395ZM723.586 297.312H726.363V313.477C726.363 314.028 726.448 314.443 726.618 314.723C726.788 315.003 727.009 315.189 727.279 315.279C727.549 315.369 727.839 315.414 728.149 315.414C728.38 315.414 728.62 315.394 728.87 315.354C729.13 315.304 729.325 315.264 729.455 315.234L729.47 317.5C729.25 317.57 728.96 317.635 728.6 317.695C728.249 317.765 727.824 317.8 727.324 317.8C726.643 317.8 726.018 317.665 725.448 317.395C724.877 317.125 724.422 316.674 724.082 316.044C723.752 315.404 723.586 314.543 723.586 313.462V297.312ZM742.536 314.723V306.363C742.536 305.722 742.406 305.167 742.146 304.697C741.895 304.216 741.515 303.846 741.005 303.586C740.495 303.326 739.864 303.196 739.114 303.196C738.413 303.196 737.798 303.316 737.267 303.556C736.747 303.796 736.337 304.111 736.037 304.502C735.746 304.892 735.601 305.312 735.601 305.762H732.825C732.825 305.182 732.975 304.607 733.275 304.036C733.575 303.466 734.005 302.951 734.566 302.49C735.136 302.02 735.817 301.65 736.607 301.38C737.408 301.099 738.298 300.959 739.279 300.959C740.46 300.959 741.5 301.159 742.401 301.56C743.311 301.96 744.022 302.565 744.532 303.376C745.052 304.176 745.313 305.182 745.313 306.393V313.958C745.313 314.498 745.358 315.073 745.448 315.684C745.548 316.294 745.693 316.82 745.883 317.26V317.5H742.986C742.846 317.18 742.736 316.755 742.656 316.224C742.576 315.684 742.536 315.184 742.536 314.723ZM743.016 307.654L743.046 309.605H740.239C739.449 309.605 738.743 309.67 738.123 309.8C737.503 309.92 736.982 310.105 736.562 310.355C736.142 310.606 735.822 310.921 735.601 311.301C735.381 311.671 735.271 312.107 735.271 312.607C735.271 313.117 735.386 313.582 735.616 314.003C735.847 314.423 736.192 314.758 736.652 315.008C737.122 315.249 737.698 315.369 738.378 315.369C739.229 315.369 739.979 315.189 740.63 314.828C741.28 314.468 741.795 314.028 742.176 313.507C742.566 312.987 742.776 312.482 742.806 311.991L743.992 313.327C743.922 313.748 743.732 314.213 743.421 314.723C743.111 315.234 742.696 315.724 742.176 316.194C741.665 316.654 741.055 317.04 740.344 317.35C739.644 317.65 738.853 317.8 737.973 317.8C736.872 317.8 735.907 317.585 735.076 317.155C734.255 316.724 733.615 316.149 733.155 315.429C732.704 314.698 732.479 313.883 732.479 312.982C732.479 312.112 732.649 311.346 732.99 310.686C733.33 310.015 733.82 309.46 734.461 309.02C735.101 308.569 735.872 308.229 736.772 307.999C737.673 307.769 738.678 307.654 739.789 307.654H743.016ZM752.765 303.811V317.5H749.988V301.26H752.69L752.765 303.811ZM757.838 301.169L757.823 303.751C757.593 303.701 757.373 303.671 757.163 303.661C756.962 303.641 756.732 303.631 756.472 303.631C755.832 303.631 755.266 303.731 754.776 303.931C754.286 304.131 753.87 304.412 753.53 304.772C753.19 305.132 752.92 305.562 752.72 306.063C752.53 306.553 752.404 307.093 752.344 307.684L751.564 308.134C751.564 307.153 751.659 306.233 751.849 305.372C752.049 304.512 752.354 303.751 752.765 303.091C753.175 302.42 753.695 301.9 754.326 301.53C754.966 301.149 755.727 300.959 756.607 300.959C756.807 300.959 757.037 300.984 757.298 301.034C757.558 301.074 757.738 301.119 757.838 301.169ZM768.262 301.26V303.391H759.481V301.26H768.262ZM762.453 297.312H765.23V313.477C765.23 314.028 765.315 314.443 765.485 314.723C765.655 315.003 765.875 315.189 766.146 315.279C766.416 315.369 766.706 315.414 767.016 315.414C767.246 315.414 767.486 315.394 767.737 315.354C767.997 315.304 768.192 315.264 768.322 315.234L768.337 317.5C768.117 317.57 767.827 317.635 767.466 317.695C767.116 317.765 766.691 317.8 766.191 317.8C765.51 317.8 764.885 317.665 764.314 317.395C763.744 317.125 763.289 316.674 762.948 316.044C762.618 315.404 762.453 314.543 762.453 313.462V297.312ZM778.566 317.8C777.435 317.8 776.409 317.61 775.489 317.23C774.578 316.84 773.793 316.294 773.132 315.594C772.482 314.893 771.981 314.063 771.631 313.102C771.281 312.142 771.106 311.091 771.106 309.95V309.32C771.106 307.999 771.301 306.823 771.691 305.792C772.082 304.752 772.612 303.871 773.282 303.151C773.953 302.43 774.713 301.885 775.564 301.515C776.414 301.144 777.295 300.959 778.205 300.959C779.366 300.959 780.367 301.159 781.207 301.56C782.058 301.96 782.753 302.52 783.294 303.241C783.834 303.951 784.234 304.792 784.495 305.762C784.755 306.723 784.885 307.774 784.885 308.914V310.16H772.757V307.894H782.108V307.684C782.068 306.963 781.918 306.263 781.658 305.582C781.408 304.902 781.007 304.341 780.457 303.901C779.907 303.461 779.156 303.241 778.205 303.241C777.575 303.241 776.995 303.376 776.464 303.646C775.934 303.906 775.479 304.296 775.098 304.817C774.718 305.337 774.423 305.973 774.213 306.723C774.003 307.474 773.898 308.339 773.898 309.32V309.95C773.898 310.721 774.003 311.446 774.213 312.127C774.433 312.797 774.748 313.387 775.159 313.898C775.579 314.408 776.084 314.808 776.675 315.098C777.275 315.389 777.955 315.534 778.716 315.534C779.696 315.534 780.527 315.334 781.207 314.933C781.888 314.533 782.483 313.998 782.994 313.327L784.675 314.663C784.324 315.194 783.879 315.699 783.339 316.179C782.798 316.659 782.133 317.05 781.343 317.35C780.562 317.65 779.636 317.8 778.566 317.8ZM791.211 303.811V317.5H788.434V301.26H791.136L791.211 303.811ZM796.284 301.169L796.269 303.751C796.039 303.701 795.819 303.671 795.609 303.661C795.409 303.641 795.179 303.631 794.918 303.631C794.278 303.631 793.713 303.731 793.222 303.931C792.732 304.131 792.317 304.412 791.977 304.772C791.636 305.132 791.366 305.562 791.166 306.063C790.976 306.553 790.851 307.093 790.791 307.684L790.01 308.134C790.01 307.153 790.105 306.233 790.296 305.372C790.496 304.512 790.801 303.751 791.211 303.091C791.621 302.42 792.142 301.9 792.772 301.53C793.413 301.149 794.173 300.959 795.054 300.959C795.254 300.959 795.484 300.984 795.744 301.034C796.004 301.074 796.184 301.119 796.284 301.169Z" fill="white" fill-opacity="0.8"/>
<rect x="597.44" y="285.44" width="228.119" height="42.1193" rx="21.0597" stroke="white" stroke-opacity="0.8" stroke-width="0.880686"/>
</g>
<path d="M581.5 72V78.5C581.5 91.7548 570.755 102.5 557.5 102.5H475C461.745 102.5 451 113.245 451 126.5V133" stroke="white" stroke-opacity="0.4" stroke-width="2" stroke-dasharray="4 4"/>
<path d="M709 152.5H661C656.029 152.5 652 156.529 652 161.5V161.5C652 166.471 647.971 170.5 643 170.5H595" stroke="white" stroke-opacity="0.4" stroke-width="2" stroke-dasharray="4 4"/>
<path d="M193.5 72V78.5C193.5 91.7548 204.245 102.5 217.5 102.5H427C440.255 102.5 451 113.245 451 126.5V133" stroke="white" stroke-opacity="0.4" stroke-width="2" stroke-dasharray="4 4"/>
<path d="M257.5 232V194.5C257.5 181.245 268.245 170.5 281.5 170.5H307" stroke="white" stroke-opacity="0.4" stroke-width="2" stroke-dasharray="4 4"/>
<path d="M593 306.5H475C461.745 306.5 451 295.755 451 282.5V208" stroke="white" stroke-opacity="0.4" stroke-width="2" stroke-dasharray="4 4"/>
<defs>
<filter id="filter0_f_207_1292" x="202.454" y="58.8009" width="492.997" height="223.003" filterUnits="userSpaceOnUse" color-interpolation-filters="sRGB">
<feFlood flood-opacity="0" result="BackgroundImageFix"/>
<feBlend mode="normal" in="SourceGraphic" in2="BackgroundImageFix" result="shape"/>
<feGaussianBlur stdDeviation="38.8717" result="effect1_foregroundBlur_207_1292"/>
</filter>
<filter id="filter1_b_207_1292" x="75.9027" y="-6.09732" width="235.195" height="105.195" filterUnits="userSpaceOnUse" color-interpolation-filters="sRGB">
<feFlood flood-opacity="0" result="BackgroundImageFix"/>
<feGaussianBlur in="BackgroundImage" stdDeviation="15.5487"/>
<feComposite in2="SourceAlpha" operator="in" result="effect1_backgroundBlur_207_1292"/>
<feBlend mode="normal" in="SourceGraphic" in2="effect1_backgroundBlur_207_1292" result="shape"/>
</filter>
<filter id="filter2_b_207_1292" x="126.903" y="204.903" width="261.195" height="105.195" filterUnits="userSpaceOnUse" color-interpolation-filters="sRGB">
<feFlood flood-opacity="0" result="BackgroundImageFix"/>
<feGaussianBlur in="BackgroundImage" stdDeviation="15.5487"/>
<feComposite in2="SourceAlpha" operator="in" result="effect1_backgroundBlur_207_1292"/>
<feBlend mode="normal" in="SourceGraphic" in2="effect1_backgroundBlur_207_1292" result="shape"/>
</filter>
<filter id="filter3_b_207_1292" x="469.903" y="-6.09732" width="223.195" height="105.195" filterUnits="userSpaceOnUse" color-interpolation-filters="sRGB">
<feFlood flood-opacity="0" result="BackgroundImageFix"/>
<feGaussianBlur in="BackgroundImage" stdDeviation="15.5487"/>
<feComposite in2="SourceAlpha" operator="in" result="effect1_backgroundBlur_207_1292"/>
<feBlend mode="normal" in="SourceGraphic" in2="effect1_backgroundBlur_207_1292" result="shape"/>
</filter>
<filter id="filter4_b_207_1292" x="681.903" y="99.9027" width="218.195" height="105.195" filterUnits="userSpaceOnUse" color-interpolation-filters="sRGB">
<feFlood flood-opacity="0" result="BackgroundImageFix"/>
<feGaussianBlur in="BackgroundImage" stdDeviation="15.5487"/>
<feComposite in2="SourceAlpha" operator="in" result="effect1_backgroundBlur_207_1292"/>
<feBlend mode="normal" in="SourceGraphic" in2="effect1_backgroundBlur_207_1292" result="shape"/>
</filter>
<filter id="filter5_b_207_1292" x="279.903" y="105.903" width="342.195" height="129.195" filterUnits="userSpaceOnUse" color-interpolation-filters="sRGB">
<feFlood flood-opacity="0" result="BackgroundImageFix"/>
<feGaussianBlur in="BackgroundImage" stdDeviation="15.5487"/>
<feComposite in2="SourceAlpha" operator="in" result="effect1_backgroundBlur_207_1292"/>
<feBlend mode="normal" in="SourceGraphic" in2="effect1_backgroundBlur_207_1292" result="shape"/>
</filter>
<filter id="filter6_b_207_1292" x="565.903" y="253.903" width="291.195" height="105.195" filterUnits="userSpaceOnUse" color-interpolation-filters="sRGB">
<feFlood flood-opacity="0" result="BackgroundImageFix"/>
<feGaussianBlur in="BackgroundImage" stdDeviation="15.5487"/>
<feComposite in2="SourceAlpha" operator="in" result="effect1_backgroundBlur_207_1292"/>
<feBlend mode="normal" in="SourceGraphic" in2="effect1_backgroundBlur_207_1292" result="shape"/>
</filter>
<clipPath id="clip0_207_1292">
<rect y="0.375977" width="903" height="351.768" rx="23.323" fill="white"/>
</clipPath>
</defs>
</svg>
