<svg width="72" height="72" viewBox="0 0 72 72" fill="none" xmlns="http://www.w3.org/2000/svg">
<rect width="72" height="72" rx="16" fill="white"/>
<path d="M35.7239 21.0025C31.9751 21.071 28.2524 22.5344 25.3933 25.3934C19.5354 31.2513 19.5354 40.7488 25.3933 46.6066C25.909 47.1223 26.4521 47.592 27.0176 48.016C27.813 48.6123 27.9744 49.7405 27.3781 50.5359C26.7818 51.3313 25.6535 51.4927 24.8581 50.8964C24.1566 50.3704 23.4844 49.7889 22.8477 49.1522C15.584 41.8885 15.584 30.1116 22.8477 22.8478C26.0811 19.6145 30.2114 17.8202 34.4361 17.4656L33.0301 16.0596C32.3272 15.3567 32.3272 14.217 33.0301 13.514C33.733 12.8111 34.8727 12.8111 35.5757 13.514L40.6669 18.6052C41.3698 19.3081 41.3698 20.4478 40.6669 21.1508L35.5757 26.2419C34.8727 26.9449 33.733 26.9449 33.0301 26.2419C32.3272 25.539 32.3272 24.3993 33.0301 23.6964L35.7239 21.0025ZM36.2759 50.9974C40.0247 50.929 43.7474 49.4656 46.6065 46.6065C52.4644 40.7487 52.4644 31.2512 46.6065 25.3933C46.0908 24.8776 45.5477 24.4079 44.9822 23.984C44.1868 23.3876 44.0254 22.2594 44.6217 21.464C45.218 20.6686 46.3463 20.5073 47.1417 21.1036C47.8432 21.6296 48.5154 22.2111 49.1521 22.8477C56.4158 30.1115 56.4158 41.8884 49.1521 49.1521C45.9187 52.3854 41.7884 54.1797 37.5638 54.5344L38.9697 55.9403C39.6727 56.6433 39.6727 57.783 38.9697 58.4859C38.2668 59.1889 37.1271 59.1889 36.4241 58.4859L31.3329 53.3947C30.63 52.6918 30.63 51.5521 31.3329 50.8492L36.4241 45.758C37.1271 45.055 38.2668 45.055 38.9697 45.758C39.6727 46.4609 39.6727 47.6006 38.9697 48.3036L36.2759 50.9974Z" fill="#FF6500"/>
</svg>
