<svg width="72" height="72" viewBox="0 0 72 72" fill="none" xmlns="http://www.w3.org/2000/svg">
<rect width="72" height="72" rx="16" fill="white"/>
<path d="M30.6509 48.2294C32.7964 49.9625 35.5269 51.0003 38.4998 51.0003C40.3859 51.0003 42.1773 50.5818 43.7836 49.8316L49.5046 50.9761C49.9144 51.058 50.3381 50.9298 50.6336 50.6343C50.9292 50.3387 51.0575 49.915 50.9755 49.5052L49.8313 43.7837C50.5813 42.1776 50.9998 40.3862 50.9998 38.5003C50.9998 35.528 49.9624 32.7981 48.2299 30.6527C48.4071 31.5747 48.4999 32.5266 48.4999 33.5003C48.4999 34.4419 48.4131 35.3633 48.2471 36.2569C48.4124 36.978 48.4998 37.729 48.4998 38.5003C48.4998 40.1396 48.1063 41.6833 47.4097 43.0457C47.2814 43.2966 47.2417 43.5835 47.297 43.8598L48.1563 48.1568L43.8597 47.2973C43.5834 47.242 43.2964 47.2818 43.0455 47.4101C41.683 48.1068 40.1392 48.5003 38.4998 48.5003C37.7284 48.5003 36.9774 48.413 36.2561 48.2476C35.3627 48.4135 34.4414 48.5003 33.4999 48.5003C32.5269 48.5003 31.5742 48.4072 30.6509 48.2294ZM33.5 21C26.5965 21 21 26.5964 21 33.5C21 35.386 21.4185 37.1773 22.1685 38.7834L21.0243 44.5049C20.9423 44.9148 21.0706 45.3384 21.3662 45.634C21.6617 45.9295 22.0854 46.0578 22.4952 45.9758L28.2162 44.8313C29.8225 45.5815 31.6139 46 33.5 46C40.4036 46 46 40.4036 46 33.5C46 26.5964 40.4036 21 33.5 21Z" fill="#FF6500"/>
</svg>
