<svg width="72" height="72" viewBox="0 0 72 72" fill="none" xmlns="http://www.w3.org/2000/svg">
<rect width="72" height="72" rx="16" fill="white"/>
<path d="M50.1089 24H21.6C18.9491 24 16.8 26.149 16.8 28.8V43.2C16.8 45.851 18.9491 48 21.6 48H50.4001C53.051 48 55.2001 45.851 55.2001 43.2V29.0912L44.5456 39.7456C43.1397 41.1515 40.8604 41.1515 39.4545 39.7456C38.0486 38.3397 38.0486 36.0603 39.4545 34.6544L50.1089 24ZM21.6 32.4C21.6 31.7373 22.1373 31.2 22.8 31.2H27.6C28.2628 31.2 28.8 31.7373 28.8 32.4C28.8 33.0627 28.2628 33.6 27.6 33.6H22.8C22.1373 33.6 21.6 33.0627 21.6 32.4ZM21.6 39.6C21.6 38.9373 22.1373 38.4 22.8 38.4H33.6C34.2628 38.4 34.8 38.9373 34.8 39.6C34.8 40.2627 34.2628 40.8 33.6 40.8H22.8C22.1373 40.8 21.6 40.2627 21.6 39.6ZM54.8486 26.0485C55.3172 25.5799 55.3172 24.8201 54.8486 24.3515C54.3799 23.8828 53.6202 23.8828 53.1515 24.3515L41.1515 36.3515C40.6829 36.8201 40.6829 37.5799 41.1515 38.0485C41.6202 38.5172 42.3799 38.5172 42.8486 38.0485L54.8486 26.0485Z" fill="#FF6500"/>
</svg>
