<svg width="72" height="72" viewBox="0 0 72 72" fill="none" xmlns="http://www.w3.org/2000/svg">
<rect width="72" height="72" rx="16" fill="white"/>
<path d="M26 22C23.7909 22 22 23.7909 22 26V46C22 48.2091 23.7909 50 26 50H46C48.2091 50 50 48.2091 50 46V26C50 23.7909 48.2091 22 46 22H26ZM36 36C36.5523 36 37 36.4477 37 37V43C37 43.5523 36.5523 44 36 44C35.4477 44 35 43.5523 35 43V37C35 36.4477 35.4477 36 36 36ZM28 33C28 32.4477 28.4477 32 29 32C29.5523 32 30 32.4477 30 33V43C30 43.5523 29.5523 44 29 44C28.4477 44 28 43.5523 28 43V33ZM43 28C43.5523 28 44 28.4477 44 29V43C44 43.5523 43.5523 44 43 44C42.4477 44 42 43.5523 42 43V29C42 28.4477 42.4477 28 43 28Z" fill="#FF6500"/>
</svg>
