<svg width="72" height="72" viewBox="0 0 72 72" fill="none" xmlns="http://www.w3.org/2000/svg">
<rect width="72" height="72" rx="16" fill="white"/>
<path d="M20.4 21.6C18.4118 21.6 16.8 23.2118 16.8 25.2V42C16.8 43.9882 18.4118 45.6 20.4 45.6H46.8001C48.7883 45.6 50.4001 43.9882 50.4001 42V25.2C50.4001 23.2118 48.7883 21.6 46.8001 21.6H20.4ZM26.4 24V26.4C26.4 29.0509 24.251 31.2 21.6 31.2L19.2 31.2V28.8H21.6C22.9255 28.8 24 27.7255 24 26.4V24H26.4ZM33.6 37.8C31.2805 37.8 29.4 35.9196 29.4 33.6C29.4 31.2804 31.2805 29.4 33.6 29.4C35.9196 29.4 37.8 31.2804 37.8 33.6C37.8 35.9196 35.9196 37.8 33.6 37.8ZM19.2 38.4V36H21.6C24.251 36 26.4 38.149 26.4 40.8V43.2H24V40.8C24 39.4745 22.9255 38.4 21.6 38.4H19.2ZM45.6 38.4C44.2746 38.4 43.2001 39.4745 43.2001 40.8V43.2H40.8V40.8C40.8 38.149 42.9491 36 45.6 36H48V38.4H45.6ZM45.6 28.8H48V31.2L45.6 31.2C42.9491 31.2 40.8 29.0509 40.8 26.4V24H43.2001V26.4C43.2001 27.7255 44.2746 28.8 45.6 28.8ZM52.8003 41.9999C52.8003 45.3136 50.114 47.9999 46.8003 47.9999H21.8051C22.2993 49.3981 23.6328 50.3999 25.2003 50.3999H46.8003C51.4395 50.3999 55.2003 46.6391 55.2003 41.9999V29.9999C55.2003 28.4325 54.1985 27.099 52.8003 26.6048V41.9999Z" fill="#FF6500"/>
</svg>
