<svg width="72" height="72" viewBox="0 0 72 72" fill="none" xmlns="http://www.w3.org/2000/svg">
<rect width="72" height="72" rx="16" fill="white"/>
<path d="M43.291 23.1188C43.7502 22.4658 44.6025 22.2211 45.3382 22.5311C46.3357 22.9514 46.69 24.1856 46.0673 25.0711L29.3245 48.8812C28.8653 49.5342 28.0131 49.7789 27.2774 49.4689C26.2799 49.0486 25.9256 47.8144 26.5482 46.9289L43.291 23.1188ZM27.2658 35.3909C26.3291 35.3909 25.4684 35.2398 24.6835 34.9377C23.9241 34.6356 23.2658 34.2076 22.7089 33.6537C22.1772 33.0999 21.7595 32.4453 21.4557 31.69C21.1519 30.9096 21 30.0536 21 29.1221V28.7444C21 27.8129 21.1519 26.9695 21.4557 26.2143C21.7595 25.4338 22.1772 24.7667 22.7089 24.2128C23.2658 23.6589 23.9241 23.2309 24.6835 22.9288C25.4684 22.6267 26.3291 22.4757 27.2658 22.4757C28.2025 22.4757 29.0506 22.6267 29.8101 22.9288C30.5696 23.2309 31.2278 23.6589 31.7848 24.2128C32.3418 24.7667 32.7722 25.4338 33.0759 26.2143C33.3797 26.9695 33.5316 27.8129 33.5316 28.7444V29.1221C33.5316 30.0536 33.3797 30.9096 33.0759 31.69C32.7722 32.4453 32.3418 33.0999 31.7848 33.6537C31.2278 34.2076 30.5696 34.6356 29.8101 34.9377C29.0506 35.2398 28.2025 35.3909 27.2658 35.3909ZM27.2658 31.9921C27.9494 31.9921 28.4937 31.7655 28.8987 31.3124C29.3038 30.8592 29.5063 30.1291 29.5063 29.1221V28.7444C29.5063 27.7374 29.3038 27.0073 28.8987 26.5541C28.4937 26.101 27.9494 25.8744 27.2658 25.8744C26.5823 25.8744 26.038 26.101 25.6329 26.5541C25.2278 27.0073 25.0253 27.7374 25.0253 28.7444V29.1221C25.0253 30.1291 25.2278 30.8592 25.6329 31.3124C26.038 31.7655 26.5823 31.9921 27.2658 31.9921ZM44.7342 49.7033C43.7975 49.7033 42.9367 49.5523 42.1519 49.2502C41.3924 48.9481 40.7342 48.5201 40.1772 47.9662C39.6456 47.4123 39.2278 46.7578 38.924 46.0025C38.6203 45.222 38.4684 44.3661 38.4684 43.4346V43.0569C38.4684 42.1254 38.6203 41.282 38.924 40.5267C39.2278 39.7463 39.6456 39.0791 40.1772 38.5253C40.7342 37.9714 41.3924 37.5434 42.1519 37.2413C42.9367 36.9392 43.7975 36.7881 44.7342 36.7881C45.6709 36.7881 46.519 36.9392 47.2785 37.2413C48.038 37.5434 48.6962 37.9714 49.2532 38.5253C49.8101 39.0791 50.2405 39.7463 50.5443 40.5267C50.8481 41.282 51 42.1254 51 43.0569V43.4346C51 44.3661 50.8481 45.222 50.5443 46.0025C50.2405 46.7578 49.8101 47.4123 49.2532 47.9662C48.6962 48.5201 48.038 48.9481 47.2785 49.2502C46.519 49.5523 45.6709 49.7033 44.7342 49.7033ZM44.7342 46.3046C45.4177 46.3046 45.962 46.078 46.3671 45.6249C46.7722 45.1717 46.9747 44.4416 46.9747 43.4346V43.0569C46.9747 42.0499 46.7722 41.3198 46.3671 40.8666C45.962 40.4135 45.4177 40.1869 44.7342 40.1869C44.0506 40.1869 43.5063 40.4135 43.1013 40.8666C42.6962 41.3198 42.4937 42.0499 42.4937 43.0569V43.4346C42.4937 44.4416 42.6962 45.1717 43.1013 45.6249C43.5063 46.078 44.0506 46.3046 44.7342 46.3046Z" fill="#FF6500"/>
</svg>
