<svg width="72" height="72" viewBox="0 0 72 72" fill="none" xmlns="http://www.w3.org/2000/svg">
<rect width="72" height="72" rx="16" fill="white"/>
<path d="M54.2469 30.0453C54.8564 31.918 55.186 33.917 55.186 35.993C55.186 46.5956 46.5909 55.1907 35.9882 55.1907C25.3856 55.1907 16.7905 46.5956 16.7905 35.993C16.7905 25.3904 25.3856 16.7953 35.9882 16.7953C38.0751 16.7953 40.0841 17.1282 41.9652 17.7439L39.454 20.2549C39.315 20.3939 39.1886 20.5431 39.0754 20.7008C38.0775 20.5004 37.0451 20.3953 35.9882 20.3953C27.3739 20.3953 20.3905 27.3786 20.3905 35.993C20.3905 44.6074 27.3739 51.5907 35.9882 51.5907C44.6026 51.5907 51.586 44.6074 51.586 35.993C51.586 34.9463 51.4829 33.9237 51.2863 32.9348C51.449 32.8191 51.6028 32.6894 51.7459 32.5463L54.2469 30.0453ZM47.7556 33.6007C47.9129 34.376 47.9955 35.1785 47.9955 36.0002C47.9955 42.6276 42.6229 48.0002 35.9955 48.0002C29.3681 48.0002 23.9955 42.6276 23.9955 36.0002C23.9955 29.3728 29.3681 24.0002 35.9955 24.0002C36.8189 24.0002 37.6229 24.0831 38.3997 24.2411L38.4001 27.9494C37.6383 27.7222 36.8311 27.6002 35.9955 27.6002C31.3563 27.6002 27.5955 31.361 27.5955 36.0002C27.5955 40.6394 31.3563 44.4002 35.9955 44.4002C40.6347 44.4002 44.3955 40.6394 44.3955 36.0002C44.3955 35.1664 44.274 34.361 44.0478 33.6007H47.7556ZM35.9955 39.6003C37.9837 39.6003 39.5955 37.9885 39.5955 36.0003C39.5955 35.679 39.5534 35.3676 39.4745 35.0712L43.2727 31.273C43.2965 31.2493 43.3194 31.225 43.3416 31.2003H49.2008C49.519 31.2003 49.8243 31.0738 50.0493 30.8488L54.8493 26.0488C55.1925 25.7056 55.2952 25.1895 55.1094 24.741C54.9237 24.2926 54.4862 24.0003 54.0008 24.0003L48.0003 24.0001V18.0001C48.0003 17.5147 47.708 17.0772 47.2596 16.8914C46.8112 16.7057 46.295 16.8083 45.9518 17.1515L41.1515 21.9516C40.9265 22.1766 40.8 22.4819 40.8001 22.8002L40.8006 28.6579C40.7756 28.6802 40.7511 28.7034 40.7271 28.7274L36.9314 32.5231C36.633 32.443 36.3192 32.4003 35.9955 32.4003C34.0073 32.4003 32.3955 34.012 32.3955 36.0003C32.3955 37.9885 34.0073 39.6003 35.9955 39.6003Z" fill="#FF6500"/>
</svg>
